<svg xmlns="http://www.w3.org/2000/svg" xmlns:xlink="http://www.w3.org/1999/xlink" width="192" height="20" viewBox="0 0 192 20">
  <defs>
    <clipPath id="clip-path">
      <rect id="사각형_13327" data-name="사각형 13327" width="192" height="20" transform="translate(321.53 856.268)" fill="none" stroke="#707070" stroke-width="1"/>
    </clipPath>
  </defs>
  <g id="navigation_logo_DH35" data-name="navigation logo_DH35" transform="translate(-321.53 -856.268)" clip-path="url(#clip-path)">
    <g id="그룹_11258" data-name="그룹 11258" transform="translate(5.774 559.64)">
      <path id="패스_55338" data-name="패스 55338" d="M321.61,313.037h-5.853l3.449-11.283h6.317c5.672,0,8.872,1.338,7.576,5.577S328,313.037,321.61,313.037Zm3.07-8.607h-1.238l-1.814,5.932h1.083c3.12,0,4.559-.741,5.244-2.982C328.59,305.3,327.8,304.43,324.68,304.43Z" transform="translate(0 -0.679)"/>
      <path id="패스_55339" data-name="패스 55339" d="M378.033,313.037l1.36-4.448h-5.62l-1.36,4.448h-5.105l3.45-11.283h5.105l-1.257,4.11h5.62l1.256-4.11h5.105l-3.45,11.283Z" transform="translate(-34.225 -0.679)"/>
      <path id="패스_55340" data-name="패스 55340" d="M480.367,313.179a17.694,17.694,0,0,1-7.29-1.37l2.751-2.338a14.638,14.638,0,0,0,5.461,1.113c2.32,0,3.333-.532,3.609-1.434.266-.871-.472-1.322-2.019-1.322a8.82,8.82,0,0,0-3.522.645l-4-.9,2.408-5.851H490.91l-.779,2.547h-9.1l-.633,1.564a14.047,14.047,0,0,1,4.046-.5c3.893,0,6.071,1.225,5.3,3.739C488.941,311.7,485.5,313.179,480.367,313.179Z" transform="translate(-104.444 -0.655)"/>
      <path id="패스_55341" data-name="패스 55341" d="M433.356,312.37a12.912,12.912,0,0,1-7.079-1.725l3.2-2.031a9.414,9.414,0,0,0,4.771,1.177c2.089,0,3.078-.371,3.315-1.144.241-.789-.392-1.08-2.222-1.08h-2.6l.744-2.434h2.32c1.573,0,2.153-.21,2.379-.952.182-.6-.44-.919-2.22-.919a12.339,12.339,0,0,0-4.782.967l-1.75-2.03a18.623,18.623,0,0,1,7.435-1.467c4.331,0,6.958.855,6.228,3.24-.379,1.241-1.722,1.838-3.073,2.208,1.6.242,2.84,1,2.4,2.434C441.621,311.226,438.255,312.37,433.356,312.37Z" transform="translate(-73.374)"/>
    </g>
  </g>
</svg>
