<svg xmlns="http://www.w3.org/2000/svg" xmlns:xlink="http://www.w3.org/1999/xlink" width="192" height="20" viewBox="0 0 192 20">
  <defs>
    <clipPath id="clip-path">
      <rect id="사각형_13321" data-name="사각형 13321" width="192" height="20" transform="translate(321.53 856.268)" fill="none" stroke="#707070" stroke-width="1"/>
    </clipPath>
  </defs>
  <g id="navigation_logo_AL22" data-name="navigation logo_AL22" transform="translate(-321.53 -856.268)" clip-path="url(#clip-path)">
    <g id="그룹_11214" data-name="그룹 11214" transform="translate(173.296 461.625)">
      <path id="패스_55267" data-name="패스 55267" d="M377.893,410.314c1.3-3.765,4.693-5.584,9.539-6.828,2.049-.526,2.383-.7,2.52-1.148.151-.495-.327-.766-1.756-.766a16.161,16.161,0,0,0-5.654,1.133l-1.574-2.281a23.054,23.054,0,0,1,8.1-1.452c4.44,0,6.421,1.117,5.8,3.143-.448,1.468-1.538,2.361-5.26,3.35-3.889,1.036-5.075,1.659-5.662,2.329h9.314l-.771,2.521Z" transform="translate(-195.613)"/>
      <path id="패스_55268" data-name="패스 55268" d="M486.168,410.314c1.3-3.765,4.693-5.584,9.539-6.828,2.049-.526,2.384-.7,2.52-1.148.151-.495-.327-.766-1.756-.766a16.162,16.162,0,0,0-5.654,1.133l-1.573-2.281a23.054,23.054,0,0,1,8.1-1.452c4.44,0,6.421,1.117,5.8,3.143-.448,1.468-1.538,2.361-5.26,3.35-3.889,1.036-5.075,1.659-5.662,2.329h9.313l-.771,2.521Z" transform="translate(-287.837)"/>
      <path id="패스_55269" data-name="패스 55269" d="M160.84,411.318l-.37-1.963h-5.358l-1.569,1.963h-5.308l9.9-11.167h5l3.067,11.167Zm-.925-5.153a20.223,20.223,0,0,1-.295-2.792c-.459.75-.93,1.372-2,2.792l-.556.734h2.96Z" transform="translate(0 -1.004)"/>
      <path id="패스_55270" data-name="패스 55270" d="M278.029,411.318l3.414-11.167h5l-2.59,8.471h7.909l-.824,2.7Z" transform="translate(-110.553 -1.004)"/>
    </g>
  </g>
</svg>
