<svg xmlns="http://www.w3.org/2000/svg" xmlns:xlink="http://www.w3.org/1999/xlink" width="192" height="20" viewBox="0 0 192 20">
  <defs>
    <clipPath id="clip-path">
      <rect id="사각형_13324" data-name="사각형 13324" width="192" height="20" transform="translate(321.53 856.268)" fill="none" stroke="#707070" stroke-width="1"/>
    </clipPath>
  </defs>
  <g id="navigation_logo_AU04" data-name="navigation logo_AU04" transform="translate(-321.53 -856.268)" clip-path="url(#clip-path)">
    <g id="그룹_11256" data-name="그룹 11256" transform="translate(211.477 495.725)">
      <g id="그룹_11249" data-name="그룹 11249" transform="translate(172.529 365.519)">
        <path id="패스_55321" data-name="패스 55321" d="M269.355,373.583c-3,0-4.964-1.486-4.964-3.454,0-1.994,2.052-3.471,5.017-3.471a6.255,6.255,0,0,1,3.913,1.075l-1.28.451a3.722,3.722,0,0,0-2.669-.845c-2.105,0-3.039,1.142-3.04,2.772s.987,2.793,3.058,2.793a4.366,4.366,0,0,0,2.843-.882l1.139.45A6.681,6.681,0,0,1,269.355,373.583Z" transform="translate(-264.391 -366.485)"/>
        <path id="패스_55322" data-name="패스 55322" d="M289.689,373.265v-5.037h1.7v5.037Zm.876-5.938c-.545,0-1.157-.23-1.157-.508s.612-.519,1.157-.519c.491,0,1.1.23,1.1.519S291.055,367.327,290.565,367.327Z" transform="translate(-279.281 -366.272)"/>
        <path id="패스_55323" data-name="패스 55323" d="M299.529,368.791v3.281c0,.451.228.6.93.6a3.813,3.813,0,0,0,1.107-.144l-.088.624a7.281,7.281,0,0,1-1.7.172c-1.141,0-1.946-.307-1.947-1.141v-3.4h-1.14v-.6h1.141v-1.554l1.7-.4v1.956h2.089v.6Z" transform="translate(-283.615 -366.23)"/>
        <path id="패스_55324" data-name="패스 55324" d="M313.3,377.875h-2.019l1.263-1.833-2.249-4.979h1.578l1.159,2.644-.055,1.964.55-.944,2.785-3.664H318.4Z" transform="translate(-291.716 -369.107)"/>
      </g>
      <g id="그룹_11251" data-name="그룹 11251" transform="translate(110.054 365.035)">
        <path id="패스_55325" data-name="패스 55325" d="M118.374,369.225c-2.175-.378-2.64-.58-2.488-1.078.113-.369.74-.765,2.162-.765a4.052,4.052,0,0,1,2.921,1.032l.078.072,2.92-1.65-.146-.138a6.759,6.759,0,0,0-4.951-1.662c-3.193,0-5.825,1.316-6.4,3.2-.7,2.29,1.373,2.847,3.748,3.257,2.684.453,2.906.738,2.752,1.242-.136.446-.564.957-2.683.957a4.29,4.29,0,0,1-3.3-1.144l-.073-.08-2.861,1.507.1.146c.8,1.21,2.758,1.931,5.247,1.931,5.175,0,6.611-2.171,7.007-3.466C123.117,370.255,120.8,369.648,118.374,369.225Z" transform="translate(-110.054 -365.035)"/>
        <g id="그룹_11250" data-name="그룹 11250" transform="translate(12.375 2.54)">
          <path id="패스_55326" data-name="패스 55326" d="M149.409,379.762l1.382-4.291-4.232,4.446-1.532-4.446-1.242,4.291h-3.159l2.455-8.032h2.969l1.616,4.567,4.424-4.567h2.934l-2.456,8.032Z" transform="translate(-140.626 -371.56)"/>
          <path id="패스_55327" data-name="패스 55327" d="M181.284,379.512l.164-.535a6.328,6.328,0,0,1-2.946.7c-2.268,0-4.377-.917-3.782-2.861.542-1.775,3.109-2.662,5.863-2.662a6.349,6.349,0,0,1,2.239.321l.121-.4c.173-.567-.524-.965-1.682-.965a14.938,14.938,0,0,0-4.317.656l-.18-1.649a14.808,14.808,0,0,1,5.048-.812c2.938,0,5.056.769,4.5,2.575l-1.721,5.627Zm.991-3.246a4.274,4.274,0,0,0-2.1-.4c-1.2,0-1.945.308-2.141.95-.172.567.177,1.011,1.542,1.011a4.117,4.117,0,0,0,2.446-.734Z" transform="translate(-160.858 -371.31)"/>
          <path id="패스_55328" data-name="패스 55328" d="M210.255,379.762l-2.055-2.708h-1.354l-.827,2.708H202.7l2.456-8.032h5.432c2.846,0,4.52.712,3.937,2.615a3.782,3.782,0,0,1-2.9,2.352l2.4,3.064Zm-.3-6.219h-2.03l-.536,1.756h1.979c1.093,0,1.625-.322,1.8-.9C211.316,373.9,211.01,373.543,209.95,373.543Z" transform="translate(-177.575 -371.56)"/>
          <path id="패스_55329" data-name="패스 55329" d="M239.9,373.669l-1.863,6.093h-3.367l1.863-6.093h-2.95l-.764-1.939H243.9l-.593,1.939Z" transform="translate(-195.501 -371.56)"/>
        </g>
      </g>
      <g id="그룹_11254" data-name="그룹 11254" transform="translate(198.209 367.809)">
        <g id="그룹_11253" data-name="그룹 11253" transform="translate(0)">
          <g id="그룹_11252" data-name="그룹 11252">
            <path id="패스_55330" data-name="패스 55330" d="M337,380l-.269-1.427h-3.9L331.691,380h-3.858l7.192-8.115h3.635l2.23,8.115Zm-.673-3.745a14.6,14.6,0,0,1-.215-2.029c-.334.546-.676,1-1.455,2.029l-.4.534H336.4Z" transform="translate(-327.833 -371.887)"/>
            <path id="패스_55331" data-name="패스 55331" d="M367.529,380.129c-3.264,0-5.346-1.02-4.558-3.594l1.421-4.648h3.673l-1.421,4.648c-.3,1,.138,1.612,1.548,1.612a2.3,2.3,0,0,0,2.5-1.612l1.421-4.648h3.673l-1.421,4.648C373.573,379.109,370.794,380.129,367.529,380.129Z" transform="translate(-348.648 -371.887)"/>
          </g>
        </g>
      </g>
      <g id="그룹_11255" data-name="그룹 11255" transform="translate(225.035 367.737)">
        <path id="패스_55332" data-name="패스 55332" d="M399.057,379.9c-3.594,0-5.7-1.44-4.7-4.082s4.239-4.105,7.834-4.105,5.7,1.44,4.705,4.082S402.651,379.9,399.057,379.9Zm2.381-6.293a3.149,3.149,0,0,0-3.141,2.188c-.544,1.452.034,2.211,1.519,2.211a3.168,3.168,0,0,0,3.141-2.188C403.5,374.362,402.923,373.6,401.438,373.6Z" transform="translate(-394.104 -371.709)"/>
        <path id="패스_55333" data-name="패스 55333" d="M436.58,378.594l-.521,1.361h-3.435l.533-1.418h-7.8l.6-1.61,9.308-4.909h3.8l-1.78,4.717h1.769l-.7,1.859Zm-3.866-3.118-.25.136c-.929.511-1.632.874-2.256,1.157.7-.023,1.656-.034,2.608-.034h1.021l.295-.783c.182-.465.534-1.338.715-1.712C434.346,374.569,433.859,374.852,432.714,375.476Z" transform="translate(-412.705 -371.893)"/>
      </g>
    </g>
  </g>
</svg>
