<svg xmlns="http://www.w3.org/2000/svg" xmlns:xlink="http://www.w3.org/1999/xlink" width="192" height="20" viewBox="0 0 192 20">
  <defs>
    <clipPath id="clip-path">
      <rect id="사각형_13322" data-name="사각형 13322" width="192" height="20" transform="translate(321.53 856.268)" fill="none" stroke="#707070" stroke-width="1"/>
    </clipPath>
  </defs>
  <g id="navigation_logo_AM09" data-name="navigation logo_AM09" transform="translate(-321.53 -856.268)" clip-path="url(#clip-path)">
    <g id="그룹_11222" data-name="그룹 11222" transform="translate(-578.348 568.902)">
      <g id="그룹_11215" data-name="그룹 11215" transform="translate(979.045 293.03)">
        <path id="패스_55271" data-name="패스 55271" d="M1226.966,306.086l-.315-1.671h-4.565l-1.336,1.671h-4.522l8.428-9.509h4.26l2.614,9.509Zm-.789-4.388a17.214,17.214,0,0,1-.251-2.377c-.391.638-.792,1.168-1.7,2.377l-.474.625h2.522Z" transform="translate(-1216.228 -296.568)"/>
        <path id="패스_55272" data-name="패스 55272" d="M1293.018,306.086l.694-2.269c.287-.937.57-1.794.86-2.527-.673.707-1.791,1.807-2.521,2.486l-2.805,2.635-1.194-2.635c-.314-.679-.76-1.779-1-2.486-.16.733-.4,1.589-.685,2.527l-.694,2.269h-3.956l2.907-9.509h3.87l1.093,2.54a15.012,15.012,0,0,1,1.036,2.867,35.889,35.889,0,0,1,2.789-2.867l2.646-2.54h3.826l-2.908,9.509Z" transform="translate(-1265.327 -296.568)"/>
        <path id="패스_55273" data-name="패스 55273" d="M1365.46,306.062c-3.84,0-6.155-1.674-5.216-4.746s4.328-4.773,8.168-4.773,6.155,1.674,5.216,4.746S1369.3,306.062,1365.46,306.062Zm2.236-7.317a3.224,3.224,0,0,0-3.245,2.545c-.516,1.687.142,2.57,1.725,2.57a3.224,3.224,0,0,0,3.246-2.544C1369.938,299.628,1369.279,298.744,1367.7,298.744Z" transform="translate(-1324.047 -296.543)"/>
        <path id="패스_55274" data-name="패스 55274" d="M1418.392,306.062l.641-2.1c3.861,0,6.1-.713,7.549-1.781a12.459,12.459,0,0,1-3.963.541c-3.058,0-4.933-.91-4.337-2.862.637-2.083,3.57-3.322,7.746-3.322,3.713,0,5.9,1.279,5.118,3.823C1430.4,302.805,1426.831,306.062,1418.392,306.062Zm6.808-7.5c-1.54,0-2.694.4-2.92,1.134-.218.712.578,1.147,2.138,1.147,1.815,0,2.813-.435,3.035-1.161C1427.655,299.022,1426.995,298.56,1425.2,298.56Z" transform="translate(-1367.636 -296.543)"/>
      </g>
      <g id="그룹_11221" data-name="그룹 11221" transform="translate(899.879 291.858)">
        <g id="그룹_11218" data-name="그룹 11218" transform="translate(55.648 0.37)">
          <g id="그룹_11216" data-name="그룹 11216" transform="translate(0)">
            <path id="패스_55275" data-name="패스 55275" d="M1143.428,298.253a2.407,2.407,0,0,1-2.141,1.639h-17.826a1.171,1.171,0,0,1-1.138-1.639l1-3.278a2.408,2.408,0,0,1,2.141-1.639h17.826a1.171,1.171,0,0,1,1.138,1.639Z" transform="translate(-1122.248 -293.336)"/>
          </g>
          <path id="패스_55276" data-name="패스 55276" d="M1144.429,298.253a1.171,1.171,0,0,1-1.138,1.639h-17.826a2.406,2.406,0,0,1-2.14-1.639l-1-3.278a1.171,1.171,0,0,1,1.138-1.639h17.826a2.407,2.407,0,0,1,2.14,1.639Z" transform="translate(-1122.247 -293.336)"/>
          <g id="그룹_11217" data-name="그룹 11217" transform="translate(2.257 1.039)">
            <path id="패스_55277" data-name="패스 55277" d="M1131.264,301.444l.024-3.958h1.027l-.083,2.719,1.739-2.719h1.193l.026,2.765,1.608-2.765h1.009l-2.416,3.958h-1.064l-.085-2.959-1.891,2.959Z" transform="translate(-1131.264 -297.486)" fill="#fff"/>
            <path id="패스_55278" data-name="패스 55278" d="M1154.077,301.039a2.448,2.448,0,0,1,.47-.889,2.646,2.646,0,0,1,.55-.475,2.544,2.544,0,0,1,.657-.312,3.333,3.333,0,0,1,.979-.137,1.8,1.8,0,0,1,1.392.475,1.291,1.291,0,0,1,.173,1.321,2.346,2.346,0,0,1-.973,1.312,2.966,2.966,0,0,1-1.675.474,1.808,1.808,0,0,1-1.4-.471A1.268,1.268,0,0,1,1154.077,301.039Zm.911-.024a.812.812,0,0,0,.841,1.2,1.62,1.62,0,0,0,.953-.3,1.651,1.651,0,0,0,.613-.9.939.939,0,0,0-.056-.888.95.95,0,0,0-.781-.293,1.572,1.572,0,0,0-1.571,1.19Z" transform="translate(-1148.298 -298.791)" fill="#fff"/>
            <path id="패스_55279" data-name="패스 55279" d="M1170.65,302.926l1.059-3.463h1.847a3.579,3.579,0,0,1,.984.094.647.647,0,0,1,.4.332.724.724,0,0,1,.022.546,1.2,1.2,0,0,1-.484.644,2.052,2.052,0,0,1-.958.32,1.349,1.349,0,0,1,.381.291,2.644,2.644,0,0,1,.327.562l.324.675h-1.049l-.4-.753a3.316,3.316,0,0,0-.307-.509.475.475,0,0,0-.22-.144,1.634,1.634,0,0,0-.43-.039h-.178l-.442,1.446Zm1.488-2h.649a4.424,4.424,0,0,0,.8-.043.7.7,0,0,0,.291-.146.555.555,0,0,0,.168-.26.3.3,0,0,0-.031-.282.425.425,0,0,0-.289-.136q-.1-.012-.636-.012h-.686Z" transform="translate(-1160.794 -298.968)" fill="#fff"/>
            <path id="패스_55280" data-name="패스 55280" d="M1186.994,302.926l1.059-3.463h.877l-.47,1.538,2.243-1.538h1.18l-2.049,1.349,1.079,2.114h-1.136l-.7-1.625-.889.579-.32,1.047Z" transform="translate(-1173.047 -298.968)" fill="#fff"/>
          </g>
        </g>
        <g id="그룹_11220" data-name="그룹 11220">
          <path id="패스_55281" data-name="패스 55281" d="M907.307,295.6c-1.942-.338-2.358-.518-2.221-.963.1-.33.66-.683,1.93-.683a3.614,3.614,0,0,1,2.608.921l.069.065,2.607-1.474-.13-.123a6.036,6.036,0,0,0-4.42-1.484c-2.851,0-5.2,1.175-5.714,2.857-.625,2.045,1.225,2.542,3.346,2.908,2.4.4,2.595.659,2.457,1.107-.122.4-.5.856-2.395.856a3.828,3.828,0,0,1-2.945-1.022l-.065-.071-2.555,1.346.086.131c.711,1.08,2.463,1.724,4.685,1.724,4.62,0,5.9-1.939,6.256-3.094C911.541,296.517,909.477,295.976,907.307,295.6Z" transform="translate(-899.879 -291.858)"/>
          <g id="그룹_11219" data-name="그룹 11219" transform="translate(11.049 2.267)">
            <path id="패스_55282" data-name="패스 55282" d="M951.872,308.695l1.233-3.831-3.778,3.969-1.368-3.969-1.109,3.831h-2.82l2.192-7.171h2.651l1.442,4.077,3.95-4.077h2.62l-2.193,7.171Z" transform="translate(-944.03 -301.372)"/>
            <path id="패스_55283" data-name="패스 55283" d="M999.071,308.24l.146-.477a5.65,5.65,0,0,1-2.63.627c-2.025,0-3.907-.818-3.376-2.554.484-1.585,2.776-2.377,5.235-2.377a5.667,5.667,0,0,1,2,.287l.109-.355c.155-.507-.468-.862-1.5-.862a13.354,13.354,0,0,0-3.854.586l-.16-1.472a13.232,13.232,0,0,1,4.507-.724c2.623,0,4.514.686,4.021,2.3l-1.536,5.023Zm.885-2.9a3.82,3.82,0,0,0-1.875-.354c-1.074,0-1.737.275-1.912.848-.154.506.158.9,1.377.9a3.677,3.677,0,0,0,2.184-.656Z" transform="translate(-980.835 -300.918)"/>
            <path id="패스_55284" data-name="패스 55284" d="M1040.421,308.695l-1.835-2.417h-1.209l-.739,2.417h-2.96l2.193-7.171h4.85c2.541,0,4.035.635,3.515,2.335a3.377,3.377,0,0,1-2.593,2.1l2.14,2.736Zm-.272-5.552h-1.813l-.479,1.568h1.767c.975,0,1.451-.288,1.608-.8C1041.369,303.46,1041.1,303.143,1040.149,303.143Z" transform="translate(-1011.244 -301.372)"/>
            <path id="패스_55285" data-name="패스 55285" d="M1083.5,303.255l-1.664,5.44h-3.006l1.664-5.44h-2.634l-.682-1.731h9.888l-.529,1.731Z" transform="translate(-1043.854 -301.372)"/>
          </g>
        </g>
      </g>
    </g>
  </g>
</svg>
