<svg xmlns="http://www.w3.org/2000/svg" xmlns:xlink="http://www.w3.org/1999/xlink" width="192" height="20" viewBox="0 0 192 20">
  <defs>
    <clipPath id="clip-path">
      <rect id="사각형_13291" data-name="사각형 13291" width="192" height="20" transform="translate(321.53 856.268)" fill="none" stroke="#707070" stroke-width="1"/>
    </clipPath>
    <clipPath id="clip-path-2">
      <rect id="사각형_13282" data-name="사각형 13282" width="167.405" height="12.001" fill="none"/>
    </clipPath>
  </defs>
  <g id="navigation_logo_K117" data-name="navigation logo_K117" transform="translate(-321.53 -856.268)" clip-path="url(#clip-path)">
    <g id="그룹_10852" data-name="그룹 10852" transform="translate(322.784 860.268)" clip-path="url(#clip-path-2)">
      <path id="패스_54869" data-name="패스 54869" d="M11.5,10.277,6.854,16.445,4.506,10.277H0l2.45,6.435h0A3.661,3.661,0,0,0,6.12,19.144h3.2l6.684-8.867Z" transform="translate(0 -7.193)" fill="#231815" fill-rule="evenodd"/>
      <path id="패스_54870" data-name="패스 54870" d="M59.675,5.583h-4.5c-4.839,0-5.485,2.948-5.485,2.948l-.571,2.29c-.83,3.347,3.758,3.587,3.758,3.587l1.088-.006H62.5l.48-1.9H54.993c-1.9,0-1.643-1.395-1.643-1.395l.1-.4h9.982l.372-1.495c.935-3.766-4.131-3.627-4.131-3.627m-.507,3.28H53.923a2.111,2.111,0,0,1,2-1.481h1.891c2.008,0,1.352,1.481,1.352,1.481M111.9,7.354h6.639l.448-1.771h-7.977c-4.214,0-4.777,2.567-4.777,2.567l-.123.494h0c-.12,1.258.826,1.939,2.2,1.939h5.234c.559,0,.826.335.607.757-.3.569-1.228.759-1.9.759h-6.792l-.582,2.3h8.646c4.211,0,4.775-2.567,4.775-2.567l.121-.488a2.1,2.1,0,0,0-2.095-2.553h-5.341c-.43,0-.868-.23-.546-.754a2.026,2.026,0,0,1,1.455-.687M100.916,5.583,99.5,11.25v0l-.312,1.25H96.52c-1.153,0-1.914-.62-1.694-1.375l1.4-5.544H86.717l.515-2.013H82.456l-2.02,8c-.453,1.556,1.2,2.832,3.671,2.832h2.921l.48-1.9h-.529c-1.152,0-1.914-.619-1.694-1.374l.97-3.74h4.778L89.976,11.57c-.452,1.556,1.2,2.832,3.673,2.832h9.558l2.225-8.819ZM74.364,11.176,70.843,5.583h-4.5L64.1,14.45h4.5l1.412-5.593,3.521,5.593h4.5L80.28,5.583h-4.5Z" transform="translate(-34.311 -2.499)" fill="#231815" fill-rule="evenodd"/>
      <path id="패스_54871" data-name="패스 54871" d="M364.785.332c-.832,1.1-1.829,1.125-4.38,1.208l-.45,1.925h3.306l-2.16,8.671h5.344l2.892-11.8Z" transform="translate(-251.941 -0.232)" fill="#231815"/>
      <path id="패스_54872" data-name="패스 54872" d="M315.509,3.233l.5-2.134C315.03.367,313.067,0,310.1,0c-5.087,0-7.994.949-8.737,2.88a1.332,1.332,0,0,0-.075.625,1.509,1.509,0,0,0,.682,1.077A11.094,11.094,0,0,0,305.1,6.016q1.908.61,3.8,1.226c.965.335,1.041.724,1.1,1.166a.939.939,0,0,1-.048.392c-.288.922-1.072,1.389-3.226,1.389-1.663,0-2.538-.375-2.627-1.118a1.864,1.864,0,0,1,.107-.789h-3.763l-.907,2.365c.988.9,3.166,1.353,6.543,1.353a21.835,21.835,0,0,0,6.723-.733,4.2,4.2,0,0,0,2.9-2.735,1.841,1.841,0,0,0,.086-.894q-.16-.848-1.622-1.57a43.044,43.044,0,0,0-5.4-1.838,13.423,13.423,0,0,1-1.567-.555c-.476-.2-.729-.428-.767-.7a.494.494,0,0,1,.062-.329q.377-1.05,3.062-1.048,2.229,0,2.394.949a3.13,3.13,0,0,1,.048.681Z" transform="translate(-209.652 0)" fill="#231815"/>
      <path id="패스_54873" data-name="패스 54873" d="M449.923,16.027l-3.718,4.935-1.879-4.935h-3.6l1.96,5.148h0a2.928,2.928,0,0,0,2.935,1.946h2.564l5.348-7.094Z" transform="translate(-308.473 -11.218)" fill="#231815" fill-rule="evenodd"/>
      <path id="패스_54874" data-name="패스 54874" d="M408.605,16.026h-3.6c-3.87,0-4.387,2.358-4.387,2.358l-.456,1.832c-.665,2.677,3.005,2.869,3.005,2.869l.871,0h6.823l.386-1.519H404.86c-1.52,0-1.315-1.116-1.315-1.116l.082-.322h7.987l.3-1.2c.749-3.012-3.305-2.9-3.305-2.9m-.406,2.623H404a1.689,1.689,0,0,1,1.6-1.185h1.513c1.607,0,1.082,1.185,1.082,1.185" transform="translate(-280.028 -11.217)" fill="#231815" fill-rule="evenodd"/>
      <path id="패스_54875" data-name="패스 54875" d="M488.218,16.027h-3.826c-3.872,0-4.408,2.358-4.408,2.358l-.6,2.343s-.679,2.358,3.192,2.358H486.4c3.872,0,4.407-2.358,4.407-2.358l.6-2.343s.678-2.358-3.192-2.358m-.327,2.623-.467,1.813a1.706,1.706,0,0,1-1.611,1.185H483.9s-1.3-.012-1-1.185l.468-1.813a1.705,1.705,0,0,1,1.611-1.185h1.913s1.3.012,1,1.185" transform="translate(-335.499 -11.218)" fill="#231815" fill-rule="evenodd"/>
      <path id="패스_54876" data-name="패스 54876" d="M522.4,8.157c.653-2.246,2.763-3.331,5.843-4.073,1.31-.314,1.514-.42,1.574-.686.075-.3-.251-.457-1.174-.457a10.854,10.854,0,0,0-3.623.676l-1.143-1.361a15.51,15.51,0,0,1,5.186-.866c2.894,0,4.24.666,3.943,1.874-.216.876-.878,1.409-3.245,2-2.468.618-3.209.989-3.555,1.389h6.052l-.37,1.5Z" transform="translate(-365.64 -0.973)" fill="#231815"/>
    </g>
  </g>
</svg>
