<svg xmlns="http://www.w3.org/2000/svg" xmlns:xlink="http://www.w3.org/1999/xlink" width="192" height="20" viewBox="0 0 192 20">
  <defs>
    <clipPath id="clip-path">
      <rect id="사각형_13300" data-name="사각형 13300" width="192" height="20" transform="translate(321.53 856.268)" fill="none" stroke="#707070" stroke-width="1"/>
    </clipPath>
    <clipPath id="clip-path-2">
      <path id="패스_54966" data-name="패스 54966" d="M0-3.693H184.433V-15.547H0Z" transform="translate(0 15.547)"/>
    </clipPath>
  </defs>
  <g id="navigation_logo_H452" data-name="navigation logo_H452" transform="translate(-321.53 -856.268)" clip-path="url(#clip-path)">
    <g id="그룹_11148" data-name="그룹 11148" transform="translate(322.784 875.889)">
      <g id="그룹_10927" data-name="그룹 10927" transform="translate(0 -15.547)" clip-path="url(#clip-path-2)">
        <g id="그룹_10917" data-name="그룹 10917" transform="translate(0 3.043)">
          <path id="패스_54956" data-name="패스 54956" d="M-3.535,0-8.123,6.085-10.44,0h-4.444l2.417,6.349a3.613,3.613,0,0,0,3.62,2.4h3.161L.909,0Z" transform="translate(14.884)" fill-rule="evenodd"/>
        </g>
        <g id="그룹_10918" data-name="그룹 10918" transform="translate(14.513 1.057)">
          <path id="패스_54957" data-name="패스 54957" d="M-7.789-2.338l-3.474-5.519h-4.444L-17.918.892h4.446l1.392-5.518L-8.606.892H-4.16l2.207-8.749H-6.4Zm26.2-5.519-1.4,5.592s0,0,0,0L16.7-1.03H14.07c-1.138,0-1.888-.612-1.671-1.356l1.385-5.47H4.4l.508-1.985H.194L-1.8-1.949C-2.246-.415-.616.845,1.823.845H4.705L5.178-1.03H4.656c-1.137,0-1.889-.611-1.671-1.355l.957-3.69H8.657L7.613-1.949C7.167-.415,8.8.845,11.237.845h9.43l2.2-8.7ZM29.244-6.109h6.55l.441-1.748H28.365c-4.157,0-4.712,2.533-4.712,2.533l-.121.486h0c-.117,1.241.815,1.913,2.173,1.913h5.163c.552,0,.816.331.6.747-.291.561-1.212.75-1.871.75H22.9L22.324.845h8.53c4.155,0,4.711-2.533,4.711-2.533l.12-.481a2.074,2.074,0,0,0-2.067-2.518H28.348c-.425,0-.857-.226-.539-.743a2,2,0,0,1,1.435-.678M-22.782-4.621h-5.176a2.083,2.083,0,0,1,1.976-1.462h1.865c1.982,0,1.336,1.462,1.336,1.462m.5-3.236h-4.437c-4.774,0-5.413,2.909-5.413,2.909l-.562,2.259c-.82,3.3,3.706,3.539,3.706,3.539l1.074-.006H-19.5l.474-1.875H-26.9c-1.876,0-1.621-1.375-1.621-1.375l.1-.4h9.847l.368-1.475c.923-3.716-4.075-3.578-4.075-3.578" transform="translate(32.793 9.842)" fill-rule="evenodd"/>
        </g>
        <g id="그룹_10919" data-name="그룹 10919" transform="translate(106.568 0.098)">
          <path id="패스_54958" data-name="패스 54958" d="M-1.485,0c-.821,1.081-1.8,1.11-4.322,1.193l-.445,1.9h3.262l-2.132,8.555H.153L3.005,0Z" transform="translate(6.251)"/>
        </g>
        <g id="그룹_10920" data-name="그룹 10920" transform="translate(88.68 0)">
          <path id="패스_54959" data-name="패스 54959" d="M-4.91-.994l.49-2.106c-.962-.721-2.9-1.083-5.828-1.083-5.019,0-7.887.937-8.62,2.841a1.31,1.31,0,0,0-.074.617A1.489,1.489,0,0,0-18.269.338a10.938,10.938,0,0,0,3.085,1.415q1.883.6,3.75,1.21c.952.33,1.027.714,1.089,1.151a.919.919,0,0,1-.047.387c-.284.91-1.058,1.37-3.183,1.37q-2.461,0-2.592-1.1a1.831,1.831,0,0,1,.105-.778h-3.712l-.9,2.334c.975.884,3.123,1.334,6.455,1.334a21.545,21.545,0,0,0,6.634-.723,4.144,4.144,0,0,0,2.861-2.7,1.823,1.823,0,0,0,.085-.882c-.106-.558-.64-1.072-1.6-1.549A42.581,42.581,0,0,0-11.562-.008a13.321,13.321,0,0,1-1.546-.547c-.47-.194-.72-.422-.758-.688a.489.489,0,0,1,.062-.325Q-13.431-2.6-10.782-2.6q2.2,0,2.361.937a3.014,3.014,0,0,1,.047.672Z" transform="translate(20.67 4.183)"/>
        </g>
        <g id="그룹_10921" data-name="그룹 10921" transform="translate(157.726 4.745)">
          <path id="패스_54960" data-name="패스 54960" d="M-2.495-.806h-4.14a1.666,1.666,0,0,1,1.58-1.169h1.493c1.585,0,1.067,1.169,1.067,1.169m.4-2.588H-5.645c-3.818,0-4.329,2.326-4.329,2.326L-10.424.74c-.656,2.641,2.965,2.831,2.965,2.831l.859,0H.133l.38-1.5h-6.3c-1.5,0-1.3-1.1-1.3-1.1l.081-.318H.874l.293-1.18C1.905-3.5-2.095-3.394-2.095-3.394" transform="translate(10.503 3.395)" fill-rule="evenodd"/>
        </g>
        <g id="그룹_10922" data-name="그룹 10922" transform="translate(129.743 4.745)">
          <path id="패스_54961" data-name="패스 54961" d="M-2.63-.806-3.09.983a1.683,1.683,0,0,1-1.589,1.17H-6.566S-7.85,2.141-7.554.983l.461-1.789A1.683,1.683,0,0,1-5.5-1.975h1.887s1.282.011.987,1.169m.323-2.588H-6.081c-3.82,0-4.349,2.326-4.349,2.326l-.595,2.312s-.67,2.327,3.148,2.327H-4.1c3.82,0,4.348-2.327,4.348-2.327l.6-2.312s.669-2.326-3.149-2.326" transform="translate(11.07 3.394)" fill-rule="evenodd"/>
        </g>
        <g id="그룹_10923" data-name="그룹 10923" transform="translate(117.839 4.561)">
          <path id="패스_54962" data-name="패스 54962" d="M-2.24-2.226-1.3-6.01c.3-1.255-.332-1.628-1.62-1.628s-2.144.373-2.437,1.587L-6.3-2.226H-9.431l1.713-7h3.14l-.125.466A6.66,6.66,0,0,1-1.759-9.37c3.05,0,4.113,1.227,3.628,3.2L.9-2.226Z" transform="translate(9.431 9.37)"/>
        </g>
        <g id="그룹_10924" data-name="그룹 10924" transform="translate(141.651 1.988)">
          <path id="패스_54963" data-name="패스 54963" d="M-1.991-1.341a3.474,3.474,0,0,0-2.076.587l-.65,2.64a2.756,2.756,0,0,0,1.964.6A2.176,2.176,0,0,0-.448.7C-.092-.74-.766-1.341-1.991-1.341m-.769,5.56a4.7,4.7,0,0,1-2.387-.547l-.108.4H-8.38l2.155-8.8,3.362-.92-.78,3.16A6.2,6.2,0,0,1-.979-3.074c2.554,0,4.358,1.119,3.718,3.732C2.23,2.752.184,4.219-2.76,4.219" transform="translate(8.38 5.647)"/>
        </g>
        <g id="그룹_10925" data-name="그룹 10925" transform="translate(152.918 1.988)">
          <path id="패스_54964" data-name="패스 54964" d="M0-3.027l2.167-8.8,3.352-.92L3.14-3.027Z" transform="translate(0 12.745)"/>
        </g>
        <g id="그룹_10926" data-name="그룹 10926" transform="translate(172.554 0.544)">
          <path id="패스_54965" data-name="패스 54965" d="M0-2.352C.728-4.859,3.083-6.071,6.519-6.9c1.463-.351,1.69-.469,1.757-.766.084-.33-.279-.51-1.31-.51a12.093,12.093,0,0,0-4.042.755L1.649-8.938A17.311,17.311,0,0,1,7.436-9.9c3.228,0,4.73.742,4.4,2.091-.24.976-.979,1.571-3.62,2.231-2.755.689-3.581,1.1-3.967,1.551H11l-.413,1.678Z" transform="translate(0 9.904)"/>
        </g>
      </g>
    </g>
  </g>
</svg>
