<svg xmlns="http://www.w3.org/2000/svg" xmlns:xlink="http://www.w3.org/1999/xlink" width="192" height="20" viewBox="0 0 192 20">
  <defs>
    <clipPath id="clip-path">
      <rect id="사각형_13293" data-name="사각형 13293" width="192" height="20" transform="translate(321.53 856.268)" fill="none" stroke="#707070" stroke-width="1"/>
    </clipPath>
    <clipPath id="clip-path-2">
      <rect id="사각형_13284" data-name="사각형 13284" width="184.257" height="11.204"/>
    </clipPath>
  </defs>
  <g id="navigation_logo_K120" data-name="navigation logo_K120" transform="translate(-321.53 -856.268)" clip-path="url(#clip-path)">
    <g id="그룹_10859" data-name="그룹 10859" transform="translate(322.783 860.667)" clip-path="url(#clip-path-2)">
      <path id="패스_54886" data-name="패스 54886" d="M435.665,6.791c.656-2.255,2.773-3.344,5.863-4.088,1.314-.318,1.52-.422,1.579-.688.076-.3-.251-.46-1.179-.46a10.883,10.883,0,0,0-3.633.68L437.149.869a15.578,15.578,0,0,1,5.2-.869c2.9,0,4.255.668,3.957,1.88-.217.879-.881,1.415-3.255,2.006-2.477.62-3.221.994-3.567,1.394h6.073l-.372,1.51Z" transform="translate(-262.091 0)"/>
      <path id="패스_54887" data-name="패스 54887" d="M241.006.513l-5.7,7.561L232.427.513H227.69l3,7.888h0a4.489,4.489,0,0,0,4.5,2.981h2.362L245.744.513Z" transform="translate(-136.976 -0.309)" fill-rule="evenodd"/>
      <path id="패스_54888" data-name="패스 54888" d="M271.938,11.687l1.869-7.495h-3.025l.476-1.913c2.328-.078,3.347-.467,4.112-1.477h4.154L276.81,11.687Z" transform="translate(-162.9 -0.483)"/>
      <path id="패스_54889" data-name="패스 54889" d="M290.8,11.428c1.069-3.671,4.358-5.443,9.148-6.655,2.027-.512,2.35-.684,2.459-1.12.121-.482-.378-.748-1.814-.748a16.035,16.035,0,0,0-5.61,1.107l-1.728-2.225A23,23,0,0,1,301.3.372c4.463,0,6.526,1.089,6.033,3.063-.357,1.431-1.4,2.3-5.072,3.266-3.842,1.011-4.994,1.616-5.54,2.27h9.36l-.613,2.457Z" transform="translate(-174.943 -0.224)"/>
      <path id="패스_54890" data-name="패스 54890" d="M11.54,5.59,6.877,11.776,4.521,5.59H0l2.458,6.455h0A3.674,3.674,0,0,0,6.14,14.485H9.355l6.707-8.9Z" transform="translate(0 -3.363)" fill-rule="evenodd"/>
      <path id="패스_54891" data-name="패스 54891" d="M47.734,2.538H43.221c-4.854,0-5.5,2.955-5.5,2.955l-.573,2.3c-.833,3.358,3.77,3.6,3.77,3.6l1.092-.006h8.557l.481-1.906H43.038c-1.907,0-1.65-1.4-1.65-1.4l.1-.4H51.506l.373-1.5c.938-3.779-4.145-3.637-4.145-3.637m-.508,3.288H41.963A2.119,2.119,0,0,1,43.972,4.34h1.9c2.014,0,1.357,1.486,1.357,1.486m52.907-1.513h6.66l.449-1.778H101.6v0H99.239c-4.228,0-4.792,2.574-4.792,2.574l-.123.495h0c-.12,1.262.829,1.945,2.209,1.945h5.251c.561,0,.829.337.609.761-.3.57-1.232.761-1.9.761H93.68L93.1,11.384h8.675c4.225,0,4.79-2.575,4.79-2.575l.122-.49a2.108,2.108,0,0,0-2.1-2.56H99.221c-.431,0-.871-.232-.547-.757a2.032,2.032,0,0,1,1.459-.69M89.113,2.538,87.689,8.222v0l-.313,1.254H84.7c-1.157,0-1.92-.622-1.7-1.38l1.409-5.561H74.867L75.383.516H70.59L68.564,8.543c-.455,1.561,1.2,2.841,3.684,2.841h2.931l.481-1.906h-.53c-1.156,0-1.921-.621-1.7-1.379L74.4,4.347H79.2l-1.061,4.2c-.454,1.561,1.2,2.841,3.684,2.841h9.591l2.232-8.846ZM62.473,8.148,58.94,2.538H54.42l-2.246,8.9h4.52L58.11,5.82l3.533,5.613h4.52l2.245-8.9H63.889Z" transform="translate(-22.286 -0.31)" fill-rule="evenodd"/>
      <path id="패스_54892" data-name="패스 54892" d="M380.209,9.932l-3.73,4.95-1.884-4.95h-3.618l1.967,5.164h0a2.937,2.937,0,0,0,2.945,1.953h2.571l5.366-7.116Z" transform="translate(-223.176 -5.975)" fill-rule="evenodd"/>
      <path id="패스_54893" data-name="패스 54893" d="M348.817,9.93h-3.611c-3.883,0-4.4,2.366-4.4,2.366l-.457,1.838c-.667,2.686,3.015,2.879,3.015,2.879l.875,0h6.845l.387-1.523h-6.41c-1.525,0-1.319-1.12-1.319-1.12l.083-.326h8.013l.3-1.2c.751-3.021-3.317-2.91-3.317-2.91m-.406,2.631H344.2a1.7,1.7,0,0,1,1.606-1.189h1.519c1.612,0,1.086,1.189,1.086,1.189" transform="translate(-204.701 -5.974)" fill-rule="evenodd"/>
      <path id="패스_54894" data-name="패스 54894" d="M409.069,9.931h-3.838c-3.885,0-4.423,2.366-4.423,2.366l-.606,2.351s-.681,2.366,3.2,2.366h3.839c3.884,0,4.422-2.366,4.422-2.366l.606-2.351s.681-2.366-3.2-2.366m-.329,2.631-.467,1.82a1.711,1.711,0,0,1-1.616,1.188h-1.92s-1.306-.011-1-1.188l.469-1.82a1.713,1.713,0,0,1,1.616-1.189h1.92s1.3.013,1,1.189" transform="translate(-240.73 -5.974)" fill-rule="evenodd"/>
    </g>
  </g>
</svg>
