<svg xmlns="http://www.w3.org/2000/svg" width="72" height="72" viewBox="0 0 72 72">
  <g id="icon1" transform="translate(-557 -1363)">
    <rect id="사각형_12759" data-name="사각형 12759" width="72" height="72" transform="translate(557 1363)" fill="none" opacity="0.094"/>
    <g id="그룹_8909" data-name="그룹 8909" transform="translate(0.607 1.105)">
      <line id="선_183" data-name="선 183" x2="12.637" transform="translate(586.436 1424.356)" fill="none" stroke="#000" stroke-linecap="round" stroke-linejoin="round" stroke-width="2"/>
      <line id="선_184" data-name="선 184" x2="12.637" transform="translate(586.436 1430.259)" fill="none" stroke="#000" stroke-linecap="round" stroke-linejoin="round" stroke-width="2"/>
      <path id="패스_46187" data-name="패스 46187" d="M605.244,1406.107a16.795,16.795,0,1,0-24.927.056,25.944,25.944,0,0,1,3.927,5.467,32.135,32.135,0,0,1,2.815,7.675h.334" fill="none" stroke="#000" stroke-linecap="round" stroke-linejoin="round" stroke-width="2"/>
      <path id="패스_46188" data-name="패스 46188" d="M592.755,1396.617v22.688h5.7a32.106,32.106,0,0,1,2.811-7.669c.253-.491.528-.969.821-1.436" fill="none" stroke="#000" stroke-linecap="round" stroke-linejoin="round" stroke-width="2"/>
      <line id="선_185" data-name="선 185" y2="7.981" transform="translate(592.755 1363.529)" fill="none" stroke="#000" stroke-linecap="round" stroke-linejoin="round" stroke-width="2"/>
      <line id="선_186" data-name="선 186" x2="5.643" y2="5.643" transform="translate(568.457 1373.594)" fill="none" stroke="#000" stroke-linecap="round" stroke-linejoin="round" stroke-width="2"/>
      <line id="선_187" data-name="선 187" x2="7.981" transform="translate(561.392 1397.337)" fill="none" stroke="#000" stroke-linecap="round" stroke-linejoin="round" stroke-width="2"/>
      <line id="선_188" data-name="선 188" x1="7.981" transform="translate(616.136 1397.337)" fill="none" stroke="#000" stroke-linecap="round" stroke-linejoin="round" stroke-width="2"/>
      <line id="선_189" data-name="선 189" x1="5.643" y2="5.643" transform="translate(611.409 1373.594)" fill="none" stroke="#000" stroke-linecap="round" stroke-linejoin="round" stroke-width="2"/>
    </g>
  </g>
</svg>
