<svg xmlns="http://www.w3.org/2000/svg" width="72" height="72" viewBox="0 0 72 72">
  <g id="icon3" transform="translate(-1045 -1363)">
    <rect id="사각형_12757" data-name="사각형 12757" width="72" height="72" transform="translate(1045 1363)" fill="none" opacity="0.094"/>
    <g id="그룹_8914" data-name="그룹 8914" transform="translate(-0.082 -0.352)">
      <path id="패스_46189" data-name="패스 46189" d="M1090.074,1413.161a15.921,15.921,0,1,1,5.472-5.934" fill="none" stroke="#000" stroke-linecap="round" stroke-linejoin="round" stroke-width="2"/>
      <path id="패스_46190" data-name="패스 46190" d="M1111.87,1395.339h-1.132a7.714,7.714,0,0,1-5.455-13.169l.8-.8-6.231-6.231-.8.8a7.715,7.715,0,0,1-13.17-5.455v-1.133h-8.812v1.133a7.715,7.715,0,0,1-13.169,5.455l-.8-.8-6.231,6.231.8.8a7.714,7.714,0,0,1-5.455,13.169h-1.133v8.812h1.133a7.715,7.715,0,0,1,5.455,13.17l-.8.8,6.231,6.232.8-.8a7.714,7.714,0,0,1,13.169,5.455v1.132h8.812v-1.132a7.715,7.715,0,0,1,13.17-5.455l.8.8,6.231-6.232-.8-.8a7.715,7.715,0,0,1,5.455-13.17h1.132Z" fill="none" stroke="#000" stroke-linecap="round" stroke-linejoin="round" stroke-width="2"/>
      <path id="패스_46191" data-name="패스 46191" d="M1072.777,1398.834l5.653,6.651,11.639-11.306" fill="none" stroke="#000" stroke-linecap="round" stroke-linejoin="round" stroke-width="2"/>
    </g>
  </g>
</svg>
