<svg xmlns="http://www.w3.org/2000/svg" width="72" height="72" viewBox="0 0 72 72">
  <g id="icon4" transform="translate(-1288 -1363)">
    <rect id="사각형_12760" data-name="사각형 12760" width="72" height="72" transform="translate(1288 1363)" fill="none" opacity="0.094"/>
    <g id="그룹_8916" data-name="그룹 8916" transform="translate(0.364 -0.27)">
      <path id="패스_46192" data-name="패스 46192" d="M1323.042,1413.869v12.921l12.525-12.748.639-8.758c12.655-13.132,19.282-28.329,15.95-31.661-3.386-3.385-18.532,3.292-31.661,15.95l-8.758.639-12.747,12.525h12.92" fill="none" stroke="#000" stroke-linecap="round" stroke-linejoin="round" stroke-width="2"/>
      <line id="선_191" data-name="선 191" x1="19.556" y2="19.556" transform="translate(1318.931 1387.292)" fill="none" stroke="#000" stroke-linecap="round" stroke-linejoin="round" stroke-width="2"/>
      <path id="패스_46193" data-name="패스 46193" d="M1339.192,1376.235a11.383,11.383,0,0,0,10.337,10.367" fill="none" stroke="#000" stroke-linecap="round" stroke-linejoin="round" stroke-width="2"/>
      <path id="패스_46194" data-name="패스 46194" d="M1316.2,1418.7c.029-.073.054-.147.08-.22.034-.1.072-.2.1-.3a7.1,7.1,0,0,0-8.783-8.784c-.1.029-.2.067-.3.1-.073.026-.146.05-.219.079-3.479,1.333-5.479,5.648-5.479,5.648s-2.008,3.464-2.4,11.281l.072.072c7.817-.388,11.281-2.4,11.281-2.4S1314.87,1422.181,1316.2,1418.7Z" fill="none" stroke="#000" stroke-linecap="round" stroke-linejoin="round" stroke-width="2"/>
    </g>
  </g>
</svg>
