<svg xmlns="http://www.w3.org/2000/svg" xmlns:xlink="http://www.w3.org/1999/xlink" width="496" height="52" viewBox="0 0 496 52">
  <defs>
    <clipPath id="clip-path">
      <rect id="사각형_12017" data-name="사각형 12017" width="496" height="52" transform="translate(320.442 855.18)" fill="none" stroke="#707070" stroke-width="1"/>
    </clipPath>
  </defs>
  <g id="bi_Dynapro_HP2" data-name="bi_Dynapro HP2" transform="translate(-320.442 -855.18)" clip-path="url(#clip-path)">
    <g id="그룹_10853" data-name="그룹 10853" transform="translate(108.934 768.091)">
      <path id="패스_54869" data-name="패스 54869" d="M427.117,130.615c2.917-8.544,9.44-12.668,18.593-15.489,3.869-1.2,4.513-1.592,4.825-2.606.346-1.123-.508-1.736-3.157-1.736a26.232,26.232,0,0,0-10.638,2.57l-2.619-5.177a37.267,37.267,0,0,1,15.215-3.292c10.049,0,16.356,2.535,14.939,7.13-1.024,3.329-3.163,5.356-10.2,7.6-7.352,2.351-9.632,3.764-10.81,5.283h17.277l-1.761,5.718Z" transform="translate(140.214 0)" fill="#767676"/>
      <path id="패스_54870" data-name="패스 54870" d="M389.9,130.424l3.3-10.79h8.589l-3.337,10.79h14.142l7.722-25.249H406.171l-3.1,10.262h-8.591l3.137-10.262H383.5l-7.719,25.249Z" transform="translate(106.662 0.191)" fill="#767676"/>
      <path id="패스_54871" data-name="패스 54871" d="M420.672,117.214l2.4-7.875h5.9c2.287,0,2.426.719,1.951,2.272l-.812,2.651c-.647,2.117-.949,2.952-4.205,2.952Zm17.34-12.037H410.13l-7.722,25.246h14.2l2.793-9.044h13.661c5.075,0,9.254-.873,10.585-5.225l1.746-5.717c1.369-4.466-2.452-5.26-7.377-5.26" transform="translate(124.064 0.192)" fill="#767676"/>
      <path id="패스_54872" data-name="패스 54872" d="M368.95,115.116l-2.094,6.854c-.468,1.525-1.278,2.272-3.258,2.272h-1.836c-1.935,0-2.442-.564-1.948-2.161l2.208-7.228c.433-1.414,1.573-2.049,3.236-2.049h1.386c2.16,0,2.843.559,2.305,2.312m7.383-5.773-20.151-.007c-3.559,0-7,2.089-7.924,5.11l-2.381,7.784c-1.437,4.688,2.017,5.472,6.829,5.472h19.885c4.185,0,6.94-1.9,7.965-5.254l2.232-7.3c1.42-4.657-1.376-5.808-6.456-5.808" transform="translate(86.899 2.911)" fill="#9b7500"/>
      <path id="패스_54873" data-name="패스 54873" d="M292.062,109.364H281.709a7.69,7.69,0,0,0-3.669.807l.3-.807H265.1l-5.612,18.362h13.839l4.012-13.115a2.195,2.195,0,0,1,2.482-1.783h2.062c2.022,0,2.054.777,1.6,2.274l-3.9,12.624H293.5l3.727-12.291c1.151-3.762-.484-6.07-5.163-6.07" transform="translate(30.646 2.929)" fill="#9b7500"/>
      <path id="패스_54874" data-name="패스 54874" d="M303.628,121.925c-.491,1.6-1.209,2.35-3.277,2.35h-1.435c-2.022,0-2.322-.782-1.849-2.35l.255-.817c.486-1.6,1.207-2.343,3.276-2.343h4Zm11.178-12.584-24.578.038-1.063,3.464h14.813c1.171,0,2.363.073,2,1.265-.354,1.009-1.182,1.227-2.267,1.227H290.9c-3.195,0-6.034,1.338-6.914,4.21l-.953,3.129c-1.2,3.909.928,5.067,5.292,5.067h11.056a5.255,5.255,0,0,0,3.1-.857l-.309.857h13.368l4.036-13.15c.957-3.127-1.01-5.212-4.777-5.25" transform="translate(45.826 2.914)" fill="#9b7500"/>
      <path id="패스_54875" data-name="패스 54875" d="M331.3,115.741l-1.411,4.617c-.64,2.085-.934,2.9-3.815,2.9h-4.533l2.983-9.758h5.121c2.024,0,2.125.709,1.654,2.237m8.316-6.333h-28.2L303.634,134.6h14.39l2.26-7.243h13.842c4.5,0,8.225-.858,9.535-5.138l2.333-7.64c1.344-4.392-2.011-5.174-6.38-5.174" transform="translate(59.503 2.958)" fill="#9b7500"/>
      <path id="패스_54876" data-name="패스 54876" d="M358.635,109.364h-5.807c-3.107,0-4.928.7-5.832,1.581l.594-1.581H334.363l-5.619,18.362h13.838l3.246-10.615c.556-1.829,1.989-2.6,4.536-2.758l1.951,0a33.661,33.661,0,0,1,4.442.364Z" transform="translate(75.915 2.929)" fill="#9b7500"/>
      <path id="패스_54877" data-name="패스 54877" d="M261.887,109.364l-3.721,12.179c-.433,1.272-.79,2.72-2.811,2.72h-1.569c-2.606,0-2.651-.886-2.051-2.866l3.683-12.033H241.569l-3.355,10.992c-1.515,4.954-.415,7.374,5.89,7.374h9.252a9.647,9.647,0,0,0,3.024-.341l-.39,1.275c-.5,1.635-.946,2.492-3.191,2.492H239.153l-1.108,3.61h19.976c5.844-.114,10-.144,11.762-5.922l.3-1.115,5.616-18.365Z" transform="translate(16.347 2.929)" fill="#9b7500"/>
      <path id="패스_54878" data-name="패스 54878" d="M239.98,112.32l-3.37,11.008c-.612,2.007-1.085,2.952-3.874,2.952h-4.291l5.171-16.918h4.294c2.786,0,2.684.949,2.07,2.958m8.974-7.12H220.319L212.6,130.449h28.639c5.715,0,8.743-3.034,10.029-7.231l3.3-10.79c1.3-4.238-.033-7.228-5.609-7.228" transform="translate(0 0.207)" fill="#9b7500"/>
    </g>
  </g>
</svg>
