<svg xmlns="http://www.w3.org/2000/svg" xmlns:xlink="http://www.w3.org/1999/xlink" width="496" height="52" viewBox="0 0 496 52">
  <defs>
    <clipPath id="clip-path">
      <rect id="사각형_12017" data-name="사각형 12017" width="496" height="52" transform="translate(320.442 855.18)" fill="none" stroke="#707070" stroke-width="1"/>
    </clipPath>
    <clipPath id="clip-path-2">
      <rect id="사각형_13282" data-name="사각형 13282" width="378.248" height="32.256" fill="none"/>
    </clipPath>
  </defs>
  <g id="bi_Dynapro_AT2" data-name="bi_Dynapro AT2" transform="translate(-320.442 -855.18)" clip-path="url(#clip-path)">
    <g id="그룹_10863" data-name="그룹 10863" transform="translate(321.658 873.972)">
      <path id="패스_54908" data-name="패스 54908" d="M356.118,7.6l1.651,6.72h-7.758ZM355.9.01,332.43,25.2h7.56l6.24-6.8H358.8l1.374,6.8h15.854L369.787.01Z" transform="translate(-67.859 -0.002)" fill="#767676"/>
      <path id="패스_54909" data-name="패스 54909" d="M391.025.01,389.62,4.188l9.553-.019L392.739,25.2h14.041L413.2,4.166h9.066L423.542.01Z" transform="translate(-79.533 -0.002)" fill="#767676"/>
      <g id="그룹_10862" data-name="그룹 10862" transform="translate(0 0)">
        <g id="그룹_10861" data-name="그룹 10861" clip-path="url(#clip-path-2)">
          <path id="패스_54910" data-name="패스 54910" d="M306.23,8.647l-20.1-.006c-3.549,0-6.982,2.083-7.9,5.1L275.848,21.5c-1.43,4.676,2.013,5.457,6.813,5.457H302.5c4.174,0,6.923-1.9,7.946-5.24l2.228-7.278c1.416-4.645-1.373-5.793-6.44-5.793m-7.363,5.758-2.089,6.837c-.466,1.521-1.275,2.266-3.252,2.266H291.7c-1.93,0-2.434-.562-1.943-2.155l2.2-7.209c.431-1.41,1.565-2.045,3.227-2.045h1.38c2.155,0,2.839.559,2.3,2.306" transform="translate(-56.242 -1.764)" fill="#9b7500"/>
          <path id="패스_54911" data-name="패스 54911" d="M129.659,8.7H119.332a7.663,7.663,0,0,0-3.659.8l.3-.8H102.763l-5.6,18.315h13.8l4-13.081a2.193,2.193,0,0,1,2.477-1.78H119.5c2.017,0,2.048.776,1.593,2.268l-3.888,12.592h13.883L134.81,14.75C135.956,11,134.326,8.7,129.659,8.7" transform="translate(-19.834 -1.775)" fill="#9b7500"/>
          <path id="패스_54912" data-name="패스 54912" d="M177.309,8.648l-24.514.038-1.059,3.455h14.773c1.168,0,2.357.072,1.991,1.262-.353,1.006-1.18,1.224-2.262,1.224H153.47c-3.187,0-6.02,1.334-6.9,4.2l-.952,3.12c-1.192,3.9.925,5.055,5.279,5.055h11.027a5.247,5.247,0,0,0,3.1-.855l-.31.855h13.332l4.026-13.115c.957-3.12-1.007-5.2-4.764-5.238M166.159,21.2c-.489,1.6-1.206,2.345-3.269,2.345H161.46c-2.018,0-2.317-.78-1.844-2.345l.252-.813c.488-1.6,1.2-2.338,3.27-2.338h3.987Z" transform="translate(-29.659 -1.766)" fill="#9b7500"/>
          <path id="패스_54913" data-name="패스 54913" d="M224.548,8.788H196.419l-7.758,25.13h14.352l2.257-7.225h13.805c4.486,0,8.2-.856,9.51-5.124l2.327-7.62c1.342-4.382-2.006-5.161-6.364-5.161M216.255,15.1l-1.409,4.607c-.635,2.079-.93,2.9-3.8,2.9h-4.521l2.977-9.734H214.6c2.019,0,2.12.707,1.651,2.231" transform="translate(-38.511 -1.794)" fill="#9b7500"/>
          <path id="패스_54914" data-name="패스 54914" d="M270.512,8.7h-5.793c-3.1,0-4.915.7-5.819,1.577l.592-1.577H246.3l-5.6,18.315h13.8l3.238-10.589c.556-1.823,1.984-2.593,4.524-2.751l1.949,0a33.6,33.6,0,0,1,4.429.363Z" transform="translate(-49.133 -1.775)" fill="#9b7500"/>
          <path id="패스_54915" data-name="패스 54915" d="M76.045,8.7l-3.71,12.147c-.431,1.268-.789,2.713-2.805,2.713H67.965c-2.6,0-2.645-.883-2.044-2.859l3.672-12H55.78L52.433,19.66c-1.511,4.941-.414,7.355,5.874,7.355h9.23a9.587,9.587,0,0,0,3.015-.341l-.388,1.272c-.5,1.631-.942,2.486-3.182,2.486H53.37l-1.1,3.6H72.19c5.827-.113,9.971-.142,11.729-5.906l.3-1.11L89.817,8.7Z" transform="translate(-10.58 -1.775)" fill="#9b7500"/>
          <path id="패스_54916" data-name="패스 54916" d="M36.263.067H7.7L0,25.25H28.565c5.7,0,8.72-3.026,10-7.212L41.857,7.276C43.149,3.048,41.825.067,36.263.067m-8.952,7.1L23.949,18.148c-.61,2-1.082,2.944-3.865,2.944H15.8L20.962,4.219h4.283c2.78,0,2.677.946,2.065,2.949" transform="translate(0 -0.014)" fill="#9b7500"/>
          <path id="패스_54917" data-name="패스 54917" d="M427.382,25.289c2.908-8.394,10.465-12.449,21.274-15.223,4.571-1.174,5.316-1.565,5.62-2.561.337-1.1-.731-1.706-3.917-1.706a36.025,36.025,0,0,0-12.611,2.525l-3.51-5.087A51.451,51.451,0,0,1,452.3,0c9.9,0,14.323,2.489,12.94,7.007-1,3.272-3.43,5.265-11.731,7.469-8.674,2.311-11.319,3.7-12.628,5.193h20.773l-1.718,5.62Z" transform="translate(-87.241 0)" fill="#767676"/>
        </g>
      </g>
    </g>
  </g>
</svg>
