<svg xmlns="http://www.w3.org/2000/svg" xmlns:xlink="http://www.w3.org/1999/xlink" width="508" height="52" viewBox="0 0 508 52">
  <defs>
    <clipPath id="clip-path">
      <rect id="사각형_13293" data-name="사각형 13293" width="508" height="52" transform="translate(320.442 855.18)" fill="none" stroke="#707070" stroke-width="1"/>
    </clipPath>
  </defs>
  <g id="BI_title_RT05" data-name="BI title_RT05" transform="translate(-320.442 -855.18)" clip-path="url(#clip-path)">
    <g id="Layer_1" data-name="Layer 1" transform="translate(-98.129 878.093)">
      <g id="그룹_7951" data-name="그룹 7951" transform="translate(418.571 0.624)">
        <g id="그룹_7948" data-name="그룹 7948" transform="translate(0 0.334)">
          <g id="그룹_7947" data-name="그룹 7947">
            <path id="패스_45756" data-name="패스 45756" d="M1042.671,20.253l-17.557-.005c-3.1,0-6.1,1.819-6.9,4.451l-2.075,6.782c-1.251,4.084,1.758,4.768,5.95,4.768h17.325c3.646,0,6.047-1.656,6.94-4.578l1.946-6.358c1.238-4.057-1.2-5.06-5.625-5.06m-6.433,5.03-1.824,5.972a2.5,2.5,0,0,1-2.839,1.979h-1.6c-1.687,0-2.128-.491-1.7-1.883l1.924-6.3a2.6,2.6,0,0,1,2.82-1.786h1.207C1036.111,23.269,1036.707,23.756,1036.238,25.283Z" transform="translate(-824.302 -14.288)" fill="#8d7632"/>
            <path id="패스_45757" data-name="패스 45757" d="M657.593,20.368h-9.021a6.7,6.7,0,0,0-3.2.7l.259-.7H634.1l-4.889,16h12.057l3.495-11.427a1.915,1.915,0,0,1,2.163-1.554h1.8c1.761,0,1.789.678,1.392,1.982l-3.4,11h12.126l3.247-10.71C663.094,22.38,661.669,20.368,657.593,20.368Z" transform="translate(-561.658 -14.37)" fill="#8d7632"/>
            <path id="패스_45758" data-name="패스 45758" d="M761.509,20.265,740.1,20.3l-.926,3.018h12.906c1.02,0,2.059.063,1.739,1.1-.309.879-1.031,1.069-1.976,1.069H740.685c-2.784,0-5.258,1.166-6.025,3.668l-.83,2.726c-1.042,3.406.807,4.415,4.611,4.415h9.632a4.58,4.58,0,0,0,2.7-.747l-.27.747h11.647l3.517-11.457c.835-2.726-.879-4.542-4.162-4.575m-9.74,10.963c-.427,1.4-1.053,2.048-2.855,2.048h-1.251c-1.761,0-2.023-.681-1.61-2.048l.221-.711c.424-1.395,1.053-2.042,2.855-2.042h3.484Z" transform="translate(-632.532 -14.3)" fill="#8d7632"/>
            <path id="패스_45759" data-name="패스 45759" d="M858.9,20.566H834.328l-6.776,21.952h12.536l1.971-6.311h12.06c3.919,0,7.166-.747,8.306-4.476l2.034-6.656c1.171-3.828-1.753-4.509-5.559-4.509m-7.246,5.518-1.229,4.023c-.557,1.816-.813,2.53-3.324,2.53h-3.949l2.6-8.5h4.462C851.977,24.135,852.066,24.752,851.655,26.084Z" transform="translate(-696.392 -14.504)" fill="#8d7632"/>
            <path id="패스_45760" data-name="패스 45760" d="M966.4,20.368h-5.06c-2.706,0-4.294.609-5.082,1.378l.518-1.378H945.253l-4.9,16h12.055l2.828-9.249c.485-1.593,1.733-2.265,3.952-2.4l1.7,0a29.328,29.328,0,0,1,3.87.317Z" transform="translate(-773.021 -14.37)" fill="#8d7632"/>
            <path id="패스_45761" data-name="패스 45761" d="M552.079,20.368l-3.241,10.611c-.377,1.108-.689,2.37-2.45,2.37h-1.367c-2.271,0-2.31-.772-1.786-2.5l3.208-10.484H534.377l-2.924,9.577c-1.32,4.316-.361,6.424,5.132,6.424h8.061a8.392,8.392,0,0,0,2.635-.3l-.339,1.111c-.435,1.425-.824,2.172-2.781,2.172h-11.89l-.965,3.144h17.4c5.09-.1,8.709-.124,10.247-5.159l.259-.97,4.892-16Z" transform="translate(-494.893 -14.37)" fill="#8d7632"/>
            <path id="패스_45762" data-name="패스 45762" d="M450.247,1.664H425.3l-6.727,22h24.953c4.979,0,7.616-2.642,8.738-6.3l2.872-9.4c1.13-3.693-.027-6.3-4.886-6.3m-7.819,6.2-2.936,9.59c-.533,1.75-.945,2.571-3.376,2.571h-3.738l4.506-14.738h3.741C443.053,5.291,442.963,6.116,442.428,7.868Z" transform="translate(-418.571 -1.664)" fill="#8d7632"/>
          </g>
        </g>
        <g id="그룹_7963" data-name="그룹 7963" transform="translate(235.109)">
          <path id="패스_45754" data-name="패스 45754" d="M1328.144,5.177h7.921l1.113-3.63h-28.4L1307.549,5.2l8.345-.017-5.62,18.366h12.264Z" transform="translate(-1257.563 -1.252)" fill="#898989"/>
          <path id="패스_45755" data-name="패스 45755" d="M1173.135,23.552,1184.06,9.246l-4.4,14.306h12.317l6.726-22h-14.986l-8.673,11.355-1.64-11.355h-15l-6.723,22h5.958l4.37-14.273,2.059,14.273Z" transform="translate(-1151.684 -1.257)" fill="#898989"/>
          <g id="그룹_7950" data-name="그룹 7950" transform="translate(79.615)">
            <g id="그룹_7949" data-name="그룹 7949">
              <path id="패스_45763" data-name="패스 45763" d="M1399.94,23.044c2.541-7.444,8.225-11.037,16.2-13.5,3.372-1.041,3.931-1.386,4.2-2.27.3-.978-.442-1.512-2.751-1.512A22.854,22.854,0,0,0,1408.325,8l-2.282-4.511A32.451,32.451,0,0,1,1419.3.624c8.756,0,14.25,2.21,13.015,6.213-.891,2.9-2.756,4.666-8.884,6.622-6.405,2.049-8.392,3.28-9.417,4.6h15.052l-1.534,4.983Z" transform="translate(-1399.94 -0.624)" fill="#898989"/>
            </g>
          </g>
        </g>
      </g>
    </g>
  </g>
</svg>
