<svg xmlns="http://www.w3.org/2000/svg" xmlns:xlink="http://www.w3.org/1999/xlink" width="496" height="52" viewBox="0 0 496 52">
  <defs>
    <clipPath id="clip-path">
      <rect id="사각형_13291" data-name="사각형 13291" width="496" height="52" transform="translate(320.442 855.18)" fill="none" stroke="#707070" stroke-width="1"/>
    </clipPath>
    <clipPath id="clip-path-2">
      <rect id="사각형_14046" data-name="사각형 14046" width="197.866" height="31.797" fill="#6d6f72"/>
    </clipPath>
  </defs>
  <g id="BI_title" data-name="BI title" transform="translate(-320.442 -855.18)" clip-path="url(#clip-path)">
    <g id="그룹_12972" data-name="그룹 12972" transform="translate(321.441 874.188)">
      <g id="그룹_12972-2" data-name="그룹 12972" transform="translate(0 0.001)" clip-path="url(#clip-path-2)">
        <path id="패스_56443" data-name="패스 56443" d="M33.583,16.883a48.044,48.044,0,0,1-.291-7.707,63.965,63.965,0,0,1-6.122,7.707l-1.753,2.026h8.339ZM14.821,31.108H0L29.4.279H43.656l6.155,30.829H34.846l-.5-5.416H19.521Z" transform="translate(0 0.204)" fill="#6d6f72"/>
        <path id="패스_56444" data-name="패스 56444" d="M60.341,31.108l4.535-12.156H49.626L45.091,31.108H30.983L42.571.279h14.11L52.446,11.511H67.7L71.933.279H86.042L74.451,31.108Z" transform="translate(22.751 0.204)" fill="#6d6f72"/>
        <path id="패스_56445" data-name="패스 56445" d="M80.989,31.8c-9.834,0-17.135-2.775-21.408-5.9l8.961-5.241a27.907,27.907,0,0,0,14.518,4.1c3.847,0,7.421-.881,7.657-3.479.149-1.63-1.257-2.6-6.887-2.6H77.7l2.534-6.649h6.838c3.92,0,5.924-.881,6.074-2.51.146-1.585-1.9-2.6-7.529-2.6A34.294,34.294,0,0,0,74.033,8.941l-4.409-5.55A49.44,49.44,0,0,1,88.676,0C101.5,0,107.5,2.994,107.02,8.236c-.335,3.656-4.875,5.77-9.232,6.651,4.452,1.19,6.693,3.17,6.407,6.3C103.577,27.922,94.387,31.8,80.989,31.8" transform="translate(43.751 0)" fill="#6d6f72"/>
        <path id="패스_56446" data-name="패스 56446" d="M101.485,18.762c-.333,3.654,2.045,5.682,6.535,5.682,6.913,0,11.032-6.079,11.521-11.407.335-3.656-2.045-5.682-6.535-5.682-6.911,0-11.032,6.077-11.521,11.407m32.324-5.9C132.89,22.9,121.742,31.8,106.136,31.8c-11.759,0-19.665-4.712-18.92-12.858C88.137,8.9,99.284,0,114.889,0c11.759,0,19.667,4.712,18.92,12.86" transform="translate(64.009 -0.001)" fill="#6d6f72"/>
      </g>
    </g>
  </g>
</svg>
