<svg xmlns="http://www.w3.org/2000/svg" xmlns:xlink="http://www.w3.org/1999/xlink" width="496" height="52" viewBox="0 0 496 52">
  <defs>
    <clipPath id="clip-path">
      <rect id="사각형_13291" data-name="사각형 13291" width="496" height="52" transform="translate(320.442 855.18)" fill="none" stroke="#707070" stroke-width="1"/>
    </clipPath>
    <clipPath id="clip-path-2">
      <rect id="사각형_14049" data-name="사각형 14049" width="366.067" height="31.797" fill="#6d6f72"/>
    </clipPath>
  </defs>
  <g id="BI_title" data-name="BI title" transform="translate(-320.442 -855.18)" clip-path="url(#clip-path)">
    <g id="그룹_12976" data-name="그룹 12976" transform="translate(321.441 874.189)">
      <g id="그룹_12976-2" data-name="그룹 12976" transform="translate(0 0)" clip-path="url(#clip-path-2)">
        <path id="패스_56468" data-name="패스 56468" d="M56.084,30.9c3.553-10.255,12.783-15.209,25.983-18.6,5.581-1.434,6.492-1.911,6.864-3.128.412-1.346-.891-2.087-4.784-2.087a44.009,44.009,0,0,0-15.4,3.087L64.461,3.955A62.813,62.813,0,0,1,86.52,0c12.094,0,17.491,3.042,15.8,8.562-1.222,4-4.19,6.431-14.328,9.124C77.4,20.51,74.172,22.207,72.571,24.031h25.37l-2.1,6.865Z" transform="translate(36.652 0)" fill="#6d6f72"/>
        <path id="패스_56469" data-name="패스 56469" d="M31.815,16.673a55.174,55.174,0,0,1-.8-7.606c-1.25,2.042-2.533,3.739-5.453,7.606l-1.515,2h8.064Zm2.52,14.035-1.009-5.346h-14.6l-4.274,5.346H0L26.954.288H40.578l8.354,30.42Z" transform="translate(0 0.188)" fill="#6d6f72"/>
        <path id="패스_56470" data-name="패스 56470" d="M31.7,30.708,41,.288H54.621L47.567,23.363H69.111l-2.244,7.345Z" transform="translate(20.714 0.188)" fill="#6d6f72"/>
        <path id="패스_56471" data-name="패스 56471" d="M106.794,17.332c-5.948,0-9.217,1.427-9.944,3.8-.661,2.161,1.5,3.674,7.381,3.674,5.048,0,8.833-1.3,9.572-3.717.714-2.333-1.892-3.76-7.009-3.76M101.519,31.42c-12.172,0-19.325-4.192-16.775-12.532C87.188,10.894,98.887.22,126.547.22l-2.1,6.87c-12.654,0-20.008,2.333-24.743,5.835a40.8,40.8,0,0,1,12.99-1.773c10.027,0,16.168,2.981,14.212,9.377-2.087,6.829-11.7,10.89-25.387,10.89" transform="translate(55.047 0.144)" fill="#6d6f72"/>
        <path id="패스_56472" data-name="패스 56472" d="M139.03,16.566l2.284-6.384h12.277L151.3,16.566Z" transform="translate(90.86 6.654)" fill="#6d6f72"/>
        <path id="패스_56473" data-name="패스 56473" d="M196.734,22.32,201.7,9.675H196.1L191.144,22.4c-.554,1.409-.979,2.074-3.494,2.074h-5.787c-2.518,0-2.29-.665-1.735-2.074L186.166,6.58s-9.683,2.348-11.292,2.756a4.565,4.565,0,0,0-2.275,2.616c-.352.9-4.074,10.381-4.074,10.381-1.151,2.943.164,5.061,5.058,5.061h14.151a12.469,12.469,0,0,0,5.921-1.434,6.349,6.349,0,0,0,3.079-3.641" transform="translate(109.881 4.3)" fill="#6d6f72"/>
        <path id="패스_56474" data-name="패스 56474" d="M202.133,28.672c-2.836,0-16.269-.061-16.269-.061L193.791,8.14a2.387,2.387,0,0,1,1.763-1.389c1.389-.3,9.359-2.065,9.359-2.065l-3.066,7.907a18.231,18.231,0,0,1,7.338-1.574c5.394,0,8.531,2.527,6.044,8.926-2.394,6.166-6.827,8.727-13.1,8.727M205.662,15.4a19.289,19.289,0,0,0-5.4,1.3l-3.456,8.845h3.3c2.026,0,5.741-2.664,6.988-5.88,1.313-3.446.622-4.268-1.434-4.268" transform="translate(121.467 3.063)" fill="#6d6f72"/>
        <path id="패스_56475" data-name="패스 56475" d="M143.822,27.524l1.346-3.458H131.722c-2.05,0-2.431-.822-1.986-2.019l.346-.774c.789,0,10.784-.018,10.784-.018,5.123,0,7.421-1.573,8.588-4.747l1.663-4.716c1.468-3.964-1.419-5.255-7.28-5.255H131.871c-6.541,0-8.83,1.2-10.521,5.758l-3.634,9.814c-1.746,4.724,1.9,5.29,7.955,5.415ZM134.1,17.86c-2.489,0-2.51-.6-1.976-2.05l.785-2.252c.534-1.448,1.005-2.049,3.492-2.049h6.378c2.49,0,2.515.6,1.981,2.049l-.782,2.252c-.537,1.448-1.009,2.05-3.5,2.05Z" transform="translate(76.644 4.272)" fill="#6d6f72"/>
        <path id="패스_56476" data-name="패스 56476" d="M226.444,26.4l1.169-2.993H215.979c-1.773,0-2.1-.709-1.715-1.744l.3-.666c.685,0,9.324-.017,9.324-.017,4.433,0,6.417-1.361,7.434-4.109l1.434-4.074c1.272-3.428-1.227-4.541-6.293-4.541H216.108c-5.657,0-7.634,1.032-9.094,4.975l-3.143,8.489c-1.513,4.081,1.64,4.569,6.875,4.679Zm-8.4-8.36c-2.151,0-2.171-.519-1.7-1.769l.676-1.948c.46-1.252.865-1.773,3.021-1.773h5.516c2.153,0,2.173.521,1.708,1.773l-.675,1.948c-.468,1.25-.87,1.769-3.021,1.769Z" transform="translate(132.986 5.396)" fill="#6d6f72"/>
        <path id="패스_56477" data-name="패스 56477" d="M177.476,23.654l-11.619-.01c-2.783,0-3.816-.344-3.047-2.313l2.786-7.087c.774-1.971,1.349-2.492,4.537-2.717l12.415-.835,1.234-3.162v-.01h-20.35c-5.343,0-8.592,2.315-9.852,5.526L150.338,21.3c-1.263,3.213.164,5.531,5.513,5.531h20.383Z" transform="translate(97.969 4.915)" fill="#6d6f72"/>
      </g>
    </g>
  </g>
</svg>
