<svg xmlns="http://www.w3.org/2000/svg" xmlns:xlink="http://www.w3.org/1999/xlink" width="372" height="28" viewBox="0 0 372 28">
  <defs>
    <clipPath id="clip-path">
      <rect id="사각형_13626" data-name="사각형 13626" width="372" height="28" fill="#fff" opacity="0"/>
    </clipPath>
    <clipPath id="clip-path-2">
      <rect id="사각형_13627" data-name="사각형 13627" width="297.382" height="24.887" fill="none"/>
    </clipPath>
  </defs>
  <g id="RF_12_-_DYNAPRO_AT2_XTREME_" data-name="RF 12 - DYNAPRO AT2 XTREME  " clip-path="url(#clip-path)">
    <g id="그룹_12943" data-name="그룹 12943" transform="translate(1 3.114)">
      <g id="그룹_12945" data-name="그룹 12945" transform="translate(0 0)" clip-path="url(#clip-path-2)">
        <path id="패스_56458" data-name="패스 56458" d="M438.06,19.517c2.212-6.48,7.16-9.608,14.1-11.749,2.935-.906,3.422-1.207,3.659-1.976.262-.851-.385-1.317-2.394-1.317a19.9,19.9,0,0,0-8.069,1.949L443.373,2.5A28.239,28.239,0,0,1,454.913,0c7.622,0,12.405,1.924,11.33,5.409-.777,2.524-2.4,4.062-7.734,5.764-5.576,1.784-7.305,2.855-8.2,4.007h13.1l-1.334,4.337Z" transform="translate(-169.011 0)" fill="#fff"/>
        <path id="패스_56459" data-name="패스 56459" d="M343.939,19.748l2.5-8.183h6.514l-2.531,8.183h10.726L367.008.6H356.281L353.932,8.38h-6.516L349.8.6H339.089l-5.856,19.15Z" transform="translate(-128.567 -0.23)" fill="#fff"/>
        <path id="패스_56460" data-name="패스 56460" d="M414.606.6H393.459L387.6,19.749h10.767l2.118-6.859h10.362c3.848,0,7.018-.663,8.027-3.964L420.2,4.592C421.24,1.2,418.341.6,414.606.6M401.454,9.731l1.823-5.972h4.472c1.734,0,1.84.545,1.48,1.723l-.617,2.01c-.49,1.605-.72,2.239-3.188,2.239Z" transform="translate(-149.543 -0.232)" fill="#fff"/>
        <path id="패스_56461" data-name="패스 56461" d="M294.839,9.1l-15.284,0c-2.7,0-5.309,1.583-6.01,3.875l-1.806,5.9c-1.09,3.556,1.531,4.151,5.18,4.151H292c3.174,0,5.264-1.442,6.041-3.985l1.694-5.535c1.077-3.532-1.043-4.4-4.9-4.4m-5.6,4.379-1.588,5.2a2.179,2.179,0,0,1-2.471,1.723h-1.392c-1.469,0-1.852-.427-1.478-1.639l1.674-5.482a2.261,2.261,0,0,1,2.454-1.554h1.051c1.639,0,2.157.424,1.749,1.753" transform="translate(-104.745 -3.51)" fill="#fff"/>
        <path id="패스_56462" data-name="패스 56462" d="M120.454,9.152H112.6a5.837,5.837,0,0,0-2.783.612l.225-.612H100L95.745,23.079h10.5l3.043-9.947a1.667,1.667,0,0,1,1.883-1.353h1.564c1.533,0,1.557.59,1.211,1.725l-2.955,9.575h10.556l2.826-9.323c.873-2.852-.367-4.6-3.915-4.6" transform="translate(-36.94 -3.531)" fill="#fff"/>
        <path id="패스_56463" data-name="패스 56463" d="M167.513,9.106l-18.642.029-.806,2.627H159.3c.887,0,1.792.055,1.513.96-.268.765-.9.93-1.72.93h-9.71c-2.423,0-4.577,1.015-5.244,3.193l-.722,2.373c-.907,2.965.7,3.844,4.013,3.844h8.385a3.987,3.987,0,0,0,2.354-.65l-.235.65h10.139l3.061-9.974c.727-2.373-.765-3.953-3.622-3.982m-8.479,9.544a2.16,2.16,0,0,1-2.486,1.782H155.46c-1.533,0-1.761-.593-1.4-1.782l.192-.619a2.157,2.157,0,0,1,2.486-1.777h3.032Z" transform="translate(-55.237 -3.513)" fill="#fff"/>
        <path id="패스_56464" data-name="패스 56464" d="M213.191,9.243H191.8l-5.9,19.109h10.913l1.716-5.494h10.5c3.412,0,6.238-.65,7.231-3.9l1.77-5.794c1.02-3.332-1.526-3.925-4.839-3.925m-6.308,4.8-1.07,3.5c-.485,1.581-.708,2.2-2.893,2.2h-3.438l2.263-7.4h3.884c1.535,0,1.612.537,1.255,1.7" transform="translate(-71.723 -3.566)" fill="#fff"/>
        <path id="패스_56465" data-name="패스 56465" d="M259.847,9.152h-4.4c-2.356,0-3.738.53-4.424,1.2l.451-1.2H241.438l-4.261,13.927h10.494l2.462-8.052c.422-1.386,1.509-1.972,3.44-2.092l1.48,0a25.541,25.541,0,0,1,3.369.276Z" transform="translate(-91.507 -3.531)" fill="#fff"/>
        <path id="패스_56466" data-name="패스 56466" d="M69.485,9.152l-2.822,9.237c-.329.964-.6,2.063-2.132,2.063h-1.19c-1.977,0-2.01-.671-1.555-2.174l2.793-9.126h-10.5L51.53,17.489c-1.149,3.757-.314,5.593,4.467,5.593h7.018a7.314,7.314,0,0,0,2.293-.259l-.295.967c-.379,1.241-.717,1.89-2.421,1.89H52.243l-.84,2.737H66.554c4.431-.086,7.581-.108,8.92-4.491l.225-.845,4.259-13.93Z" transform="translate(-19.704 -3.531)" fill="#fff"/>
        <path id="패스_56467" data-name="패스 56467" d="M27.574.649H5.856L0,19.8H21.722c4.334,0,6.63-2.3,7.607-5.485l2.5-8.183C32.812,2.916,31.8.649,27.574.649m-6.806,5.4L18.212,14.4c-.464,1.523-.823,2.238-2.939,2.238H12.018l3.923-12.83H19.2c2.114,0,2.036.719,1.57,2.243" transform="translate(0 -0.25)" fill="#fff"/>
      </g>
    </g>
  </g>
</svg>
