<svg xmlns="http://www.w3.org/2000/svg" width="32" height="32" viewBox="0 0 32 32">
  <g id="Cartype_SUV_CUV" transform="translate(-4 -4)">
    <rect id="사각형_12508" data-name="사각형 12508" width="32" height="32" transform="translate(4 4)" fill="none"/>
    <g id="Cartype_SUV_CUV-2" data-name="Cartype_SUV_CUV" transform="translate(0.75 -1.081)">
      <path id="패스_55070" data-name="패스 55070" d="M25.828,24.407h2.313a.578.578,0,1,0,0-1.157H25.828a.578.578,0,1,0,0,1.157Z" transform="translate(-5.036 -2.747)" fill="#040000"/>
      <path id="패스_55071" data-name="패스 55071" d="M34.672,27.828a.578.578,0,0,0,.578-.578V19.539a2.123,2.123,0,0,0-2.12-2.12H18.286V12.407h3.959a.961.961,0,0,1,.755.364l2.058,2.546a.578.578,0,1,0,.9-.727L23.9,12.046a2.111,2.111,0,0,0-1.655-.8H6.142a.578.578,0,0,0,0,1.157H7.62l-1.88,5.012H4.6A1.351,1.351,0,0,0,3.25,18.768v4.626A1.351,1.351,0,0,0,4.6,24.744h.964v.61a3.391,3.391,0,0,0,.8,2.174A3.656,3.656,0,0,0,10,30.913H34.672a.578.578,0,0,0,0-1.157H31.16a3.64,3.64,0,0,0,.947-1.928Zm-1.542-9.253a.965.965,0,0,1,.964.964v2.506H32.358a.578.578,0,1,0,0,1.157h1.735v3.47H32.107a3.647,3.647,0,0,0-7.213.048H18.286V18.575ZM10,23.587A3.654,3.654,0,0,0,6.743,25.6a2.245,2.245,0,0,1-.024-.249V18.575h10.41V26.72h-.964a.578.578,0,1,0,0,1.157H24.9a3.642,3.642,0,0,0,.942,1.88H12.654A3.652,3.652,0,0,0,10,23.587Zm7.133-6.169H12.117V14.142a.578.578,0,1,0-1.157,0v3.277H6.976l1.879-5.012h8.274ZM4.6,23.587a.193.193,0,0,1-.193-.193V18.768a.193.193,0,0,1,.193-.193h.964v5.012ZM7.491,27.25A2.506,2.506,0,1,1,10,29.756,2.506,2.506,0,0,1,7.491,27.25ZM26,27.25A2.506,2.506,0,1,1,28.5,29.756,2.506,2.506,0,0,1,26,27.25Z" transform="translate(0 0)" fill="#040000"/>
      <path id="패스_55072" data-name="패스 55072" d="M5.37,35.25H3.828a.578.578,0,1,0,0,1.157H5.37a.578.578,0,1,0,0-1.157Z" transform="translate(0 -5.494)" fill="#040000"/>
    </g>
  </g>
</svg>
