<svg xmlns="http://www.w3.org/2000/svg" width="32" height="32" viewBox="0 0 32 32">
  <g id="Cartype_PCR" transform="translate(-4 -4)">
    <rect id="사각형_12508" data-name="사각형 12508" width="32" height="32" transform="translate(4 4)" fill="none"/>
    <g id="그룹_8228" data-name="그룹 8228" transform="translate(4 10.941)">
      <path id="패스_45929" data-name="패스 45929" d="M461.307,148.838h-9.253a.578.578,0,0,1,0-1.157h9.253a.578.578,0,0,1,0,1.157" transform="translate(-439.139 -133.803)"/>
      <path id="패스_45930" data-name="패스 45930" d="M455.367,145.838h-2.313a.578.578,0,1,1,0-1.157h2.313a.578.578,0,1,1,0,1.157" transform="translate(-438.596 -135.43)"/>
      <path id="패스_45931" data-name="패스 45931" d="M447.139,145.338h-3.084a.578.578,0,0,1,0-1.157h3.084a.578.578,0,1,1,0,1.157" transform="translate(-443.476 -135.701)"/>
      <path id="패스_45932" data-name="패스 45932" d="M461.139,153.006a3.663,3.663,0,1,1,3.663-3.663,3.665,3.665,0,0,1-3.663,3.663m0-6.169a2.506,2.506,0,1,0,2.506,2.506,2.509,2.509,0,0,0-2.506-2.506" transform="translate(-435.886 -134.887)"/>
      <path id="패스_45933" data-name="패스 45933" d="M449.139,153.006a3.663,3.663,0,1,1,3.662-3.663,3.665,3.665,0,0,1-3.662,3.663m0-6.169a2.506,2.506,0,1,0,2.506,2.506,2.509,2.509,0,0,0-2.506-2.506" transform="translate(-442.392 -134.887)"/>
      <path id="패스_45934" data-name="패스 45934" d="M453.054,145.193a.578.578,0,0,1-.578-.578v-3.855a.578.578,0,0,1,1.157,0v3.855a.579.579,0,0,1-.578.578" transform="translate(-438.596 -137.869)"/>
      <path id="패스_45935" data-name="패스 45935" d="M472.187,152.9H469.1a.578.578,0,1,1,0-1.157h2.506v-2.141a2.5,2.5,0,0,0-1.385-2.242l-4.139-2.07a.955.955,0,0,0-.43-.1h-16.6a.578.578,0,0,1-.538-.793l1.542-3.855a.583.583,0,0,1,.538-.364h7.711a.578.578,0,1,1,0,1.157h-7.319l-1.08,2.7h15.745a2.111,2.111,0,0,1,.948.227l4.138,2.066a3.647,3.647,0,0,1,2.025,3.277v2.719a.579.579,0,0,1-.578.578" transform="translate(-440.766 -137.869)"/>
      <path id="패스_45936" data-name="패스 45936" d="M447.139,153.766a3.666,3.666,0,0,1-3.663-3.663v-3.9a1.351,1.351,0,0,1,1.349-1.349h1.955L449.7,139a.578.578,0,0,1,.518-.319h11.7a2.1,2.1,0,0,1,1.5.62l2.649,2.651a.578.578,0,0,1-.817.817l-2.651-2.651a.968.968,0,0,0-.68-.281H450.579l-2.924,5.848a.577.577,0,0,1-.517.321h-2.313a.192.192,0,0,0-.193.193v3.9a2.509,2.509,0,0,0,2.506,2.506.578.578,0,1,1,0,1.157" transform="translate(-443.476 -138.682)"/>
      <path id="패스_45937" data-name="패스 45937" d="M464.6,146.838h-1.542a.578.578,0,0,1,0-1.157H464.6a.578.578,0,0,1,0,1.157" transform="translate(-433.175 -134.887)"/>
      <path id="패스_45938" data-name="패스 45938" d="M445.6,150.838h-1.542a.578.578,0,0,1,0-1.157H445.6a.578.578,0,0,1,0,1.157" transform="translate(-443.476 -132.719)"/>
      <path id="패스_45939" data-name="패스 45939" d="M472.729,150.838H448.054a.578.578,0,1,1,0-1.157h24.674a.578.578,0,0,1,0,1.157" transform="translate(-441.307 -132.719)"/>
    </g>
  </g>
</svg>
