<svg xmlns="http://www.w3.org/2000/svg" xmlns:xlink="http://www.w3.org/1999/xlink" width="154" height="38" viewBox="0 0 154 38">
  <defs>
    <clipPath id="clip-path">
      <rect id="Rectangle_13763" data-name="Rectangle 13763" width="154" height="38" transform="translate(765 1.222)" fill="#fff" stroke="#707070" stroke-width="1"/>
    </clipPath>
    <clipPath id="clip-path-2">
      <rect id="Rectangle_13775" data-name="Rectangle 13775" width="153.768" height="35.461" fill="none"/>
    </clipPath>
  </defs>
  <g id="Drive_-_Tractor_Trailer_-_Others_2_" data-name="Drive - Tractor/Trailer - Others(2)" transform="translate(-765 -1.222)" clip-path="url(#clip-path)">
    <g id="Group_12702" data-name="Group 12702" transform="translate(765 3.762)">
      <g id="Group_12701" data-name="Group 12701" clip-path="url(#clip-path-2)">
        <path id="Path_59832" data-name="Path 59832" d="M32.35,82.3a4.932,4.932,0,1,0-4.933-4.933A4.932,4.932,0,0,0,32.35,82.3" transform="translate(19.454 -47.024)" fill="#e85400"/>
        <path id="패스_59833" data-name="패스 59833" d="M32,82.134a5.121,5.121,0,1,1,3.621-1.5A5.121,5.121,0,0,1,32,82.134Zm0-9.863a4.741,4.741,0,1,0,3.353,1.389A4.741,4.741,0,0,0,32,72.271Z" transform="translate(-17.449 -46.673)" fill="#1a1311"/>
        <path id="패스_59835" data-name="패스 59835" d="M142.759,84.229a2.659,2.659,0,1,1,2.659-2.66A2.659,2.659,0,0,1,142.759,84.229Zm0-5.192a2.533,2.533,0,1,0,2.532,2.532,2.533,2.533,0,0,0-2.532-2.532Z" transform="translate(-90.955 -51.23)" fill="#1a1311"/>
        <path id="패스_59836" data-name="패스 59836" d="M138.2,82.134a5.121,5.121,0,1,1,3.621-1.5,5.121,5.121,0,0,1-3.621,1.5Zm0-9.863a4.741,4.741,0,1,0,3.353,1.389A4.741,4.741,0,0,0,138.2,72.271Z" transform="translate(-86.396 -46.673)" fill="#1a1311"/>
        <path id="패스_59837" data-name="패스 59837" d="M9.2,32.593H3.692L0,29.6V26.225a1.17,1.17,0,0,1,.452-.889V16.9l.009-.028a2.279,2.279,0,0,1,1.182-1.311V9.634a3.121,3.121,0,0,1,1.47-2.643L15.251,1.375a2.908,2.908,0,0,1,2.551-.1,1.786,1.786,0,0,1,.825,1.219V2.5l.34,3.335.909,5.337V22.4l.583.55V0H70.418V25.487h-.379V.379h-49.2V23.83L19.5,22.565V11.2l-.907-5.324-.34-3.337a1.423,1.423,0,0,0-.644-.943,2.574,2.574,0,0,0-2.21.128L3.27,7.336a1.77,1.77,0,0,0-.543.47,3.536,3.536,0,0,0-.706,1.861v6.147L1.9,15.86a1.971,1.971,0,0,0-1.068,1.1v8.579l-.089.056a.834.834,0,0,0-.363.634v3.2l3.448,2.792H8.972A10.482,10.482,0,0,1,8.833,30.3,8.232,8.232,0,0,1,9.1,28.317a5.355,5.355,0,0,1,.955-1.955A5.456,5.456,0,0,1,14.526,24.5a5.274,5.274,0,0,1,4.256,1.682,5.544,5.544,0,0,1,1.051,1.925,8.557,8.557,0,0,1,.376,1.976,10.8,10.8,0,0,1-.026,1.956h3.882l5.611-2.55H46.12a6.661,6.661,0,0,1,.821-2.427,5.088,5.088,0,0,1,1.724-1.8,5.924,5.924,0,0,1,3.165-.816,5.763,5.763,0,0,1,3.136.817,4.815,4.815,0,0,1,1.657,1.8,6.458,6.458,0,0,1,.727,2.422H70.692l5.374-2.812h4.221v.379H76.159l-5.374,2.812h-13.8v-.185a6.077,6.077,0,0,0-.7-2.447,4.437,4.437,0,0,0-1.527-1.656,5.4,5.4,0,0,0-2.926-.754,5.553,5.553,0,0,0-2.966.759,4.714,4.714,0,0,0-1.6,1.667,6.237,6.237,0,0,0-.789,2.438l-.011.177H29.759l-5.611,2.55h-4.4l.034-.219a10.088,10.088,0,0,0,.049-2.1,8.165,8.165,0,0,0-.36-1.885,5.165,5.165,0,0,0-.977-1.79A4.915,4.915,0,0,0,14.53,24.87a5.1,5.1,0,0,0-4.18,1.73,4.975,4.975,0,0,0-.885,1.813,7.84,7.84,0,0,0-.254,1.88,9.775,9.775,0,0,0,.174,2.072l.051.23Z" fill="#1a1311"/>
        <path id="선_323" data-name="선 323" d="M29.36-.161H0V-.54H29.36Z" transform="translate(87.129 27.221)" fill="#1a1311"/>
        <path id="선_324" data-name="선 324" d="M10.209-.161H0V-.54H10.209Z" transform="translate(123.856 27.221)" fill="#1a1311"/>
        <path id="패스_59838" data-name="패스 59838" d="M287.884,31.632h-2.021v-1.41l-2.042-1.932h-8.589v-.379h8.74l2.27,2.147v1.195h1.264V2.273H206.962V27.321h-.379V1.894h81.3Z" transform="translate(-134.117 -1.23)" fill="#1a1311"/>
        <path id="패스_59839" data-name="패스 59839" d="M24.593,17.009H8.6v-.126l14.063-1.814a1.757,1.757,0,0,1,1.693.941,2.247,2.247,0,0,1,.241.936ZM9.587,16.883H24.464a2.179,2.179,0,0,0-.226-.819,1.631,1.631,0,0,0-1.575-.869Z" transform="translate(-5.581 -9.783)" fill="#1a1311"/>
        <path id="선_325" data-name="선 325" d="M17.8-.054H0V-.18H17.8Z" transform="translate(1.832 11.359)" fill="#1a1311"/>
        <path id="패스_59840" data-name="패스 59840" d="M15.776,42.835H8.3v-.126h7.481a1.931,1.931,0,0,0,1.711-.738,1.549,1.549,0,0,0,.265-.732v-9.03h.126v9.034a1.654,1.654,0,0,1-.287.8,2.12,2.12,0,0,1-1.82.792Z" transform="translate(-5.385 -20.911)" fill="#1a1311"/>
        <path id="패스_59841" data-name="패스 59841" d="M4.25,59.686H4.124V49.257A1.791,1.791,0,0,0,3.615,47.9a2.2,2.2,0,0,0-1.466-.5l-.007-.126A2.292,2.292,0,0,1,3.7,47.8a1.912,1.912,0,0,1,.548,1.453Z" transform="translate(-1.391 -30.684)" fill="#1a1311"/>
        <path id="선_326" data-name="선 326" d="M16.834-.054H0V-.18H16.834Z" transform="translate(2.797 18.349)" fill="#1a1311"/>
        <path id="선_327" data-name="선 327" d="M2.041-.054H0V-.18H2.041Z" transform="translate(0.699 25.491)" fill="#1a1311"/>
        <path id="패스_59842" data-name="패스 59842" d="M1.545,77.676H.9a.706.706,0,0,1-.7-.707V75.93a.7.7,0,0,1,.7-.7h.642a.706.706,0,0,1,.706.7v1.038A.707.707,0,0,1,1.545,77.676ZM.9,75.352a.579.579,0,0,0-.578.578v1.038a.58.58,0,0,0,.578.581h.642a.581.581,0,0,0,.58-.581V75.93a.58.58,0,0,0-.58-.578Z" transform="translate(-0.129 -48.838)" fill="#1a1311"/>
        <path id="사각형_13771" data-name="사각형 13771" d="M.527-.18H7.4a.707.707,0,0,1,.706.706V1.92a.707.707,0,0,1-.706.706H.526a.707.707,0,0,1-.706-.7V.527A.708.708,0,0,1,.527-.18ZM7.4,2.5a.581.581,0,0,0,.58-.58V.526a.581.581,0,0,0-.58-.58H.527A.581.581,0,0,0-.054.527V1.921a.581.581,0,0,0,.58.58Z" transform="translate(3.195 12.721)" fill="#1a1311"/>
        <path id="사각형_13772" data-name="사각형 13772" d="M-.18-.18H3.4V1.759H-.18Zm3.456.126H-.054V1.633h3.33Z" transform="translate(3.82 26.511)" fill="#1a1311"/>
        <path id="사각형_13773" data-name="사각형 13773" d="M-.18-.18H3.4V.965H-.18Zm3.456.126H-.054V.839h3.33Z" transform="translate(3.82 24.472)" fill="#1a1311"/>
        <path id="사각형_13774" data-name="사각형 13774" d="M-.18-.18H3.4V.967H-.18Zm3.458.126H-.054v.9H3.278Z" transform="translate(4.67 30.364)" fill="#1a1311"/>
        <path id="패스_59843" data-name="패스 59843" d="M20.278,72.055h-.126a7.006,7.006,0,0,0-.8-3.415,5.654,5.654,0,0,0-1.75-1.929,6.544,6.544,0,0,0-2.551-1.055H12.563A3.236,3.236,0,0,0,11.1,66a4.049,4.049,0,0,0-1.046.767,4.895,4.895,0,0,0-.836,1.113L8.077,71.608H.379v-.126h7.6L9.1,67.832a4.907,4.907,0,0,1,.862-1.15,4.175,4.175,0,0,1,1.079-.791,3.361,3.361,0,0,1,1.516-.361h2.5a6.661,6.661,0,0,1,2.613,1.07,5.78,5.78,0,0,1,1.792,1.972A7.129,7.129,0,0,1,20.278,72.055Z" transform="translate(-0.246 -42.543)" fill="#1a1311"/>
        <path id="패스_59844" data-name="패스 59844" d="M86.993,68.919H60.853L58.737,66.8l.089-.089L60.9,68.789H86.993Z" transform="translate(-38.133 -43.312)" fill="#1a1311"/>
        <path id="패스_59845" data-name="패스 59845" d="M409.414,75.207,408.18,74.5h-8.3v-.126h8.336l1.263.729Z" transform="translate(-259.606 -48.281)" fill="#1a1311"/>
        <path id="선_328" data-name="선 328" d="M11.681-.054H0V-.18H11.681Z" transform="translate(123.014 26.268)" fill="#1a1311"/>
        <path id="선_329" data-name="선 329" d="M31.045-.054H0V-.18H31.045Z" transform="translate(86.392 26.268)" fill="#1a1311"/>
        <path id="패스_59846" data-name="패스 59846" d="M182.678,73.372h-8.785l-2.368-.607H156.093v-.126h15.456l2.36.6h8.769Z" transform="translate(-101.338 -47.158)" fill="#1a1311"/>
        <path id="선_330" data-name="선 330" d="M80.809-.054H0V-.18H80.809Z" transform="translate(72.656 24.679)" fill="#1a1311"/>
        <path id="선_331" data-name="선 331" d="M48.672-.054H0V-.18H48.672Z" transform="translate(21.5 24.358)" fill="#1a1311"/>
        <path id="선_332" data-name="선 332" d="M-.054,21.669H-.18V0h.126Z" transform="translate(152.215 2.893)" fill="#1a1311"/>
        <path id="선_333" data-name="선 333" d="M80.865-.054H0V-.18H80.865Z" transform="translate(72.656 3.01)" fill="#1a1311"/>
        <path id="선_334" data-name="선 334" d="M49.466-.054H0V-.18H49.466Z" transform="translate(20.706 2.406)" fill="#1a1311"/>
        <path id="선_335" data-name="선 335" d="M-.054,21.669H-.18V0h.126Z" transform="translate(74.359 2.893)" fill="#1a1311"/>
        <path id="선_336" data-name="선 336" d="M-.054,21.97H-.18V0h.126Z" transform="translate(68.701 2.289)" fill="#1a1311"/>
        <path id="선_337" data-name="선 337" d="M-.054,21.97H-.18V0h.126Z" transform="translate(22.26 2.289)" fill="#1a1311"/>
        <path id="선_338" data-name="선 338" d="M-.054,4.383H-.18V0h.126Z" transform="translate(29.438 19.839)" fill="#1a1311"/>
        <path id="선_339" data-name="선 339" d="M-.054,4.383H-.18V0h.126Z" transform="translate(37.491 19.839)" fill="#1a1311"/>
        <path id="선_340" data-name="선 340" d="M-.054,4.383H-.18V0h.126Z" transform="translate(45.35 19.839)" fill="#1a1311"/>
        <path id="선_341" data-name="선 341" d="M-.054,4.383H-.18V0h.126Z" transform="translate(53.135 19.839)" fill="#1a1311"/>
        <path id="선_342" data-name="선 342" d="M-.054,4.383H-.18V0h.126Z" transform="translate(61.144 19.839)" fill="#1a1311"/>
        <path id="선_343" data-name="선 343" d="M-.054,4.383H-.18V0h.126Z" transform="translate(82.446 20.142)" fill="#1a1311"/>
        <path id="선_344" data-name="선 344" d="M-.054,4.383H-.18V0h.126Z" transform="translate(91.212 20.142)" fill="#1a1311"/>
        <path id="선_345" data-name="선 345" d="M-.054,4.383H-.18V0h.126Z" transform="translate(99.978 20.142)" fill="#1a1311"/>
        <path id="선_346" data-name="선 346" d="M-.054,4.383H-.18V0h.126Z" transform="translate(108.67 20.142)" fill="#1a1311"/>
        <path id="선_347" data-name="선 347" d="M-.054,4.383H-.18V0h.126Z" transform="translate(117.436 20.142)" fill="#1a1311"/>
        <path id="선_348" data-name="선 348" d="M-.054,4.383H-.18V0h.126Z" transform="translate(126.204 20.142)" fill="#1a1311"/>
        <path id="선_349" data-name="선 349" d="M-.054,4.383H-.18V0h.126Z" transform="translate(134.969 20.142)" fill="#1a1311"/>
        <path id="선_350" data-name="선 350" d="M-.054,4.383H-.18V0h.126Z" transform="translate(143.735 20.142)" fill="#1a1311"/>
        <path id="패스_59847" data-name="패스 59847" d="M229.7,82.134a5.123,5.123,0,1,1,3.622-1.5A5.123,5.123,0,0,1,229.7,82.134Zm0-9.863a4.743,4.743,0,1,0,3.354,1.389,4.743,4.743,0,0,0-3.354-1.389Z" transform="translate(-145.798 -46.673)" fill="#1a1311"/>
        <path id="패스_59849" data-name="패스 59849" d="M333.5,81.832a5.12,5.12,0,1,1,3.62-1.5,5.12,5.12,0,0,1-3.62,1.5Zm0-9.863a4.742,4.742,0,1,0,3.353,1.389,4.742,4.742,0,0,0-3.353-1.389Z" transform="translate(-213.187 -46.477)" fill="#1a1311"/>
        <path id="패스_59851" data-name="패스 59851" d="M382.7,81.832a5.122,5.122,0,1,1,3.622-1.5,5.122,5.122,0,0,1-3.622,1.5Zm0-9.863a4.744,4.744,0,1,0,3.354,1.389A4.744,4.744,0,0,0,382.7,71.969Z" transform="translate(-245.128 -46.477)" fill="#1a1311"/>
        <circle id="타원_16" data-name="타원 16" cx="2.66" cy="2.66" r="2.66" transform="translate(49.145 27.679)" fill="#a3a3a3"/>
        <circle id="타원_122" data-name="타원 122" cx="2.66" cy="2.66" r="2.66" transform="translate(11.891 27.679)" fill="#a3a3a3"/>
        <circle id="타원_123" data-name="타원 123" cx="2.66" cy="2.66" r="2.66" transform="translate(81.242 27.679)" fill="#a3a3a3"/>
        <circle id="타원_124" data-name="타원 124" cx="2.66" cy="2.66" r="2.66" transform="translate(117.651 27.679)" fill="#a3a3a3"/>
        <circle id="타원_125" data-name="타원 125" cx="2.66" cy="2.66" r="2.66" transform="translate(134.909 27.679)" fill="#a3a3a3"/>
      </g>
    </g>
  </g>
</svg>
