<svg xmlns="http://www.w3.org/2000/svg" xmlns:xlink="http://www.w3.org/1999/xlink" width="88" height="38" viewBox="0 0 88 38">
  <defs>
    <clipPath id="clip-path">
      <rect id="Rectangle_13839" data-name="Rectangle 13839" width="88" height="38" transform="translate(765 1.222)" fill="#fff" stroke="#707070" stroke-width="1"/>
    </clipPath>
    <clipPath id="clip-path-2">
      <rect id="Rectangle_13838" data-name="Rectangle 13838" width="87.556" height="38" fill="none"/>
    </clipPath>
  </defs>
  <g id="Drive_-_Dump_-_Others_1_" data-name="Drive - Dump - Others(1)" transform="translate(-765 -1.222)" clip-path="url(#clip-path)">
    <g id="Group_12724" data-name="Group 12724" transform="translate(765 1.223)">
      <g id="Group_12723" data-name="Group 12723" clip-path="url(#clip-path-2)">
        <path id="패스_59307" data-name="패스 59307" d="M140.111,44.609l-.332-.332,6.025-6.026V37.28c-.265.174-.693.423-1.4.792-.821.431-1.922.974-3.272,1.616-2.3,1.092-4.551,2.1-4.574,2.114l-.192-.428c.022-.01,2.273-1.02,4.565-2.11,4.143-1.97,4.821-2.483,4.92-2.613l.421-.548v2.342Z" transform="translate(-77.147 -20.425)" fill="#1a1311"/>
        <path id="패스_59308" data-name="패스 59308" d="M7.764,42.367H3.245l-.12-1.553H0V37.269l.837-.119V35.469a12.5,12.5,0,0,1-.055-5.257,11.594,11.594,0,0,1,.67-2.27l2.27-5.974A3.5,3.5,0,0,1,5.96,19.86a4.055,4.055,0,0,1,1.455-.19H13.5v.469H7.383a3.614,3.614,0,0,0-1.3.174A3.009,3.009,0,0,0,4.158,22.14L1.883,28.127a11.282,11.282,0,0,0-.644,2.189,12.012,12.012,0,0,0,.06,5.07l.007.027v2.144l-.837.119v2.669h3.09l.12,1.553H7.764Z" transform="translate(0 -11.124)" fill="#1a1311"/>
        <path id="패스_59309" data-name="패스 59309" d="M32.918,35.033h-.469v-13.3a1.675,1.675,0,0,0-.874-1.162,4.143,4.143,0,0,0-.836-.422l.151-.444c.077.026,1.893.661,2.026,1.992V35.033Z" transform="translate(-17.39 -11.149)" fill="#1a1311"/>
        <path id="패스_59310" data-name="패스 59310" d="M30.1,61.416a.79.79,0,0,1-.479-.227l-.016-.016,0-.021a8.257,8.257,0,0,0-1.407-3.1,6.129,6.129,0,0,0-1.913-1.66,6.4,6.4,0,0,0-3.007-.8h-.151a8.455,8.455,0,0,0-3.227.9,6.4,6.4,0,0,0-1.9,1.52,5.543,5.543,0,0,0-1.134,2.059l-.007.031-.027.017a.767.767,0,0,1-.385.146.251.251,0,0,1-.21-.1c-.169-.229,0-.787.017-.85v-.009a8.072,8.072,0,0,1,2.766-3.388A5.439,5.439,0,0,1,20.6,55.14a8.5,8.5,0,0,1,2.611-.414,7,7,0,0,1,2.364.368,5.005,5.005,0,0,1,2.276,1.269A8.767,8.767,0,0,1,29.4,58.349a12.834,12.834,0,0,1,1.162,2.628l.007.026-.01.025C30.427,61.349,30.236,61.416,30.1,61.416Zm-.353-.324a.61.61,0,0,0,.353.167c.124,0,.225-.089.3-.265a12.781,12.781,0,0,0-1.14-2.569,8.606,8.606,0,0,0-1.517-1.946,4.848,4.848,0,0,0-2.209-1.231h-.011a6.942,6.942,0,0,0-2.312-.359,8.346,8.346,0,0,0-2.565.407h-.005a5.371,5.371,0,0,0-1.544.76,7.918,7.918,0,0,0-2.7,3.314c-.064.209-.13.582-.039.707a.1.1,0,0,0,.085.039.576.576,0,0,0,.276-.105,5.71,5.71,0,0,1,1.158-2.092,6.56,6.56,0,0,1,1.948-1.557,8.613,8.613,0,0,1,3.288-.919h.163a6.563,6.563,0,0,1,3.082.816,6.284,6.284,0,0,1,1.961,1.7,8.4,8.4,0,0,1,1.427,3.133Z" transform="translate(-9.139 -30.962)" fill="#1a1311"/>
        <path id="선_284" data-name="선 284" d="M0-.011-.035-.479l.911-.06.031.468Z" transform="translate(19.556 30.028)" fill="#1a1311"/>
        <path id="패스_59311" data-name="패스 59311" d="M20.849,23.991c-6.248,0-10.669-.045-10.713-.045V23.79c.044,0,4.464.045,10.711.045Z" transform="translate(-5.734 -13.458)" fill="#1a1311"/>
        <path id="패스_59312" data-name="패스 59312" d="M6.917,47.993a47.433,47.433,0,0,1-.344-9.726C6.722,35.224,7,32.845,7,32.822l.155.018c0,.024-.282,2.4-.431,5.435a47.282,47.282,0,0,0,.342,9.69Z" transform="translate(-3.666 -18.568)" fill="#1a1311"/>
        <path id="선_285" data-name="선 285" d="M14.3-.024H0V-.18H14.3Z" transform="translate(0.863 21.76)" fill="#1a1311"/>
        <path id="패스_59313" data-name="패스 59313" d="M11.094,26.988H19.31v4.09L10.447,32.4Zm8.059.156h-7.92l-.606,5.072,8.527-1.274Z" transform="translate(-5.91 -15.268)" fill="#1a1311"/>
        <path id="선_286" data-name="선 286" d="M-.024,4.707H-.18V0h.156Z" transform="translate(7.507 11.842)" fill="#1a1311"/>
        <path id="선_287" data-name="선 287" d="M-.024,13.4H-.18V0h.156Z" transform="translate(14.095 10.409)" fill="#1a1311"/>
        <path id="사각형_13656" data-name="사각형 13656" d="M-.18-.18H5.084V.289H-.18Zm5.108.156H-.024V.133H4.928Z" transform="translate(3.161 26.6)" fill="#1a1311"/>
        <path id="패스_59314" data-name="패스 59314" d="M2.9,32.764l-.132-.085c1.589-2.472,3.289-8.39,3.306-8.45l.15.043C6.2,24.332,4.5,30.273,2.9,32.764Z" transform="translate(-1.563 -13.707)" fill="#1a1311"/>
        <path id="패스_59315" data-name="패스 59315" d="M11.094,51.961h7.865v.682l-.065.011a11.079,11.079,0,0,0-1.67.468,5.945,5.945,0,0,0-2.585,1.653l-.023.03H11.094Zm7.708.156H11.25v2.532h3.289a6.155,6.155,0,0,1,2.634-1.675,11.535,11.535,0,0,1,1.63-.461Z" transform="translate(-6.276 -29.396)" fill="#1a1311"/>
        <path id="패스_59316" data-name="패스 59316" d="M38.319,32.935H37.85V17.394h-.787v7.53H35.216v-.469h1.378v-7.53h1.725Z" transform="translate(-19.923 -9.575)" fill="#1a1311"/>
        <path id="선_288" data-name="선 288" d="M3.047-.071H0V-.54H3.047Z" transform="translate(21.209 30.029)" fill="#1a1311"/>
        <path id="선_289" data-name="선 289" d="M13.266-.071H0V-.54H13.266Z" transform="translate(35.818 31.285)" fill="#1a1311"/>
        <path id="선_290" data-name="선 290" d="M3.048-.071H0V-.54H3.048Z" transform="translate(60.735 33.345)" fill="#1a1311"/>
        <path id="선_291" data-name="선 291" d="M1.077-.118H0V-.9H1.077Z" transform="translate(75.076 30.681)" fill="#1a1311"/>
        <path id="패스_59317" data-name="패스 59317" d="M178.5,67.45h-1.13v-.469h.661v-.875h-1.02v-.469H178.5Z" transform="translate(-100.138 -37.133)" fill="#1a1311"/>
        <path id="패스_59318" data-name="패스 59318" d="M41.281,24.311V23h.469v.84l14.516-.027a15.041,15.041,0,0,1-3.315-5.682,17.352,17.352,0,0,1-.761-5.91,21.5,21.5,0,0,1,.652-4.468A15.23,15.23,0,0,1,53.4,5.972l.042-.1,14.674-4.49L77.952,0h.021L89.7.419l6.921,1.489L97.536,0h9.526L102.4,5.047V7.182l2.494,6.139-.976.925,2.046.735,4.947,7.6-2.2,1.561-4.085-4.137,1.463,3.884h-5.753l1.977-5.439-3.19-3.48.346-.317,3.382,3.69L101,23.42h4.4l-1.61-4.279.386-.247,4.58,4.638,1.507-1.07-4.615-7.093-2.615-.939,1.3-1.229L101.93,7.273V4.864L105.99.469H97.832L96.89,2.445,89.647.887,77.976.47l-9.76,1.368L53.793,6.251a20.316,20.316,0,0,0-1.135,6A16.876,16.876,0,0,0,53.4,18a14.628,14.628,0,0,0,3.579,5.884l.394.4Z" transform="translate(-23.354)" fill="#1a1311"/>
        <path id="패스_59319" data-name="패스 59319" d="M94.132,56.2H77.626l-.847-.944.349-.313.707.788h16.3Z" transform="translate(-43.436 -31.085)" fill="#1a1311"/>
        <path id="사각형_13657" data-name="사각형 13657" d="M-.18-.18H9.208V2.935H-.18Zm9.232.156H-.024v2.8H9.052Z" transform="translate(51.874 21.131)" fill="#1a1311"/>
        <path id="패스_59320" data-name="패스 59320" d="M85.649,55.373q-.833,0-1.7-.029a54.728,54.728,0,0,1-6.544-.609l.131-.771a53.923,53.923,0,0,0,6.45.6,41.6,41.6,0,0,0,5.852-.184,20.721,20.721,0,0,0,5.62-1.317l.3.722a21.5,21.5,0,0,1-5.84,1.372A39.635,39.635,0,0,1,85.649,55.373Z" transform="translate(-43.791 -30.019)" fill="#1a1311"/>
        <path id="사각형_13658" data-name="사각형 13658" d="M-.18-.18H4.338v18.2H-.18Zm4.361.156H-.024V17.865H4.181Z" transform="translate(71.504 4.878)" fill="#1a1311"/>
        <path id="패스_59321" data-name="패스 59321" d="M157.162,24.8,151.309,1.088l.152-.037L157.2,24.3l.385-.918.144.06Z" transform="translate(-85.599 -0.595)" fill="#1a1311"/>
        <path id="선_292" data-name="선 292" d="M5.741,21.924-.174-.006l.151-.041,5.915,21.93Z" transform="translate(45.208 1.697)" fill="#1a1311"/>
        <path id="선_293" data-name="선 293" d="M6.582,20.129-.171-.008l.148-.05L6.73,20.08Z" transform="translate(55.066 0.088)" fill="#1a1311"/>
        <path id="패스_59322" data-name="패스 59322" d="M114.321,54.917h20.472a5.643,5.643,0,0,1,2.505,1.732,8.466,8.466,0,0,1,1.4,2.411,12.025,12.025,0,0,1,.748,3.067l.007.084h-1.141l-.006-.072a7.684,7.684,0,0,0-.8-2.89,8.029,8.029,0,0,0-3.353-3.4H114.288a6.228,6.228,0,0,0-3.613,4.949l-.008.069h-1.14l.007-.084a7.507,7.507,0,0,1,.733-2.433A6.755,6.755,0,0,1,111.7,56.4a6.54,6.54,0,0,1,2.608-1.479Zm20.434.156H114.344a6.383,6.383,0,0,0-2.533,1.437,6.6,6.6,0,0,0-1.4,1.906,7.532,7.532,0,0,0-.71,2.3h.83a6.246,6.246,0,0,1,2.022-3.9,6.048,6.048,0,0,1,1.694-1.113l.014-.005h19.93l.016.007a7.652,7.652,0,0,1,1.994,1.483,7.965,7.965,0,0,1,1.445,1.993,7.826,7.826,0,0,1,.812,2.88h.826a12.051,12.051,0,0,0-.731-2.941,8.306,8.306,0,0,0-1.373-2.365,5.49,5.49,0,0,0-2.425-1.682Z" transform="translate(-61.962 -31.068)" fill="#1a1311"/>
        <path id="타원_159" data-name="타원 159" d="M3.413-.54A3.953,3.953,0,1,1-.54,3.413,3.953,3.953,0,0,1,3.413-.54Zm0,7.438A3.484,3.484,0,1,0-.071,3.414,3.484,3.484,0,0,0,3.413,6.9Z" transform="translate(21.62 6.681)" fill="#1a1311"/>
        <path id="선_294" data-name="선 294" d="M2.767,11.452-.519-.02l.451-.129L3.218,11.323Z" transform="translate(28.314 12.689)" fill="#1a1311"/>
        <path id="선_295" data-name="선 295" d="M2.586.993-.192-.066-.025-.5,2.753.555Z" transform="translate(23.574 14.011)" fill="#1a1311"/>
        <path id="선_296" data-name="선 296" d="M-.068,4.6l-.451-.13L.811-.149l.451.13Z" transform="translate(24.37 19.425)" fill="#1a1311"/>
        <path id="패스_59323" data-name="패스 59323" d="M59.81,38.471l-6.56-.248V34.972l3.61-1.494.179.433L53.72,35.286v2.486L59.828,38Z" transform="translate(-30.125 -18.939)" fill="#1a1311"/>
        <path id="Path_59946" data-name="Path 59946" d="M24.222,71.051a6.107,6.107,0,1,0-6.106-6.107,6.107,6.107,0,0,0,6.106,6.107" transform="translate(-10.249 -33.286)" fill="#f5f5f5"/>
        <path id="패스_59325" data-name="패스 59325" d="M23.917,70.98A6.342,6.342,0,1,1,28.4,69.122a6.342,6.342,0,0,1-4.483,1.858Zm0-12.214a5.873,5.873,0,1,0,4.152,1.72,5.873,5.873,0,0,0-4.152-1.72Z" transform="translate(-9.943 -32.98)" fill="#1a1311"/>
        <path id="Path_59947" data-name="Path 59947" d="M61.122,71.051a6.107,6.107,0,1,0-6.106-6.107,6.107,6.107,0,0,0,6.106,6.107" transform="translate(-31.124 -33.286)" fill="#f5f5f5"/>
        <path id="패스_59328" data-name="패스 59328" d="M60.817,70.98A6.341,6.341,0,1,1,65.3,69.122a6.341,6.341,0,0,1-4.483,1.858Zm0-12.214a5.872,5.872,0,1,0,4.151,1.72,5.872,5.872,0,0,0-4.151-1.72Z" transform="translate(-30.819 -32.98)" fill="#1a1311"/>
        <path id="Path_59948" data-name="Path 59948" d="M119.322,71.051a6.107,6.107,0,1,0-6.107-6.107,6.107,6.107,0,0,0,6.107,6.107" transform="translate(-64.049 -33.286)" fill="#e85400"/>
        <path id="패스_59331" data-name="패스 59331" d="M119.017,70.98a6.342,6.342,0,1,1,4.483-1.858,6.342,6.342,0,0,1-4.483,1.858Zm0-12.214a5.873,5.873,0,1,0,4.152,1.72,5.873,5.873,0,0,0-4.152-1.72Z" transform="translate(-63.743 -32.98)" fill="#1a1311"/>
        <path id="패스_59332" data-name="패스 59332" d="M122.275,71.738a3.839,3.839,0,1,1,3.839-3.839,3.839,3.839,0,0,1-3.839,3.839Zm0-6.427a2.588,2.588,0,1,0,2.588,2.588,2.588,2.588,0,0,0-2.588-2.588Z" transform="translate(-67.001 -36.241)" fill="#e85400"/>
        <path id="Path_59949" data-name="Path 59949" d="M151.723,71.051a6.107,6.107,0,1,0-6.107-6.107,6.107,6.107,0,0,0,6.107,6.107" transform="translate(-82.379 -33.286)" fill="#e85400"/>
        <path id="패스_59334" data-name="패스 59334" d="M151.418,70.98a6.343,6.343,0,1,1,4.483-1.858,6.343,6.343,0,0,1-4.483,1.858Zm0-12.214a5.834,5.834,0,1,0,4.163,1.709,5.872,5.872,0,0,0-4.163-1.709Z" transform="translate(-82.073 -32.98)" fill="#1a1311"/>
        <path id="패스_59335" data-name="패스 59335" d="M154.676,71.738a3.839,3.839,0,1,1,3.838-3.839,3.839,3.839,0,0,1-3.838,3.839Zm0-6.427a2.588,2.588,0,1,0,2.587,2.588,2.588,2.588,0,0,0-2.587-2.588Z" transform="translate(-85.331 -36.241)" fill="#e85400"/>
        <circle id="타원_8" data-name="타원 8" cx="3.25" cy="3.25" r="3.25" transform="translate(52.024 28.407)" fill="#a3a3a3"/>
        <circle id="타원_9" data-name="타원 9" cx="3.25" cy="3.25" r="3.25" transform="translate(66.092 28.407)" fill="#a3a3a3"/>
        <circle id="타원_111" data-name="타원 111" cx="3.25" cy="3.25" r="3.25" transform="translate(26.611 28.407)" fill="#a3a3a3"/>
        <circle id="타원_112" data-name="타원 112" cx="3.25" cy="3.25" r="3.25" transform="translate(10.666 28.409)" fill="#a3a3a3"/>
      </g>
    </g>
  </g>
</svg>
