<svg xmlns="http://www.w3.org/2000/svg" xmlns:xlink="http://www.w3.org/1999/xlink" width="98" height="38" viewBox="0 0 98 38">
  <defs>
    <clipPath id="clip-path">
      <rect id="Rectangle_13866" data-name="Rectangle 13866" width="98" height="38" transform="translate(765 1.222)" fill="#fff" stroke="#707070" stroke-width="1"/>
    </clipPath>
    <clipPath id="clip-path-2">
      <rect id="Rectangle_13889" data-name="Rectangle 13889" width="96.193" height="38" fill="none"/>
    </clipPath>
  </defs>
  <g id="Drive_-_Truck_-_Others_2_" data-name="Drive - Truck - Others(2)" transform="translate(-765 -1.222)" clip-path="url(#clip-path)">
    <g id="Group_12748" data-name="Group 12748" transform="translate(765 1.223)">
      <path id="Path_60008" data-name="Path 60008" d="M81.441,10.169H147.4V8.9H85.112L82.962.5H81.441Z" transform="translate(-55.093 -0.338)" fill="#f5f5f5" fill-rule="evenodd"/>
      <path id="패스_60009" data-name="패스 60009" d="M147.313,10.081H81.191V.25h1.665l2.15,8.4h62.308ZM81.352,9.919h65.8V8.809H84.88L82.73.412H81.352Z" transform="translate(-54.924 -0.169)" fill="#1a1311"/>
      <path id="Path_60010" data-name="Path 60010" d="M138.422,70.681h50.2v6.742H141.883l-2.442-1.443h-1.02Z" transform="translate(-93.639 -47.814)" fill="#f5f5f5"/>
      <path id="패스_60011" data-name="패스 60011" d="M138.172,70.431h50.366v6.9H141.692l-2.442-1.443h-1.079Zm50.2.162H138.333v5.138h.961l2.442,1.443h46.64Z" transform="translate(-93.47 -47.645)" fill="#1a1311"/>
      <rect id="Rectangle_13875" data-name="Rectangle 13875" width="5.594" height="2.409" transform="translate(32.067 22.275)" fill="#f5f5f5"/>
      <path id="사각형_13876" data-name="사각형 13876" d="M-.25-.25H5.506V2.321H-.25Zm5.594.162H-.088V2.159H5.344Z" transform="translate(32.236 22.444)" fill="#1a1311"/>
      <rect id="Rectangle_13877" data-name="Rectangle 13877" width="6.139" height="2.96" transform="translate(40.577 22.275)" fill="#f5f5f5"/>
      <path id="사각형_13878" data-name="사각형 13878" d="M-.25-.25h6.3V2.871H-.25Zm6.139.162H-.088v2.8H5.889Z" transform="translate(40.746 22.444)" fill="#1a1311"/>
      <rect id="Rectangle_13879" data-name="Rectangle 13879" width="17.171" height="4.481" transform="translate(30.807 23.838)" fill="#f5f5f5"/>
      <path id="사각형_13880" data-name="사각형 13880" d="M-.25-.25H17.083V4.393H-.25Zm17.171.162H-.088V4.231h17.01Z" transform="translate(30.976 24.007)" fill="#1a1311"/>
      <rect id="Rectangle_13881" data-name="Rectangle 13881" width="4.802" height="2.525" transform="translate(89.458 20.342)" fill="#f5f5f5"/>
      <path id="사각형_13882" data-name="사각형 13882" d="M-.25-.25H4.714V2.437H-.25Zm4.8.162H-.088V2.275h4.64Z" transform="translate(89.627 20.511)" fill="#1a1311"/>
      <rect id="Rectangle_13883" data-name="Rectangle 13883" width="1.579" height="10.567" transform="translate(92.681 9.831)" fill="#f5f5f5"/>
      <path id="사각형_13884" data-name="사각형 13884" d="M-.25-.25H1.491V10.478H-.25Zm1.579.162H-.088v10.4H1.329Z" transform="translate(92.85 10)" fill="#1a1311"/>
      <rect id="Rectangle_13885" data-name="Rectangle 13885" width="66.112" height="12.444" transform="translate(26.348 9.831)" fill="#f5f5f5"/>
      <path id="사각형_13886" data-name="사각형 13886" d="M-.25-.25H66.023V12.356H-.25Zm66.112.162H-.088V12.194h65.95Z" transform="translate(26.517 10)" fill="#1a1311"/>
      <rect id="Rectangle_13887" data-name="Rectangle 13887" width="0.828" height="12.444" transform="translate(92.309 9.831)" fill="#f5f5f5"/>
      <path id="사각형_13888" data-name="사각형 13888" d="M-.25-.25H.739V12.356H-.25Zm.828.162H-.088V12.194H.578Z" transform="translate(92.478 10)" fill="#1a1311"/>
      <path id="Path_60012" data-name="Path 60012" d="M83.41,30.387l-.026,12.444h.832V30.387Z" transform="translate(-56.408 -20.556)" fill="#f5f5f5" fill-rule="evenodd"/>
      <path id="패스_60013" data-name="패스 60013" d="M83.16,30.137h.968V42.743h-.994Zm.807.162h-.645L83.3,42.581h.67Z" transform="translate(-56.238 -20.387)" fill="#1a1311"/>
      <path id="Path_60014" data-name="Path 60014" d="M80.087,22.613H78.51V3.958L78.795.5h1.013l.28,3.348Z" transform="translate(-53.11 -0.338)" fill="#f5f5f5" fill-rule="evenodd"/>
      <path id="패스_60015" data-name="패스 60015" d="M80,22.524H78.26V3.783L78.55.25h1.162L80,3.678Zm-1.577-.162h1.415V3.682L79.564.411H78.7l-.278,3.382Z" transform="translate(-52.941 -0.169)" fill="#1a1311"/>
      <path id="Path_60016" data-name="Path 60016" d="M271.22,42.832Z" transform="translate(-183.474 -20.557)" fill="#fff"/>
      <path id="선_345" data-name="선 345" d="M-.088,12.444H-.25V0h.162Z" transform="translate(87.915 9.831)" fill="#1a1311"/>
      <path id="Path_60017" data-name="Path 60017" d="M256.876,42.832Z" transform="translate(-173.771 -20.557)" fill="#fff"/>
      <path id="선_346" data-name="선 346" d="M-.088,12.444H-.25V0h.162Z" transform="translate(83.275 9.831)" fill="#1a1311"/>
      <path id="Path_60018" data-name="Path 60018" d="M242.536,42.832Z" transform="translate(-164.07 -20.557)" fill="#fff"/>
      <path id="선_347" data-name="선 347" d="M-.088,12.444H-.25V0h.162Z" transform="translate(78.635 9.831)" fill="#1a1311"/>
      <path id="Path_60019" data-name="Path 60019" d="M228.2,42.832Z" transform="translate(-154.369 -20.557)" fill="#fff"/>
      <path id="선_348" data-name="선 348" d="M-.088,12.444H-.25V0h.162Z" transform="translate(73.996 9.831)" fill="#1a1311"/>
      <path id="Path_60020" data-name="Path 60020" d="M213.853,42.832Z" transform="translate(-144.667 -20.557)" fill="#fff"/>
      <path id="선_349" data-name="선 349" d="M-.088,12.444H-.25V0h.162Z" transform="translate(69.355 9.831)" fill="#1a1311"/>
      <path id="Path_60021" data-name="Path 60021" d="M199.509,42.832Z" transform="translate(-134.963 -20.557)" fill="#fff"/>
      <path id="선_350" data-name="선 350" d="M-.088,12.444H-.25V0h.162Z" transform="translate(64.715 9.831)" fill="#1a1311"/>
      <path id="Path_60022" data-name="Path 60022" d="M185.169,42.832Z" transform="translate(-125.263 -20.557)" fill="#fff"/>
      <path id="선_351" data-name="선 351" d="M-.088,12.444H-.25V0h.162Z" transform="translate(60.075 9.831)" fill="#1a1311"/>
      <path id="Path_60023" data-name="Path 60023" d="M170.829,42.832Z" transform="translate(-115.562 -20.557)" fill="#fff"/>
      <path id="선_352" data-name="선 352" d="M-.088,12.444H-.25V0h.162Z" transform="translate(55.436 9.831)" fill="#1a1311"/>
      <path id="Path_60024" data-name="Path 60024" d="M156.486,42.832Z" transform="translate(-105.859 -20.557)" fill="#fff"/>
      <path id="선_353" data-name="선 353" d="M-.088,12.444H-.25V0h.162Z" transform="translate(50.796 9.831)" fill="#1a1311"/>
      <path id="Path_60025" data-name="Path 60025" d="M142.142,42.832Z" transform="translate(-96.156 -20.557)" fill="#fff"/>
      <path id="선_354" data-name="선 354" d="M-.088,12.444H-.25V0h.162Z" transform="translate(46.155 9.831)" fill="#1a1311"/>
      <path id="Path_60026" data-name="Path 60026" d="M127.8,42.832Z" transform="translate(-86.455 -20.557)" fill="#fff"/>
      <path id="선_355" data-name="선 355" d="M-.088,12.444H-.25V0h.162Z" transform="translate(41.516 9.831)" fill="#1a1311"/>
      <path id="Path_60027" data-name="Path 60027" d="M113.462,42.832Z" transform="translate(-76.754 -20.557)" fill="#fff"/>
      <path id="선_356" data-name="선 356" d="M-.088,12.444H-.25V0h.162Z" transform="translate(36.877 9.831)" fill="#1a1311"/>
      <path id="Path_60028" data-name="Path 60028" d="M99.118,42.832Z" transform="translate(-67.051 -20.557)" fill="#fff"/>
      <path id="선_357" data-name="선 357" d="M-.088,12.444H-.25V0h.162Z" transform="translate(32.236 9.831)" fill="#1a1311"/>
      <path id="Path_60029" data-name="Path 60029" d="M182.46,91.521h34.32l-2.368,2.27H184.721Z" transform="translate(-123.43 -61.912)" fill="#f5f5f5"/>
      <path id="패스_60030" data-name="패스 60030" d="M181.859,91.271h34.715L214.037,93.7H184.28Zm34.313.162H182.248l2.1,2.109h29.625Z" transform="translate(-123.023 -61.743)" fill="#1a1311"/>
      <g id="Group_12745" data-name="Group 12745">
        <g id="Group_12744" data-name="Group 12744" clip-path="url(#clip-path-2)">
          <path id="Path_60031" data-name="Path 60031" d="M93.447,68.565" transform="translate(-63.215 -46.383)" fill="#fff"/>
        </g>
      </g>
      <path id="패스_60032" data-name="패스 60032" fill="#1a1311"/>
      <rect id="Rectangle_13890" data-name="Rectangle 13890" width="20.881" height="6.252" transform="translate(20.795 25.683)" fill="#f5f5f5"/>
      <path id="사각형_13891" data-name="사각형 13891" d="M-.25-.25H20.793V6.164H-.25Zm20.881.162H-.088V6H20.631Z" transform="translate(20.965 25.852)" fill="#1a1311"/>
      <rect id="Rectangle_13892" data-name="Rectangle 13892" width="1.045" height="12.694" transform="translate(94.987 22.867)" fill="#f5f5f5"/>
      <path id="사각형_13893" data-name="사각형 13893" d="M-.25-.25H.957V12.6H-.25ZM.8-.088H-.088V12.444H.8Z" transform="translate(95.156 23.036)" fill="#1a1311"/>
      <rect id="Rectangle_13894" data-name="Rectangle 13894" width="1.052" height="8.564" transform="translate(57.23 22.284)" fill="#f5f5f5"/>
      <path id="사각형_13895" data-name="사각형 13895" d="M-.25-.25H.964V8.476H-.25ZM.8-.088H-.09v8.4H.8Z" transform="translate(57.399 22.453)" fill="#1a1311"/>
      <rect id="Rectangle_13896" data-name="Rectangle 13896" width="2.921" height="5.669" transform="translate(52.934 25.484)" fill="#f5f5f5"/>
      <path id="사각형_13897" data-name="사각형 13897" d="M-.25-.25H2.833V5.581H-.25Zm2.921.162H-.088V5.419H2.671Z" transform="translate(53.104 25.653)" fill="#1a1311"/>
      <rect id="Rectangle_13898" data-name="Rectangle 13898" width="1.052" height="8.564" transform="translate(50.612 22.275)" fill="#f5f5f5"/>
      <path id="사각형_13899" data-name="사각형 13899" d="M-.25-.25H.964V8.476H-.25ZM.8-.088H-.09v8.4H.8Z" transform="translate(50.781 22.444)" fill="#1a1311"/>
      <rect id="Rectangle_13900" data-name="Rectangle 13900" width="9.308" height="2.349" transform="translate(49.722 23.565)" fill="#f5f5f5"/>
      <path id="사각형_13901" data-name="사각형 13901" d="M-.25-.25H9.22V2.261H-.25Zm9.308.162H-.088V2.1H9.058Z" transform="translate(49.891 23.734)" fill="#1a1311"/>
      <rect id="Rectangle_13902" data-name="Rectangle 13902" width="9.308" height="2.312" transform="translate(49.722 27.297)" fill="#f5f5f5"/>
      <path id="사각형_13903" data-name="사각형 13903" d="M-.25-.25H9.22V2.224H-.25Zm9.308.162H-.088v2.15H9.058Z" transform="translate(49.891 27.466)" fill="#1a1311"/>
      <path id="Path_60033" data-name="Path 60033" d="M6.753,68.73H25.871v8.164H7.931l.079-1.521H6.493Z" transform="translate(-4.392 -46.494)" fill="#f5f5f5" fill-rule="evenodd"/>
      <path id="패스_60034" data-name="패스 60034" d="M6.5,68.48H25.776v8.326H7.67l.079-1.521H6.233Zm19.115.162H6.655L6.4,75.123H7.919L7.84,76.644H25.614Z" transform="translate(-4.216 -46.325)" fill="#1a1311"/>
      <g id="Group_12747" data-name="Group 12747">
        <g id="Group_12746" data-name="Group 12746" clip-path="url(#clip-path-2)">
          <path id="Path_60035" data-name="Path 60035" d="M.5,40.351V29.726C.5,27.574,3.625,20.3,3.625,20.3s.7-2.037,2.138-2.037c1.769,0,15.1-.014,15.1-.014a1.683,1.683,0,0,1,1.882,1.9V38.977s.034.587-.749.587H14.427c-1.068-1.8-1.751-3.068-4-3.068L7,36.507c-3.308,0-4.567,4.708-4.567,4.708h-1.4Z" transform="translate(-0.338 -12.337)" fill="#f5f5f5" fill-rule="evenodd"/>
          <path id="패스_60036" data-name="패스 60036" d="M2.332,41.127H.827L.25,40.2V29.557a21.049,21.049,0,0,1,1.568-5.551c.759-2.03,1.528-3.829,1.563-3.909a4.7,4.7,0,0,1,.539-1.036,2.1,2.1,0,0,1,1.674-1.053c1.737,0,14.787-.014,15.093-.014a1.6,1.6,0,0,1,.161-.007,1.945,1.945,0,0,1,1.078.31,1.891,1.891,0,0,1,.728,1.674V38.806a.639.639,0,0,1-.17.438.871.871,0,0,1-.66.232H14.212l-.116-.2A8.668,8.668,0,0,0,12.6,37.2a3.268,3.268,0,0,0-2.336-.792l-1.721.006-1.7.006a3.359,3.359,0,0,0-2.06.719,5.81,5.81,0,0,0-1.395,1.6,9.869,9.869,0,0,0-1.034,2.332ZM.917,40.965H2.208A10.15,10.15,0,0,1,3.244,38.65a5.97,5.97,0,0,1,1.435-1.64,3.517,3.517,0,0,1,2.158-.752l1.7-.006,1.721-.006c2.228,0,2.961,1.238,3.975,2.952l.069.116h7.519a.719.719,0,0,0,.543-.181.472.472,0,0,0,.126-.321V19.971a1.74,1.74,0,0,0-.658-1.54,1.782,1.782,0,0,0-.986-.282,1.388,1.388,0,0,0-.147.007h-.01c-.133,0-13.349.014-15.1.014a1.919,1.919,0,0,0-1.539.981,4.612,4.612,0,0,0-.522,1v.006C3.5,20.23.412,27.446.412,29.557v10.6Z" transform="translate(-0.169 -12.168)" fill="#1a1311"/>
          <rect id="Rectangle_13904" data-name="Rectangle 13904" width="3.329" height="3.699" transform="translate(0.289 29.88)" fill="#f5f5f5"/>
          <path id="사각형_13905" data-name="사각형 13905" d="M-.25-.25H3.241V3.611H-.25Zm3.329.162H-.088V3.449H3.079Z" transform="translate(0.458 30.049)" fill="#1a1311"/>
          <path id="Path_60037" data-name="Path 60037" d="M46.625,84.16h5.018v6.18l-.445.521H47.666l-.252-.344a20.055,20.055,0,0,0-.789-6.357" transform="translate(-31.541 -56.932)" fill="#f5f5f5" fill-rule="evenodd"/>
          <path id="패스_60038" data-name="패스 60038" d="M46.265,83.91H51.48V90.2l-.489.572H47.382l-.292-.4v-.026A26.238,26.238,0,0,0,46.7,85.6a10.732,10.732,0,0,0-.391-1.578Zm5.053.162H46.495a12.206,12.206,0,0,1,.361,1.5,26.367,26.367,0,0,1,.4,4.754l.212.29h3.453l.4-.47Z" transform="translate(-31.298 -56.763)" fill="#1a1311"/>
          <path id="Path_60039" data-name="Path 60039" d="M48.775,53.451H42.959a.324.324,0,0,1-.234-.1.344.344,0,0,1-.1-.241V49.034a.344.344,0,0,1,.1-.24.331.331,0,0,1,.234-.1h5.816a.327.327,0,0,1,.234.1.345.345,0,0,1,.1.24V53.11a.341.341,0,0,1-.1.241.32.32,0,0,1-.234.1" transform="translate(-28.836 -32.942)" fill="#f5f5f5"/>
          <path id="패스_60040" data-name="패스 60040" d="M48.606,53.363H42.789a.4.4,0,0,1-.292-.124.428.428,0,0,1-.121-.3V48.865a.423.423,0,0,1,.122-.3.414.414,0,0,1,.291-.121h5.816a.4.4,0,0,1,.291.121.425.425,0,0,1,.123.3v4.076a.424.424,0,0,1-.122.3A.4.4,0,0,1,48.606,53.363ZM42.79,48.609a.251.251,0,0,0-.176.073.264.264,0,0,0-.074.183v4.076a.264.264,0,0,0,.076.185.241.241,0,0,0,.175.074h5.816a.238.238,0,0,0,.175-.074.262.262,0,0,0,.077-.185V48.865a.264.264,0,0,0-.075-.183.245.245,0,0,0-.177-.074Z" transform="translate(-28.667 -32.773)" fill="#1a1311"/>
          <path id="Path_60041" data-name="Path 60041" d="M16.158,35.335H9.2a1.465,1.465,0,0,1-.991-.379,1.207,1.207,0,0,1-.411-.9V28.017l1.815-4.84a2.6,2.6,0,0,1,.5-.869,1.187,1.187,0,0,1,.9-.391H16.44a1.117,1.117,0,0,1,1.12,1.276v10.86a1.214,1.214,0,0,1-.413.9,1.461,1.461,0,0,1-.989.379" transform="translate(-5.274 -14.827)" fill="#f5f5f5"/>
          <path id="패스_60042" data-name="패스 60042" d="M15.989,35.247H9.028a1.538,1.538,0,0,1-1.045-.4,1.282,1.282,0,0,1-.437-.961v-6.06L9.367,22.98a2.616,2.616,0,0,1,.513-.9,1.275,1.275,0,0,1,.962-.416h5.443a1.263,1.263,0,0,1,.644.187,1.322,1.322,0,0,1,.543,1.17v10.86a1.287,1.287,0,0,1-.44.962,1.536,1.536,0,0,1-1.043.4ZM7.708,27.866v6.019a1.122,1.122,0,0,0,.384.841,1.378,1.378,0,0,0,.937.358H15.99a1.375,1.375,0,0,0,.935-.358,1.128,1.128,0,0,0,.387-.842V23.025a1.13,1.13,0,0,0-.468-1.033,1.113,1.113,0,0,0-.558-.162H10.842a1.1,1.1,0,0,0-.844.365,2.465,2.465,0,0,0-.479.842Z" transform="translate(-5.105 -14.657)" fill="#1a1311"/>
          <path id="Path_60043" data-name="Path 60043" d="M17.486,75.781h-.769c-.666-1.528-1.924-3.1-3.816-3.1L9.666,72.7c-2.235,0-3.89,2.282-4.567,4.735H4.434C4.87,74.459,6.618,71.8,9.752,71.8c.824,0,1.929-.023,3.149-.023,3.41,0,4.585,4.007,4.585,4.007" transform="translate(-3 -48.553)" fill="#f5f5f5" fill-rule="evenodd"/>
          <path id="패스_60044" data-name="패스 60044" d="M4.966,77.344H4.145l.014-.093A9.18,9.18,0,0,1,4.737,75.1a6.742,6.742,0,0,1,1.086-1.819,4.934,4.934,0,0,1,1.6-1.26,4.839,4.839,0,0,1,2.127-.47c.371,0,.808,0,1.27-.01.566-.006,1.208-.013,1.879-.013a4.029,4.029,0,0,1,2.2.639,5.3,5.3,0,0,1,1.439,1.4,7.584,7.584,0,0,1,1.026,2.028l.03.1h-.93l-.021-.049a6.328,6.328,0,0,0-1.429-2.1,3.35,3.35,0,0,0-2.313-.956l-1.621.008-1.614.008a3.768,3.768,0,0,0-2.807,1.421,8.311,8.311,0,0,0-1.682,3.255Zm-.633-.162h.51a8.446,8.446,0,0,1,1.7-3.26,3.924,3.924,0,0,1,2.928-1.475l1.613-.008,1.622-.008a3.506,3.506,0,0,1,2.423,1,6.452,6.452,0,0,1,1.446,2.1h.6a7.55,7.55,0,0,0-.971-1.879,5.14,5.14,0,0,0-1.39-1.352,3.869,3.869,0,0,0-2.109-.612c-.67,0-1.311.007-1.877.013-.463,0-.9.01-1.272.01a4.678,4.678,0,0,0-2.057.454,4.774,4.774,0,0,0-1.553,1.22,6.582,6.582,0,0,0-1.06,1.776,8.975,8.975,0,0,0-.554,2.021Z" transform="translate(-2.804 -48.384)" fill="#1a1311"/>
          <path id="Path_60045" data-name="Path 60045" d="M17.651,79.515A6.419,6.419,0,1,1,13.4,77.038a6.42,6.42,0,0,1,4.247,2.477" transform="translate(-4.143 -52.076)" fill="#f5f5f5" fill-rule="evenodd"/>
          <path id="패스_60046" data-name="패스 60046" d="M12.2,76.482a6.581,6.581,0,1,1-6.406,5.109A6.644,6.644,0,0,1,12.2,76.482Zm.012,12.84A6.255,6.255,0,1,0,9.47,88.7a6.26,6.26,0,0,0,2.742.627Z" transform="translate(-3.803 -51.738)" fill="#1a1311"/>
          <path id="Path_60049" data-name="Path 60049" d="M205.254,79.807a6.416,6.416,0,1,1-4.247-2.476,6.419,6.419,0,0,1,4.247,2.476" transform="translate(-131.053 -52.276)" fill="#e85400" fill-rule="evenodd"/>
          <path id="패스_60050" data-name="패스 60050" d="M199.8,76.777a6.65,6.65,0,0,1,2.88.659,6.587,6.587,0,1,1-2.881-.66Zm.012,12.837a6.258,6.258,0,0,0,2.728-11.887,6.325,6.325,0,0,0-2.74-.627,6.258,6.258,0,0,0,.012,12.515Z" transform="translate(-130.713 -51.938)" fill="#1a1311"/>
          <path id="Path_60051" data-name="Path 60051" d="M209.116,87.845a3.436,3.436,0,1,1-2.274-1.326,3.438,3.438,0,0,1,2.274,1.326" transform="translate(-137.285 -58.507)" fill="#e85400" fill-rule="evenodd"/>
          <path id="패스_60052" data-name="패스 60052" d="M206.206,86.238a3.556,3.556,0,0,1,1.541.353,3.519,3.519,0,1,1-1.541-.353Zm.005,6.877a3.358,3.358,0,0,0,1.465-6.378,3.393,3.393,0,0,0-1.47-.337,3.358,3.358,0,1,0,.005,6.715Z" transform="translate(-137.115 -58.338)" fill="#1a1311"/>
          <path id="Path_60053" data-name="Path 60053" d="M246.86,79.807a6.416,6.416,0,1,1-4.247-2.476,6.419,6.419,0,0,1,4.247,2.476" transform="translate(-159.198 -52.276)" fill="#e85400" fill-rule="evenodd"/>
          <path id="패스_60054" data-name="패스 60054" d="M241.406,76.777a6.651,6.651,0,0,1,2.88.659,6.587,6.587,0,1,1-2.881-.66Zm.012,12.837a6.258,6.258,0,0,0,2.728-11.887,6.325,6.325,0,0,0-2.739-.627,6.258,6.258,0,0,0,.011,12.515Z" transform="translate(-158.859 -51.938)" fill="#1a1311"/>
          <path id="Path_60055" data-name="Path 60055" d="M250.722,87.845a3.436,3.436,0,1,1-2.274-1.326,3.438,3.438,0,0,1,2.274,1.326" transform="translate(-165.43 -58.507)" fill="#e85400" fill-rule="evenodd"/>
          <path id="패스_60056" data-name="패스 60056" d="M247.812,86.238a3.556,3.556,0,0,1,1.541.353,3.519,3.519,0,1,1-1.541-.353Zm.005,6.877a3.358,3.358,0,0,0,1.465-6.378,3.393,3.393,0,0,0-1.47-.337,3.357,3.357,0,1,0,.005,6.715Z" transform="translate(-165.26 -58.338)" fill="#1a1311"/>
          <path id="Path_60057" data-name="Path 60057" d="M68.895,77.978" transform="translate(-46.606 -52.75)" fill="#fff"/>
          <path id="패스_60058" data-name="패스 60058" fill="#1a1311"/>
          <line id="Line_358" data-name="Line 358" y1="6.164" transform="translate(6.85 7.045)" fill="#fff"/>
          <path id="선_359" data-name="선 359" d="M-.088,6.164H-.25V0h.162Z" transform="translate(7.019 7.045)" fill="#1a1311"/>
          <rect id="Rectangle_13906" data-name="Rectangle 13906" width="11.725" height="6.18" transform="translate(20.102 27.228)" fill="#f5f5f5"/>
          <path id="사각형_13907" data-name="사각형 13907" d="M-.25-.25H11.637V6.092H-.25Zm11.725.162H-.088V5.93H11.475Z" transform="translate(20.272 27.397)" fill="#1a1311"/>
          <rect id="Rectangle_13908" data-name="Rectangle 13908" width="0.936" height="6.701" transform="translate(28.53 27.227)" fill="#f5f5f5"/>
          <path id="사각형_13909" data-name="사각형 13909" d="M-.25-.25H.85V6.613H-.25Zm.936.162H-.088V6.451H.686Z" transform="translate(28.699 27.396)" fill="#1a1311"/>
          <rect id="Rectangle_13910" data-name="Rectangle 13910" width="0.936" height="6.701" transform="translate(22.807 27.227)" fill="#f5f5f5"/>
          <path id="사각형_13911" data-name="사각형 13911" d="M-.25-.25H.85V6.613H-.25Zm.936.162H-.088V6.451H.686Z" transform="translate(22.976 27.396)" fill="#1a1311"/>
          <line id="Line_360" data-name="Line 360" x2="9.763" transform="translate(2.523 13.191)" fill="#fff"/>
          <path id="선_361" data-name="선 361" d="M9.763-.088H0V-.25H9.763Z" transform="translate(2.523 13.36)" fill="#1a1311"/>
          <path id="패스_60059" data-name="패스 60059" d="M82.559,38a6.572,6.572,0,0,1-6.552-5.96H75.64a6.568,6.568,0,0,1-.735,2.466A6.582,6.582,0,0,1,69.1,38a6.572,6.572,0,0,1-6.552-5.96H61.223l-2.26-2.27h-.519v1.24H57.068V29.771H56.017v1.544H52.773V29.771h-.947V31H50.45V29.77H48.2l-2.184-1.29H41.838V32.1H31.99v1.47H29.628v.52h-1.26v-.52H23.905v.52h-1.26v-.52H20.177l-.445.52H16.044l-.333-.453v-.053a29.384,29.384,0,0,0-.149-3.023h-.626a6.582,6.582,0,0,1-9.41,6.685,6.518,6.518,0,0,1-2.363-1.934A6.606,6.606,0,0,1,2.28,33.74H.127V29.718H2.02a6.4,6.4,0,0,1,.214-.677H.613L0,28.06V17.389A21.085,21.085,0,0,1,1.573,11.81c.753-2.01,1.516-3.8,1.563-3.91a4.8,4.8,0,0,1,.549-1.052A2.173,2.173,0,0,1,5.425,5.76c1.73,0,14.685-.013,15.089-.014.023,0,.082-.007.165-.007a2.026,2.026,0,0,1,1.123.324A1.967,1.967,0,0,1,22.565,7.8V25.521h8.08V23.676h1.26v-1.24H25.238V3.607L25.535,0H28l2.15,8.4H92.471V9.669h1.951V22.7h1.771V35.722H94.825V29.771H93.414l-2.368,2.27H89.1a6.568,6.568,0,0,1-.735,2.466A6.579,6.579,0,0,1,82.559,38ZM75.34,31.718h.966l.011.15a6.251,6.251,0,0,0,3.5,5.181,6.315,6.315,0,0,0,2.738.627,6.243,6.243,0,0,0,6.231-5.809l.011-.15h2.116l2.368-2.27h1.864V35.4h.721V23.029H94.1V9.993H92.147V8.721H29.894l-2.15-8.4H25.833l-.272,3.3V22.113h6.667V24h-1.26v1.845H22.242V7.8a1.666,1.666,0,0,0-.623-1.474,1.7,1.7,0,0,0-.94-.268,1.32,1.32,0,0,0-.137.006h-.019c-.133,0-13.349.014-15.1.014-1.3,0-1.978,1.909-1.985,1.928v.011C3.4,8.094.324,15.3.324,17.389V27.967l.469.749h1.92l-.092.223a6.218,6.218,0,0,0-.316.976l-.029.125H.451v3.376H2.5l.039.1a6.289,6.289,0,0,0,.877,1.6,6.2,6.2,0,0,0,2.247,1.839,6.322,6.322,0,0,0,2.739.627,6.256,6.256,0,0,0,6.185-7.161l-.027-.185h1.288l.016.144a29.414,29.414,0,0,1,.167,3.149l.173.235h3.375l.445-.52h2.941v.52h.613v-.52h5.11v.52H29.3v-.52h2.362V31.773h9.849V28.157H46.1l2.184,1.29h2.485v1.23H51.5v-1.23h1.6v1.544h2.6V29.447h1.7v1.239h.729V29.447H59.1l2.26,2.27h1.489l.011.15a6.25,6.25,0,0,0,3.5,5.181,6.315,6.315,0,0,0,2.738.627,6.243,6.243,0,0,0,6.231-5.809Z" fill="#1a1311"/>
          <circle id="타원_26" data-name="타원 26" cx="3.52" cy="3.52" r="3.52" transform="translate(65.572 27.9)" fill="#a3a3a3"/>
          <circle id="타원_27" data-name="타원 27" cx="3.52" cy="3.52" r="3.52" transform="translate(79.033 27.9)" fill="#a3a3a3"/>
          <circle id="타원_130" data-name="타원 130" cx="3.52" cy="3.52" r="3.52" transform="translate(4.796 27.9)" fill="#a3a3a3"/>
        </g>
      </g>
    </g>
  </g>
</svg>
