<svg xmlns="http://www.w3.org/2000/svg" xmlns:xlink="http://www.w3.org/1999/xlink" width="130" height="38" viewBox="0 0 130 38">
  <defs>
    <clipPath id="clip-path">
      <rect id="Rectangle_13835" data-name="Rectangle 13835" width="130" height="38" transform="translate(765 1.222)" fill="#fff" stroke="#707070" stroke-width="1"/>
    </clipPath>
    <clipPath id="clip-path-2">
      <rect id="Rectangle_13834" data-name="Rectangle 13834" width="129.237" height="37.999" fill="none"/>
    </clipPath>
  </defs>
  <g id="Drive_-_Dump_-_Others_3_" data-name="Drive - Dump - Others(3)" transform="translate(-765 -1.222)" clip-path="url(#clip-path)">
    <g id="Group_12720" data-name="Group 12720" transform="translate(765 1.223)">
      <path id="패스_59365" data-name="패스 59365" d="M141.339,60.79h-.825v-.5h.326V54.379h-3.849v-.5h4.348Z" transform="translate(-73.647 -28.966)" fill="#1a1311"/>
      <path id="선_303" data-name="선 303" d="M8.739-.041H0v-.5H8.739Z" transform="translate(49.717 25.453)" fill="#1a1311"/>
      <g id="Group_12719" data-name="Group 12719">
        <g id="Group_12718" data-name="Group 12718" clip-path="url(#clip-path-2)">
          <path id="Path_59941" data-name="Path 59941" d="M210.548,66.522a6.5,6.5,0,1,0-6.5-6.5,6.5,6.5,0,0,0,6.5,6.5" transform="translate(-150.011 -28.772)" fill="#e85400"/>
          <path id="패스_59385" data-name="패스 59385" d="M213.354,66.912a4.088,4.088,0,1,1,4.089-4.088A4.088,4.088,0,0,1,213.354,66.912Zm0-6.845a2.757,2.757,0,1,0,2.758,2.757,2.757,2.757,0,0,0-2.758-2.757Z" transform="translate(-152.818 -31.576)" fill="#e85400"/>
          <path id="패스_59366" data-name="패스 59366" d="M36.481,38.313h-12.7l-.069-.138a22.1,22.1,0,0,0-3.38-4.95,14.423,14.423,0,0,0-1.716-1.638l-.017-.014a6.182,6.182,0,0,0-3.731-1.343,10.238,10.238,0,0,0-2.178.1h-.009a6.092,6.092,0,0,0-3.022,1.428,7.465,7.465,0,0,0-1.147,1.175l-.008.011-.01.011C6.917,34.669,6.387,38,6.381,38.03l-.033.211H2.511v-3.3H0v-3.66H1.362V21.607a14.433,14.433,0,0,1,1.245-5.041,9.223,9.223,0,0,1,1.017-1.751c.7-1.493,3.376-2.634,3.491-2.682l.046-.02H21.022l.072.067a2.318,2.318,0,0,1,.461,1.584V31.426H44.617v.5H21.056V13.781a2.56,2.56,0,0,0-.258-1.167H7.264c-.351.155-2.644,1.2-3.2,2.436l-.014.03-.021.026a8.632,8.632,0,0,0-.98,1.689,13.937,13.937,0,0,0-1.191,4.839V31.78H.5v2.659H3.01v3.3H5.925a15.615,15.615,0,0,1,.442-1.756,8.92,8.92,0,0,1,1.755-3.362,7.917,7.917,0,0,1,1.211-1.244,6.742,6.742,0,0,1,3.278-1.547,10.577,10.577,0,0,1,2.28-.1,8.454,8.454,0,0,1,2.061.366,5.373,5.373,0,0,1,1.979,1.1A14.9,14.9,0,0,1,20.7,32.888a22.6,22.6,0,0,1,3.388,4.925H36.235l2.295-2.989.4.3Z" transform="translate(0 -6.513)" fill="#1a1311"/>
          <path id="패스_59367" data-name="패스 59367" d="M47.319,61.411v-.166l16.631-.026h3.208v.166H63.95Z" transform="translate(-25.439 -32.911)" fill="#1a1311"/>
          <path id="패스_59368" data-name="패스 59368" d="M161.366,23.879H68.309V9.289h.5V23.38h92.059V9.044H117.74v-.5h43.626Z" transform="translate(-36.723 -4.594)" fill="#1a1311"/>
          <path id="선_304" data-name="선 304" d="M40.785-.041H0v-.5H40.785Z" transform="translate(34.784 4.491)" fill="#1a1311"/>
          <path id="사각형_13662" data-name="사각형 13662" d="M-.54-.54H4.651V19.2H-.54Zm4.691.5H-.041V18.7H4.151Z" transform="translate(124.587 0.564)" fill="#1a1311"/>
          <path id="사각형_13663" data-name="사각형 13663" d="M-.54-.54H5.226v5.1H-.54Zm5.266.5H-.041v4.1H4.726Z" transform="translate(75.963 1.714)" fill="#1a1311"/>
          <path id="패스_59369" data-name="패스 59369" d="M129.85,53.842h-3.37V47.525h-7.158l-11.458-1.7L106.591,47.1v5.029h-2.319V46.958l-.95-1.73H65.413V40.421H67v.5H65.912v3.807h37.706l1.153,2.1v4.79h1.32V46.883l1.6-1.6,11.688,1.739h7.6v6.317h2.371V47.026h3.982v.5H129.85Z" transform="translate(-35.166 -21.731)" fill="#1a1311"/>
          <path id="패스_59370" data-name="패스 59370" d="M230.438,61.34h-3.23V55.12h-3.937v-.166h4.1v6.221h2.9V54.857h4.391v.166h-4.225Z" transform="translate(-120.031 -29.492)" fill="#1a1311"/>
          <path id="패스_59371" data-name="패스 59371" d="M264.29,52.289h-1.373l-.025-.037-2.846-4.269h-2.828v-.166h2.917l.025.037,2.846,4.269h1.117V44.688l-2.3-1.627V41.582h.166v1.393l2.3,1.627Z" transform="translate(-138.282 -22.355)" fill="#1a1311"/>
          <path id="패스_59372" data-name="패스 59372" d="M152.12,47.749h-.166V44.674h-4.045v2.4h-.166V44.508h4.377Z" transform="translate(-79.427 -23.927)" fill="#1a1311"/>
          <path id="Path_60209" data-name="Path 60209" d="M245.2,66.522a6.5,6.5,0,1,0-6.5-6.5,6.5,6.5,0,0,0,6.5,6.5" transform="translate(-144.346 -28.772)" fill="#f5f5f5"/>
          <path id="패스_59373" data-name="패스 59373" d="M245.269,48.446,240.5,45.015H222.262V41.582h.166v3.266h18.13l4.808,3.462Z" transform="translate(-119.49 -22.355)" fill="#1a1311"/>
          <path id="패스_59374" data-name="패스 59374" d="M76.545,19.008,66.545.167H63.858L73.464,18.9l-.148.076L63.586,0h3.059L76.692,18.93Z" transform="translate(-34.184)" fill="#1a1311"/>
          <path id="선_305" data-name="선 305" d="M88.156-.014H0V-.18H88.156Z" transform="translate(36.237 7.263)" fill="#1a1311"/>
          <path id="선_306" data-name="선 306" d="M-.014,11.484H-.18V0h.166Z" transform="translate(45.236 7.263)" fill="#1a1311"/>
          <path id="선_307" data-name="선 307" d="M-.014,11.484H-.18V0h.166Z" transform="translate(48.108 7.263)" fill="#1a1311"/>
          <path id="선_308" data-name="선 308" d="M-.014,11.484H-.18V0h.166Z" transform="translate(52.893 7.263)" fill="#1a1311"/>
          <path id="선_309" data-name="선 309" d="M-.014,11.484H-.18V0h.166Z" transform="translate(55.764 7.263)" fill="#1a1311"/>
          <path id="선_310" data-name="선 310" d="M-.014,11.484H-.18V0h.166Z" transform="translate(60.55 7.263)" fill="#1a1311"/>
          <path id="선_311" data-name="선 311" d="M-.014,11.484H-.18V0h.166Z" transform="translate(63.424 7.263)" fill="#1a1311"/>
          <path id="선_312" data-name="선 312" d="M-.014,11.484H-.18V0h.166Z" transform="translate(68.209 7.263)" fill="#1a1311"/>
          <path id="선_313" data-name="선 313" d="M-.014,11.484H-.18V0h.166Z" transform="translate(71.08 7.263)" fill="#1a1311"/>
          <path id="선_314" data-name="선 314" d="M-.014,11.484H-.18V0h.166Z" transform="translate(75.866 7.263)" fill="#1a1311"/>
          <path id="선_315" data-name="선 315" d="M-.014,11.484H-.18V0h.166Z" transform="translate(78.737 7.263)" fill="#1a1311"/>
          <path id="선_316" data-name="선 316" d="M-.014,11.484H-.18V0h.166Z" transform="translate(83.522 7.263)" fill="#1a1311"/>
          <path id="선_317" data-name="선 317" d="M-.014,11.484H-.18V0h.166Z" transform="translate(86.394 7.263)" fill="#1a1311"/>
          <path id="선_318" data-name="선 318" d="M-.014,11.484H-.18V0h.166Z" transform="translate(91.18 7.263)" fill="#1a1311"/>
          <path id="선_319" data-name="선 319" d="M-.014,11.484H-.18V0h.166Z" transform="translate(94.053 7.263)" fill="#1a1311"/>
          <path id="선_320" data-name="선 320" d="M-.014,11.484H-.18V0h.166Z" transform="translate(98.838 7.263)" fill="#1a1311"/>
          <path id="선_321" data-name="선 321" d="M-.014,11.484H-.18V0h.166Z" transform="translate(101.709 7.263)" fill="#1a1311"/>
          <path id="선_322" data-name="선 322" d="M-.014,11.484H-.18V0h.166Z" transform="translate(106.495 7.263)" fill="#1a1311"/>
          <path id="선_323" data-name="선 323" d="M-.014,11.484H-.18V0h.166Z" transform="translate(109.366 7.263)" fill="#1a1311"/>
          <path id="선_324" data-name="선 324" d="M-.014,11.484H-.18V0h.166Z" transform="translate(114.151 7.263)" fill="#1a1311"/>
          <path id="선_325" data-name="선 325" d="M-.014,11.484H-.18V0h.166Z" transform="translate(117.023 7.263)" fill="#1a1311"/>
          <path id="선_326" data-name="선 326" d="M-.014,6.1H-.18V0h.166Z" transform="translate(36.197 12.952)" fill="#1a1311"/>
          <path id="패스_59375" data-name="패스 59375" d="M3.843,25.868l-.111-.124c1.168-1.047,1.814-3.352,2.15-5.1a29.375,29.375,0,0,0,.454-3.6l.166.008a29.552,29.552,0,0,1-.456,3.618,17.272,17.272,0,0,1-.8,2.928,5.859,5.859,0,0,1-1.4,2.27Z" transform="translate(-2.006 -9.164)" fill="#1a1311"/>
          <path id="선_327" data-name="선 327" d="M16.99-.014H0V-.18H16.99Z" transform="translate(4.269 9.561)" fill="#1a1311"/>
          <path id="패스_59376" data-name="패스 59376" d="M23.451,26.186H9.666V26.1a10.237,10.237,0,0,1,1.086-4.02,11.844,11.844,0,0,1,1.014-1.721l.133.1a11.679,11.679,0,0,0-1,1.7,10.14,10.14,0,0,0-1.06,3.861H23.284V20.433h.166Z" transform="translate(-5.197 -10.945)" fill="#1a1311"/>
          <path id="선_328" data-name="선 328" d="M-.014,5.7H-.18V0h.166Z" transform="translate(10.419 9.488)" fill="#1a1311"/>
          <path id="선_329" data-name="선 329" d="M-.014,5.7H-.18V0h.166Z" transform="translate(11.878 9.488)" fill="#1a1311"/>
          <path id="선_330" data-name="선 330" d="M-.014,9.117H-.18V0h.166Z" transform="translate(18.293 15.183)" fill="#1a1311"/>
          <path id="패스_59377" data-name="패스 59377" d="M5.856,45.473H5.69V44.155L6,44.107V32.214h.166V44.25l-.31.048Z" transform="translate(-3.059 -17.318)" fill="#1a1311"/>
          <path id="선_331" data-name="선 331" d="M7.634-.014H0V-.18H7.634Z" transform="translate(1.66 25.138)" fill="#1a1311"/>
          <path id="선_332" data-name="선 332" d="M4.02-.014H0V-.18H4.02Z" transform="translate(2.786 28.298)" fill="#1a1311"/>
          <path id="Path_59940" data-name="Path 59940" d="M23.347,66.522a6.5,6.5,0,1,0-6.5-6.5,6.5,6.5,0,0,0,6.5,6.5" transform="translate(23.822 -28.772)" fill="#e85400"/>
          <path id="패스_59379" data-name="패스 59379" d="M23.056,66.481A6.752,6.752,0,1,1,27.831,64.5,6.752,6.752,0,0,1,23.056,66.481Zm0-13a6.251,6.251,0,1,0,4.421,1.83,6.251,6.251,0,0,0-4.421-1.83Z" transform="translate(-8.765 -28.482)" fill="#1a1311"/>
          <path id="패스_59380" data-name="패스 59380" d="M26.155,66.912a4.088,4.088,0,1,1,4.089-4.088A4.088,4.088,0,0,1,26.155,66.912Zm0-6.845a2.757,2.757,0,1,0,2.758,2.757,2.757,2.757,0,0,0-2.758-2.757Z" transform="translate(21.014 -31.576)" fill="#e85400"/>
          <path id="패스_59381" data-name="패스 59381" d="M94.158,66.481A6.752,6.752,0,1,1,98.932,64.5a6.752,6.752,0,0,1-4.774,1.981Zm0-13a6.251,6.251,0,1,0,4.421,1.83,6.251,6.251,0,0,0-4.421-1.83Z" transform="translate(-46.99 -28.482)" fill="#1a1311"/>
          <path id="패스_59382" data-name="패스 59382" d="M123.408,66.481a6.752,6.752,0,1,1,4.774-1.977,6.752,6.752,0,0,1-4.774,1.977Zm0-13a6.251,6.251,0,1,0,4.421,1.83,6.251,6.251,0,0,0-4.421-1.83Z" transform="translate(-62.715 -28.482)" fill="#1a1311"/>
          <path id="타원_160" data-name="타원 160" d="M3.326-.18A3.506,3.506,0,1,1-.18,3.326,3.506,3.506,0,0,1,3.326-.18Zm0,6.845A3.339,3.339,0,1,0-.014,3.326,3.339,3.339,0,0,0,3.326,6.665Z" transform="translate(57.367 27.921)" fill="#1a1311"/>
          <path id="패스_59384" data-name="패스 59384" d="M210.257,66.481a6.753,6.753,0,1,1,4.774-1.977A6.753,6.753,0,0,1,210.257,66.481Zm0-13a6.252,6.252,0,1,0,4.421,1.83,6.252,6.252,0,0,0-4.421-1.83Z" transform="translate(-109.405 -28.482)" fill="#1a1311"/>
          <path id="Path_59942" data-name="Path 59942" d="M245.2,66.522a6.5,6.5,0,1,0-6.5-6.5,6.5,6.5,0,0,0,6.5,6.5" transform="translate(-128.324 -28.772)" fill="#f5f5f5"/>
          <path id="패스_59387" data-name="패스 59387" d="M244.908,66.481a6.752,6.752,0,1,1,4.774-1.977A6.752,6.752,0,0,1,244.908,66.481Zm0-13a6.251,6.251,0,1,0,4.421,1.83,6.251,6.251,0,0,0-4.421-1.83Z" transform="translate(-128.034 -28.482)" fill="#1a1311"/>
          <circle id="타원_12" data-name="타원 12" cx="3.505" cy="3.505" r="3.505" transform="translate(43.665 27.741)" fill="#a3a3a3"/>
          <circle id="타원_13" data-name="타원 13" cx="3.505" cy="3.505" r="3.505" transform="translate(57.187 27.742)" fill="#a3a3a3"/>
          <circle id="타원_114" data-name="타원 114" cx="3.505" cy="3.505" r="3.505" transform="translate(10.783 27.741)" fill="#a3a3a3"/>
          <circle id="타원_115" data-name="타원 115" cx="3.505" cy="3.505" r="3.505" transform="translate(97.347 27.742)" fill="#a3a3a3"/>
          <circle id="타원_116" data-name="타원 116" cx="3.505" cy="3.505" r="3.505" transform="translate(113.338 27.742)" fill="#a3a3a3"/>
        </g>
      </g>
    </g>
  </g>
</svg>
