<svg xmlns="http://www.w3.org/2000/svg" xmlns:xlink="http://www.w3.org/1999/xlink" width="125" height="38" viewBox="0 0 125 38">
  <defs>
    <clipPath id="clip-path">
      <rect id="Rectangle_13767" data-name="Rectangle 13767" width="125" height="38" transform="translate(765 1.222)" fill="#fff" stroke="#707070" stroke-width="1"/>
    </clipPath>
    <clipPath id="clip-path-2">
      <rect id="Rectangle_13814" data-name="Rectangle 13814" width="125.064" height="38" fill="none"/>
    </clipPath>
  </defs>
  <g id="Drive_-_Tractor_Trailer_-_Others_3_" data-name="Drive - Tractor/Trailer - Others(3)" transform="translate(-765 -1.222)" clip-path="url(#clip-path)">
    <g id="Group_12705" data-name="Group 12705" transform="translate(765 1.222)">
      <rect id="Rectangle_13776" data-name="Rectangle 13776" width="99.427" height="6.553" transform="translate(25.219 10.581)" fill="#a6a7a7"/>
      <path id="패스_59833" data-name="패스 59833" d="M381.784,106.153h-1.4v-1.116l-1.276-1.481h-29.4v-.181h29.478l1.374,1.6v1h1.04v-5.157h.181Z" transform="translate(-259.249 -74.736)" fill="#1a1311"/>
      <g id="Group_12704" data-name="Group 12704">
        <g id="Group_12703" data-name="Group 12703" clip-path="url(#clip-path-2)">
          <path id="패스_59834" data-name="패스 59834" d="M24.914,0h100.15V26.153H54.113v1.812H57.9v2.817l-1.654.725H31.041l-.477,1.008h-8.7c-.854.544-1.827,1.158-1.837,1.164l-.1.065-2-1.424v-.093a9.571,9.571,0,0,0-.367-2.758,5.718,5.718,0,0,0-.8-1.678,3.429,3.429,0,0,0-1.131-1.054H11.154a3.027,3.027,0,0,0-2.023.784,5.723,5.723,0,0,0-1.308,1.767,10.792,10.792,0,0,0-.891,2.6l-.027.149H0V29.683a.86.86,0,0,1,.431-.764A1.216,1.216,0,0,1,.689,28.8V20.846l1.589-7.365a2.252,2.252,0,0,1,1.111-1.668,2.045,2.045,0,0,1,.866-.254h12.2a1.185,1.185,0,0,1,1.055.748,2.685,2.685,0,0,1,.233.688,21.58,21.58,0,0,1,.711,3.478c.163,1.182.3,2.563.42,4.106.172,2.289.236,4.265.249,4.747a3.041,3.041,0,0,1,1.184,1.844h4.606ZM124.7.362H25.276V27.531H20.018l-.03-.144c0-.014-.31-1.447-1.111-1.778l-.109-.045v-.118c0-.022-.055-2.227-.252-4.842a36.793,36.793,0,0,0-1.118-7.51v-.027c0-.011-.2-1.147-.934-1.147H4.265a1.719,1.719,0,0,0-.711.217,1.907,1.907,0,0,0-.916,1.41v.006L1.051,20.9v8.2L.9,29.12a.865.865,0,0,0-.286.113.5.5,0,0,0-.25.45v1.992H6.606a11.115,11.115,0,0,1,.894-2.55,6.078,6.078,0,0,1,1.394-1.878,3.379,3.379,0,0,1,2.26-.873H15.7l.035.015a3.55,3.55,0,0,1,1.294,1.167,6.045,6.045,0,0,1,.865,1.787,9.824,9.824,0,0,1,.389,2.79l1.655,1.175c.279-.176,1.075-.679,1.778-1.127l.045-.028H30.34l.477-1.008H56.173l1.368-.6V28.327h-3.79V25.791H124.7Z" fill="#1a1311"/>
          <path id="Path_59835" data-name="Path 59835" d="M12.585,53.888h7.1s.53.053.53,1.378V65.338" transform="translate(-9.33 -39.948)" fill="none"/>
          <path id="패스_59836" data-name="패스 59836" d="M20.4,64.819h-.362V54.747c0-1.021-.319-1.179-.37-1.2H12.585v-.362h7.121c.071.007.693.111.693,1.558Z" transform="translate(-9.33 -39.429)" fill="#1a1311"/>
          <path id="패스_59837" data-name="패스 59837" d="M21.843,104.263l-.18-.021a11.5,11.5,0,0,1,.956-3.209,6.47,6.47,0,0,1,1.648-2.217,4.332,4.332,0,0,1,2.84-1.015h7.9v.181h-7.9a4.155,4.155,0,0,0-2.724.973,6.292,6.292,0,0,0-1.6,2.156,11.294,11.294,0,0,0-.94,3.152Z" transform="translate(-16.059 -72.503)" fill="#1a1311"/>
          <line id="Line_323" data-name="Line 323" x1="17.758" transform="translate(0.87 21.255)" fill="#fff"/>
          <path id="선_324" data-name="선 324" d="M17.758-.338H0V-.7H17.758Z" transform="translate(0.87 21.774)" fill="#1a1311"/>
          <path id="패스_59838" data-name="패스 59838" d="M3.86,90.192H1.93V89.83H3.5V82.166h.36Z" transform="translate(-1.431 -60.911)" fill="#1a1311"/>
          <path id="패스_59839" data-name="패스 59839" d="M6.151,112.608H5.97v-3.354H3.57v-.181H9.452v.181l-3.3.052Z" transform="translate(-2.645 -80.858)" fill="#1a1311"/>
          <path id="패스_59840" data-name="패스 59840" d="M3.757,57.306l-.018-.18c.39-.039.912-.878,1.089-1.214L5.88,50.656l-.637-1.217H20.287v.181H5.541l.528,1.009L5,55.973l-.006.011a5.673,5.673,0,0,1-.391.628C4.289,57.048,4,57.282,3.757,57.306Z" transform="translate(-2.772 -36.65)" fill="#1a1311"/>
          <path id="Path_59841" data-name="Path 59841" d="M18.09,62.558a.6.6,0,0,0,.6-.6V58.177a.6.6,0,0,0-.6-.6H13.055a.6.6,0,0,0-.6.6l-.689,3.781a.6.6,0,0,0,.6.6Z" transform="translate(-8.722 -42.682)" fill="#a6a7a7"/>
          <path id="패스_59842" data-name="패스 59842" d="M17.831,62.39H12.107a.692.692,0,0,1-.692-.691V61.69l.689-3.782a.693.693,0,0,1,.692-.684h5.035a.693.693,0,0,1,.692.692V61.7a.692.692,0,0,1-.692.69ZM11.6,61.706a.511.511,0,0,0,.511.5h5.724a.511.511,0,0,0,.511-.51V57.917a.511.511,0,0,0-.511-.511H12.8a.512.512,0,0,0-.511.511v.008Z" transform="translate(-8.462 -42.422)" fill="#1a1311"/>
          <path id="Path_59843" data-name="Path 59843" d="M45.852,62.7h4.736c.6,0,.533-.689.533-.689l-.427-3.428a.676.676,0,0,0-.742-.6H46.011a.7.7,0,0,0-.706.689v3.446s0,.582.547.582" transform="translate(-33.586 -42.979)" fill="#a6a7a7"/>
          <path id="패스_59844" data-name="패스 59844" d="M50.329,62.528H45.593a.578.578,0,0,1-.561-.343.856.856,0,0,1-.077-.33V58.408a.708.708,0,0,1,.4-.677,1.024,1.024,0,0,1,.391-.1H49.74a.754.754,0,0,1,.78.68h0l.427,3.43a.873.873,0,0,1-.174.607.578.578,0,0,1-.444.18ZM45.753,57.81a.609.609,0,0,0-.617.6v3.446a.679.679,0,0,0,.062.257.4.4,0,0,0,.4.234h4.736a.4.4,0,0,0,.314-.121.7.7,0,0,0,.128-.468l-.426-3.424a.574.574,0,0,0-.6-.525H45.753Z" transform="translate(-33.326 -42.72)" fill="#1a1311"/>
          <line id="Line_325" data-name="Line 325" x2="8.64" transform="translate(2.248 24.806)" fill="#fff"/>
          <path id="선_326" data-name="선 326" d="M8.64-.338H0V-.7H8.64Z" transform="translate(2.248 25.325)" fill="#1a1311"/>
          <path id="패스_59845" data-name="패스 59845" d="M2.458,125.25a.7.7,0,0,1-.671-.548v-1.345h.181v1.314a.517.517,0,0,0,.493.4A.594.594,0,0,0,3,124.718v-1.361h.181v1.4l-.006.015a.776.776,0,0,1-.717.478Z" transform="translate(-1.323 -91.447)" fill="#1a1311"/>
          <path id="선_327" data-name="선 327" d="M28.837-.169H0V-.35H28.837Z" transform="translate(25.042 26.232)" fill="#1a1311"/>
          <path id="패스_59846" data-name="패스 59846" d="M73.747,55.582H71.5V55.22h1.886V53.646l-.684-.421L72.169,42.1a.543.543,0,0,0-.394-.257.779.779,0,0,0-.515.261l.526,10.676a.849.849,0,0,1-.11.694.384.384,0,0,1-.283.142v-.362h-.014c.024-.005.1-.093.047-.426v-.01l-.534-10.841.044-.054a1.2,1.2,0,0,1,.853-.443.91.91,0,0,1,.708.455l.029.042.528,11.035.693.427Z" transform="translate(-52.553 -30.753)" fill="#1a1311"/>
          <path id="선_328" data-name="선 328" d="M-.169,25.686H-.35V0h.181Z" transform="translate(26.496 0.234)" fill="#1a1311"/>
          <path id="선_329" data-name="선 329" d="M97.321-.169H0V-.35H97.321Z" transform="translate(26.236 1.819)" fill="#1a1311"/>
          <path id="선_330" data-name="선 330" d="M-.169,25.686H-.35V0h.181Z" transform="translate(123.816 0.234)" fill="#1a1311"/>
          <path id="사각형_13777" data-name="사각형 13777" d="M-.7-.7H1.411V6.5H-.7Zm1.749.362H-.338V6.139H1.049Z" transform="translate(60.176 26.491)" fill="#1a1311"/>
          <path id="Path_59847" data-name="Path 59847" d="M229.572,129.361a1.724,1.724,0,1,0-1.724-1.723,1.724,1.724,0,0,0,1.724,1.723" transform="translate(-168.908 -93.343)" fill="#f5f5f5"/>
          <path id="패스_59848" data-name="패스 59848" d="M229.053,129.024a1.9,1.9,0,1,1,1.9-1.9,1.9,1.9,0,0,1-1.9,1.9Zm0-3.447a1.543,1.543,0,1,0,1.543,1.543,1.543,1.543,0,0,0-1.543-1.543Z" transform="translate(-168.389 -92.824)" fill="#1a1311"/>
          <path id="사각형_13778" data-name="사각형 13778" d="M-.07-.07H24.093v2H-.07Zm24.127.036H-.034V1.892H24.057Z" transform="translate(65.38 26.024)" fill="#1a1311"/>
          <path id="사각형_13779" data-name="사각형 13779" d="M-.07-.07H24.093v2H-.07Zm24.127.036H-.034V1.891H24.057Z" transform="translate(65.38 28.993)" fill="#1a1311"/>
          <path id="Path_59849" data-name="Path 59849" d="M248.586,100.4v5.937h26.159v-5.885" transform="translate(-184.282 -74.432)" fill="#f5f5f5"/>
          <path id="패스_59850" data-name="패스 59850" d="M274.407,106.523H247.886V100.4h.362v5.756h25.8v-5.7h.362Z" transform="translate(-183.763 -74.432)" fill="#1a1311"/>
          <path id="Path_59851" data-name="Path 59851" d="M354.01,105.246a6.12,6.12,0,0,1,6.1-4.639,6.288,6.288,0,0,1,6.2,4.612h-1.432a5.268,5.268,0,0,0-9.541.026Z" transform="translate(-262.435 -74.582)" fill="#f5f5f5"/>
          <path id="패스_59852" data-name="패스 59852" d="M355.074,105.077h-1.5l.024-.11a6.558,6.558,0,0,1,1.157-2.355,5.862,5.862,0,0,1,1.886-1.619,6.57,6.57,0,0,1,3.142-.736,6.7,6.7,0,0,1,3.158.731,6.05,6.05,0,0,1,1.922,1.609,6.674,6.674,0,0,1,1.21,2.341l.027.112h-1.6l-.023-.055a5.275,5.275,0,0,0-1.059-1.486,5.054,5.054,0,0,0-1.449-1.017,5.351,5.351,0,0,0-4.362.006,5.058,5.058,0,0,0-1.45,1.029,5.3,5.3,0,0,0-1.054,1.495ZM353.8,104.9h1.15a5.548,5.548,0,0,1,1.068-1.5,5.238,5.238,0,0,1,1.5-1.066,5.532,5.532,0,0,1,4.519,0,5.238,5.238,0,0,1,1.5,1.056,5.5,5.5,0,0,1,1.068,1.484h1.254a6.786,6.786,0,0,0-1.149-2.165,5.868,5.868,0,0,0-1.864-1.558,6.521,6.521,0,0,0-3.069-.708,6.393,6.393,0,0,0-3.053.712,5.681,5.681,0,0,0-1.828,1.566A6.653,6.653,0,0,0,353.8,104.9Z" transform="translate(-262.113 -74.323)" fill="#1a1311"/>
          <path id="Path_59853" data-name="Path 59853" d="M409.477,105.246a6.118,6.118,0,0,1,6.1-4.639,6.287,6.287,0,0,1,6.2,4.612h-1.432a5.267,5.267,0,0,0-9.541.026Z" transform="translate(-303.554 -74.582)" fill="#f5f5f5"/>
          <path id="패스_59854" data-name="패스 59854" d="M410.541,105.077h-1.5l.024-.11a6.553,6.553,0,0,1,1.156-2.355,5.86,5.86,0,0,1,1.886-1.619,6.569,6.569,0,0,1,3.142-.736,6.7,6.7,0,0,1,3.158.731,6.049,6.049,0,0,1,1.922,1.609,6.672,6.672,0,0,1,1.21,2.341l.027.112h-1.607l-.023-.055a5.271,5.271,0,0,0-1.059-1.486,5.055,5.055,0,0,0-1.449-1.017,5.351,5.351,0,0,0-4.362.006,5.058,5.058,0,0,0-1.45,1.029,5.3,5.3,0,0,0-1.054,1.5Zm-1.27-.181h1.15a5.55,5.55,0,0,1,1.068-1.5,5.237,5.237,0,0,1,1.5-1.066,5.532,5.532,0,0,1,4.519,0,5.237,5.237,0,0,1,1.5,1.056,5.5,5.5,0,0,1,1.068,1.484h1.254a6.785,6.785,0,0,0-1.149-2.165,5.867,5.867,0,0,0-1.864-1.558,6.522,6.522,0,0,0-3.07-.708,6.39,6.39,0,0,0-3.056.714,5.68,5.68,0,0,0-1.828,1.57,6.642,6.642,0,0,0-1.091,2.177Z" transform="translate(-303.232 -74.323)" fill="#1a1311"/>
          <rect id="Rectangle_13780" data-name="Rectangle 13780" width="7.156" height="3.498" transform="translate(21.755 28.729)" fill="none"/>
          <path id="사각형_13781" data-name="사각형 13781" d="M-.7-.7H6.818V3.16H-.7Zm7.156.362H-.338V2.8H6.456Z" transform="translate(22.274 29.248)" fill="#1a1311"/>
          <path id="선_331" data-name="선 331" d="M1.219-.169H0V-.35H1.219Z" transform="translate(18.575 12.079)" fill="#1a1311"/>
          <rect id="Rectangle_13782" data-name="Rectangle 13782" width="0.848" height="5.726" transform="translate(31.368 20.254)" fill="#a6a7a7"/>
          <path id="사각형_13783" data-name="사각형 13783" d="M-.35-.35H.679V5.557H-.35ZM.5-.169H-.169V5.376H.5Z" transform="translate(31.627 20.513)" fill="#1a1311"/>
          <rect id="Rectangle_13784" data-name="Rectangle 13784" width="0.848" height="5.726" transform="translate(37.304 20.254)" fill="#a6a7a7"/>
          <path id="사각형_13785" data-name="사각형 13785" d="M-.35-.35H.679V5.557H-.35ZM.5-.169H-.169V5.376H.5Z" transform="translate(37.564 20.513)" fill="#1a1311"/>
          <rect id="Rectangle_13786" data-name="Rectangle 13786" width="0.847" height="5.726" transform="translate(43.383 20.254)" fill="#a6a7a7"/>
          <path id="사각형_13787" data-name="사각형 13787" d="M-.35-.35H.679V5.557H-.35ZM.5-.169H-.169V5.376H.5Z" transform="translate(43.643 20.513)" fill="#1a1311"/>
          <rect id="Rectangle_13788" data-name="Rectangle 13788" width="0.848" height="5.726" transform="translate(49.32 20.254)" fill="#a6a7a7"/>
          <path id="사각형_13789" data-name="사각형 13789" d="M-.35-.35H.679V5.557H-.35ZM.5-.169H-.169V5.376H.5Z" transform="translate(49.58 20.513)" fill="#1a1311"/>
          <rect id="Rectangle_13790" data-name="Rectangle 13790" width="0.847" height="5.726" transform="translate(55.257 20.254)" fill="#a6a7a7"/>
          <path id="사각형_13791" data-name="사각형 13791" d="M-.35-.35H.679V5.557H-.35ZM.5-.169H-.169V5.376H.5Z" transform="translate(55.517 20.513)" fill="#1a1311"/>
          <rect id="Rectangle_13792" data-name="Rectangle 13792" width="0.849" height="5.726" transform="translate(61.194 20.254)" fill="#a6a7a7"/>
          <path id="사각형_13793" data-name="사각형 13793" d="M-.35-.35H.68V5.557H-.35ZM.5-.169H-.169V5.376H.5Z" transform="translate(61.453 20.513)" fill="#1a1311"/>
          <rect id="Rectangle_13794" data-name="Rectangle 13794" width="0.849" height="5.726" transform="translate(67.131 20.254)" fill="#a6a7a7"/>
          <path id="사각형_13795" data-name="사각형 13795" d="M-.35-.35H.68V5.557H-.35ZM.5-.169H-.169V5.376H.5Z" transform="translate(67.39 20.513)" fill="#1a1311"/>
          <rect id="Rectangle_13796" data-name="Rectangle 13796" width="0.849" height="5.726" transform="translate(73.067 20.254)" fill="#a6a7a7"/>
          <path id="사각형_13797" data-name="사각형 13797" d="M-.35-.35H.68V5.557H-.35ZM.5-.169H-.169V5.376H.5Z" transform="translate(73.326 20.513)" fill="#1a1311"/>
          <rect id="Rectangle_13798" data-name="Rectangle 13798" width="0.848" height="5.726" transform="translate(79.005 20.254)" fill="#a6a7a7"/>
          <path id="사각형_13799" data-name="사각형 13799" d="M-.35-.35H.679V5.557H-.35ZM.5-.169H-.169V5.376H.5Z" transform="translate(79.264 20.513)" fill="#1a1311"/>
          <rect id="Rectangle_13800" data-name="Rectangle 13800" width="0.848" height="5.726" transform="translate(84.942 20.254)" fill="#a6a7a7"/>
          <path id="사각형_13801" data-name="사각형 13801" d="M-.35-.35H.68V5.557H-.35ZM.5-.169H-.169V5.376H.5Z" transform="translate(85.201 20.513)" fill="#1a1311"/>
          <rect id="Rectangle_13802" data-name="Rectangle 13802" width="0.848" height="5.726" transform="translate(90.834 20.254)" fill="#a6a7a7"/>
          <path id="사각형_13803" data-name="사각형 13803" d="M-.35-.35H.68V5.557H-.35ZM.5-.169H-.169V5.376H.5Z" transform="translate(91.093 20.513)" fill="#1a1311"/>
          <rect id="Rectangle_13804" data-name="Rectangle 13804" width="0.848" height="5.726" transform="translate(96.771 20.254)" fill="#a6a7a7"/>
          <path id="사각형_13805" data-name="사각형 13805" d="M-.35-.35H.679V5.557H-.35ZM.5-.169H-.169V5.376H.5Z" transform="translate(97.031 20.513)" fill="#1a1311"/>
          <rect id="Rectangle_13806" data-name="Rectangle 13806" width="0.848" height="5.726" transform="translate(102.708 20.254)" fill="#a6a7a7"/>
          <path id="사각형_13807" data-name="사각형 13807" d="M-.35-.35H.679V5.557H-.35ZM.5-.169H-.169V5.376H.5Z" transform="translate(102.967 20.513)" fill="#1a1311"/>
          <rect id="Rectangle_13808" data-name="Rectangle 13808" width="0.848" height="5.726" transform="translate(108.433 20.254)" fill="#a6a7a7"/>
          <path id="사각형_13809" data-name="사각형 13809" d="M-.35-.35H.679V5.557H-.35ZM.5-.169H-.169V5.376H.5Z" transform="translate(108.692 20.513)" fill="#1a1311"/>
          <rect id="Rectangle_13810" data-name="Rectangle 13810" width="0.847" height="5.726" transform="translate(114.158 20.254)" fill="#a6a7a7"/>
          <path id="사각형_13811" data-name="사각형 13811" d="M-.35-.35H.678V5.557H-.35ZM.5-.169H-.169V5.376H.5Z" transform="translate(114.418 20.513)" fill="#1a1311"/>
          <rect id="Rectangle_13812" data-name="Rectangle 13812" width="0.848" height="5.726" transform="translate(119.953 20.254)" fill="#a6a7a7"/>
          <path id="사각형_13813" data-name="사각형 13813" d="M-.35-.35H.68V5.557H-.35ZM.5-.169H-.169V5.376H.5Z" transform="translate(120.212 20.513)" fill="#1a1311"/>
          <path id="Path_59855" data-name="Path 59855" d="M34.564,118.531a4.793,4.793,0,1,0-4.793-4.793,4.793,4.793,0,0,0,4.793,4.793" transform="translate(-22.07 -80.762)" fill="#fff"/>
          <path id="패스_59856" data-name="패스 59856" d="M34.045,118.193a4.958,4.958,0,1,1,1.936-.391,4.958,4.958,0,0,1-1.936.391Zm0-9.587a4.612,4.612,0,1,0,3.261,1.351A4.612,4.612,0,0,0,34.045,108.606Z" transform="translate(-21.551 -80.243)" fill="#1a1311"/>
          <path id="Path_59857" data-name="Path 59857" d="M41.069,122.768a2.523,2.523,0,1,0-2.523-2.524,2.523,2.523,0,0,0,2.523,2.524" transform="translate(-28.575 -87.269)" fill="none"/>
          <path id="Path_59859" data-name="Path 59859" d="M120.735,118.531a4.793,4.793,0,1,0-4.793-4.793,4.793,4.793,0,0,0,4.793,4.793" transform="translate(-85.95 -80.762)" fill="#e85400"/>
          <path id="패스_59860" data-name="패스 59860" d="M120.216,118.193a4.959,4.959,0,1,1,1.936-.391,4.959,4.959,0,0,1-1.936.391Zm0-9.587a4.612,4.612,0,1,0,3.261,1.351,4.612,4.612,0,0,0-3.261-1.351Z" transform="translate(-85.431 -80.243)" fill="#1a1311"/>
          <path id="Path_59861" data-name="Path 59861" d="M127.24,122.768a2.523,2.523,0,1,0-2.523-2.524,2.523,2.523,0,0,0,2.523,2.524" transform="translate(-92.455 -87.269)" fill="#e85400"/>
          <path id="Path_59863" data-name="Path 59863" d="M165.008,118.531a4.793,4.793,0,1,0-4.792-4.793,4.793,4.793,0,0,0,4.792,4.793" transform="translate(-118.771 -80.762)" fill="#e85400"/>
          <path id="패스_59864" data-name="패스 59864" d="M164.489,118.193a4.958,4.958,0,1,1,1.936-.391,4.958,4.958,0,0,1-1.936.391Zm0-9.587a4.612,4.612,0,1,0,3.261,1.351,4.612,4.612,0,0,0-3.261-1.351Z" transform="translate(-118.252 -80.243)" fill="#1a1311"/>
          <path id="Path_59865" data-name="Path 59865" d="M171.513,122.768a2.523,2.523,0,1,0-2.522-2.524,2.523,2.523,0,0,0,2.522,2.524" transform="translate(-125.276 -87.269)" fill="#e85400"/>
          <path id="Path_59867" data-name="Path 59867" d="M363.835,118.731a4.793,4.793,0,1,0-4.794-4.793,4.793,4.793,0,0,0,4.794,4.793" transform="translate(-266.165 -80.912)" fill="#fff"/>
          <path id="패스_59868" data-name="패스 59868" d="M363.316,118.393a4.959,4.959,0,1,1,1.936-.391,4.959,4.959,0,0,1-1.936.391Zm0-9.585a4.612,4.612,0,1,0,3.261,1.351,4.612,4.612,0,0,0-3.261-1.351Z" transform="translate(-265.646 -80.393)" fill="#1a1311"/>
          <path id="Path_59871" data-name="Path 59871" d="M419.176,118.731a4.793,4.793,0,1,0-4.792-4.793,4.793,4.793,0,0,0,4.792,4.793" transform="translate(-307.191 -80.912)" fill="#fff"/>
          <path id="패스_59872" data-name="패스 59872" d="M418.657,118.393a4.958,4.958,0,1,1,1.937-.391A4.958,4.958,0,0,1,418.657,118.393Zm0-9.585a4.611,4.611,0,1,0,3.261,1.351A4.611,4.611,0,0,0,418.657,108.808Z" transform="translate(-306.672 -80.393)" fill="#1a1311"/>
          <path id="패스_59875" data-name="패스 59875" d="M80.117,81.577h-.091a3.554,3.554,0,0,1-1.493-.338l.086-.16a3.446,3.446,0,0,0,1.421.317,3.982,3.982,0,0,0,1.479-.257,5.258,5.258,0,0,0,1.74-1.117l.124.132a5.433,5.433,0,0,1-1.807,1.157A4.171,4.171,0,0,1,80.117,81.577Z" transform="translate(-58.218 -59.322)" fill="#1a1311"/>
          <path id="Path_59876" data-name="Path 59876" d="M5.376,49.333l.557,1.2-1.049,5.33s-.535,1.157-1.178,1.179L5.355,49.29" transform="translate(-2.747 -36.54)" fill="#a6a7a7"/>
          <path id="패스_59877" data-name="패스 59877" d="M3.27,57.083l1.673-7.865.167.035.025-.012L5.7,50.467l-1.052,5.37v.01c-.023.049-.567,1.207-1.257,1.231Zm1.794-7.564L3.5,56.878a1.41,1.41,0,0,0,.641-.542,3.779,3.779,0,0,0,.334-.556l1.041-5.29Z" transform="translate(-2.424 -36.486)" fill="#1a1311"/>
          <circle id="타원_17" data-name="타원 17" cx="2.7" cy="2.7" r="2.7" transform="translate(32.083 30.291)" fill="#a3a3a3"/>
          <circle id="타원_18" data-name="타원 18" cx="2.7" cy="2.7" r="2.7" transform="translate(43.543 30.291)" fill="#a3a3a3"/>
          <circle id="타원_148" data-name="타원 148" cx="2.7" cy="2.7" r="2.7" transform="translate(94.976 30.291)" fill="#a3a3a3"/>
          <circle id="타원_149" data-name="타원 149" cx="2.7" cy="2.7" r="2.7" transform="translate(9.8 30.291)" fill="#a3a3a3"/>
          <circle id="타원_150" data-name="타원 150" cx="2.7" cy="2.7" r="2.7" transform="translate(109.292 30.291)" fill="#a3a3a3"/>
        </g>
      </g>
    </g>
  </g>
</svg>
