<svg xmlns="http://www.w3.org/2000/svg" xmlns:xlink="http://www.w3.org/1999/xlink" width="151" height="38" viewBox="0 0 151 38">
  <defs>
    <clipPath id="clip-path">
      <rect id="Rectangle_13761" data-name="Rectangle 13761" width="151" height="38" transform="translate(765 1.222)" fill="#fff" stroke="#707070" stroke-width="1"/>
    </clipPath>
    <clipPath id="clip-path-2">
      <rect id="Rectangle_13770" data-name="Rectangle 13770" width="150.522" height="38" fill="none"/>
    </clipPath>
  </defs>
  <g id="Drive_-_Tractor_Trailer_-_Others_1_" data-name="Drive - Tractor/Trailer - Others(1)" transform="translate(-765 -1.222)" clip-path="url(#clip-path)">
    <g id="Group_12700" data-name="Group 12700" transform="translate(765 1.223)">
      <g id="Group_12699" data-name="Group 12699" clip-path="url(#clip-path-2)">
        <path id="사각형_13768" data-name="사각형 13768" d="M-.54-.54h122.3V25.939H-.54ZM121.4-.182H-.182V25.581H121.4Z" transform="translate(28.76 0.54)" fill="#1a1311"/>
        <path id="패스_59818" data-name="패스 59818" d="M19.309,56.6h-.358V55.183H3.828l-2.606-.837-.69-.482a.321.321,0,0,1-.154-.091c-.118-.12-.284-.428-.351-1.7C-.007,51.4,0,50.781,0,50.746V49.9a.9.9,0,0,1,.543-.917l.027-.009H.89v-7.49a1.836,1.836,0,0,1,.646-1.411,2.3,2.3,0,0,1,.559-.362l2.5-7.6V32.1a2.758,2.758,0,0,1,1.943-1.5,4.708,4.708,0,0,1,1.313-.146H20.028a2.479,2.479,0,0,1,.934.284,2.312,2.312,0,0,1,1.2,1.687V45.2H21.8V32.471a1.946,1.946,0,0,0-1.011-1.422,2.142,2.142,0,0,0-.782-.242H7.842a4.4,4.4,0,0,0-1.217.137,2.383,2.383,0,0,0-1.693,1.292l-2.55,7.748-.082.03a1.88,1.88,0,0,0-.537.337,1.468,1.468,0,0,0-.515,1.135v7.851H.638a.587.587,0,0,0-.278.569v.846c0,.006-.01.653.027,1.328.062,1.136.2,1.383.239,1.432H.657l.726.508,2.5.8H19.307Z" transform="translate(0 -20.363)" fill="#1a1311"/>
        <path id="패스_59819" data-name="패스 59819" d="M17.387,52.394H12.334l-.528-2.017V43.855l1.968-6.511a1.835,1.835,0,0,1,.986-1.162,1.639,1.639,0,0,1,.663-.146h14.41v.119H15.419a1.545,1.545,0,0,0-.616.138,1.68,1.68,0,0,0-.915,1.086l-1.963,6.493v6.489l.5,1.913h4.96Z" transform="translate(-7.896 -24.102)" fill="#1a1311"/>
        <path id="패스_59820" data-name="패스 59820" d="M18.193,38.855h6.473V44.5H18.708l-1.171,1.029h-1.97l1.565-5.88a1.094,1.094,0,0,1,1.061-.794Zm6.352.122H18.193a.965.965,0,0,0-.948.71l-1.523,5.724h1.771l1.171-1.029h5.882Z" transform="translate(-10.412 -25.987)" fill="#1a1311"/>
        <path id="선_323" data-name="선 323" d="M-.061,5.517H-.18V0h.119Z" transform="translate(8.388 12.93)" fill="#1a1311"/>
        <path id="패스_59821" data-name="패스 59821" d="M22.567,44.971H3.653v-.119H22.448v-7.8a.772.772,0,0,0-.533-.743,1.74,1.74,0,0,0-.548-.126v-.119a1.838,1.838,0,0,1,.591.135.892.892,0,0,1,.606.853Z" transform="translate(-2.443 -24.118)" fill="#1a1311"/>
        <path id="선_324" data-name="선 324" d="M-.061,12.869H-.18V0h.119Z" transform="translate(14.967 12.064)" fill="#1a1311"/>
        <path id="패스_59822" data-name="패스 59822" d="M49.992,39a.653.653,0,0,1,.708.617V43.8a.651.651,0,0,1-.691.519h-2.63c-.025,0-.609-.109-.647-.569V39.581c0-.047-.038-.5.28-.576h2.98Zm.589.624a.543.543,0,0,0-.589-.505H47.034c-.22.062-.183.446-.183.45v4.169c.031.347.493.448.544.458h2.613a.528.528,0,0,0,.573-.414Z" transform="translate(-31.254 -26.086)" fill="#1a1311"/>
        <path id="패스_59823" data-name="패스 59823" d="M6.025,91.357h-.12V85.07l-2.633.585v4.7H3.153v-4.8l2.872-.639Z" transform="translate(-2.109 -56.798)" fill="#1a1311"/>
        <path id="패스_59824" data-name="패스 59824" d="M16.159,87.609H19.4l-.011.069a55.1,55.1,0,0,0-.613,5.554v.059h-2.62Zm3.1.119H16.278v5.444h2.383c.027-1.636.523-4.927.6-5.444Z" transform="translate(-10.808 -58.596)" fill="#1a1311"/>
        <path id="선_325" data-name="선 325" d="M7.614-.061H0V-.18H7.614Z" transform="translate(3.946 25.544)" fill="#1a1311"/>
        <path id="패스_59825" data-name="패스 59825" d="M4.483,75.239H4.364V70.426a.579.579,0,0,0-.253-.406,1.338,1.338,0,0,0-.9-.08l-.03-.115a1.436,1.436,0,0,1,1,.1.7.7,0,0,1,.307.49v4.828Z" transform="translate(-2.127 -46.668)" fill="#1a1311"/>
        <path id="선_326" data-name="선 326" d="M1.638-.061H0V-.18H1.638Z" transform="translate(2.308 24.317)" fill="#1a1311"/>
        <path id="선_327" data-name="선 327" d="M1.649-.061H0V-.18H1.649Z" transform="translate(2.332 26.457)" fill="#1a1311"/>
        <path id="선_328" data-name="선 328" d="M1.613-.061H0V-.18H1.613Z" transform="translate(12.404 22.247)" fill="#1a1311"/>
        <path id="패스_59826" data-name="패스 59826" d="M16.3,84.519H12.114V78.073h-.625v-.119h.744V84.4h3.956a27.161,27.161,0,0,1,.865-4.847,11,11,0,0,1,1.5-3.38,3.222,3.222,0,0,1,2.617-1.553h8.416l.1-.109v.229h-.049l-.828.9H20.859c-.65,0-1.258.457-1.807,1.357a12.263,12.263,0,0,0-1.206,3.034,32.427,32.427,0,0,0-.858,4.428l-.118-.013A32.556,32.556,0,0,1,17.731,80a12.381,12.381,0,0,1,1.219-3.065c.572-.939,1.214-1.415,1.909-1.415h7.9l.717-.777h-8.3a3.11,3.11,0,0,0-2.521,1.5,10.887,10.887,0,0,0-1.486,3.343,26.985,26.985,0,0,0-.864,4.878Z" transform="translate(-7.684 -49.835)" fill="#1a1311"/>
        <path id="패스_59827" data-name="패스 59827" d="M31.906,80.559a.345.345,0,0,1-.246-.116.457.457,0,0,1-.119-.5l.109.048a.34.34,0,0,0,.094.365.216.216,0,0,0,.189.078c.152-.023.294-.239.335-.32v-.007a3.861,3.861,0,0,1,1.388-1.264,2.018,2.018,0,0,1,.668-.224h5.911c.034-.019.187-.125.187-.513,0-.417-.155-.443-.156-.444h0l.007-.119c.027,0,.267.03.267.563s-.262.625-.273.629H34.338a1.982,1.982,0,0,0-.629.215,3.746,3.746,0,0,0-1.335,1.219c-.021.04-.189.343-.421.379a.3.3,0,0,1-.047.011Z" transform="translate(-21.077 -51.866)" fill="#1a1311"/>
        <path id="패스_59828" data-name="패스 59828" d="M8.062,58.825a5.312,5.312,0,0,1-1.353-.154l.034-.114a6.1,6.1,0,0,0,2.916-.047l.029.116a6.723,6.723,0,0,1-1.626.2Z" transform="translate(-4.487 -39.133)" fill="#1a1311"/>
        <path id="사각형_13769" data-name="사각형 13769" d="M.037-.54H1.768a.577.577,0,0,1,.576.576v1.31a.577.577,0,0,1-.576.576H.037A.578.578,0,0,1-.54,1.346V.037A.578.578,0,0,1,.037-.54Zm1.731,2.1a.219.219,0,0,0,.219-.219V.036a.219.219,0,0,0-.219-.219H.037a.219.219,0,0,0-.219.22V1.346a.219.219,0,0,0,.219.219Z" transform="translate(20.747 7.832)" fill="#1a1311"/>
        <path id="패스_59829" data-name="패스 59829" d="M68.362,48.67H68V31.77c0-.565-.159-.729-.188-.754l-.02-.007V31a1.631,1.631,0,0,1-.634-1.036v-.982h.358v.945a1.29,1.29,0,0,0,.479.776c.09.054.364.283.364,1.063Z" transform="translate(-44.92 -19.385)" fill="#1a1311"/>
        <path id="선_329" data-name="선 329" d="M-.182.773H-.54V0h.358Z" transform="translate(21.098 9.575)" fill="#1a1311"/>
        <path id="패스_59830" data-name="패스 59830" d="M67.078,69.112h-.705v-.358h.348v-.9c.044-.34.062-1.287-.378-1.581l.2-.3c.689.459.554,1.763.536,1.913Z" transform="translate(-44.372 -44.129)" fill="#1a1311"/>
        <path id="Path_59831" data-name="Path 59831" d="M38.024,94.876a4.785,4.785,0,1,0-4.785-4.785,4.785,4.785,0,0,0,4.785,4.785" transform="translate(-22.231 -57.055)" fill="#fff"/>
        <path id="Path_59831-2" data-name="Path 59831" d="M38.024,94.876a4.785,4.785,0,1,0-4.785-4.785,4.785,4.785,0,0,0,4.785,4.785" transform="translate(10.124 -57.055)" fill="#e85400"/>
        <path id="패스_59832" data-name="패스 59832" d="M37.663,94.694a4.93,4.93,0,1,1,3.521-1.444,4.93,4.93,0,0,1-3.521,1.444Zm0-9.57a4.607,4.607,0,1,0,3.257,1.349,4.607,4.607,0,0,0-3.257-1.349Z" transform="translate(-21.87 -56.694)" fill="#1a1311"/>
        <path id="패스_59834" data-name="패스 59834" d="M135.913,94.694a4.965,4.965,0,1,1,3.51-1.455A4.965,4.965,0,0,1,135.913,94.694Zm0-9.57a4.606,4.606,0,1,0,3.257,1.349,4.606,4.606,0,0,0-3.257-1.349Z" transform="translate(-87.583 -56.694)" fill="#1a1311"/>
        <path id="패스_59835" data-name="패스 59835" d="M126.332,86.837v-.181a6.508,6.508,0,1,1,13.015,0v.181l-1.191-.017v-.176a5.324,5.324,0,1,0-10.648,0v.176Zm12.179-.369.476.007a6.15,6.15,0,0,0-12.294,0l.461-.007a5.682,5.682,0,0,1,11.358,0Z" transform="translate(-84.495 -53.605)" fill="#1a1311"/>
        <path id="패스_59836" data-name="패스 59836" d="M296.472,86.837v-.181a6.508,6.508,0,1,1,13.016,0v.181L308.3,86.82v-.176a5.324,5.324,0,1,0-10.647,0v.176Zm12.179-.369.475.007a6.15,6.15,0,0,0-12.294,0l.461-.007a5.681,5.681,0,0,1,11.357,0Z" transform="translate(-198.29 -53.605)" fill="#1a1311"/>
        <path id="패스_59837" data-name="패스 59837" d="M333.206,86.837v-.181a6.507,6.507,0,1,1,13.014,0v.181l-1.191-.017v-.176a5.324,5.324,0,1,0-10.648,0v.176Zm12.178-.369.475.007a6.149,6.149,0,0,0-12.293,0l.46-.007a5.682,5.682,0,0,1,11.358,0Z" transform="translate(-222.858 -53.605)" fill="#1a1311"/>
        <path id="패스_59838" data-name="패스 59838" d="M368.809,86.837v-.181a6.508,6.508,0,1,1,13.016,0v.181l-1.191-.017v-.176a5.324,5.324,0,1,0-10.648,0v.176Zm12.179-.369.475.007a6.15,6.15,0,0,0-12.294,0l.461-.007a5.682,5.682,0,0,1,11.358,0Z" transform="translate(-246.671 -53.605)" fill="#1a1311"/>
        <path id="패스_59840" data-name="패스 59840" d="M306.281,94.694a4.965,4.965,0,1,1,3.51-1.455A4.965,4.965,0,0,1,306.281,94.694Zm0-9.57a4.606,4.606,0,1,0,3.257,1.349,4.606,4.606,0,0,0-3.257-1.349Z" transform="translate(-201.53 -56.694)" fill="#1a1311"/>
        <path id="패스_59842" data-name="패스 59842" d="M342.787,94.694a4.965,4.965,0,1,1,3.51-1.455A4.965,4.965,0,0,1,342.787,94.694Zm0-9.57a4.606,4.606,0,1,0,3.257,1.349,4.606,4.606,0,0,0-3.257-1.349Z" transform="translate(-225.947 -56.694)" fill="#1a1311"/>
        <path id="패스_59844" data-name="패스 59844" d="M377.944,94.694a4.965,4.965,0,1,1,3.51-1.455A4.965,4.965,0,0,1,377.944,94.694Zm0-9.57a4.606,4.606,0,1,0,3.257,1.349,4.606,4.606,0,0,0-3.257-1.349Z" transform="translate(-249.461 -56.694)" fill="#1a1311"/>
        <path id="패스_59846" data-name="패스 59846" d="M79.138,90.767H58.251V90.41h20.53V88.527H56.74V88.17h22.4Z" transform="translate(-37.949 -58.971)" fill="#1a1311"/>
        <path id="패스_59847" data-name="패스 59847" d="M116.2,80.88h-9.632V79.246h.358v1.277H116.1a7.624,7.624,0,0,1,2.837-1V79.3h.358v.57h-.179a7.166,7.166,0,0,0-2.875.983Z" transform="translate(-71.274 -53.002)" fill="#1a1311"/>
        <path id="패스_59848" data-name="패스 59848" d="M165.96,90.823h-3.369v-.358H165.6V88.527h-4.075V88.17h4.433Z" transform="translate(-108.034 -58.971)" fill="#1a1311"/>
        <path id="패스_59849" data-name="패스 59849" d="M102.082,85.25H88.131l3.55-1.98h12.025v.358H91.774l-2.268,1.265h12.576Z" transform="translate(-58.944 -55.693)" fill="#1a1311"/>
        <path id="패스_59850" data-name="패스 59850" d="M208.978,87.368H176.855l-.05-.1a16.3,16.3,0,0,0-3.088-4.1,15.906,15.906,0,0,0-3.275-2.421A13.489,13.489,0,0,0,166.78,79.3l.065-.352a13.556,13.556,0,0,1,3.758,1.475,16.264,16.264,0,0,1,3.355,2.476,16.641,16.641,0,0,1,3.112,4.107H208.8a11.562,11.562,0,0,1,.222-2.117,9.99,9.99,0,0,1,.649-2.1,7.026,7.026,0,0,1,1.349-2.051,6.422,6.422,0,0,1,4.827-1.869v.358a6.078,6.078,0,0,0-4.568,1.758A6.666,6.666,0,0,0,210,82.934a9.62,9.62,0,0,0-.626,2.019,10.827,10.827,0,0,0-.216,2.23l.007.185Z" transform="translate(-111.548 -52.754)" fill="#1a1311"/>
        <path id="선_330" data-name="선 330" d="M-.182,8.061H-.54V0h.358Z" transform="translate(65.776 26.3)" fill="#1a1311"/>
        <path id="선_331" data-name="선 331" d="M-.182,8.061H-.54V0h.358Z" transform="translate(72.568 26.3)" fill="#1a1311"/>
        <path id="선_332" data-name="선 332" d="M-.182,8.061H-.54V0h.358Z" transform="translate(86.523 26.3)" fill="#1a1311"/>
        <path id="패스_59851" data-name="패스 59851" d="M405.681,88.066v-.238a17.009,17.009,0,0,0-.489-4.255,9.768,9.768,0,0,0-1.073-2.621,4.861,4.861,0,0,0-1.554-1.7l.169-.315a5.062,5.062,0,0,1,1.673,1.8,10.078,10.078,0,0,1,1.124,2.721,17.087,17.087,0,0,1,.506,4.132l11.016-3.19,1.245-5.2.348.083-1.294,5.4Z" transform="translate(-269.248 -52.797)" fill="#1a1311"/>
        <path id="패스_59852" data-name="패스 59852" d="M451.913,85.64h-1.178v-6h.358v5.642h.463V79.64h.358Z" transform="translate(-301.466 -53.265)" fill="#1a1311"/>
        <path id="선_333" data-name="선 333" d="M-.182,2.883H-.54V0h.358Z" transform="translate(55.058 33.073)" fill="#535252"/>
        <circle id="타원_15" data-name="타원 15" cx="2.58" cy="2.58" r="2.58" transform="translate(13.21 30.452)" fill="#a3a3a3"/>
        <circle id="타원_118" data-name="타원 118" cx="2.58" cy="2.58" r="2.58" transform="translate(45.765 30.452)" fill="#a3a3a3"/>
        <circle id="타원_119" data-name="타원 119" cx="2.58" cy="2.58" r="2.58" transform="translate(102.174 30.452)" fill="#a3a3a3"/>
        <circle id="타원_120" data-name="타원 120" cx="2.58" cy="2.58" r="2.58" transform="translate(114.275 30.452)" fill="#a3a3a3"/>
        <circle id="타원_121" data-name="타원 121" cx="2.58" cy="2.58" r="2.58" transform="translate(125.901 30.452)" fill="#a3a3a3"/>
      </g>
    </g>
  </g>
</svg>
