<svg xmlns="http://www.w3.org/2000/svg" xmlns:xlink="http://www.w3.org/1999/xlink" width="110" height="38" viewBox="0 0 110 38">
  <defs>
    <clipPath id="clip-path">
      <rect id="Rectangle_13837" data-name="Rectangle 13837" width="110" height="38" transform="translate(765 1.222)" fill="#fff" stroke="#707070" stroke-width="1"/>
    </clipPath>
    <clipPath id="clip-path-2">
      <rect id="Rectangle_13836" data-name="Rectangle 13836" width="109.377" height="37.999" fill="none"/>
    </clipPath>
  </defs>
  <g id="Drive_-_Dump_-_Others_2_" data-name="Drive - Dump - Others(2)" transform="translate(-765 -1.222)" clip-path="url(#clip-path)">
    <g id="Group_12722" data-name="Group 12722" transform="translate(765 1.223)">
      <g id="Group_12721" data-name="Group 12721" clip-path="url(#clip-path-2)">
        <path id="패스_59334" data-name="패스 59334" d="M8.809,39.147H7.334V37.235H3.172l-.048-.023C1.4,36.36.4,35.406.16,34.374a1.93,1.93,0,0,1,.219-1.449C.251,30.561,0,25.589,0,25.539v-.011a4.1,4.1,0,0,1,1.015-2.253l.024-.027.032-.018c1.1-.641,1.479-2.753,1.482-2.775v-.021a19.685,19.685,0,0,1,1.5-4.084,5.458,5.458,0,0,1,.37-.594c.041-.113.1-.262.177-.452.556-1.34,1.4-1.381,1.658-1.359.246-.081,1.244-.271,7.428-.617,3.39-.189,6.714-.334,6.747-.335l.144-.006L22,15.7l.707,5.987v6l-1.56,1.063H12.876a4.793,4.793,0,0,0-1.135.408A6.883,6.883,0,0,0,9.4,31.089l-.01.011-.009.009A5.082,5.082,0,0,0,8.17,33.152c-.023.233-.265,2.647-.4,3.627h.024v1.913h.564v-1.21H9.412v.456h-.6Zm-5.53-2.368H7.3c.139-.94.409-3.656.412-3.686v-.027A5.415,5.415,0,0,1,9.048,30.8a7.331,7.331,0,0,1,2.511-2.053,4.966,4.966,0,0,1,1.26-.443h8.192l1.245-.848V21.715l-.694-5.876-1.254-2.385c-.675.03-3.61.162-6.6.329-5.93.331-7.141.521-7.336.6l-.07.03L6.24,14.4c-.05-.008-.73-.1-1.211,1.073L4.98,15.6l.105.091c0,.005-.069.13-.14.255-.044.076-.08.137-.11.181a.725.725,0,0,1-.057.077.261.261,0,0,1-.158.091c-.061.1-.127.214-.2.349A19.3,19.3,0,0,0,3,20.541c-.035.194-.439,2.311-1.666,3.06a3.632,3.632,0,0,0-.879,1.921c.01.2.257,5.16.382,7.455v.085l-.052.067A1.439,1.439,0,0,0,.6,34.283c.212.866,1.136,1.729,2.678,2.5Z" transform="translate(0 -7.509)" fill="#1a1311"/>
        <path id="패스_59335" data-name="패스 59335" d="M31.281,26.632H18.809V20.166H30.237Zm-12.32-.152H31.1l-1-6.162H18.961Z" transform="translate(-10.876 -11.661)" fill="#1a1311"/>
        <path id="선_284" data-name="선 284" d="M-.028,12.435H-.18V0h.152Z" transform="translate(14.617 8.582)" fill="#1a1311"/>
        <path id="패스_59336" data-name="패스 59336" d="M3.847,26.635A2.6,2.6,0,0,1,2.735,26.4l.065-.137a3.048,3.048,0,0,0,2.2.011l1.711-5.52a3.779,3.779,0,0,0-.185-2.995l.132-.075A3.8,3.8,0,0,1,7,18.638a3.686,3.686,0,0,1-.147,2.169l-1.73,5.58L5.09,26.4a3.5,3.5,0,0,1-1.243.234Z" transform="translate(-1.582 -10.226)" fill="#1a1311"/>
        <path id="선_285" data-name="선 285" d="M2.615-.028H0V-.18H2.615Z" transform="translate(5.394 8.748)" fill="#1a1311"/>
        <path id="패스_59337" data-name="패스 59337" d="M10.408,37.544a4.809,4.809,0,0,1-.737-.057,5.7,5.7,0,0,1-2.119-.811l.08-.129a5.553,5.553,0,0,0,2.058.789,4.589,4.589,0,0,0,1.65-.04,4.254,4.254,0,0,0,1.47-.6V35.464h.152v1.313l-.03.023a4.213,4.213,0,0,1-1.553.644,4.71,4.71,0,0,1-.971.1Z" transform="translate(-4.367 -20.506)" fill="#1a1311"/>
        <path id="패스_59338" data-name="패스 59338" d="M7.559,51.752H7.407V47.991l-.543-.543V38.487h.152v8.9l.543.543Z" transform="translate(-3.969 -22.254)" fill="#1a1311"/>
        <path id="선_286" data-name="선 286" d="M4.338-.028H0V-.18H4.338Z" transform="translate(3.543 25.904)" fill="#1a1311"/>
        <path id="패스_59339" data-name="패스 59339" d="M1.776,48.476a1.781,1.781,0,0,1-.769-.153.916.916,0,0,1-.483-.465l.143-.051a.791.791,0,0,0,.45.4,2.982,2.982,0,0,0,2.131-.19l.051.143a4.619,4.619,0,0,1-1.523.316Z" transform="translate(-0.303 -27.643)" fill="#1a1311"/>
        <path id="패스_59340" data-name="패스 59340" d="M2.54,53.811a2.783,2.783,0,0,1-.856-.139,2.988,2.988,0,0,1-.794-.386l.09-.122h0a2.9,2.9,0,0,0,.756.365,2.4,2.4,0,0,0,1.72-.056l.06.14a2.47,2.47,0,0,1-.976.2Z" transform="translate(-0.515 -30.741)" fill="#1a1311"/>
        <path id="패스_59341" data-name="패스 59341" d="M2.181,59.94a1.651,1.651,0,0,1-.228-.01,2.094,2.094,0,0,1-.737-.192l.071-.134h0a1.992,1.992,0,0,0,.687.176,2.682,2.682,0,0,0,1.66-.428l.08.129A2.892,2.892,0,0,1,2.181,59.94Z" transform="translate(-0.703 -34.319)" fill="#1a1311"/>
        <path id="패스_59342" data-name="패스 59342" d="M20.3,59.079a14.415,14.415,0,0,1,.223-3.5,7.013,7.013,0,0,1,.743-2.077,3,3,0,0,1,1.171-1.254,4.451,4.451,0,0,1,2.138-1.159h.011l8.212.061V49.829h.152v1.479l-8.359-.063a4.445,4.445,0,0,0-2.061,1.129l-.009.008H22.5a2.861,2.861,0,0,0-1.12,1.21,6.9,6.9,0,0,0-.721,2.031,14.291,14.291,0,0,0-.217,3.444Z" transform="translate(-11.724 -28.813)" fill="#1a1311"/>
        <path id="패스_59343" data-name="패스 59343" d="M22.891,56a.694.694,0,0,1-.2-.028.6.6,0,0,1-.395-.418l.144-.048a.451.451,0,0,0,.3.321c.465.141,1.238-.431,1.3-.481a3.768,3.768,0,0,1,2.146-1.166H26.2l3.506.193c.755,0,1.716-.1,2.015-.594a.686.686,0,0,0,.02-.636l.135-.07a.841.841,0,0,1-.024.783c-.269.444-.992.669-2.148.669h0l-3.5-.192a3.7,3.7,0,0,0-2.05,1.123l-.009.008A2.6,2.6,0,0,1,22.891,56Z" transform="translate(-12.891 -30.687)" fill="#1a1311"/>
        <path id="패스_59344" data-name="패스 59344" d="M51.474,55.754a5.044,5.044,0,0,1-1.314-.211l-.053-.017V53.5l1.085-.255V51.324c0-.651-1.04-1.332-1.05-1.339l.083-.127c.046.03,1.119.734,1.119,1.467v2.038l-1.085.255v1.8c.3.084,1.758.457,2.143-.154v-7.7h.152V55.3l-.01.018A1.17,1.17,0,0,1,51.474,55.754Z" transform="translate(-28.973 -27.503)" fill="#1a1311"/>
        <path id="패스_59345" data-name="패스 59345" d="M48.326,10.215c-.986,0-1.758-.536-1.758-1.221A1.075,1.075,0,0,1,47.12,8.1a2.393,2.393,0,0,1,2.416,0,1.075,1.075,0,0,1,.554.891C50.09,9.679,49.315,10.215,48.326,10.215Zm0-1.984c-.779,0-1.3.4-1.3.763s.523.766,1.3.766,1.309-.4,1.309-.766c0-.413-.6-.762-1.309-.762Z" transform="translate(-26.927 -4.496)" fill="#1a1311"/>
        <path id="선_287" data-name="선 287" d="M-.025.5-.161.429l.255-.51L.23-.013Z" transform="translate(20.537 5.375)" fill="#1a1311"/>
        <path id="패스_59346" data-name="패스 59346" d="M56.294,33.354,53.486,15.291v-.018a6.637,6.637,0,0,0-1.353-2.538l.358-.281c.015.019.362.462.715,1.024a3.972,3.972,0,0,1,.736,1.776l2.8,18.029Z" transform="translate(-30.145 -7.201)" fill="#1a1311"/>
        <path id="선_288" data-name="선 288" d="M1.99,12.688-.177,0l.15-.026L2.14,12.662Z" transform="translate(22.587 14.083)" fill="#1a1311"/>
        <path id="패스_59347" data-name="패스 59347" d="M88.97,74.456l-1.656-2.634h-2.95L82.9,73.736H48.921V73.28H82.673l1.468-1.913h3.426l1.789,2.847Z" transform="translate(-28.288 -41.267)" fill="#1a1311"/>
        <path id="선_289" data-name="선 289" d="M2.806-.084H0V-.54H2.806Z" transform="translate(72.163 33.381)" fill="#1a1311"/>
        <path id="패스_59348" data-name="패스 59348" d="M134.662,22.854H75.812V.507H127.47l.017.053Zm-58.7-.152h58.49L127.359.659h-51.4Z" transform="translate(-43.837 -0.293)" fill="#1a1311"/>
        <path id="패스_59349" data-name="패스 59349" d="M69.636,21.337l-3.822-9.048c-.716-1.364-.292-3.711,1.261-6.977A40.018,40.018,0,0,1,69.6.844l.379.253A39.525,39.525,0,0,0,67.49,5.512c-1.468,3.09-1.905,5.363-1.263,6.573l.009.018,3.825,9.057Z" transform="translate(-37.861 -0.488)" fill="#1a1311"/>
        <path id="패스_59350" data-name="패스 59350" d="M58.927,57.512a1.952,1.952,0,0,1-.86-.237l.068-.136a1.355,1.355,0,0,0,1.185.137,1.162,1.162,0,0,0,.557-.724l.021-.09.084.037a3.02,3.02,0,0,0,2.449.162,2.011,2.011,0,0,0,.761-.567,3.365,3.365,0,0,1,1.2-2.277,5.665,5.665,0,0,1,1.14-.825l.07.135a5.623,5.623,0,0,0-1.109.8,3.267,3.267,0,0,0-1.145,2.192v.022l-.013.018a2.077,2.077,0,0,1-.829.632,3.176,3.176,0,0,1-2.5-.124,1.257,1.257,0,0,1-.614.74A1.062,1.062,0,0,1,58.927,57.512Z" transform="translate(-33.577 -30.643)" fill="#1a1311"/>
        <path id="사각형_13660" data-name="사각형 13660" d="M-.54-.54H3.041V22.11H-.54Zm3.125.456H-.084V21.654h2.67Z" transform="translate(32.331 0.57)" fill="#1a1311"/>
        <path id="패스_59351" data-name="패스 59351" d="M200.916,22.72h-3.6L190.088.07h3.6Zm-3.271-.456h2.647L193.359.526h-2.647Z" transform="translate(-109.916 -0.041)" fill="#1a1311"/>
        <path id="패스_59352" data-name="패스 59352" d="M129.748,3.833H82.855V0h45.806ZM83.311,3.378h45.835L128.317.455H83.311Z" transform="translate(-47.91)" fill="#1a1311"/>
        <path id="패스_59353" data-name="패스 59353" d="M135.687,48.491H83.216V44.958h51.47Zm-52.319-.152h52.118l-.915-3.229h-51.2Z" transform="translate(-48.118 -25.996)" fill="#1a1311"/>
        <path id="선_290" data-name="선 290" d="M5.251,15.359-.17-.009-.027-.06,5.394,15.308Z" transform="translate(41.778 3.578)" fill="#1a1311"/>
        <path id="선_291" data-name="선 291" d="M5.251,15.359-.17-.009-.027-.06,5.394,15.308Z" transform="translate(44.329 3.578)" fill="#1a1311"/>
        <path id="선_292" data-name="선 292" d="M5.252,15.359-.17-.009-.027-.06,5.395,15.308Z" transform="translate(50.514 3.578)" fill="#1a1311"/>
        <path id="선_293" data-name="선 293" d="M5.252,15.359-.17-.009-.027-.06,5.395,15.308Z" transform="translate(53.065 3.578)" fill="#1a1311"/>
        <path id="선_294" data-name="선 294" d="M5.252,15.359-.17-.009-.027-.06,5.395,15.308Z" transform="translate(58.293 3.578)" fill="#1a1311"/>
        <path id="선_295" data-name="선 295" d="M5.252,15.359-.17-.009-.027-.06,5.395,15.308Z" transform="translate(60.909 3.578)" fill="#1a1311"/>
        <path id="선_296" data-name="선 296" d="M5.251,15.359-.17-.009-.027-.06,5.394,15.308Z" transform="translate(65.948 3.578)" fill="#1a1311"/>
        <path id="선_297" data-name="선 297" d="M5.248,15.359-.17-.009l.143-.05L5.391,15.308Z" transform="translate(68.435 3.578)" fill="#1a1311"/>
        <path id="선_298" data-name="선 298" d="M5.252,15.359-.17-.009-.027-.06,5.395,15.308Z" transform="translate(73.281 3.578)" fill="#1a1311"/>
        <path id="선_299" data-name="선 299" d="M5.248,15.359-.17-.009l.143-.05L5.391,15.308Z" transform="translate(76.152 3.578)" fill="#1a1311"/>
        <path id="패스_59354" data-name="패스 59354" d="M207.546,64.3h-5v-.456h4.823l2.642-2.4.306.337Z" transform="translate(-117.12 -35.534)" fill="#1a1311"/>
        <path id="패스_59355" data-name="패스 59355" d="M150.081,31.193h-7.3l-10.2-5.548H70.395V25.19h62.3l10.2,5.548h6.728v-8.42C148.8,18.884,143.958,8.476,142.6,5.6a.287.287,0,0,1-.1-.124l-.034-.078-.093-.226c-.067-.164-.132-.328-.132-.328h0A43.671,43.671,0,0,0,138.909.456H124.347V0H139.12l.068.08c.131.155,3.218,3.8,3.611,4.851l.022.059c.448.947,1.784,3.79,3.185,6.934a77.723,77.723,0,0,1,4.07,10.315l.006.026Z" transform="translate(-40.705)" fill="#1a1311"/>
        <path id="패스_59356" data-name="패스 59356" d="M215.632,55.862l-1.34-3.248H233v.456H214.972l1.08,2.618Z" transform="translate(-123.911 -30.423)" fill="#1a1311"/>
        <path id="패스_59357" data-name="패스 59357" d="M228.459,27.308a2.086,2.086,0,0,1-.584-.082l-.02-.006-.014-.016L223.69,22.54,208.894.221l.127-.084,14.793,22.314,4.127,4.636a1.748,1.748,0,0,0,1.229-.1,1.379,1.379,0,0,0,.634-.935l.148.035a1.523,1.523,0,0,1-.708,1.032A1.593,1.593,0,0,1,228.459,27.308Z" transform="translate(-120.79 -0.079)" fill="#1a1311"/>
        <path id="선_300" data-name="선 300" d="M8.647,1.12-.024-.028,0-.178,8.667.97Z" transform="translate(98.579 15.891)" fill="#1a1311"/>
        <path id="선_301" data-name="선 301" d="M-.016,4.95-.1,4.826,6.975-.147l.087.124Z" transform="translate(94.989 5.286)" fill="#1a1311"/>
        <line id="Line_333" data-name="Line 333" x1="4.018" transform="translate(3.926 14.83)" fill="#1a1311"/>
        <path id="선_303" data-name="선 303" d="M4.018-.028H0V-.18H4.018Z" transform="translate(3.926 14.934)" fill="#1a1311"/>
        <path id="Path_59943" data-name="Path 59943" d="M27.929,73.293A5.931,5.931,0,1,0,22,67.363a5.931,5.931,0,0,0,5.929,5.93" transform="translate(-12.72 -35.521)" fill="#f5f5f5"/>
        <path id="패스_59359" data-name="패스 59359" d="M27.617,73.209a6.159,6.159,0,1,1,4.354-1.8,6.159,6.159,0,0,1-4.354,1.8Zm0-11.862a5.666,5.666,0,1,0,4.041,1.659,5.7,5.7,0,0,0-4.041-1.659Z" transform="translate(-12.408 -35.209)" fill="#1a1311"/>
        <path id="Path_59944" data-name="Path 59944" d="M149.879,73.293a5.931,5.931,0,1,0-5.931-5.931,5.931,5.931,0,0,0,5.931,5.931" transform="translate(-83.236 -35.521)" fill="#e85400"/>
        <path id="패스_59362" data-name="패스 59362" d="M149.567,73.209a6.159,6.159,0,1,1,4.355-1.8,6.159,6.159,0,0,1-4.355,1.8Zm0-11.862a5.666,5.666,0,1,0,4.041,1.659,5.7,5.7,0,0,0-4.041-1.659Z" transform="translate(-82.923 -35.209)" fill="#1a1311"/>
        <path id="패스_59363" data-name="패스 59363" d="M152.9,74.112a3.729,3.729,0,1,1,3.728-3.73A3.729,3.729,0,0,1,152.9,74.112Zm0-6.243a2.514,2.514,0,1,0,2.513,2.513,2.514,2.514,0,0,0-2.513-2.513Z" transform="translate(-86.255 -38.542)" fill="#e85400"/>
        <path id="Path_59945" data-name="Path 59945" d="M182.73,73.293a5.931,5.931,0,1,0-5.931-5.931,5.931,5.931,0,0,0,5.931,5.931" transform="translate(-102.231 -35.521)" fill="#e85400"/>
        <path id="패스_59365" data-name="패스 59365" d="M182.418,73.209a6.159,6.159,0,1,1,4.354-1.8,6.159,6.159,0,0,1-4.354,1.8Zm0-11.862a5.666,5.666,0,1,0,4.041,1.659,5.7,5.7,0,0,0-4.041-1.659Z" transform="translate(-101.919 -35.209)" fill="#1a1311"/>
        <path id="패스_59366" data-name="패스 59366" d="M185.748,74.112a3.729,3.729,0,1,1,3.727-3.73A3.729,3.729,0,0,1,185.748,74.112Zm0-6.243a2.514,2.514,0,1,0,2.512,2.513,2.514,2.514,0,0,0-2.512-2.513Z" transform="translate(-105.249 -38.542)" fill="#e85400"/>
        <circle id="타원_10" data-name="타원 10" cx="3.25" cy="3.25" r="3.25" transform="translate(63.393 28.591)" fill="#a3a3a3"/>
        <circle id="타원_11" data-name="타원 11" cx="3.25" cy="3.25" r="3.25" transform="translate(77.239 28.591)" fill="#a3a3a3"/>
        <circle id="타원_113" data-name="타원 113" cx="3.25" cy="3.25" r="3.25" transform="translate(11.959 28.591)" fill="#a3a3a3"/>
      </g>
    </g>
  </g>
</svg>
