<svg xmlns="http://www.w3.org/2000/svg" xmlns:xlink="http://www.w3.org/1999/xlink" width="91" height="38" viewBox="0 0 91 38">
  <defs>
    <clipPath id="clip-path">
      <rect id="Rectangle_13874" data-name="Rectangle 13874" width="91" height="38" transform="translate(765 1.222)" fill="#fff" stroke="#707070" stroke-width="1"/>
    </clipPath>
    <clipPath id="clip-path-2">
      <rect id="Rectangle_13913" data-name="Rectangle 13913" width="90.821" height="38" fill="none"/>
    </clipPath>
  </defs>
  <g id="Drive_-_Truck_-_Others_1_" data-name="Drive - Truck - Others(1)" transform="translate(-765 -1.222)" clip-path="url(#clip-path)">
    <g id="Group_12753" data-name="Group 12753" transform="translate(765 1.223)">
      <g id="Group_12750" data-name="Group 12750">
        <g id="Group_12749" data-name="Group 12749" clip-path="url(#clip-path-2)">
          <path id="패스_60058" data-name="패스 60058" d="M157.12,23.107H96.608v-.072L96.592.25H157.12Zm-60.368-.144h60.224V.394H96.736Z" transform="translate(-68.781 -0.178)" fill="#1a1311"/>
          <path id="선_361" data-name="선 361" d="M-.106,22.651H-.25V0h.144Z" transform="translate(35.373 0.206)" fill="#1a1311"/>
          <path id="선_362" data-name="선 362" d="M-.106,22.651H-.25V0h.144Z" transform="translate(42.955 0.206)" fill="#1a1311"/>
          <path id="선_363" data-name="선 363" d="M-.106,22.651H-.25V0h.144Z" transform="translate(50.537 0.206)" fill="#1a1311"/>
          <path id="선_364" data-name="선 364" d="M-.106,22.651H-.25V0h.144Z" transform="translate(58.118 0.206)" fill="#1a1311"/>
          <path id="선_365" data-name="선 365" d="M-.106,22.651H-.25V0h.144Z" transform="translate(65.7 0.206)" fill="#1a1311"/>
          <path id="선_366" data-name="선 366" d="M-.106,22.651H-.25V0h.144Z" transform="translate(73.281 0.206)" fill="#1a1311"/>
          <path id="선_367" data-name="선 367" d="M-.106,22.651H-.25V0h.144Z" transform="translate(80.863 0.206)" fill="#1a1311"/>
        </g>
      </g>
      <path id="사각형_13914" data-name="사각형 13914" d="M-.25-.25H.837V4.137H-.25Zm.943.144h-.8v4.1h.8Z" transform="translate(22.591 2.05)" fill="#1a1311"/>
      <path id="패스_60059" data-name="패스 60059" d="M85.469,8.754h-4.6v-2.5h4.6V6.4H81.014V8.61h4.455Z" transform="translate(-57.586 -4.453)" fill="#1a1311"/>
      <path id="패스_60060" data-name="패스 60060" d="M85.469,16.987h-4.6V14.438h4.6v.144H81.014v2.261h4.455Z" transform="translate(-57.586 -10.281)" fill="#1a1311"/>
      <path id="패스_60061" data-name="패스 60061" d="M85.551,25.273h-.965l-3.6-2.321.078-.121,3.565,2.3h.922Z" transform="translate(-57.668 -16.257)" fill="#1a1311"/>
      <path id="선_368" data-name="선 368" d="M-.106,2.4H-.25V0h.144Z" transform="translate(25.797 4.229)" fill="#1a1311"/>
      <g id="Group_12752" data-name="Group 12752">
        <g id="Group_12751" data-name="Group 12751" clip-path="url(#clip-path-2)">
          <path id="패스_60062" data-name="패스 60062" d="M25.723,45.331h-.144V32.893A1.207,1.207,0,0,0,25.267,32a1.107,1.107,0,0,0-.71-.3H16.711v-.144h7.846a1.241,1.241,0,0,1,.812.341,1.345,1.345,0,0,1,.353.991Z" transform="translate(-11.9 -22.474)" fill="#1a1311"/>
          <path id="패스_60063" data-name="패스 60063" d="M14.1,83.433H9.045v-.144h5.008l6.117-4.153h6.818v.144H20.214Z" transform="translate(-6.441 -56.352)" fill="#1a1311"/>
          <path id="선_369" data-name="선 369" d="M19.581-.106H0V-.25H19.581Z" transform="translate(0.965 18.041)" fill="#1a1311"/>
          <path id="패스_60064" data-name="패스 60064" d="M5.064,71.261H3.353v-.144H4.92V62.042h.144Z" transform="translate(-2.388 -44.179)" fill="#1a1311"/>
          <path id="패스_60065" data-name="패스 60065" d="M3.788,36.462v-.144c.394,0,.73-.393.943-.723a4.371,4.371,0,0,0,.378-.742l2.323-6.346-.515-1.336H23.181v.144H7.127l.459,1.191L5.244,34.9a4.444,4.444,0,0,1-.392.77C4.514,36.2,4.156,36.462,3.788,36.462Z" transform="translate(-2.697 -19.349)" fill="#1a1311"/>
          <path id="패스_60066" data-name="패스 60066" d="M20.5,41.576H12.827a.82.82,0,0,1-.692-.261.674.674,0,0,1-.094-.546h0L13.609,36.3a1.1,1.1,0,0,1,.228-.4,1.222,1.222,0,0,1,.96-.4h5.7a.788.788,0,0,1,.787.788v4.5a.788.788,0,0,1-.787.788Zm-8.323-.767a.533.533,0,0,0,.071.419.691.691,0,0,0,.576.2H20.5a.644.644,0,0,0,.643-.644v-4.5a.644.644,0,0,0-.643-.644H14.8a1.081,1.081,0,0,0-.847.344.962.962,0,0,0-.2.349v.005Z" transform="translate(-8.559 -25.281)" fill="#1a1311"/>
          <path id="패스_60067" data-name="패스 60067" d="M55,41.7H51.671a.656.656,0,0,1-.637-.389.983.983,0,0,1-.089-.379v-4.1a.849.849,0,0,1,.36-.772.779.779,0,0,1,.364-.122H55a.726.726,0,0,1,.709.788V40.8a1,1,0,0,1-.2.693A.657.657,0,0,1,55,41.7Zm-3.326-5.616c-.034,0-.583.037-.583.75v4.1c0,.025.009.624.582.624H55a.519.519,0,0,0,.4-.157.867.867,0,0,0,.162-.586V36.726A.579.579,0,0,0,55,36.082Z" transform="translate(-36.277 -25.591)" fill="#1a1311"/>
          <path id="선_370" data-name="선 370" d="M11.147-.106H0V-.25H11.147Z" transform="translate(2.604 23.035)" fill="#1a1311"/>
          <path id="패스_60068" data-name="패스 60068" d="M28.051,47.119l-6.466-.128-.01-.058a8.279,8.279,0,0,0-1.167-2.793,5.962,5.962,0,0,0-5.223-2.78,6.457,6.457,0,0,0-3.259.8,5.752,5.752,0,0,0-1.883,1.763,7.026,7.026,0,0,0-1.08,2.566l-.01.061H.25V43.891A.887.887,0,0,1,.695,43.1a1.327,1.327,0,0,1,.376-.155V33.407l3.05-8.777a4.343,4.343,0,0,1,.5-1.074A2.745,2.745,0,0,1,5.3,22.81a1.738,1.738,0,0,1,1.035-.344H19.4a1.275,1.275,0,0,1,1.128.812,3.006,3.006,0,0,1,.266.794v14.71h67.72v5.859h-37.9V45.92H37.841v1.2h-6.9v-1.2h-2.89Zm3.034-.145H37.7v-1.2H50.465V44.5H88.373V38.927H20.652V24.09a2.923,2.923,0,0,0-.253-.749,1.126,1.126,0,0,0-1-.731H6.334a1.6,1.6,0,0,0-.949.315,2.6,2.6,0,0,0-.645.7,4.269,4.269,0,0,0-.481,1.04h0L1.215,33.431v9.638l-.061.009a1.171,1.171,0,0,0-.388.15.739.739,0,0,0-.373.663v2.515H8.831a7.284,7.284,0,0,1,1.093-2.564,5.9,5.9,0,0,1,1.93-1.806,6.6,6.6,0,0,1,3.331-.821,6.106,6.106,0,0,1,5.345,2.849A8.526,8.526,0,0,1,21.7,46.849l6.2.123v-1.2h3.178Z" transform="translate(-0.178 -15.998)" fill="#1a1311"/>
          <path id="선_371" data-name="선 371" d="M9.566-.106H0V-.25H9.566Z" transform="translate(0.965 27.188)" fill="#1a1311"/>
          <path id="Path_60073" data-name="Path 60073" d="M223.469,103.267a5.7,5.7,0,1,0-5.7-5.7,5.7,5.7,0,0,0,5.7,5.7" transform="translate(-155.067 -65.411)" fill="#e85400"/>
          <path id="Path_60073-2" data-name="Path 60073" d="M223.469,103.267a5.7,5.7,0,1,0-5.7-5.7,5.7,5.7,0,0,0,5.7,5.7" transform="translate(-208.451 -65.411)" fill="#f5f5f5" stroke="#000" stroke-width="0.3"/>
          <path id="패스_60074" data-name="패스 60074" d="M223.113,103.055a5.83,5.83,0,1,1,2.277-.46,5.83,5.83,0,0,1-2.277.46Zm0-11.408a5.543,5.543,0,1,0,2.165.437,5.543,5.543,0,0,0-2.165-.437Z" transform="translate(-154.71 -65.055)" fill="#1a1311"/>
          <path id="Path_60075" data-name="Path 60075" d="M230.156,107.243a3,3,0,1,0-3-3,3,3,0,0,0,3,3" transform="translate(-161.754 -72.09)" fill="#e85400"/>
          <path id="패스_60076" data-name="패스 60076" d="M229.978,107.137a3.073,3.073,0,1,1,2.175-.9,3.073,3.073,0,0,1-2.175.9Zm0-6a2.93,2.93,0,1,0,2.931,2.932,2.93,2.93,0,0,0-2.931-2.932Z" transform="translate(-161.576 -71.912)" fill="#1a1311"/>
          <path id="패스_60077" data-name="패스 60077" d="M308.767,100.951h-2.7V99.238h.288v.64h2.41Zm-2.41-.288h2.122v-.5h-2.122Z" transform="translate(-217.946 -70.665)" fill="#1a1311"/>
          <path id="패스_60078" data-name="패스 60078" d="M138.9,80.935H71.112V79.387h.144v1.4H138.9Z" transform="translate(-50.638 -56.53)" fill="#1a1311"/>
          <path id="사각형_13915" data-name="사각형 13915" d="M-.25-.25H7.809V2.571H-.25Zm7.915.144H-.106V2.427H7.665Z" transform="translate(24.189 24.511)" fill="#1a1311"/>
          <path id="선_372" data-name="선 372" d="M-.106,2.677H-.25V0h.144Z" transform="translate(28.146 24.333)" fill="#1a1311"/>
          <path id="선_373" data-name="선 373" d="M60.369-.106H0V-.25H60.369Z" transform="translate(27.898 21.957)" fill="#1a1311"/>
          <path id="패스_60079" data-name="패스 60079" d="M82.958,13.363h-.986l-3.685-2.375v-.453h-.943V6h5.614v.288H77.632v3.955h.943v.584l3.482,2.244h.9Z" transform="translate(-55.075 -4.275)" fill="#1a1311"/>
          <path id="패스_60080" data-name="패스 60080" d="M68.4,38a5.842,5.842,0,0,1-4.73-9.284H50.5v1.278H37.735v1.2H30.691v-1.2H27.944v1.2l-6.6-.131-.02-.117a8.209,8.209,0,0,0-1.159-2.77A5.89,5.89,0,0,0,15,25.433a6.386,6.386,0,0,0-3.223.792,5.68,5.68,0,0,0-1.859,1.741A6.945,6.945,0,0,0,8.855,30.5l-.019.122H0V27.894a.956.956,0,0,1,.479-.849A1.394,1.394,0,0,1,.821,26.9V17.4l.14-.4.1.035h0L.961,17,3.873,8.62A4.451,4.451,0,0,1,4.166,7.9l-.055-.138H4.24A2.276,2.276,0,0,1,6.156,6.4H19.223a1.342,1.342,0,0,1,1.192.851,3.087,3.087,0,0,1,.273.815V22.713h7.064L27.739,0H88.41V28.716H73.133A5.845,5.845,0,0,1,68.4,38ZM50.214,28.428H64.266l-.189.234a5.563,5.563,0,1,0,8.653,0l-.189-.234H88.123V.288h-60.1L28.042,23H20.4V8.1a2.853,2.853,0,0,0-.247-.726,1.059,1.059,0,0,0-.933-.688H6.156a2.055,2.055,0,0,0-1.7,1.278l-.012.023a4.236,4.236,0,0,0-.292.708V8.7L1.109,17.445v9.688l-.122.019c-.028,0-.7.118-.7.742v2.443H8.593A7.281,7.281,0,0,1,9.686,27.8a5.966,5.966,0,0,1,1.954-1.828,6.669,6.669,0,0,1,3.367-.83,6.179,6.179,0,0,1,5.406,2.881,8.5,8.5,0,0,1,1.174,2.754l6.07.121V29.7h3.322v1.2h6.468V29.7H50.214Z" fill="#1a1311"/>
          <circle id="타원_25" data-name="타원 25" cx="3.075" cy="3.075" r="3.075" transform="translate(65.327 29.075)" fill="#a3a3a3"/>
          <circle id="타원_129" data-name="타원 129" cx="3.075" cy="3.075" r="3.075" transform="translate(11.943 29.075)" fill="#a3a3a3"/>
        </g>
      </g>
    </g>
  </g>
</svg>
