<svg xmlns="http://www.w3.org/2000/svg" xmlns:xlink="http://www.w3.org/1999/xlink" width="165" height="38" viewBox="0 0 165 38">
  <defs>
    <clipPath id="clip-path">
      <rect id="Rectangle_13584" data-name="Rectangle 13584" width="165" height="38" transform="translate(765 1.222)" fill="#fff" stroke="#707070" stroke-width="1"/>
    </clipPath>
    <clipPath id="clip-path-2">
      <rect id="Rectangle_13594" data-name="Rectangle 13594" width="164.776" height="38" fill="none"/>
    </clipPath>
  </defs>
  <g id="Steer_All_-_Tractor_Trailer_-_Others_2_" data-name="Steer (All) - Tractor/Trailer - Others(2)" transform="translate(-765 -1.222)" clip-path="url(#clip-path)">
    <g id="Group_12621" data-name="Group 12621" transform="translate(765 1.222)">
      <g id="Group_12620" data-name="Group 12620" clip-path="url(#clip-path-2)">
        <path id="Path_60198" data-name="Path 60198" d="M32.7,83a5.285,5.285,0,1,0-5.286-5.286A5.285,5.285,0,0,0,32.7,83" transform="translate(22.81 -45.206)" fill="#547abc"/>
        <path id="Path_60199" data-name="Path 60199" d="M32.7,83a5.285,5.285,0,1,0-5.286-5.286A5.285,5.285,0,0,0,32.7,83" transform="translate(57.204 -45.206)" fill="#547abc"/>
        <path id="Path_60200" data-name="Path 60200" d="M32.7,83a5.285,5.285,0,1,0-5.286-5.286A5.285,5.285,0,0,0,32.7,83" transform="translate(96.222 -45.206)" fill="#547abc"/>
        <path id="Path_60201" data-name="Path 60201" d="M32.7,83a5.285,5.285,0,1,0-5.286-5.286A5.285,5.285,0,0,0,32.7,83" transform="translate(114.717 -45.206)" fill="#547abc"/>
        <path id="Path_59156" data-name="Path 59156" d="M32.7,83a5.285,5.285,0,1,0-5.286-5.286A5.285,5.285,0,0,0,32.7,83" transform="translate(-17.111 -45.205)" fill="#e85400"/>
        <path id="패스_59157" data-name="패스 59157" d="M32.366,82.868a5.487,5.487,0,1,1,3.881-1.607,5.487,5.487,0,0,1-3.881,1.607Zm0-10.57a5.081,5.081,0,1,0,3.594,1.488A5.081,5.081,0,0,0,32.366,72.3Z" transform="translate(-16.774 -44.868)" fill="#1a1311"/>
        <path id="패스_59159" data-name="패스 59159" d="M142.95,84.61a2.849,2.849,0,1,1,2.849-2.851A2.849,2.849,0,0,1,142.95,84.61Zm0-5.564a2.714,2.714,0,1,0,2.714,2.713A2.714,2.714,0,0,0,142.95,79.046Z" transform="translate(-87.437 -49.248)" fill="#1a1311"/>
        <path id="패스_59160" data-name="패스 59160" d="M138.567,82.868a5.487,5.487,0,1,1,3.88-1.607A5.487,5.487,0,0,1,138.567,82.868Zm0-10.57a5.081,5.081,0,1,0,3.593,1.488,5.081,5.081,0,0,0-3.593-1.488Z" transform="translate(-83.054 -44.868)" fill="#1a1311"/>
        <path id="패스_59161" data-name="패스 59161" d="M9.859,34.926h-5.9L0,31.722V28.1a1.253,1.253,0,0,1,.485-.953v-9.04l.009-.03a2.442,2.442,0,0,1,1.266-1.4V10.324A3.345,3.345,0,0,1,3.336,7.492L16.343,1.473a3.116,3.116,0,0,1,2.733-.111,1.914,1.914,0,0,1,.884,1.306v.007l.364,3.574.974,5.719V24l.625.59V0H75.459V27.312h-.406V.406H22.33v25.13L20.893,24.18V12l-.971-5.7-.364-3.576a1.525,1.525,0,0,0-.69-1.011A2.758,2.758,0,0,0,16.5,1.85L3.5,7.861a1.9,1.9,0,0,0-.581.5,3.789,3.789,0,0,0-.756,1.994v6.587l-.132.049a2.112,2.112,0,0,0-1.14,1.18v9.193l-.1.06A.893.893,0,0,0,.4,28.1v3.426L4.1,34.52H9.614a11.233,11.233,0,0,1-.149-2.059,8.821,8.821,0,0,1,.284-2.116,5.738,5.738,0,0,1,1.023-2.095,5.847,5.847,0,0,1,4.794-1.992,5.651,5.651,0,0,1,4.56,1.8,5.941,5.941,0,0,1,1.126,2.063,9.169,9.169,0,0,1,.4,2.118,11.575,11.575,0,0,1-.027,2.1h4.16L31.8,31.6H49.42A7.138,7.138,0,0,1,50.3,29a5.453,5.453,0,0,1,1.847-1.928,6.348,6.348,0,0,1,3.392-.875,6.176,6.176,0,0,1,3.36.876,5.16,5.16,0,0,1,1.776,1.932,6.921,6.921,0,0,1,.779,2.6h14.3l5.759-3.013h4.523V29H81.611l-5.759,3.013H61.068l-.005-.2a6.512,6.512,0,0,0-.749-2.622,4.755,4.755,0,0,0-1.637-1.774,5.785,5.785,0,0,0-3.135-.808,5.951,5.951,0,0,0-3.178.814,5.051,5.051,0,0,0-1.71,1.787,6.684,6.684,0,0,0-.845,2.612l-.012.19H31.89l-6.013,2.733H21.161l.037-.234a10.811,10.811,0,0,0,.053-2.247,8.749,8.749,0,0,0-.386-2.02,5.534,5.534,0,0,0-1.047-1.919,5.267,5.267,0,0,0-4.248-1.66A5.465,5.465,0,0,0,11.091,28.5a5.332,5.332,0,0,0-.948,1.943,8.4,8.4,0,0,0-.272,2.015,10.474,10.474,0,0,0,.187,2.221l.055.247Z" fill="#1a1311"/>
        <path id="선_276" data-name="선 276" d="M31.194-.134H0V-.54H31.194Z" transform="translate(93.635 29.132)" fill="#1a1311"/>
        <path id="선_277" data-name="선 277" d="M10.939-.134H0V-.54H10.939Z" transform="translate(132.723 29.132)" fill="#1a1311"/>
        <path id="패스_59162" data-name="패스 59162" d="M293.7,33.761h-2.166V32.25l-2.188-2.07h-9.2v-.406h9.366l2.432,2.3v1.28H293.3V2.3H206.989V29.142h-.406V1.894H293.7Z" transform="translate(-128.929 -1.182)" fill="#1a1311"/>
        <path id="패스_59163" data-name="패스 59163" d="M25.738,17.148H8.6v-.135l15.07-1.944a1.882,1.882,0,0,1,1.814,1.009,2.408,2.408,0,0,1,.258,1Zm-16.08-.135H25.6a2.335,2.335,0,0,0-.242-.877A1.748,1.748,0,0,0,23.67,15.2Z" transform="translate(-5.365 -9.405)" fill="#1a1311"/>
        <path id="선_278" data-name="선 278" d="M19.072-.045H0V-.18H19.072Z" transform="translate(1.963 12.16)" fill="#1a1311"/>
        <path id="패스_59164" data-name="패스 59164" d="M16.312,43.6H8.3v-.14h8.017a2.07,2.07,0,0,0,1.834-.791,1.66,1.66,0,0,0,.284-.784V32.209h.135v9.68a1.772,1.772,0,0,1-.308.856,2.271,2.271,0,0,1-1.95.855Z" transform="translate(-5.177 -20.102)" fill="#1a1311"/>
        <path id="패스_59165" data-name="패스 59165" d="M4.4,60.575H4.266V49.4a1.92,1.92,0,0,0-.545-1.459A2.357,2.357,0,0,0,2.15,47.4l-.007-.135a2.456,2.456,0,0,1,1.672.578A2.049,2.049,0,0,1,4.4,49.4Z" transform="translate(-1.337 -29.497)" fill="#1a1311"/>
        <path id="선_279" data-name="선 279" d="M18.039-.045H0V-.18H18.039Z" transform="translate(2.997 19.65)" fill="#1a1311"/>
        <path id="선_280" data-name="선 280" d="M2.187-.045H0V-.18H2.187Z" transform="translate(0.749 27.303)" fill="#1a1311"/>
        <path id="패스_59166" data-name="패스 59166" d="M1.642,77.851H.954A.757.757,0,0,1,.2,77.093V75.981a.756.756,0,0,1,.755-.755h.688a.757.757,0,0,1,.757.755v1.113a.758.758,0,0,1-.758.757Zm-.688-2.49a.62.62,0,0,0-.619.619v1.113a.621.621,0,0,0,.619.622h.688a.622.622,0,0,0,.621-.622V75.981a.621.621,0,0,0-.621-.619Z" transform="translate(-0.124 -46.949)" fill="#1a1311"/>
        <path id="사각형_13590" data-name="사각형 13590" d="M.577-.18H7.946A.758.758,0,0,1,8.7.577V2.071a.758.758,0,0,1-.757.757H.577A.758.758,0,0,1-.18,2.071V.577A.758.758,0,0,1,.577-.18ZM7.946,2.692a.622.622,0,0,0,.622-.622V.577a.622.622,0,0,0-.621-.621H.577A.623.623,0,0,0-.045.577V2.071a.622.622,0,0,0,.621.621Z" transform="translate(3.411 13.619)" fill="#1a1311"/>
        <path id="사각형_13591" data-name="사각형 13591" d="M-.18-.18H3.659V1.9H-.18Zm3.7.135H-.045V1.763H3.524Z" transform="translate(4.081 28.396)" fill="#1a1311"/>
        <path id="사각형_13592" data-name="사각형 13592" d="M-.18-.18H3.659V1.047H-.18Zm3.7.135H-.045V.912H3.524Z" transform="translate(4.081 26.211)" fill="#1a1311"/>
        <path id="사각형_13593" data-name="사각형 13593" d="M-.18-.18H3.661V1.05H-.18Zm3.7.135H-.045V.914h3.57Z" transform="translate(4.991 32.525)" fill="#1a1311"/>
        <path id="패스_59167" data-name="패스 59167" d="M21.7,72.522h-.135a7.508,7.508,0,0,0-.853-3.66A6.059,6.059,0,0,0,18.838,66.8a7.013,7.013,0,0,0-2.733-1.13h-2.67a3.467,3.467,0,0,0-1.564.372,4.339,4.339,0,0,0-1.121.822,5.245,5.245,0,0,0-.9,1.192L8.628,72.043H.379v-.135H8.528L9.732,68a5.258,5.258,0,0,1,.923-1.232,4.473,4.473,0,0,1,1.156-.848,3.6,3.6,0,0,1,1.624-.387h2.683a7.138,7.138,0,0,1,2.792,1.151A6.193,6.193,0,0,1,20.83,68.8a7.639,7.639,0,0,1,.87,3.725Z" transform="translate(-0.237 -40.897)" fill="#1a1311"/>
        <path id="패스_59168" data-name="패스 59168" d="M89.016,69.077H61L58.737,66.81l.1-.1,2.228,2.227H89.016Z" transform="translate(-36.658 -41.637)" fill="#1a1311"/>
        <path id="패스_59169" data-name="패스 59169" d="M410.1,75.267l-1.322-.763h-8.9v-.135h8.933l1.354.781Z" transform="translate(-249.564 -46.414)" fill="#1a1311"/>
        <path id="선_281" data-name="선 281" d="M12.517-.045H0V-.18H12.517Z" transform="translate(131.821 28.135)" fill="#1a1311"/>
        <path id="선_282" data-name="선 282" d="M33.267-.045H0V-.18H33.267Z" transform="translate(92.577 28.135)" fill="#1a1311"/>
        <path id="패스_59170" data-name="패스 59170" d="M184.581,73.424h-9.414l-2.537-.65H156.093v-.135h16.562l2.529.648h9.4Z" transform="translate(-97.418 -45.334)" fill="#1a1311"/>
        <path id="선_283" data-name="선 283" d="M86.594-.045H0V-.18H86.594Z" transform="translate(77.857 26.433)" fill="#1a1311"/>
        <path id="선_284" data-name="선 284" d="M52.156-.045H0V-.18H52.156Z" transform="translate(23.039 26.089)" fill="#1a1311"/>
        <path id="선_285" data-name="선 285" d="M-.045,23.221H-.18V0h.135Z" transform="translate(163.099 3.1)" fill="#1a1311"/>
        <path id="선_286" data-name="선 286" d="M86.655-.045H0V-.18H86.655Z" transform="translate(77.857 3.212)" fill="#1a1311"/>
        <path id="선_287" data-name="선 287" d="M53.007-.045H0V-.18H53.007Z" transform="translate(22.188 2.565)" fill="#1a1311"/>
        <path id="선_288" data-name="선 288" d="M-.045,23.221H-.18V0h.135Z" transform="translate(79.67 3.1)" fill="#1a1311"/>
        <path id="선_289" data-name="선 289" d="M-.045,23.543H-.18V0h.135Z" transform="translate(73.607 2.453)" fill="#1a1311"/>
        <path id="선_290" data-name="선 290" d="M-.045,23.543H-.18V0h.135Z" transform="translate(23.84 2.453)" fill="#1a1311"/>
        <path id="선_291" data-name="선 291" d="M-.045,4.7H-.18V0h.135Z" transform="translate(31.532 21.259)" fill="#1a1311"/>
        <path id="선_292" data-name="선 292" d="M-.045,4.7H-.18V0h.135Z" transform="translate(40.162 21.259)" fill="#1a1311"/>
        <path id="선_293" data-name="선 293" d="M-.045,4.7H-.18V0h.135Z" transform="translate(48.584 21.259)" fill="#1a1311"/>
        <path id="선_294" data-name="선 294" d="M-.045,4.7H-.18V0h.135Z" transform="translate(56.926 21.259)" fill="#1a1311"/>
        <path id="선_295" data-name="선 295" d="M-.045,4.7H-.18V0h.135Z" transform="translate(65.509 21.259)" fill="#1a1311"/>
        <path id="선_296" data-name="선 296" d="M-.045,4.7H-.18V0h.135Z" transform="translate(88.336 21.584)" fill="#1a1311"/>
        <path id="선_297" data-name="선 297" d="M-.045,4.7H-.18V0h.135Z" transform="translate(97.729 21.584)" fill="#1a1311"/>
        <path id="선_298" data-name="선 298" d="M-.045,4.7H-.18V0h.135Z" transform="translate(107.122 21.584)" fill="#1a1311"/>
        <path id="선_299" data-name="선 299" d="M-.045,4.7H-.18V0h.135Z" transform="translate(116.437 21.584)" fill="#1a1311"/>
        <path id="선_300" data-name="선 300" d="M-.045,4.7H-.18V0h.135Z" transform="translate(125.83 21.584)" fill="#1a1311"/>
        <path id="선_301" data-name="선 301" d="M-.045,4.7H-.18V0h.135Z" transform="translate(135.226 21.584)" fill="#1a1311"/>
        <path id="선_302" data-name="선 302" d="M-.045,4.7H-.18V0h.135Z" transform="translate(144.619 21.584)" fill="#1a1311"/>
        <path id="선_303" data-name="선 303" d="M-.045,4.7H-.18V0h.135Z" transform="translate(154.013 21.584)" fill="#1a1311"/>
        <path id="패스_59171" data-name="패스 59171" d="M230.065,82.868a5.489,5.489,0,1,1,3.881-1.607,5.489,5.489,0,0,1-3.881,1.607Zm0-10.57a5.083,5.083,0,1,0,3.594,1.488,5.083,5.083,0,0,0-3.594-1.488Z" transform="translate(-140.158 -44.868)" fill="#1a1311"/>
        <path id="패스_59172" data-name="패스 59172" d="M234.446,84.61a2.849,2.849,0,1,1,2.848-2.851,2.849,2.849,0,0,1-2.848,2.851Zm0-5.564a2.714,2.714,0,1,0,2.712,2.713,2.714,2.714,0,0,0-2.712-2.713Z" transform="translate(-144.539 -49.248)" fill="#1a1311"/>
        <path id="패스_59173" data-name="패스 59173" d="M333.866,82.566a5.487,5.487,0,1,1,3.88-1.607A5.487,5.487,0,0,1,333.866,82.566Zm0-10.57a5.081,5.081,0,1,0,3.593,1.488A5.081,5.081,0,0,0,333.866,72Z" transform="translate(-204.94 -44.679)" fill="#1a1311"/>
        <path id="패스_59174" data-name="패스 59174" d="M338.247,84.307a2.85,2.85,0,1,1,2.848-2.849,2.85,2.85,0,0,1-2.848,2.849Zm0-5.564a2.7,2.7,0,1,0,1.923.792A2.714,2.714,0,0,0,338.247,78.743Z" transform="translate(-209.322 -49.059)" fill="#1a1311"/>
        <path id="패스_59175" data-name="패스 59175" d="M383.065,82.566a5.489,5.489,0,1,1,3.881-1.607A5.489,5.489,0,0,1,383.065,82.566Zm0-10.57a5.083,5.083,0,1,0,3.594,1.488A5.083,5.083,0,0,0,383.065,72Z" transform="translate(-235.646 -44.679)" fill="#1a1311"/>
        <path id="패스_59176" data-name="패스 59176" d="M387.446,84.307a2.85,2.85,0,1,1,2.848-2.849,2.85,2.85,0,0,1-2.848,2.849Zm0-5.564a2.714,2.714,0,1,0,2.713,2.716A2.714,2.714,0,0,0,387.446,78.743Z" transform="translate(-240.026 -49.059)" fill="#1a1311"/>
        <circle id="타원_55" data-name="타원 55" cx="3.1" cy="3.1" r="3.1" transform="translate(12.488 29.416)" fill="#a3a3a3"/>
        <circle id="타원_56" data-name="타원 56" cx="3.1" cy="3.1" r="3.1" transform="translate(52.414 29.416)" fill="#a3a3a3"/>
        <circle id="타원_57" data-name="타원 57" cx="3.1" cy="3.1" r="3.1" transform="translate(86.808 29.416)" fill="#a3a3a3"/>
        <circle id="타원_58" data-name="타원 58" cx="3.1" cy="3.1" r="3.1" transform="translate(125.844 29.416)" fill="#a3a3a3"/>
        <circle id="타원_59" data-name="타원 59" cx="3.1" cy="3.1" r="3.1" transform="translate(144.338 29.416)" fill="#a3a3a3"/>
      </g>
    </g>
  </g>
</svg>
