<svg xmlns="http://www.w3.org/2000/svg" xmlns:xlink="http://www.w3.org/1999/xlink" width="135" height="38" viewBox="0 0 135 38">
  <defs>
    <clipPath id="clip-path">
      <rect id="Rectangle_13699" data-name="Rectangle 13699" width="135" height="38" transform="translate(765 1.222)" fill="#fff" stroke="#707070" stroke-width="1"/>
    </clipPath>
    <clipPath id="clip-path-2">
      <rect id="Rectangle_13712" data-name="Rectangle 13712" width="134.963" height="37.999" fill="none"/>
    </clipPath>
  </defs>
  <g id="Steer_All_-_Bus_-_Others_2_" data-name="Steer (All) - Bus - Others(2)" transform="translate(-765 -1.222)" clip-path="url(#clip-path)">
    <g id="Group_12665" data-name="Group 12665" transform="translate(765 1.223)">
      <g id="Group_12664" data-name="Group 12664" clip-path="url(#clip-path-2)">
        <path id="패스_59447" data-name="패스 59447" d="M12.192,0H131.337a3.873,3.873,0,0,1,1.3.438,2.432,2.432,0,0,1,1.331,2.217c0,2.109.846,23.015.855,23.226l.01.241h-1.01v1.391h1.142v2.173l-.057.066c-.043.049-1.091,1.21-4.137,1.5l-12.7,2.14H107.614l.013-.244a10.632,10.632,0,0,0-.184-2.217,7.853,7.853,0,0,0-1.847-3.945,6.139,6.139,0,0,0-4.653-1.79,6.242,6.242,0,0,0-4.687,1.793,7.765,7.765,0,0,0-1.914,3.946,10.673,10.673,0,0,0-.222,2.217l.008.24H91.367l.006-.238a11.15,11.15,0,0,0-.239-2.264A8.11,8.11,0,0,0,89.193,26.9a5.934,5.934,0,0,0-4.432-1.7,6.4,6.4,0,0,0-3.972,1.233,7.01,7.01,0,0,0-2.1,2.729,11.631,11.631,0,0,0-.968,4.008l-.006.226H33.046l.032-.26a10.237,10.237,0,0,0-.035-2.189,7.25,7.25,0,0,0-1.586-3.911A5.986,5.986,0,0,0,26.748,25.2a6.17,6.17,0,0,0-4.764,1.844A7.368,7.368,0,0,0,20.251,31a10.441,10.441,0,0,0-.112,2.215l.021.252H3.042L.571,30.252V26.741A4.071,4.071,0,0,1,0,24.968v-3.63c0-.138-.044-2.227,1.265-2.919l.051-.027H2.858A41.624,41.624,0,0,0,4.28,14.2,34.929,34.929,0,0,0,5.7,5L4.4,4.859l.022-.228a4.125,4.125,0,0,1,.4-1.3A4.175,4.175,0,0,1,6.956,1.313C7.163,1.156,8.218.521,12.177,0Zm119.1.464H12.222C8.195.993,7.28,1.649,7.23,1.688l-.03.03-.034.01A3.806,3.806,0,0,0,4.923,4.45l1.241.136v.206a29.208,29.208,0,0,1-.429,5.089,41.362,41.362,0,0,1-1.013,4.458,40.451,40.451,0,0,1-1.5,4.376l-.06.141H1.434c-1.022.6-.971,2.451-.97,2.47v3.642A3.776,3.776,0,0,0,1,26.556l.034.056v3.482L3.271,33H19.663a11.349,11.349,0,0,1,.127-2.06,9.647,9.647,0,0,1,.563-2.118,6.812,6.812,0,0,1,1.287-2.093,6.612,6.612,0,0,1,5.108-2A6.039,6.039,0,0,1,33.016,28.8a9.291,9.291,0,0,1,.488,2.1,11.128,11.128,0,0,1,.057,2.027H77.272a12.048,12.048,0,0,1,1-3.963,7.467,7.467,0,0,1,2.239-2.906,6.857,6.857,0,0,1,4.252-1.328,6.38,6.38,0,0,1,4.767,1.85,7.176,7.176,0,0,1,1.387,2.087,10.3,10.3,0,0,1,.677,2.141,12.071,12.071,0,0,1,.245,2.119h1.819a11.6,11.6,0,0,1,.229-2.072,10.055,10.055,0,0,1,.662-2.111,7.185,7.185,0,0,1,1.374-2.076,6.687,6.687,0,0,1,5.023-1.937,6.583,6.583,0,0,1,4.991,1.937,7.025,7.025,0,0,1,1.341,2.078,9.915,9.915,0,0,1,.627,2.113,11.55,11.55,0,0,1,.194,2.069h9.937L130.717,30.8a8.431,8.431,0,0,0,3-.779,3.5,3.5,0,0,0,.779-.512v-1.53h-1.142V25.66h.99c-.1-2.351-.846-21.01-.846-23A1.967,1.967,0,0,0,132.409.845a3.446,3.446,0,0,0-1.115-.381Z" fill="#1a1311"/>
        <path id="패스_59448" data-name="패스 59448" d="M146.513,32.366h-.155V3H26.267V2.849H146.513Z" transform="translate(-14.985 -1.625)" fill="#1a1311"/>
        <path id="선_308" data-name="선 308" d="M120.172-.025H0V-.18H120.172Z" transform="translate(11.352 2.189)" fill="#1a1311"/>
        <path id="패스_59449" data-name="패스 59449" d="M153.854,18.524H46.062a.885.885,0,0,1-.885-.87l-2-5.942V11.7a.886.886,0,0,1,.884-.887H153.854a.886.886,0,0,1,.884.887v5.942a.884.884,0,0,1-.884.882ZM43.336,11.688l2,5.941v.013a.73.73,0,0,0,.731.728H153.854a.729.729,0,0,0,.729-.728V11.7a.731.731,0,0,0-.729-.732H44.065a.732.732,0,0,0-.729.72Z" transform="translate(-24.634 -6.168)" fill="#1a1311"/>
        <path id="사각형_13702" data-name="사각형 13702" d="M-.18-.18H1.687V7.531H-.18Zm1.712.155H-.025v7.4H1.532Z" transform="translate(32.982 4.824)" fill="#1a1311"/>
        <path id="사각형_13703" data-name="사각형 13703" d="M-.18-.18H1.687V7.531H-.18Zm1.712.155H-.025v7.4H1.532Z" transform="translate(48.324 4.824)" fill="#1a1311"/>
        <path id="사각형_13704" data-name="사각형 13704" d="M-.18-.18H1.686V7.531H-.18Zm1.711.155H-.025v7.4H1.531Z" transform="translate(65.729 4.824)" fill="#1a1311"/>
        <path id="사각형_13705" data-name="사각형 13705" d="M-.18-.18H1.688V7.531H-.18Zm1.713.155H-.025v7.4H1.533Z" transform="translate(82.101 4.824)" fill="#1a1311"/>
        <path id="사각형_13706" data-name="사각형 13706" d="M-.18-.18H1.687V7.531H-.18Zm1.712.155H-.025v7.4H1.532Z" transform="translate(98.733 4.824)" fill="#1a1311"/>
        <path id="사각형_13707" data-name="사각형 13707" d="M-.18-.18H1.684V7.531H-.18Zm1.709.155H-.025v7.4H1.529Z" transform="translate(114.334 4.824)" fill="#1a1311"/>
        <path id="사각형_13708" data-name="사각형 13708" d="M-.18-.18H113.372V1.471H-.18Zm113.4.155H-.025V1.316H113.218Z" transform="translate(16.731 19.796)" fill="#1a1311"/>
        <path id="패스_59450" data-name="패스 59450" d="M40.344,16.472H36.886v-.155h3.245L38.093,9.991A2.491,2.491,0,0,1,38.526,8.1a2.453,2.453,0,0,1,2-.761H152.494v.155H40.523a2.309,2.309,0,0,0-1.878.7,2.364,2.364,0,0,0-.4,1.761Z" transform="translate(-21.043 -4.185)" fill="#1a1311"/>
        <path id="패스_59451" data-name="패스 59451" d="M22.377,39.17h-.155V10.809H14.33a1.543,1.543,0,0,0-.935,1.286L11.472,24.209V39.17h-.155V24.191l1.924-12.118a1.688,1.688,0,0,1,1.05-1.414h8.085Z" transform="translate(-6.456 -6.078)" fill="#1a1311"/>
        <path id="패스_59452" data-name="패스 59452" d="M18.613,26.556H14.691a.888.888,0,0,1-.886-.887v-.011L15.514,14.02a.885.885,0,0,1,.886-.877h5.512a.885.885,0,0,1,.886.883v9.352Zm-4.653-.881a.733.733,0,0,0,.731.727h3.87l4.083-3.1V14.026a.731.731,0,0,0-.731-.728H16.4a.731.731,0,0,0-.731.728v.011Z" transform="translate(-7.876 -7.498)" fill="#1a1311"/>
        <path id="패스_59453" data-name="패스 59453" d="M21.842,57.5H14.691a.885.885,0,0,1-.886-.883v-3.59a.887.887,0,0,1,.886-.885h7.151a.886.886,0,0,1,.885.885v3.588a.885.885,0,0,1-.885.885Zm-7.151-5.2a.732.732,0,0,0-.731.731v3.588a.731.731,0,0,0,.731.728h7.151a.73.73,0,0,0,.731-.728V53.027a.731.731,0,0,0-.731-.731Z" transform="translate(-7.876 -29.746)" fill="#1a1311"/>
        <path id="패스_59454" data-name="패스 59454" d="M4.585,67.146H4.43V59.6H.872v-.155H4.585Z" transform="translate(-0.497 -33.91)" fill="#1a1311"/>
        <path id="선_309" data-name="선 309" d="M3.065-.025H0V-.18H3.065Z" transform="translate(0.874 29.275)" fill="#1a1311"/>
        <path id="사각형_13709" data-name="사각형 13709" d="M-.18-.18h11.6V9.741H-.18Zm11.449.155H-.025V9.587H11.269Z" transform="translate(55.167 23.511)" fill="#1a1311"/>
        <path id="사각형_13710" data-name="사각형 13710" d="M-.18-.18H8.244V9.945H-.18Zm8.269.155H-.025V9.79H8.089Z" transform="translate(110.598 23.307)" fill="#1a1311"/>
        <path id="사각형_13711" data-name="사각형 13711" d="M-.18-.18H8.757V9.945H-.18ZM8.6-.025H-.025V9.79H8.6Z" transform="translate(44.032 23.307)" fill="#1a1311"/>
        <path id="패스_59455" data-name="패스 59455" d="M3.124,24.874l-.462-.044A52.79,52.79,0,0,1,4.594,15.7c.777-2.65,1.494-4.594,1.5-4.613l.435.161c-.007.019-.72,1.951-1.493,4.586a52.327,52.327,0,0,0-1.912,9.04Z" transform="translate(-1.519 -6.324)" fill="#1a1311"/>
        <path id="패스_59456" data-name="패스 59456" d="M7.186,16.8,3.435,14.834H1.549V13.613H3.617l4.021,1.053-.117.449L3.557,14.077H2.013v.293H3.55L7.4,16.394Z" transform="translate(-0.884 -7.766)" fill="#1a1311"/>
        <path id="선_310" data-name="선 310" d="M-.025,2.758H-.18V0h.155Z" transform="translate(1.38 6.933)" fill="#1a1311"/>
        <path id="패스_59457" data-name="패스 59457" d="M2.919,22.049H1.927a1.042,1.042,0,0,1-1.04-1.041V18.634a1.042,1.042,0,0,1,1.04-1.041h.991Zm-.991-3.992a.577.577,0,0,0-.576.577v2.374a.577.577,0,0,0,.576.577h.527V18.057Z" transform="translate(-0.506 -10.036)" fill="#1a1311"/>
        <path id="Path_59458" data-name="Path 59458" d="M226.943,71.885a6.04,6.04,0,1,1,6.04-6.04,6.04,6.04,0,0,1-6.04,6.04" transform="translate(-126.021 -34.118)" fill="#547abc"/>
        <path id="패스_59459" data-name="패스 59459" d="M226.635,71.809a6.231,6.231,0,1,1,4.447-1.825,6.272,6.272,0,0,1-4.447,1.825Zm0-12.08a5.809,5.809,0,1,0,4.106,1.7,5.809,5.809,0,0,0-4.106-1.7Z" transform="translate(-125.713 -33.809)" fill="#1a1311"/>
        <path id="Path_59461" data-name="Path 59461" d="M189.142,71.885a6.04,6.04,0,1,1,6.04-6.04,6.04,6.04,0,0,1-6.04,6.04" transform="translate(-104.456 -34.118)" fill="#547abc"/>
        <path id="Path_60207" data-name="Path 60207" d="M189.142,71.885a6.04,6.04,0,1,1,6.04-6.04,6.04,6.04,0,0,1-6.04,6.04" transform="translate(-162.38 -34.118)" fill="#e85400"/>
        <path id="패스_59462" data-name="패스 59462" d="M188.834,71.809a6.274,6.274,0,1,1,4.435-1.838,6.274,6.274,0,0,1-4.435,1.838Zm0-12.08a5.809,5.809,0,1,0,4.107,1.7,5.809,5.809,0,0,0-4.107-1.7Z" transform="translate(-104.148 -33.809)" fill="#1a1311"/>
        <path id="패스_59464" data-name="패스 59464" d="M53.535,71.809a6.272,6.272,0,1,1,4.433-1.838,6.272,6.272,0,0,1-4.433,1.838Zm0-12.08a5.807,5.807,0,1,0,4.1,1.7,5.807,5.807,0,0,0-4.1-1.7Z" transform="translate(-26.963 -33.809)" fill="#1a1311"/>
        <path id="패스_59465" data-name="패스 59465" d="M57.541,72.8A3.255,3.255,0,1,1,60.8,69.543,3.255,3.255,0,0,1,57.541,72.8Zm0-6.356a3.1,3.1,0,1,0,3.1,3.1,3.1,3.1,0,0,0-3.1-3.1Z" transform="translate(-30.968 -37.815)" fill="#1a1311"/>
        <circle id="타원_30" data-name="타원 30" cx="3.5" cy="3.5" r="3.5" transform="translate(23.077 28.23)" fill="#a3a3a3"/>
        <circle id="타원_31" data-name="타원 31" cx="3.5" cy="3.5" r="3.5" transform="translate(81.186 28.23)" fill="#a3a3a3"/>
        <circle id="타원_32" data-name="타원 32" cx="3.5" cy="3.5" r="3.5" transform="translate(97.422 28.23)" fill="#a3a3a3"/>
      </g>
    </g>
  </g>
</svg>
