<svg xmlns="http://www.w3.org/2000/svg" xmlns:xlink="http://www.w3.org/1999/xlink" width="112" height="38" viewBox="0 0 112 38">
  <defs>
    <clipPath id="clip-path">
      <rect id="Rectangle_13722" data-name="Rectangle 13722" width="112" height="38" transform="translate(765 1.222)" fill="#fff" stroke="#707070" stroke-width="1"/>
    </clipPath>
    <clipPath id="clip-path-2">
      <rect id="Rectangle_13745" data-name="Rectangle 13745" width="112.017" height="38" fill="none"/>
    </clipPath>
  </defs>
  <g id="Steer_All_-_Truck_-_Others_2_" data-name="Steer (All) - Truck - Others(2)" transform="translate(-765 -1.222)" clip-path="url(#clip-path)">
    <g id="Group_12678" data-name="Group 12678" transform="translate(765 1.223)">
      <g id="Group_12677" data-name="Group 12677" clip-path="url(#clip-path-2)">
        <path id="Path_59525" data-name="Path 59525" d="M10.754,19.385c1.3-.174,1.817-2.365,1.817-2.365s1.3-8.168,1.39-8.777S12.745,7.2,12.745,7.2a43.96,43.96,0,0,0-1.531,6.075,27.68,27.68,0,0,0-.46,6.108" transform="translate(-7.002 -4.698)" fill="#a6a7a7"/>
        <path id="패스_59526" data-name="패스 59526" d="M10.513,19.278l-.006-.093a28.054,28.054,0,0,1,.461-6.13A44.488,44.488,0,0,1,12.5,6.967l.028-.081.081.027a3.885,3.885,0,0,1,.657.3c.451.265.659.546.618.837-.086.6-1.378,8.7-1.391,8.778v.006a5.56,5.56,0,0,1-.427,1.137A2.1,2.1,0,0,1,10.6,19.265ZM12.638,7.107a45.1,45.1,0,0,0-1.5,5.98,28.506,28.506,0,0,0-.464,5.99c1.141-.25,1.629-2.192,1.65-2.279.032-.2,1.3-8.176,1.39-8.772C13.773,7.618,13.02,7.249,12.638,7.107Z" transform="translate(-6.841 -4.493)" fill="#1a1311"/>
        <rect id="Rectangle_13738" data-name="Rectangle 13738" width="40.58" height="1.043" transform="translate(30.508 26.399)" fill="#474645"/>
        <path id="패스_59527" data-name="패스 59527" d="M17.3,0h0c5.821,0,13.456.2,13.532.207H31V1l2.325,2.21.235,20.579H32.4v.581H29.131l-.581-.581H19.677a3.949,3.949,0,0,0-2.74,1.026,5.973,5.973,0,0,0-1.483,2.291,11.619,11.619,0,0,0-.714,3.37l-.006.168H8.153L3.239,29.325V25.361L3.9,24.43H5.1l-.125-.249V16.3a3.554,3.554,0,0,1,.7-1.683A40.948,40.948,0,0,1,6.67,6.094a36.544,36.544,0,0,1,.993-3.679V2.4L8.292.9h.825A1.659,1.659,0,0,1,10.138.343a5.5,5.5,0,0,1,.8-.135A54.829,54.829,0,0,1,17.3,0ZM30.655.55C29.5.52,22.636.348,17.3.348a54.662,54.662,0,0,0-6.308.2h-.016c-.542.042-1.455.239-1.594.588l-.044.109H8.524L7.99,2.534a36.457,36.457,0,0,0-.982,3.641,40.54,40.54,0,0,0-.982,8.5v.058l-.035.046A3.436,3.436,0,0,0,5.329,16.3v7.8l.34.679H4.083l-.5.7v3.586L8.2,30.3h6.2a11.867,11.867,0,0,1,.729-3.316A6.313,6.313,0,0,1,16.7,24.557a4.287,4.287,0,0,1,2.974-1.116h9.017l.581.581h2.774v-.581h1.16L32.98,3.361,30.655,1.152Z" transform="translate(-2.113 -0.001)" fill="#1a1311"/>
        <path id="패스_59528" data-name="패스 59528" d="M42.594,3.809H20.522V3.2H20.7v.434H42.6Z" transform="translate(-13.389 -2.088)" fill="#1a1311"/>
        <path id="선_323" data-name="선 323" d="M-.152,20.146H-.5V0h.348Z" transform="translate(22.145 1.648)" fill="#1a1311"/>
        <path id="선_324" data-name="선 324" d="M2.34,2.554-.18-.053l.125-.121,2.52,2.607Z" transform="translate(28.627 1.66)" fill="#1a1311"/>
        <path id="선_325" data-name="선 325" d="M-.076,20.913H-.25V0h.174Z" transform="translate(30.15 3.198)" fill="#1a1311"/>
        <path id="패스_59529" data-name="패스 59529" d="M11.7,48.883h-.174V42.055H11.7Z" transform="translate(-7.517 -27.437)" fill="#1a1311"/>
        <path id="선_326" data-name="선 326" d="M0,1.054-.011.88,25.864-.25l.008.174Z" transform="translate(4.099 15.613)" fill="#1a1311"/>
        <path id="패스_59530" data-name="패스 59530" d="M11.856,41.929l-.129-.116a4.154,4.154,0,0,1,2.442-1.034l23.442-1.957.014.173L14.183,40.951a4.058,4.058,0,0,0-2.327.978Z" transform="translate(-7.651 -25.327)" fill="#1a1311"/>
        <path id="Path_59531" data-name="Path 59531" d="M20.522,19.747,34.165,18.1V8.451h-11.3a7.035,7.035,0,0,0-2,4,73.058,73.058,0,0,0-.348,7.3" transform="translate(-13.389 -5.514)" fill="#a6a7a7"/>
        <path id="패스_59532" data-name="패스 59532" d="M20.147,19.65V19.5a72.3,72.3,0,0,1,.349-7.317,7.246,7.246,0,0,1,1.15-3,6.052,6.052,0,0,1,.89-1.078l.037-.033H34.05v9.891ZM22.675,8.337a6.218,6.218,0,0,0-.817,1,6.984,6.984,0,0,0-1.1,2.882,70.524,70.524,0,0,0-.346,7.134L33.79,17.736v-9.4Z" transform="translate(-13.144 -5.269)" fill="#1a1311"/>
        <path id="패스_59533" data-name="패스 59533" d="M18.684,40.633H18.51V28.21a7.172,7.172,0,0,1,.167-1.844,3.39,3.39,0,0,1,.584-1.322,1.746,1.746,0,0,1,1.277-.7l.014.173a1.579,1.579,0,0,0-1.154.629,3.221,3.221,0,0,0-.552,1.255,7.118,7.118,0,0,0-.162,1.8Z" transform="translate(-12.073 -15.885)" fill="#1a1311"/>
        <path id="Path_59534" data-name="Path 59534" d="M72.693,8.788v8.863a34.582,34.582,0,0,1-4.171.261V9.57s.261-.782.869-.869Z" transform="translate(-44.705 -5.677)" fill="#a6a7a7"/>
        <path id="패스_59535" data-name="패스 59535" d="M69.139,8.325l3.44.091v9.1l-.113.015a35.046,35.046,0,0,1-4.189.262h-.13V9.3l.007-.02c.012-.035.294-.86.974-.957Zm3.179.344-3.164-.083c-.465.074-.7.65-.747.761v8.188a35.336,35.336,0,0,0,3.91-.245Z" transform="translate(-44.46 -5.432)" fill="#1a1311"/>
        <path id="선_327" data-name="선 327" d="M-.152,10.5H-.5V0h.348Z" transform="translate(13.542 2.979)" fill="#1a1311"/>
        <path id="선_328" data-name="선 328" d="M3.476-.152H0V-.5H3.476Z" transform="translate(2.962 21.686)" fill="#1a1311"/>
        <path id="선_329" data-name="선 329" d="M3.389-.152H0V-.5H3.389Z" transform="translate(3.049 22.902)" fill="#1a1311"/>
        <path id="선_330" data-name="선 330" d="M11.509-.152H0V-.5H11.509Z" transform="translate(3.223 24.929)" fill="#1a1311"/>
        <path id="선_331" data-name="선 331" d="M-.152,5.7H-.5V0h.348Z" transform="translate(6.851 24.748)" fill="#1a1311"/>
        <path id="패스_59536" data-name="패스 59536" d="M38.718,65.467l-.123-.123a12.624,12.624,0,0,1,3.031-1.939c1.087-.549,2.027-.944,2.037-.948l.016-.007H55.167v.174H43.714C43.447,62.738,39.952,64.233,38.718,65.467Z" transform="translate(-25.18 -40.744)" fill="#1a1311"/>
        <path id="패스_59537" data-name="패스 59537" d="M25.185,66.923H21.022V62.23H21.2v4.519h3.833a8.575,8.575,0,0,1,.3-1.372,4.554,4.554,0,0,1,1.343-2.233v-.958l-1.429-1.161.06-.068a10.1,10.1,0,0,1,2.251-1.879,11.634,11.634,0,0,1,2.216-1.056,10.7,10.7,0,0,1,2.368-.57h3.31v.174h-3.3a10.594,10.594,0,0,0-2.326.562,11.458,11.458,0,0,0-2.181,1.04A9.945,9.945,0,0,0,25.492,61l1.352,1.1v1.13l-.035.026a4.335,4.335,0,0,0-1.316,2.172,8.275,8.275,0,0,0-.3,1.417Z" transform="translate(-13.715 -37.482)" fill="#1a1311"/>
        <path id="선_332" data-name="선 332" d="M8.6-.076H0V-.25H8.6Z" transform="translate(3.049 23.695)" fill="#1a1311"/>
        <rect id="Rectangle_13739" data-name="Rectangle 13739" width="1.303" height="5.561" transform="translate(8.523 6.239)" fill="#1a1311"/>
        <path id="사각형_13740" data-name="사각형 13740" d="M-.25-.25H1.227V5.485H-.25Zm1.3.174H-.076V5.311h1.13Z" transform="translate(8.687 6.403)" fill="#1a1311"/>
        <path id="Path_59538" data-name="Path 59538" d="M15.624.5,9.772.77v.782l3.837.442" transform="translate(-6.375 -0.324)" fill="#1a1311"/>
        <path id="패스_59539" data-name="패스 59539" d="M3.659,13.977,0,11.924.622,3.48l.063-.047c.351-.263,2.613-1.6,2.709-1.662l.177.3c-.022.013-2.121,1.257-2.615,1.6L.363,11.729l3.466,1.945Z" transform="translate(0 -1.155)" fill="#1a1311"/>
        <path id="패스_59540" data-name="패스 59540" d="M3.146,17.422l-.165-.055a8.319,8.319,0,0,0,0-3v-.028l.013-.026a5.818,5.818,0,0,0,.5-3.189,7.022,7.022,0,0,0-.317-1.479l-1.423-.37L1.8,9.107,3.3,9.5l.016.042a6.861,6.861,0,0,1,.342,1.564,6,6,0,0,1-.507,3.259,8.146,8.146,0,0,1,0,3.057Z" transform="translate(-1.144 -5.942)" fill="#1a1311"/>
        <path id="패스_59541" data-name="패스 59541" d="M55.621,70.918H40.757v-.174H55.448V69.7h.174Z" transform="translate(-26.591 -45.474)" fill="#1a1311"/>
        <path id="패스_59542" data-name="패스 59542" d="M127.329,26.867h-5.2l-1.912-1.217H84.272V24.52h.348v.78h35.7l1.912,1.217h5.011l1.651-.869h37.061V24.087h.7V16.961H88.964V.8h-.447L87.66,12.364V24.087H84.967v-.348h2.346v-11.4L88.195.451h1.117V16.614H167v7.821h-.7V26H128.98Z" transform="translate(-54.98 -0.294)" fill="#1a1311"/>
        <path id="선_333" data-name="선 333" d="M1.477-.076H0V-.25H1.477Z" transform="translate(32.594 12.225)" fill="#1a1311"/>
        <path id="패스_59543" data-name="패스 59543" d="M196.46,67h-.174V64.744H194.9v-.869h-5.648v.956h-1.571v1.828H187.5v-2h1.571V63.7h6v.869h1.39Z" transform="translate(-122.33 -41.559)" fill="#1a1311"/>
        <path id="패스_59544" data-name="패스 59544" d="M131.108,61.911H98.522V60.7H98.7v1.036h32.412Z" transform="translate(-64.277 -39.602)" fill="#1a1311"/>
        <path id="선_334" data-name="선 334" d="M39.1-.076H0V-.25H39.1Z" transform="translate(72.653 22.391)" fill="#1a1311"/>
        <path id="선_335" data-name="선 335" d="M-.076,5.706H-.25V0h.174Z" transform="translate(36.754 16.493)" fill="#1a1311"/>
        <path id="선_336" data-name="선 336" d="M-.076,5.706H-.25V0h.174Z" transform="translate(37.536 16.493)" fill="#1a1311"/>
        <path id="선_337" data-name="선 337" d="M-.076,5.706H-.25V0h.174Z" transform="translate(46.834 16.493)" fill="#1a1311"/>
        <path id="선_338" data-name="선 338" d="M-.076,5.706H-.25V0h.174Z" transform="translate(47.616 16.493)" fill="#1a1311"/>
        <path id="선_339" data-name="선 339" d="M-.076,5.684H-.25V0h.174Z" transform="translate(55.61 16.493)" fill="#1a1311"/>
        <path id="선_340" data-name="선 340" d="M-.076,5.684H-.25V0h.174Z" transform="translate(56.393 16.493)" fill="#1a1311"/>
        <path id="선_341" data-name="선 341" d="M-.076,5.7H-.25V0h.174Z" transform="translate(65.864 16.493)" fill="#1a1311"/>
        <path id="선_342" data-name="선 342" d="M-.076,5.7H-.25V0h.174Z" transform="translate(66.646 16.493)" fill="#1a1311"/>
        <path id="선_343" data-name="선 343" d="M-.076,5.7H-.25V0h.174Z" transform="translate(73.077 16.493)" fill="#1a1311"/>
        <path id="선_344" data-name="선 344" d="M-.076,5.7H-.25V0h.174Z" transform="translate(73.859 16.493)" fill="#1a1311"/>
        <path id="선_345" data-name="선 345" d="M-.076,5.764H-.25V0h.174Z" transform="translate(82.027 16.493)" fill="#1a1311"/>
        <path id="선_346" data-name="선 346" d="M-.076,5.764H-.25V0h.174Z" transform="translate(82.809 16.493)" fill="#1a1311"/>
        <path id="선_347" data-name="선 347" d="M-.076,5.764H-.25V0h.174Z" transform="translate(90.977 16.493)" fill="#1a1311"/>
        <path id="선_348" data-name="선 348" d="M-.076,5.764H-.25V0h.174Z" transform="translate(91.759 16.493)" fill="#1a1311"/>
        <path id="선_349" data-name="선 349" d="M-.076,5.764H-.25V0h.174Z" transform="translate(99.667 16.493)" fill="#1a1311"/>
        <path id="선_350" data-name="선 350" d="M-.076,5.764H-.25V0h.174Z" transform="translate(100.449 16.493)" fill="#1a1311"/>
        <path id="선_351" data-name="선 351" d="M-.076,5.764H-.25V0h.174Z" transform="translate(108.617 16.493)" fill="#1a1311"/>
        <path id="선_352" data-name="선 352" d="M-.076,5.764H-.25V0h.174Z" transform="translate(109.399 16.493)" fill="#1a1311"/>
        <path id="선_353" data-name="선 353" d="M1.564-.076H0V-.25H1.564Z" transform="translate(32.594 16.743)" fill="#1a1311"/>
        <path id="선_354" data-name="선 354" d="M4-.076H0V-.25H4Z" transform="translate(32.507 17.786)" fill="#1a1311"/>
        <path id="선_355" data-name="선 355" d="M9.3-.076H0V-.25H9.3Z" transform="translate(37.373 17.699)" fill="#1a1311"/>
        <path id="선_356" data-name="선 356" d="M8.081-.076H0V-.25H8.081Z" transform="translate(47.453 17.699)" fill="#1a1311"/>
        <path id="선_357" data-name="선 357" d="M9.3-.076H0V-.25H9.3Z" transform="translate(56.316 17.699)" fill="#1a1311"/>
        <path id="선_358" data-name="선 358" d="M6.343-.076H0V-.25H6.343Z" transform="translate(66.57 17.699)" fill="#1a1311"/>
        <path id="선_359" data-name="선 359" d="M7.994-.076H0V-.25H7.994Z" transform="translate(73.869 17.699)" fill="#1a1311"/>
        <path id="선_360" data-name="선 360" d="M7.994-.076H0V-.25H7.994Z" transform="translate(82.733 17.699)" fill="#1a1311"/>
        <path id="선_361" data-name="선 361" d="M7.994-.076H0V-.25H7.994Z" transform="translate(91.596 17.699)" fill="#1a1311"/>
        <path id="선_362" data-name="선 362" d="M7.994-.076H0V-.25H7.994Z" transform="translate(100.286 17.699)" fill="#1a1311"/>
        <path id="선_363" data-name="선 363" d="M2-.076H0V-.25H2Z" transform="translate(109.323 17.699)" fill="#1a1311"/>
        <path id="선_364" data-name="선 364" d="M4.084-.076H0V-.25H4.084Z" transform="translate(32.594 21.262)" fill="#1a1311"/>
        <path id="선_365" data-name="선 365" d="M8.081-.076H0V-.25H8.081Z" transform="translate(47.453 21.262)" fill="#1a1311"/>
        <path id="선_366" data-name="선 366" d="M9.3-.076H0V-.25H9.3Z" transform="translate(56.316 21.262)" fill="#1a1311"/>
        <path id="선_367" data-name="선 367" d="M8.108-.076H0V-.25H8.108Z" transform="translate(73.756 21.262)" fill="#1a1311"/>
        <path id="선_368" data-name="선 368" d="M7.994-.076H0V-.25H7.994Z" transform="translate(82.733 21.262)" fill="#1a1311"/>
        <path id="선_369" data-name="선 369" d="M7.994-.076H0V-.25H7.994Z" transform="translate(91.596 21.262)" fill="#1a1311"/>
        <path id="선_370" data-name="선 370" d="M7.994-.076H0V-.25H7.994Z" transform="translate(100.286 21.262)" fill="#1a1311"/>
        <path id="선_371" data-name="선 371" d="M2-.076H0V-.25H2Z" transform="translate(109.323 21.262)" fill="#1a1311"/>
        <path id="선_372" data-name="선 372" d="M-.076,5.822H-.25V0h.174Z" transform="translate(111.398 16.319)" fill="#1a1311"/>
        <path id="선_373" data-name="선 373" d="M-.076,3.389H-.25V0h.174Z" transform="translate(35.103 17.623)" fill="#1a1311"/>
        <path id="선_374" data-name="선 374" d="M9.288-.076H0V-.25H9.288Z" transform="translate(37.382 21.262)" fill="#1a1311"/>
        <path id="선_375" data-name="선 375" d="M37.018-.076H0V-.25H37.018Z" transform="translate(74.043 24.129)" fill="#1a1311"/>
        <path id="선_376" data-name="선 376" d="M32.586-.076H0V-.25H32.586Z" transform="translate(32.681 24.129)" fill="#1a1311"/>
        <path id="선_377" data-name="선 377" d="M1.738-.076H0V-.25H1.738Z" transform="translate(12.781 28.561)" fill="#1a1311"/>
        <path id="선_378" data-name="선 378" d="M51.549-.152H0V-.5H51.549Z" transform="translate(25.101 28.724)" fill="#1a1311"/>
        <path id="선_379" data-name="선 379" d="M19.465-.152H0V-.5H19.465Z" transform="translate(86.991 28.724)" fill="#1a1311"/>
        <path id="선_380" data-name="선 380" d="M-.076,1.564H-.25V0h.174Z" transform="translate(32.757 23.706)" fill="#1a1311"/>
        <path id="Path_59545" data-name="Path 59545" d="M51.073,79.289a6.213,6.213,0,1,1-6.213-6.213,6.213,6.213,0,0,1,6.213,6.213" transform="translate(-25.214 -47.676)" fill="#ea6018"/>
        <path id="타원_159" data-name="타원 159" d="M5.887-.5A6.38,6.38,0,1,1,3.4,0,6.385,6.385,0,0,1,5.887-.5Zm0,12.426a6.04,6.04,0,1,0-4.271-1.769,6.039,6.039,0,0,0,4.271,1.769Z" transform="translate(13.759 25.726)" fill="#1a1311"/>
        <path id="Path_59546" data-name="Path 59546" d="M52.435,82.2a4.66,4.66,0,1,1-4.66-4.66,4.66,4.66,0,0,1,4.66,4.66" transform="translate(-28.13 -50.592)" fill="#a6a7a7"/>
        <path id="타원_160" data-name="타원 160" d="M4.5-.25A4.745,4.745,0,1,1,1.14,1.14,4.747,4.747,0,0,1,4.5-.25Zm0,9.319A4.573,4.573,0,1,0,1.263,7.73,4.573,4.573,0,0,0,4.5,9.069Z" transform="translate(15.15 27.117)" fill="#1a1311"/>
        <path id="Path_59547" data-name="Path 59547" d="M229.823,79.289a6.213,6.213,0,1,1-6.213-6.213,6.213,6.213,0,0,1,6.213,6.213" transform="translate(-141.833 -47.676)" fill="#547abc"/>
        <path id="타원_161" data-name="타원 161" d="M5.887-.5A6.38,6.38,0,1,1,3.4,0,6.385,6.385,0,0,1,5.887-.5Zm0,12.426a6.04,6.04,0,1,0-4.271-1.769,6.039,6.039,0,0,0,4.271,1.769Z" transform="translate(75.89 25.726)" fill="#1a1311"/>
        <path id="Path_59548" data-name="Path 59548" d="M231.185,82.2a4.66,4.66,0,1,1-4.66-4.66,4.66,4.66,0,0,1,4.66,4.66" transform="translate(-144.749 -50.592)" fill="#a6a7a7"/>
        <path id="타원_162" data-name="타원 162" d="M4.5-.25A4.745,4.745,0,1,1,1.14,1.14,4.747,4.747,0,0,1,4.5-.25Zm0,9.319A4.573,4.573,0,1,0,1.263,7.73,4.573,4.573,0,0,0,4.5,9.069Z" transform="translate(77.28 27.117)" fill="#1a1311"/>
        <path id="Path_59549" data-name="Path 59549" d="M268.712,79.289a6.213,6.213,0,1,1-6.213-6.213,6.213,6.213,0,0,1,6.213,6.213" transform="translate(-167.205 -47.676)" fill="#547abc"/>
        <path id="타원_163" data-name="타원 163" d="M5.887-.5A6.38,6.38,0,1,1,3.4,0,6.385,6.385,0,0,1,5.887-.5Zm0,12.426a6.04,6.04,0,1,0-4.271-1.769,6.039,6.039,0,0,0,4.271,1.769Z" transform="translate(89.407 25.726)" fill="#1a1311"/>
        <path id="Path_59550" data-name="Path 59550" d="M270.074,82.2a4.66,4.66,0,1,1-4.66-4.66,4.66,4.66,0,0,1,4.66,4.66" transform="translate(-170.121 -50.592)" fill="#a6a7a7"/>
        <path id="타원_164" data-name="타원 164" d="M4.5-.25A4.745,4.745,0,1,1,1.14,1.14,4.747,4.747,0,0,1,4.5-.25Zm0,9.319A4.573,4.573,0,1,0,1.263,7.73,4.573,4.573,0,0,0,4.5,9.069Z" transform="translate(90.797 27.117)" fill="#1a1311"/>
        <path id="사각형_13741" data-name="사각형 13741" d="M-.5-.5H2.715V2.715H-.5Zm2.868.348H-.152v2.52h2.52Z" transform="translate(103.914 25.857)" fill="#1a1311"/>
        <path id="패스_59551" data-name="패스 59551" d="M307.9,83.287a5.71,5.71,0,0,1-.967-.393c-.684-.358-1.073-.768-1.155-1.22l.342-.062c.127.7,1.4,1.2,1.875,1.341Z" transform="translate(-199.496 -53.245)" fill="#1a1311"/>
        <path id="패스_59552" data-name="패스 59552" d="M302.422,84.812a6.011,6.011,0,0,1-1.963-.692,8.5,8.5,0,0,1-1.514-1.077,9.279,9.279,0,0,1-1.33-1.431l.283-.2a9.122,9.122,0,0,0,1.283,1.377,6.783,6.783,0,0,0,3.294,1.68Z" transform="translate(-194.168 -53.114)" fill="#1a1311"/>
        <path id="사각형_13742" data-name="사각형 13742" d="M-.5-.5H1.238V2.107H-.5ZM.89-.152H-.152V1.759H.89Z" transform="translate(108.693 29.941)" fill="#1a1311"/>
        <path id="패스_59553" data-name="패스 59553" d="M67.291,58.147l-.172-.026a3.5,3.5,0,0,1,.467-1.206A2.476,2.476,0,0,1,69.779,55.7h4.084v.174H69.779a2.365,2.365,0,0,0-1.289.351,2.435,2.435,0,0,0-.754.776,3.389,3.389,0,0,0-.445,1.146Z" transform="translate(-43.789 -36.34)" fill="#1a1311"/>
        <path id="패스_59554" data-name="패스 59554" d="M70.421,59.614l-.172-.024a2.636,2.636,0,0,1,.276-.812,1.433,1.433,0,0,1,1.3-.827h4v.174h-4a1.252,1.252,0,0,0-1.141.733A2.5,2.5,0,0,0,70.421,59.614Z" transform="translate(-45.832 -37.808)" fill="#1a1311"/>
        <path id="사각형_13743" data-name="사각형 13743" d="M-.25-.25H2.009V1.14H-.25Zm2.086.174H-.076V.967H1.836Z" transform="translate(8.773 21.001)" fill="#1a1311"/>
        <path id="사각형_13744" data-name="사각형 13744" d="M-.25-.25H2.618V1.575H-.25Zm2.694.174H-.076V1.4h2.52Z" transform="translate(18.68 18.134)" fill="#1a1311"/>
      </g>
    </g>
  </g>
</svg>
