<svg xmlns="http://www.w3.org/2000/svg" xmlns:xlink="http://www.w3.org/1999/xlink" width="131" height="38" viewBox="0 0 131 38">
  <defs>
    <clipPath id="clip-path">
      <rect id="Rectangle_13586" data-name="Rectangle 13586" width="131" height="38" transform="translate(765 1.222)" fill="#fff" stroke="#707070" stroke-width="1"/>
    </clipPath>
    <clipPath id="clip-path-2">
      <rect id="Rectangle_13614" data-name="Rectangle 13614" width="130.913" height="38" fill="none"/>
    </clipPath>
  </defs>
  <g id="Steer_All_-_Tractor_Trailer_-_Others_3_" data-name="Steer (All) - Tractor/Trailer - Others(3)" transform="translate(-765 -1.222)" clip-path="url(#clip-path)">
    <g id="Group_12624" data-name="Group 12624" transform="translate(765 1.222)">
      <path id="패스_59157" data-name="패스 59157" d="M332.071,70.008h-1.778V68.69l-1.372-1.59h-2.715v-.412h2.9l1.6,1.849V69.6h.954V63.927h.412Z" transform="translate(-201.751 -39.537)" fill="#1a1311"/>
      <path id="선_276" data-name="선 276" d="M4.578-.128H0V-.54H4.578Z" transform="translate(108.317 27.691)" fill="#1a1311"/>
      <path id="선_277" data-name="선 277" d="M2.213-.128H0V-.54H2.213Z" transform="translate(94.315 27.691)" fill="#1a1311"/>
      <g id="Group_12623" data-name="Group 12623" transform="translate(0 0.001)">
        <g id="Group_12622" data-name="Group 12622" clip-path="url(#clip-path-2)">
          <path id="Path_60202" data-name="Path 60202" d="M28.489,81.067A5.364,5.364,0,1,0,23.124,75.7a5.364,5.364,0,0,0,5.365,5.367" transform="translate(16.142 -43.503)" fill="#547abc"/>
          <path id="Path_60203" data-name="Path 60203" d="M28.489,81.067A5.364,5.364,0,1,0,23.124,75.7a5.364,5.364,0,0,0,5.365,5.367" transform="translate(73.829 -43.503)" fill="#547abc"/>
          <path id="Path_60204" data-name="Path 60204" d="M28.489,81.067A5.364,5.364,0,1,0,23.124,75.7a5.364,5.364,0,0,0,5.365,5.367" transform="translate(89.966 -43.503)" fill="#547abc"/>
          <path id="패스_59158" data-name="패스 59158" d="M18.172,41.017h-.137V29.745c0-1.339-.491-1.466-.53-1.474H9.559v-.137h7.958c.027,0,.656.083.656,1.611Z" transform="translate(-5.912 -17.4)" fill="#1a1311"/>
          <path id="패스_59159" data-name="패스 59159" d="M16.674,68.92l-.136-.016A12.843,12.843,0,0,1,17.6,65.321a7.212,7.212,0,0,1,1.84-2.471,4.816,4.816,0,0,1,3.16-1.129h8.84v.137H22.6a4.683,4.683,0,0,0-3.071,1.1,7.077,7.077,0,0,0-1.8,2.425A12.686,12.686,0,0,0,16.674,68.92Z" transform="translate(-10.228 -38.173)" fill="#1a1311"/>
          <path id="선_278" data-name="선 278" d="M19.878-.043H0V-.18H19.878Z" transform="translate(0.978 19.101)" fill="#1a1311"/>
          <path id="패스_59160" data-name="패스 59160" d="M3.5,58.624H1.472v-.137h1.89V49.773H3.5Z" transform="translate(-0.911 -30.783)" fill="#1a1311"/>
          <path id="패스_59161" data-name="패스 59161" d="M5.578,74.2H5.441V70.415H2.72v-.137H9.3v.137l-3.727.058Z" transform="translate(-1.682 -43.465)" fill="#1a1311"/>
          <path id="패스_59162" data-name="패스 59162" d="M2.87,33.758l-.014-.137c.452-.045,1.048-1,1.247-1.377l1.179-5.9L4.59,25.018H21.375v.137H4.817l.61,1.169L4.234,32.291V32.3C4.2,32.357,3.492,33.7,2.87,33.758Z" transform="translate(-1.767 -15.473)" fill="#1a1311"/>
          <path id="패스_59163" data-name="패스 59163" d="M15.908,36.646H9.5a.743.743,0,0,1-.743-.742v-.012l.77-4.225a.742.742,0,0,1,.741-.735h5.637a.742.742,0,0,1,.741.742V35.9a.742.742,0,0,1-.738.746ZM8.9,35.91a.606.606,0,0,0,.606.6h6.406a.6.6,0,0,0,.6-.6V31.674a.6.6,0,0,0-.6-.6H10.271a.6.6,0,0,0-.6.6v.012Z" transform="translate(-5.417 -19.131)" fill="#1a1311"/>
          <path id="패스_59164" data-name="패스 59164" d="M40.194,36.657H34.9a.618.618,0,0,1-.6-.367.926.926,0,0,1-.083-.357V32.079a.858.858,0,0,1,.859-.842h4.463a.816.816,0,0,1,.843.733h0l.478,3.836a.945.945,0,0,1-.187.658.619.619,0,0,1-.479.193Zm-5.12-5.282a.713.713,0,0,0-.723.7V35.93c0,.024.009.586.546.586h5.3a.487.487,0,0,0,.379-.147.814.814,0,0,0,.152-.55l-.477-3.833a.677.677,0,0,0-.708-.617H35.074Z" transform="translate(-21.16 -19.318)" fill="#1a1311"/>
          <path id="선_279" data-name="선 279" d="M9.672-.043H0V-.18H9.672Z" transform="translate(2.52 23.076)" fill="#1a1311"/>
          <path id="패스_59165" data-name="패스 59165" d="M1.947,83.257a.887.887,0,0,1-.855-.694l0-.023V81.033H1.5V82.49a.471.471,0,0,0,.448.355.558.558,0,0,0,.506-.313v-1.5h.412v1.58l-.013.035A.974.974,0,0,1,1.947,83.257Z" transform="translate(-0.672 -50.117)" fill="#1a1311"/>
          <path id="패스_59166" data-name="패스 59166" d="M128.727,74.257h-4.11v-.412h4.023l1.531-.672V71.209h-8.877V70.8h9.289v2.645Z" transform="translate(-75.018 -43.787)" fill="#1a1311"/>
          <path id="패스_59167" data-name="패스 59167" d="M22.3,46.158l-2.247-1.593v-.107a10.713,10.713,0,0,0-.411-3.088,6.4,6.4,0,0,0-.9-1.877,3.835,3.835,0,0,0-1.265-1.179h-5a3.386,3.386,0,0,0-2.262.877,6.4,6.4,0,0,0-1.463,1.977,12.076,12.076,0,0,0-1,2.911l-.031.17H0v-2.64a1.037,1.037,0,0,1,.773-.993V31.737l1.785-8.264A2.519,2.519,0,0,1,3.8,21.6a2.294,2.294,0,0,1,.971-.285H18.423a1.329,1.329,0,0,1,1.184.839,3.006,3.006,0,0,1,.261.771,40.99,40.99,0,0,1,1.268,8.489c.193,2.567.264,4.782.279,5.316a3.272,3.272,0,0,1,1.056,1.987,13.337,13.337,0,0,1,.285,1.446H42.242v.412H22.391L22.37,40.4a13.014,13.014,0,0,0-.3-1.576c-.26-1-.593-1.627-.938-1.769L21.01,37v-.134c0-.025-.062-2.492-.282-5.42a41.127,41.127,0,0,0-1.253-8.4v-.031c0-.013-.221-1.281-1.042-1.281H4.78a1.923,1.923,0,0,0-.8.243,2.125,2.125,0,0,0-1.022,1.576v.007L1.185,31.781v9.174l-.175.027a.964.964,0,0,0-.319.126.557.557,0,0,0-.278.5v2.227H7.395a12.448,12.448,0,0,1,1-2.854,6.808,6.808,0,0,1,1.561-2.1,3.786,3.786,0,0,1,2.532-.977h5.086l.039.017a3.975,3.975,0,0,1,1.45,1.307,6.768,6.768,0,0,1,.969,2,11,11,0,0,1,.435,3.124l1.849,1.31c.313-.2,1.2-.76,1.988-1.259l.051-.032h9.6l.533-1.127H39.64v.412H34.75l-.533,1.127H24.476c-.956.607-2.044,1.294-2.055,1.3Z" transform="translate(0 -13.185)" fill="#1a1311"/>
          <path id="패스_59168" data-name="패스 59168" d="M175.842,24.478H72.673L72.646,0h103.2ZM73.085,24.066H175.43V.412H73.059Z" transform="translate(-44.93)" fill="#1a1311"/>
          <path id="패스_59169" data-name="패스 59169" d="M57.009,34.677H54.491v-.412H56.6V32.507l-.764-.472-.6-12.447A.6.6,0,0,0,54.8,19.3a.86.86,0,0,0-.569.291l.587,11.948a.952.952,0,0,1-.124.778.433.433,0,0,1-.319.16v-.412h-.016c.039-.009.106-.14.051-.472v-.012l-.6-12.136.05-.061a1.345,1.345,0,0,1,.956-.5,1.021,1.021,0,0,1,.8.511l.033.048L56.235,31.8l.775.478Z" transform="translate(-33.279 -11.683)" fill="#1a1311"/>
          <path id="선_280" data-name="선 280" d="M-.128,23.945H-.54V0h.412Z" transform="translate(29.707 0.265)" fill="#1a1311"/>
          <path id="선_281" data-name="선 281" d="M99.85-.128H0V-.54H99.85Z" transform="translate(29.373 2.082)" fill="#1a1311"/>
          <path id="선_282" data-name="선 282" d="M-.043,23.945H-.18V0h.137Z" transform="translate(129.335 0.265)" fill="#1a1311"/>
          <path id="패스_59170" data-name="패스 59170" d="M155.831,71.186v-8.11h2.37v7.646Zm.412-7.7v7.2l1.546-.3v-6.9Z" transform="translate(-96.378 -39.012)" fill="#1a1311"/>
          <path id="패스_59171" data-name="패스 59171" d="M155.868,86.706A2.136,2.136,0,1,1,158,84.569a2.136,2.136,0,0,1-2.132,2.137Zm0-3.86a1.724,1.724,0,1,0,1.722,1.723A1.724,1.724,0,0,0,155.868,82.846Z" transform="translate(-95.079 -50.984)" fill="#1a1311"/>
          <path id="사각형_13595" data-name="사각형 13595" d="M-.18-.18H27.134V2.151H-.18ZM27-.043H-.043V2.014H27Z" transform="translate(66.119 24.383)" fill="#1a1311"/>
          <path id="사각형_13596" data-name="사각형 13596" d="M-.18-.18H27.134V2.155H-.18ZM27-.043H-.043v2.06H27Z" transform="translate(66.119 27.703)" fill="#1a1311"/>
          <path id="패스_59172" data-name="패스 59172" d="M199.332,70.468H169.467V63.617h.412v6.439H198.92v-6.38h.412Z" transform="translate(-104.811 -39.346)" fill="#1a1311"/>
          <path id="패스_59173" data-name="패스 59173" d="M251.675,68.835H249.8l.054-.25a7.446,7.446,0,0,1,1.313-2.677,6.663,6.663,0,0,1,2.145-1.841,7.462,7.462,0,0,1,3.568-.836,7.6,7.6,0,0,1,3.583.83,6.876,6.876,0,0,1,2.185,1.828,7.586,7.586,0,0,1,1.374,2.66l.061.254h-2l-.053-.126a5.809,5.809,0,0,0-1.169-1.637,5.553,5.553,0,0,0-1.591-1.114,5.886,5.886,0,0,0-4.791.009,5.558,5.558,0,0,0-1.593,1.131,5.82,5.82,0,0,0-1.158,1.64Zm-1.351-.412h1.082a6.414,6.414,0,0,1,1.187-1.645,5.968,5.968,0,0,1,1.711-1.214,6.3,6.3,0,0,1,5.148,0,5.969,5.969,0,0,1,1.711,1.2A6.365,6.365,0,0,1,262.35,68.4h1.193a7.559,7.559,0,0,0-1.23-2.259,6.462,6.462,0,0,0-2.053-1.712,7.2,7.2,0,0,0-3.382-.778,7.06,7.06,0,0,0-3.364.782,6.25,6.25,0,0,0-2.012,1.72,7.4,7.4,0,0,0-1.178,2.275Z" transform="translate(-154.494 -39.108)" fill="#1a1311"/>
          <path id="패스_59174" data-name="패스 59174" d="M293.77,68.835h-1.876l.054-.25a7.447,7.447,0,0,1,1.313-2.677,6.663,6.663,0,0,1,2.145-1.841,7.462,7.462,0,0,1,3.568-.836,7.6,7.6,0,0,1,3.583.83,6.876,6.876,0,0,1,2.185,1.828,7.585,7.585,0,0,1,1.375,2.66l.062.254h-2l-.053-.126a5.811,5.811,0,0,0-1.169-1.637,5.552,5.552,0,0,0-1.59-1.114,5.882,5.882,0,0,0-4.789.009,5.56,5.56,0,0,0-1.593,1.131,5.82,5.82,0,0,0-1.158,1.64Zm-1.35-.412h1.08a6.417,6.417,0,0,1,1.187-1.645,5.97,5.97,0,0,1,1.712-1.214,6.293,6.293,0,0,1,5.146,0,5.967,5.967,0,0,1,1.711,1.2,6.368,6.368,0,0,1,1.187,1.631h1.2a7.561,7.561,0,0,0-1.23-2.259,6.463,6.463,0,0,0-2.053-1.712,7.2,7.2,0,0,0-3.382-.778,7.06,7.06,0,0,0-3.364.782,6.25,6.25,0,0,0-2.012,1.72,7.393,7.393,0,0,0-1.182,2.275Z" transform="translate(-180.53 -39.108)" fill="#1a1311"/>
          <path id="사각형_13597" data-name="사각형 13597" d="M-.18-.18H9.629V2.5H-.18Zm9.672.137H-.043V2.363H9.492Z" transform="translate(24.468 28.841)" fill="#1a1311"/>
          <path id="선_283" data-name="선 283" d="M1.363-.128H0V-.54H1.363Z" transform="translate(20.797 8.762)" fill="#1a1311"/>
          <path id="사각형_13598" data-name="사각형 13598" d="M-.18-.18H.907V6.366H-.18Zm.95.137H-.043V6.228H.77Z" transform="translate(34.912 17.982)" fill="#1a1311"/>
          <path id="사각형_13599" data-name="사각형 13599" d="M-.18-.18H.907V6.366H-.18Zm.95.137H-.043V6.228H.77Z" transform="translate(41.556 17.982)" fill="#1a1311"/>
          <path id="사각형_13600" data-name="사각형 13600" d="M-.18-.18H.907V6.366H-.18Zm.95.137H-.043V6.228H.77Z" transform="translate(48.202 17.982)" fill="#1a1311"/>
          <path id="사각형_13601" data-name="사각형 13601" d="M-.18-.18H.9V6.366H-.18Zm.946.137H-.043V6.228H.766Z" transform="translate(54.849 17.982)" fill="#1a1311"/>
          <path id="사각형_13602" data-name="사각형 13602" d="M-.18-.18H.907V6.366H-.18Zm.95.137H-.043V6.228H.77Z" transform="translate(61.493 17.982)" fill="#1a1311"/>
          <path id="사각형_13603" data-name="사각형 13603" d="M-.18-.18H.907V6.366H-.18Zm.95.137H-.043V6.228H.77Z" transform="translate(68.137 17.982)" fill="#1a1311"/>
          <path id="사각형_13604" data-name="사각형 13604" d="M-.18-.18H.907V6.366H-.18Zm.95.137H-.043V6.228H.77Z" transform="translate(74.781 17.982)" fill="#1a1311"/>
          <path id="사각형_13605" data-name="사각형 13605" d="M-.18-.18H.907V6.366H-.18Zm.95.137H-.043V6.228H.77Z" transform="translate(81.549 17.982)" fill="#1a1311"/>
          <path id="사각형_13606" data-name="사각형 13606" d="M-.18-.18H.907V6.366H-.18Zm.95.137H-.043V6.228H.77Z" transform="translate(88.194 17.982)" fill="#1a1311"/>
          <path id="사각형_13607" data-name="사각형 13607" d="M-.18-.18H.9V6.366H-.18Zm.947.137h-.81V6.228h.81Z" transform="translate(94.842 17.982)" fill="#1a1311"/>
          <path id="사각형_13608" data-name="사각형 13608" d="M-.18-.18H.907V6.366H-.18Zm.95.137H-.043V6.228H.77Z" transform="translate(101.487 17.982)" fill="#1a1311"/>
          <path id="사각형_13609" data-name="사각형 13609" d="M-.18-.18H.907V6.366H-.18Zm.95.137H-.043V6.228H.77Z" transform="translate(108.131 17.982)" fill="#1a1311"/>
          <path id="사각형_13610" data-name="사각형 13610" d="M-.18-.18H.907V6.366H-.18Zm.95.137H-.043V6.228H.77Z" transform="translate(114.54 17.982)" fill="#1a1311"/>
          <path id="사각형_13611" data-name="사각형 13611" d="M-.18-.18H.907V6.366H-.18Zm.95.137H-.043V6.228H.77Z" transform="translate(120.949 17.982)" fill="#1a1311"/>
          <path id="Path_59175" data-name="Path 59175" d="M28.489,81.067A5.364,5.364,0,1,0,23.124,75.7a5.364,5.364,0,0,0,5.365,5.367" transform="translate(-14.302 -43.503)" fill="#e85400"/>
          <path id="패스_59176" data-name="패스 59176" d="M28.155,80.939a5.572,5.572,0,1,1,3.939-1.631A5.572,5.572,0,0,1,28.155,80.939Zm0-10.728a5.127,5.127,0,1,0,3.656,1.5,5.157,5.157,0,0,0-3.656-1.5Z" transform="translate(-13.968 -43.169)" fill="#1a1311"/>
          <path id="패스_59178" data-name="패스 59178" d="M107.95,80.939a5.569,5.569,0,1,1,3.94-1.631,5.569,5.569,0,0,1-3.94,1.631Zm0-10.728a5.157,5.157,0,1,0,3.649,1.51,5.157,5.157,0,0,0-3.649-1.51Z" transform="translate(-63.319 -43.169)" fill="#1a1311"/>
          <path id="패스_59179" data-name="패스 59179" d="M112.3,82.6a2.892,2.892,0,1,1,2.894-2.893A2.892,2.892,0,0,1,112.3,82.6Zm0-5.647a2.755,2.755,0,1,0,2.757,2.754,2.755,2.755,0,0,0-2.757-2.754Z" transform="translate(-67.664 -47.51)" fill="#1a1311"/>
          <path id="패스_59180" data-name="패스 59180" d="M259.148,81.539a5.572,5.572,0,1,1,3.94-1.632A5.572,5.572,0,0,1,259.148,81.539Zm0-10.73A5.158,5.158,0,1,0,262.8,72.32a5.158,5.158,0,0,0-3.652-1.511Z" transform="translate(-156.831 -43.539)" fill="#1a1311"/>
          <path id="패스_59182" data-name="패스 59182" d="M301.447,81.539a5.572,5.572,0,1,1,3.94-1.632A5.572,5.572,0,0,1,301.447,81.539Zm0-10.73A5.158,5.158,0,1,0,305.1,72.32a5.158,5.158,0,0,0-3.653-1.511Z" transform="translate(-182.992 -43.539)" fill="#1a1311"/>
          <path id="사각형_13612" data-name="사각형 13612" d="M-.54-.54H10.229V.787H-.54ZM9.816-.128H-.128v.5H9.816Z" transform="translate(40.087 24.643)" fill="#1a1311"/>
          <path id="사각형_13613" data-name="사각형 13613" d="M-.54-.54H10.173v1.9H-.54Zm10.3.412H-.128V.946H9.761Z" transform="translate(40.142 25.672)" fill="#1a1311"/>
          <circle id="타원_60" data-name="타원 60" cx="3.1" cy="3.1" r="3.1" transform="translate(11.087 29.101)" fill="#a3a3a3"/>
          <circle id="타원_61" data-name="타원 61" cx="3.1" cy="3.1" r="3.1" transform="translate(41.538 29.101)" fill="#a3a3a3"/>
          <circle id="타원_62" data-name="타원 62" cx="3.1" cy="3.1" r="3.1" transform="translate(99.216 29.328)" fill="#a3a3a3"/>
          <circle id="타원_63" data-name="타원 63" cx="3.1" cy="3.1" r="3.1" transform="translate(115.354 29.328)" fill="#a3a3a3"/>
        </g>
      </g>
    </g>
  </g>
</svg>
