<svg xmlns="http://www.w3.org/2000/svg" xmlns:xlink="http://www.w3.org/1999/xlink" width="88" height="38" viewBox="0 0 88 38">
  <defs>
    <clipPath id="clip-path">
      <rect id="Rectangle_13720" data-name="Rectangle 13720" width="88" height="38" transform="translate(765 1.222)" fill="#fff" stroke="#707070" stroke-width="1"/>
    </clipPath>
    <clipPath id="clip-path-2">
      <rect id="Rectangle_13747" data-name="Rectangle 13747" width="86.39" height="38" fill="none"/>
    </clipPath>
  </defs>
  <g id="Steer_All_-_Truck_-_Others_1_" data-name="Steer (All) - Truck - Others(1)" transform="translate(-765 -1.222)" clip-path="url(#clip-path)">
    <g id="Group_12680" data-name="Group 12680" transform="translate(765 1.223)">
      <g id="Group_12679" data-name="Group 12679" clip-path="url(#clip-path-2)">
        <path id="패스_59551" data-name="패스 59551" d="M26.4.2H85.839V1.977a1.946,1.946,0,0,1,.6,1.109A22.72,22.72,0,0,1,86.758,9.7V21.779a3.217,3.217,0,0,1-.108.774c-.182.652-.528.829-.811.853v.915H84.33V25.7H83.148v2.953h-2.8a.656.656,0,0,0-.081.006,1.488,1.488,0,0,0,.164.119c.128.056.963.451,1.034,1.13.047.452-.251.9-.886,1.34l-.045.031H72.159l-.039-.021a3.289,3.289,0,0,1-.539-.376,1.231,1.231,0,0,1-.533-.979c.032-.452.465-.834,1.286-1.134a.526.526,0,0,0,.086-.052.89.89,0,0,0-.175-.066h-.968l-4.129,2.967a5.218,5.218,0,0,1,.131,1.124,5.355,5.355,0,0,1-10.668.681L51.626,31.8H45.147l-1.313-1.314h-1.85v.79H33.562l-.524-.919H31.744l-1.576.919H26.5l-1.467.933-1.9-.509H21.416a5.056,5.056,0,0,1,.115,1.043,5.37,5.37,0,1,1-10.74,0,5.085,5.085,0,0,1,.117-1.043H4.981l-2.39-1.23H1.452a.5.5,0,0,1-.375-.158,1.009,1.009,0,0,1-.2-.681v-.783a.859.859,0,0,1,.514-.869l.028-.009h.815v-7a1.725,1.725,0,0,1,.607-1.326,2.169,2.169,0,0,1,.521-.339l2.345-7.119a3.152,3.152,0,0,1,2.927-1.551H20.153A2.319,2.319,0,0,1,21,10.9a2.138,2.138,0,0,1,1.019,1.154A1.243,1.243,0,0,1,22.9,11.7a1.157,1.157,0,0,1,1.2,1.106,1.091,1.091,0,0,1-.743,1.007,5.956,5.956,0,0,0,.616,3.152l.025.042v8.254c.233.3.836.935,1.345.935.659,0,.939-1.12,1.058-2.065ZM85.485.554H26.752V24.165c-.2,1.583-.673,2.386-1.411,2.386-.825,0-1.631-1.079-1.664-1.125l-.035-.047V17.1a6.375,6.375,0,0,1-.632-3.435l.009-.125.121-.033a.759.759,0,0,0,.6-.7.8.8,0,0,0-.845-.751.846.846,0,0,0-.78.469L21.9,13l-.114-.516a1.813,1.813,0,0,0-.933-1.27,2.016,2.016,0,0,0-.716-.225H8.638a2.819,2.819,0,0,0-2.6,1.333L3.65,19.575l-.081.029a1.513,1.513,0,0,0-.977,1.365v7.354h-1.1a.538.538,0,0,0-.253.524v.8a.689.689,0,0,0,.1.422.147.147,0,0,0,.116.046H2.677l2.39,1.225,6.289,0-.053.219a5.008,5.008,0,1,0,9.875,1.178,4.93,4.93,0,0,0-.155-1.178l-.054-.219h2.216l1.786.484,1.422-.9h3.68l1.576-.919h1.6l.524.919h7.861v-.79h2.352L45.3,31.453h6.389l5.255,1.708.012.114a5.03,5.03,0,0,0,1.611,3.187,4.988,4.988,0,0,0,8.216-4.872l-.027-.116L71.162,28.3h1.13l.023.006c.2.055.472.155.489.385s-.25.371-.332.408h-.011c-.672.244-1.039.531-1.06.828-.029.408.57.838.848,1H80.42c.607-.431.711-.77.69-.98-.043-.424-.616-.756-.834-.847l-.014-.006-.013-.008c-.139-.089-.466-.3-.393-.545.063-.218.363-.241.488-.241h2.448V25.345h1.182V23.966h1.509v-.948l.2.029a.574.574,0,0,0,.081.006c.248,0,.429-.2.54-.6a2.877,2.877,0,0,0,.1-.678V9.688c.355-6.607-.687-7.374-.784-7.43H85.45l.03-.169Z" transform="translate(-0.49 -0.111)" fill="#1a1311"/>
        <path id="패스_59552" data-name="패스 59552" d="M48.862,28.346a1.2,1.2,0,1,1,1.288-1.2A1.245,1.245,0,0,1,48.862,28.346Zm0-1.858a.669.669,0,1,0,.756.662.714.714,0,0,0-.756-.662Z" transform="translate(-26.495 -14.455)" fill="#1a1311"/>
        <path id="패스_59553" data-name="패스 59553" d="M98.582,31.929l-.31-.432L103,28.1h1.171l.034.009c.131.036.53.145.554.464.022.292-.289.453-.384.5l-.017.007c-.628.228-.983.5-1,.751-.024.328.485.726.783.9h8.118c.321-.232.664-.559.63-.883-.04-.381-.59-.694-.779-.774l-.021-.009-.019-.012c-.156-.1-.522-.332-.431-.645.08-.276.428-.305.573-.305h2.36V25.145h1.182V23.766h1.509V.532H58.711V.9h-.532V0H117.8V24.3h-1.509v1.379h-1.182v2.953h-2.678a1.678,1.678,0,0,1,.992,1.158c.05.486-.26.965-.924,1.422l-.068.047h-8.422l-.059-.031c-.12-.064-1.175-.652-1.119-1.439.033-.463.438-.852,1.2-1.157h-.859Z" transform="translate(-32.401)" fill="#1a1311"/>
        <path id="선_323" data-name="선 323" d="M-.046,23.11H-.4V0h.354Z" transform="translate(35.064 0.922)" fill="#1a1311"/>
        <path id="선_324" data-name="선 324" d="M-.046,23.11H-.4V0h.354Z" transform="translate(44.124 0.922)" fill="#1a1311"/>
        <path id="선_325" data-name="선 325" d="M-.046,23.11H-.4V0h.354Z" transform="translate(53.053 0.922)" fill="#1a1311"/>
        <path id="선_326" data-name="선 326" d="M-.046,23.11H-.4V0h.354Z" transform="translate(61.982 0.922)" fill="#1a1311"/>
        <path id="선_327" data-name="선 327" d="M-.046,23.11H-.4V0h.354Z" transform="translate(70.911 0.922)" fill="#1a1311"/>
        <path id="선_328" data-name="선 328" d="M-.046,23.11H-.4V0h.354Z" transform="translate(79.708 0.922)" fill="#1a1311"/>
        <path id="사각형_13746" data-name="사각형 13746" d="M-.6-.6H58.1V23.042H-.6Zm58.168.532H-.068V22.51H57.568Z" transform="translate(26.378 1.256)" fill="#1a1311"/>
        <path id="패스_59554" data-name="패스 59554" d="M56.619,46.592,51.407,44.9H44.9l-1.313-1.313h-1.72v.789H33.306l-.525-.919H31.562l-1.576.919h-3.67l-1.478.94-1.917-.52H10.832l-6.078-.005L2.365,43.564H1.247a.587.587,0,0,1-.44-.187,1.077,1.077,0,0,1-.22-.744v-.78a.954.954,0,0,1,.574-.953l.041-.014h.741V33.975a1.811,1.811,0,0,1,.637-1.392,2.271,2.271,0,0,1,.507-.336l2.33-7.078.005-.012A2.675,2.675,0,0,1,7.308,23.7a4.524,4.524,0,0,1,1.256-.14H19.952a2.426,2.426,0,0,1,.914.276,2.257,2.257,0,0,1,1.17,1.646V37.515H21.5V25.553a1.722,1.722,0,0,0-.892-1.252,1.934,1.934,0,0,0-.688-.215H8.541a4.024,4.024,0,0,0-1.113.127,2.136,2.136,0,0,0-1.513,1.148l-2.4,7.288-.122.044a1.426,1.426,0,0,0-.918,1.282v7.442H1.307a.474.474,0,0,0-.189.435v.806a.607.607,0,0,0,.077.356c.007.008.017.018.051.018H2.493l2.389,1.225,5.95.005H22.991l1.759.477,1.411-.9h3.682l1.576-.919H33.09l.525.919h7.721V43.05h2.477l1.313,1.313h6.366l5.292,1.72Z" transform="translate(-0.326 -13.117)" fill="#1a1311"/>
        <path id="패스_59555" data-name="패스 59555" d="M15.317,42.953H10.5l-.523-1.992V34.828l1.848-6.111a1.8,1.8,0,0,1,.989-1.159,1.679,1.679,0,0,1,.67-.147H26.959v.354H13.472a1.389,1.389,0,0,0-1.312,1.059L10.328,34.88v6.035L10.77,42.6h4.547Z" transform="translate(-5.555 -15.266)" fill="#1a1311"/>
        <path id="패스_59556" data-name="패스 59556" d="M15.139,29.382h6.174V34.9H15.666l-1.094.963H12.523L14.03,30.2a1.143,1.143,0,0,1,1.109-.821Zm.045.356h-.045a.787.787,0,0,0-.771.578l-1.384,5.2h1.454l1.094-.963h5.426v-4.81H15.184Z" transform="translate(-6.974 -16.363)" fill="#1a1311"/>
        <path id="선_329" data-name="선 329" d="M-.046,5.16H-.4V0h.354Z" transform="translate(8.842 13.199)" fill="#1a1311"/>
        <path id="패스_59557" data-name="패스 59557" d="M22.364,36H4.549v-.354h17.46V28.471a.6.6,0,0,0-.425-.584,1.529,1.529,0,0,0-.47-.11l.013-.354a1.863,1.863,0,0,1,.6.138.95.95,0,0,1,.641.91Z" transform="translate(-2.533 -15.273)" fill="#1a1311"/>
        <path id="선_330" data-name="선 330" d="M-.046,12.036H-.4V0h.354Z" transform="translate(14.997 12.389)" fill="#1a1311"/>
        <path id="패스_59558" data-name="패스 59558" d="M37.567,29.484a.734.734,0,0,1,.784.69v3.939a.729.729,0,0,1-.767.59H35.1c-.027,0-.662-.117-.706-.642v-3.9c-.02-.213.032-.582.352-.663l.021,0h2.8ZM38,30.2a.384.384,0,0,0-.43-.357H34.821c-.071.039-.078.223-.071.287v3.9c.024.22.332.3.4.313h2.432A.378.378,0,0,0,38,34.067Z" transform="translate(-19.154 -16.42)" fill="#1a1311"/>
        <path id="패스_59559" data-name="패스 59559" d="M6.855,65.594H6.5V61.958l-2.221.5V64.4H3.926V62.169l2.93-.654Z" transform="translate(-2.186 -34.259)" fill="#1a1311"/>
        <path id="패스_59560" data-name="패스 59560" d="M14.479,61.946H10.494V58.012h-.463v-.354h.817v3.934h3.471a15.468,15.468,0,0,1,.8-3.411A7.357,7.357,0,0,1,16.558,55.7a3.383,3.383,0,0,1,2.533-1.158H27v.138h.177V54.9H19.091a3.041,3.041,0,0,0-2.272,1.044,7,7,0,0,0-1.361,2.36,15.292,15.292,0,0,0-.8,3.487l-.014.162Z" transform="translate(-5.586 -30.373)" fill="#1a1311"/>
        <path id="패스_59561" data-name="패스 59561" d="M13.02,63.468h3.348l-.092.241a9.987,9.987,0,0,0-.563,3.046v.175H13.02Zm2.842.354H13.374v2.753h1.988a10.31,10.31,0,0,1,.5-2.753Z" transform="translate(-7.251 -35.346)" fill="#1a1311"/>
        <path id="선_331" data-name="선 331" d="M7.123-.046H0V-.4H7.123Z" transform="translate(4.575 25.108)" fill="#1a1311"/>
        <path id="패스_59562" data-name="패스 59562" d="M5.523,56.231H5.168V51.737a.416.416,0,0,0-.182-.288,1.1,1.1,0,0,0-.746-.059l-.089-.343a1.473,1.473,0,0,1,1.027.1.767.767,0,0,1,.341.54V51.7Z" transform="translate(-2.312 -28.401)" fill="#1a1311"/>
        <path id="선_332" data-name="선 332" d="M1.531-.046H0V-.4H1.531Z" transform="translate(3.044 23.958)" fill="#1a1311"/>
        <path id="선_333" data-name="선 333" d="M1.543-.046H0V-.4H1.543Z" transform="translate(3.065 25.961)" fill="#1a1311"/>
        <path id="선_334" data-name="선 334" d="M1.51-.046H0V-.4H1.51Z" transform="translate(12.487 22.022)" fill="#1a1311"/>
        <path id="패스_59563" data-name="패스 59563" d="M21.468,61.835l-.351-.052a17.87,17.87,0,0,1,.814-3.137,7.724,7.724,0,0,1,1.164-2.183,2.422,2.422,0,0,1,1.875-1.035h7.34l.735-.8.261.24-.84.911h-7.5a2.088,2.088,0,0,0-1.6.9,7.368,7.368,0,0,0-1.106,2.079,17.482,17.482,0,0,0-.792,3.077Z" transform="translate(-11.761 -30.425)" fill="#1a1311"/>
        <path id="패스_59564" data-name="패스 59564" d="M24.242,59.491a.439.439,0,0,1-.316-.143.552.552,0,0,1-.136-.6l.325.141h0a.2.2,0,0,0,.06.213c.043.043.065.04.072.039.072-.011.179-.147.226-.236l0-.01.007-.01A3.05,3.05,0,0,1,26.5,57.438H32a.5.5,0,0,0,.094-.358c0-.248-.063-.3-.064-.3a.07.07,0,0,0,.035.008l.018-.354c.037,0,.365.037.365.647,0,.569-.3.691-.338.7l-.028.01H26.524a1.8,1.8,0,0,0-.553.194,3.391,3.391,0,0,0-1.187,1.088.78.78,0,0,1-.48.412A.4.4,0,0,1,24.242,59.491Z" transform="translate(-13.228 -31.428)" fill="#1a1311"/>
        <path id="패스_59565" data-name="패스 59565" d="M4.98,33.585H0V31.646l.583-1.08.14-2.047a1.174,1.174,0,0,1,1.03-1.033h.011l3.468-.218c.154-.031,1.407-.258,1.8.477l-.313.167c-.235-.441-1.109-.362-1.425-.294H5.266l-3.474.218a.829.829,0,0,0-.716.714L.931,30.668.354,31.736v1.495H4.98Z" transform="translate(0 -15.154)" fill="#1a1311"/>
        <path id="패스_59566" data-name="패스 59566" d="M1.523,33.036H1.51l-.942-.067.025-.354.935.066A.364.364,0,0,0,1.9,32.4l.467-2.387a.135.135,0,0,0-.04-.1.421.421,0,0,0-.264-.071H1.227v-.354h.816a.759.759,0,0,1,.521.166.5.5,0,0,1,.153.373v.017l-.474,2.425a.723.723,0,0,1-.72.567Z" transform="translate(-0.317 -16.42)" fill="#1a1311"/>
        <path id="패스_59567" data-name="패스 59567" d="M48.744,56.915H48.67c-.514-.043-.956-.52-1.316-1.419l.494-.2c.271.677.579,1.063.867,1.087.314.026.631-.373.718-.515l.454.277C49.866,56.176,49.408,56.915,48.744,56.915Z" transform="translate(-26.372 -30.795)" fill="#1a1311"/>
        <path id="패스_59568" data-name="패스 59568" d="M52.918,43.52a1.8,1.8,0,0,1-1.137-.525,4.366,4.366,0,0,1-.6-.636l-.052-.07V34.006a6.5,6.5,0,0,1-.631-3.5l.53.042a5.9,5.9,0,0,0,.594,3.248l.038.063v8.247c.258.322.907.985,1.376.862.4-.106.7-.81.852-1.983l.528.066c-.183,1.465-.591,2.261-1.245,2.432a1.012,1.012,0,0,1-.253.037Z" transform="translate(-28.113 -16.991)" fill="#1a1311"/>
        <path id="패스_59569" data-name="패스 59569" d="M192.129,25.538a1,1,0,0,1-.143-.01l.076-.526a.327.327,0,0,0,.283-.074,1.8,1.8,0,0,0,.332-1.107v-12.1c.36-6.712-.728-7.343-.74-7.348a.149.149,0,0,0,.034.01l.1-.521c.147.029.519.208.811,1.238a22.789,22.789,0,0,1,.322,6.643V23.82a2.261,2.261,0,0,1-.515,1.509.844.844,0,0,1-.56.209Z" transform="translate(-106.893 -2.153)" fill="#1a1311"/>
        <path id="Path_59570" data-name="Path 59570" d="M28.751,72.311a5.192,5.192,0,1,0-5.193-5.192,5.192,5.192,0,0,0,5.193,5.192" transform="translate(-13.12 -34.489)" fill="#ea6018"/>
        <path id="패스_59571" data-name="패스 59571" d="M28.528,72.266a5.369,5.369,0,1,1,3.8-1.572,5.369,5.369,0,0,1-3.8,1.572Zm0-10.383a4.98,4.98,0,1,0,3.557,1.459,5.014,5.014,0,0,0-3.557-1.459Z" transform="translate(-12.897 -34.266)" fill="#1a1311"/>
        <path id="Path_59574" data-name="Path 59574" d="M132,72.311a5.192,5.192,0,1,0-5.193-5.192A5.192,5.192,0,0,0,132,72.311" transform="translate(-70.621 -34.489)" fill="#547abc"/>
        <path id="패스_59575" data-name="패스 59575" d="M131.778,72.266a5.369,5.369,0,1,1,3.8-1.572,5.369,5.369,0,0,1-3.8,1.572Zm0-10.383a5.015,5.015,0,1,0,3.546,1.469,5.015,5.015,0,0,0-3.546-1.469Z" transform="translate(-70.399 -34.266)" fill="#1a1311"/>
        <circle id="타원_64" data-name="타원 64" cx="2.9" cy="2.9" r="2.9" transform="translate(12.735 29.731)" fill="#a3a3a3"/>
        <circle id="타원_65" data-name="타원 65" cx="2.9" cy="2.9" r="2.9" transform="translate(58.483 29.731)" fill="#a3a3a3"/>
      </g>
    </g>
  </g>
</svg>
