<svg xmlns="http://www.w3.org/2000/svg" xmlns:xlink="http://www.w3.org/1999/xlink" width="151" height="38" viewBox="0 0 151 38">
  <defs>
    <clipPath id="clip-path">
      <rect id="Rectangle_13582" data-name="Rectangle 13582" width="151" height="38" transform="translate(765 1.222)" fill="#fff" stroke="#707070" stroke-width="1"/>
    </clipPath>
    <clipPath id="clip-path-2">
      <rect id="Rectangle_13589" data-name="Rectangle 13589" width="150.53" height="38" fill="none"/>
    </clipPath>
  </defs>
  <g id="Steer_All_-_Tractor_Trailer_-_Others_1_" data-name="Steer (All) - Tractor/Trailer - Others(1)" transform="translate(-765 -1.222)" clip-path="url(#clip-path)">
    <g id="Group_12619" data-name="Group 12619" transform="translate(765 1.223)">
      <g id="Group_12618" data-name="Group 12618" clip-path="url(#clip-path-2)">
        <path id="Path_60195" data-name="Path 60195" d="M38.024,94.873a4.785,4.785,0,1,0-4.785-4.785,4.785,4.785,0,0,0,4.785,4.785" transform="translate(66.67 -57.05)" fill="#547abc"/>
        <path id="Path_60196" data-name="Path 60196" d="M38.024,94.873a4.785,4.785,0,1,0-4.785-4.785,4.785,4.785,0,0,0,4.785,4.785" transform="translate(78.822 -57.05)" fill="#547abc"/>
        <path id="Path_60197" data-name="Path 60197" d="M38.024,94.873a4.785,4.785,0,1,0-4.785-4.785,4.785,4.785,0,0,0,4.785,4.785" transform="translate(90.464 -57.05)" fill="#547abc"/>
        <path id="Path_60194" data-name="Path 60194" d="M38.024,94.873a4.785,4.785,0,1,0-4.785-4.785,4.785,4.785,0,0,0,4.785,4.785" transform="translate(10.329 -57.052)" fill="#547abc"/>
        <path id="사각형_13587" data-name="사각형 13587" d="M-.54-.54H121.768V25.938H-.54Zm121.95.358H-.182V25.58H121.41Z" transform="translate(28.762 0.54)" fill="#1a1311"/>
        <path id="패스_59142" data-name="패스 59142" d="M19.31,56.6h-.358V55.18H3.829l-2.607-.836-.689-.482a.322.322,0,0,1-.155-.091c-.119-.12-.284-.428-.351-1.7C-.007,51.4,0,50.778,0,50.743V49.9a.9.9,0,0,1,.543-.917l.027-.009H.89V41.481a1.836,1.836,0,0,1,.645-1.411,2.3,2.3,0,0,1,.559-.362l2.5-7.6V32.1a2.759,2.759,0,0,1,1.943-1.5,4.706,4.706,0,0,1,1.313-.146H20.029a2.479,2.479,0,0,1,.934.284,2.313,2.313,0,0,1,1.2,1.687V45.2h-.358V32.468A1.946,1.946,0,0,0,20.8,31.046a2.143,2.143,0,0,0-.782-.242H7.842a4.4,4.4,0,0,0-1.217.138,2.384,2.384,0,0,0-1.693,1.292L2.381,39.98l-.082.03a1.883,1.883,0,0,0-.536.337,1.467,1.467,0,0,0-.515,1.134v7.852H.638a.587.587,0,0,0-.279.569v.846c0,.006-.01.653.027,1.328.062,1.137.2,1.383.24,1.432H.657l.726.508,2.5.8,15.424.005Z" transform="translate(0 -20.361)" fill="#1a1311"/>
        <path id="패스_59143" data-name="패스 59143" d="M17.39,52.393H12.337l-.528-2.017V43.848l1.965-6.5a1.833,1.833,0,0,1,.986-1.161,1.642,1.642,0,0,1,.663-.146H29.836v.119H15.422a1.547,1.547,0,0,0-.616.138,1.677,1.677,0,0,0-.915,1.085l-1.962,6.495v6.488l.5,1.913H17.39Z" transform="translate(-7.898 -24.102)" fill="#1a1311"/>
        <path id="패스_59144" data-name="패스 59144" d="M18.195,38.854h6.473V44.5H18.709L17.54,45.529H15.568l1.565-5.879a1.1,1.1,0,0,1,1.062-.8Zm6.351.122H18.195a.966.966,0,0,0-.949.711l-1.523,5.724h1.771l1.169-1.029h5.882Z" transform="translate(-10.412 -25.986)" fill="#1a1311"/>
        <path id="선_276" data-name="선 276" d="M-.061,5.517H-.18V0h.119Z" transform="translate(8.389 12.93)" fill="#1a1311"/>
        <path id="패스_59145" data-name="패스 59145" d="M22.567,44.967H3.651v-.119h18.8v-7.8a.772.772,0,0,0-.534-.743,1.745,1.745,0,0,0-.549-.126V36.06a1.843,1.843,0,0,1,.591.136.893.893,0,0,1,.606.853Z" transform="translate(-2.442 -24.116)" fill="#1a1311"/>
        <path id="선_277" data-name="선 277" d="M-.061,12.868H-.18V0h.119Z" transform="translate(14.969 12.064)" fill="#1a1311"/>
        <path id="패스_59146" data-name="패스 59146" d="M49.994,39a.653.653,0,0,1,.708.617V43.8a.652.652,0,0,1-.692.519H47.38c-.025,0-.608-.108-.647-.568V39.578c0-.047-.037-.5.279-.575h2.982Zm.589.624a.543.543,0,0,0-.589-.5h-2.96c-.22.063-.183.445-.182.449v4.17c.031.347.492.448.543.458h2.614a.531.531,0,0,0,.573-.413Z" transform="translate(-31.254 -26.084)" fill="#1a1311"/>
        <path id="패스_59147" data-name="패스 59147" d="M6.027,91.352H5.908V85.064l-2.633.586v4.7h-.12v-4.8l2.872-.639Z" transform="translate(-2.11 -56.793)" fill="#1a1311"/>
        <path id="패스_59148" data-name="패스 59148" d="M16.161,87.6H19.4l-.011.069a55.1,55.1,0,0,0-.613,5.554v.059H16.161Zm3.1.119H16.28v5.444h2.382c.028-1.632.524-4.923.6-5.44Z" transform="translate(-10.809 -58.591)" fill="#1a1311"/>
        <path id="선_278" data-name="선 278" d="M7.615-.061H0V-.18H7.615Z" transform="translate(3.947 25.544)" fill="#1a1311"/>
        <path id="패스_59149" data-name="패스 59149" d="M4.484,75.233H4.365V70.421a.579.579,0,0,0-.253-.4,1.342,1.342,0,0,0-.9-.08l-.03-.115a1.436,1.436,0,0,1,.995.1.7.7,0,0,1,.307.491V75.24Z" transform="translate(-2.128 -46.664)" fill="#1a1311"/>
        <path id="선_279" data-name="선 279" d="M1.639-.061H0V-.18H1.639Z" transform="translate(2.308 24.317)" fill="#1a1311"/>
        <path id="선_280" data-name="선 280" d="M1.65-.061H0V-.18H1.65Z" transform="translate(2.332 26.457)" fill="#1a1311"/>
        <path id="선_281" data-name="선 281" d="M1.614-.061H0V-.18H1.614Z" transform="translate(12.405 22.247)" fill="#1a1311"/>
        <path id="패스_59150" data-name="패스 59150" d="M16.3,84.514H12.116V78.069h-.625V77.95h.744V84.4h3.956a27.159,27.159,0,0,1,.865-4.847,11,11,0,0,1,1.5-3.38,3.222,3.222,0,0,1,2.618-1.553H29.59l.1-.109v.228h-.049l-.828.9H20.862c-.65,0-1.258.457-1.807,1.358a12.267,12.267,0,0,0-1.206,3.035,32.418,32.418,0,0,0-.858,4.427l-.119-.013A32.555,32.555,0,0,1,17.734,80a12.381,12.381,0,0,1,1.22-3.065c.572-.939,1.214-1.415,1.909-1.415h7.9l.718-.777h-8.3a3.11,3.11,0,0,0-2.521,1.5,10.883,10.883,0,0,0-1.486,3.342,26.99,26.99,0,0,0-.865,4.879Z" transform="translate(-7.685 -49.831)" fill="#1a1311"/>
        <path id="패스_59151" data-name="패스 59151" d="M31.906,80.554a.345.345,0,0,1-.246-.116.456.456,0,0,1-.118-.5l.109.048a.339.339,0,0,0,.093.365.216.216,0,0,0,.189.079c.152-.023.293-.239.335-.32V80.1a3.861,3.861,0,0,1,1.388-1.263,2.018,2.018,0,0,1,.668-.224h5.912c.034-.019.188-.125.188-.513,0-.418-.156-.444-.157-.444h0l.007-.119c.027,0,.268.03.268.563s-.263.625-.275.629h-5.93a1.981,1.981,0,0,0-.629.214,3.747,3.747,0,0,0-1.335,1.219c-.021.04-.189.344-.421.38A.3.3,0,0,1,31.906,80.554Z" transform="translate(-21.077 -51.861)" fill="#1a1311"/>
        <path id="패스_59152" data-name="패스 59152" d="M8.062,58.823a5.3,5.3,0,0,1-1.354-.155l.034-.114a6.091,6.091,0,0,0,2.917-.047l.029.116a6.705,6.705,0,0,1-1.626.2Z" transform="translate(-4.486 -39.13)" fill="#1a1311"/>
        <path id="사각형_13588" data-name="사각형 13588" d="M.037-.54h1.73a.578.578,0,0,1,.577.577V1.345a.578.578,0,0,1-.577.577H.037A.578.578,0,0,1-.54,1.345V.037A.578.578,0,0,1,.037-.54Zm1.73,2.105a.22.22,0,0,0,.22-.22V.037a.219.219,0,0,0-.219-.219H.037A.219.219,0,0,0-.182.037V1.345a.22.22,0,0,0,.22.22Z" transform="translate(20.748 7.831)" fill="#1a1311"/>
        <path id="패스_59153" data-name="패스 59153" d="M68.365,48.667h-.358v-16.9c0-.565-.159-.729-.188-.754L67.8,31h0a1.624,1.624,0,0,1-.634-1.036v-.981h.358v.946A1.282,1.282,0,0,0,68,30.7c.09.054.364.283.364,1.063Z" transform="translate(-44.92 -19.383)" fill="#1a1311"/>
        <path id="선_282" data-name="선 282" d="M-.182.773H-.54V0h.358Z" transform="translate(21.1 9.575)" fill="#1a1311"/>
        <path id="패스_59154" data-name="패스 59154" d="M67.079,69.108h-.705V68.75h.347v-.9c.044-.34.062-1.287-.378-1.582l.2-.3c.688.46.554,1.763.536,1.913Z" transform="translate(-44.373 -44.124)" fill="#1a1311"/>
        <path id="Path_59155" data-name="Path 59155" d="M38.024,94.873a4.785,4.785,0,1,0-4.785-4.785,4.785,4.785,0,0,0,4.785,4.785" transform="translate(-22.231 -57.051)" fill="#e85400"/>
        <path id="타원_159" data-name="타원 159" d="M4.424-.54A4.964,4.964,0,1,1-.54,4.424,4.964,4.964,0,0,1,4.424-.54Zm0,9.571a4.607,4.607,0,1,0-3.257-1.35A4.606,4.606,0,0,0,4.424,9.031Z" transform="translate(11.37 28.612)" fill="#1a1311"/>
        <path id="타원_160" data-name="타원 160" d="M4.424-.54A4.964,4.964,0,1,1-.54,4.424,4.964,4.964,0,0,1,4.424-.54Zm0,9.571a4.607,4.607,0,1,0-3.257-1.35A4.606,4.606,0,0,0,4.424,9.031Z" transform="translate(43.909 28.612)" fill="#1a1311"/>
        <path id="패스_59157" data-name="패스 59157" d="M126.335,86.832v-.181a6.508,6.508,0,1,1,13.015,0v.181l-1.191-.017v-.176a5.325,5.325,0,1,0-10.649,0v.176Zm12.179-.369.476.007a6.15,6.15,0,0,0-12.295,0l.459-.007a5.682,5.682,0,0,1,11.359,0Z" transform="translate(-84.495 -53.601)" fill="#1a1311"/>
        <path id="패스_59158" data-name="패스 59158" d="M296.474,86.832v-.181a6.508,6.508,0,0,1,13.015,0v.181l-1.19-.017v-.176a5.324,5.324,0,0,0-10.649,0v.176Zm12.18-.369.475.007a6.15,6.15,0,0,0-12.294,0l.46-.007a5.682,5.682,0,0,1,11.359,0Z" transform="translate(-198.286 -53.601)" fill="#1a1311"/>
        <path id="패스_59159" data-name="패스 59159" d="M333.207,86.832v-.181a6.507,6.507,0,1,1,13.014,0v.181l-1.19-.017v-.176a5.324,5.324,0,0,0-10.649,0v.176Zm12.179-.369.474.007a6.149,6.149,0,0,0-12.293,0l.46-.007a5.682,5.682,0,0,1,11.359,0Z" transform="translate(-222.854 -53.601)" fill="#1a1311"/>
        <path id="패스_59160" data-name="패스 59160" d="M368.812,86.832v-.181a6.508,6.508,0,1,1,13.015,0v.181l-1.19-.017v-.176a5.324,5.324,0,1,0-10.649,0v.176Zm12.18-.369.475.007a6.15,6.15,0,0,0-12.294,0l.46-.007a5.682,5.682,0,0,1,11.359,0Z" transform="translate(-246.667 -53.601)" fill="#1a1311"/>
        <path id="패스_59161" data-name="패스 59161" d="M140.734,97.119a2.578,2.578,0,1,1,2.578-2.577,2.578,2.578,0,0,1-2.578,2.577Zm0-5.037a2.459,2.459,0,1,0,2.458,2.46,2.459,2.459,0,0,0-2.458-2.46Z" transform="translate(-92.401 -61.506)" fill="#1a1311"/>
        <path id="타원_161" data-name="타원 161" d="M4.964,0a4.964,4.964,0,1,1-3.51,1.454A4.964,4.964,0,0,1,4.964,0Zm0,9.571a4.607,4.607,0,1,0-3.257-1.35,4.606,4.606,0,0,0,3.257,1.35Z" transform="translate(98.879 29.196) rotate(-11.827)" fill="#1a1311"/>
        <path id="패스_59162" data-name="패스 59162" d="M311.1,97.119a2.578,2.578,0,1,1,2.578-2.577A2.578,2.578,0,0,1,311.1,97.119Zm0-5.037a2.443,2.443,0,1,0,1.743.716A2.459,2.459,0,0,0,311.1,92.082Z" transform="translate(-206.345 -61.506)" fill="#1a1311"/>
        <path id="타원_162" data-name="타원 162" d="M4.964,0a4.964,4.964,0,1,1-3.51,1.454A4.964,4.964,0,0,1,4.964,0Zm0,9.571a4.607,4.607,0,1,0-3.257-1.35,4.606,4.606,0,0,0,3.257,1.35Z" transform="translate(110.969 29.196) rotate(-11.827)" fill="#1a1311"/>
        <path id="패스_59163" data-name="패스 59163" d="M347.607,97.119a2.578,2.578,0,1,1,2.578-2.577,2.578,2.578,0,0,1-2.578,2.577Zm0-5.037a2.459,2.459,0,1,0,2.459,2.46,2.459,2.459,0,0,0-2.459-2.46Z" transform="translate(-230.761 -61.506)" fill="#1a1311"/>
        <path id="타원_163" data-name="타원 163" d="M4.964,0a4.964,4.964,0,1,1-3.51,1.454A4.964,4.964,0,0,1,4.964,0Zm0,9.571a4.607,4.607,0,1,0-3.257-1.35,4.606,4.606,0,0,0,3.257,1.35Z" transform="translate(122.612 29.196) rotate(-11.827)" fill="#1a1311"/>
        <path id="패스_59164" data-name="패스 59164" d="M382.761,97.119a2.578,2.578,0,1,1,2.578-2.577,2.578,2.578,0,0,1-2.578,2.577Zm0-5.037a2.459,2.459,0,1,0,2.458,2.46A2.459,2.459,0,0,0,382.761,92.082Z" transform="translate(-254.272 -61.506)" fill="#1a1311"/>
        <path id="패스_59165" data-name="패스 59165" d="M79.141,90.762H58.253V90.4h20.53V88.522H56.742v-.358h22.4Z" transform="translate(-37.95 -58.966)" fill="#1a1311"/>
        <path id="패스_59166" data-name="패스 59166" d="M116.2,80.875h-9.632V79.241h.358v1.277H116.1a7.626,7.626,0,0,1,2.836-1V79.3h.358v.57h-.179a7.169,7.169,0,0,0-2.874.983Z" transform="translate(-71.274 -52.998)" fill="#1a1311"/>
        <path id="패스_59167" data-name="패스 59167" d="M165.962,90.818h-3.369V90.46H165.6V88.522h-4.076v-.358h4.433Z" transform="translate(-108.033 -58.966)" fill="#1a1311"/>
        <path id="패스_59168" data-name="패스 59168" d="M102.083,85.244H88.13l3.551-1.981h12.025v.358H91.774l-2.269,1.265h12.578Z" transform="translate(-58.943 -55.688)" fill="#1a1311"/>
        <path id="패스_59169" data-name="패스 59169" d="M208.982,87.363H176.858l-.05-.1a16.3,16.3,0,0,0-3.1-4.112,15.908,15.908,0,0,0-3.281-2.422,13.436,13.436,0,0,0-3.649-1.436l.065-.352a13.556,13.556,0,0,1,3.758,1.475A16.264,16.264,0,0,1,173.96,82.9a16.641,16.641,0,0,1,3.112,4.107H208.8a11.562,11.562,0,0,1,.222-2.118,9.992,9.992,0,0,1,.649-2.1,7.026,7.026,0,0,1,1.349-2.051,6.422,6.422,0,0,1,4.827-1.869v.358a6.079,6.079,0,0,0-4.568,1.758A6.667,6.667,0,0,0,210,82.928a9.624,9.624,0,0,0-.626,2.02,10.824,10.824,0,0,0-.216,2.23l.007.185Z" transform="translate(-111.547 -52.749)" fill="#1a1311"/>
        <path id="선_283" data-name="선 283" d="M-.182,8.062H-.54V0h.358Z" transform="translate(65.78 26.299)" fill="#1a1311"/>
        <path id="선_284" data-name="선 284" d="M-.182,8.062H-.54V0h.358Z" transform="translate(72.571 26.299)" fill="#1a1311"/>
        <path id="선_285" data-name="선 285" d="M-.182,8.062H-.54V0h.358Z" transform="translate(86.528 26.299)" fill="#1a1311"/>
        <path id="패스_59170" data-name="패스 59170" d="M405.683,88.061v-.238a17.006,17.006,0,0,0-.49-4.255,9.77,9.77,0,0,0-1.073-2.621,4.862,4.862,0,0,0-1.554-1.7l.169-.315a5.063,5.063,0,0,1,1.673,1.8,10.075,10.075,0,0,1,1.124,2.721,17.088,17.088,0,0,1,.506,4.132L417.056,84.4l1.245-5.2.348.083-1.293,5.4Z" transform="translate(-269.243 -52.791)" fill="#1a1311"/>
        <path id="패스_59171" data-name="패스 59171" d="M451.914,85.635h-1.179v-6h.358v5.643h.464V79.635h.358Z" transform="translate(-301.458 -53.261)" fill="#1a1311"/>
        <path id="선_286" data-name="선 286" d="M-.182,2.883H-.54V0h.358Z" transform="translate(55.061 33.073)" fill="#535252"/>
        <circle id="타원_50" data-name="타원 50" cx="2.75" cy="2.75" r="2.75" transform="translate(13.043 30.287)" fill="#a3a3a3"/>
        <circle id="타원_51" data-name="타원 51" cx="2.75" cy="2.75" r="2.75" transform="translate(45.605 30.287)" fill="#a3a3a3"/>
        <circle id="타원_52" data-name="타원 52" cx="2.75" cy="2.75" r="2.75" transform="translate(101.944 30.287)" fill="#a3a3a3"/>
        <circle id="타원_53" data-name="타원 53" cx="2.75" cy="2.75" r="2.75" transform="translate(114.096 30.287)" fill="#a3a3a3"/>
        <circle id="타원_54" data-name="타원 54" cx="2.75" cy="2.75" r="2.75" transform="translate(125.74 30.287)" fill="#a3a3a3"/>
      </g>
    </g>
  </g>
</svg>
