<svg xmlns="http://www.w3.org/2000/svg" xmlns:xlink="http://www.w3.org/1999/xlink" width="132" height="38" viewBox="0 0 132 38">
  <defs>
    <clipPath id="clip-path">
      <rect id="Rectangle_13701" data-name="Rectangle 13701" width="132" height="38" transform="translate(765 1.222)" fill="#fff" stroke="#707070" stroke-width="1"/>
    </clipPath>
    <clipPath id="clip-path-2">
      <rect id="Rectangle_13700" data-name="Rectangle 13700" width="132.098" height="38" fill="none"/>
    </clipPath>
  </defs>
  <g id="Steer_All_-_Bus_-_Others_1_" data-name="Steer (All) - Bus - Others(1)" transform="translate(-765 -1.222)" clip-path="url(#clip-path)">
    <g id="Group_12663" data-name="Group 12663" transform="translate(765 1.223)">
      <g id="Group_12662" data-name="Group 12662" clip-path="url(#clip-path-2)">
        <path id="패스_59395" data-name="패스 59395" d="M10.929,20.6H7.373v-.164h3.551l10.07-.7a5.121,5.121,0,0,0,2.507-.9,9.739,9.739,0,0,0,1.974-1.782,14.638,14.638,0,0,0,1.748-2.53l.007-.014.012-.01c1.787-1.582,3.873-11.394,4.1-12.484-1.014-.008-9.383-.073-11.079-.073-.125.007-4.936.288-5.856,1.847l-.142-.09c.411-.7,1.547-1.232,3.377-1.593a21.041,21.041,0,0,1,2.613-.335h0c1.793,0,11.089.074,11.183.074h.1l-.02.1c-.006.027-.565,2.767-1.352,5.679-1.055,3.9-2,6.253-2.809,6.982A14.911,14.911,0,0,1,25.6,17.158a9.9,9.9,0,0,1-2.007,1.812A5.282,5.282,0,0,1,21,19.9Z" transform="translate(-4.013 -0.967)" fill="#1a1311"/>
        <path id="패스_59396" data-name="패스 59396" d="M15.155,36h-.164V24.076c.076-3.3,2.991-15.576,3.021-15.7l.16.038c-.029.123-2.94,12.378-3.016,15.663Z" transform="translate(-8.16 -4.559)" fill="#1a1311"/>
        <path id="패스_59397" data-name="패스 59397" d="M127.455,32.964H107.041V31.546A9.167,9.167,0,0,0,105.63,27.1a6.224,6.224,0,0,0-2.459-2.125,7.417,7.417,0,0,0-3.41-.717,8.575,8.575,0,0,0-3.849,1.6,6.866,6.866,0,0,0-1.949,2.392,7.625,7.625,0,0,0-.8,3.127v.249H40.8l-.039-.2a11.932,11.932,0,0,0-1.782-4.58A6.153,6.153,0,0,0,36.654,24.8a5.082,5.082,0,0,0-2.866-.507h-.051a5.226,5.226,0,0,0-3.38,1.041A6.86,6.86,0,0,0,28.416,27.8a12.05,12.05,0,0,0-1.092,3.686l-.022.222H9.534C7.77,31.8,6.51,31.49,5.79,30.784a1.8,1.8,0,0,1-.581-1.255v-.01l.739-9.613c-.089-1.841.5-5.114,1.759-9.726.935-3.434,1.91-6.371,1.919-6.4l.467.155c-.01.029-.981,2.956-1.912,6.376-1.228,4.51-1.83,7.825-1.741,9.586v.031l-.74,9.62a1.332,1.332,0,0,0,.446.9c.427.411,1.359.879,3.367.772H26.862A12.47,12.47,0,0,1,27.969,27.6a7.357,7.357,0,0,1,2.085-2.64,5.7,5.7,0,0,1,3.672-1.146,5.567,5.567,0,0,1,3.144.554,6.638,6.638,0,0,1,2.513,2.208,12.23,12.23,0,0,1,1.823,4.57H92.681a8.27,8.27,0,0,1,.841-3.1,7.354,7.354,0,0,1,2.088-2.562,9.066,9.066,0,0,1,4.08-1.7h.022a7.76,7.76,0,0,1,3.654.754,6.71,6.71,0,0,1,2.662,2.288,9.644,9.644,0,0,1,1.5,4.7v.956H127.4l3.553-.74h3.188V30.293l.026-.052a2.258,2.258,0,0,0-.117-2.249l-.05-.069V23.941l.445-1.333v-9.87c-.06-.546-1.038-9.493-1.038-10.086V2.185c0-.076.051-1.39-2.434-1.655H19.156V.038H131.009a3.422,3.422,0,0,1,2.564,1.175,1.656,1.656,0,0,1,.322,1v.438c0,.458.678,6.772,1.037,10.046v9.99l-.445,1.333v3.723a2.692,2.692,0,0,1,.15,2.662v1.819h-3.63Z" transform="translate(-2.835 -0.021)" fill="#1a1311"/>
        <path id="패스_59398" data-name="패스 59398" d="M16.391,2.644l-.462-.17C16.37,1.274,18.039.5,20.887.168a28.484,28.484,0,0,1,4.06-.149L24.924.51a27.946,27.946,0,0,0-3.986.147C18.33.961,16.758,1.647,16.391,2.644Z" transform="translate(-8.671 -0.001)" fill="#1a1311"/>
        <path id="패스_59399" data-name="패스 59399" d="M16.826,32.859h-.492V5.481H6.653A6.487,6.487,0,0,0,3.809,6.6a6.784,6.784,0,0,0-1.1.915l-.009,0-.009.008c-.6.544-1.057,2.633-1.181,3.392l-.034.206H0v-.249A10.948,10.948,0,0,1,1.142,6.862l.01-.02.014-.018A7.329,7.329,0,0,1,4.678,4.43a8.4,8.4,0,0,1,2-.422h9.889c.2-.422.81-.73,1.89-.958A23.767,23.767,0,0,1,22.1,2.66c2.577-.117,5.154-.015,5.179-.014l-.02.492c-.026,0-2.583-.1-5.14.014-4.63.211-5.1.926-5.133,1.14l-.033.208H6.7a8.138,8.138,0,0,0-1.88.4A6.844,6.844,0,0,0,1.571,7.1,11.085,11.085,0,0,0,.5,10.633h.557c.05-.269.151-.768.3-1.315A4.8,4.8,0,0,1,2.349,7.17,7.232,7.232,0,0,1,3.52,6.2,7.086,7.086,0,0,1,6.609,4.99H16.824Z" transform="translate(0 -1.417)" fill="#1a1311"/>
        <path id="선_304" data-name="선 304" d="M4-.016H0V-.18H4Z" transform="translate(2.86 26.317)" fill="#1a1311"/>
        <path id="선_305" data-name="선 305" d="M4.165-.016H0V-.18H4.165Z" transform="translate(2.806 28.483)" fill="#1a1311"/>
        <path id="패스_59400" data-name="패스 59400" d="M53.187,55.365h-.164V43.951H157.665V54h2.808v.164H157.5V44.115H53.187Z" transform="translate(-28.861 -23.923)" fill="#1a1311"/>
        <path id="선_306" data-name="선 306" d="M-.016,11.054H-.18V0h.164Z" transform="translate(38.228 20.164)" fill="#1a1311"/>
        <path id="선_307" data-name="선 307" d="M-.016,11.054H-.18V0h.164Z" transform="translate(54.447 20.164)" fill="#1a1311"/>
        <path id="선_308" data-name="선 308" d="M-.016,11.108H-.18V0h.164Z" transform="translate(71.112 20.109)" fill="#1a1311"/>
        <path id="선_309" data-name="선 309" d="M-.016,11.054H-.18V0h.164Z" transform="translate(90.217 20.164)" fill="#1a1311"/>
        <path id="선_310" data-name="선 310" d="M-.016,11.054H-.18V0h.164Z" transform="translate(104.491 20.164)" fill="#1a1311"/>
        <path id="사각형_13667" data-name="사각형 13667" d="M-.18-.18H10.983V9.7H-.18Zm11,.164H-.016V9.541H10.819Z" transform="translate(105.103 21.041)" fill="#1a1311"/>
        <path id="사각형_13668" data-name="사각형 13668" d="M-.18-.18H10.981V9.7H-.18Zm11,.164H-.016V9.541H10.817Z" transform="translate(116.824 21.041)" fill="#1a1311"/>
        <path id="패스_59401" data-name="패스 59401" d="M286.09,56.5h-2.081V52.12h2.027v.164h-1.863V56.34h1.917Z" transform="translate(-154.591 -28.37)" fill="#1a1311"/>
        <path id="패스_59402" data-name="패스 59402" d="M63.463,1.861h.064l97.695.016,1.011,9.21-2.1,3.4h-97.3a1.677,1.677,0,0,1-1.345-.61,3.9,3.9,0,0,1-.4-2.763h0Zm97.611.18L63.59,2.025l-2.342,9.119a3.8,3.8,0,0,0,.369,2.626,1.52,1.52,0,0,0,1.218.548h97.209l2.018-3.269Z" transform="translate(-33.201 -1.013)" fill="#1a1311"/>
        <path id="선_311" data-name="선 311" d="M-.016,12.387H-.18V0h.164Z" transform="translate(47.004 0.946)" fill="#1a1311"/>
        <path id="선_312" data-name="선 312" d="M-.016,12.368H-.18V0h.164Z" transform="translate(66.334 0.965)" fill="#1a1311"/>
        <path id="선_313" data-name="선 313" d="M-.016,12.368H-.18V0h.164Z" transform="translate(85.665 0.965)" fill="#1a1311"/>
        <path id="선_314" data-name="선 314" d="M-.016,12.368H-.18V0h.164Z" transform="translate(104.992 0.965)" fill="#1a1311"/>
        <path id="선_315" data-name="선 315" d="M98.646-.016H0V-.18H98.646Z" transform="translate(29.575 3.876)" fill="#1a1311"/>
        <path id="선_316" data-name="선 316" d="M1.557-.016H0V-.18H1.557Z" transform="translate(14.023 21.986)" fill="#1a1311"/>
        <path id="Path_59445" data-name="Path 59445" d="M60.953,67.542a6.408,6.408,0,1,0-6.408-6.408,6.408,6.408,0,0,0,6.408,6.408" transform="translate(-29.69 -29.788)" fill="#e85400"/>
        <path id="패스_59404" data-name="패스 59404" d="M60.659,67.494a6.61,6.61,0,1,1,4.718-1.936,6.654,6.654,0,0,1-4.718,1.936Zm0-12.816a6.162,6.162,0,1,0,4.357,1.8,6.162,6.162,0,0,0-4.357-1.8Z" transform="translate(-29.396 -29.494)" fill="#1a1311"/>
        <path id="Path_59446" data-name="Path 59446" d="M205.856,67.542a6.408,6.408,0,1,0-6.408-6.408,6.408,6.408,0,0,0,6.408,6.408" transform="translate(-108.563 -29.788)" fill="#547abc"/>
        <path id="패스_59407" data-name="패스 59407" d="M205.562,67.494a6.61,6.61,0,1,1,4.718-1.936A6.654,6.654,0,0,1,205.562,67.494Zm0-12.816a6.162,6.162,0,1,0,4.357,1.8,6.162,6.162,0,0,0-4.357-1.8Z" transform="translate(-108.269 -29.494)" fill="#1a1311"/>
        <circle id="타원_28" data-name="타원 28" cx="3.75" cy="3.75" r="3.75" transform="translate(27.513 27.593)" fill="#a3a3a3"/>
        <circle id="타원_29" data-name="타원 29" cx="3.75" cy="3.75" r="3.75" transform="translate(93.545 27.593)" fill="#a3a3a3"/>
      </g>
    </g>
  </g>
</svg>
