<svg xmlns="http://www.w3.org/2000/svg" xmlns:xlink="http://www.w3.org/1999/xlink" width="86" height="38" viewBox="0 0 86 38">
  <defs>
    <clipPath id="clip-path">
      <rect id="Rectangle_13724" data-name="Rectangle 13724" width="86" height="38" transform="translate(765 1.222)" fill="#fff" stroke="#707070" stroke-width="1"/>
    </clipPath>
    <clipPath id="clip-path-2">
      <rect id="Rectangle_13737" data-name="Rectangle 13737" width="85.198" height="38" fill="none"/>
    </clipPath>
  </defs>
  <g id="Steer_All_-_Truck_-_Others_3_" data-name="Steer (All) - Truck - Others(3)" transform="translate(-765 -1.222)" clip-path="url(#clip-path)">
    <g id="Group_12676" data-name="Group 12676" transform="translate(765 1.223)">
      <path id="Path_59492" data-name="Path 59492" d="M6.791,76.732h20.74v7.7H8.524V82.994H6.546Z" transform="translate(-4.568 -53.538)" fill="#f5f5f5" fill-rule="evenodd"/>
      <path id="패스_59493" data-name="패스 59493" d="M6.537,76.482H27.425v7.847H8.267V82.9H6.286Zm20.737.151H6.683l-.239,6.111H8.419v1.434H27.274Z" transform="translate(-4.386 -53.363)" fill="#1a1311"/>
      <path id="Path_59494" data-name="Path 59494" d="M114.635,79.962h20.891l-.049,2.371H114.635Z" transform="translate(-79.984 -55.792)" fill="#f5f5f5"/>
      <path id="패스_59495" data-name="패스 59495" d="M114.385,79.712h21.043l-.052,2.522H114.385Zm20.889.151H114.537v2.22h20.692Z" transform="translate(-79.809 -55.617)" fill="#1a1311"/>
      <g id="Group_12675" data-name="Group 12675">
        <g id="Group_12674" data-name="Group 12674" clip-path="url(#clip-path-2)">
          <path id="Path_59496" data-name="Path 59496" d="M.5,46.633V37.847a22.475,22.475,0,0,1,.443-3.4c.289-.948.643-2.007.643-2.007l1.859-4.715S4.107,25.8,5.46,25.8c1.668,0,15.139-.013,15.139-.013s.867-.167.867,1.183V45.339s.032.589-.706.589c-.9,0-6.709-.035-6.709-.035h-.773C12.272,44.195,11.979,43,9.86,43l-3.228.011c-3.118,0-4.3,4.438-4.3,4.438L1.01,47.414Z" transform="translate(-0.349 -17.992)" fill="#f5f5f5" fill-rule="evenodd"/>
          <path id="패스_59497" data-name="패스 59497" d="M2.211,47.351.794,47.314.25,46.481V37.668A22.112,22.112,0,0,1,.7,34.253c.286-.938.64-2,.643-2.009h0L3.2,27.527a4.427,4.427,0,0,1,.509-.977,1.976,1.976,0,0,1,1.577-.992c1.635,0,14.781-.013,15.133-.013a.634.634,0,0,1,.095-.007.752.752,0,0,1,.525.21,1.43,1.43,0,0,1,.329,1.054V45.163a.654.654,0,0,1-.171.447.806.806,0,0,1-.611.218c-.886,0-6.651-.034-6.709-.035h-.815l-.022-.037c-.15-.253-.283-.492-.411-.723a5.672,5.672,0,0,0-1.083-1.555,2.648,2.648,0,0,0-1.86-.578L8.067,42.9l-1.609.005a3.167,3.167,0,0,0-1.941.677,5.473,5.473,0,0,0-1.315,1.5,9.315,9.315,0,0,0-.976,2.2ZM.877,47.165,2.1,47.2a9.569,9.569,0,0,1,.975-2.182A5.627,5.627,0,0,1,4.424,43.47a3.315,3.315,0,0,1,2.034-.709l1.609-.005,1.619-.005a2.787,2.787,0,0,1,1.959.615,5.77,5.77,0,0,1,1.116,1.6c.121.219.247.445.387.682h.73c.059,0,5.824.035,6.709.035a.664.664,0,0,0,.5-.171.5.5,0,0,0,.13-.338V26.8a1.293,1.293,0,0,0-.283-.946.6.6,0,0,0-.419-.167.461.461,0,0,0-.075,0h-.014c-.135,0-13.491.013-15.14.013a1.81,1.81,0,0,0-1.451.925,4.349,4.349,0,0,0-.492.944h0l-1.86,4.719c-.017.051-.362,1.086-.642,2A22.389,22.389,0,0,0,.4,37.675v8.761Z" transform="translate(-0.174 -17.818)" fill="#1a1311"/>
          <rect id="Rectangle_13725" data-name="Rectangle 13725" width="3.139" height="3.487" transform="translate(0.271 30.4)" fill="#f5f5f5"/>
          <path id="사각형_13726" data-name="사각형 13726" d="M-.25-.25H3.04V3.388H-.25ZM2.889-.1H-.1V3.237H2.889Z" transform="translate(0.446 30.575)" fill="#1a1311"/>
          <path id="Path_59498" data-name="Path 59498" d="M46.552,92.312l4.892.033v5.789l-.271.406H47.681l-.178-.251a15.168,15.168,0,0,0-.951-5.977" transform="translate(-32.48 -64.408)" fill="#f5f5f5" fill-rule="evenodd"/>
          <path id="패스_59499" data-name="패스 59499" d="M46.156,92.059h.12l4.967.034V97.98l-.307.458h-3.57l-.214-.3v-.024a19.423,19.423,0,0,0-.472-4.452,8.509,8.509,0,0,0-.472-1.493Zm4.936.185-4.7-.032a9.628,9.628,0,0,1,.434,1.408,19.541,19.541,0,0,1,.478,4.469l.141.2h3.412l.236-.353Z" transform="translate(-32.204 -64.232)" fill="#1a1311"/>
          <path id="Path_59500" data-name="Path 59500" d="M48.8,60.331H43.316a.3.3,0,0,1-.22-.094.324.324,0,0,1-.1-.226V56.168a.324.324,0,0,1,.093-.227.312.312,0,0,1,.22-.091H48.8a.308.308,0,0,1,.22.091.325.325,0,0,1,.094.227v3.843a.321.321,0,0,1-.094.227.3.3,0,0,1-.22.094" transform="translate(-30.004 -38.968)" fill="#f5f5f5"/>
          <path id="패스_59501" data-name="패스 59501" d="M48.624,60.232H43.141a.377.377,0,0,1-.275-.117.4.4,0,0,1-.114-.279V55.994a.4.4,0,0,1,.115-.28.39.39,0,0,1,.273-.113h5.483a.381.381,0,0,1,.274.114.4.4,0,0,1,.115.28v3.843a.4.4,0,0,1-.115.28.373.373,0,0,1-.273.114Zm-5.483-4.481a.237.237,0,0,0-.167.069.25.25,0,0,0-.071.173v3.843a.248.248,0,0,0,.072.174.227.227,0,0,0,.166.071h5.483a.224.224,0,0,0,.165-.07.246.246,0,0,0,.073-.175V55.994a.25.25,0,0,0-.071-.173.232.232,0,0,0-.167-.07Z" transform="translate(-29.83 -38.793)" fill="#1a1311"/>
          <path id="Path_59502" data-name="Path 59502" d="M15.745,42.149H9.183a1.38,1.38,0,0,1-.934-.358,1.137,1.137,0,0,1-.387-.85v-5.69l1.711-4.562a2.447,2.447,0,0,1,.468-.82,1.119,1.119,0,0,1,.851-.368h4.852a1.385,1.385,0,0,1,.933.353,1.155,1.155,0,0,1,.389.85V40.942a1.144,1.144,0,0,1-.389.85,1.377,1.377,0,0,1-.933.358" transform="translate(-5.486 -20.584)" fill="#f5f5f5"/>
          <path id="패스_59503" data-name="패스 59503" d="M15.57,42.051H9.009a1.449,1.449,0,0,1-.985-.378,1.207,1.207,0,0,1-.411-.906V35.049l1.711-4.562a2.5,2.5,0,0,1,.483-.845,1.2,1.2,0,0,1,.906-.392H15.57a1.456,1.456,0,0,1,.984.373,1.237,1.237,0,0,1,.414.906V40.767a1.212,1.212,0,0,1-.414.906A1.447,1.447,0,0,1,15.57,42.051ZM7.763,35.093v5.675a1.058,1.058,0,0,0,.362.794,1.3,1.3,0,0,0,.884.338H15.57a1.3,1.3,0,0,0,.882-.338,1.064,1.064,0,0,0,.365-.794V30.53a1.086,1.086,0,0,0-.364-.794,1.3,1.3,0,0,0-.882-.333H10.718a1.042,1.042,0,0,0-.8.344,2.354,2.354,0,0,0-.452.8Z" transform="translate(-5.311 -20.409)" fill="#1a1311"/>
          <path id="Path_59504" data-name="Path 59504" d="M7.862,35.266v-.015l1.711-4.562a2.448,2.448,0,0,1,.468-.819,1.119,1.119,0,0,1,.851-.368h4.852a1.385,1.385,0,0,1,.933.353,1.155,1.155,0,0,1,.389.85v4.658Z" transform="translate(-5.486 -20.584)" fill="#f5f5f5"/>
          <path id="패스_59505" data-name="패스 59505" d="M16.968,35.264l-9.356-.1v-.117l1.711-4.562a2.5,2.5,0,0,1,.483-.845,1.2,1.2,0,0,1,.906-.392H15.57a1.456,1.456,0,0,1,.984.373,1.237,1.237,0,0,1,.414.906Zm-9.176-.247,9.025.094V30.53a1.086,1.086,0,0,0-.364-.794,1.3,1.3,0,0,0-.882-.333H10.718a1.042,1.042,0,0,0-.8.344,2.355,2.355,0,0,0-.452.794Z" transform="translate(-5.311 -20.409)" fill="#1a1311"/>
          <path id="Path_59506" data-name="Path 59506" d="M16.756,83.581h-.9c-.628-1.441-1.639-2.923-3.423-2.923l-3.049.015c-2.106,0-3.667,2.151-4.3,4.464l-.635-.017c.411-2.8,2.066-5.295,5.02-5.295.777,0,1.818-.022,2.969-.022,3.214,0,4.322,3.777,4.322,3.777" transform="translate(-3.101 -55.681)" fill="#f5f5f5" fill-rule="evenodd"/>
          <path id="패스_59507" data-name="패스 59507" d="M4.935,85.04l-.78-.021.012-.084a8.583,8.583,0,0,1,.547-2.028A6.316,6.316,0,0,1,5.742,81.2a4.652,4.652,0,0,1,1.516-1.182,4.589,4.589,0,0,1,2.006-.441c.35,0,.762,0,1.2-.009.534-.006,1.139-.012,1.771-.012a3.8,3.8,0,0,1,2.072.6,5,5,0,0,1,1.356,1.318,7.149,7.149,0,0,1,.967,1.911l.028.1h-1.05l-.02-.045c-.844-1.936-1.941-2.878-3.354-2.878l-1.528.008-1.521.008a3.553,3.553,0,0,0-2.647,1.339,7.832,7.832,0,0,0-1.585,3.069Zm-.605-.167.491.013a7.957,7.957,0,0,1,1.6-3.072,3.7,3.7,0,0,1,2.76-1.39l1.52-.008,1.529-.008a3.04,3.04,0,0,1,2.2.943,6.359,6.359,0,0,1,1.274,1.98h.746a7.118,7.118,0,0,0-.916-1.772,4.847,4.847,0,0,0-1.314-1.277,3.648,3.648,0,0,0-1.989-.577c-.631,0-1.236.007-1.769.012-.436,0-.848.009-1.2.009a4.44,4.44,0,0,0-1.94.426A4.5,4.5,0,0,0,5.857,81.3a6.165,6.165,0,0,0-1,1.668,8.392,8.392,0,0,0-.527,1.905Z" transform="translate(-2.9 -55.507)" fill="#1a1311"/>
          <path id="Path_59508" data-name="Path 59508" d="M16.857,87.866a6,6,0,1,1-8.4-1.143,6,6,0,0,1,8.4,1.143" transform="translate(-4.247 -59.655)" fill="#e85400" fill-rule="evenodd"/>
          <path id="패스_59509" data-name="패스 59509" d="M11.728,85a6.149,6.149,0,1,1-5.995,4.774A6.208,6.208,0,0,1,11.728,85Zm.011,12a5.846,5.846,0,1,0-2.559-.589A5.849,5.849,0,0,0,11.739,97Z" transform="translate(-3.897 -59.306)" fill="#1a1311"/>
          <path id="Path_59510" data-name="Path 59510" d="M21.068,95.976a3.215,3.215,0,1,1-4.5-.609,3.215,3.215,0,0,1,4.5.609" transform="translate(-10.674 -66.083)" fill="#a6a7a7" fill-rule="evenodd"/>
          <path id="패스_59511" data-name="패스 59511" d="M18.337,94.462a3.326,3.326,0,0,1,1.439.329,3.291,3.291,0,0,1-2.874,5.921,3.25,3.25,0,0,1-1.18-.966,3.289,3.289,0,0,1,2.615-5.283Zm0,6.427a3.138,3.138,0,0,0,1.37-5.963,3.174,3.174,0,0,0-1.373-.314,3.139,3.139,0,1,0,.006,6.277Z" transform="translate(-10.502 -65.908)" fill="#1a1311"/>
          <path id="Path_59512" data-name="Path 59512" d="M189.591,86.68v3.986h22.546l4.315-4.2-12.933.214Z" transform="translate(-132.282 -60.33)" fill="#f5f5f5" fill-rule="evenodd"/>
          <path id="패스_59513" data-name="패스 59513" d="M216.466,86.206l-4.473,4.354H189.341V86.423h14Zm-4.535,4.2,4.156-4.046-12.742.211H189.492v3.835Z" transform="translate(-132.108 -60.148)" fill="#1a1311"/>
          <rect id="Rectangle_13727" data-name="Rectangle 13727" width="31.477" height="5.765" transform="translate(53.217 21.893)" fill="#f5f5f5"/>
          <path id="사각형_13728" data-name="사각형 13728" d="M-.25-.25H31.379V5.666H-.25ZM31.227-.1H-.1V5.515H31.227Z" transform="translate(53.391 22.067)" fill="#1a1311"/>
          <path id="Path_59514" data-name="Path 59514" d="M206.524,87.9a6,6,0,1,1-8.4-1.139,6,6,0,0,1,8.4,1.139" transform="translate(-136.583 -59.679)" fill="#547abc" fill-rule="evenodd"/>
          <path id="패스_59515" data-name="패스 59515" d="M201.4,85.033a6.214,6.214,0,0,1,2.691.616,6.159,6.159,0,1,1-2.691-.615Zm.011,11.994a5.847,5.847,0,0,0,2.548-11.106,5.91,5.91,0,0,0-2.559-.586,5.846,5.846,0,0,0,.007,11.692Z" transform="translate(-136.233 -59.33)" fill="#1a1311"/>
          <path id="Path_59516" data-name="Path 59516" d="M210.738,96.012a3.213,3.213,0,1,1-4.5-.612,3.213,3.213,0,0,1,4.5.612" transform="translate(-143.011 -66.105)" fill="#a6a7a7" fill-rule="evenodd"/>
          <path id="패스_59517" data-name="패스 59517" d="M208,94.494a3.289,3.289,0,1,1-3.2,2.554,3.322,3.322,0,0,1,3.2-2.554Zm.005,6.425a3.137,3.137,0,0,0,1.369-5.959A3.17,3.17,0,0,0,208,94.645a3.137,3.137,0,1,0,.007,6.274Z" transform="translate(-142.836 -65.931)" fill="#1a1311"/>
          <path id="Path_59518" data-name="Path 59518" d="M69.507,86.063" transform="translate(-48.497 -60.048)" fill="#fff"/>
          <path id="패스_59519" data-name="패스 59519" fill="#1a1311"/>
          <path id="Path_59520" data-name="Path 59520" d="M100.01,86.063h17.624v5.373H99.255v-3.45Z" transform="translate(-69.252 -60.048)" fill="#f5f5f5"/>
          <path id="패스_59521" data-name="패스 59521" d="M99.784,85.813h17.751v5.524H99V87.8Zm17.6.151h-17.5l-.731,1.861v3.36h18.228Z" transform="translate(-69.078 -59.874)" fill="#1a1311"/>
          <rect id="Rectangle_13729" data-name="Rectangle 13729" width="27.371" height="1.489" transform="translate(21.01 27.937)" fill="#fff"/>
          <path id="사각형_13730" data-name="사각형 13730" d="M-.25-.25H27.272V1.39H-.25ZM27.121-.1H-.1V1.239H27.12Z" transform="translate(21.185 28.111)" fill="#1a1311"/>
          <path id="Path_59522" data-name="Path 59522" d="M144.9,84.418" transform="translate(-101.102 -58.9)" fill="#fff"/>
          <path id="패스_59523" data-name="패스 59523" fill="#1a1311"/>
          <path id="Path_59524" data-name="Path 59524" d="M141.833,24.843a.209.209,0,0,1-.208.209H81.6a.209.209,0,0,1-.209-.209V.708A.21.21,0,0,1,81.6.5h60.028a.21.21,0,0,1,.208.209Z" transform="translate(-56.786 -0.348)" fill="#f5f5f5"/>
          <path id="패스_59525" data-name="패스 59525" d="M141.45,24.954H81.422a.285.285,0,0,1-.285-.285V.534a.285.285,0,0,1,.285-.285H141.45a.285.285,0,0,1,.284.285V24.669a.285.285,0,0,1-.284.285ZM81.422.4a.134.134,0,0,0-.134.134V24.669a.132.132,0,0,0,.134.134H141.45a.133.133,0,0,0,.133-.134V.534A.135.135,0,0,0,141.45.4Z" transform="translate(-56.611 -0.174)" fill="#1a1311"/>
          <line id="Line_308" data-name="Line 308" y1="5.811" transform="translate(6.456 8.874)" fill="#fff"/>
          <path id="선_309" data-name="선 309" d="M-.1,5.811H-.25V0H-.1Z" transform="translate(6.63 8.874)" fill="#1a1311"/>
          <rect id="Rectangle_13731" data-name="Rectangle 13731" width="11.039" height="5.789" transform="translate(18.964 27.937)" fill="#f5f5f5"/>
          <path id="사각형_13732" data-name="사각형 13732" d="M-.25-.25H10.94V5.69H-.25ZM10.789-.1H-.1V5.539H10.789Z" transform="translate(19.138 28.111)" fill="#1a1311"/>
          <rect id="Rectangle_13733" data-name="Rectangle 13733" width="0.883" height="6.195" transform="translate(26.893 27.937)" fill="#f5f5f5"/>
          <path id="사각형_13734" data-name="사각형 13734" d="M-.25-.25H.784V6.1H-.25ZM.633-.1H-.1V5.945H.633Z" transform="translate(27.068 28.111)" fill="#1a1311"/>
          <rect id="Rectangle_13735" data-name="Rectangle 13735" width="0.883" height="6.195" transform="translate(21.498 27.937)" fill="#f5f5f5"/>
          <path id="사각형_13736" data-name="사각형 13736" d="M-.25-.25H.784V6.1H-.25ZM.633-.1H-.1V5.945H.633Z" transform="translate(21.673 28.111)" fill="#1a1311"/>
          <line id="Line_310" data-name="Line 310" x2="60.446" transform="translate(24.601 22.309)" fill="#fff"/>
          <path id="선_311" data-name="선 311" d="M60.446-.1H0V-.25H60.446Z" transform="translate(24.601 22.484)" fill="#1a1311"/>
          <line id="Line_312" data-name="Line 312" y2="22.18" transform="translate(37.453 0.129)" fill="#fff"/>
          <path id="선_313" data-name="선 313" d="M-.1,22.18H-.25V0H-.1Z" transform="translate(37.628 0.129)" fill="#1a1311"/>
          <line id="Line_314" data-name="Line 314" y2="22.18" transform="translate(38.848 0.129)" fill="#fff"/>
          <path id="선_315" data-name="선 315" d="M-.1,22.18H-.25V0H-.1Z" transform="translate(39.023 0.129)" fill="#1a1311"/>
          <line id="Line_316" data-name="Line 316" y2="22.18" transform="translate(53.251 0.129)" fill="#fff"/>
          <path id="선_317" data-name="선 317" d="M-.1,22.18H-.25V0H-.1Z" transform="translate(53.426 0.129)" fill="#1a1311"/>
          <line id="Line_318" data-name="Line 318" y2="22.18" transform="translate(54.646 0.129)" fill="#fff"/>
          <path id="선_319" data-name="선 319" d="M-.1,22.18H-.25V0H-.1Z" transform="translate(54.821 0.129)" fill="#1a1311"/>
          <line id="Line_320" data-name="Line 320" y2="22.18" transform="translate(69.049 0.129)" fill="#fff"/>
          <path id="선_321" data-name="선 321" d="M-.1,22.18H-.25V0H-.1Z" transform="translate(69.224 0.129)" fill="#1a1311"/>
          <line id="Line_322" data-name="Line 322" y2="22.18" transform="translate(70.444 0.129)" fill="#fff"/>
          <path id="선_323" data-name="선 323" d="M-.1,22.18H-.25V0H-.1Z" transform="translate(70.619 0.129)" fill="#1a1311"/>
          <path id="패스_59526" data-name="패스 59526" d="M24.811,0H84.839A.36.36,0,0,1,85.2.36V24.5a.36.36,0,0,1-.353.36v2.954H82.668l-2.752,2.679h-8.75A6.148,6.148,0,0,1,60.277,35.58a6.081,6.081,0,0,1-1.144-2.564,6.228,6.228,0,0,1,.046-2.523H57.157V27.809H53.065V26.693H48.532v4.845H30.154v2.339H27.927v.406H26.742v-.406h-4.21v.406H21.347v-.406h-2.3l-.271.406H15.122l-.25-.354v-.048a21.513,21.513,0,0,0-.181-2.84h-.757a6.144,6.144,0,0,1-6.092,6.951,6.211,6.211,0,0,1-2.691-.616,6.091,6.091,0,0,1-2.208-1.808,6.176,6.176,0,0,1-.851-1.53H.12v-3.79H1.9a6.159,6.159,0,0,1,.21-.641H1.975l-1.4-.037L0,28.686v-8.84a22.213,22.213,0,0,1,.45-3.433c.286-.939.641-2,.644-2.011v-.008L2.955,9.682a4.517,4.517,0,0,1,.518-.994A2.047,2.047,0,0,1,5.112,7.664c1.627,0,14.663-.013,15.128-.013a.726.726,0,0,1,.1-.007c.218,0,.929.1.929,1.34V23.043h1.845v4.743H29.9l.755-1.922H34.5V24.856H24.81a.361.361,0,0,1-.361-.36V.36A.361.361,0,0,1,24.811,0ZM84.839,24.554A.058.058,0,0,0,84.9,24.5V.36A.059.059,0,0,0,84.839.3H24.811a.059.059,0,0,0-.059.058V24.5a.058.058,0,0,0,.059.058H34.8V26.17H30.86l-.755,1.922H22.812V23.345H20.967V8.984a1.243,1.243,0,0,0-.26-.892.517.517,0,0,0-.367-.146.4.4,0,0,0-.061,0h-.027c-.135,0-13.492.013-15.14.013-1.231,0-1.866,1.8-1.872,1.818v.006L1.38,14.5c-.024.071-.364,1.093-.641,2A22.3,22.3,0,0,0,.3,19.86V28.6l.442.676,1.236.033h.587l-.092.211a5.841,5.841,0,0,0-.31.92l-.028.115H.422V33.74H2.3l.036.1a5.871,5.871,0,0,0,.844,1.55,5.791,5.791,0,0,0,2.1,1.718,5.907,5.907,0,0,0,2.559.586,5.847,5.847,0,0,0,5.768-6.776l-.028-.175h1.372l.018.13a21.636,21.636,0,0,1,.2,2.964l.1.148H18.6l.271-.406H21.65v.406h.58v-.406h4.814v.406h.58v-.406h2.227V31.236H48.23V26.391h5.138v1.116H57.46v2.679h2.107l-.049.189a5.923,5.923,0,0,0-.087,2.58,5.846,5.846,0,1,0,11.4-2.58l-.049-.189H79.8l2.752-2.679h2V24.554Z" fill="#1a1311"/>
        </g>
      </g>
    </g>
  </g>
</svg>
