<svg xmlns="http://www.w3.org/2000/svg" xmlns:xlink="http://www.w3.org/1999/xlink" width="496" height="52" viewBox="0 0 496 52">
  <defs>
    <clipPath id="clip-path">
      <rect id="사각형_13291" data-name="사각형 13291" width="496" height="52" transform="translate(320.442 855.18)" fill="none" stroke="#707070" stroke-width="1"/>
    </clipPath>
  </defs>
  <g id="bi_AL22" transform="translate(-320.442 -855.18)" clip-path="url(#clip-path)">
    <g id="그룹_11214" data-name="그룹 11214" transform="translate(172.208 477.824)">
      <path id="패스_55267" data-name="패스 55267" d="M377.893,429.356c3.495-10.085,12.571-14.958,25.553-18.29,5.488-1.41,6.385-1.88,6.75-3.076.4-1.325-.876-2.052-4.705-2.052a43.3,43.3,0,0,0-15.145,3.034l-4.215-6.11a61.757,61.757,0,0,1,21.7-3.889c11.894,0,17.2,2.991,15.541,8.419-1.2,3.932-4.121,6.324-14.09,8.974-10.418,2.777-13.6,4.445-15.169,6.238h24.95l-2.065,6.752Z" transform="translate(-138.456)" fill="#6d6f72"/>
      <path id="패스_55268" data-name="패스 55268" d="M486.168,429.356c3.5-10.085,12.572-14.958,25.554-18.29,5.489-1.41,6.385-1.88,6.75-3.076.4-1.325-.876-2.052-4.7-2.052a43.3,43.3,0,0,0-15.147,3.034l-4.215-6.11a61.757,61.757,0,0,1,21.7-3.889c11.894,0,17.2,2.991,15.54,8.419-1.2,3.932-4.12,6.324-14.089,8.974-10.418,2.777-13.595,4.445-15.168,6.238h24.949l-2.065,6.752Z" transform="translate(-203.732)" fill="#6d6f72"/>
      <path id="패스_55269" data-name="패스 55269" d="M182,430.067l-.992-5.258H166.657l-4.2,5.258H148.235l26.509-29.916h13.4l8.216,29.916Zm-2.479-13.8a54.179,54.179,0,0,1-.79-7.479c-1.229,2.008-2.49,3.676-5.362,7.479l-1.491,1.966h7.931Z" transform="translate(0 -0.711)" fill="#6d6f72"/>
      <path id="패스_55270" data-name="패스 55270" d="M278.029,430.067l9.146-29.916h13.4l-6.938,22.694h21.188l-2.208,7.222Z" transform="translate(-78.25 -0.711)" fill="#6d6f72"/>
    </g>
  </g>
</svg>
