<svg xmlns="http://www.w3.org/2000/svg" xmlns:xlink="http://www.w3.org/1999/xlink" width="496" height="52" viewBox="0 0 496 52">
  <defs>
    <clipPath id="clip-path">
      <rect id="사각형_13291" data-name="사각형 13291" width="496" height="52" transform="translate(320.442 855.18)" fill="none" stroke="#707070" stroke-width="1"/>
    </clipPath>
  </defs>
  <g id="bi_AU04" transform="translate(-320.442 -855.18)" clip-path="url(#clip-path)">
    <g id="그룹_11256" data-name="그룹 11256" transform="translate(210.386 510.263)">
      <g id="그룹_11249" data-name="그룹 11249" transform="translate(290.863 366.435)">
        <path id="패스_55321" data-name="패스 55321" d="M278.758,386.7c-8.682,0-14.367-4.3-14.367-10,0-5.772,5.94-10.047,14.52-10.047,4.876,0,8.532,1,11.325,3.11l-3.7,1.3c-2.283-1.694-3.862-2.446-7.724-2.446-6.093,0-8.8,3.306-8.8,8.021,0,4.751,2.857,8.082,8.85,8.082a12.637,12.637,0,0,0,8.229-2.552l3.3,1.3C287.8,385.4,283.94,386.7,278.758,386.7Z" transform="translate(-264.391 -366.157)" fill="#747474"/>
        <path id="패스_55322" data-name="패스 55322" d="M290.22,386.457V371.88h4.917l0,14.577Zm2.536-17.186c-1.577,0-3.349-.665-3.348-1.469,0-.835,1.771-1.5,3.348-1.5,1.42,0,3.194.665,3.2,1.5C295.949,368.605,294.176,369.271,292.756,369.271Z" transform="translate(-260.1 -366.218)" fill="#747474"/>
        <path id="패스_55323" data-name="패스 55323" d="M304.908,373.642v9.5c0,1.3.661,1.748,2.691,1.748a11.039,11.039,0,0,0,3.2-.416l-.255,1.805a21.074,21.074,0,0,1-4.924.5c-3.3,0-5.633-.888-5.634-3.3v-9.829h-3.3v-1.75h3.3v-4.5l4.918-1.166v5.662h6.046v1.75Z" transform="translate(-258.851 -366.23)" fill="#747474"/>
        <path id="패스_55324" data-name="패스 55324" d="M318.995,390.777h-5.842l3.655-5.3-6.508-14.41h4.567l3.353,7.651-.16,5.685,1.592-2.732,8.06-10.6h6.044Z" transform="translate(-256.517 -365.401)" fill="#747474"/>
      </g>
      <g id="그룹_11251" data-name="그룹 11251" transform="translate(110.054 365.035)">
        <path id="패스_55325" data-name="패스 55325" d="M134.133,377.16c-6.3-1.094-7.642-1.678-7.2-3.121.327-1.068,2.142-2.213,6.256-2.213a11.728,11.728,0,0,1,8.455,2.986l.225.209,8.451-4.776-.422-.4c-3.454-3.281-8.007-4.81-14.329-4.81-9.241,0-16.858,3.81-18.525,9.262-2.026,6.627,3.974,8.24,10.847,9.425,7.768,1.31,8.41,2.137,7.965,3.593-.395,1.29-1.633,2.771-7.764,2.771-4.322,0-7.534-1.114-9.546-3.311l-.212-.231-8.281,4.36.278.422c2.306,3.5,7.983,5.589,15.186,5.589,14.977,0,19.134-6.283,20.279-10.032C147.859,380.142,141.166,378.384,134.133,377.16Z" transform="translate(-110.054 -365.035)" fill="#747474"/>
        <g id="그룹_11250" data-name="그룹 11250" transform="translate(35.816 7.351)">
          <path id="패스_55326" data-name="패스 55326" d="M166.046,394.975l4-12.419L157.8,395.424l-4.433-12.868-3.6,12.419h-9.141l7.105-23.245h8.593L161,384.947l12.8-13.217H182.3l-7.109,23.245Z" transform="translate(-140.626 -371.238)" fill="#747474"/>
          <path id="패스_55327" data-name="패스 55327" d="M193.909,395.047l.474-1.549a18.313,18.313,0,0,1-8.526,2.034c-6.565,0-12.666-2.654-10.944-8.28,1.57-5.137,9-7.7,16.968-7.7a18.374,18.374,0,0,1,6.481.929l.351-1.152c.5-1.64-1.516-2.793-4.867-2.793a43.235,43.235,0,0,0-12.493,1.9l-.52-4.773a42.856,42.856,0,0,1,14.609-2.349c8.5,0,14.632,2.225,13.035,7.453l-4.98,16.284Zm2.868-9.394A12.37,12.37,0,0,0,190.7,384.5c-3.484,0-5.63.89-6.2,2.748-.5,1.64.512,2.926,4.463,2.926a11.917,11.917,0,0,0,7.079-2.125Z" transform="translate(-134.796 -371.31)" fill="#747474"/>
          <path id="패스_55328" data-name="패스 55328" d="M224.559,394.975l-5.947-7.836h-3.92l-2.393,7.836h-9.6l7.109-23.245h15.719c8.237,0,13.08,2.06,11.4,7.569-1.063,3.488-4.187,5.648-8.407,6.808l6.937,8.868Zm-.882-18H217.8l-1.552,5.082h5.728c3.162,0,4.7-.931,5.211-2.593C227.631,378.007,226.744,376.977,223.677,376.977Z" transform="translate(-129.979 -371.238)" fill="#747474"/>
          <path id="패스_55329" data-name="패스 55329" d="M253.313,377.342l-5.392,17.634h-9.744l5.391-17.634h-8.537l-2.211-5.612h32.052l-1.715,5.612Z" transform="translate(-124.813 -371.238)" fill="#747474"/>
        </g>
      </g>
      <g id="그룹_11254" data-name="그룹 11254" transform="translate(365.186 373.062)">
        <g id="그룹_11253" data-name="그룹 11253" transform="translate(0)">
          <g id="그룹_11252" data-name="그룹 11252">
            <path id="패스_55330" data-name="패스 55330" d="M354.353,395.372l-.778-4.128H342.3l-3.3,4.128H327.833l20.816-23.485H359.17l6.455,23.485ZM352.4,384.534a42.252,42.252,0,0,1-.621-5.872c-.965,1.579-1.956,2.885-4.21,5.872l-1.169,1.544h6.227Z" transform="translate(-327.833 -371.887)" fill="#747474"/>
            <path id="패스_55331" data-name="패스 55331" d="M376.479,395.74c-9.447,0-15.471-2.951-13.192-10.4l4.113-13.451h10.629l-4.113,13.451c-.882,2.885.4,4.666,4.479,4.666s6.341-1.781,7.224-4.666l4.113-13.451H400.36l-4.113,13.451C393.97,392.789,385.929,395.74,376.479,395.74Z" transform="translate(-321.835 -371.887)" fill="#747474"/>
          </g>
        </g>
      </g>
      <g id="그룹_11255" data-name="그룹 11255" transform="translate(442.824 372.854)">
        <path id="패스_55332" data-name="패스 55332" d="M408.437,395.4c-10.4,0-16.505-4.168-13.617-11.812s12.269-11.88,22.671-11.88c10.436,0,16.507,4.168,13.618,11.812S418.838,395.4,408.437,395.4Zm6.892-18.211a9.113,9.113,0,0,0-9.09,6.331c-1.575,4.2.1,6.4,4.4,6.4a9.169,9.169,0,0,0,9.09-6.332C421.3,379.388,419.627,377.191,415.329,377.191Z" transform="translate(-394.104 -371.709)" fill="#767677"/>
        <path id="패스_55333" data-name="패스 55333" d="M457.84,391.049l-1.509,3.939H446.39l1.542-4.1H425.355l1.741-4.659,26.938-14.207h10.992l-5.151,13.652h5.12l-2.035,5.38Zm-11.188-9.024-.723.392c-2.69,1.478-4.724,2.529-6.53,3.349,2.035-.068,4.793-.1,7.547-.1H449.9l.853-2.266c.526-1.346,1.544-3.872,2.069-4.954C451.377,379.4,449.966,380.221,446.652,382.025Z" transform="translate(-388.744 -371.656)" fill="#767677"/>
      </g>
    </g>
  </g>
</svg>
