<svg xmlns="http://www.w3.org/2000/svg" xmlns:xlink="http://www.w3.org/1999/xlink" width="496" height="52" viewBox="0 0 496 52">
  <defs>
    <clipPath id="clip-path">
      <rect id="사각형_13291" data-name="사각형 13291" width="496" height="52" transform="translate(320.442 855.18)" fill="none" stroke="#707070" stroke-width="1"/>
    </clipPath>
  </defs>
  <g id="bi_AM09" transform="translate(-320.442 -855.18)" clip-path="url(#clip-path)">
    <g id="그룹_11222" data-name="그룹 11222" transform="translate(-579.437 582.963)">
      <g id="그룹_11215" data-name="그룹 11215" transform="translate(1132.441 295.302)">
        <path id="패스_55271" data-name="패스 55271" d="M1247.772,324.51l-.926-4.909h-13.409l-3.926,4.909h-13.284l24.76-27.933H1253.5l7.678,27.933Zm-2.317-12.889a50.583,50.583,0,0,1-.737-6.984c-1.148,1.875-2.326,3.432-5.009,6.984l-1.393,1.836h7.409Z" transform="translate(-1216.228 -296.552)" fill="#6d6f72"/>
        <path id="패스_55272" data-name="패스 55272" d="M1314.919,324.51l2.039-6.664c.843-2.754,1.674-5.269,2.525-7.423-1.977,2.076-5.261,5.308-7.406,7.3l-8.24,7.741-3.508-7.741c-.923-2-2.233-5.227-2.938-7.3-.469,2.154-1.172,4.669-2.014,7.423l-2.04,6.664h-11.621l8.54-27.933h11.368l3.21,7.461a44.109,44.109,0,0,1,3.045,8.421,105.339,105.339,0,0,1,8.193-8.421l7.773-7.461h11.239l-8.543,27.933Z" transform="translate(-1233.573 -296.552)" fill="#6d6f72"/>
        <path id="패스_55273" data-name="패스 55273" d="M1375.971,324.506c-11.28,0-18.082-4.918-15.322-13.941s12.715-14.021,24-14.021,18.08,4.919,15.322,13.944S1387.248,324.506,1375.971,324.506Zm6.569-21.5c-4.646,0-8.02,2.517-9.534,7.476s.416,7.551,5.067,7.551,8.02-2.518,9.534-7.473S1387.191,303.01,1382.54,303.01Z" transform="translate(-1254.316 -296.543)" fill="#6d6f72"/>
        <path id="패스_55274" data-name="패스 55274" d="M1418.819,324.506l1.883-6.155c11.343,0,17.93-2.094,22.177-5.231a36.6,36.6,0,0,1-11.642,1.589c-8.985,0-14.49-2.672-12.741-8.407,1.872-6.118,10.486-9.758,22.756-9.758,10.908,0,17.322,3.757,15.035,11.231C1454.1,314.939,1443.61,324.506,1418.819,324.506Zm20-22.038c-4.524,0-7.915,1.162-8.578,3.332-.639,2.092,1.7,3.371,6.282,3.371,5.332,0,8.262-1.278,8.916-3.41C1446.029,303.825,1444.089,302.468,1438.82,302.468Z" transform="translate(-1269.714 -296.543)" fill="#6d6f72"/>
      </g>
      <g id="그룹_11221" data-name="그룹 11221" transform="translate(899.879 291.858)">
        <g id="그룹_11218" data-name="그룹 11218" transform="translate(163.472 1.087)">
          <g id="그룹_11216" data-name="그룹 11216" transform="translate(0.001)">
            <path id="패스_55275" data-name="패스 55275" d="M1184.467,307.78a7.071,7.071,0,0,1-6.288,4.816h-52.366c-2.66,0-4.156-2.155-3.344-4.816l2.943-9.63a7.072,7.072,0,0,1,6.288-4.814h52.366c2.66,0,4.156,2.155,3.344,4.814Z" transform="translate(-1122.248 -293.336)" fill="#6d6f72"/>
          </g>
          <path id="패스_55276" data-name="패스 55276" d="M1187.412,307.78c.811,2.661-.684,4.816-3.344,4.816H1131.7a7.068,7.068,0,0,1-6.288-4.816l-2.946-9.63c-.812-2.659.685-4.814,3.344-4.814h52.366a7.07,7.07,0,0,1,6.288,4.814Z" transform="translate(-1122.247 -293.336)" fill="#6d6f72"/>
          <g id="그룹_11217" data-name="그룹 11217" transform="translate(6.629 3.051)">
            <path id="패스_55277" data-name="패스 55277" d="M1131.264,309.114l.071-11.628h3.016l-.243,7.988,5.109-7.988h3.5l.075,8.123,4.723-8.123h2.966l-7.1,11.628h-3.125l-.248-8.692-5.555,8.692Z" transform="translate(-1131.264 -297.486)" fill="#fff"/>
            <path id="패스_55278" data-name="패스 55278" d="M1154.259,304.551a7.191,7.191,0,0,1,1.381-2.611,7.78,7.78,0,0,1,1.615-1.395,7.478,7.478,0,0,1,1.931-.916,9.792,9.792,0,0,1,2.876-.4,5.281,5.281,0,0,1,4.088,1.4q1.267,1.4.508,3.879a6.893,6.893,0,0,1-2.859,3.855,8.712,8.712,0,0,1-4.92,1.392,5.313,5.313,0,0,1-4.106-1.384A3.726,3.726,0,0,1,1154.259,304.551Zm2.677-.071a2.386,2.386,0,0,0,2.472,3.513,4.759,4.759,0,0,0,2.8-.884,4.849,4.849,0,0,0,1.8-2.655,2.761,2.761,0,0,0-.165-2.609,2.791,2.791,0,0,0-2.294-.86,4.618,4.618,0,0,0-4.614,3.5Z" transform="translate(-1137.281 -297.947)" fill="#fff"/>
            <path id="패스_55279" data-name="패스 55279" d="M1170.65,309.637l3.112-10.174h5.425a10.512,10.512,0,0,1,2.889.275,1.9,1.9,0,0,1,1.188.976,2.129,2.129,0,0,1,.066,1.6,3.518,3.518,0,0,1-1.423,1.891,6.027,6.027,0,0,1-2.813.94,3.954,3.954,0,0,1,1.12.854,7.777,7.777,0,0,1,.962,1.652l.952,1.984h-3.082l-1.187-2.213a9.783,9.783,0,0,0-.9-1.5,1.394,1.394,0,0,0-.647-.423,4.8,4.8,0,0,0-1.262-.115h-.522l-1.3,4.248Zm4.373-5.872h1.908a12.98,12.98,0,0,0,2.355-.125,2.066,2.066,0,0,0,.855-.429,1.629,1.629,0,0,0,.494-.764.868.868,0,0,0-.09-.829,1.25,1.25,0,0,0-.849-.4q-.3-.034-1.869-.035h-2.014Z" transform="translate(-1141.696 -298.01)" fill="#fff"/>
            <path id="패스_55280" data-name="패스 55280" d="M1186.994,309.637l3.111-10.174h2.578l-1.381,4.518,6.589-4.518h3.466l-6.018,3.963,3.169,6.211h-3.336l-2.05-4.774-2.61,1.7-.94,3.074Z" transform="translate(-1146.024 -298.01)" fill="#fff"/>
          </g>
        </g>
        <g id="그룹_11220" data-name="그룹 11220">
          <path id="패스_55281" data-name="패스 55281" d="M921.7,302.846c-5.706-.992-6.926-1.521-6.525-2.828.3-.97,1.94-2.007,5.669-2.007a10.617,10.617,0,0,1,7.662,2.707l.2.19,7.658-4.33-.381-.361c-3.13-2.973-7.257-4.359-12.986-4.359-8.375,0-15.278,3.452-16.787,8.392-1.836,6.007,3.6,7.468,9.829,8.544,7.04,1.183,7.622,1.936,7.218,3.252-.358,1.17-1.481,2.513-7.035,2.513-3.918,0-6.827-1.01-8.651-3l-.192-.21-7.505,3.953.251.384c2.09,3.172,7.235,5.064,13.763,5.064,13.572,0,17.34-5.7,18.378-9.089C934.139,305.546,928.074,303.954,921.7,302.846Z" transform="translate(-899.879 -291.858)" fill="#6d6f72"/>
          <g id="그룹_11219" data-name="그룹 11219" transform="translate(32.457 6.66)">
            <path id="패스_55282" data-name="패스 55282" d="M967.067,322.589l3.623-11.254L959.59,323l-4.018-11.661-3.259,11.254H944.03l6.439-21.065h7.787l4.237,11.977,11.6-11.977h7.7l-6.443,21.065Z" transform="translate(-944.03 -301.078)" fill="#6d6f72"/>
            <path id="패스_55283" data-name="패스 55283" d="M1010.6,322.428l.431-1.4a16.6,16.6,0,0,1-7.727,1.842c-5.949,0-11.478-2.4-9.919-7.5,1.423-4.656,8.155-6.982,15.378-6.982a16.646,16.646,0,0,1,5.873.842l.319-1.043c.454-1.488-1.375-2.533-4.41-2.533a39.225,39.225,0,0,0-11.323,1.721l-.471-4.325a38.871,38.871,0,0,1,13.239-2.128c7.707,0,13.26,2.015,11.814,6.754l-4.513,14.757Zm2.6-8.513a11.223,11.223,0,0,0-5.509-1.041c-3.156,0-5.1.806-5.616,2.49-.451,1.486.465,2.652,4.046,2.652a10.8,10.8,0,0,0,6.416-1.927Z" transform="translate(-957.032 -300.918)" fill="#6d6f72"/>
            <path id="패스_55284" data-name="패스 55284" d="M1053.486,322.589l-5.389-7.1h-3.552l-2.169,7.1h-8.7l6.442-21.065h14.246c7.463,0,11.853,1.866,10.326,6.86-.963,3.16-3.794,5.117-7.618,6.169l6.286,8.037Zm-.8-16.31h-5.325l-1.407,4.606h5.191c2.866,0,4.262-.845,4.723-2.349C1056.269,307.212,1055.466,306.279,1052.686,306.279Z" transform="translate(-967.774 -301.078)" fill="#6d6f72"/>
            <path id="패스_55285" data-name="패스 55285" d="M1095.745,306.609l-4.887,15.98h-8.831l4.887-15.98h-7.737l-2-5.085h29.046l-1.555,5.085Z" transform="translate(-979.294 -301.078)" fill="#6d6f72"/>
          </g>
        </g>
      </g>
    </g>
  </g>
</svg>
