<svg xmlns="http://www.w3.org/2000/svg" xmlns:xlink="http://www.w3.org/1999/xlink" width="496" height="52" viewBox="0 0 496 52">
  <defs>
    <clipPath id="clip-path">
      <rect id="사각형_13291" data-name="사각형 13291" width="496" height="52" transform="translate(320.442 855.18)" fill="none" stroke="#707070" stroke-width="1"/>
    </clipPath>
    <clipPath id="clip-path-2">
      <rect id="사각형_13460" data-name="사각형 13460" width="496" height="31.186" fill="none"/>
    </clipPath>
  </defs>
  <g id="bi_AL20w_e-cube_MAX" data-name="bi_AL20w e-cube MAX" transform="translate(-320.442 -855.18)" clip-path="url(#clip-path)">
    <g id="그룹_12288" data-name="그룹 12288" transform="translate(320.441 875.992)">
      <g id="그룹_12287" data-name="그룹 12287" transform="translate(0 0)" clip-path="url(#clip-path-2)">
        <path id="패스_56024" data-name="패스 56024" d="M33.837,31.157l-.994-5.268H18.46l-4.213,5.268H0L26.563,1.18H39.988l8.233,29.977ZM31.353,17.326a54.218,54.218,0,0,1-.791-7.494c-1.232,2.012-2.5,3.684-5.374,7.494L23.695,19.3h7.947Z" transform="translate(0 -0.71)" fill="#767676"/>
        <path id="패스_56025" data-name="패스 56025" d="M129.793,31.157,138.958,1.18h13.426l-6.952,22.74h21.232l-2.213,7.237Z" transform="translate(-78.144 -0.71)" fill="#767676"/>
        <path id="패스_56026" data-name="패스 56026" d="M230.1,30.447c3.5-10.106,12.6-14.989,25.606-18.328,5.5-1.412,6.4-1.884,6.765-3.083.4-1.328-.878-2.057-4.715-2.057a43.378,43.378,0,0,0-15.178,3.041L238.355,3.9A61.886,61.886,0,0,1,260.1,0c11.918,0,17.236,3,15.572,8.437-1.2,3.94-4.128,6.337-14.118,8.993-10.44,2.782-13.622,4.453-15.2,6.251h25l-2.069,6.766Z" transform="translate(-138.535 0)" fill="#767676"/>
        <path id="패스_56027" data-name="패스 56027" d="M359.264,32.369c-12.263,0-19.657-5.347-16.658-15.16S356.431,1.965,368.695,1.965s19.659,5.348,16.659,15.16-13.826,15.244-26.09,15.244M366.41,9c-5.054,0-8.721,2.737-10.369,8.127s.454,8.212,5.507,8.212,8.721-2.736,10.37-8.127S371.463,9,366.41,9" transform="translate(-205.869 -1.183)" fill="#767676"/>
        <path id="패스_56028" data-name="패스 56028" d="M480.512,30.179l.393,9.562q.032.753,0,1.555t-.1,1.752h.1q.229-.818.475-1.686a10.107,10.107,0,0,1,.605-1.621l4.257-9.562h5.4l.59,9.562q.032.753.016,1.506t-.082,1.8h.066q.294-1.048.556-1.8a14.635,14.635,0,0,1,.623-1.506l4.289-9.562h4.748l-8.317,18.108h-5.6l-.622-9.332a10.372,10.372,0,0,1,.016-1.752q.081-.932.213-2.177h-.065q-.361,1.342-.655,2.226t-.654,1.7l-4.159,9.332h-5.8l-1.441-18.108Z" transform="translate(-286.203 -18.17)" fill="#767676"/>
        <path id="패스_56029" data-name="패스 56029" d="M480.186,29.878l-.2.008.393,9.562c.011.248.016.5.016.757s-.005.517-.016.782q-.032.8-.1,1.746l-.015.212h.463l.041-.145q.228-.817.475-1.686a9.889,9.889,0,0,1,.593-1.589v0l4.205-9.445h5.086l.579,9.375.2-.013-.2.009q.022.5.022,1,0,.246-.005.492-.017.747-.082,1.792l-.013.211h.428l.041-.145q.294-1.043.553-1.79a14.373,14.373,0,0,1,.614-1.486l0,0,4.237-9.445h4.309l-8.134,17.71h-5.286l-.61-9.15h0q-.029-.355-.029-.733,0-.474.045-.985.081-.93.212-2.174l.023-.22H487.6l-.039.147q-.36,1.339-.652,2.215t-.648,1.686l0-.01-4.11,9.223H476.67l-1.409-17.71h4.926v-.2l-.2.008.2-.008v-.2H474.83L476.3,48.185h6.109l4.207-9.441,0-.01q.363-.827.661-1.72t.658-2.238l-.192-.052v.2h.065v-.2l-.2-.021q-.131,1.246-.213,2.181-.047.527-.047,1.02,0,.394.031.766l.2-.016-.2.013.634,9.518h5.914l8.5-18.506h-5.187l-4.342,9.679.181.082-.179-.086a14.737,14.737,0,0,0-.631,1.527q-.264.761-.56,1.812l.191.054v-.2h-.066v.2l.2.012q.065-1.051.082-1.809.005-.25.005-.5,0-.509-.021-1.019v0l-.6-9.75h-5.719l-4.309,9.68.182.081-.18-.086a10.32,10.32,0,0,0-.618,1.653q-.246.868-.475,1.686l.191.054v-.2h-.1v.2l.2.014c.044-.634.077-1.219.1-1.757.011-.27.016-.536.016-.8s0-.52-.016-.774l-.4-9.753h-.191Z" transform="translate(-285.878 -17.869)" fill="#767676"/>
        <path id="패스_56030" data-name="패스 56030" d="M652.869,50.351l.89-2.911h7.809l-.89,2.911Z" transform="translate(-393.068 -28.562)" fill="#767676"/>
        <path id="패스_56031" data-name="패스 56031" d="M836.706,31.892a16.272,16.272,0,0,0-4.721,1.16l-2.442,7.9h2.947c1.813,0,4.931-2.376,5.81-5.249.925-3.077.246-3.81-1.594-3.81m-2.177,11.853c-2.534,0-14.535-.057-14.535-.057l5.588-18.277a1.9,1.9,0,0,1,1.471-1.242c1.218-.271,8.209-1.846,8.209-1.846L833.1,29.387a15.428,15.428,0,0,1,6.443-1.408c4.815,0,7.8,2.257,6.043,7.972-1.684,5.509-5.46,7.793-11.055,7.793" transform="translate(-493.687 -13.44)" fill="#767676"/>
        <path id="패스_56032" data-name="패스 56032" d="M706.975,47.254,696.6,47.246c-2.487,0-3.436-.309-2.887-2.067l1.966-6.327c.55-1.76,1.028-2.228,3.859-2.427l11.022-.748.87-2.822v-.011h-18.17c-4.772,0-7.5,2.068-8.4,4.938l-2.288,7.367c-.9,2.873.55,4.942,5.322,4.942H706.1Z" transform="translate(-410.8 -19.775)" fill="#767676"/>
        <path id="패스_56033" data-name="패스 56033" d="M592.621,48.231l1.053-3.444h-14.59a1.226,1.226,0,0,1-1.191-1.716l.253-.828h13.16a6.715,6.715,0,0,0,5.974-4.575l1.049-3.431c.773-2.527-.649-4.576-3.176-4.576H577.424a6.719,6.719,0,0,0-5.975,4.576l-2.884,9.432c-.773,2.528.654,4.563,3.181,4.563Zm-12.2-13.424a2.519,2.519,0,0,1,2.241-1.716h8.58a1.225,1.225,0,0,1,1.191,1.716l-.7,2.288a2.52,2.52,0,0,1-2.241,1.717h-8.58A1.226,1.226,0,0,1,579.72,37.1Z" transform="translate(-342.185 -17.857)" fill="#767676"/>
        <path id="패스_56034" data-name="패스 56034" d="M908.581,51.881l.916-3H896.8a1.066,1.066,0,0,1-1.035-1.493l.22-.72h11.449a5.843,5.843,0,0,0,5.2-3.981l.913-2.985c.671-2.2-.566-3.981-2.765-3.981H895.36a5.844,5.844,0,0,0-5.2,3.981l-2.508,8.205c-.672,2.2.568,3.97,2.764,3.97ZM897.967,40.2a2.191,2.191,0,0,1,1.949-1.493h7.464a1.066,1.066,0,0,1,1.036,1.493l-.609,1.991a2.192,2.192,0,0,1-1.95,1.494h-7.464a1.067,1.067,0,0,1-1.035-1.494Z" transform="translate(-534.314 -21.508)" fill="#767676"/>
        <path id="패스_56035" data-name="패스 56035" d="M752.962,42.212l2.412-7.891a4.3,4.3,0,0,1,2.9-2.748l8.912-2.222L762.739,43.9a1.021,1.021,0,0,0,.993,1.429h6.961A2.1,2.1,0,0,0,772.56,43.9h-.04l3.6-11.786h5.147l-3.086,10.1a8.4,8.4,0,0,1-7.468,5.72H756.933c-3.158,0-4.936-2.561-3.97-5.72" transform="translate(-453.172 -17.671)" fill="#767676"/>
        <path id="패스_56036" data-name="패스 56036" d="M1015.226,47.8l1.433-4.48c.591-1.851,1.191-3.54,1.778-4.99-1.422,1.4-3.819,3.567-5.351,4.909l-5.978,5.2-2.632-5.2c-.667-1.342-1.678-3.513-2.214-4.909-.319,1.449-.812,3.139-1.4,4.99l-1.433,4.48h-8.5l6-18.779h8.342l2.408,5.017a29.434,29.434,0,0,1,2.283,5.661,72.387,72.387,0,0,1,5.952-5.661l5.612-5.017h8.235L1023.729,47.8Z" transform="translate(-596.598 -17.47)" fill="#767676"/>
        <path id="패스_56037" data-name="패스 56037" d="M1097.46,47.8l-.725-3.3h-9.818l-2.842,3.3h-9.71l17.884-18.778h9.148l5.88,18.778Zm-1.812-8.664a26.95,26.95,0,0,1-.592-4.694c-.84,1.261-1.691,2.306-3.62,4.694l-1,1.234h5.418Z" transform="translate(-646.835 -17.471)" fill="#767676"/>
        <path id="패스_56038" data-name="패스 56038" d="M1177.075,43.913l-6.529-5.633-7.187,5.633h-10.273l13.725-9.5-13.364-11.849h10.514l9.3,7.825,6.672-5.258h10.3l-13.286,9.175,10.646,9.6Z" transform="translate(-694.23 -13.588)" fill="#767676"/>
      </g>
    </g>
  </g>
</svg>
