<svg xmlns="http://www.w3.org/2000/svg" xmlns:xlink="http://www.w3.org/1999/xlink" width="496" height="52" viewBox="0 0 496 52">
  <defs>
    <clipPath id="clip-path">
      <rect id="사각형_13291" data-name="사각형 13291" width="496" height="52" transform="translate(320.442 855.18)" fill="none" stroke="#707070" stroke-width="1"/>
    </clipPath>
    <clipPath id="clip-path-2">
      <rect id="사각형_13457" data-name="사각형 13457" width="488.839" height="33.046" fill="none"/>
    </clipPath>
  </defs>
  <g id="bi_AL10_e-cube_MAX" data-name="bi_AL10+ e-cube MAX" transform="translate(-320.442 -855.18)" clip-path="url(#clip-path)">
    <g id="그룹_12286" data-name="그룹 12286" transform="translate(320.441 874.131)">
      <g id="그룹_12285" data-name="그룹 12285" transform="translate(0 0)" clip-path="url(#clip-path-2)">
        <path id="패스_56010" data-name="패스 56010" d="M526.354,29.9l1.38-4.316c.571-1.784,1.149-3.412,1.714-4.807-1.369,1.343-3.678,3.437-5.154,4.73l-5.76,5.014L516,25.509c-.644-1.293-1.618-3.387-2.134-4.73-.309,1.4-.782,3.023-1.351,4.807L511.131,29.9h-8.194l5.784-18.092h8.038l2.321,4.833a28.368,28.368,0,0,1,2.2,5.455,69.114,69.114,0,0,1,5.735-5.455l5.407-4.833h7.936L534.546,29.9Z" transform="translate(-112.066 -2.631)" fill="#747675"/>
        <path id="패스_56011" data-name="패스 56011" d="M566.358,29.9l-.7-3.179H556.2L553.461,29.9H544.1L561.338,11.81h8.813L575.818,29.9Zm-1.746-8.347a26.015,26.015,0,0,1-.57-4.523c-.809,1.215-1.63,2.223-3.489,4.523l-.965,1.188h5.222Z" transform="translate(-121.24 -2.631)" fill="#747675"/>
        <path id="패스_56012" data-name="패스 56012" d="M606.057,29.193l-6.291-5.426-6.925,5.426h-9.9l13.222-9.148L583.289,8.629h10.132l8.959,7.538,6.429-5.066h9.924l-12.8,8.84,10.256,9.252Z" transform="translate(-129.894 -1.923)" fill="#747675"/>
        <path id="패스_56013" data-name="패스 56013" d="M335.545,24.508l2.022-5.644h10.856L346.4,24.508Z" transform="translate(-74.767 -4.203)" fill="#747675"/>
        <path id="패스_56014" data-name="패스 56014" d="M415.593,26.005l4.4-11.179h-4.961l-4.379,11.25c-.49,1.246-.866,1.832-3.088,1.832h-5.12c-2.222,0-2.021-.586-1.535-1.832l5.343-13.99s-8.561,2.077-9.987,2.439a4.053,4.053,0,0,0-2.011,2.312l-3.6,9.18c-1.015,2.6.146,4.477,4.477,4.477h12.509a10.972,10.972,0,0,0,5.237-1.27,5.6,5.6,0,0,0,2.723-3.22" transform="translate(-86.969 -2.693)" fill="#747675"/>
        <path id="패스_56015" data-name="패스 56015" d="M441.165,18a17.071,17.071,0,0,0-4.771,1.151l-3.058,7.821h2.921c1.793,0,5.073-2.354,6.177-5.2,1.161-3.049.551-3.775-1.269-3.775m-3.118,11.739c-2.509,0-14.389-.054-14.389-.054l7.012-18.1a2.112,2.112,0,0,1,1.559-1.229c1.228-.269,8.277-1.827,8.277-1.827l-2.712,6.993a16.125,16.125,0,0,1,6.492-1.392c4.77,0,7.542,2.234,5.34,7.892-2.114,5.454-6.038,7.717-11.578,7.717" transform="translate(-94.401 -1.899)" fill="#747675"/>
        <path id="패스_56016" data-name="패스 56016" d="M309.5,22.02c-2.2,0-2.222-.53-1.747-1.809l.692-1.993c.473-1.281.889-1.811,3.089-1.811h5.642c2.2,0,2.224.53,1.747,1.811l-.693,1.993c-.471,1.279-.885,1.809-3.088,1.809Zm8.59,8.547,1.193-3.061H307.39c-1.814,0-2.147-.724-1.757-1.781l.311-.685c.7,0,9.53-.017,9.53-.017,4.536,0,6.563-1.39,7.6-4.2l1.473-4.166c1.3-3.5-1.258-4.646-6.44-4.646H307.522c-5.785,0-7.808,1.058-9.3,5.089l-3.214,8.681c-1.545,4.174,1.682,4.676,7.034,4.787Z" transform="translate(-65.648 -2.676)" fill="#747675"/>
        <path id="패스_56017" data-name="패스 56017" d="M469.69,23.893c-1.9,0-1.921-.459-1.51-1.563l.6-1.725c.41-1.1.766-1.566,2.671-1.566h4.879c1.9,0,1.92.462,1.512,1.566l-.6,1.725c-.413,1.1-.766,1.563-2.673,1.563Zm7.432,7.394,1.027-2.644H467.868c-1.571,0-1.86-.627-1.521-1.543l.266-.593c.607,0,8.243-.016,8.243-.016,3.919,0,5.676-1.2,6.569-3.633l1.272-3.6c1.123-3.029-1.086-4.018-5.566-4.018H467.98c-5,0-6.753.913-8.045,4.4l-2.778,7.508c-1.338,3.608,1.449,4.041,6.081,4.138Z" transform="translate(-101.791 -3.396)" fill="#747675"/>
        <path id="패스_56018" data-name="패스 56018" d="M380.388,28.125l-10.275-.009c-2.462,0-3.374-.3-2.693-2.046l2.463-6.264c.682-1.742,1.195-2.207,4.013-2.4l10.975-.738,1.091-2.795v-.012H367.971c-4.727,0-7.6,2.049-8.717,4.89l-2.863,7.295c-1.117,2.844.146,4.894,4.873,4.894H379.29Z" transform="translate(-79.328 -3.087)" fill="#747675"/>
        <path id="패스_56019" data-name="패스 56019" d="M264.092,11.368l-1.8,5.891-7.243,0,1.8-5.891h-7.044l1.674-5.477h7.044L260.326,0h7.242l-1.8,5.889h7.044l-1.676,5.478Z" transform="translate(-55.663 0)" fill="#727372"/>
        <path id="패스_56020" data-name="패스 56020" d="M36.179,32.686l-1.062-5.63H19.738l-4.5,5.63H0L28.4.648H42.752l8.806,32.038ZM33.521,17.9a58.226,58.226,0,0,1-.847-8.01c-1.317,2.152-2.667,3.936-5.744,8.01l-1.6,2.105h8.5Z" transform="translate(0 -0.144)" fill="#767676"/>
        <path id="패스_56021" data-name="패스 56021" d="M72.439,32.687,82.235.649H96.589l-7.43,24.3h22.7L109.5,32.687Z" transform="translate(-16.141 -0.144)" fill="#767676"/>
        <path id="패스_56022" data-name="패스 56022" d="M135.754,32.687,142.5,10.626h-8.641L135.579,5c6.661-.229,9.648-1.374,12.022-4.348h11.864l-9.8,32.038Z" transform="translate(-29.827 -0.145)" fill="#767676"/>
        <path id="패스_56023" data-name="패스 56023" d="M188.835,33.046c-13.329,0-21.365-5.813-18.105-16.477S185.756,0,199.085,0,220.45,5.814,217.19,16.477s-15.025,16.569-28.354,16.569m7.766-25.4c-5.492,0-9.477,2.975-11.268,8.833s.494,8.925,5.986,8.925,9.478-2.975,11.269-8.833-.493-8.925-5.987-8.925" transform="translate(-37.881 0)" fill="#767676"/>
      </g>
    </g>
  </g>
</svg>
