<svg xmlns="http://www.w3.org/2000/svg" xmlns:xlink="http://www.w3.org/1999/xlink" width="496" height="52" viewBox="0 0 496 52">
  <defs>
    <clipPath id="clip-path">
      <rect id="사각형_13291" data-name="사각형 13291" width="496" height="52" transform="translate(320.442 855.18)" fill="none" stroke="#707070" stroke-width="1"/>
    </clipPath>
    <clipPath id="clip-path-2">
      <path id="패스_56117" data-name="패스 56117" d="M0,11.344H484.385V-19.843H0Z" transform="translate(0 19.843)" fill="#767676"/>
    </clipPath>
  </defs>
  <g id="bi_DL20W_e-cube_MAX" data-name="bi_DL20W e-cube MAX" transform="translate(-320.442 -855.18)" clip-path="url(#clip-path)">
    <g id="그룹_12369" data-name="그룹 12369" transform="translate(320.441 895.835)">
      <g id="그룹_12357" data-name="그룹 12357" transform="translate(0 -19.843)" clip-path="url(#clip-path-2)">
        <g id="그룹_12352" data-name="그룹 12352" transform="translate(86.486 0.164)">
          <path id="패스_56112" data-name="패스 56112" d="M0,10.886C3.442.952,12.383-3.848,25.17-7.13c5.407-1.389,6.288-1.853,6.65-3.03.4-1.306-.863-2.023-4.635-2.023a42.655,42.655,0,0,0-14.92,2.989L8.115-15.211a60.834,60.834,0,0,1,21.37-3.832c11.715,0,16.943,2.947,15.306,8.294C43.609-6.877,40.733-4.521,30.913-1.91,20.65.824,17.522,2.468,15.971,4.235H40.547l-2.034,6.651Z" transform="translate(0 19.043)" fill="#767676"/>
        </g>
        <g id="그룹_12353" data-name="그룹 12353" transform="translate(130.233 0.933)">
          <path id="패스_56113" data-name="패스 56113" d="M6.195,10.871c-12.055,0-19.324-5.257-16.375-14.9S3.41-19.016,15.464-19.016s19.325,5.257,16.377,14.9S18.251,10.871,6.195,10.871M13.218-12.1C8.25-12.1,4.646-9.413,3.028-4.115S3.472,3.957,8.44,3.957s8.572-2.689,10.194-7.989S18.186-12.1,13.218-12.1" transform="translate(10.836 19.016)" fill="#767676"/>
        </g>
        <g id="그룹_12354" data-name="그룹 12354" transform="translate(182.429 10.625)">
          <path id="패스_56114" data-name="패스 56114" d="M1.838,0l.387,9.4c.02.494.02,1,0,1.529s-.053,1.1-.1,1.721h.1q.224-.8.467-1.657a9.806,9.806,0,0,1,.6-1.594L7.471,0h5.311l.58,9.4q.033.74.016,1.481c-.011.494-.038,1.084-.08,1.77h.064q.29-1.028.547-1.77A14.369,14.369,0,0,1,14.52,9.4L18.736,0H23.4L15.228,17.8h-5.5L9.113,8.627A10.23,10.23,0,0,1,9.129,6.9q.08-.917.209-2.141H9.273q-.354,1.32-.644,2.189c-.193.578-.407,1.138-.643,1.674L3.9,17.8H-1.8L-3.215,0Z" transform="translate(3.215)" fill="#767676"/>
        </g>
        <g id="그룹_12355" data-name="그룹 12355" transform="translate(182.217 10.43)">
          <path id="패스_56115" data-name="패스 56115" d="M1.915.071,1.72.079l.385,9.4c.011.245.016.494.016.745s0,.508-.016.769q-.031.785-.1,1.716L2,12.916h.456l.039-.143q.224-.8.467-1.657A9.711,9.711,0,0,1,3.54,9.554l0,0L7.675.266h5l.569,9.216.195-.013-.195.009q.021.49.02.984c0,.162,0,.322,0,.484q-.017.733-.08,1.762l-.013.207h.421l.039-.143q.288-1.026.544-1.759a13.784,13.784,0,0,1,.6-1.46l0,0L18.941.266h4.236l-8,17.409h-5.2l-.6-8.995h0c-.019-.231-.028-.471-.028-.72q0-.467.044-.968.08-.915.209-2.137l.022-.215H9.2l-.038.145Q8.808,6.1,8.521,6.961T7.884,8.619l0-.009L3.848,17.675H-1.541L-2.927.266H1.915V.071L1.72.079,1.915.071V-.124H-3.35L-1.9,18.066h6L8.238,8.786l0-.009q.356-.813.649-1.691c.2-.585.41-1.317.648-2.2l-.189-.05v.2h.064v-.2l-.195-.02Q9.093,6.04,9.011,6.958c-.03.346-.046.679-.046,1,0,.258.009.509.03.753L9.19,8.7,9,8.71l.622,9.356h5.814L23.786-.124h-5.1L14.419,9.389l.178.08-.176-.083a14.631,14.631,0,0,0-.621,1.5q-.259.747-.55,1.781l.189.052v-.195h-.064v.195l.195.013c.044-.688.071-1.279.082-1.778,0-.163,0-.327,0-.492,0-.333-.006-.668-.02-1l0,0L13.042-.124H7.421L3.185,9.391l.179.079-.178-.083A10.176,10.176,0,0,0,2.58,11.01c-.16.569-.317,1.122-.467,1.658l.189.052v-.195H2.2v.195l.195.014c.044-.624.075-1.2.1-1.727.011-.266.016-.527.016-.784s0-.511-.016-.761L2.1-.124H1.915Z" transform="translate(3.35 0.124)" fill="#767676"/>
        </g>
        <g id="그룹_12356" data-name="그룹 12356" transform="translate(-0.001 0.001)">
          <path id="패스_56116" data-name="패스 56116" d="M5.644,10.876H-9.873l9.142-29.9H16.017c15.038,0,23.523,3.546,20.087,14.78S22.6,10.876,5.644,10.876m8.137-22.811H10.5L5.693,3.785h2.87c8.272,0,12.085-1.965,13.9-7.9,1.685-5.512-.413-7.817-8.683-7.817" transform="translate(9.873 19.026)" fill="#767676"/>
        </g>
      </g>
      <g id="그룹_12358" data-name="그룹 12358" transform="translate(45.93 -19.842)">
        <path id="패스_56118" data-name="패스 56118" d="M3.325,0-5.817,29.9H28.771l2.207-7.22H9.788L16.724,0Z" transform="translate(5.817)" fill="#767676"/>
      </g>
      <g id="그룹_12359" data-name="그룹 12359" transform="translate(252.204 -0.542)">
        <path id="패스_56119" data-name="패스 56119" d="M0,1.041.875-1.821H8.551L7.676,1.041Z" transform="translate(0 1.821)" fill="#767676"/>
      </g>
      <g id="그룹_12367" data-name="그룹 12367" transform="translate(0 -19.843)" clip-path="url(#clip-path-2)">
        <g id="그룹_12360" data-name="그룹 12360" transform="translate(317.578 9.476)">
          <path id="패스_56120" data-name="패스 56120" d="M5.976,3.421A16,16,0,0,0,1.334,4.562l-2.4,7.764h2.9c1.782,0,4.849-2.335,5.711-5.16.908-3.025.242-3.745-1.567-3.745M3.835,15.072c-2.491,0-14.288-.055-14.288-.055L-4.96-2.95A1.867,1.867,0,0,1-3.514-4.17c1.2-.267,8.069-1.815,8.069-1.815L2.428.959A15.179,15.179,0,0,1,8.762-.424c4.734,0,7.67,2.219,5.941,7.838-1.657,5.414-5.367,7.659-10.868,7.659" transform="translate(10.453 5.985)" fill="#767676"/>
        </g>
        <g id="그룹_12361" data-name="그룹 12361" transform="translate(263.724 13.593)">
          <path id="패스_56121" data-name="패스 56121" d="M8.815,5.152l-10.2-.008c-2.444,0-3.378-.3-2.838-2.032L-2.29-3.107C-1.75-4.838-1.28-5.3,1.5-5.493l10.835-.736L13.192-9v-.009H-4.668c-4.691,0-7.377,2.032-8.256,4.853l-2.249,7.242c-.882,2.824.541,4.858,5.232,4.858h17.9Z" transform="translate(15.42 9.012)" fill="#767676"/>
        </g>
        <g id="그룹_12362" data-name="그룹 12362" transform="translate(219.145 12.347)">
          <path id="패스_56122" data-name="패스 56122" d="M8.676,6.64,9.71,3.255H-4.631A1.2,1.2,0,0,1-5.8,1.568l.248-.814H7.383a6.6,6.6,0,0,0,5.873-4.5l1.031-3.373c.759-2.485-.638-4.5-3.123-4.5H-6.262a6.6,6.6,0,0,0-5.873,4.5l-2.835,9.271c-.759,2.485.644,4.486,3.128,4.486ZM-3.317-6.556a2.474,2.474,0,0,1,2.2-1.686H7.318A1.2,1.2,0,0,1,8.489-6.556L7.8-4.307A2.473,2.473,0,0,1,5.6-2.619H-2.835A1.205,1.205,0,0,1-4.006-4.307Z" transform="translate(15.177 11.615)" fill="#767676"/>
        </g>
        <g id="그룹_12363" data-name="그룹 12363" transform="translate(343.974 14.719)">
          <path id="패스_56123" data-name="패스 56123" d="M7.547,5.777l.9-2.945H-4.03A1.048,1.048,0,0,1-5.047,1.363l.215-.707H6.422a5.745,5.745,0,0,0,5.111-3.913l.9-2.934c.66-2.161-.555-3.913-2.717-3.913H-5.449a5.743,5.743,0,0,0-5.108,3.913l-2.466,8.066c-.66,2.161.558,3.9,2.717,3.9ZM-2.887-5.7A2.155,2.155,0,0,1-.971-7.171H6.367A1.048,1.048,0,0,1,7.385-5.7l-.6,1.958A2.156,2.156,0,0,1,4.871-2.278H-2.467A1.049,1.049,0,0,1-3.486-3.746Z" transform="translate(13.202 10.105)" fill="#767676"/>
        </g>
        <g id="그룹_12364" data-name="그룹 12364" transform="translate(291.255 12.226)">
          <path id="패스_56124" data-name="패스 56124" d="M.094,4.6,2.466-3.159a4.23,4.23,0,0,1,2.851-2.7l8.76-2.185L9.7,6.26a1,1,0,0,0,.976,1.405h6.841A2.063,2.063,0,0,0,19.358,6.26h-.039L22.86-5.325h5.059L24.885,4.6a8.253,8.253,0,0,1-7.341,5.622H4C.892,10.22-.855,7.7.094,4.6" transform="translate(0.164 8.044)" fill="#767676"/>
        </g>
        <g id="그룹_12365" data-name="그룹 12365" transform="translate(384.441 12.095)">
          <path id="패스_56125" data-name="패스 56125" d="M8.689,6.714,10.1,2.31c.582-1.818,1.171-3.48,1.749-4.905-1.4,1.374-3.755,3.508-5.26,4.827L.709,7.346-1.878,2.232C-2.533.913-3.528-1.221-4.054-2.595c-.313,1.425-.8,3.087-1.377,4.905l-1.41,4.4H-15.2l5.9-18.459h8.2L1.267-6.813A28.868,28.868,0,0,1,3.512-1.249,71.378,71.378,0,0,1,9.363-6.813l5.517-4.932h8.094L17.047,6.714Z" transform="translate(15.199 11.745)" fill="#767676"/>
        </g>
        <g id="그룹_12366" data-name="그룹 12366" transform="translate(417.079 12.095)">
          <path id="패스_56126" data-name="패스 56126" d="M8.258,6.714,7.544,3.47h-9.65L-4.9,6.714h-9.546L3.136-11.745h8.993L17.908,6.714ZM6.477-1.8A26.254,26.254,0,0,1,5.9-6.417C5.069-5.177,4.233-4.149,2.337-1.8L1.352-.589H6.678Z" transform="translate(14.445 11.745)" fill="#767676"/>
        </g>
      </g>
      <g id="그룹_12368" data-name="그룹 12368" transform="translate(447.872 -10.271)">
        <path id="패스_56128" data-name="패스 56128" d="M.129,0,13.265,11.648-.226,20.983h10.1l7.065-5.539,6.417,5.539H33.692L23.226,11.542,36.288,2.524H26.162L19.6,7.692,10.463,0Z" transform="translate(0.226)" fill="#767676"/>
      </g>
    </g>
  </g>
</svg>
