<svg xmlns="http://www.w3.org/2000/svg" xmlns:xlink="http://www.w3.org/1999/xlink" width="496" height="52" viewBox="0 0 496 52">
  <defs>
    <clipPath id="clip-path">
      <rect id="사각형_13291" data-name="사각형 13291" width="496" height="52" transform="translate(320.442 855.18)" fill="none" stroke="#707070" stroke-width="1"/>
    </clipPath>
    <clipPath id="clip-path-2">
      <rect id="사각형_13318" data-name="사각형 13318" width="456.326" height="33.067" fill="none"/>
    </clipPath>
  </defs>
  <g id="bi_Smart_Flex_DH35" transform="translate(-320.442 -855.18)" clip-path="url(#clip-path)">
    <g id="그룹_11507" data-name="그룹 11507" transform="translate(320.441 872.113)">
      <g id="그룹_11506" data-name="그룹 11506" transform="translate(0 0)" clip-path="url(#clip-path-2)">
        <path id="패스_55481" data-name="패스 55481" d="M318.947,19.807a7.655,7.655,0,0,1-6.808,5.213H250.557c-2.881,0-4.5-2.334-3.622-5.213l3.187-10.427a7.654,7.654,0,0,1,6.809-5.213h61.583c2.878,0,4.5,2.332,3.62,5.213Z" transform="translate(-71.319 -1.204)" fill="#747474"/>
        <path id="패스_55482" data-name="패스 55482" d="M330.027,14.454l8.379-6.3h-3.979L328.587,12.6,325.2,8.155h-4.612l5.073,6.689-9.14,7.045H320.6l6.552-5.131L331,21.889h4.715Z" transform="translate(-91.506 -2.358)" fill="#fff"/>
        <path id="패스_55483" data-name="패스 55483" d="M257.984,6.062l-4.462,14.6h4.012l2.128-6.962h8.21l.933-3.053H260.6l1.166-3.815h10.808l.9-2.923H260.8a3.165,3.165,0,0,0-2.814,2.153" transform="translate(-73.293 -1.13)" fill="#fff"/>
        <path id="패스_55484" data-name="패스 55484" d="M285.414,7.213l-4.007,1.724L278.19,19.463a1.539,1.539,0,0,0,1.5,2.153h7.18l2.215-2.37h-7.347Z" transform="translate(-80.396 -2.085)" fill="#fff"/>
        <path id="패스_55485" data-name="패스 55485" d="M301.594,11.308a1.055,1.055,0,0,1,.938-.718h6.547a.684.684,0,0,1,.665.958l-.548,1.791a1.4,1.4,0,0,1-1.251.958h-4.578l-2.216,2.37h8.112a3.162,3.162,0,0,0,2.812-2.155l1.285-4.2a1.54,1.54,0,0,0-1.5-2.154H301.238a3.158,3.158,0,0,0-2.814,2.154l-2.883,9.426a1.539,1.539,0,0,0,1.5,2.153H309.03l.783-2.565h-9.952a.512.512,0,0,1-.5-.717l.593-1.94Z" transform="translate(-85.412 -2.358)" fill="#fff"/>
        <path id="패스_55486" data-name="패스 55486" d="M23.628,14.407c-6.178-1.073-7.5-1.646-7.066-3.063.321-1.049,2.1-2.172,6.138-2.172A11.506,11.506,0,0,1,31,12.1l.22.2L39.51,7.621,39.1,7.229c-3.389-3.22-7.857-4.719-14.06-4.719C15.97,2.51,8.5,6.246,6.86,11.6c-1.988,6.5,3.9,8.086,10.643,9.248,7.623,1.284,8.253,2.1,7.816,3.525-.387,1.266-1.6,2.72-7.618,2.72-4.241,0-7.392-1.093-9.367-3.25l-.208-.227L0,27.893l.272.414c2.263,3.436,7.834,5.486,14.9,5.486,14.7,0,18.775-6.167,19.9-9.844,2.023-6.617-4.544-8.342-11.445-9.542" transform="translate(0 -0.726)" fill="#747474"/>
        <path id="패스_55487" data-name="패스 55487" d="M74.379,36.143,78.3,23.956,66.284,36.583l-4.35-12.626L58.405,36.143H49.436l6.973-22.809h8.432L69.427,26.3,81.991,13.334h8.333L83.348,36.143Z" transform="translate(-14.292 -3.855)" fill="#747474"/>
        <path id="패스_55488" data-name="패스 55488" d="M123.331,35.946l.465-1.519a17.969,17.969,0,0,1-8.366,2c-6.441,0-12.429-2.605-10.739-8.126,1.54-5.041,8.829-7.56,16.65-7.56a18.024,18.024,0,0,1,6.359.913l.345-1.13c.491-1.609-1.489-2.741-4.776-2.741a42.432,42.432,0,0,0-12.259,1.863l-.51-4.683a42.082,42.082,0,0,1,14.334-2.3c8.346,0,14.359,2.182,12.792,7.313L132.74,35.946Zm2.814-9.218a12.148,12.148,0,0,0-5.963-1.127c-3.419,0-5.524.874-6.081,2.7-.488,1.61.5,2.871,4.381,2.871a11.691,11.691,0,0,0,6.946-2.085Z" transform="translate(-30.182 -3.658)" fill="#747474"/>
        <path id="패스_55489" data-name="패스 55489" d="M171.262,36.143l-5.835-7.689h-3.846l-2.349,7.689h-9.416l6.975-22.809h15.424c8.082,0,12.835,2.02,11.182,7.427-1.043,3.422-4.109,5.541-8.249,6.68l6.806,8.7Zm-.865-17.66H164.63l-1.523,4.986h5.62c3.1,0,4.615-.914,5.113-2.544.436-1.432-.435-2.443-3.444-2.443" transform="translate(-43.312 -3.855)" fill="#747474"/>
        <path id="패스_55490" data-name="패스 55490" d="M218.625,18.839l-5.292,17.3h-9.561l5.291-17.3h-8.377l-2.169-5.505h31.45l-1.683,5.505Z" transform="translate(-57.391 -3.855)" fill="#747474"/>
        <path id="패스_55491" data-name="패스 55491" d="M387.173,32.016H371.246l9.387-30.7h17.189c15.434,0,24.143,3.641,20.615,15.176S404.57,32.016,387.173,32.016M395.525,8.6h-3.367l-4.936,16.141h2.947c8.489,0,12.4-2.018,14.268-8.115,1.73-5.657-.424-8.026-8.912-8.026" transform="translate(-107.327 -0.38)" fill="#6c6e71"/>
        <path id="패스_55492" data-name="패스 55492" d="M466.752,32.017l3.7-12.1H455.16l-3.7,12.1H437.567l9.388-30.7h13.891L457.427,12.5H472.72l3.419-11.185h13.892l-9.387,30.7Z" transform="translate(-126.5 -0.38)" fill="#6c6e71"/>
        <path id="패스_55493" data-name="패스 55493" d="M593.476,32.455c-8.488,0-14.5-1.448-19.836-3.729l7.486-6.361a39.84,39.84,0,0,0,14.861,3.028c6.314,0,9.07-1.447,9.822-3.9.724-2.369-1.285-3.6-5.495-3.6a24.017,24.017,0,0,0-9.586,1.755l-10.9-2.458,6.552-15.92h35.779L620.045,8.2H595.28l-1.722,4.255a38.222,38.222,0,0,1,11.01-1.359c10.592,0,16.519,3.333,14.428,10.174-2.187,7.152-11.559,11.187-25.52,11.187" transform="translate(-165.839 -0.367)" fill="#6c6e71"/>
        <path id="패스_55494" data-name="패스 55494" d="M532.7,31.669c-8.349,0-14.885-1.8-19.263-4.694l8.706-5.527a25.617,25.617,0,0,0,12.982,3.2c5.684,0,8.377-1.009,9.02-3.114.657-2.149-1.066-2.937-6.047-2.937h-7.085l2.024-6.624h6.313c4.28,0,5.859-.57,6.474-2.589.5-1.622-1.2-2.5-6.041-2.5a33.568,33.568,0,0,0-13.012,2.632L522,3.992A50.675,50.675,0,0,1,542.236,0c11.786,0,18.933,2.326,16.948,8.817-1.032,3.377-4.685,5-8.362,6.009,4.36.66,7.729,2.72,6.535,6.623-2.172,7.107-11.33,10.221-24.661,10.221" transform="translate(-148.433 0)" fill="#6c6e71"/>
      </g>
    </g>
  </g>
</svg>
