<svg xmlns="http://www.w3.org/2000/svg" xmlns:xlink="http://www.w3.org/1999/xlink" width="496" height="52" viewBox="0 0 496 52">
  <defs>
    <clipPath id="clip-path">
      <rect id="사각형_12017" data-name="사각형 12017" width="496" height="52" transform="translate(320.442 855.18)" fill="none" stroke="#707070" stroke-width="1"/>
    </clipPath>
    <clipPath id="clip-path-2">
      <path id="패스_55314" data-name="패스 55314" d="M0,6.934H399.124V-21.26H0Z" transform="translate(0 21.26)" fill="none"/>
    </clipPath>
  </defs>
  <g id="bi_SMaRT_WoRK_DM09" data-name="bi_SMaRT WoRK DM09" transform="translate(-320.442 -855.18)" clip-path="url(#clip-path)">
    <g id="그룹_11283" data-name="그룹 11283" transform="translate(320.442 900.247)">
      <g id="그룹_11270" data-name="그룹 11270" transform="translate(0 -21.26)" clip-path="url(#clip-path-2)">
        <g id="그룹_11264" data-name="그룹 11264" transform="translate(226.971 0.42)">
          <path id="패스_55308" data-name="패스 55308" d="M3.426,6.6H-10.506L-2.3-20.249H12.74c13.5,0,21.124,3.184,18.039,13.273S18.648,6.6,3.426,6.6m7.306-20.485H7.787L3.47.234H6.045c7.429,0,10.853-1.762,12.483-7.093,1.513-4.95-.369-7.022-7.8-7.022" transform="translate(10.506 20.249)" fill="#85868a"/>
        </g>
        <g id="그룹_11265" data-name="그룹 11265" transform="translate(268.213 0.42)">
          <path id="패스_55309" data-name="패스 55309" d="M7.849,6.6,9.808.2c.812-2.647,1.61-5.063,2.428-7.135-1.9,1.995-5.057,5.1-7.116,7.021L-2.8,7.524-6.175.083C-7.062-1.836-8.32-4.943-9-6.937-9.45-4.866-10.128-2.45-10.936.2L-12.893,6.6H-24.067l8.21-26.853H-4.932l3.087,7.174A42.069,42.069,0,0,1,1.079-4.98a101.64,101.64,0,0,1,7.88-8.095l7.47-7.174h10.8L19.023,6.6Z" transform="translate(24.067 20.249)" fill="#85868a"/>
        </g>
        <g id="그룹_11266" data-name="그룹 11266" transform="translate(318.591 0)">
          <path id="패스_55310" data-name="패스 55310" d="M3.881,6.811C-7.29,6.811-14.025,1.94-11.294-7S1.3-20.883,12.471-20.883,30.377-16.012,27.646-7.074,15.05,6.811,3.881,6.811m6.507-21.288c-4.6,0-7.944,2.493-9.445,7.4S1.358.405,5.963.405,13.906-2.088,15.405-7s-.412-7.481-5.017-7.481" transform="translate(11.901 20.883)" fill="#85868a"/>
        </g>
        <g id="그룹_11267" data-name="그룹 11267" transform="translate(360.921 0)">
          <path id="패스_55311" data-name="패스 55311" d="M.157,6.811,2.022.714c11.234,0,17.76-2.073,21.965-5.181A36.209,36.209,0,0,1,12.456-2.894C3.556-2.894-1.9-5.54-.161-11.217c1.853-6.062,10.384-9.666,22.536-9.666,10.8,0,17.155,3.72,14.89,11.124C35.1-2.663,24.711,6.811.157,6.811M19.966-15.016c-4.481,0-7.837,1.151-8.494,3.3-.634,2.071,1.68,3.338,6.221,3.338,5.279,0,8.184-1.266,8.829-3.378.585-1.915-1.337-3.261-6.556-3.261" transform="translate(0.482 20.883)" fill="#85868a"/>
        </g>
        <g id="그룹_11268" data-name="그룹 11268" transform="translate(159.529 1.061)">
          <path id="패스_55312" data-name="패스 55312" d="M14.932,3.466A6.9,6.9,0,0,1,8.8,8.166h-51.1c-2.6,0-4.057-2.1-3.264-4.7l2.872-9.4a6.9,6.9,0,0,1,6.137-4.7h51.1c2.6,0,4.057,2.1,3.264,4.7Z" transform="translate(45.786 10.629)" fill="#85868a"/>
        </g>
        <g id="그룹_11269" data-name="그룹 11269" transform="translate(159.528 1.061)">
          <path id="패스_55313" data-name="패스 55313" d="M15.639,3.466c.792,2.6-.668,4.7-3.264,4.7h-51.1a6.9,6.9,0,0,1-6.136-4.7l-2.875-9.4c-.792-2.6.668-4.7,3.264-4.7h51.1a6.9,6.9,0,0,1,6.136,4.7Z" transform="translate(47.953 10.629)" fill="#85868a"/>
        </g>
      </g>
      <g id="그룹_11271" data-name="그룹 11271" transform="translate(165.997 -17.222)">
        <path id="패스_55315" data-name="패스 55315" d="M0,2.791.07-8.557H3.013l-.237,7.8,4.986-7.8h3.42l.072,7.928,4.61-7.928h2.894L11.83,2.791H8.78L8.538-5.693,3.118,2.791Z" transform="translate(0 8.557)" fill="#fff"/>
      </g>
      <g id="그룹_11274" data-name="그룹 11274" transform="translate(0 -21.26)" clip-path="url(#clip-path-2)">
        <g id="그룹_11272" data-name="그룹 11272" transform="translate(182.329 5.288)">
          <path id="패스_55316" data-name="패스 55316" d="M.066,1.277A7.025,7.025,0,0,1,1.411-1.27,7.581,7.581,0,0,1,2.982-2.631a7.282,7.282,0,0,1,1.88-.894,9.482,9.482,0,0,1,2.8-.393,5.129,5.129,0,0,1,3.98,1.362,3.708,3.708,0,0,1,.495,3.785A6.718,6.718,0,0,1,9.353,4.992,8.473,8.473,0,0,1,4.564,6.35,5.162,5.162,0,0,1,.567,5a3.643,3.643,0,0,1-.5-3.721M2.672,1.21a2.68,2.68,0,0,0,.2,2.557,2.685,2.685,0,0,0,2.209.87A4.625,4.625,0,0,0,7.8,3.773a4.724,4.724,0,0,0,1.752-2.59A2.7,2.7,0,0,0,9.4-1.364,2.711,2.711,0,0,0,7.163-2.2a4.67,4.67,0,0,0-2.76.85A4.668,4.668,0,0,0,2.672,1.21" transform="translate(0.202 3.917)" fill="#fff"/>
        </g>
        <g id="그룹_11273" data-name="그룹 11273" transform="translate(194.254 5.457)">
          <path id="패스_55317" data-name="패스 55317" d="M0,2.442,3.036-7.487h5.3a10.272,10.272,0,0,1,2.819.268,1.852,1.852,0,0,1,1.159.952A2.07,2.07,0,0,1,12.374-4.7a3.438,3.438,0,0,1-1.388,1.846,5.889,5.889,0,0,1-2.745.918,3.851,3.851,0,0,1,1.093.833A7.631,7.631,0,0,1,10.272.506l.93,1.936H8.193L7.034.281a9.45,9.45,0,0,0-.879-1.459,1.349,1.349,0,0,0-.631-.414A4.7,4.7,0,0,0,4.291-1.7H3.782L2.516,2.442ZM4.266-3.287H6.128a12.732,12.732,0,0,0,2.3-.122,2.01,2.01,0,0,0,.834-.42,1.569,1.569,0,0,0,.483-.745.848.848,0,0,0-.088-.809,1.222,1.222,0,0,0-.829-.39c-.2-.021-.806-.034-1.825-.034H5.037Z" transform="translate(0 7.487)" fill="#fff"/>
        </g>
      </g>
      <g id="그룹_11275" data-name="그룹 11275" transform="translate(205.978 -15.803)">
        <path id="패스_55319" data-name="패스 55319" d="M0,2.442,3.036-7.487H5.551L4.2-3.078l6.432-4.409h3.382L8.144-3.62l3.093,6.062H7.981l-2-4.66L3.433-.558l-.918,3Z" transform="translate(0 7.487)" fill="#fff"/>
      </g>
      <g id="그룹_11277" data-name="그룹 11277" transform="translate(0 -21.26)" clip-path="url(#clip-path-2)">
        <g id="그룹_11276" data-name="그룹 11276" transform="translate(0.001)">
          <path id="패스_55320" data-name="패스 55320" d="M5.237,2.637C-.331,1.67-1.521,1.154-1.131-.123-.842-1.069.763-2.081,4.4-2.081A10.372,10.372,0,0,1,11.88.56l.2.186,7.474-4.225-.373-.353C16.125-6.733,12.1-8.086,6.506-8.086-1.665-8.086-8.4-4.718-9.876.1-11.667,5.966-6.363,7.391-.284,8.44,6.587,9.6,7.155,10.33,6.761,11.615,6.412,12.757,5.315,14.068-.1,14.068c-3.823,0-6.662-.985-8.443-2.929l-.186-.206-7.324,3.858.245.374c2.038,3.1,7.06,4.942,13.43,4.942,13.245,0,16.921-5.558,17.935-8.871,1.823-5.965-4.1-7.519-10.315-8.6" transform="translate(16.058 8.086)" fill="#85868a"/>
        </g>
      </g>
      <g id="그룹_11278" data-name="그룹 11278" transform="translate(31.674 -14.325)">
        <path id="패스_55322" data-name="패스 55322" d="M7.216,0-4.108,11.69-8.243,0h-7.6l-6.285,20.558h8.083l3.181-10.983,3.92,11.378L3.891,9.575.355,20.558H8.439L14.726,0Z" transform="translate(22.126)" fill="#85868a"/>
      </g>
      <g id="그룹_11281" data-name="그룹 11281" transform="translate(0 -21.26)" clip-path="url(#clip-path-2)">
        <g id="그룹_11279" data-name="그룹 11279" transform="translate(66.892 6.5)">
          <path id="패스_55323" data-name="패스 55323" d="M4.2,5.162l.42-1.37a16.186,16.186,0,0,1-7.54,1.8c-5.806,0-11.2-2.347-9.679-7.323C-11.215-6.274-4.646-8.545,2.4-8.545a16.252,16.252,0,0,1,5.732.822l.31-1.018c.444-1.451-1.341-2.471-4.3-2.471A38.241,38.241,0,0,0-6.908-9.531l-.46-4.221A37.914,37.914,0,0,1,5.552-15.829c7.521,0,12.939,1.967,11.528,6.591l-4.4,14.4ZM6.732-3.146A10.96,10.96,0,0,0,1.358-4.162c-3.081,0-4.978.788-5.481,2.431C-4.564-.28-3.67.858-.175.858A10.538,10.538,0,0,0,6.087-1.024Z" transform="translate(12.865 15.829)" fill="#85868a"/>
        </g>
        <g id="그룹_11280" data-name="그룹 11280" transform="translate(95.99 6.935)">
          <path id="패스_55324" data-name="패스 55324" d="M4.753,5.055-.506-1.874H-3.973L-6.089,5.055h-8.486L-8.289-15.5h13.9c7.283,0,11.567,1.821,10.076,6.694-.94,3.083-3.7,4.994-7.434,6.019L14.39,5.055Zm-.78-15.916h-5.2L-2.6-6.367H2.468c2.8,0,4.159-.824,4.608-2.293.393-1.292-.391-2.2-3.1-2.2" transform="translate(14.575 15.501)" fill="#85868a"/>
        </g>
      </g>
      <g id="그룹_11282" data-name="그룹 11282" transform="translate(127.193 -14.325)">
        <path id="패스_55326" data-name="패스 55326" d="M0,0,1.955,4.962H9.5l-4.769,15.6h8.617l4.77-15.6h8.7L28.345,0Z" fill="#85868a"/>
      </g>
    </g>
  </g>
</svg>
