<svg xmlns="http://www.w3.org/2000/svg" xmlns:xlink="http://www.w3.org/1999/xlink" width="496" height="52" viewBox="0 0 496 52">
  <defs>
    <clipPath id="clip-path">
      <rect id="사각형_13291" data-name="사각형 13291" width="496" height="52" transform="translate(320.442 855.18)" fill="none" stroke="#707070" stroke-width="1"/>
    </clipPath>
  </defs>
  <g id="bi_Smart_Work_AM15" data-name="bi_Smart Work AM15" transform="translate(-320.442 -855.18)" clip-path="url(#clip-path)">
    <g id="그룹_11242" data-name="그룹 11242" transform="translate(232.131 661.044)">
      <g id="그룹_11236" data-name="그룹 11236" transform="translate(88.311 212.511)">
        <g id="그룹_11232" data-name="그룹 11232" transform="translate(169.864 1.13)">
          <g id="그룹_11230" data-name="그룹 11230" transform="translate(0.001)">
            <path id="패스_55301" data-name="패스 55301" d="M422.588,229.313a7.347,7.347,0,0,1-6.534,5H361.64c-2.763,0-4.319-2.238-3.474-5l3.058-10.006a7.347,7.347,0,0,1,6.534-5h54.413c2.764,0,4.319,2.238,3.475,5Z" transform="translate(-357.936 -214.304)" fill="#6d6f72"/>
          </g>
          <path id="패스_55302" data-name="패스 55302" d="M425.647,229.313c.843,2.765-.711,5-3.475,5H367.759a7.345,7.345,0,0,1-6.534-5l-3.061-10.006c-.844-2.764.711-5,3.474-5h54.414a7.346,7.346,0,0,1,6.534,5Z" transform="translate(-357.935 -214.304)" fill="#6d6f72"/>
          <g id="그룹_11231" data-name="그룹 11231" transform="translate(6.888 3.17)">
            <path id="패스_55303" data-name="패스 55303" d="M368.868,231.418l.074-12.083h3.134l-.251,8.3,5.309-8.3h3.641l.078,8.44,4.907-8.44h3.081l-7.375,12.083h-3.248l-.258-9.033-5.771,9.033Z" transform="translate(-368.868 -219.335)" fill="#fff"/>
            <path id="패스_55304" data-name="패스 55304" d="M396.7,226.978a7.469,7.469,0,0,1,1.435-2.712,8.072,8.072,0,0,1,1.678-1.45,7.761,7.761,0,0,1,2.007-.951,10.164,10.164,0,0,1,2.988-.419,5.485,5.485,0,0,1,4.248,1.45q1.317,1.449.528,4.031a7.162,7.162,0,0,1-2.971,4.006,9.056,9.056,0,0,1-5.112,1.446,5.521,5.521,0,0,1-4.266-1.438Q395.93,229.5,396.7,226.978Zm2.782-.072a2.479,2.479,0,0,0,2.568,3.649,4.946,4.946,0,0,0,2.91-.919,5.033,5.033,0,0,0,1.871-2.759,2.422,2.422,0,0,0-2.555-3.605,4.8,4.8,0,0,0-4.794,3.634Z" transform="translate(-379.061 -220.116)" fill="#fff"/>
            <path id="패스_55305" data-name="패스 55305" d="M416.625,232.305l3.233-10.572H425.5a10.932,10.932,0,0,1,3,.285,1.978,1.978,0,0,1,1.234,1.014,2.209,2.209,0,0,1,.069,1.665,3.66,3.66,0,0,1-1.479,1.966,6.279,6.279,0,0,1-2.922.977,4.1,4.1,0,0,1,1.164.888,8.084,8.084,0,0,1,1,1.716l.99,2.063h-3.2l-1.234-2.3a10.136,10.136,0,0,0-.937-1.554,1.443,1.443,0,0,0-.672-.44,4.973,4.973,0,0,0-1.312-.12h-.542l-1.349,4.414Zm4.543-6.1h1.982a13.564,13.564,0,0,0,2.448-.13,2.135,2.135,0,0,0,.888-.447,1.681,1.681,0,0,0,.513-.794.9.9,0,0,0-.094-.862,1.3,1.3,0,0,0-.882-.415q-.316-.036-1.943-.037h-2.092Z" transform="translate(-386.538 -220.222)" fill="#fff"/>
            <path id="패스_55306" data-name="패스 55306" d="M436.441,232.305l3.232-10.572h2.679l-1.436,4.695,6.847-4.695h3.6l-6.253,4.118,3.293,6.454h-3.466l-2.13-4.962L440.1,229.11l-.977,3.195Z" transform="translate(-393.87 -220.222)" fill="#fff"/>
          </g>
        </g>
        <g id="그룹_11234" data-name="그룹 11234">
          <path id="패스_55307" data-name="패스 55307" d="M110.987,223.929c-5.929-1.03-7.2-1.579-6.781-2.938.308-1.009,2.016-2.086,5.891-2.086a11.037,11.037,0,0,1,7.963,2.814l.211.2,7.958-4.5-.4-.375c-3.253-3.089-7.541-4.529-13.494-4.529-8.7,0-15.874,3.586-17.443,8.721-1.908,6.241,3.74,7.76,10.214,8.876,7.315,1.23,7.919,2.013,7.5,3.381-.371,1.215-1.538,2.611-7.31,2.611-4.07,0-7.094-1.05-8.99-3.12l-.2-.217-7.8,4.106.262.4c2.171,3.3,7.517,5.262,14.3,5.262,14.1,0,18.017-5.918,19.1-9.445C123.911,226.734,117.609,225.079,110.987,223.929Z" transform="translate(-88.311 -212.511)" fill="#6d6f72"/>
          <g id="그룹_11233" data-name="그룹 11233" transform="translate(33.727 6.921)">
            <path id="패스_55308" data-name="패스 55308" d="M165.782,246.12l3.765-11.695-11.533,12.117-4.175-12.117-3.386,11.695h-8.607l6.691-21.889h8.092l4.4,12.446,12.058-12.446h8l-6.7,21.889Z" transform="translate(-141.845 -223.769)" fill="#6d6f72"/>
            <path id="패스_55309" data-name="패스 55309" d="M219.533,245.848l.447-1.458a17.237,17.237,0,0,1-8.029,1.915c-6.181,0-11.927-2.5-10.306-7.8,1.479-4.837,8.474-7.255,15.979-7.255a17.3,17.3,0,0,1,6.1.874l.331-1.084c.473-1.546-1.428-2.632-4.583-2.632A40.723,40.723,0,0,0,207.71,230.2l-.49-4.5a40.394,40.394,0,0,1,13.757-2.21c8.008,0,13.778,2.094,12.275,7.018l-4.689,15.334Zm2.7-8.847a11.666,11.666,0,0,0-5.724-1.082c-3.28,0-5.3.838-5.836,2.588-.469,1.544.483,2.756,4.2,2.756a11.219,11.219,0,0,0,6.667-2Z" transform="translate(-163.868 -223.497)" fill="#6d6f72"/>
            <path id="패스_55310" data-name="패스 55310" d="M271.127,246.12l-5.6-7.379h-3.691l-2.254,7.379h-9.036l6.694-21.889h14.8c7.755,0,12.317,1.94,10.73,7.128-1,3.284-3.943,5.317-7.917,6.409l6.532,8.351Zm-.831-16.948h-5.534l-1.462,4.785h5.394c2.978,0,4.429-.877,4.907-2.441C274.019,230.141,273.183,229.172,270.3,229.172Z" transform="translate(-182.064 -223.769)" fill="#6d6f72"/>
            <path id="패스_55311" data-name="패스 55311" d="M322.581,229.515,317.5,246.12h-9.176l5.078-16.605h-8.039l-2.082-5.284h30.181l-1.615,5.284Z" transform="translate(-201.577 -223.769)" fill="#6d6f72"/>
          </g>
        </g>
        <g id="그룹_11235" data-name="그룹 11235" transform="translate(241.676 3.606)">
          <path id="패스_55312" data-name="패스 55312" d="M504.7,247.261l-.961-5.1H489.8l-4.079,5.1h-13.8l25.728-29.026h13l7.978,29.026Zm-2.407-13.394a52.528,52.528,0,0,1-.767-7.257c-1.193,1.949-2.417,3.566-5.205,7.257l-1.447,1.908h7.7Z" transform="translate(-471.922 -218.235)" fill="#6d6f72"/>
          <path id="패스_55313" data-name="패스 55313" d="M585.828,247.261l2.119-6.926c.875-2.861,1.739-5.474,2.623-7.712-2.054,2.157-5.467,5.514-7.7,7.588l-8.563,8.044-3.645-8.044c-.958-2.073-2.319-5.431-3.052-7.588-.488,2.238-1.218,4.85-2.094,7.712l-2.119,6.926H551.326l8.874-29.026h11.811l3.336,7.753a45.935,45.935,0,0,1,3.164,8.751,109.4,109.4,0,0,1,8.513-8.751l8.077-7.753H606.78L597.9,247.261Z" transform="translate(-501.301 -218.235)" fill="#6d6f72"/>
          <path id="패스_55314" data-name="패스 55314" d="M648.083,247.261l6.112-19.987h-7.83l1.561-5.1c6.033-.207,8.74-1.244,10.891-3.939h10.748l-8.874,29.026Z" transform="translate(-536.465 -218.235)" fill="#6d6f72"/>
          <path id="패스_55315" data-name="패스 55315" d="M699.5,247.717a45.555,45.555,0,0,1-18.762-3.525l7.081-6.012a37.713,37.713,0,0,0,14.052,2.861c5.974,0,8.58-1.368,9.29-3.691.684-2.238-1.215-3.4-5.2-3.4a22.722,22.722,0,0,0-9.066,1.658L686.6,233.287l6.2-15.052h33.837l-2,6.551H701.2l-1.628,4.023a36.205,36.205,0,0,1,10.413-1.285c10.017,0,15.622,3.151,13.646,9.62C721.569,243.9,712.7,247.717,699.5,247.717Z" transform="translate(-549.184 -218.235)" fill="#6d6f72"/>
        </g>
      </g>
    </g>
  </g>
</svg>
