<svg xmlns="http://www.w3.org/2000/svg" xmlns:xlink="http://www.w3.org/1999/xlink" width="496" height="52" viewBox="0 0 496 52">
  <defs>
    <clipPath id="clip-path">
      <rect id="사각형_13291" data-name="사각형 13291" width="496" height="52" transform="translate(320.442 855.18)" fill="none" stroke="#707070" stroke-width="1"/>
    </clipPath>
    <clipPath id="clip-path-2">
      <path id="패스_55532" data-name="패스 55532" d="M0,15H218.222V-17.3H0Z" transform="translate(0 17.303)" fill="none"/>
    </clipPath>
  </defs>
  <g id="bi_AH33" transform="translate(-320.442 -855.18)" clip-path="url(#clip-path)">
    <g id="그룹_11542" data-name="그룹 11542" transform="translate(320.441 890.022)">
      <g id="그룹_11537" data-name="그룹 11537" transform="translate(0 -17.303)" clip-path="url(#clip-path-2)">
        <g id="그룹_11536" data-name="그룹 11536" transform="translate(0 0.492)">
          <path id="패스_55531" data-name="패스 55531" d="M17.888,14.544l-.894-5.5H.617l-5.054,5.5h-16.2L11-16.776H26.256l8.007,31.32ZM15.7.092a44.181,44.181,0,0,1-.538-7.83c-1.522,2.1-3.041,3.848-6.488,7.83L6.883,2.151H15.92Z" transform="translate(20.634 16.776)" fill="#888"/>
        </g>
      </g>
      <g id="그룹_11538" data-name="그룹 11538" transform="translate(60 -16.811)">
        <path id="패스_55533" data-name="패스 55533" d="M20.547,0,16.253,11.411h-17L3.545,0H-11.889L-23.7,31.32H-8.267l4.654-12.348h17L8.735,31.32H24.171L35.983,0Z" transform="translate(23.701)" fill="#888"/>
      </g>
      <g id="그룹_11541" data-name="그룹 11541" transform="translate(0 -17.303)" clip-path="url(#clip-path-2)">
        <g id="그룹_11539" data-name="그룹 11539" transform="translate(115.344 0)">
          <path id="패스_55534" data-name="패스 55534" d="M9.828,15C.566,15-6.637,13.167-11.336,10.214l9.889-5.638A29.691,29.691,0,0,0,12.871,7.843c6.308,0,9.35-1.031,10.156-3.178.8-2.192-1.073-3-6.577-3H8.575l2.55-6.755H18.15c4.742,0,6.531-.582,7.292-2.64.625-1.656-1.208-2.55-6.577-2.55A40.936,40.936,0,0,0,4.279-7.593L-.777-13.231A62.192,62.192,0,0,1,21.908-17.3c13.063,0,20.938,2.371,18.432,8.993-1.3,3.446-5.459,5.1-9.574,6.129,4.787.672,8.455,2.774,6.934,6.756C34.971,11.825,24.638,15,9.828,15" transform="translate(11.336 17.303)" fill="#888"/>
        </g>
        <g id="그룹_11540" data-name="그룹 11540" transform="translate(166.082 0)">
          <path id="패스_55535" data-name="패스 55535" d="M9.828,15C.566,15-6.637,13.167-11.336,10.214l9.889-5.638A29.691,29.691,0,0,0,12.871,7.843c6.308,0,9.35-1.031,10.156-3.178.8-2.192-1.073-3-6.577-3H8.575l2.55-6.755h7.023c4.744,0,6.532-.582,7.294-2.64.625-1.656-1.208-2.55-6.577-2.55A40.936,40.936,0,0,0,4.279-7.593L-.777-13.231A62.192,62.192,0,0,1,21.908-17.3c13.063,0,20.938,2.371,18.432,8.993-1.3,3.446-5.459,5.1-9.574,6.129,4.787.672,8.455,2.774,6.934,6.756C34.971,11.825,24.638,15,9.828,15" transform="translate(11.336 17.303)" fill="#888"/>
        </g>
      </g>
    </g>
  </g>
</svg>
