<svg xmlns="http://www.w3.org/2000/svg" xmlns:xlink="http://www.w3.org/1999/xlink" width="192" height="20" viewBox="0 0 192 20">
  <defs>
    <clipPath id="clip-path">
      <rect id="사각형_13310" data-name="사각형 13310" width="192" height="20" transform="translate(321.53 856.268)" fill="none" stroke="#707070" stroke-width="1"/>
    </clipPath>
  </defs>
  <g id="navigation_logo_RA33" data-name="navigation logo_RA33" transform="translate(-321.53 -856.268)" clip-path="url(#clip-path)">
    <g id="그룹_10853" data-name="그룹 10853" transform="translate(108.933 755.375)">
      <path id="패스_54869" data-name="패스 54869" d="M427.117,114.31c1.069-3.13,3.459-4.641,6.812-5.675,1.418-.438,1.653-.583,1.768-.955.127-.411-.186-.636-1.157-.636a9.61,9.61,0,0,0-3.9.941l-.96-1.9a13.653,13.653,0,0,1,5.574-1.206c3.682,0,5.992.929,5.473,2.612-.375,1.22-1.159,1.962-3.735,2.784-2.693.861-3.529,1.379-3.96,1.936h6.33l-.645,2.095Z" transform="translate(-84.56 0)"/>
      <path id="패스_54870" data-name="패스 54870" d="M380.955,114.425l1.209-3.953h3.147l-1.223,3.953h5.181l2.829-9.25h-5.182l-1.135,3.76h-3.147l1.149-3.76h-5.172l-2.828,9.25Z" transform="translate(-64.325 -0.115)"/>
      <path id="패스_54871" data-name="패스 54871" d="M409.1,109.587l.88-2.885h2.16c.838,0,.889.264.715.832l-.3.971c-.237.775-.348,1.081-1.541,1.081Zm6.353-4.41H405.237l-2.829,9.249h5.2l1.023-3.313h5c1.859,0,3.39-.32,3.878-1.914l.64-2.094c.5-1.636-.9-1.927-2.7-1.927" transform="translate(-74.82 -0.116)"/>
      <path id="패스_54872" data-name="패스 54872" d="M354.122,111.454l-.767,2.511a1.053,1.053,0,0,1-1.193.832h-.672c-.709,0-.895-.207-.714-.792l.809-2.648a1.092,1.092,0,0,1,1.186-.751h.508c.791,0,1.041.2.845.847m2.7-2.115-7.382,0a3,3,0,0,0-2.9,1.872l-.872,2.852c-.526,1.717.739,2,2.5,2h7.285a2.754,2.754,0,0,0,2.918-1.925l.818-2.673c.52-1.706-.5-2.128-2.365-2.128" transform="translate(-52.407 -1.756)"/>
      <path id="패스_54873" data-name="패스 54873" d="M271.419,109.364h-3.793a2.817,2.817,0,0,0-1.344.3l.109-.3H261.54l-2.056,6.727h5.07l1.47-4.8a.8.8,0,0,1,.909-.653h.755c.741,0,.752.285.585.833l-1.427,4.625h5.1l1.366-4.5c.422-1.378-.177-2.224-1.891-2.224" transform="translate(-18.482 -1.766)"/>
      <path id="패스_54874" data-name="패스 54874" d="M290.372,113.951a1.044,1.044,0,0,1-1.2.861h-.526c-.741,0-.851-.287-.677-.861l.093-.3a1.041,1.041,0,0,1,1.2-.858h1.465Zm4.1-4.61-9,.014-.39,1.269H290.5c.429,0,.866.027.731.463-.13.37-.433.45-.831.45h-4.69a2.436,2.436,0,0,0-2.533,1.542l-.349,1.146c-.438,1.432.34,1.856,1.939,1.856h4.05a1.925,1.925,0,0,0,1.137-.314l-.113.314h4.9l1.479-4.817c.351-1.146-.37-1.91-1.75-1.923" transform="translate(-27.636 -1.757)"/>
      <path id="패스_54875" data-name="패스 54875" d="M313.769,111.728l-.517,1.691c-.234.764-.342,1.064-1.4,1.064h-1.661l1.093-3.575h1.876c.742,0,.778.26.606.82m3.047-2.32H306.484l-2.85,9.23h5.272l.828-2.653h5.071c1.648,0,3.013-.314,3.493-1.882l.855-2.8c.493-1.609-.737-1.9-2.337-1.9" transform="translate(-35.885 -1.784)"/>
      <path id="패스_54876" data-name="패스 54876" d="M339.695,109.364h-2.128a3.061,3.061,0,0,0-2.137.579l.217-.579H330.8l-2.059,6.727h5.069L335,112.2c.2-.67.729-.953,1.662-1.011h.715a12.333,12.333,0,0,1,1.627.133Z" transform="translate(-45.783 -1.766)"/>
      <path id="패스_54877" data-name="패스 54877" d="M246.5,109.364l-1.363,4.462c-.159.466-.29,1-1.03,1h-.575c-.955,0-.971-.325-.751-1.05l1.349-4.409h-5.074l-1.229,4.027c-.555,1.815-.152,2.7,2.158,2.7h3.39a3.534,3.534,0,0,0,1.108-.125l-.143.467c-.183.6-.347.913-1.169.913h-5l-.406,1.323h7.318c2.141-.042,3.662-.053,4.309-2.169l.108-.408,2.057-6.728Z" transform="translate(-9.858 -1.766)"/>
      <path id="패스_54878" data-name="패스 54878" d="M222.63,107.809l-1.235,4.033c-.224.735-.4,1.081-1.419,1.081H218.4l1.894-6.2h1.573c1.021,0,.983.348.758,1.084m3.288-2.609H215.427l-2.829,9.25H223.09a3.515,3.515,0,0,0,3.674-2.649l1.208-3.953c.475-1.553-.012-2.648-2.055-2.648" transform="translate(0 -0.125)"/>
    </g>
  </g>
</svg>
