<svg xmlns="http://www.w3.org/2000/svg" xmlns:xlink="http://www.w3.org/1999/xlink" width="192" height="20" viewBox="0 0 192 20">
  <defs>
    <clipPath id="clip-path">
      <rect id="사각형_13308" data-name="사각형 13308" width="192" height="20" transform="translate(321.53 856.268)" fill="none" stroke="#707070" stroke-width="1"/>
    </clipPath>
  </defs>
  <g id="navigation_logo_RA18" data-name="navigation logo_RA18" transform="translate(-321.53 -856.268)" clip-path="url(#clip-path)">
    <g id="그룹_11224" data-name="그룹 11224" transform="translate(321.53 843.601)">
      <g id="그룹_10851" data-name="그룹 10851" transform="translate(0.001 17.668)">
        <path id="패스_54861" data-name="패스 54861" d="M51.712,452.068,46,452.06l-3.478-9.523,4.711.008,1.983,6.348,3.18-6.341,4.752.009Z" transform="translate(-42.52 -442.37)"/>
        <path id="패스_54862" data-name="패스 54862" d="M160.736,452.237l-1.466-3.211-.929,0-.873,3.208-5.112-.008,2.587-9.516,6.506.011c4.39.006,7.077.853,6.464,3.111-.388,1.427-1.94,2.309-4.13,2.781l2.314,3.634Zm0-7.37-1.26,0-.565,2.079,1.18,0c1.686,0,2.459-.377,2.643-1.057.163-.6-.366-1.02-2-1.023" transform="translate(-97.015 -442.455)"/>
        <path id="패스_54863" data-name="패스 54863" d="M189.463,452.1l.173-.634a10.093,10.093,0,0,1-3.852.828c-2.889-.005-4.5-1.149-3.924-3.288.557-2.048,3.053-3.1,6.2-3.091a9.475,9.475,0,0,1,2.979.4l.128-.472c.227-.834-.4-1.124-1.79-1.127a13.037,13.037,0,0,0-4.323.683l-.745-2.16a23.518,23.518,0,0,1,6.639-.859c4.163.006,5.616,1.332,5.015,3.544l-1.68,6.18Zm1.055-3.878a6.8,6.8,0,0,0-2.108-.275c-1.048,0-1.684.36-1.861,1.013-.163.6.2,1.033,1.3,1.035a6.028,6.028,0,0,0,2.311-.468Z" transform="translate(-111.594 -442.292)"/>
        <path id="패스_54864" data-name="패스 54864" d="M135.3,452.119l2.028-6.883,3.439,0,.694-2.555-12.745-.018.2,2.557,3.455,0-1.984,6.955Z" transform="translate(-85.286 -442.435)"/>
        <path id="패스_54865" data-name="패스 54865" d="M76.545,442.2a24.452,24.452,0,0,0-5.3.527l.735,2.128a12.826,12.826,0,0,1,2.995-.318c1.388,0,2.017.293,1.79,1.127l-.128.471a9.482,9.482,0,0,0-2.979-.4c-3.145-.005-5.64,1.043-6.2,3.091-.581,2.138,1.034,3.283,3.924,3.287a10.093,10.093,0,0,0,3.853-.828l-.173.635,4.816.008,1.68-6.18c.6-2.212-.852-3.538-5.016-3.544m-.78,7.143a6.015,6.015,0,0,1-2.309.468c-1.1,0-1.468-.437-1.305-1.035.177-.653.814-1.014,1.862-1.013a6.792,6.792,0,0,1,2.108.275Z" transform="translate(-54.836 -442.205)"/>
        <path id="패스_54866" data-name="패스 54866" d="M104.663,451.971l1.469-5.4c.335-1.233-.227-1.56-1.276-1.562a1.893,1.893,0,0,0-2.142,1.521l-1.479,5.437-5.1-.009,2.588-9.515,5.1.008-.173.634a9.317,9.317,0,0,1,3.966-.827c3.258,0,4.437,1.4,3.756,3.9l-1.582,5.818Z" transform="translate(-69.122 -442.231)"/>
        <path id="패스_54867" data-name="패스 54867" d="M251.9,454.215l1.623-5.53,2.751.005.556-2.055H246.079l.717,2.041,2.765,0-1.587,5.535Z" transform="translate(-143.515 -444.403)"/>
        <path id="패스_54868" data-name="패스 54868" d="M235.336,452.172l-3.325,0,1.588-5.534h-3.93l-2.222,7.579h8.607Z" transform="translate(-134.27 -444.403)"/>
      </g>
    </g>
  </g>
</svg>
