<svg xmlns="http://www.w3.org/2000/svg" xmlns:xlink="http://www.w3.org/1999/xlink" width="192" height="20" viewBox="0 0 192 20">
  <defs>
    <clipPath id="clip-path">
      <rect id="사각형_13311" data-name="사각형 13311" width="192" height="20" transform="translate(321.53 856.268)" fill="none" stroke="#707070" stroke-width="1"/>
    </clipPath>
  </defs>
  <g id="navigation_logo_RF11" data-name="navigation logo_RF11" transform="translate(-321.53 -856.268)" clip-path="url(#clip-path)">
    <g id="그룹_10854" data-name="그룹 10854" transform="translate(279.012 418.053)">
      <path id="패스_54880" data-name="패스 54880" d="M211.738,447.472,213.984,445l.607,2.471Zm-3.685,4,2.294-2.5h4.622l.505,2.5h5.83l-2.294-9.262H213.9l-8.63,9.262Z" transform="translate(-65.461 -0.002)"/>
      <path id="패스_54881" data-name="패스 54881" d="M241.943,443.739h3.334l.47-1.528H233.788l-.516,1.536,3.513-.007-2.366,7.732h5.164Z" transform="translate(-76.723 -0.002)"/>
      <path id="패스_54882" data-name="패스 54882" d="M186,448.556l-.768,2.514a1.054,1.054,0,0,1-1.2.833h-.673c-.71,0-.895-.206-.714-.792l.811-2.651a1.091,1.091,0,0,1,1.187-.752h.508c.793,0,1.044.206.846.848m2.708-2.118-7.392,0a3.007,3.007,0,0,0-2.906,1.874l-.874,2.856c-.526,1.719.74,2.007,2.505,2.007h7.294a2.758,2.758,0,0,0,2.922-1.927l.82-2.676c.521-1.708-.505-2.13-2.368-2.13" transform="translate(-54.255 -1.702)"/>
      <path id="패스_54883" data-name="패스 54883" d="M102.039,446.463h-3.8a2.822,2.822,0,0,0-1.346.3l.11-.3H92.149L90.09,453.2h5.076l1.471-4.81a.806.806,0,0,1,.911-.655H98.3c.741,0,.753.286.586.835l-1.43,4.63h5.105l1.367-4.509c.422-1.38-.178-2.227-1.894-2.227" transform="translate(-19.134 -1.713)"/>
      <path id="패스_54884" data-name="패스 54884" d="M121.326,451.055a1.044,1.044,0,0,1-1.2.863H119.6c-.742,0-.852-.287-.678-.863l.093-.3a1.044,1.044,0,0,1,1.2-.86h1.466Zm4.1-4.616-9.015.014-.389,1.27h5.433c.429,0,.867.027.732.464-.13.37-.435.45-.832.45h-4.7a2.437,2.437,0,0,0-2.535,1.544l-.35,1.147c-.438,1.434.34,1.859,1.942,1.859h4.055a1.928,1.928,0,0,0,1.138-.314l-.114.314h4.9l1.481-4.824c.352-1.147-.37-1.912-1.752-1.926" transform="translate(-28.611 -1.703)"/>
      <path id="패스_54885" data-name="패스 54885" d="M145.032,448.83l-.518,1.694c-.234.765-.343,1.065-1.4,1.065h-1.663l1.1-3.58h1.878c.742,0,.78.26.607.821m3.049-2.323H137.737l-2.853,9.241h5.278l.83-2.657h5.076c1.65,0,3.016-.314,3.5-1.884l.856-2.8c.493-1.612-.738-1.9-2.34-1.9" transform="translate(-37.15 -1.73)"/>
      <path id="패스_54886" data-name="패스 54886" d="M171.325,446.463h-2.131a3.062,3.062,0,0,0-2.139.58l.218-.58h-4.85l-2.061,6.735h5.075l1.191-3.894c.2-.671.729-.953,1.663-1.011h.717a12.375,12.375,0,0,1,1.629.133Z" transform="translate(-47.397 -1.713)"/>
      <path id="패스_54887" data-name="패스 54887" d="M76.8,446.463l-1.365,4.467c-.158.466-.29,1-1.031,1h-.575c-.956,0-.973-.325-.751-1.052l1.35-4.413h-5.08L68.116,450.5c-.556,1.817-.152,2.7,2.16,2.7h3.394a3.53,3.53,0,0,0,1.108-.126l-.143.467c-.183.6-.347.914-1.17.914H68.461l-.406,1.324h7.327c2.143-.042,3.666-.052,4.313-2.172l.109-.408,2.059-6.736Z" transform="translate(-10.206 -1.713)"/>
      <path id="패스_54888" data-name="패스 54888" d="M52.562,444.85l-1.236,4.037c-.225.736-.4,1.083-1.421,1.083H48.331l1.9-6.205H51.8c1.022,0,.984.348.759,1.085m3.292-2.612h-10.5L42.519,451.5h10.5a3.518,3.518,0,0,0,3.678-2.652l1.209-3.957c.475-1.555-.011-2.651-2.057-2.651" transform="translate(0 -0.013)"/>
      <path id="패스_54889" data-name="패스 54889" d="M251.759,451.5c1.069-3.087,3.849-4.578,7.823-5.6,1.68-.432,1.955-.575,2.067-.942.124-.406-.268-.628-1.441-.628a13.255,13.255,0,0,0-4.637.928L254.28,443.4a18.919,18.919,0,0,1,6.643-1.19c3.642,0,5.267.916,4.758,2.577-.368,1.2-1.262,1.936-4.314,2.746-3.19.85-4.162,1.361-4.644,1.91h7.639l-.632,2.067Z" transform="translate(-84.159 0)"/>
    </g>
  </g>
</svg>
