<svg xmlns="http://www.w3.org/2000/svg" xmlns:xlink="http://www.w3.org/1999/xlink" width="192" height="20" viewBox="0 0 192 20">
  <defs>
    <clipPath id="clip-path">
      <rect id="사각형_13313" data-name="사각형 13313" width="192" height="20" transform="translate(321.53 856.268)" fill="none" stroke="#707070" stroke-width="1"/>
    </clipPath>
    <clipPath id="clip-path-2">
      <rect id="사각형_13281" data-name="사각형 13281" width="130.808" height="12.021"/>
    </clipPath>
  </defs>
  <g id="navigation_logo_RH12" data-name="navigation logo_RH12" transform="translate(-321.53 -856.268)" clip-path="url(#clip-path)">
    <g id="그룹_10858" data-name="그룹 10858" transform="translate(172.162 942.903)">
      <path id="패스_54899" data-name="패스 54899" d="M339.779-73.257l1.227-4.012H344.2l-1.241,4.012h5.259l2.871-9.388h-5.259l-1.152,3.815h-3.194l1.167-3.815H337.4l-2.87,9.388Z" transform="translate(-84.824 0)"/>
      <g id="그룹_10857" data-name="그룹 10857" transform="translate(149.37 -82.646)">
        <g id="그룹_10856" data-name="그룹 10856" clip-path="url(#clip-path-2)">
          <path id="패스_54900" data-name="패스 54900" d="M311.67-77.92l-7.493,0a3.049,3.049,0,0,0-2.946,1.9l-.886,2.894c-.534,1.743.75,2.035,2.539,2.035h7.394a2.8,2.8,0,0,0,2.962-1.954l.83-2.713c.528-1.731-.512-2.159-2.4-2.159m-2.745,2.146-.779,2.549a1.068,1.068,0,0,1-1.212.844h-.682c-.72,0-.908-.209-.725-.8l.821-2.687a1.108,1.108,0,0,1,1.2-.762h.515c.8,0,1.057.208.857.859" transform="translate(-218.477 80.482)"/>
          <path id="패스_54901" data-name="패스 54901" d="M214.683-77.892h-3.85a2.866,2.866,0,0,0-1.365.3l.11-.3h-4.923l-2.087,6.827h5.146l1.492-4.876a.817.817,0,0,1,.923-.663h.767c.752,0,.764.289.594.845l-1.449,4.694h5.176l1.385-4.57c.428-1.4-.18-2.257-1.919-2.257" transform="translate(-173.741 80.468)"/>
          <path id="패스_54902" data-name="패스 54902" d="M240.857-77.918l-9.138.014-.4,1.288h5.508c.435,0,.878.027.742.471-.132.375-.44.456-.844.456h-4.76a2.473,2.473,0,0,0-2.571,1.566l-.354,1.163c-.444,1.453.345,1.884,1.968,1.884h4.111a1.956,1.956,0,0,0,1.154-.319l-.115.319h4.97l1.5-4.889c.356-1.163-.375-1.938-1.776-1.952M236.7-73.239a1.06,1.06,0,0,1-1.219.874h-.534c-.752,0-.863-.29-.687-.874l.094-.3a1.058,1.058,0,0,1,1.219-.871h1.486Z" transform="translate(-185.813 80.48)"/>
          <path id="패스_54903" data-name="패스 54903" d="M266.044-77.841H255.558l-2.892,9.368h5.35l.841-2.694H264c1.672,0,3.058-.319,3.545-1.91l.868-2.841c.5-1.634-.748-1.924-2.372-1.924m-3.091,2.355-.525,1.717c-.237.775-.347,1.08-1.419,1.08h-1.685l1.109-3.629h1.9c.753,0,.79.263.615.831" transform="translate(-196.691 80.445)"/>
          <path id="패스_54904" data-name="패스 54904" d="M292.271-77.892h-2.159a3.107,3.107,0,0,0-2.169.588l.221-.588h-4.918l-2.089,6.827H286.3l1.207-3.947c.207-.68.74-.967,1.686-1.026h.726a12.549,12.549,0,0,1,1.652.135Z" transform="translate(-209.743 80.468)"/>
          <path id="패스_54905" data-name="패스 54905" d="M186.774-77.892l-1.383,4.528c-.161.473-.294,1.012-1.045,1.012h-.584c-.969,0-.986-.329-.762-1.065l1.369-4.474h-5.149L177.971-73.8c-.564,1.841-.154,2.741,2.19,2.741h3.44a3.573,3.573,0,0,0,1.124-.127l-.145.474c-.186.608-.352.927-1.187.927H178.32l-.411,1.342h7.428c2.172-.042,3.716-.053,4.373-2.2l.111-.414,2.087-6.829Z" transform="translate(-162.369 80.468)"/>
          <path id="패스_54906" data-name="패스 54906" d="M162.888-82.616H152.24l-2.871,9.388h10.649a3.566,3.566,0,0,0,3.729-2.688l1.226-4.012c.482-1.576-.012-2.688-2.085-2.688m-3.337,2.648L158.3-75.876c-.228.747-.4,1.1-1.441,1.1h-1.6l1.923-6.29h1.6c1.037,0,1,.353.77,1.1" transform="translate(-149.369 82.632)"/>
          <path id="패스_54907" data-name="패스 54907" d="M376.215-81.1h3.379l.475-1.549H367.949l-.524,1.557,3.561-.008-2.4,7.839h5.234Z" transform="translate(-249.263 82.646)"/>
        </g>
      </g>
    </g>
  </g>
</svg>
