<svg xmlns="http://www.w3.org/2000/svg" xmlns:xlink="http://www.w3.org/1999/xlink" width="496" height="52" viewBox="0 0 496 52">
  <defs>
    <clipPath id="clip-path">
      <rect id="사각형_13314" data-name="사각형 13314" width="496" height="52" transform="translate(320.442 855.18)" fill="none" stroke="#707070" stroke-width="1"/>
    </clipPath>
    <clipPath id="clip-path-2">
      <rect id="사각형_13336" data-name="사각형 13336" width="496" height="33.264" fill="none"/>
    </clipPath>
  </defs>
  <g id="bi_Dynapro_R213M" data-name="bi_Dynapro R213M" transform="translate(-320.442 -855.18)" clip-path="url(#clip-path)">
    <g id="그룹_11366" data-name="그룹 11366" transform="translate(320.441 871.915)">
      <g id="그룹_11365" data-name="그룹 11365" transform="translate(0 0)" clip-path="url(#clip-path-2)">
        <path id="패스_59264" data-name="패스 59264" d="M422.739,3.268l18.376.038a63.563,63.563,0,0,1,6.412.3,15.116,15.116,0,0,1,4.548,1.084,4.635,4.635,0,0,1,2.42,2.173,5.033,5.033,0,0,1,.026,3.566l-.773,2.685a7.522,7.522,0,0,1-2.6,3.955,12.573,12.573,0,0,1-5.081,2.193l5.223,10.94-11.411-.023L435.517,20.1l-6.905-.015-2.9,10.063-10.709-.022Zm9.379,4.642-2.166,7.52,4.974.01q2.048,0,3.489-.118a9.6,9.6,0,0,0,2.386-.461,3.66,3.66,0,0,0,1.5-.946,3.988,3.988,0,0,0,.844-1.611l.423-1.469a1.7,1.7,0,0,0-.872-2.259,12.468,12.468,0,0,0-4.848-.655Z" transform="translate(-110.558 -0.871)" fill="#767676"/>
        <path id="패스_59265" data-name="패스 59265" d="M373.5,5.24l-13.187-.008c-4.114,0-10.133,2.414-11.019,5.908l-2.934,11.844c-.613,3.015,2.361,7.556,7.924,7.556h15.046c4.838,0,10.353-3.317,11.334-7.2l2.819-11.388c.625-3.278-4.109-6.716-9.983-6.716m-3.616,9.052-1.814,7.665c-.333,1.353-2.049,2.688-4.339,2.688h-.676c-2.238,0-3.381-1.356-3.149-2.428l2.135-9.011c1.026-1.817,2.259-1.817,4.184-1.817h.88c2.5,0,3.163,1.348,2.78,2.9" transform="translate(-92.251 -1.394)" fill="#9b7500"/>
        <path id="패스_59266" data-name="패스 59266" d="M135.966,5.3h-12.42l-6.33,25.3h13.11l4.8-19.235c.353-1.377.993-2.064,2.763-2.064h2.385c2.337,0,2.42.9,1.985,2.631l-4.7,18.668h13.2l4.519-18.284c1.1-4.35-.928-7.02-6.337-7.02Z" transform="translate(-31.226 -1.413)" fill="#9b7500"/>
        <path id="패스_59267" data-name="패스 59267" d="M197.9,14.6h-14.23c-3.694,0-6.9,1.546-7.739,4.868l-1.11,5.261c-1.146,4.522,1.379,5.861,6.426,5.861h25.688l4.826-19.275c.918-3.619-1.482-6.029-5.84-6.073l-22.637.044-1.018,4H196.5c1.354,0,2.737.084,2.386,1.465Zm-3.035,11.981H189.9c-2.337,0-2.732-.9-2.278-2.719l.839-2.587c.465-1.85,1.96-2.711,4.352-2.711h4.093Z" transform="translate(-46.5 -1.397)" fill="#9b7500"/>
        <path id="패스_59268" data-name="패스 59268" d="M260.885,5.465H234.78L227.313,34.6h13.748l2.176-8.377h12.393c5.2,0,9.455-.991,10.71-5.941l2.235-8.833c1.288-5.082-2.639-5.985-7.69-5.985m-5.618,7.324-1.351,5.341c-.613,2.41-.9,3.359-4.235,3.359h-5.24L247.3,10.2h5.921c2.341,0,2.5.821,2.049,2.587" transform="translate(-60.556 -1.456)" fill="#9b7500"/>
        <path id="패스_59269" data-name="패스 59269" d="M81.178,26.541l-.271,1.079c-.478,1.89-.943,2.882-3.539,2.882H59.746l-1.061,4.175H80.736c6.748-.132,11.548-.165,13.239-6.848l.276-1.287L99.629,5.3H86.554L82.991,19.386c-.425,1.47-.75,3.147-3.086,3.147H78.09c-3.012,0-3.118-1.024-2.543-3.316L79.075,5.3H65.953L62.739,18.014c-1.452,5.729-.032,8.527,7.257,8.527Z" transform="translate(-15.634 -1.413)" fill="#9b7500"/>
        <path id="패스_59270" data-name="패스 59270" d="M34.727,0H7.4L0,29.194H27.334c6.608,0,9.923-3.505,11.158-8.36L41.649,8.356C42.891,3.456,41.173,0,34.727,0M27.671,8.232,24.442,20.96c-.586,2.323-1.075,3.414-4.3,3.414H15.18L20.134,4.813H25.1c3.222,0,3.16,1.1,2.573,3.419" transform="translate(0 0)" fill="#9b7500"/>
        <path id="패스_59271" data-name="패스 59271" d="M318.943,5.233H292.115l-6.573,25.308H299.29l2.176-8.377h5.157l3.116,8.377h13.748l-3.354-9.018a6.954,6.954,0,0,0,5.158-5.3l1.343-5.005c1.287-5.082-2.64-5.985-7.69-5.985m-14.31,4.736h5.921c2.341,0,2.5.821,2.049,2.587l-.458,1.513c-.613,2.41-.9,3.359-4.235,3.359h-5.24Z" transform="translate(-76.069 -1.394)" fill="#9b7500"/>
        <path id="패스_59272" data-name="패스 59272" d="M548.753,30.175l1.618-5.64h-7.778l6.16-21.485h-6.937l-14.053,4.2-1.755,6.117,9.672-2.732-3.985,13.9h-8.624l-1.618,5.64h27.3Z" transform="translate(-138.916 -0.813)" fill="#767676"/>
        <path id="패스_59273" data-name="패스 59273" d="M502.423,24.609h-15l8.139-4.342a44.278,44.278,0,0,0,6.65-4.027A7.625,7.625,0,0,0,505,12.22l.321-1.122a6.076,6.076,0,0,0,.252-1.667,4.047,4.047,0,0,0-.8-2.471,7.471,7.471,0,0,0-4.239-2.43,32.787,32.787,0,0,0-8.166-.82,59.292,59.292,0,0,0-11.925,1.475l-.278.067-1.708,5.955.827-.207A54,54,0,0,1,490.17,9.687a15.869,15.869,0,0,1,4.236.373,1.629,1.629,0,0,1,.734.4.644.644,0,0,1,.163.47,2.013,2.013,0,0,1-.09.546l-.136.475a3.416,3.416,0,0,1-1.132,1.868,20.754,20.754,0,0,1-3.448,2.118l-17.6,9.478-1.417,4.938h29.293Z" transform="translate(-125.603 -0.988)" fill="#767676"/>
        <path id="패스_59274" data-name="패스 59274" d="M590.069,28.318a9.133,9.133,0,0,0,5.352-6.026,6.516,6.516,0,0,0,.277-1.78,3.66,3.66,0,0,0-1.549-3.079,7.547,7.547,0,0,0-2.509-1.136,10.714,10.714,0,0,0,3.64-1.915,7.427,7.427,0,0,0,2.438-3.679,6.907,6.907,0,0,0,.291-1.892,4.153,4.153,0,0,0-.767-2.489,6.88,6.88,0,0,0-3.992-2.335,29.941,29.941,0,0,0-7.436-.742,61.193,61.193,0,0,0-11.973,1.3l-.283.065L571.9,10.371l.8-.172a51.722,51.722,0,0,1,10.049-1.213,13.089,13.089,0,0,1,4.091.436,1.68,1.68,0,0,1,.752.47.916.916,0,0,1,.194.612,2.5,2.5,0,0,1-.111.677,2.844,2.844,0,0,1-1.655,1.94,10.255,10.255,0,0,1-4.149.626h-5.194l-1.568,5.469H580.8a12.914,12.914,0,0,1,3.827.383,1.721,1.721,0,0,1,.792.483,1.064,1.064,0,0,1,.227.719,2.994,2.994,0,0,1-.133.812,3.429,3.429,0,0,1-.635,1.273,3.848,3.848,0,0,1-2.1,1.186,17.813,17.813,0,0,1-4.385.414,47.852,47.852,0,0,1-10.752-1.241l-.464-.122-1.623,5.658.473.136a50.225,50.225,0,0,0,11.822,1.311c5.4,0,9.367-.61,12.225-1.909" transform="translate(-150.663 -0.865)" fill="#767676"/>
        <path id="패스_59275" data-name="패스 59275" d="M646.664,3.233h-1.127L635.455,20.387l-2.7-17.152h-12.7l-6.087,26.988h8.765l3.631-16.1c.018.133.036.254.056.361l2.57,15.736h9.663L647.97,14.78c.035-.056.08-.131.121-.2l-3.528,15.64h8.911l.082-.359,6.006-26.627h-12.9Z" transform="translate(-163.561 -0.861)" fill="#767676"/>
      </g>
    </g>
  </g>
</svg>
