<svg xmlns="http://www.w3.org/2000/svg" xmlns:xlink="http://www.w3.org/1999/xlink" width="496" height="52" viewBox="0 0 496 52">
  <defs>
    <clipPath id="clip-path">
      <rect id="사각형_13314" data-name="사각형 13314" width="496" height="52" transform="translate(320.442 855.18)" fill="none" stroke="#707070" stroke-width="1"/>
    </clipPath>
    <clipPath id="clip-path-2">
      <rect id="사각형_13321" data-name="사각형 13321" width="429.174" height="35.1" fill="none"/>
    </clipPath>
  </defs>
  <g id="bi_Dynapro_R213" data-name="bi_Dynapro R213" transform="translate(-320.442 -855.18)" clip-path="url(#clip-path)">
    <g id="그룹_11341" data-name="그룹 11341" transform="translate(320.442 870.08)">
      <g id="그룹_11340" data-name="그룹 11340" transform="translate(0 0)" clip-path="url(#clip-path-2)">
        <path id="패스_59168" data-name="패스 59168" d="M374.245,10.613l-21.907-.007c-3.869,0-7.611,2.27-8.614,5.554l-2.589,8.462c-1.561,5.1,2.194,5.949,7.424,5.949h21.619c4.549,0,7.544-2.067,8.658-5.712l2.427-7.933c1.544-5.062-1.5-6.314-7.018-6.314m-8.027,6.276-2.277,7.452c-.508,1.658-1.389,2.469-3.541,2.469h-2c-2.1,0-2.655-.612-2.118-2.349l2.4-7.858c.471-1.537,1.709-2.228,3.517-2.228h1.507c2.347,0,3.091.609,2.507,2.514" transform="translate(-101.78 -3.168)" fill="#9b7500"/>
        <path id="패스_59169" data-name="패스 59169" d="M155.6,10.674H144.34a8.36,8.36,0,0,0-3.988.877l.323-.877H126.279l-6.1,19.962h15.044l4.36-14.257a2.389,2.389,0,0,1,2.7-1.939h2.242c2.2,0,2.232.846,1.736,2.472l-4.236,13.724h15.131l4.05-13.363c1.252-4.088-.526-6.6-5.612-6.6" transform="translate(-35.894 -3.188)" fill="#9b7500"/>
        <path id="패스_59170" data-name="패스 59170" d="M214.6,10.616l-26.719.041-1.155,3.765h16.1c1.272,0,2.568.079,2.17,1.375-.386,1.1-1.286,1.335-2.466,1.335H188.617c-3.473,0-6.56,1.454-7.516,4.577l-1.035,3.4c-1.3,4.25,1.007,5.509,5.752,5.509h12.018a5.715,5.715,0,0,0,3.373-.932l-.337.932H215.4l4.388-14.3c1.041-3.4-1.1-5.667-5.192-5.708M202.448,24.3c-.533,1.744-1.314,2.555-3.563,2.555h-1.56c-2.2,0-2.524-.849-2.009-2.555l.276-.887c.53-1.74,1.313-2.548,3.563-2.548H203.5Z" transform="translate(-53.673 -3.171)" fill="#9b7500"/>
        <path id="패스_59171" data-name="패스 59171" d="M272.458,10.788H241.8l-8.456,27.389h15.643l2.459-7.875h15.048c4.89,0,8.941-.932,10.364-5.585l2.537-8.3c1.462-4.776-2.187-5.625-6.935-5.625m-9.041,6.884-1.533,5.02c-.7,2.266-1.015,3.157-4.148,3.157H252.81l3.242-10.609h5.567c2.2,0,2.311.771,1.8,2.432" transform="translate(-69.692 -3.222)" fill="#9b7500"/>
        <path id="패스_59172" data-name="패스 59172" d="M330.2,10.674h-6.313c-3.376,0-5.357.76-6.341,1.72l.647-1.72H303.815l-6.108,19.962h15.042l3.528-11.54c.605-1.988,2.164-2.827,4.932-3l2.121,0a36.65,36.65,0,0,1,4.829.395Z" transform="translate(-88.916 -3.188)" fill="#9b7500"/>
        <path id="패스_59173" data-name="패스 59173" d="M90.5,10.674,86.453,23.913c-.471,1.383-.859,2.958-3.056,2.958H81.691c-2.833,0-2.882-.963-2.228-3.115l4-13.081H68.411L64.762,22.623c-1.647,5.386-.45,8.016,6.4,8.016H81.223a10.482,10.482,0,0,0,3.288-.372l-.424,1.386c-.543,1.779-1.027,2.71-3.469,2.71H65.783l-1.2,3.923H86.3c6.351-.123,10.866-.154,12.785-6.437L99.4,30.64l6.1-19.966Z" transform="translate(-19.146 -3.188)" fill="#9b7500"/>
        <path id="패스_59174" data-name="패스 59174" d="M39.523,0H8.394L0,27.449H31.134c6.212,0,9.5-3.3,10.9-7.861L45.62,7.858C47.03,3.249,45.586,0,39.523,0M29.767,7.741,26.1,19.707c-.665,2.183-1.179,3.209-4.212,3.209H17.226l5.623-18.39h4.667c3.03,0,2.918,1.032,2.251,3.215" transform="translate(0 0)" fill="#9b7500"/>
        <path id="패스_59175" data-name="패스 59175" d="M421.855,2.414l17.568.036a60.768,60.768,0,0,1,6.13.287A14.452,14.452,0,0,1,449.9,3.774a4.431,4.431,0,0,1,2.314,2.077,4.812,4.812,0,0,1,.025,3.409l-.739,2.567a7.191,7.191,0,0,1-2.488,3.781,12.019,12.019,0,0,1-4.857,2.1l4.993,10.459-10.909-.022-4.167-9.635-6.6-.014-2.77,9.62-10.238-.021Zm8.966,4.438-2.07,7.189,4.755.01q1.959,0,3.336-.113a9.173,9.173,0,0,0,2.281-.44,3.5,3.5,0,0,0,1.436-.9,3.813,3.813,0,0,0,.807-1.54l.4-1.4a1.623,1.623,0,0,0-.834-2.159,11.92,11.92,0,0,0-4.634-.626Z" transform="translate(-123.786 -0.721)" fill="#767676"/>
        <path id="패스_59176" data-name="패스 59176" d="M468.463,28.143,469.656,24l18.777-9.415q1.437-.717,2.34-1.228a10.046,10.046,0,0,0,1.457-.973,4.19,4.19,0,0,0,.858-.94,4.425,4.425,0,0,0,.5-1.164l.138-.479a1.843,1.843,0,0,0,.018-1.13,1.371,1.371,0,0,0-.874-.756,8.081,8.081,0,0,0-1.952-.415,31.47,31.47,0,0,0-3.262-.144q-1.288,0-2.854.1t-3.188.285q-1.621.185-3.172.422t-2.749.508l1.409-4.9q1.255-.27,2.872-.542t3.354-.473q1.739-.2,3.451-.318t3.169-.113a44.436,44.436,0,0,1,7.162.494,14.484,14.484,0,0,1,4.473,1.38,4.294,4.294,0,0,1,2.091,2.162,4.391,4.391,0,0,1,.031,2.81l-.325,1.129a6.579,6.579,0,0,1-.978,2.037,8.621,8.621,0,0,1-1.8,1.776,22.734,22.734,0,0,1-2.873,1.81q-1.725.939-4.206,2.167l-10.647,5.287,17.79.037-1.38,4.794Z" transform="translate(-139.915 -0.694)" fill="#767676"/>
        <path id="패스_59177" data-name="패스 59177" d="M523.264,28.4l1.3-4.519,9.119.019,4.26-14.79-10.167,2.65,1.4-4.861,14.412-3.979,6.546.014L544.09,23.924l8.225.017-1.3,4.519Z" transform="translate(-156.282 -0.873)" fill="#767676"/>
        <path id="패스_59178" data-name="패스 59178" d="M570.521,28.4l1.3-4.519,9.118.019,4.26-14.79-10.167,2.65,1.4-4.861,14.413-3.979,6.545.014-6.044,20.987,8.225.017-1.3,4.519Z" transform="translate(-170.396 -0.873)" fill="#767676"/>
      </g>
    </g>
  </g>
</svg>
