<svg xmlns="http://www.w3.org/2000/svg" xmlns:xlink="http://www.w3.org/1999/xlink" width="496" height="52" viewBox="0 0 496 52">
  <defs>
    <clipPath id="clip-path">
      <rect id="사각형_13314" data-name="사각형 13314" width="496" height="52" transform="translate(320.442 855.18)" fill="none" stroke="#707070" stroke-width="1"/>
    </clipPath>
    <clipPath id="clip-path-2">
      <rect id="사각형_13315" data-name="사각형 13315" width="434.818" height="35.23" fill="none"/>
    </clipPath>
  </defs>
  <g id="bi_Dynapro_R213" data-name="bi_Dynapro R213" transform="translate(-320.442 -855.18)" clip-path="url(#clip-path)">
    <g id="그룹_11331" data-name="그룹 11331" transform="translate(320.442 871.949)">
      <g id="그룹_11330" data-name="그룹 11330" transform="translate(0 0)" clip-path="url(#clip-path-2)">
        <path id="패스_59123" data-name="패스 59123" d="M441.588,28.164,435.9,19.037h-9.183l-2.452,9.127h-9.051L422.03,2.81h21.163a33.712,33.712,0,0,1,5.925.489,15.417,15.417,0,0,1,4.609,1.5,6.5,6.5,0,0,1,2.711,2.518,4.593,4.593,0,0,1,.287,3.53,8.149,8.149,0,0,1-3.441,4.69,20.017,20.017,0,0,1-7.289,2.771l6.078,9.852Zm5.727-17.187a1.9,1.9,0,0,0-1.063-2.467,10.971,10.971,0,0,0-4.587-.738H429.748l-1.742,6.483h11.918q6.51,0,7.392-3.278" transform="translate(-122.926 -0.832)" fill="#767676"/>
        <path id="패스_59124" data-name="패스 59124" d="M441.588,28.164,435.9,19.037h-9.183l-2.452,9.127h-9.051L422.03,2.81h21.163a33.712,33.712,0,0,1,5.925.489,15.417,15.417,0,0,1,4.609,1.5,6.5,6.5,0,0,1,2.711,2.518,4.593,4.593,0,0,1,.287,3.53,8.149,8.149,0,0,1-3.441,4.69,20.017,20.017,0,0,1-7.289,2.771l6.078,9.852Zm5.727-17.187a1.9,1.9,0,0,0-1.063-2.467,10.971,10.971,0,0,0-4.587-.738H429.748l-1.742,6.483h11.918Q446.433,14.255,447.315,10.977Z" transform="translate(-122.926 -0.832)" fill="none" stroke="#767676" stroke-miterlimit="10" stroke-width="1.2"/>
        <path id="패스_59125" data-name="패스 59125" d="M472.434,28a13.009,13.009,0,0,1,3.309-5.65,23.34,23.34,0,0,1,5.709-4.165,43.532,43.532,0,0,1,7.465-3.061q4.122-1.286,8.563-2.3a17.942,17.942,0,0,0,4.431-1.467,2.9,2.9,0,0,0,1.53-1.575Q503.705,8.8,502.226,8t-5.582-.8a30.443,30.443,0,0,0-7.565.888,36.393,36.393,0,0,0-6.212,2.155l-4.838-3.8a39.545,39.545,0,0,1,9.177-3.133,49.625,49.625,0,0,1,10.446-1.069q8.136,0,12.016,1.811t2.893,5.47a6.243,6.243,0,0,1-1.465,2.662,10.274,10.274,0,0,1-2.764,2.046,24.036,24.036,0,0,1-4.089,1.649q-2.386.743-5.516,1.5-3.266.76-5.575,1.485t-3.931,1.412a13.309,13.309,0,0,0-2.587,1.395,6.551,6.551,0,0,0-1.492,1.431h24.224L508.054,28Z" transform="translate(-139.866 -0.664)" fill="#767676"/>
        <path id="패스_59126" data-name="패스 59126" d="M472.434,28a13.009,13.009,0,0,1,3.309-5.65,23.34,23.34,0,0,1,5.709-4.165,43.532,43.532,0,0,1,7.465-3.061q4.122-1.286,8.563-2.3a17.942,17.942,0,0,0,4.431-1.467,2.9,2.9,0,0,0,1.53-1.575Q503.705,8.8,502.226,8t-5.582-.8a30.443,30.443,0,0,0-7.565.888,36.393,36.393,0,0,0-6.212,2.155l-4.838-3.8a39.545,39.545,0,0,1,9.177-3.133,49.625,49.625,0,0,1,10.446-1.069q8.136,0,12.016,1.811t2.893,5.47a6.243,6.243,0,0,1-1.465,2.662,10.274,10.274,0,0,1-2.764,2.046,24.036,24.036,0,0,1-4.089,1.649q-2.386.743-5.516,1.5-3.266.76-5.575,1.485t-3.931,1.412a13.309,13.309,0,0,0-2.587,1.395,6.551,6.551,0,0,0-1.492,1.431h24.224L508.054,28Z" transform="translate(-139.866 -0.664)" fill="none" stroke="#767676" stroke-miterlimit="10" stroke-width="1.2"/>
        <path id="패스_59127" data-name="패스 59127" d="M537.946,28.164l4.926-18.327h-7.815l1-3.731a24.666,24.666,0,0,0,6.464-.905,6.912,6.912,0,0,0,3.734-2.391h9.833l-6.815,25.354Z" transform="translate(-158.406 -0.832)" fill="#767676"/>
        <path id="패스_59128" data-name="패스 59128" d="M537.946,28.164l4.926-18.327h-7.815l1-3.731a24.666,24.666,0,0,0,6.464-.905,6.912,6.912,0,0,0,3.734-2.391h9.833l-6.815,25.354Z" transform="translate(-158.406 -0.832)" fill="none" stroke="#767676" stroke-miterlimit="10" stroke-width="1.2"/>
        <path id="패스_59129" data-name="패스 59129" d="M599.534,20.137a7.17,7.17,0,0,1-2.334,3.6,14.811,14.811,0,0,1-4.532,2.572,30.829,30.829,0,0,1-6.378,1.558,54.983,54.983,0,0,1-7.857.525,35.245,35.245,0,0,1-9.36-1.159,20.174,20.174,0,0,1-7.374-3.694l7.738-3.115a15.671,15.671,0,0,0,5.038,2.336,24.922,24.922,0,0,0,6.136.671,21.43,21.43,0,0,0,6.872-.851q2.377-.851,2.785-2.373a1.726,1.726,0,0,0-1.136-2.192,12.161,12.161,0,0,0-4.792-.706h-5.406l1.335-4.962h4.884a10.7,10.7,0,0,0,4.276-.652,2.944,2.944,0,0,0,1.754-1.92,1.22,1.22,0,0,0-.137-.942A2.225,2.225,0,0,0,590,8a8.489,8.489,0,0,0-2.188-.58,23.988,23.988,0,0,0-3.556-.217,21.248,21.248,0,0,0-9.495,2.137l-5.736-3.368a35.053,35.053,0,0,1,7.688-2.807,39.574,39.574,0,0,1,9.007-.924,41.9,41.9,0,0,1,6.424.453,20.316,20.316,0,0,1,4.945,1.34,6.774,6.774,0,0,1,2.978,2.246,3.616,3.616,0,0,1,.462,3.133A5.635,5.635,0,0,1,598,12.748a14.475,14.475,0,0,1-4.141,1.846,13.7,13.7,0,0,1,2.169.653,8.42,8.42,0,0,1,2.014,1.1,4.492,4.492,0,0,1,1.358,1.611,3.021,3.021,0,0,1,.132,2.174" transform="translate(-166.293 -0.664)" fill="#767676"/>
        <path id="패스_59130" data-name="패스 59130" d="M599.534,20.137a7.17,7.17,0,0,1-2.334,3.6,14.811,14.811,0,0,1-4.532,2.572,30.829,30.829,0,0,1-6.378,1.558,54.983,54.983,0,0,1-7.857.525,35.245,35.245,0,0,1-9.36-1.159,20.174,20.174,0,0,1-7.374-3.694l7.738-3.115a15.671,15.671,0,0,0,5.038,2.336,24.922,24.922,0,0,0,6.136.671,21.43,21.43,0,0,0,6.872-.851q2.377-.851,2.785-2.373a1.726,1.726,0,0,0-1.136-2.192,12.161,12.161,0,0,0-4.792-.706h-5.406l1.335-4.962h4.884a10.7,10.7,0,0,0,4.276-.652,2.944,2.944,0,0,0,1.754-1.92,1.22,1.22,0,0,0-.137-.942A2.225,2.225,0,0,0,590,8a8.489,8.489,0,0,0-2.188-.58,23.988,23.988,0,0,0-3.556-.217,21.248,21.248,0,0,0-9.495,2.137l-5.736-3.368a35.053,35.053,0,0,1,7.688-2.807,39.574,39.574,0,0,1,9.007-.924,41.9,41.9,0,0,1,6.424.453,20.316,20.316,0,0,1,4.945,1.34,6.774,6.774,0,0,1,2.978,2.246,3.616,3.616,0,0,1,.462,3.133A5.635,5.635,0,0,1,598,12.748a14.475,14.475,0,0,1-4.141,1.846,13.7,13.7,0,0,1,2.169.653,8.42,8.42,0,0,1,2.014,1.1,4.492,4.492,0,0,1,1.358,1.611A3.021,3.021,0,0,1,599.534,20.137Z" transform="translate(-166.293 -0.664)" fill="none" stroke="#767676" stroke-miterlimit="10" stroke-width="1.2"/>
        <path id="패스_59131" data-name="패스 59131" d="M374.37,10.613l-21.988-.007c-3.884,0-7.639,2.278-8.647,5.575l-2.6,8.494c-1.567,5.116,2.2,5.972,7.452,5.972h21.7c4.566,0,7.572-2.075,8.69-5.733l2.436-7.962c1.549-5.081-1.5-6.338-7.044-6.338m-8.057,6.3-2.285,7.479c-.51,1.664-1.395,2.479-3.554,2.479h-2c-2.113,0-2.664-.615-2.126-2.358l2.409-7.887c.473-1.542,1.716-2.236,3.53-2.236H363.8c2.356,0,3.1.611,2.516,2.523" transform="translate(-100.889 -3.14)" fill="#9b7500"/>
        <path id="패스_59132" data-name="패스 59132" d="M155.727,10.674h-11.3a8.391,8.391,0,0,0-4,.88l.324-.88H126.3L120.18,30.71h15.1L139.657,16.4a2.4,2.4,0,0,1,2.709-1.946h2.251c2.205,0,2.24.849,1.742,2.481L142.107,30.71h15.188L161.36,17.3c1.257-4.1-.528-6.623-5.633-6.623" transform="translate(-35.58 -3.16)" fill="#9b7500"/>
        <path id="패스_59133" data-name="패스 59133" d="M214.73,10.616l-26.819.042-1.159,3.779h16.163c1.277,0,2.578.08,2.178,1.38-.387,1.1-1.291,1.34-2.475,1.34H188.65c-3.486,0-6.585,1.459-7.544,4.594l-1.039,3.413c-1.3,4.266,1.011,5.53,5.774,5.53H197.9a5.736,5.736,0,0,0,3.386-.936l-.338.936h14.586l4.4-14.349c1.045-3.413-1.1-5.688-5.211-5.729m-12.2,13.73c-.535,1.75-1.319,2.564-3.577,2.564h-1.566c-2.205,0-2.534-.852-2.016-2.564l.277-.89c.531-1.746,1.318-2.557,3.576-2.557h4.363Z" transform="translate(-53.203 -3.143)" fill="#9b7500"/>
        <path id="패스_59134" data-name="패스 59134" d="M272.6,10.788H241.829l-8.487,27.491h15.7l2.468-7.9h15.1c4.909,0,8.974-.936,10.4-5.606l2.547-8.335c1.468-4.794-2.195-5.646-6.961-5.646m-9.075,6.91-1.539,5.039c-.7,2.274-1.019,3.169-4.163,3.169h-4.945l3.254-10.649h5.588c2.209,0,2.319.774,1.8,2.441" transform="translate(-69.082 -3.194)" fill="#9b7500"/>
        <path id="패스_59135" data-name="패스 59135" d="M330.322,10.674h-6.337c-3.389,0-5.377.762-6.364,1.726l.649-1.726H303.838L297.707,30.71h15.1l3.541-11.583c.607-1.995,2.172-2.838,4.95-3.01l2.129,0a36.786,36.786,0,0,1,4.847.4Z" transform="translate(-88.137 -3.16)" fill="#9b7500"/>
        <path id="패스_59136" data-name="패스 59136" d="M90.6,10.674l-4.06,13.288c-.472,1.388-.862,2.969-3.067,2.969H81.757c-2.844,0-2.893-.967-2.236-3.127l4.017-13.13H68.427L64.764,22.668c-1.653,5.406-.452,8.046,6.427,8.046h10.1a10.521,10.521,0,0,0,3.3-.373l-.425,1.391c-.545,1.785-1.031,2.72-3.482,2.72H65.79L64.582,38.39h21.8c6.375-.124,10.907-.155,12.833-6.461l.325-1.215,6.126-20.04Z" transform="translate(-18.978 -3.16)" fill="#9b7500"/>
        <path id="패스_59137" data-name="패스 59137" d="M39.67,0H8.425L0,27.551H31.25c6.236,0,9.538-3.311,10.944-7.891l3.6-11.774C47.205,3.261,45.756,0,39.67,0M29.878,7.769,26.2,19.781C25.533,21.972,25.017,23,21.972,23H17.29L22.934,4.543h4.685c3.041,0,2.929,1.036,2.26,3.227" transform="translate(0 0)" fill="#9b7500"/>
      </g>
    </g>
  </g>
</svg>
