<svg xmlns="http://www.w3.org/2000/svg" xmlns:xlink="http://www.w3.org/1999/xlink" width="496" height="52" viewBox="0 0 496 52">
  <defs>
    <clipPath id="clip-path">
      <rect id="사각형_13314" data-name="사각형 13314" width="496" height="52" transform="translate(320.442 855.18)" fill="none" stroke="#707070" stroke-width="1"/>
    </clipPath>
    <clipPath id="clip-path-2">
      <rect id="사각형_13342" data-name="사각형 13342" width="372.218" height="28.872" fill="none"/>
    </clipPath>
  </defs>
  <g id="bi_Ventus_Z215" data-name="bi_Ventus Z215" transform="translate(-320.442 -855.18)" clip-path="url(#clip-path)">
    <g id="그룹_11378" data-name="그룹 11378" transform="translate(320.441 875.191)">
      <g id="그룹_11377" data-name="그룹 11377" transform="translate(0 0)" clip-path="url(#clip-path-2)">
        <path id="패스_59306" data-name="패스 59306" d="M28.124,9.037,16.756,24.118,11.015,9.037H0L5.99,24.771h0c.974,2.772,3.663,5.945,8.97,5.945H22.8L39.139,9.037Z" transform="translate(0 -2.167)" fill="#fe5a17" fill-rule="evenodd"/>
        <path id="패스_59307" data-name="패스 59307" d="M73.359,7.484h-11c-11.83,0-13.411,7.207-13.411,7.207l-1.394,5.6c-2.031,8.183,9.187,8.773,9.187,8.773l2.661-.014H80.259L81.433,24.4H61.912c-4.647,0-4.018-3.411-4.018-3.411l.249-.986H82.549l.909-3.657c2.287-9.208-10.1-8.865-10.1-8.865M72.121,15.5H59.294c.9-3.586,4.895-3.62,4.895-3.62h4.624c4.91,0,3.308,3.62,3.308,3.62m128.928-3.686h16.229l1.1-4.333H204.623v0H198.87c-10.3,0-11.679,6.277-11.679,6.277l-.3,1.206h.008c-.292,3.075,2.021,4.741,5.384,4.741h12.8c1.368,0,2.019.819,1.485,1.851-.723,1.387-3,1.855-4.637,1.855H185.323L183.9,29.048h21.14c10.294,0,11.673-6.277,11.673-6.277l.294-1.2c.5-3.4-1.65-6.242-5.121-6.242H198.828c-1.052,0-2.124-.559-1.336-1.84a4.953,4.953,0,0,1,3.557-1.68M174.2,7.484l-3.471,13.857,0,0L169.96,24.4h-6.513c-2.82,0-4.68-1.514-4.141-3.359l3.432-13.556h-23.26l1.258-4.924H129.058l-4.94,19.564c-1.107,3.8,2.934,6.924,8.978,6.924h7.142l1.173-4.646h-1.294c-2.817,0-4.68-1.514-4.141-3.359L138.35,11.9h11.681l-2.585,10.227c-1.106,3.8,2.934,6.924,8.979,6.924h23.369l5.44-21.564ZM109.276,21.157l-8.61-13.674H89.652L84.175,29.162H95.191l3.452-13.673,8.61,13.673h11.015l5.47-21.678H112.725Z" transform="translate(-11.345 -0.614)" fill="#fe5a17" fill-rule="evenodd"/>
        <path id="패스_59308" data-name="패스 59308" d="M288.4,28.6l1.381-5.543,15.96-9.965c3.421-2.116,8.171-4.827,10.621-6.219-3.568.077-9.363.117-13.7.117H295.1l1.571-6.3h36.286l-1.381,5.54L315.613,16.2c-3.419,2.113-8.169,4.82-10.621,6.219,3.569-.08,9.363-.12,13.7-.12H327.7l-1.571,6.3Z" transform="translate(-69.158 -0.166)" fill="#898989"/>
        <path id="패스_59309" data-name="패스 59309" d="M342.694,28.345c2.741-9.409,11.17-13.951,23.451-17.063,5.193-1.316,6.024-1.752,6.3-2.871.308-1.235-.969-1.911-4.649-1.911A41.231,41.231,0,0,0,353.417,9.33l-4.428-5.7A59.038,59.038,0,0,1,369.615,0c11.438,0,16.723,2.792,15.461,7.856-.915,3.666-3.575,5.9-13,8.372-9.848,2.589-12.8,4.145-14.2,5.819h23.993l-1.571,6.3Z" transform="translate(-82.179 0)" fill="#898989"/>
        <path id="패스_59310" data-name="패스 59310" d="M405.251,28.412l4.83-19.371h-7.82L403.492,4.1c6.017-.2,8.65-1.208,10.628-3.82h10.736l-7.013,28.133Z" transform="translate(-96.463 -0.067)" fill="#898989"/>
        <path id="패스_59311" data-name="패스 59311" d="M450.8,29.038a48.007,48.007,0,0,1-18.812-3.389l6.637-5.78a39.792,39.792,0,0,0,14.1,2.75c5.915,0,8.412-1.315,8.971-3.549.536-2.152-1.422-3.269-5.366-3.269a22.346,22.346,0,0,0-8.878,1.595L437.1,15.165,442.283.694h33.526l-1.569,6.3H451.034l-1.358,3.866A35.956,35.956,0,0,1,459.91,9.623c9.924,0,15.679,3.029,14.129,9.249-1.62,6.5-10.16,10.165-23.242,10.165" transform="translate(-103.591 -0.166)" fill="#898989"/>
      </g>
    </g>
  </g>
</svg>
