<svg xmlns="http://www.w3.org/2000/svg" xmlns:xlink="http://www.w3.org/1999/xlink" width="496" height="52" viewBox="0 0 496 52">
  <defs>
    <clipPath id="clip-path">
      <rect id="사각형_13314" data-name="사각형 13314" width="496" height="52" transform="translate(320.442 855.18)" fill="none" stroke="#707070" stroke-width="1"/>
    </clipPath>
    <clipPath id="clip-path-2">
      <rect id="사각형_13337" data-name="사각형 13337" width="369.182" height="28.299" fill="none"/>
    </clipPath>
  </defs>
  <g id="bi_Ventus_Z214" data-name="bi_Ventus Z214" transform="translate(-320.442 -855.18)" clip-path="url(#clip-path)">
    <g id="그룹_11368" data-name="그룹 11368" transform="translate(320.441 876.88)">
      <g id="그룹_11367" data-name="그룹 11367" transform="translate(0 0)" clip-path="url(#clip-path-2)">
        <path id="패스_59276" data-name="패스 59276" d="M27.876,15.04,16.61,29.988,10.92,15.04H0l5.937,15.6h0c.966,2.747,3.63,5.892,8.891,5.892H22.6L38.8,15.04Z" transform="translate(0 -8.228)" fill="#fe5a17" fill-rule="evenodd"/>
        <path id="패스_59277" data-name="패스 59277" d="M104.525,9.146h-10.9c-11.726,0-13.292,7.144-13.292,7.144L78.95,21.838c-2.012,8.11,9.107,8.7,9.107,8.7l2.636-.014h20.672l1.162-4.6H93.179c-4.605,0-3.983-3.381-3.983-3.381l.247-.977h24.191l.9-3.625C116.8,8.8,104.525,9.146,104.525,9.146M103.3,17.091H90.585c.889-3.554,4.852-3.588,4.852-3.588h4.582c4.866,0,3.278,3.588,3.278,3.588m127.795-3.653H247.18l1.085-4.3h-13.63v0h-5.7c-10.213,0-11.576,6.221-11.576,6.221l-.3,1.2h.008c-.29,3.048,2,4.7,5.338,4.7H235.09c1.355,0,2,.813,1.471,1.835-.716,1.375-2.977,1.838-4.6,1.838H215.505l-1.412,5.585h20.953c10.2,0,11.571-6.221,11.571-6.221l.293-1.184c.491-3.369-1.637-6.187-5.077-6.187H228.891c-1.043,0-2.1-.554-1.324-1.824a4.912,4.912,0,0,1,3.525-1.665M204.474,9.146l-3.44,13.735a0,0,0,0,1,0,0l-.755,3.029h-6.455c-2.8,0-4.639-1.5-4.105-3.33l3.4-13.437H170.065l1.247-4.881H159.736l-4.9,19.391c-1.1,3.77,2.907,6.864,8.9,6.864h7.08l1.161-4.6H170.7c-2.792,0-4.639-1.5-4.1-3.33l2.352-9.065h11.579l-2.562,10.136c-1.1,3.77,2.909,6.864,8.9,6.864h23.163l5.392-21.374ZM140.126,22.7,131.592,9.146H120.675l-5.428,21.487h10.919l3.422-13.553,8.535,13.553H149.04l5.423-21.487H143.546Z" transform="translate(-43.057 -2.333)" fill="#fe5a17" fill-rule="evenodd"/>
        <path id="패스_59278" data-name="패스 59278" d="M479.771,28.821l1.369-5.491,15.82-9.88c3.391-2.094,8.1-4.781,10.528-6.164-3.537.079-9.281.119-13.582.119h-7.494l1.557-6.244h35.966l-1.369,5.494-15.82,9.877c-3.389,2.1-8.1,4.781-10.528,6.165,3.538-.077,9.281-.116,13.581-.116h8.927l-1.557,6.241Z" transform="translate(-262.459 -0.635)" fill="#898989"/>
        <path id="패스_59279" data-name="패스 59279" d="M570.1,28.1c2.717-9.326,11.072-13.829,23.244-16.913,5.148-1.3,5.971-1.737,6.247-2.845.306-1.224-.96-1.895-4.609-1.895a40.837,40.837,0,0,0-14.253,2.806L576.335,3.6A58.5,58.5,0,0,1,596.781,0c11.337,0,16.576,2.767,15.325,7.787-.906,3.633-3.544,5.846-12.884,8.3-9.762,2.566-12.688,4.109-14.079,5.768h23.783L607.368,28.1Z" transform="translate(-311.872 0)" fill="#898989"/>
        <path id="패스_59280" data-name="패스 59280" d="M674,28.62l4.748-19.046h-7.688l1.212-4.859c5.914-.2,8.506-1.188,10.45-3.756h10.555l-6.9,27.661Z" transform="translate(-367.102 -0.525)" fill="#898989"/>
        <path id="패스_59281" data-name="패스 59281" d="M753.832,23.878l-1.183,4.741H741.31l1.231-4.938H716.8l1.4-5.611L747.034.959h12.511l-4.1,16.44h5.864L759.7,23.878ZM739.925,13.012l-.771.475c-2.855,1.778-5.059,3.041-7,4.029,2.3-.078,5.439-.118,8.567-.118h3.387l.679-2.727c.4-1.621,1.229-4.662,1.685-5.967-1.525,1.146-3.008,2.135-6.546,4.308" transform="translate(-392.129 -0.525)" fill="#898989"/>
      </g>
    </g>
  </g>
</svg>
