<svg xmlns="http://www.w3.org/2000/svg" xmlns:xlink="http://www.w3.org/1999/xlink" width="496" height="52" viewBox="0 0 496 52">
  <defs>
    <clipPath id="clip-path">
      <rect id="사각형_13314" data-name="사각형 13314" width="496" height="52" transform="translate(320.442 855.18)" fill="none" stroke="#707070" stroke-width="1"/>
    </clipPath>
    <clipPath id="clip-path-2">
      <rect id="사각형_13330" data-name="사각형 13330" width="389.295" height="28.872" fill="none"/>
    </clipPath>
  </defs>
  <g id="bi_Ventus_Z206" data-name="bi_Ventus Z206" transform="translate(-320.442 -855.18)" clip-path="url(#clip-path)">
    <g id="그룹_11356" data-name="그룹 11356" transform="translate(320.441 875.191)">
      <g id="그룹_11355" data-name="그룹 11355" transform="translate(0 0)" clip-path="url(#clip-path-2)">
        <path id="패스_59228" data-name="패스 59228" d="M28.211,7.02l-11.4,15.127L11.048,7.02H0L6.008,22.8c.977,2.78,3.677,5.964,9,5.964h7.86L39.259,7.02Z" transform="translate(0 -0.131)" fill="#fe5a17" fill-rule="evenodd"/>
        <path id="패스_59229" data-name="패스 59229" d="M62.894,6.926H51.863c-11.868,0-13.454,7.23-13.454,7.23l-1.4,5.616c-2.038,8.208,9.214,8.8,9.214,8.8l2.671-.015H69.813l1.179-4.66H51.412c-4.663,0-4.03-3.421-4.03-3.421l.249-.989h24.48l.913-3.667c2.294-9.237-10.13-8.893-10.13-8.893m-1.241,8.043H48.784c.9-3.6,4.91-3.633,4.91-3.633h4.638c4.927,0,3.321,3.633,3.321,3.633m129.327-3.7h16.279l1.1-4.345H188.793c-10.335,0-11.715,6.3-11.715,6.3l-.3,1.21h.009c-.292,3.085,2.027,4.755,5.4,4.755h12.836c1.372,0,2.025.822,1.491,1.858-.726,1.392-3.014,1.861-4.653,1.861H175.2l-1.429,5.65h21.2c10.327,0,11.71-6.3,11.71-6.3l.3-1.2c.5-3.411-1.655-6.262-5.138-6.262h-13.1c-1.055,0-2.129-.562-1.338-1.847a4.968,4.968,0,0,1,3.568-1.685M164.041,6.926l-3.482,13.9,0,0-.763,3.066H153.26c-2.829,0-4.7-1.52-4.155-3.372l3.444-13.6H129.217l1.263-4.938H118.765L113.81,21.611c-1.11,3.815,2.942,6.945,9.005,6.945h7.164l1.176-4.66h-1.3c-2.826,0-4.694-1.518-4.155-3.37l2.381-9.173H139.8L137.21,21.611c-1.11,3.815,2.944,6.945,9.007,6.945h23.441l5.458-21.63ZM98.921,20.643,90.284,6.926H79.236L73.743,28.673H84.793l3.463-13.717,8.636,13.717h11.05l5.487-21.747h-11.05Z" transform="translate(-0.688 -0.037)" fill="#fe5a17" fill-rule="evenodd"/>
        <path id="패스_59230" data-name="패스 59230" d="M224.112,28.528l1.386-5.559,16.011-10c3.431-2.12,8.2-4.84,10.654-6.238-3.579.079-9.392.12-13.745.12h-7.583L232.409.536h36.4l-1.386,5.558-16.011,10c-3.43,2.121-8.195,4.837-10.654,6.239,3.581-.079,9.392-.12,13.745-.12h9.034l-1.575,6.317Z" transform="translate(-4.196 -0.01)" fill="#767676"/>
        <path id="패스_59231" data-name="패스 59231" d="M266.306,28.433c2.75-9.438,11.205-14,23.523-17.116,5.21-1.32,6.043-1.758,6.322-2.878.308-1.239-.972-1.919-4.665-1.919a41.336,41.336,0,0,0-14.425,2.839l-4.441-5.719A59.236,59.236,0,0,1,293.311,0c11.473,0,16.775,2.8,15.508,7.879-.917,3.679-3.587,5.918-13.038,8.4-9.879,2.6-12.841,4.159-14.248,5.838H305.6l-1.575,6.318Z" transform="translate(-4.986 0)" fill="#767676"/>
        <path id="패스_59232" data-name="패스 59232" d="M328.685,28.872c-12,0-19.571-5.078-17.248-14.394S324.015,0,336.015,0s19.571,5.08,17.248,14.4-12.576,14.476-24.578,14.476m5.532-22.194c-4.945,0-8.362,2.6-9.639,7.718s.957,7.8,5.9,7.8,8.362-2.6,9.638-7.717-.957-7.8-5.9-7.8" transform="translate(-5.823 0)" fill="#767676"/>
        <path id="패스_59233" data-name="패스 59233" d="M372.174,28.872c-11.607,0-18.684-3.878-16.76-11.6C357.259,9.877,367.766,0,394.143,0l-1.585,6.358c-12.068,0-18.936,2.159-23.24,5.4a39,39,0,0,1,12.279-1.64c9.562,0,15.6,2.759,14.125,8.679-1.576,6.317-10.492,10.076-23.548,10.076m4.172-13.037c-5.671,0-8.7,1.321-9.252,3.519-.5,2,1.658,3.4,7.263,3.4,4.813,0,8.344-1.2,8.9-3.438.54-2.161-2.032-3.482-6.912-3.482" transform="translate(-6.648 0)" fill="#767676"/>
      </g>
    </g>
  </g>
</svg>
