<svg xmlns="http://www.w3.org/2000/svg" xmlns:xlink="http://www.w3.org/1999/xlink" width="496" height="52" viewBox="0 0 496 52">
  <defs>
    <clipPath id="clip-path">
      <rect id="사각형_13314" data-name="사각형 13314" width="496" height="52" transform="translate(320.442 855.18)" fill="none" stroke="#707070" stroke-width="1"/>
    </clipPath>
    <clipPath id="clip-path-2">
      <rect id="사각형_13324" data-name="사각형 13324" width="389.295" height="28.877" fill="none"/>
    </clipPath>
  </defs>
  <g id="bi_Ventus_Z207" data-name="bi_Ventus Z207" transform="translate(-320.442 -855.18)" clip-path="url(#clip-path)">
    <g id="그룹_11346" data-name="그룹 11346" transform="translate(320.441 875.187)">
      <g id="그룹_11345" data-name="그룹 11345" transform="translate(0 0)" clip-path="url(#clip-path-2)">
        <path id="패스_59191" data-name="패스 59191" d="M28.215,9.037l-11.4,15.13-5.76-15.13H0L6.01,24.822h0c.977,2.781,3.675,5.964,9,5.964h7.861L39.267,9.037Z" transform="translate(0 -2.145)" fill="#fe5a17" fill-rule="evenodd"/>
        <path id="패스_59192" data-name="패스 59192" d="M73.444,7.5H62.411c-11.869,0-13.454,7.231-13.454,7.231l-1.4,5.616c-2.038,8.21,9.217,8.8,9.217,8.8l2.669-.014H80.367l1.178-4.661H61.96c-4.662,0-4.031-3.422-4.031-3.422l.249-.989H82.664l.912-3.668C85.871,7.155,73.444,7.5,73.444,7.5M72.2,15.542H59.333c.9-3.6,4.911-3.632,4.911-3.632h4.639c4.926,0,3.319,3.632,3.319,3.632m129.349-3.7h16.283l1.1-4.347h-13.8v0h-5.771c-10.337,0-11.717,6.3-11.717,6.3l-.3,1.21h.008c-.293,3.085,2.027,4.756,5.4,4.756H205.6c1.372,0,2.026.822,1.49,1.857-.725,1.392-3.014,1.861-4.652,1.861h-16.66l-1.428,5.653h21.209c10.327,0,11.711-6.3,11.711-6.3l.3-1.2c.5-3.41-1.656-6.262-5.138-6.262h-13.1c-1.056,0-2.131-.561-1.34-1.846a4.969,4.969,0,0,1,3.569-1.686M174.61,7.5l-3.482,13.9,0,0-.763,3.066h-6.534c-2.83,0-4.7-1.518-4.154-3.37l3.443-13.6H139.78l1.262-4.94H129.325l-4.956,19.628c-1.11,3.815,2.943,6.947,9.007,6.947h7.165l1.177-4.661h-1.3c-2.826,0-4.7-1.519-4.154-3.37l2.381-9.176h11.719l-2.593,10.26c-1.11,3.815,2.944,6.947,9.008,6.947h23.446L185.685,7.5ZM109.478,21.218,100.84,7.5H89.79L84.3,29.249H95.348l3.463-13.718,8.638,13.718H118.5L123.989,7.5H112.938Z" transform="translate(-11.228 -0.608)" fill="#fe5a17" fill-rule="evenodd"/>
        <path id="패스_59193" data-name="패스 59193" d="M288.4,28.691l1.386-5.561,16.013-10c3.432-2.123,8.2-4.842,10.656-6.24-3.579.077-9.393.117-13.747.117h-7.586L296.7.694h36.4l-1.386,5.558-16.012,10c-3.431,2.119-8.2,4.836-10.656,6.24,3.581-.08,9.393-.121,13.747-.121h9.036l-1.576,6.32Z" transform="translate(-68.442 -0.165)" fill="#898989"/>
        <path id="패스_59194" data-name="패스 59194" d="M342.694,28.437c2.749-9.44,11.206-14,23.527-17.118,5.21-1.32,6.043-1.758,6.323-2.88.309-1.239-.972-1.917-4.665-1.917A41.366,41.366,0,0,0,353.452,9.36l-4.443-5.72A59.231,59.231,0,0,1,369.7,0c11.475,0,16.777,2.8,15.511,7.882-.918,3.678-3.587,5.918-13.042,8.4-9.881,2.6-12.843,4.159-14.249,5.838h24.072l-1.576,6.319Z" transform="translate(-81.328 0)" fill="#898989"/>
        <path id="패스_59195" data-name="패스 59195" d="M417.9,28.877c-12,0-19.575-5.078-17.252-14.4S413.231,0,425.234,0s19.575,5.081,17.252,14.4S429.906,28.877,417.9,28.877m5.534-22.2c-4.945,0-8.363,2.6-9.64,7.719s.958,7.8,5.9,7.8,8.365-2.6,9.64-7.718-.957-7.8-5.9-7.8" transform="translate(-94.982 0)" fill="#898989"/>
        <path id="패스_59196" data-name="패스 59196" d="M474.983,28.574H462.452c2.525-9.6,8.512-16.157,18.794-21.677H458.3L459.87.577h38.187l-1.4,5.6c-15.4,7.519-19.414,13.317-21.678,22.4" transform="translate(-108.762 -0.137)" fill="#898989"/>
      </g>
    </g>
  </g>
</svg>
