<svg xmlns="http://www.w3.org/2000/svg" xmlns:xlink="http://www.w3.org/1999/xlink" width="496" height="52" viewBox="0 0 496 52">
  <defs>
    <clipPath id="clip-path">
      <rect id="사각형_13314" data-name="사각형 13314" width="496" height="52" transform="translate(320.442 855.18)" fill="none" stroke="#707070" stroke-width="1"/>
    </clipPath>
    <clipPath id="clip-path-2">
      <rect id="사각형_13333" data-name="사각형 13333" width="373.429" height="28.653" fill="none"/>
    </clipPath>
  </defs>
  <g id="bi_Ventus_Z217" data-name="bi_Ventus Z217" transform="translate(-320.442 -855.18)" clip-path="url(#clip-path)">
    <g id="그룹_11361" data-name="그룹 11361" transform="translate(320.441 875.317)">
      <g id="그룹_11360" data-name="그룹 11360" transform="translate(0 0)" clip-path="url(#clip-path-2)">
        <path id="패스_59246" data-name="패스 59246" d="M28.227,9.037,16.818,24.173,11.056,9.037H0L6.012,24.829h0c.977,2.782,3.677,5.967,9,5.967h7.864l16.4-21.758Z" transform="translate(0 -2.142)" fill="#fe5a17" fill-rule="evenodd"/>
        <path id="패스_59247" data-name="패스 59247" d="M73.455,7.5H62.418c-11.874,0-13.46,7.234-13.46,7.234l-1.4,5.618c-2.039,8.213,9.221,8.8,9.221,8.8l2.67-.014H80.38l1.178-4.663H61.966c-4.664,0-4.032-3.424-4.032-3.424l.249-.99h24.5l.913-3.67c2.3-9.242-10.136-8.9-10.136-8.9m-1.243,8.046H59.338c.9-3.6,4.913-3.633,4.913-3.633h4.641c4.928,0,3.321,3.633,3.321,3.633m129.4-3.7H217.9L219,7.5H205.2v0h-5.774c-10.341,0-11.722,6.3-11.722,6.3l-.3,1.21h.008c-.293,3.086,2.028,4.758,5.4,4.758H205.66c1.373,0,2.027.823,1.49,1.858-.726,1.392-3.015,1.862-4.654,1.862H185.83L184.4,29.145h21.217c10.332,0,11.716-6.3,11.716-6.3l.3-1.2c.5-3.411-1.656-6.265-5.14-6.265h-13.1c-1.056,0-2.132-.561-1.341-1.846a4.971,4.971,0,0,1,3.57-1.686M174.661,7.5,171.177,21.41l0,0-.764,3.067h-6.537c-2.831,0-4.7-1.52-4.156-3.372L163.163,7.5H139.817L141.08,2.56H129.358L124.4,22.195c-1.111,3.816,2.944,6.95,9.011,6.95h7.168l1.177-4.663h-1.3c-2.827,0-4.7-1.52-4.156-3.372l2.382-9.18h11.724l-2.594,10.264c-1.11,3.816,2.945,6.95,9.012,6.95h23.455L185.741,7.5ZM109.5,21.226,100.862,7.5H89.807l-5.5,21.757H95.367l3.465-13.723,8.642,13.723h11.056L124.02,7.5H112.965Z" transform="translate(-11.213 -0.607)" fill="#fe5a17" fill-rule="evenodd"/>
        <path id="패스_59248" data-name="패스 59248" d="M288.4,28.7l1.386-5.564,16.019-10c3.433-2.123,8.2-4.844,10.66-6.242-3.581.078-9.4.118-13.752.118h-7.589L296.7.694h36.419l-1.386,5.56-16.019,10c-3.432,2.12-8.2,4.838-10.66,6.242,3.582-.08,9.4-.121,13.752-.121h9.04L326.268,28.7Z" transform="translate(-68.353 -0.164)" fill="#898989"/>
        <path id="패스_59249" data-name="패스 59249" d="M342.694,28.449c2.751-9.444,11.211-14,23.537-17.125,5.212-1.321,6.046-1.759,6.325-2.881.309-1.24-.973-1.918-4.666-1.918a41.365,41.365,0,0,0-14.433,2.84l-4.444-5.722A59.255,59.255,0,0,1,369.714,0c11.48,0,16.784,2.8,15.518,7.885-.918,3.679-3.588,5.92-13.047,8.4-9.885,2.6-12.848,4.161-14.255,5.84h24.081l-1.576,6.321Z" transform="translate(-81.222 0)" fill="#898989"/>
        <path id="패스_59250" data-name="패스 59250" d="M453.99,28.586H441.454c2.526-9.6,8.516-16.163,18.8-21.686H437.3L438.871.577h38.2l-1.4,5.6C460.274,13.7,456.255,19.5,453.99,28.586" transform="translate(-103.644 -0.137)" fill="#898989"/>
        <path id="패스_59251" data-name="패스 59251" d="M405.262,28.515l4.847-19.442H402.26l1.237-4.96c6.039-.2,8.682-1.212,10.667-3.833H424.94L417.9,28.515Z" transform="translate(-95.34 -0.066)" fill="#898989"/>
      </g>
    </g>
  </g>
</svg>
