<svg xmlns="http://www.w3.org/2000/svg" xmlns:xlink="http://www.w3.org/1999/xlink" width="496" height="52" viewBox="0 0 496 52">
  <defs>
    <clipPath id="clip-path">
      <rect id="사각형_13314" data-name="사각형 13314" width="496" height="52" transform="translate(320.442 855.18)" fill="none" stroke="#707070" stroke-width="1"/>
    </clipPath>
    <clipPath id="clip-path-2">
      <rect id="사각형_13318" data-name="사각형 13318" width="389.295" height="28.746" fill="none"/>
    </clipPath>
  </defs>
  <g id="bi_Ventus_Z205" data-name="bi_Ventus Z205" transform="translate(-320.442 -855.18)" clip-path="url(#clip-path)">
    <g id="그룹_11336" data-name="그룹 11336" transform="translate(320.441 875.316)">
      <g id="그룹_11335" data-name="그룹 11335" transform="translate(0 0)" clip-path="url(#clip-path-2)">
        <path id="패스_59150" data-name="패스 59150" d="M28.087,9.033,16.735,24.094,11,9.033H0L5.982,24.747h0c.973,2.768,3.658,5.939,8.959,5.939h7.825L39.089,9.033Z" transform="translate(0 -2.175)" fill="#fe5a17" fill-rule="evenodd"/>
        <path id="패스_59151" data-name="패스 59151" d="M73.324,7.474H62.341c-11.814,0-13.393,7.2-13.393,7.2l-1.394,5.593c-2.026,8.171,9.177,8.758,9.177,8.758l2.657-.014H80.216l1.171-4.64h-19.5c-4.639,0-4.012-3.406-4.012-3.406l.249-.985H82.5l.909-3.65c2.284-9.2-10.086-8.856-10.086-8.856m-1.237,8.008H59.279c.9-3.584,4.888-3.618,4.888-3.618h4.617c4.9,0,3.3,3.618,3.3,3.618M200.846,11.8h16.209l1.093-4.325H198.671c-10.29,0-11.664,6.268-11.664,6.268l-.3,1.206h.008c-.292,3.07,2.018,4.734,5.378,4.734h12.78c1.367,0,2.017.818,1.484,1.849-.722,1.389-3,1.855-4.631,1.855H185.141l-1.422,5.624H204.83c10.281,0,11.659-6.268,11.659-6.268l.293-1.19c.5-3.4-1.647-6.234-5.114-6.234h-13.04c-1.051,0-2.121-.561-1.334-1.84a4.946,4.946,0,0,1,3.552-1.677M174.026,7.474l-3.465,13.839,0,.005-.76,3.051h-6.5c-2.817,0-4.674-1.514-4.135-3.357l3.428-13.538h-23.23l1.257-4.914H128.95l-4.933,19.535c-1.107,3.8,2.93,6.915,8.966,6.915h7.132l1.171-4.64H140c-2.814,0-4.674-1.512-4.135-3.354l2.37-9.133H149.9l-2.581,10.212c-1.1,3.8,2.931,6.915,8.967,6.915H179.62l5.432-21.535ZM109.192,21.133l-8.6-13.658h-11L84.127,29.127h11l3.448-13.658,8.6,13.658h11l5.464-21.652h-11Z" transform="translate(-11.391 -0.616)" fill="#fe5a17" fill-rule="evenodd"/>
        <path id="패스_59152" data-name="패스 59152" d="M288.391,28.559l1.379-5.532,15.94-9.955c3.417-2.11,8.16-4.817,10.608-6.211-3.563.08-9.351.121-13.685.121h-7.55L296.651.69H332.89l-1.38,5.535L315.57,16.177c-3.415,2.113-8.159,4.817-10.607,6.211,3.565-.077,9.351-.118,13.684-.118h8.994l-1.569,6.289Z" transform="translate(-69.439 -0.166)" fill="#898989"/>
        <path id="패스_59153" data-name="패스 59153" d="M342.686,28.308c2.737-9.4,11.155-13.935,23.42-17.041,5.185-1.313,6.015-1.751,6.293-2.866.308-1.234-.967-1.91-4.644-1.91a41.143,41.143,0,0,0-14.361,2.827l-4.422-5.7A58.98,58.98,0,0,1,369.571,0c11.422,0,16.7,2.788,15.439,7.845-.912,3.662-3.569,5.892-12.981,8.361-9.836,2.587-12.784,4.141-14.184,5.813h23.962l-1.569,6.29Z" transform="translate(-82.513 0)" fill="#898989"/>
        <path id="패스_59154" data-name="패스 59154" d="M417.811,28.746c-11.947,0-19.485-5.056-17.173-14.332S413.162,0,425.109,0,444.6,5.058,442.284,14.333s-12.523,14.413-24.473,14.413m5.509-22.1c-4.923,0-8.325,2.587-9.6,7.683s.954,7.764,5.877,7.764,8.327-2.587,9.6-7.683-.954-7.764-5.878-7.764" transform="translate(-96.366 0)" fill="#898989"/>
        <path id="패스_59155" data-name="패스 59155" d="M473.9,28.885A47.945,47.945,0,0,1,455.11,25.5l6.628-5.772a39.741,39.741,0,0,0,14.086,2.747c5.908,0,8.4-1.313,8.96-3.544.535-2.149-1.421-3.265-5.359-3.265a22.311,22.311,0,0,0-8.865,1.593L460.217,15.03,465.4.578h33.482L497.31,6.869H474.134l-1.357,3.861A35.914,35.914,0,0,1,483,9.5c9.912,0,15.659,3.025,14.111,9.237-1.618,6.49-10.147,10.152-23.212,10.152" transform="translate(-109.582 -0.139)" fill="#898989"/>
      </g>
    </g>
  </g>
</svg>
