<svg xmlns="http://www.w3.org/2000/svg" xmlns:xlink="http://www.w3.org/1999/xlink" width="496" height="52" viewBox="0 0 496 52">
  <defs>
    <clipPath id="clip-path">
      <rect id="사각형_13314" data-name="사각형 13314" width="496" height="52" transform="translate(320.442 855.18)" fill="none" stroke="#707070" stroke-width="1"/>
    </clipPath>
    <clipPath id="clip-path-2">
      <rect id="사각형_13229" data-name="사각형 13229" width="385.557" height="28.408" fill="none"/>
    </clipPath>
  </defs>
  <g id="bi_Ventus_F200" data-name="bi_Ventus F200" transform="translate(-320.442 -855.18)" clip-path="url(#clip-path)">
    <g id="그룹_11329" data-name="그룹 11329" transform="translate(320.442 876.634)">
      <g id="그룹_10734" data-name="그룹 10734" transform="translate(0 0)" clip-path="url(#clip-path-2)">
        <path id="패스_54844" data-name="패스 54844" d="M27.758,8.878,16.538,23.763,10.872,8.878H0L5.912,24.407h0c.961,2.736,3.616,5.867,8.854,5.867H22.5L38.63,8.878Z" transform="translate(0 -2.217)" fill="#fe5a17" fill-rule="evenodd"/>
        <path id="패스_54845" data-name="패스 54845" d="M73.02,7.261H62.166c-11.676,0-13.237,7.114-13.237,7.114L47.553,19.9c-2,8.076,9.067,8.658,9.067,8.658l2.626-.014H79.83l1.158-4.584H61.722c-4.587,0-3.965-3.367-3.965-3.367L58,19.619H82.09l.9-3.609c2.257-9.089-9.969-8.749-9.969-8.749M71.8,15.173H59.139c.885-3.539,4.83-3.573,4.83-3.573h4.563c4.847,0,3.266,3.573,3.266,3.573m127.253-3.638h16.022l1.08-4.277H202.579v0H196.9c-10.169,0-11.527,6.194-11.527,6.194l-.3,1.191h.008c-.289,3.035,1.994,4.679,5.315,4.679h12.63c1.349,0,1.994.809,1.465,1.827-.712,1.369-2.964,1.831-4.576,1.831H183.53l-1.405,5.56h20.864c10.164,0,11.525-6.194,11.525-6.194l.291-1.179c.489-3.355-1.63-6.161-5.055-6.161h-12.89c-1.038,0-2.1-.552-1.318-1.816a4.889,4.889,0,0,1,3.51-1.657m-26.5-4.274-3.425,13.676,0,0-.753,3.016h-6.429c-2.783,0-4.62-1.495-4.088-3.316l3.389-13.379H138.28l1.243-4.86H127.995l-4.875,19.308c-1.093,3.754,2.9,6.835,8.862,6.835h7.048l1.157-4.584h-1.276c-2.781,0-4.619-1.495-4.088-3.316l2.342-9.027h11.529l-2.551,10.092c-1.092,3.754,2.9,6.835,8.862,6.835h23.067l5.37-21.282ZM108.469,20.756l-8.5-13.495H89.1l-5.4,21.4H94.569l3.407-13.5,8.5,13.5h10.872l5.4-21.4H111.873Z" transform="translate(-11.813 -0.6)" fill="#fe5a17" fill-rule="evenodd"/>
        <path id="패스_54846" data-name="패스 54846" d="M303.781,17.264l-2.688,10.783H288.571L295.437.5h35.945L329.765,7H306.341l-.951,3.815Z" transform="translate(-72.055 -0.126)" fill="#898989"/>
        <path id="패스_54847" data-name="패스 54847" d="M342.79,27.975c2.7-9.286,11.024-13.77,23.145-16.841,5.125-1.3,5.946-1.729,6.221-2.833.3-1.219-.957-1.886-4.59-1.886a40.674,40.674,0,0,0-14.194,2.793L349,3.58A58.278,58.278,0,0,1,369.361,0c11.288,0,16.505,2.755,15.258,7.753-.9,3.618-3.527,5.822-12.83,8.263-9.72,2.556-12.634,4.091-14.018,5.743h23.683l-1.55,6.216Z" transform="translate(-85.594 0)" fill="#898989"/>
        <path id="패스_54848" data-name="패스 54848" d="M417.712,28.409c-11.808,0-19.257-5-16.971-14.163S413.116,0,424.925,0,444.182,5,441.9,14.166s-12.375,14.243-24.185,14.243m5.444-21.837c-4.866,0-8.229,2.556-9.485,7.594s.942,7.672,5.808,7.672,8.229-2.556,9.485-7.592-.942-7.673-5.809-7.673" transform="translate(-99.961 0)" fill="#898989"/>
        <path id="패스_54849" data-name="패스 54849" d="M475.3,28.409c-11.808,0-19.256-5-16.971-14.163S470.708,0,482.515,0s19.257,5,16.972,14.166S487.112,28.409,475.3,28.409m5.444-21.837c-4.865,0-8.229,2.556-9.485,7.594s.944,7.672,5.81,7.672,8.229-2.556,9.484-7.592-.942-7.673-5.809-7.673" transform="translate(-114.341 0)" fill="#898989"/>
        <path id="패스_54850" data-name="패스 54850" d="M304.979,16.969H327.4l-1.609,6.452H303.37Z" transform="translate(-75.751 -4.237)" fill="#898989"/>
      </g>
    </g>
  </g>
</svg>
