<svg xmlns="http://www.w3.org/2000/svg" xmlns:xlink="http://www.w3.org/1999/xlink" width="496" height="52" viewBox="0 0 496 52">
  <defs>
    <clipPath id="clip-path">
      <rect id="사각형_13314" data-name="사각형 13314" width="496" height="52" transform="translate(320.442 855.18)" fill="none" stroke="#707070" stroke-width="1"/>
    </clipPath>
    <clipPath id="clip-path-2">
      <rect id="사각형_13341" data-name="사각형 13341" width="369.435" height="28.812" fill="none"/>
    </clipPath>
  </defs>
  <g id="bi_Ventus_Z213" data-name="bi_Ventus Z213" transform="translate(-320.442 -855.18)" clip-path="url(#clip-path)">
    <g id="그룹_11376" data-name="그룹 11376" transform="translate(320.441 875.597)">
      <g id="그룹_11375" data-name="그룹 11375" transform="translate(0 0)" clip-path="url(#clip-path-2)">
        <path id="패스_59300" data-name="패스 59300" d="M28.153,15.039l-11.378,15.1-5.746-15.1H0L6,30.79H6c.975,2.774,3.666,5.953,8.98,5.953h7.844l16.359-21.7Z" transform="translate(0 -8.16)" fill="#fe5a17" fill-rule="evenodd"/>
        <path id="패스_59301" data-name="패스 59301" d="M104.782,9.2H93.773C81.93,9.2,80.35,16.412,80.35,16.412l-1.4,5.606c-2.032,8.191,9.2,8.779,9.2,8.779l2.662-.014H111.69l1.173-4.65H93.323c-4.651,0-4.022-3.414-4.022-3.414l.249-.987h24.431l.911-3.658c2.289-9.218-10.11-8.877-10.11-8.877m-1.24,8.027H90.7c.9-3.592,4.9-3.627,4.9-3.627h4.628c4.914,0,3.311,3.627,3.311,3.627M232.6,13.532h16.247l1.1-4.335H230.424c-10.314,0-11.691,6.283-11.691,6.283l-.3,1.208h.008c-.293,3.079,2.023,4.745,5.391,4.745h12.81c1.368,0,2.021.821,1.486,1.854-.723,1.392-3.006,1.86-4.642,1.86H216.863l-1.426,5.637H236.6c10.306,0,11.685-6.283,11.685-6.283l.3-1.193c.5-3.405-1.653-6.249-5.127-6.249H230.381c-1.053,0-2.126-.562-1.337-1.844a4.96,4.96,0,0,1,3.56-1.682M205.722,9.2l-3.474,13.871s0,0,0,.005l-.762,3.058h-6.519c-2.823,0-4.685-1.518-4.146-3.365L194.255,9.2H170.971l1.259-4.926H160.54l-4.945,19.581c-1.108,3.807,2.936,6.931,8.987,6.931h7.15l1.173-4.65h-1.294c-2.82,0-4.685-1.515-4.145-3.363l2.375-9.154h11.694l-2.587,10.236c-1.107,3.807,2.938,6.931,8.989,6.931h23.393L216.774,9.2Zm-64.987,13.69L132.117,9.2H121.092L115.61,30.9h11.027l3.456-13.691,8.62,13.691h11.026l5.477-21.7H144.189Z" transform="translate(-42.703 -2.317)" fill="#fe5a17" fill-rule="evenodd"/>
        <path id="패스_59302" data-name="패스 59302" d="M479.771,29.095l1.383-5.548,15.977-9.975c3.424-2.117,8.18-4.832,10.633-6.225-3.572.077-9.373.117-13.717.117h-7.568l1.572-6.3h36.323l-1.383,5.546-15.977,9.978c-3.423,2.114-8.178,4.826-10.632,6.226,3.574-.081,9.373-.121,13.716-.121h9.016l-1.572,6.306Z" transform="translate(-260.303 -0.63)" fill="#898989"/>
        <path id="패스_59303" data-name="패스 59303" d="M570.1,28.374c2.744-9.419,11.182-13.966,23.475-17.08,5.2-1.317,6.03-1.754,6.309-2.873.309-1.236-.969-1.913-4.654-1.913A41.251,41.251,0,0,0,580.83,9.34L576.4,3.632A59.081,59.081,0,0,1,597.045,0c11.45,0,16.741,2.794,15.477,7.864-.915,3.669-3.579,5.9-13.012,8.38-9.859,2.592-12.814,4.15-14.219,5.826H609.31l-1.572,6.3Z" transform="translate(-309.31 0)" fill="#898989"/>
        <path id="패스_59304" data-name="패스 59304" d="M674.024,28.894l4.8-19.235h-7.765l1.224-4.907c5.973-.2,8.591-1.2,10.553-3.793h10.66l-6.965,27.935Z" transform="translate(-364.086 -0.52)" fill="#898989"/>
        <path id="패스_59305" data-name="패스 59305" d="M734.089,28.812c-7.831,0-14.07-1.635-18.348-4.269l7.835-5.029a25.747,25.747,0,0,0,12.368,2.915c5.33,0,7.8-.919,8.274-2.834.488-1.957-1.175-2.674-5.847-2.674h-6.646l1.5-6.025h5.922c4.015,0,5.46-.52,5.918-2.355.368-1.478-1.276-2.275-5.818-2.275a31.123,31.123,0,0,0-12.047,2.4l-4.8-5.029A47.028,47.028,0,0,1,741.143,0c11.055,0,17.9,2.116,16.424,8.021-.766,3.073-4.1,4.55-7.483,5.468,4.128.6,7.412,2.473,6.526,6.025-1.612,6.467-10.017,9.3-22.521,9.3" transform="translate(-388.331 0)" fill="#898989"/>
      </g>
    </g>
  </g>
</svg>
