<svg xmlns="http://www.w3.org/2000/svg" xmlns:xlink="http://www.w3.org/1999/xlink" width="496" height="52" viewBox="0 0 496 52">
  <defs>
    <clipPath id="clip-path">
      <rect id="사각형_13314" data-name="사각형 13314" width="496" height="52" transform="translate(320.442 855.18)" fill="none" stroke="#707070" stroke-width="1"/>
    </clipPath>
    <clipPath id="clip-path-2">
      <rect id="사각형_13364" data-name="사각형 13364" width="311.008" height="28.74" transform="translate(0 0)" fill="none"/>
    </clipPath>
  </defs>
  <g id="bi_Ventus_TD" data-name="bi_Ventus TD" transform="translate(-320.442 -855.18)" clip-path="url(#clip-path)">
    <g id="그룹_11416" data-name="그룹 11416" transform="translate(320.441 876.439)">
      <g id="그룹_11415" data-name="그룹 11415" clip-path="url(#clip-path-2)">
        <path id="패스_59461" data-name="패스 59461" d="M28.749,6.577,17.128,21.993,11.26,6.577H0L6.123,22.661h0c1,2.833,3.746,6.079,9.17,6.079H23.3l16.7-22.163Z" fill="#fe5a17" fill-rule="evenodd"/>
        <path id="패스_59462" data-name="패스 59462" d="M63.392,6.577H52.151c-12.094,0-13.71,7.369-13.71,7.369L37.016,19.67c-2.075,8.364,9.391,8.965,9.391,8.965l2.721-.015H70.445l1.2-4.749H51.691c-4.75,0-4.107-3.486-4.107-3.486l.254-1.008H72.786l.93-3.735c2.338-9.413-10.324-9.065-10.324-9.065m-1.265,8.2H49.015c.917-3.668,5-3.7,5-3.7h4.725c5.02,0,3.383,3.7,3.383,3.7M193.923,11h16.592l1.119-4.427H191.7c-10.532,0-11.938,6.416-11.938,6.416l-.307,1.234h.008c-.3,3.143,2.065,4.846,5.505,4.846h13.082c1.4,0,2.064.837,1.517,1.892-.739,1.421-3.071,1.9-4.741,1.9H177.848l-1.455,5.756H198c10.525,0,11.935-6.416,11.935-6.416l.3-1.218c.507-3.478-1.688-6.381-5.236-6.381H191.652c-1.075,0-2.171-.574-1.365-1.884A5.069,5.069,0,0,1,193.923,11M166.472,6.577l-3.548,14.165,0,.006-.778,3.123h-6.659c-2.883,0-4.784-1.549-4.233-3.436L154.76,6.577H130.983l1.286-5.03H120.331l-5.05,19.995c-1.132,3.888,3,7.078,9.178,7.078h7.3l1.2-4.749h-1.321c-2.88,0-4.784-1.546-4.233-3.433l2.426-9.349H141.77l-2.642,10.453c-1.131,3.888,3,7.078,9.178,7.078H172.2l5.561-22.043ZM100.107,20.558l-8.8-13.981H80.047l-5.6,22.164H85.711L89.239,14.76l8.8,13.981H109.3l5.593-22.164h-11.26Z" fill="#fe5a17" fill-rule="evenodd"/>
        <path id="패스_59463" data-name="패스 59463" d="M254.26,6.888l-5.4,21.639H235.828l5.4-21.639H228.052L229.769,0h39.38l-1.717,6.888Z" fill="#767676"/>
        <path id="패스_59464" data-name="패스 59464" d="M281.524,28.527H266.269L273.381,0h16.463c14.785,0,23.351,3.381,20.678,14.1s-12.333,14.426-29,14.426m6.568-21.762h-3.226l-3.738,15h2.821c8.13,0,11.757-1.875,13.169-7.54,1.31-5.257-.9-7.457-9.026-7.457" fill="#767676"/>
      </g>
    </g>
  </g>
</svg>
