<svg xmlns="http://www.w3.org/2000/svg" xmlns:xlink="http://www.w3.org/1999/xlink" width="496" height="52" viewBox="0 0 496 52">
  <defs>
    <clipPath id="clip-path">
      <rect id="사각형_13314" data-name="사각형 13314" width="496" height="52" transform="translate(320.442 855.18)" fill="none" stroke="#707070" stroke-width="1"/>
    </clipPath>
    <clipPath id="clip-path-2">
      <rect id="사각형_13339" data-name="사각형 13339" width="389.418" height="28.747" fill="none"/>
    </clipPath>
  </defs>
  <g id="bi_Ventus_Z209" data-name="bi_Ventus Z209" transform="translate(-320.442 -855.18)" clip-path="url(#clip-path)">
    <g id="그룹_11372" data-name="그룹 11372" transform="translate(320.441 875.317)">
      <g id="그룹_11371" data-name="그룹 11371" transform="translate(0 0)" clip-path="url(#clip-path-2)">
        <path id="패스_59288" data-name="패스 59288" d="M28.088,15.033,16.736,30.092,11,15.033H0L5.982,30.744h0c.973,2.768,3.658,5.939,8.959,5.939H22.77L39.091,15.033Z" transform="translate(0 -8.172)" fill="#fe5a17" fill-rule="evenodd"/>
        <path id="패스_59289" data-name="패스 59289" d="M104.722,9.177H93.739c-11.815,0-13.393,7.2-13.393,7.2l-1.394,5.59c-2.027,8.172,9.177,8.759,9.177,8.759l2.656-.014h20.829l1.171-4.64h-19.5c-4.64,0-4.013-3.4-4.013-3.4l.249-.985H113.9l.909-3.652c2.284-9.2-10.087-8.854-10.087-8.854m-1.237,8.006H90.676c.9-3.581,4.889-3.616,4.889-3.616h4.617c4.9,0,3.3,3.616,3.3,3.616M232.251,13.5h16.21l1.093-4.328H235.82v0h-5.745c-10.29,0-11.664,6.268-11.664,6.268l-.3,1.205h.008c-.292,3.072,2.018,4.734,5.378,4.734h12.781c1.365,0,2.016.819,1.482,1.849-.721,1.385-3,1.852-4.631,1.852H216.545l-1.423,5.625h21.112c10.282,0,11.658-6.269,11.658-6.269l.3-1.19c.5-3.4-1.649-6.234-5.115-6.234H230.032c-1.051,0-2.121-.558-1.334-1.838a4.95,4.95,0,0,1,3.552-1.677M205.43,9.177l-3.466,13.839a0,0,0,0,1,0,0l-.76,3.052h-6.5c-2.817,0-4.674-1.515-4.136-3.355L193.99,9.177H170.759l1.256-4.918H160.351L155.418,23.8c-1.106,3.8,2.93,6.913,8.966,6.913h7.133l1.17-4.64H171.4c-2.814,0-4.674-1.512-4.136-3.352l2.37-9.134H181.3L178.716,23.8c-1.1,3.8,2.931,6.913,8.968,6.913h23.339l5.433-21.533ZM140.592,22.833l-8.6-13.656h-11l-5.469,21.651h11l3.448-13.656,8.6,13.656h11l5.464-21.651h-11Z" transform="translate(-42.786 -2.315)" fill="#fe5a17" fill-rule="evenodd"/>
        <path id="패스_59290" data-name="패스 59290" d="M479.771,29.018l1.38-5.533,15.94-9.956c3.417-2.109,8.161-4.817,10.608-6.211-3.564.08-9.352.12-13.685.12h-7.551l1.569-6.292h36.24l-1.38,5.536-15.94,9.952c-3.415,2.113-8.159,4.818-10.608,6.212,3.565-.078,9.351-.118,13.684-.118h8.995l-1.569,6.289Z" transform="translate(-260.808 -0.623)" fill="#898989"/>
        <path id="패스_59291" data-name="패스 59291" d="M570.1,28.309c2.738-9.4,11.156-13.934,23.421-17.041,5.187-1.314,6.017-1.751,6.294-2.867.308-1.234-.967-1.909-4.644-1.909a41.147,41.147,0,0,0-14.362,2.827l-4.423-5.695A58.946,58.946,0,0,1,596.983,0c11.424,0,16.7,2.788,15.441,7.846-.913,3.661-3.571,5.891-12.982,8.361-9.837,2.586-12.785,4.141-14.186,5.813H609.22l-1.569,6.29Z" transform="translate(-309.91 0)" fill="#898989"/>
        <path id="패스_59292" data-name="패스 59292" d="M683.4,28.747c-11.949,0-19.486-5.055-17.173-14.332S678.754,0,690.7,0s19.486,5.058,17.173,14.334S695.354,28.747,683.4,28.747m5.508-22.1c-4.923,0-8.326,2.586-9.6,7.684s.953,7.763,5.878,7.763,8.326-2.586,9.6-7.682-.952-7.764-5.876-7.764" transform="translate(-361.943 0)" fill="#898989"/>
        <path id="패스_59293" data-name="패스 59293" d="M765.945,28.747l1.579-6.329c12.013,0,18.853-2.152,23.138-5.375a38.792,38.792,0,0,1-12.226,1.632c-9.52,0-15.531-2.747-14.063-8.638C765.942,3.742,774.82,0,787.819,0c11.555,0,18.6,3.861,16.686,11.547-1.836,7.365-12.3,17.2-38.56,17.2m19.7-22.654c-4.792,0-8.307,1.193-8.862,3.425-.536,2.15,2.024,3.464,6.884,3.464,5.645,0,8.664-1.313,9.211-3.5.495-1.99-1.652-3.385-7.233-3.385" transform="translate(-415.4 0)" fill="#898989"/>
      </g>
    </g>
  </g>
</svg>
