<svg xmlns="http://www.w3.org/2000/svg" xmlns:xlink="http://www.w3.org/1999/xlink" width="496" height="52" viewBox="0 0 496 52">
  <defs>
    <clipPath id="clip-path">
      <rect id="사각형_13314" data-name="사각형 13314" width="496" height="52" transform="translate(320.442 855.18)" fill="none" stroke="#707070" stroke-width="1"/>
    </clipPath>
    <clipPath id="clip-path-2">
      <rect id="사각형_13340" data-name="사각형 13340" width="373.099" height="28.876" fill="none"/>
    </clipPath>
  </defs>
  <g id="bi_Ventus_Z210" data-name="bi_Ventus Z210" transform="translate(-320.442 -855.18)" clip-path="url(#clip-path)">
    <g id="그룹_11374" data-name="그룹 11374" transform="translate(320.441 875.185)">
      <g id="그룹_11373" data-name="그룹 11373" transform="translate(0 0)" clip-path="url(#clip-path-2)">
        <path id="패스_59294" data-name="패스 59294" d="M28.214,15.04l-11.4,15.129L11.052,15.04H0L6.009,30.825h0c.977,2.78,3.674,5.963,9,5.963h7.861L39.267,15.04Z" transform="translate(0 -8.145)" fill="#fe5a17" fill-rule="evenodd"/>
        <path id="패스_59295" data-name="패스 59295" d="M104.839,9.2H93.806c-11.869,0-13.453,7.231-13.453,7.231l-1.4,5.615c-2.036,8.209,9.218,8.8,9.218,8.8l2.668-.015h20.923l1.176-4.661H93.355c-4.661,0-4.031-3.421-4.031-3.421l.25-.989h24.484l.913-3.668C117.265,8.86,104.839,9.2,104.839,9.2M103.6,17.247H90.73c.9-3.6,4.911-3.632,4.911-3.632h4.638c4.925,0,3.318,3.632,3.318,3.632m129.345-3.7h16.283l1.1-4.348h-13.8v0h-5.77c-10.337,0-11.716,6.3-11.716,6.3l-.3,1.21h.008c-.293,3.085,2.027,4.755,5.4,4.755h12.838c1.371,0,2.025.822,1.489,1.858-.724,1.392-3.013,1.86-4.652,1.86H217.165l-1.429,5.653h21.207c10.328,0,11.711-6.3,11.711-6.3l.3-1.2c.5-3.41-1.656-6.262-5.138-6.262h-13.1c-1.055,0-2.13-.561-1.34-1.846a4.971,4.971,0,0,1,3.568-1.685M206,9.2l-3.481,13.9a0,0,0,0,1,0,0l-.764,3.065h-6.534c-2.83,0-4.7-1.518-4.155-3.37l3.445-13.6H171.173l1.262-4.94H160.719l-4.956,19.626c-1.111,3.816,2.943,6.947,9.007,6.947h7.165l1.175-4.661h-1.3c-2.826,0-4.7-1.518-4.154-3.37l2.38-9.175h11.719l-2.593,10.259c-1.11,3.816,2.944,6.947,9.008,6.947h23.444L217.076,9.2ZM140.871,22.922,132.234,9.2H121.184l-5.494,21.748h11.051l3.463-13.718,8.638,13.718h11.05L155.382,9.2H144.333Z" transform="translate(-42.624 -2.31)" fill="#fe5a17" fill-rule="evenodd"/>
        <path id="패스_59296" data-name="패스 59296" d="M479.771,29.157l1.386-5.56,16.012-10c3.432-2.122,8.2-4.842,10.656-6.239-3.58.077-9.394.118-13.747.118h-7.585l1.576-6.317h36.4l-1.386,5.558-16.012,10c-3.431,2.119-8.2,4.836-10.656,6.239,3.581-.081,9.393-.121,13.746-.121H519.2l-1.576,6.32Z" transform="translate(-259.823 -0.629)" fill="#898989"/>
        <path id="패스_59297" data-name="패스 59297" d="M570.1,28.436c2.75-9.439,11.206-14,23.526-17.118,5.21-1.32,6.044-1.758,6.322-2.879.309-1.239-.971-1.918-4.665-1.918a41.332,41.332,0,0,0-14.426,2.84l-4.443-5.72A59.211,59.211,0,0,1,597.1,0c11.475,0,16.777,2.8,15.51,7.881-.917,3.677-3.587,5.917-13.04,8.4-9.881,2.6-12.842,4.159-14.25,5.838H609.4l-1.576,6.318Z" transform="translate(-308.739 0)" fill="#898989"/>
        <path id="패스_59298" data-name="패스 59298" d="M674.031,28.955l4.806-19.277h-7.782l1.226-4.918c5.986-.2,8.609-1.2,10.576-3.8h10.683l-6.98,28Z" transform="translate(-363.414 -0.519)" fill="#898989"/>
        <path id="패스_59299" data-name="패스 59299" d="M738.431,28.876c-12,0-19.575-5.078-17.251-14.4S733.76,0,745.763,0s19.574,5.08,17.251,14.4-12.579,14.477-24.583,14.477m5.533-22.2c-4.945,0-8.362,2.6-9.639,7.719s.957,7.8,5.9,7.8,8.366-2.6,9.641-7.717-.958-7.8-5.9-7.8" transform="translate(-390.333 0)" fill="#898989"/>
      </g>
    </g>
  </g>
</svg>
