<svg xmlns="http://www.w3.org/2000/svg" xmlns:xlink="http://www.w3.org/1999/xlink" width="496" height="52" viewBox="0 0 496 52">
  <defs>
    <clipPath id="clip-path">
      <rect id="사각형_13314" data-name="사각형 13314" width="496" height="52" transform="translate(320.442 855.18)" fill="none" stroke="#707070" stroke-width="1"/>
    </clipPath>
    <clipPath id="clip-path-2">
      <rect id="사각형_13338" data-name="사각형 13338" width="373.844" height="28.054" fill="none"/>
    </clipPath>
  </defs>
  <g id="bi_Ventus_Z232" data-name="bi_Ventus Z232" transform="translate(-320.442 -855.18)" clip-path="url(#clip-path)">
    <g id="그룹_11370" data-name="그룹 11370" transform="translate(320.441 878.363)">
      <g id="그룹_11369" data-name="그룹 11369" transform="translate(0 -1.238)" clip-path="url(#clip-path-2)">
        <path id="패스_59282" data-name="패스 59282" d="M27.411,9.041l-11.08,14.7-5.6-14.7H0L5.838,24.376h0c.95,2.7,3.571,5.794,8.743,5.794h7.637L38.148,9.041Z" transform="translate(0 -2.342)" fill="#fe5a17" fill-rule="evenodd"/>
        <path id="패스_59283" data-name="패스 59283" d="M72.7,7.363H61.98c-11.531,0-13.072,7.025-13.072,7.025l-1.359,5.456c-1.978,7.975,8.954,8.551,8.954,8.551L59.1,28.38H79.423l1.144-4.527H61.541c-4.529,0-3.916-3.325-3.916-3.325l.243-.961H81.655L82.542,16c2.229-8.975-9.843-8.64-9.843-8.64m-1.207,7.813H58.99c.874-3.5,4.771-3.528,4.771-3.528h4.506c4.787,0,3.225,3.528,3.225,3.528m125.663-3.593h15.818l1.068-4.223h-13.4v0h-5.607c-10.041,0-11.382,6.117-11.382,6.117l-.293,1.176h.008c-.285,3,1.97,4.621,5.249,4.621h12.472c1.332,0,1.969.8,1.447,1.8-.7,1.352-2.927,1.808-4.52,1.808H181.827l-1.389,5.491h20.6c10.034,0,11.377-6.117,11.377-6.117l.288-1.165c.483-3.314-1.609-6.084-4.992-6.084H194.989c-1.025,0-2.069-.545-1.3-1.794a4.829,4.829,0,0,1,3.467-1.637M170.98,7.363,167.6,20.868l0,0-.742,2.979h-6.348c-2.748,0-4.562-1.476-4.037-3.274l3.347-13.213H137.144l1.227-4.8H126.987l-4.814,19.068c-1.079,3.706,2.859,6.749,8.751,6.749h6.96l1.143-4.527h-1.26c-2.746,0-4.561-1.476-4.037-3.274l2.313-8.914h11.385l-2.519,9.967c-1.078,3.706,2.86,6.749,8.751,6.749h22.778l5.3-21.017ZM107.705,20.69,99.313,7.363H88.578L83.241,28.492H93.978l3.365-13.327,8.392,13.327h10.736L121.8,7.363H111.067Z" transform="translate(-12.256 -0.664)" fill="#fe5a17" fill-rule="evenodd"/>
        <path id="패스_59284" data-name="패스 59284" d="M288.4,27.9l1.346-5.4L305.3,12.782c3.334-2.062,7.964-4.7,10.353-6.062-3.478.076-9.125.114-13.356.114h-7.369L296.458.7h35.368l-1.347,5.4-15.555,9.715c-3.333,2.059-7.962,4.7-10.353,6.062,3.48-.078,9.128-.117,13.356-.117H326.7L325.172,27.9Z" transform="translate(-74.71 -0.181)" fill="#898989"/>
        <path id="패스_59285" data-name="패스 59285" d="M342.692,27.627c2.671-9.171,10.887-13.6,22.857-16.631,5.062-1.283,5.872-1.708,6.143-2.8.3-1.2-.945-1.863-4.532-1.863a40.187,40.187,0,0,0-14.016,2.758l-4.315-5.557A57.523,57.523,0,0,1,368.932,0C380.08,0,385.231,2.721,384,7.657c-.891,3.573-3.485,5.749-12.669,8.16-9.6,2.524-12.476,4.04-13.844,5.671h23.386l-1.53,6.139Z" transform="translate(-88.776 0)" fill="#898989"/>
        <path id="패스_59286" data-name="패스 59286" d="M414.487,28.054c-7.624,0-13.7-1.592-17.865-4.156l7.63-4.9a25.066,25.066,0,0,0,12.043,2.838c5.19,0,7.592-.9,8.057-2.759.474-1.906-1.145-2.6-5.695-2.6h-6.472l1.462-5.866h5.767c3.91,0,5.316-.506,5.762-2.294.359-1.438-1.24-2.215-5.663-2.215a30.293,30.293,0,0,0-11.729,2.332l-4.675-4.9A45.8,45.8,0,0,1,421.355,0c10.764,0,17.426,2.061,15.993,7.81-.745,2.992-3.988,4.43-7.287,5.324,4.019.581,7.216,2.407,6.354,5.866-1.569,6.3-9.753,9.053-21.928,9.053" transform="translate(-102.746 0)" fill="#898989"/>
        <path id="패스_59287" data-name="패스 59287" d="M448.557,27.627c2.671-9.171,10.888-13.6,22.857-16.631,5.061-1.283,5.871-1.708,6.143-2.8.3-1.2-.945-1.863-4.533-1.863A40.166,40.166,0,0,0,459.01,9.094l-4.318-5.557A57.533,57.533,0,0,1,474.8,0c11.149,0,16.3,2.721,15.071,7.657-.891,3.573-3.485,5.749-12.672,8.16-9.6,2.524-12.475,4.04-13.844,5.671h23.387l-1.53,6.139Z" transform="translate(-116.2 0)" fill="#898989"/>
      </g>
    </g>
  </g>
</svg>
