<svg xmlns="http://www.w3.org/2000/svg" xmlns:xlink="http://www.w3.org/1999/xlink" width="496" height="52" viewBox="0 0 496 52">
  <defs>
    <clipPath id="clip-path">
      <rect id="사각형_13314" data-name="사각형 13314" width="496" height="52" transform="translate(320.442 855.18)" fill="none" stroke="#707070" stroke-width="1"/>
    </clipPath>
    <clipPath id="clip-path-2">
      <rect id="사각형_13360" data-name="사각형 13360" width="486.37" height="28.813" fill="none"/>
    </clipPath>
  </defs>
  <g id="bi_Winter_I_pike_SR10W" data-name="bi_Winter I*pike SR10W" transform="translate(-320.442 -855.18)" clip-path="url(#clip-path)">
    <g id="그룹_11407" data-name="그룹 11407" transform="translate(320.441 875.598)">
      <path id="패스_59414" data-name="패스 59414" d="M164.668,0l-2.494,7.973-6.3,20.507H168.15L174.4,7.973H162.175L176.031,0Z" transform="translate(-37.517 0)" fill="#006abc"/>
      <path id="패스_59415" data-name="패스 59415" d="M257.619,0l-2.491,7.973L248.836,28.48H261.1l6.256-20.507H255.127L268.986,0Z" transform="translate(-59.891 0)" fill="#006abc"/>
      <g id="그룹_11406" data-name="그룹 11406" transform="translate(0 0)">
        <g id="그룹_11405" data-name="그룹 11405" clip-path="url(#clip-path-2)">
          <path id="패스_59416" data-name="패스 59416" d="M307.263,28.479h-13.2L291.3,19.923l-3.933,2.345-1.9,6.211H273.236L279.5,7.99,294.189,0l-2.555,8.362c-.409,1.366-1.511,4.529-2.005,5.818,1.222-.977,4.881-3.319,6.753-4.452L299.3,7.973h13.984l-11.154,6.168Z" transform="translate(-65.764 0)" fill="#006abc"/>
          <path id="패스_59417" data-name="패스 59417" d="M196.929,12.154h-4.18l.983,3.62-3.395,1.664-.981-3.616-3.2,3.616-2.377-1.664,3.2-3.62H182.8l1.016-3.33H188l-.986-3.62,3.393-1.666.986,3.617,3.194-3.617,2.378,1.666-3.2,3.62h4.18Z" transform="translate(-43.997 -0.852)" fill="#006abc"/>
          <path id="패스_59418" data-name="패스 59418" d="M227.592,1.517H216.572L219.2,0H207.837l-2.494,7.973,2.89-1.661-6.76,22.168h11l2.443-7.616h8.327c7.853,0,13.425-2.892,15.667-10.237,2.343-7.614-4.557-9.11-11.314-9.11m.115,9.335c-1.168,3.828-5.305,4.9-7.844,4.9-1.872,0-3.588-.107-3.588-.107l2.907-9.437h4.066c2.581,0,5.686.541,4.458,4.641" transform="translate(-48.491 0)" fill="#006abc"/>
          <path id="패스_59419" data-name="패스 59419" d="M347.792,10.519h-11c-11.491,0-13.4,6.85-13.4,6.85l-1.643,5.318c-2.4,7.775,8.468,8.324,8.468,8.324h22.353l1.377-4.418h-17.5c-4.514,0-3.081-3.239-3.081-3.239l.294-.939h21.6l1.071-3.472c2.7-8.752-8.545-8.425-8.545-8.425m-3.227,7.617h-9.551a4.731,4.731,0,0,1,4.293-3.439h2.877c4.77,0,2.38,3.439,2.38,3.439" transform="translate(-77.358 -2.531)" fill="#006abc" fill-rule="evenodd"/>
          <path id="패스_59420" data-name="패스 59420" d="M45.264,21.973l3.7-12.115h-6.92l-3.7,12.115Z" transform="translate(-9.229 -2.373)" fill="#0086d2"/>
          <path id="패스_59421" data-name="패스 59421" d="M143.291,10.034a7.771,7.771,0,0,0-3.1-.51,10.28,10.28,0,0,0-4.668,1.13l.268-.876h-6.922l-3.7,12.115h6.92l2.018-6.6c.47-1.481,1.652-1.965,3.337-1.965a4.335,4.335,0,0,1,2.912,1.014Z" transform="translate(-30.125 -2.292)" fill="#0086d2"/>
          <path id="패스_59422" data-name="패스 59422" d="M93.847,17.2l-2.781,0c-1.155,0-1.636-.271-1.352-1.2l1.321-4.384h4.382l1.019-3.254H92.048l1.438-4.709L86.941,5.3l-.935,3.068H82.94l-1.017,3.254h3.092L83.409,16.88c-.845,2.746.5,3.853,4.151,3.853h4.3Z" transform="translate(-19.718 -0.88)" fill="#0086d2"/>
          <path id="패스_59423" data-name="패스 59423" d="M32.672,4.544H25.08l-5.332,9.708L19.8,4.544H12.969L7.059,14.252l.625-9.708H0l1.475,16.15h6.81l6.189-10.2-.052,10.2h6.9Z" transform="translate(0 -1.093)" fill="#0086d2"/>
          <path id="패스_59424" data-name="패스 59424" d="M113.976,9.943h-5.217c-6.611,0-7.708,4.028-7.708,4.028L100.1,17.1c-1.377,4.574,4.875,4.9,4.875,4.9l1.488-.008h10.262l.792-2.6H108c-2.6,0-2.142-1.9-2.142-1.9l.169-.552h12.246l.616-2.045c1.553-5.145-4.916-4.954-4.916-4.954m-.93,4.481h-6.24a3.07,3.07,0,0,1,2.843-2.023H111.3c2.745,0,1.742,2.023,1.742,2.023" transform="translate(-24.046 -2.393)" fill="#0086d2" fill-rule="evenodd"/>
          <path id="패스_59425" data-name="패스 59425" d="M67.5,9.858,65.167,17.5l-4.4-7.642H54.608L50.9,21.973h6.155L59.4,14.332l4.4,7.641h6.156l3.7-12.115Z" transform="translate(-12.252 -2.373)" fill="#0086d2" fill-rule="evenodd"/>
          <path id="패스_59426" data-name="패스 59426" d="M51.426,5.471c-.338,1.043-2.309,1.893-4.4,1.893s-3.51-.85-3.172-1.893,2.306-1.888,4.4-1.888,3.514.845,3.175,1.888" transform="translate(-10.543 -0.862)" fill="#0086d2"/>
          <path id="패스_59427" data-name="패스 59427" d="M416.776,22.181a8.474,8.474,0,0,1-1.817,3.21,10.252,10.252,0,0,1-3.394,2.394,21.114,21.114,0,0,1-5.214,1.514,43.515,43.515,0,0,1-7.265.531q-2.925,0-6.441-.282a40.191,40.191,0,0,1-6.573-1.048l1.484-4.854a48.713,48.713,0,0,0,6.217,1.014q2.994.282,5.344.282a21.95,21.95,0,0,0,5.594-.533,3.011,3.011,0,0,0,2.312-1.929,1.626,1.626,0,0,0,.039-.981,1.376,1.376,0,0,0-.741-.731,8.722,8.722,0,0,0-1.8-.615q-1.189-.3-3.122-.632l-3.671-.632a10.51,10.51,0,0,1-5.666-2.395q-1.838-1.762-.892-4.855a8.253,8.253,0,0,1,1.847-3.226,10.136,10.136,0,0,1,3.374-2.329,20.119,20.119,0,0,1,5.048-1.4,45.282,45.282,0,0,1,6.932-.465q1.617,0,3.274.05t3.16.166q1.5.116,2.765.266a21.3,21.3,0,0,1,2.138.349L418.319,9.61q-1.988-.333-4.573-.5t-4.832-.166q-2.194,0-3.649.15a11.976,11.976,0,0,0-2.383.449,3.672,3.672,0,0,0-1.4.749,2.431,2.431,0,0,0-.67,1.081,1.212,1.212,0,0,0,.067,1.064,2.16,2.16,0,0,0,.935.7,8.4,8.4,0,0,0,1.723.516q1.056.215,2.5.449l3.722.632a22.482,22.482,0,0,1,3.853.98,6.734,6.734,0,0,1,2.451,1.464,3.632,3.632,0,0,1,1.052,2.112,6.818,6.818,0,0,1-.335,2.893" transform="translate(-92.921 -1.016)" fill="#5f5e5e"/>
          <path id="패스_59428" data-name="패스 59428" d="M437.373,4.661h16.4a54.1,54.1,0,0,1,5.715.266,12.763,12.763,0,0,1,4.029,1,4,4,0,0,1,2.1,2.012,4.835,4.835,0,0,1-.071,3.308l-.762,2.494a7.3,7.3,0,0,1-2.428,3.674,11.39,11.39,0,0,1-4.594,2.046L462.13,29.6H451.947l-3.62-9.344h-6.162L439.31,29.6h-9.557Zm8.246,4.29-2.134,6.983h4.439q1.827,0,3.116-.116a8.469,8.469,0,0,0,2.143-.431,3.4,3.4,0,0,0,1.366-.882,3.887,3.887,0,0,0,.8-1.5l.416-1.364a1.56,1.56,0,0,0-.718-2.095,10.586,10.586,0,0,0-4.308-.6Z" transform="translate(-103.435 -1.122)" fill="#5f5e5e"/>
          <path id="패스_59429" data-name="패스 59429" d="M480.233,29.655l1.342-4.39h8.511l4.39-14.366-9.566,2.594,1.443-4.723,13.564-3.89h6.11L499.8,25.266h7.676l-1.342,4.39Z" transform="translate(-115.585 -1.174)" fill="#5f5e5e"/>
          <path id="패스_59430" data-name="패스 59430" d="M552.709,19.14a13.678,13.678,0,0,1-6.092,8.065q-4.449,2.678-12.176,2.677-7.625,0-10.384-2.677t-1.113-8.065l1.219-3.989a13.656,13.656,0,0,1,6.056-8.031q4.42-2.677,11.993-2.677,7.676,0,10.513,2.677t1.2,8.031Zm-8.176-3.657q.985-3.226.236-4.706T540.731,9.3a6.847,6.847,0,0,0-4.76,1.48,10.328,10.328,0,0,0-2.614,4.706l-1.036,3.392q-1,3.259-.241,4.722t3.835,1.463a7.246,7.246,0,0,0,4.938-1.463,10.179,10.179,0,0,0,2.644-4.722Z" transform="translate(-125.717 -1.069)" fill="#5f5e5e"/>
          <path id="패스_59431" data-name="패스 59431" d="M594.964,16.267a17.008,17.008,0,0,1,.145-2.611q.186-1.548.381-3.043-.834,1.53-1.64,3.059t-1.5,2.594L583.892,29.6H572.3L570.937,4.661H580.6l.007,13.135q-.01,1.4-.091,2.778t-.256,2.977q.915-1.629,1.686-2.961t1.689-2.794l8.242-13.135h10.653l.53,13.135a19.393,19.393,0,0,1-.066,2.611q-.12,1.246-.377,2.942.822-1.5,1.622-2.827t1.642-2.727l8.348-13.135h9.557L606.452,29.6H595.328Z" transform="translate(-137.416 -1.122)" fill="#5f5e5e"/>
        </g>
      </g>
    </g>
  </g>
</svg>
