<svg xmlns="http://www.w3.org/2000/svg" xmlns:xlink="http://www.w3.org/1999/xlink" width="496" height="52" viewBox="0 0 496 52">
  <defs>
    <clipPath id="clip-path">
      <rect id="사각형_13314" data-name="사각형 13314" width="496" height="52" transform="translate(320.442 855.18)" fill="none" stroke="#707070" stroke-width="1"/>
    </clipPath>
    <clipPath id="clip-path-2">
      <rect id="사각형_13361" data-name="사각형 13361" width="426.398" height="28.651" fill="none"/>
    </clipPath>
  </defs>
  <g id="bi_Winter_I_pike_SR20" data-name="bi_Winter I*pike SR20" transform="translate(-320.442 -855.18)" clip-path="url(#clip-path)">
    <g id="그룹_11410" data-name="그룹 11410" transform="translate(320.441 875.317)">
      <path id="패스_59432" data-name="패스 59432" d="M164.619,0l-2.48,7.928-6.262,20.391h12.2L174.3,7.928H162.139L175.918,0Z" transform="translate(-38.183)" fill="#006abc"/>
      <path id="패스_59433" data-name="패스 59433" d="M257.57,0l-2.477,7.928-6.256,20.391h12.193L267.25,7.928H255.093L268.874,0Z" transform="translate(-60.954)" fill="#006abc"/>
      <g id="그룹_11409" data-name="그룹 11409" transform="translate(0 0)">
        <g id="그룹_11408" data-name="그룹 11408" clip-path="url(#clip-path-2)">
          <path id="패스_59434" data-name="패스 59434" d="M307.072,28.319H293.945l-2.751-8.507-3.911,2.331L285.4,28.319H273.236l6.225-20.373L294.071,0,291.53,8.315c-.407,1.358-1.5,4.5-1.994,5.784,1.216-.971,4.853-3.3,6.715-4.426l2.9-1.746h13.9l-11.092,6.134Z" transform="translate(-66.931 0)" fill="#006abc"/>
          <path id="패스_59435" data-name="패스 59435" d="M196.85,12.106h-4.157l.978,3.6-3.376,1.654-.976-3.595-3.179,3.595-2.364-1.654,3.179-3.6H182.8l1.01-3.312h4.159l-.98-3.6,3.374-1.657.98,3.6,3.176-3.6L196.885,5.2l-3.179,3.6h4.157Z" transform="translate(-44.778 -0.867)" fill="#006abc"/>
          <path id="패스_59436" data-name="패스 59436" d="M227.445,1.509H216.488L219.1,0H207.8l-2.48,7.928,2.873-1.652-6.722,22.043h10.936l2.429-7.572h8.28c7.809,0,13.349-2.876,15.579-10.18,2.33-7.572-4.532-9.058-11.25-9.058m.115,9.282c-1.161,3.807-5.275,4.875-7.8,4.875-1.863,0-3.568-.106-3.568-.106l2.891-9.383h4.043c2.566,0,5.654.538,4.433,4.614" transform="translate(-49.352 0)" fill="#006abc"/>
          <path id="패스_59437" data-name="패스 59437" d="M347.644,10.52H336.706c-11.426,0-13.32,6.81-13.32,6.81l-1.634,5.289c-2.384,7.731,8.42,8.278,8.42,8.278H352.4l1.37-4.393h-17.4c-4.489,0-3.064-3.221-3.064-3.221l.292-.933h21.483l1.065-3.453c2.683-8.7-8.5-8.377-8.5-8.377m-3.209,7.574h-9.5a4.7,4.7,0,0,1,4.269-3.42h2.861c4.743,0,2.367,3.42,2.367,3.42" transform="translate(-78.731 -2.577)" fill="#006abc" fill-rule="evenodd"/>
          <path id="패스_59438" data-name="패스 59438" d="M45.225,21.905,48.909,9.859H42.027L38.344,21.905Z" transform="translate(-9.393 -2.415)" fill="#0086d2"/>
          <path id="패스_59439" data-name="패스 59439" d="M143.189,10.031a7.727,7.727,0,0,0-3.087-.507,10.222,10.222,0,0,0-4.642,1.124l.267-.871h-6.883l-3.682,12.047h6.881l2.006-6.563c.467-1.473,1.642-1.953,3.318-1.953a4.307,4.307,0,0,1,2.9,1.009Z" transform="translate(-30.659 -2.333)" fill="#0086d2"/>
          <path id="패스_59440" data-name="패스 59440" d="M93.779,17.125l-2.765,0c-1.148,0-1.626-.27-1.345-1.188l1.314-4.36h4.357l1.013-3.236H91.991l1.43-4.683L86.913,5.288l-.93,3.05H82.935l-1.012,3.236H85L83.4,16.8c-.84,2.732.5,3.831,4.128,3.831H91.8Z" transform="translate(-20.068 -0.896)" fill="#0086d2"/>
          <path id="패스_59441" data-name="패스 59441" d="M32.488,4.544h-7.55l-5.3,9.653.051-9.653H12.9L7.019,14.2l.621-9.653H0L1.467,20.6H8.238l6.154-10.145L14.341,20.6H21.2Z" transform="translate(0 -1.113)" fill="#0086d2"/>
          <path id="패스_59442" data-name="패스 59442" d="M113.9,9.944h-5.188c-6.574,0-7.664,4.006-7.664,4.006l-.942,3.11c-1.369,4.548,4.847,4.874,4.847,4.874l1.479-.007h10.2l.788-2.581h-9.464c-2.581,0-2.13-1.894-2.13-1.894L106,16.9h12.177l.612-2.033c1.544-5.116-4.888-4.926-4.888-4.926m-.925,4.455h-6.2a3.053,3.053,0,0,1,2.827-2.011h1.646c2.729,0,1.732,2.011,1.732,2.011" transform="translate(-24.472 -2.436)" fill="#0086d2" fill-rule="evenodd"/>
          <path id="패스_59443" data-name="패스 59443" d="M67.41,9.858l-2.323,7.6-4.38-7.6h-6.12L50.9,21.905h6.12l2.325-7.6,4.378,7.6h6.12L73.53,9.858Z" transform="translate(-12.469 -2.415)" fill="#0086d2" fill-rule="evenodd"/>
          <path id="패스_59444" data-name="패스 59444" d="M51.383,5.461c-.336,1.037-2.3,1.882-4.375,1.882s-3.49-.845-3.155-1.882,2.293-1.878,4.373-1.878,3.494.84,3.157,1.878" transform="translate(-10.73 -0.878)" fill="#0086d2"/>
          <path id="패스_59445" data-name="패스 59445" d="M416.6,22.079a8.429,8.429,0,0,1-1.807,3.192,10.183,10.183,0,0,1-3.375,2.381,21,21,0,0,1-5.185,1.5,43.182,43.182,0,0,1-7.224.529q-2.908,0-6.405-.282a40.025,40.025,0,0,1-6.535-1.041l1.475-4.828a48.439,48.439,0,0,0,6.182,1.009q2.978.281,5.314.281a21.91,21.91,0,0,0,5.562-.529,3,3,0,0,0,2.3-1.919,1.615,1.615,0,0,0,.039-.975,1.37,1.37,0,0,0-.737-.729,8.635,8.635,0,0,0-1.788-.611q-1.182-.3-3.1-.628l-3.651-.628a10.451,10.451,0,0,1-5.634-2.381q-1.828-1.752-.887-4.828a8.212,8.212,0,0,1,1.837-3.207,10.077,10.077,0,0,1,3.355-2.315,20.006,20.006,0,0,1,5.02-1.389,44.932,44.932,0,0,1,6.893-.463q1.608,0,3.256.049t3.143.165q1.5.117,2.75.264a21.4,21.4,0,0,1,2.126.347l-1.384,4.53q-1.976-.33-4.548-.5t-4.8-.166q-2.181,0-3.629.149a11.915,11.915,0,0,0-2.369.445,3.661,3.661,0,0,0-1.4.745,2.417,2.417,0,0,0-.666,1.075,1.2,1.2,0,0,0,.066,1.057,2.136,2.136,0,0,0,.929.695,8.3,8.3,0,0,0,1.713.513q1.05.214,2.486.445l3.7.628a22.42,22.42,0,0,1,3.831.976,6.7,6.7,0,0,1,2.437,1.456,3.61,3.61,0,0,1,1.046,2.1,6.777,6.777,0,0,1-.333,2.877" transform="translate(-94.571 -1.035)" fill="#5f5e5e"/>
          <path id="패스_59446" data-name="패스 59446" d="M437.331,4.662h16.305a54.019,54.019,0,0,1,5.683.264,12.684,12.684,0,0,1,4.006.993,3.98,3.98,0,0,1,2.089,2,4.808,4.808,0,0,1-.071,3.29l-.757,2.48a7.258,7.258,0,0,1-2.415,3.654,11.326,11.326,0,0,1-4.568,2.033l4.345,10.087H451.822l-3.6-9.292h-6.127l-2.839,9.292h-9.5Zm8.2,4.266-2.122,6.943h4.414q1.817,0,3.1-.115a8.422,8.422,0,0,0,2.131-.429,3.373,3.373,0,0,0,1.358-.878,3.86,3.86,0,0,0,.792-1.487l.414-1.355a1.552,1.552,0,0,0-.714-2.084,10.543,10.543,0,0,0-4.284-.594Z" transform="translate(-105.271 -1.142)" fill="#5f5e5e"/>
          <path id="패스_59447" data-name="패스 59447" d="M476.313,29.409l1.222-4,17.691-9.127q1.353-.7,2.207-1.191a9.52,9.52,0,0,0,1.378-.942,4.168,4.168,0,0,0,.824-.909,4.554,4.554,0,0,0,.5-1.124l.141-.464a1.856,1.856,0,0,0,.048-1.091,1.245,1.245,0,0,0-.79-.728,7.1,7.1,0,0,0-1.8-.4A27.6,27.6,0,0,0,494.71,9.3q-1.195,0-2.652.1t-2.968.281q-1.51.182-2.956.414c-.966.155-1.82.32-2.567.5l1.445-4.729q1.172-.265,2.68-.529t3.127-.463q1.618-.2,3.212-.314t2.942-.115a39.477,39.477,0,0,1,6.635.462,12.681,12.681,0,0,1,4.114,1.323,3.9,3.9,0,0,1,1.882,2.083,4.4,4.4,0,0,1-.051,2.711l-.333,1.092a6.7,6.7,0,0,1-.964,1.967,8.548,8.548,0,0,1-1.721,1.72,21.886,21.886,0,0,1-2.715,1.752q-1.631.911-3.965,2.1l-10.031,5.126h16.513l-1.414,4.63Z" transform="translate(-116.676 -1.089)" fill="#5f5e5e"/>
          <path id="패스_59448" data-name="패스 59448" d="M552.539,19.057a13.6,13.6,0,0,1-6.059,8.019q-4.424,2.663-12.107,2.662-7.583,0-10.325-2.662t-1.107-8.019l1.213-3.969A13.583,13.583,0,0,1,530.176,7.1q4.4-2.66,11.926-2.662,7.633,0,10.454,2.662t1.2,7.985Zm-8.131-3.637q.98-3.206.235-4.68t-4.015-1.472a6.808,6.808,0,0,0-4.733,1.472,10.274,10.274,0,0,0-2.6,4.68l-1.031,3.374q-.99,3.24-.24,4.695t3.814,1.455a7.2,7.2,0,0,0,4.91-1.455,10.119,10.119,0,0,0,2.629-4.695Z" transform="translate(-127.948 -1.088)" fill="#5f5e5e"/>
        </g>
      </g>
    </g>
  </g>
</svg>
