<svg xmlns="http://www.w3.org/2000/svg" width="32" height="32" viewBox="0 0 32 32">
  <g id="Performance_RR" transform="translate(-4 -4)">
    <rect id="사각형_12508" data-name="사각형 12508" width="32" height="32" transform="translate(4 4)" fill="none"/>
    <g id="Performance_RR-2" data-name="Performance_RR" transform="translate(1.874 1.838)">
      <path id="패스_55079" data-name="패스 55079" d="M26.991,22.245a.523.523,0,0,0,.36-.7,6.53,6.53,0,1,0,.429,1.735.523.523,0,0,0-.646-.452l-3.215.8a2.7,2.7,0,0,0-.14-.582Zm-.871-.862-2.923.724c-.014-.015-.024-.033-.039-.048h0c-.013-.013-.028-.021-.041-.033l.729-2.893a5.487,5.487,0,0,1,1.285.954,5.806,5.806,0,0,1,.988,1.3Zm-1.211,6.692L22.924,26.09a1.493,1.493,0,0,0,.423-.423l1.985,1.985c-.067.074-.13.151-.2.222s-.148.134-.223.2Zm-7.343-8.19,1.984,1.984a2.657,2.657,0,0,0-.233.19,2.718,2.718,0,0,0-.191.232l-1.983-1.984c.067-.074.129-.151.2-.222S17.492,19.952,17.566,19.885Zm4.852,5.275a1.669,1.669,0,1,1,0-2.361,1.669,1.669,0,0,1,0,2.361ZM21.6,21.3l.686-2.724a5.509,5.509,0,0,1,.58.148l-.685,2.717A2.707,2.707,0,0,0,21.6,21.3Zm-1.091.052-2.095-2.095a5.5,5.5,0,0,1,2.819-.781Zm-1.91,1.9-2.868.712a5.5,5.5,0,0,1,.78-2.8Zm-.046,1.089a2.688,2.688,0,0,0,.14.583l-2.721.675a5.505,5.505,0,0,1-.144-.581Zm2.314,2.323-.686,2.724a5.51,5.51,0,0,1-.58-.148l.685-2.718a2.7,2.7,0,0,0,.581.142Zm1.092-.051L24.057,28.7a5.507,5.507,0,0,1-2.819.781ZM16.38,26.57l2.9-.719c.014.015.025.033.039.048s.028.021.041.033l-.729,2.894A5.47,5.47,0,0,1,16.38,26.57Zm9.584.233-2.092-2.092,2.9-.718a5.467,5.467,0,0,1-.805,2.81Z" transform="translate(-3.112 -4.087)" fill="#040000"/>
      <path id="패스_55080" data-name="패스 55080" d="M28.88,21.953a.522.522,0,0,0,.445-.591,9.509,9.509,0,1,0-.136,3.431.523.523,0,0,0-1.02-.229,8.5,8.5,0,1,1,.121-3.056.52.52,0,0,0,.59.445Z" transform="translate(-1.795 -2.805)" fill="#040000"/>
      <path id="패스_55081" data-name="패스 55081" d="M32.257,30.871l-1.27-2.117a.523.523,0,0,0-.966.2,11.459,11.459,0,0,1-22.688,0A.523.523,0,1,0,6.3,29.1a12.507,12.507,0,0,0,24.49,1.358l.573.955a.523.523,0,1,0,.9-.538Z" transform="translate(-0.551 -7.436)" fill="#040000"/>
      <path id="패스_55082" data-name="패스 55082" d="M6.264,21.745a.539.539,0,0,0,.1-.01.524.524,0,0,0,.414-.439,11.357,11.357,0,0,1,3.241-6.481.523.523,0,1,0-.74-.74,12.392,12.392,0,0,0-3.268,5.715l-.573-.955a.523.523,0,1,0-.9.538l1.27,2.117A.524.524,0,0,0,6.264,21.745Z" transform="translate(0 -3.025)" fill="#040000"/>
      <path id="패스_55083" data-name="패스 55083" d="M38.843,21.3a.523.523,0,0,0,.517.449.46.46,0,0,0,.074-.005.522.522,0,0,0,.444-.591,12.4,12.4,0,0,0-3.537-7.075.523.523,0,1,0-.74.74A11.359,11.359,0,0,1,38.843,21.3Z" transform="translate(-9.374 -3.025)" fill="#040000"/>
      <path id="패스_55084" data-name="패스 55084" d="M15.1,7.125h1l.923,2h1.115l-1-2.14a1.044,1.044,0,0,0,.564-.41,1.465,1.465,0,0,0,.181-.793V5.368a1.661,1.661,0,0,0-.123-.691.969.969,0,0,0-.352-.417,1.44,1.44,0,0,0-.56-.205A4.668,4.668,0,0,0,16.1,4H14.05V9.128H15.1Zm0-2.339h.861a1.224,1.224,0,0,1,.67.137.523.523,0,0,1,.2.465V5.7a.968.968,0,0,1-.048.328.391.391,0,0,1-.164.2.792.792,0,0,1-.3.1,3.324,3.324,0,0,1-.468.027H15.1Z" transform="translate(-2.899 -0.022)" fill="#040000"/>
      <path id="패스_55085" data-name="패스 55085" d="M21.818,7.125h1l.923,2h1.114l-1-2.14a1.044,1.044,0,0,0,.564-.41,1.466,1.466,0,0,0,.181-.793V5.368a1.661,1.661,0,0,0-.123-.691.969.969,0,0,0-.352-.417,1.44,1.44,0,0,0-.56-.205A4.669,4.669,0,0,0,22.816,4H20.765V9.128h1.053Zm0-2.339h.861a1.224,1.224,0,0,1,.67.137.523.523,0,0,1,.2.465V5.7a.968.968,0,0,1-.048.328.391.391,0,0,1-.164.2.792.792,0,0,1-.3.1,3.325,3.325,0,0,1-.469.027h-.745Z" transform="translate(-4.931 -0.022)" fill="#040000"/>
      <path id="패스_55086" data-name="패스 55086" d="M29.545,9a.522.522,0,0,0,.569.114h0a.516.516,0,0,0,.153-.1s.011-.006.016-.011l2.092-2.092a.523.523,0,1,0-.74-.74l-1.2,1.2V4.449a.523.523,0,1,0-1.046,0V7.371l-1.2-1.2a.523.523,0,1,0-.74.74Z" transform="translate(-6.908)" fill="#040000"/>
    </g>
  </g>
</svg>
