<svg xmlns="http://www.w3.org/2000/svg" width="32" height="32" viewBox="0 0 32 32">
  <g id="Performance_Steering" transform="translate(-4 -4)">
    <rect id="사각형_12508" data-name="사각형 12508" width="32" height="32" transform="translate(4 4)" fill="none"/>
    <g id="Performance_Steering-2" data-name="Performance_Steering" transform="translate(2.555 2.555)">
      <path id="패스_55073" data-name="패스 55073" d="M24.5,24.276a.513.513,0,1,0,0-1.026H21.763a.513.513,0,0,0,0,1.026Z" transform="translate(-5.686 -6.318)" fill="#040000"/>
      <path id="패스_55074" data-name="패스 55074" d="M19.972,3.25a14.034,14.034,0,0,0-6.483,1.57q-.464.239-.9.505l.359-1.438a.513.513,0,1,0-1-.249l-.684,2.735a.513.513,0,0,0,.806.535,13.225,13.225,0,0,1,1.888-1.176,13.016,13.016,0,0,1,6.013-1.456A13.184,13.184,0,0,1,33.141,17.445a.513.513,0,1,0,1.026,0A14.211,14.211,0,0,0,19.972,3.25Z" transform="translate(-2.527)" fill="#040000"/>
      <path id="패스_55075" data-name="패스 55075" d="M25.938,34.282a.514.514,0,0,0-.592.017,13.215,13.215,0,0,1-1.887,1.176,13.021,13.021,0,0,1-6.014,1.456A13.184,13.184,0,0,1,4.276,23.763a.513.513,0,1,0-1.026,0A14.211,14.211,0,0,0,17.445,37.958a14.042,14.042,0,0,0,6.483-1.57q.464-.238.9-.505l-.359,1.438a.513.513,0,0,0,.373.622.5.5,0,0,0,.125.015.513.513,0,0,0,.5-.389l.684-2.736a.513.513,0,0,0-.214-.552Z" transform="translate(0 -6.318)" fill="#040000"/>
      <path id="패스_55076" data-name="패스 55076" d="M19.913,11a8.858,8.858,0,0,0-8.849,8.008.514.514,0,0,0,.46.561.474.474,0,0,0,.1-.01.5.5,0,0,0,.078.012.51.51,0,0,0,.162-.026l6.057-2.019a6.364,6.364,0,0,1,3.983-.006l6.055,2a.493.493,0,0,0,.09.011.5.5,0,0,0,.2.043l.051,0a.513.513,0,0,0,.46-.561A8.857,8.857,0,0,0,19.913,11ZM17.6,16.553l-5.4,1.8a7.867,7.867,0,0,1,15.425-.028l-5.393-1.779A7.405,7.405,0,0,0,17.6,16.553Z" transform="translate(-2.468 -2.448)" fill="#040000"/>
      <path id="패스_55077" data-name="패스 55077" d="M23.437,31.442a.513.513,0,0,0,.457.919,8.917,8.917,0,0,0,4.82-6.515.513.513,0,0,0-.423-.59.478.478,0,0,0-.086,0c-.016,0-.03-.009-.047-.009H25.384a4.243,4.243,0,0,0-4.034,2.914A10.766,10.766,0,0,0,20.8,31.55v.656a7.56,7.56,0,0,1-.855.056,7.982,7.982,0,0,1-.855-.051V31.55a10.751,10.751,0,0,0-.546-3.386,4.243,4.243,0,0,0-4.034-2.914H11.74l-.048.01a.485.485,0,0,0-.085,0,.513.513,0,0,0-.423.59A8.856,8.856,0,0,0,21.4,33.164a.507.507,0,0,0,.42-.514c0-.016.009-.03.009-.047V31.55a9.752,9.752,0,0,1,.494-3.065,3.219,3.219,0,0,1,3.06-2.209h2.181a7.882,7.882,0,0,1-4.129,5.166ZM12.322,26.276h2.191a3.219,3.219,0,0,1,3.06,2.21,9.741,9.741,0,0,1,.494,3.064v.48a7.816,7.816,0,0,1-5.745-5.754Z" transform="translate(-2.504 -6.95)" fill="#040000"/>
      <path id="패스_55078" data-name="패스 55078" d="M18.714,7.25a11.33,11.33,0,0,0-7.162,2.522.513.513,0,1,0,.642.8,10.316,10.316,0,0,1,6.52-2.3A10.453,10.453,0,1,1,9.672,13.52a.513.513,0,0,0-.889-.512A11.453,11.453,0,1,0,18.714,7.25Z" transform="translate(-1.269 -1.264)" fill="#040000"/>
    </g>
  </g>
</svg>
