<svg xmlns="http://www.w3.org/2000/svg" width="32" height="32" viewBox="0 0 32 32">
  <g id="Performance_Dry" transform="translate(-4 -4)">
    <rect id="사각형_12508" data-name="사각형 12508" width="32" height="32" transform="translate(4 4)" fill="none"/>
    <g id="그룹_8476" data-name="그룹 8476" transform="translate(-277.089 -232.487)">
      <path id="패스_46069" data-name="패스 46069" d="M307.089,253a.54.54,0,0,1-.2-.036,8.881,8.881,0,0,1-4.179-4.421,11.832,11.832,0,0,1-.364-5.114,9.85,9.85,0,0,1-5.251-.59,12.007,12.007,0,0,1-4.232-3.861.517.517,0,1,1,.865-.565,11.194,11.194,0,0,0,3.806,3.491,9.884,9.884,0,0,0,5.346.416.5.5,0,0,1,.441.152.516.516,0,0,1,.137.444c-.006.034-.547,3.374.211,5.234a7.785,7.785,0,0,0,3.61,3.853.517.517,0,0,1-.193,1" transform="translate(3.789)"/>
      <path id="패스_46070" data-name="패스 46070" d="M283.3,253a.517.517,0,0,1-.2-1,7.787,7.787,0,0,0,3.611-3.853c.757-1.86.216-5.2.211-5.234a.516.516,0,0,1,.136-.444.505.505,0,0,1,.44-.152,9.881,9.881,0,0,0,5.346-.416,11.141,11.141,0,0,0,3.807-3.491.516.516,0,1,1,.865.565,12.02,12.02,0,0,1-4.232,3.861,9.877,9.877,0,0,1-5.251.59,11.814,11.814,0,0,1-.365,5.114,8.858,8.858,0,0,1-4.179,4.421.531.531,0,0,1-.193.036"/>
      <path id="패스_46071" data-name="패스 46071" d="M300.2,255.068a.335.335,0,0,1-.052,0,.514.514,0,0,1-.462-.565,6.789,6.789,0,0,1,.421-1.86,8.875,8.875,0,0,1,4.179-4.421.517.517,0,0,1,.388.96,7.8,7.8,0,0,0-3.609,3.851,5.717,5.717,0,0,0-.35,1.573.517.517,0,0,1-.514.465" transform="translate(6.402 3.789)"/>
      <path id="패스_46072" data-name="패스 46072" d="M293.3,260.4a.521.521,0,0,1-.284-.084.514.514,0,0,1-.149-.714,11.994,11.994,0,0,1,4.232-3.861,10.751,10.751,0,0,1,5.92-.5.516.516,0,1,1-.135,1.023,9.91,9.91,0,0,0-5.346.417,11.179,11.179,0,0,0-3.806,3.491.519.519,0,0,1-.432.233" transform="translate(3.789 6.39)"/>
      <path id="패스_46073" data-name="패스 46073" d="M297.089,263a.521.521,0,0,1-.433-.232,11.158,11.158,0,0,0-3.807-3.493,9.881,9.881,0,0,0-5.346-.416.509.509,0,0,1-.44-.152.517.517,0,0,1-.136-.445c.005-.034.546-3.374-.211-5.234a7.793,7.793,0,0,0-3.611-3.853.518.518,0,0,1,.389-.961,8.869,8.869,0,0,1,4.179,4.421,11.825,11.825,0,0,1,.365,5.117,9.836,9.836,0,0,1,5.251.589,12.007,12.007,0,0,1,4.232,3.861.516.516,0,0,1-.432.8" transform="translate(0 3.789)"/>
      <path id="패스_46074" data-name="패스 46074" d="M295.195,258a7.416,7.416,0,0,1-6.879-10.175.517.517,0,0,1,.958.386,6.387,6.387,0,1,0,2.208-2.807.518.518,0,0,1-.6-.841A7.412,7.412,0,1,1,295.195,258" transform="translate(1.895 1.894)"/>
    </g>
  </g>
</svg>
