<svg xmlns="http://www.w3.org/2000/svg" xmlns:xlink="http://www.w3.org/1999/xlink" width="32" height="32" viewBox="0 0 32 32">
  <defs>
    <clipPath id="clip-path">
      <rect id="사각형_14155" data-name="사각형 14155" width="32" height="25.28" fill="none"/>
    </clipPath>
  </defs>
  <g id="icon" transform="translate(-4 -4)">
    <rect id="사각형_12508" data-name="사각형 12508" width="32" height="32" transform="translate(4 4)" fill="none"/>
    <g id="그룹_13163" data-name="그룹 13163" transform="translate(4 7.361)">
      <g id="그룹_13162" data-name="그룹 13162" clip-path="url(#clip-path)">
        <path id="패스_56473" data-name="패스 56473" d="M26.039,21.33a.568.568,0,0,1-.4-.969,8.208,8.208,0,0,0,2.642-5.815,8.231,8.231,0,0,0-2.7-5.867.567.567,0,0,1,.8-.808,9.335,9.335,0,0,1,3.034,6.675,9.315,9.315,0,0,1-2.974,6.618.568.568,0,0,1-.4.166" transform="translate(-6.189 -1.877)" fill="#070203"/>
        <path id="패스_56474" data-name="패스 56474" d="M15.671,25.279a.565.565,0,0,1-.4-.165l-6.6-6.542H.567A.568.568,0,0,1,0,18V7.336a.568.568,0,0,1,.567-.567h8.1l6.6-6.6a.567.567,0,0,1,.968.4V24.712a.565.565,0,0,1-.567.567M1.135,17.437h7.77a.564.564,0,0,1,.4.165l5.8,5.748V1.938l-5.8,5.8a.567.567,0,0,1-.4.166H1.135Z" transform="translate(0 0)" fill="#070203"/>
        <path id="패스_56475" data-name="패스 56475" d="M40,17.964a.567.567,0,0,0-.474-.256H37.238V1.348a.567.567,0,1,0-1.135,0v16.36H33.811a.567.567,0,0,0-.52.792l2.859,6.626a.566.566,0,0,0,1.041,0L40.05,18.5A.568.568,0,0,0,40,17.964M36.67,23.47l-2-4.627h1.989l.008,0,.008,0h1.989Z" transform="translate(-8.096 -0.19)" fill="#1a1311"/>
      </g>
    </g>
  </g>
</svg>
