<svg xmlns="http://www.w3.org/2000/svg" xmlns:xlink="http://www.w3.org/1999/xlink" width="32" height="32" viewBox="0 0 32 32">
  <defs>
    <clipPath id="clip-path">
      <rect id="사각형_13227" data-name="사각형 13227" width="26.939" height="30.844" fill="none"/>
    </clipPath>
  </defs>
  <g id="Performance_Comfort" transform="translate(-4 -4)">
    <rect id="사각형_12508" data-name="사각형 12508" width="32" height="32" transform="translate(4 4)" fill="none"/>
    <g id="그룹_10731" data-name="그룹 10731" transform="translate(6.155 4.578)">
      <g id="그룹_10730" data-name="그룹 10730" clip-path="url(#clip-path)">
        <path id="패스_54819" data-name="패스 54819" d="M6.176,6.711A3.355,3.355,0,1,1,9.529,3.355,3.358,3.358,0,0,1,6.176,6.711m0-5.539A2.184,2.184,0,1,0,8.357,3.355,2.186,2.186,0,0,0,6.176,1.171" transform="translate(1.585)" fill="#090406"/>
        <path id="패스_54820" data-name="패스 54820" d="M6.117,28.966a.583.583,0,0,1-.568-.444L.067,6.425A2.51,2.51,0,1,1,4.958,5.292L8,16.863h9.1a2.128,2.128,0,0,1,1.673.8,2.18,2.18,0,0,1,.409,1.858L17.4,28.495a.584.584,0,0,1-.575.472H9.273a.586.586,0,0,1,0-1.171h7.073l1.69-8.518a1.017,1.017,0,0,0-.183-.882.941.941,0,0,0-.753-.361H7.547a.585.585,0,0,1-.567-.436L3.821,5.572A1.35,1.35,0,0,0,2.227,4.544a1.342,1.342,0,0,0-1.021,1.61L6.684,28.24a.585.585,0,0,1-.426.709.541.541,0,0,1-.141.017" transform="translate(0 1.877)" fill="#090406"/>
        <path id="패스_54821" data-name="패스 54821" d="M8.11,14.856a.584.584,0,0,1-.539-.356l-2-4.685a.586.586,0,1,1,1.078-.459l2,4.685a.585.585,0,0,1-.309.768.6.6,0,0,1-.23.047" transform="translate(3.102 5.056)" fill="#090406"/>
        <path id="패스_54822" data-name="패스 54822" d="M17.689,22.706a.591.591,0,0,1-.5-.27l-4.488-7.05a.585.585,0,0,1,.987-.629l4.488,7.05a.585.585,0,0,1-.492.9" transform="translate(7.085 8.138)" fill="#090406"/>
        <path id="패스_54823" data-name="패스 54823" d="M20.175,21.856H14.526a.59.59,0,0,1-.5-.275L11.091,16.9a.585.585,0,0,1,.99-.622l2.769,4.41h5.325a.586.586,0,1,1,0,1.171" transform="translate(6.179 8.987)" fill="#090406"/>
        <path id="패스_54824" data-name="패스 54824" d="M16.027,17.1H14.3a.586.586,0,1,1,0-1.171h1.727a.851.851,0,1,0,.033-1.7l-4.9-.039a.584.584,0,0,1-.534-.355l-3.3-7.666H5.086A.586.586,0,1,1,5.086,5H7.717a.586.586,0,0,1,.537.356l3.3,7.668,4.512.036a2.022,2.022,0,1,1-.037,4.043" transform="translate(2.528 2.809)" fill="#090406"/>
      </g>
    </g>
  </g>
</svg>
