<svg xmlns="http://www.w3.org/2000/svg" xmlns:xlink="http://www.w3.org/1999/xlink" width="32" height="32" viewBox="0 0 32 32">
  <defs>
    <clipPath id="clip-path">
      <rect id="사각형_13226" data-name="사각형 13226" width="29.528" height="29.528" fill="none"/>
    </clipPath>
  </defs>
  <g id="Performance_Mileage" transform="translate(-4 -4)">
    <rect id="사각형_12508" data-name="사각형 12508" width="32" height="32" transform="translate(4 4)" fill="none"/>
    <g id="그룹_10729" data-name="그룹 10729" transform="translate(5.236 5.236)">
      <g id="그룹_10728" data-name="그룹 10728" clip-path="url(#clip-path)">
        <path id="패스_54809" data-name="패스 54809" d="M22.591,27.836a.5.5,0,0,1-.129-.016.535.535,0,0,1-.388-.647l.371-1.49a14.616,14.616,0,0,1-7.68,2.153A14.766,14.766,0,0,1,2.951,4.213a.534.534,0,1,1,.854.642,13.571,13.571,0,0,0-2.738,8.217,13.711,13.711,0,0,0,13.7,13.7,13.571,13.571,0,0,0,8.217-2.738.533.533,0,0,1,.838.556l-.712,2.845a.531.531,0,0,1-.517.4" transform="translate(0 1.692)" fill="#090406"/>
        <path id="패스_54810" data-name="패스 54810" d="M24.456,23.838a.533.533,0,0,1-.427-.854,13.578,13.578,0,0,0,2.739-8.22,13.713,13.713,0,0,0-13.7-13.7A13.574,13.574,0,0,0,4.854,3.807a.533.533,0,0,1-.838-.556L4.727.4A.533.533,0,0,1,5.762.663L5.39,2.153A14.631,14.631,0,0,1,13.072,0,14.781,14.781,0,0,1,27.836,14.764a14.645,14.645,0,0,1-2.953,8.861.538.538,0,0,1-.427.212" transform="translate(1.692)" fill="#090406"/>
        <path id="패스_54811" data-name="패스 54811" d="M10.957,12.913a1.957,1.957,0,1,1,1.957-1.957,1.957,1.957,0,0,1-1.957,1.957m0-2.846a.889.889,0,1,0,.889.889.89.89,0,0,0-.889-.889" transform="translate(3.807 3.807)" fill="#090406"/>
        <path id="패스_54812" data-name="패스 54812" d="M10.534,11.759A.534.534,0,0,1,10,11.226V5.534a.534.534,0,1,1,1.067,0v5.692a.534.534,0,0,1-.534.534" transform="translate(4.231 2.115)" fill="#090406"/>
        <path id="패스_54813" data-name="패스 54813" d="M10.534,5.2A.534.534,0,0,1,10,4.668V2.534a.534.534,0,0,1,1.067,0V4.668a.534.534,0,0,1-.534.534" transform="translate(4.231 0.846)" fill="#090406"/>
        <path id="패스_54814" data-name="패스 54814" d="M6.385,6.92a.535.535,0,0,1-.377-.157L4.5,5.254A.533.533,0,0,1,5.254,4.5l1.51,1.508a.534.534,0,0,1-.379.912" transform="translate(1.837 1.837)" fill="#090406"/>
        <path id="패스_54815" data-name="패스 54815" d="M19.168,11.067H17.034a.534.534,0,1,1,0-1.067h2.135a.534.534,0,0,1,0,1.067" transform="translate(6.98 4.231)" fill="#090406"/>
        <path id="패스_54816" data-name="패스 54816" d="M15.129,6.92a.534.534,0,0,1-.377-.912L16.262,4.5a.533.533,0,1,1,.754.754l-1.508,1.51a.536.536,0,0,1-.379.157" transform="translate(6.175 1.837)" fill="#090406"/>
        <path id="패스_54817" data-name="패스 54817" d="M14.649,16.913H8.957a1.957,1.957,0,1,1,0-3.913h5.692a1.957,1.957,0,0,1,0,3.913M8.957,14.067a.889.889,0,1,0,0,1.779h5.692a.889.889,0,0,0,0-1.779Z" transform="translate(2.961 5.5)" fill="#090406"/>
        <path id="패스_54818" data-name="패스 54818" d="M13.918,25.836a11.838,11.838,0,0,1-10.7-6.7.533.533,0,1,1,.958-.468A10.834,10.834,0,1,0,3.08,13.384H4.668a.534.534,0,0,1,0,1.067H2.534A.534.534,0,0,1,2,13.918,11.918,11.918,0,1,1,13.918,25.836" transform="translate(0.846 0.846)" fill="#090406"/>
      </g>
    </g>
  </g>
</svg>
