<svg xmlns="http://www.w3.org/2000/svg" xmlns:xlink="http://www.w3.org/1999/xlink" width="32" height="32" viewBox="0 0 32 32">
  <defs>
    <clipPath id="clip-path">
      <rect id="사각형_13268" data-name="사각형 13268" width="28.691" height="28.691" fill="none"/>
    </clipPath>
  </defs>
  <g id="Performance_Wear" transform="translate(-4 -4)">
    <rect id="사각형_12508" data-name="사각형 12508" width="32" height="32" transform="translate(4 4)" fill="none"/>
    <g id="그룹_10817" data-name="그룹 10817" transform="translate(5.655 5.655)">
      <g id="그룹_10816" data-name="그룹 10816" clip-path="url(#clip-path)">
        <path id="패스_54937" data-name="패스 54937" d="M11.219,14.268a3.049,3.049,0,1,1,3.049-3.049,3.052,3.052,0,0,1-3.049,3.049m0-5.061a2.012,2.012,0,1,0,2.012,2.012,2.015,2.015,0,0,0-2.012-2.012" transform="translate(3.127 3.127)" fill="#090406"/>
        <rect id="사각형_13258" data-name="사각형 13258" width="1.037" height="4.427" transform="translate(14.777 7.388)" fill="#070303"/>
        <rect id="사각형_13259" data-name="사각형 13259" width="1.037" height="4.427" transform="translate(12.88 7.388)" fill="#070303"/>
        <rect id="사각형_13260" data-name="사각형 13260" width="1.037" height="4.429" transform="translate(14.777 16.877)" fill="#070303"/>
        <rect id="사각형_13261" data-name="사각형 13261" width="1.037" height="4.429" transform="translate(12.88 16.877)" fill="#070303"/>
        <rect id="사각형_13262" data-name="사각형 13262" width="4.428" height="1.037" transform="matrix(0.858, -0.513, 0.513, 0.858, 16.738, 13.418)" fill="#070303"/>
        <rect id="사각형_13263" data-name="사각형 13263" width="4.429" height="1.037" transform="matrix(0.858, -0.513, 0.513, 0.858, 15.765, 11.789)" fill="#070303"/>
        <rect id="사각형_13264" data-name="사각형 13264" width="4.428" height="1.037" transform="translate(8.593 18.284) rotate(-30.872)" fill="#070303"/>
        <rect id="사각형_13265" data-name="사각형 13265" width="4.428" height="1.037" transform="matrix(0.858, -0.513, 0.513, 0.858, 7.62, 16.656)" fill="#070303"/>
        <rect id="사각형_13266" data-name="사각형 13266" width="1.038" height="4.427" transform="translate(7.628 12.013) rotate(-58.941)" fill="#070303"/>
        <rect id="사각형_13267" data-name="사각형 13267" width="1.038" height="4.427" transform="translate(8.608 10.387) rotate(-58.941)" fill="#070303"/>
        <path id="패스_54938" data-name="패스 54938" d="M12.444,19.922a7.379,7.379,0,1,1,6.9-4.51.52.52,0,0,1-.744.239l-3.764-2.269a.518.518,0,0,1,.534-.889L18.6,14.438a6.708,6.708,0,0,0,.288-1.994,6.371,6.371,0,1,0-1.8,4.51l-3.227-1.948a.518.518,0,1,1,.534-.888l3.764,2.268a.52.52,0,0,1,.136.772,7.475,7.475,0,0,1-5.845,2.764" transform="translate(1.901 1.901)" fill="#090406"/>
        <path id="패스_54939" data-name="패스 54939" d="M13.389,24.277a10.914,10.914,0,1,1,8.7-4.354.519.519,0,0,1-.83-.625,9.754,9.754,0,0,0,1.984-5.91,9.87,9.87,0,1,0-4.6,8.325.519.519,0,0,1,.554.877,10.846,10.846,0,0,1-5.809,1.687" transform="translate(0.957 0.957)" fill="#090406"/>
        <path id="패스_54940" data-name="패스 54940" d="M21.952,27.16a.508.508,0,0,1-.127-.015.518.518,0,0,1-.376-.629l.361-1.448a14.207,14.207,0,0,1-7.464,2.092A14.345,14.345,0,0,1,2.869,4.207a.519.519,0,1,1,.83.624,13.188,13.188,0,0,0-2.662,7.984A13.323,13.323,0,0,0,14.345,26.123a13.19,13.19,0,0,0,7.985-2.66.518.518,0,0,1,.814.541l-.691,2.764a.517.517,0,0,1-.5.393" transform="translate(0 1.531)" fill="#090406"/>
        <path id="패스_54941" data-name="패스 54941" d="M23.876,23.162a.519.519,0,0,1-.415-.83,13.184,13.184,0,0,0,2.662-7.986A13.323,13.323,0,0,0,12.814,1.037,13.188,13.188,0,0,0,4.831,3.7a.525.525,0,0,1-.6.018.517.517,0,0,1-.216-.559L4.708.393A.518.518,0,0,1,5.713.644L5.352,2.092A14.215,14.215,0,0,1,12.814,0,14.361,14.361,0,0,1,27.16,14.345a14.22,14.22,0,0,1-2.869,8.61.519.519,0,0,1-.415.206" transform="translate(1.531)" fill="#090406"/>
      </g>
    </g>
  </g>
</svg>
