<svg xmlns="http://www.w3.org/2000/svg" xmlns:xlink="http://www.w3.org/1999/xlink" width="32" height="32" viewBox="0 0 32 32">
  <defs>
    <clipPath id="clip-path">
      <rect id="사각형_13254" data-name="사각형 13254" width="29.173" height="29.173" fill="none"/>
    </clipPath>
  </defs>
  <g id="Performance_Wet" transform="translate(-4 -4)">
    <rect id="사각형_12508" data-name="사각형 12508" width="32" height="32" transform="translate(4 4)" fill="none"/>
    <g id="그룹_10809" data-name="그룹 10809" transform="translate(5.413 5.413)">
      <g id="그룹_10808" data-name="그룹 10808" clip-path="url(#clip-path)">
        <path id="패스_54876" data-name="패스 54876" d="M4.241,20.158A2.238,2.238,0,0,1,2,17.986a2.643,2.643,0,0,1,.516-1.5,10.064,10.064,0,0,0,1.239-2.134.527.527,0,1,1,.973.408A11.238,11.238,0,0,1,3.371,17.1a1.592,1.592,0,0,0-.316.887A1.185,1.185,0,0,0,4.241,19.1a.527.527,0,0,1,0,1.054" transform="translate(0.812 5.693)" fill="#090406"/>
        <path id="패스_54877" data-name="패스 54877" d="M3.746,20.158a.527.527,0,0,1,0-1.054,1.184,1.184,0,0,0,1.185-1.118,1.592,1.592,0,0,0-.316-.887A11.179,11.179,0,0,1,3.26,14.755a.527.527,0,1,1,.973-.408,9.946,9.946,0,0,0,1.239,2.134,2.652,2.652,0,0,1,.515,1.5,2.237,2.237,0,0,1-2.24,2.172" transform="translate(1.306 5.693)" fill="#090406"/>
        <path id="패스_54878" data-name="패스 54878" d="M13.95,20.158a2.238,2.238,0,0,1-2.241-2.172,2.655,2.655,0,0,1,.515-1.5,10.009,10.009,0,0,0,1.24-2.134.527.527,0,1,1,.973.408A11.238,11.238,0,0,1,13.08,17.1a1.592,1.592,0,0,0-.316.887A1.185,1.185,0,0,0,13.95,19.1a.527.527,0,0,1,0,1.054" transform="translate(4.753 5.693)" fill="#090406"/>
        <path id="패스_54879" data-name="패스 54879" d="M13.455,20.158a.527.527,0,0,1,0-1.054,1.184,1.184,0,0,0,1.185-1.118,1.592,1.592,0,0,0-.316-.887,11.216,11.216,0,0,1-1.355-2.344.527.527,0,1,1,.973-.408,10.069,10.069,0,0,0,1.237,2.134,2.643,2.643,0,0,1,.516,1.5,2.237,2.237,0,0,1-2.24,2.172" transform="translate(5.248 5.693)" fill="#090406"/>
        <path id="패스_54880" data-name="패스 54880" d="M18.8,22.521a2.237,2.237,0,0,1-2.241-2.172,2.643,2.643,0,0,1,.516-1.5,10.094,10.094,0,0,0,1.239-2.136.527.527,0,0,1,.973.408,11.318,11.318,0,0,1-1.355,2.345,1.583,1.583,0,0,0-.318.886A1.184,1.184,0,0,0,18.8,21.467a.527.527,0,0,1,0,1.054" transform="translate(6.724 6.652)" fill="#090406"/>
        <path id="패스_54881" data-name="패스 54881" d="M18.309,22.521a.527.527,0,0,1,0-1.054,1.183,1.183,0,0,0,1.185-1.118,1.6,1.6,0,0,0-.316-.887,11.154,11.154,0,0,1-1.355-2.344.527.527,0,0,1,.973-.408,9.965,9.965,0,0,0,1.239,2.136,2.641,2.641,0,0,1,.515,1.5,2.236,2.236,0,0,1-2.24,2.172" transform="translate(7.218 6.652)" fill="#090406"/>
        <path id="패스_54882" data-name="패스 54882" d="M9.1,22.521a2.237,2.237,0,0,1-2.241-2.172,2.643,2.643,0,0,1,.516-1.5A9.995,9.995,0,0,0,8.607,16.71a.528.528,0,0,1,.974.408,11.24,11.24,0,0,1-1.357,2.345,1.592,1.592,0,0,0-.316.886A1.184,1.184,0,0,0,9.1,21.467a.527.527,0,0,1,0,1.054" transform="translate(2.782 6.652)" fill="#090406"/>
        <path id="패스_54883" data-name="패스 54883" d="M8.6,22.521a.527.527,0,1,1,0-1.054,1.183,1.183,0,0,0,1.185-1.118,1.592,1.592,0,0,0-.316-.886,11.266,11.266,0,0,1-1.357-2.345.528.528,0,0,1,.974-.408,10.08,10.08,0,0,0,1.237,2.136,2.639,2.639,0,0,1,.516,1.5A2.236,2.236,0,0,1,8.6,22.521" transform="translate(3.277 6.652)" fill="#090406"/>
        <path id="패스_54884" data-name="패스 54884" d="M21.884,16.6H11.691a3.691,3.691,0,0,1-.146-7.378,4.743,4.743,0,0,1,9.3-.7l1.043,0a4.042,4.042,0,1,1,0,8.084M11.691,10.272a2.636,2.636,0,1,0,0,5.272H21.884a2.988,2.988,0,1,0,0-5.975l-1.468.007a.527.527,0,0,1-.52-.441,3.688,3.688,0,0,0-7.326.61.527.527,0,0,1-.527.527Z" transform="translate(3.248 2.03)" fill="#090406"/>
        <path id="패스_54885" data-name="패스 54885" d="M8.26,15.6H5.8a5.8,5.8,0,1,1,5.127-8.506.527.527,0,0,1-.932.493,4.744,4.744,0,1,0-4.2,6.958H8.26a.527.527,0,1,1,0,1.054" transform="translate(0 1.624)" fill="#0c0c0d"/>
        <path id="패스_54886" data-name="패스 54886" d="M24.3,11.6a.527.527,0,0,1-.527-.527,5.78,5.78,0,0,0-5.448-5.8l-.212.013a.547.547,0,0,1-.5-.318A6.494,6.494,0,0,0,6.454,3.657a.528.528,0,0,1-.844-.634,7.549,7.549,0,0,1,12.817,1.2,6.783,6.783,0,0,1,6.4,6.853.527.527,0,0,1-.527.527" transform="translate(2.235)" fill="#0c0c0d"/>
      </g>
    </g>
  </g>
</svg>
