<svg xmlns="http://www.w3.org/2000/svg" xmlns:xlink="http://www.w3.org/1999/xlink" width="32" height="32" viewBox="0 0 32 32">
  <defs>
    <clipPath id="clip-path">
      <rect id="사각형_13256" data-name="사각형 13256" width="26.601" height="28.44" fill="none"/>
    </clipPath>
  </defs>
  <g id="Performance_Snow" transform="translate(-4 -4)">
    <rect id="사각형_12508" data-name="사각형 12508" width="32" height="32" transform="translate(4 4)" fill="none"/>
    <g id="그룹_10813" data-name="그룹 10813" transform="translate(6.7 5.78)">
      <g id="그룹_10812" data-name="그룹 10812" transform="translate(0 0)" clip-path="url(#clip-path)">
        <path id="패스_54892" data-name="패스 54892" d="M10.644,4.532a.515.515,0,0,1-.363-.151L7.318,1.418A.515.515,0,0,1,8.045.691l2.963,2.963a.515.515,0,0,1-.365.879" transform="translate(2.656 0.201)" fill="#090406"/>
        <path id="패스_54893" data-name="패스 54893" d="M10.644,7.775a.515.515,0,0,1-.363-.151L7.318,4.661a.515.515,0,1,1,.728-.728L11.009,6.9a.515.515,0,0,1-.365.879" transform="translate(2.656 1.403)" fill="#090406"/>
        <path id="패스_54894" data-name="패스 54894" d="M10.11,11.077a.514.514,0,0,1-.256-.069L.869,5.825a.514.514,0,0,1,.514-.89l8.983,5.184a.513.513,0,0,1-.256.958" transform="translate(0.227 1.804)" fill="#090406"/>
        <path id="패스_54895" data-name="패스 54895" d="M3.761,8.34a.515.515,0,0,1-.5-.381L2.179,3.911a.514.514,0,0,1,.992-.267L4.257,7.691a.514.514,0,0,1-.5.648" transform="translate(0.801 1.21)" fill="#090406"/>
        <path id="패스_54896" data-name="패스 54896" d="M6.571,9.962a.513.513,0,0,1-.5-.381L4.989,5.533a.514.514,0,1,1,.992-.267L7.067,9.313a.514.514,0,0,1-.363.63.5.5,0,0,1-.133.018" transform="translate(1.842 1.811)" fill="#090406"/>
        <path id="패스_54897" data-name="패스 54897" d="M.514,8.33A.514.514,0,0,1,.381,7.32L4.428,6.235a.514.514,0,0,1,.267.992L.648,8.313a.518.518,0,0,1-.134.018" transform="translate(0 2.305)" fill="#090406"/>
        <path id="패스_54898" data-name="패스 54898" d="M3.323,9.952a.514.514,0,0,1-.133-1.01L7.237,7.857a.514.514,0,1,1,.267.992L3.457,9.935a.51.51,0,0,1-.134.018" transform="translate(1.041 2.906)" fill="#090406"/>
        <path id="패스_54899" data-name="패스 54899" d="M9.843,4.532a.515.515,0,0,1-.363-.879L12.443.691a.515.515,0,0,1,.728.728L10.207,4.382a.516.516,0,0,1-.365.151" transform="translate(3.458 0.201)" fill="#090406"/>
        <path id="패스_54900" data-name="패스 54900" d="M9.843,7.775A.515.515,0,0,1,9.48,6.9l2.963-2.963a.515.515,0,1,1,.728.728L10.207,7.625a.516.516,0,0,1-.365.151" transform="translate(3.458 1.403)" fill="#090406"/>
        <path id="패스_54901" data-name="패스 54901" d="M12.006,11.077a.513.513,0,0,1-.258-.958l8.983-5.184a.514.514,0,1,1,.514.89l-8.983,5.184a.514.514,0,0,1-.256.069" transform="translate(4.259 1.804)" fill="#090406"/>
        <path id="패스_54902" data-name="패스 54902" d="M16.219,8.339a.5.5,0,0,1-.133-.018.514.514,0,0,1-.363-.63l1.086-4.047a.514.514,0,0,1,.992.267L16.715,7.958a.513.513,0,0,1-.5.381" transform="translate(5.82 1.21)" fill="#090406"/>
        <path id="패스_54903" data-name="패스 54903" d="M13.411,9.962a.514.514,0,0,1-.5-.648L14,5.266a.514.514,0,1,1,.992.267L13.907,9.581a.514.514,0,0,1-.5.381" transform="translate(4.78 1.811)" fill="#090406"/>
        <path id="패스_54904" data-name="패스 54904" d="M20.268,8.33a.51.51,0,0,1-.134-.018L16.086,7.227a.514.514,0,1,1,.267-.992L20.4,7.32a.514.514,0,0,1-.133,1.01" transform="translate(5.82 2.305)" fill="#090406"/>
        <path id="패스_54905" data-name="패스 54905" d="M17.458,9.952a.518.518,0,0,1-.134-.018L13.277,8.849a.514.514,0,0,1,.267-.992l4.047,1.086a.514.514,0,0,1-.133,1.01" transform="translate(4.78 2.906)" fill="#090406"/>
        <path id="패스_54906" data-name="패스 54906" d="M12.806,21.289a.515.515,0,0,1-.363-.151L9.48,18.175a.515.515,0,1,1,.728-.728l2.963,2.963a.515.515,0,0,1-.365.879" transform="translate(3.458 6.411)" fill="#090406"/>
        <path id="패스_54907" data-name="패스 54907" d="M12.806,18.045a.515.515,0,0,1-.363-.151L9.48,14.931a.515.515,0,0,1,.728-.728l2.963,2.963a.515.515,0,0,1-.365.879" transform="translate(3.458 5.209)" fill="#090406"/>
        <path id="패스_54908" data-name="패스 54908" d="M20.989,17.563a.516.516,0,0,1-.256-.07L11.748,12.31a.514.514,0,1,1,.514-.89L21.245,16.6a.514.514,0,0,1-.256.959" transform="translate(4.259 4.207)" fill="#090406"/>
        <path id="패스_54909" data-name="패스 54909" d="M17.3,18.859a.515.515,0,0,1-.5-.381L15.723,14.43a.514.514,0,0,1,.992-.267L17.8,18.21a.514.514,0,0,1-.5.648" transform="translate(5.82 5.108)" fill="#090406"/>
        <path id="패스_54910" data-name="패스 54910" d="M14.5,17.238a.516.516,0,0,1-.5-.38l-1.084-4.049a.514.514,0,0,1,.992-.267l1.084,4.049a.511.511,0,0,1-.363.629.5.5,0,0,1-.132.018" transform="translate(4.78 4.508)" fill="#090406"/>
        <path id="패스_54911" data-name="패스 54911" d="M16.219,15.1a.514.514,0,0,1-.133-1.01l4.047-1.087A.514.514,0,0,1,20.4,14l-4.047,1.087a.518.518,0,0,1-.134.018" transform="translate(5.82 4.815)" fill="#090406"/>
        <path id="패스_54912" data-name="패스 54912" d="M13.41,13.484a.514.514,0,0,1-.133-1.01l4.047-1.086a.514.514,0,1,1,.267.992l-4.047,1.086a.51.51,0,0,1-.134.018" transform="translate(4.78 4.214)" fill="#090406"/>
        <path id="패스_54913" data-name="패스 54913" d="M9.843,25.635a.514.514,0,0,1-.514-.514V14.75a.513.513,0,0,1,.285-.459l2.678-1.34V9.882L9.614,8.541a.514.514,0,0,1,.459-.92L13.036,9.1a.515.515,0,0,1,.284.459v3.706a.512.512,0,0,1-.284.459l-2.68,1.34V25.121a.514.514,0,0,1-.514.514" transform="translate(3.457 2.805)" fill="#090406"/>
        <path id="패스_54914" data-name="패스 54914" d="M7.681,21.289a.515.515,0,0,1-.363-.879l2.963-2.963a.515.515,0,1,1,.728.728L8.045,21.139a.518.518,0,0,1-.365.151" transform="translate(2.656 6.411)" fill="#090406"/>
        <path id="패스_54915" data-name="패스 54915" d="M7.681,18.045a.515.515,0,0,1-.363-.879L10.281,14.2a.515.515,0,0,1,.728.728L8.045,17.895a.518.518,0,0,1-.365.151" transform="translate(2.656 5.209)" fill="#090406"/>
        <path id="패스_54916" data-name="패스 54916" d="M1.126,17.563A.514.514,0,0,1,.869,16.6l8.983-5.182a.514.514,0,1,1,.514.89L1.382,17.493a.508.508,0,0,1-.256.07" transform="translate(0.227 4.207)" fill="#090406"/>
        <path id="패스_54917" data-name="패스 54917" d="M2.675,18.858a.5.5,0,0,1-.133-.018.514.514,0,0,1-.363-.63l1.086-4.047a.514.514,0,0,1,.992.267L3.171,18.477a.513.513,0,0,1-.5.381" transform="translate(0.801 5.109)" fill="#090406"/>
        <path id="패스_54918" data-name="패스 54918" d="M5.485,17.237a.514.514,0,0,1-.5-.647l1.086-4.049a.514.514,0,0,1,.992.267L5.981,16.858a.515.515,0,0,1-.5.38" transform="translate(1.842 4.508)" fill="#090406"/>
        <path id="패스_54919" data-name="패스 54919" d="M4.563,15.1a.51.51,0,0,1-.134-.018L.381,14a.514.514,0,1,1,.267-.992L4.7,14.095a.514.514,0,0,1-.133,1.01" transform="translate(0 4.815)" fill="#090406"/>
        <path id="패스_54920" data-name="패스 54920" d="M7.371,13.483a.518.518,0,0,1-.134-.018L3.19,12.38a.514.514,0,0,1,.267-.992L7.5,12.473a.514.514,0,0,1-.133,1.01" transform="translate(1.041 4.214)" fill="#090406"/>
        <path id="패스_54921" data-name="패스 54921" d="M9.843,11.4a.514.514,0,0,1-.514-.514V.514a.514.514,0,0,1,1.028,0V10.885a.514.514,0,0,1-.514.514" transform="translate(3.457 0.001)" fill="#090406"/>
        <path id="패스_54922" data-name="패스 54922" d="M10.644,14.862a.523.523,0,0,1-.229-.053L7.451,13.327a.514.514,0,0,1-.284-.461v-3.7a.514.514,0,0,1,1.028,0V12.55l2.68,1.339a.514.514,0,0,1-.23.973" transform="translate(2.656 3.206)" fill="#090406"/>
      </g>
    </g>
  </g>
</svg>
