<svg xmlns="http://www.w3.org/2000/svg" xmlns:xlink="http://www.w3.org/1999/xlink" width="372" height="28" viewBox="0 0 372 28">
  <defs>
    <clipPath id="clip-path">
      <rect id="사각형_12435" data-name="사각형 12435" width="372" height="28" transform="translate(0 4569)" fill="#fff" opacity="0"/>
    </clipPath>
  </defs>
  <g id="logo_ventus_s1_evo3" transform="translate(0 -4569)" clip-path="url(#clip-path)">
    <g id="Ventus_S1_evo3_SUV" data-name="Ventus S1 evo3 SUV" transform="translate(0 4572)">
      <path id="패스_45759" data-name="패스 45759" d="M63.89,21.977,55.367,33.285l-4.3-11.308H42.8l4.49,11.8h0a6.711,6.711,0,0,0,6.726,4.458H59.9L72.151,21.977Z" transform="translate(-42.803 -16.325)" fill="#fff"/>
      <path id="패스_45760" data-name="패스 45760" d="M86.656,21.977H78.412c-8.871,0-10.056,5.405-10.056,5.405l-1.046,4.2c-1.522,6.134,6.889,6.575,6.889,6.575l1.995-.011H91.831l.879-3.483H78.074c-3.483,0-3.013-2.558-3.013-2.558l.186-.74h18.3l.681-2.74C95.944,21.722,86.656,21.977,86.656,21.977Zm-.928,6.014H76.111c.672-2.691,3.67-2.716,3.67-2.716h3.466C86.928,25.275,85.728,27.991,85.728,27.991Z" transform="translate(-40.158 -16.325)" fill="#fff"/>
      <path id="패스_45761" data-name="패스 45761" d="M172.353,25.225h12.171l.82-3.248H170.72c-7.725,0-8.757,4.707-8.757,4.707l-.225.9h.006c-.218,2.305,1.516,3.555,4.038,3.555h9.6c1.026,0,1.515.614,1.113,1.387-.542,1.042-2.252,1.393-3.477,1.393h-12.45l-1.069,4.223h15.851c7.72,0,8.754-4.707,8.754-4.707l.221-.894a3.853,3.853,0,0,0-3.84-4.68h-9.791c-.788,0-1.592-.421-1-1.382a3.711,3.711,0,0,1,2.667-1.26" transform="translate(-30.112 -16.325)" fill="#fff"/>
      <path id="패스_45762" data-name="패스 45762" d="M156.628,22.339l-2.6,10.391,0,0-.572,2.293h-4.883c-2.114,0-3.509-1.138-3.106-2.52l2.575-10.166H130.6l.944-3.689h-8.757l-3.7,14.667c-.83,2.852,2.2,5.191,6.73,5.191h5.355l.879-3.483h-.969c-2.113,0-3.509-1.134-3.106-2.518l1.78-6.858h8.758l-1.938,7.667c-.829,2.852,2.2,5.191,6.732,5.191h17.524l4.079-16.169Z" transform="translate(-34.522 -16.686)" fill="#fff"/>
      <path id="패스_45763" data-name="패스 45763" d="M110.875,32.232,104.42,21.977H96.162l-4.1,16.257h8.258l2.59-10.255,6.455,10.255h8.258l4.1-16.257h-8.257Z" transform="translate(-37.446 -16.325)" fill="#fff"/>
      <path id="패스_45764" data-name="패스 45764" d="M230.255,17.043c-1.526,2.009-3.352,2.063-8.031,2.215l-.825,3.529h6.061l-3.962,15.9h9.8l5.3-21.64Z" transform="translate(-23.379 -16.861)" fill="#fff"/>
      <path id="패스_45765" data-name="패스 45765" d="M220.7,22.805l.911-3.914c-1.788-1.34-5.387-2.012-10.83-2.012-9.326,0-14.654,1.74-16.017,5.28a2.436,2.436,0,0,0-.137,1.145,2.765,2.765,0,0,0,1.251,1.975,20.352,20.352,0,0,0,5.733,2.63q3.5,1.118,6.965,2.247c1.768.615,1.908,1.328,2.025,2.139a1.73,1.73,0,0,1-.088.717c-.529,1.692-1.967,2.547-5.914,2.547-3.049,0-4.653-.687-4.818-2.05a3.424,3.424,0,0,1,.2-1.446h-6.9L191.42,36.4c1.812,1.643,5.8,2.479,12,2.479,4.8,0,9.138-.234,12.325-1.343,3.163-1.1,4.711-3,5.317-5.014a3.367,3.367,0,0,0,.156-1.639q-.293-1.553-2.974-2.878a79.044,79.044,0,0,0-9.9-3.37,24.731,24.731,0,0,1-2.873-1.018c-.873-.359-1.336-.785-1.407-1.277a.905.905,0,0,1,.114-.6q.692-1.924,5.614-1.921,4.088,0,4.388,1.741a5.753,5.753,0,0,1,.089,1.248Z" transform="translate(-26.64 -16.879)" fill="#fff"/>
      <path id="패스_45766" data-name="패스 45766" d="M278.342,24.83l-6.817,9.047L268.08,24.83h-6.608l3.594,9.438h0a5.365,5.365,0,0,0,5.381,3.567h4.7l9.8-13Z" transform="translate(-19.021 -16.014)" fill="#fff"/>
      <path id="패스_45767" data-name="패스 45767" d="M256.19,29.64H248.5a3.1,3.1,0,0,1,2.935-2.173h2.774c2.946,0,1.984,2.173,1.984,2.173m.744-4.81h-6.6c-7.1,0-8.044,4.323-8.044,4.323l-.835,3.36c-1.22,4.908,5.509,5.261,5.509,5.261l1.6-.009h12.509l.706-2.785H250.067c-2.786,0-2.41-2.046-2.41-2.046l.15-.591H262.45l.544-2.193c1.373-5.524-6.06-5.32-6.06-5.32" transform="translate(-21.214 -16.014)" fill="#fff"/>
      <path id="패스_45768" data-name="패스 45768" d="M296.316,29.64l-.855,3.325a3.128,3.128,0,0,1-2.953,2.171H289s-2.385-.021-1.835-2.171l.857-3.325a3.128,3.128,0,0,1,2.953-2.173h3.507s2.383.022,1.833,2.173m.6-4.81H289.9c-7.1,0-8.08,4.323-8.08,4.323l-1.108,4.3s-1.243,4.324,5.852,4.324h7.014c7.1,0,8.081-4.324,8.081-4.324l1.107-4.3s1.244-4.323-5.852-4.323" transform="translate(-16.937 -16.014)" fill="#fff"/>
      <path id="패스_45772" data-name="패스 45772" d="M321.162,26.155a3.311,3.311,0,0,1-1.128,1.734,7.345,7.345,0,0,1-2.254,1.238,15.934,15.934,0,0,1-3.2.75,29.1,29.1,0,0,1-3.962.252,18.791,18.791,0,0,1-4.741-.558,10.743,10.743,0,0,1-3.778-1.777l3.866-1.5a8.371,8.371,0,0,0,2.576,1.124,13.312,13.312,0,0,0,3.109.322,11.2,11.2,0,0,0,3.458-.409q1.187-.409,1.373-1.141a.846.846,0,0,0-.6-1.054,6.478,6.478,0,0,0-2.43-.34h-2.73l.6-2.388h2.466a5.56,5.56,0,0,0,2.151-.314,1.383,1.383,0,0,0,.858-.924.569.569,0,0,0-.082-.453,1.167,1.167,0,0,0-.54-.4,4.569,4.569,0,0,0-1.113-.278,12.761,12.761,0,0,0-1.8-.1A10.971,10.971,0,0,0,308.5,20.96l-2.945-1.621a17.766,17.766,0,0,1,3.844-1.35,20.748,20.748,0,0,1,4.535-.445,22.469,22.469,0,0,1,3.25.217,10.86,10.86,0,0,1,2.517.645,3.552,3.552,0,0,1,1.536,1.081A1.691,1.691,0,0,1,321.512,21a2.621,2.621,0,0,1-1.227,1.6,7.309,7.309,0,0,1-2.066.889,7.288,7.288,0,0,1,1.1.314,4.473,4.473,0,0,1,1.033.531,2.287,2.287,0,0,1,.708.776,1.4,1.4,0,0,1,.1,1.046" transform="translate(-14.602 -16.807)" fill="#fff"/>
    </g>
  </g>
</svg>
