<svg xmlns="http://www.w3.org/2000/svg" xmlns:xlink="http://www.w3.org/1999/xlink" width="372" height="28" viewBox="0 0 372 28">
  <defs>
    <clipPath id="clip-path">
      <rect id="사각형_12435" data-name="사각형 12435" width="372" height="28" transform="translate(0 4569)" fill="#fff" opacity="0"/>
    </clipPath>
    <clipPath id="clip-path-2">
      <path id="패스_56117" data-name="패스 56117" d="M0,3.551H363.357V-19.843H0Z" transform="translate(0 19.843)" fill="#fff"/>
    </clipPath>
  </defs>
  <g id="logo_ventus_s1_evo3" transform="translate(0 -4569)" clip-path="url(#clip-path)">
    <g id="그룹_12995" data-name="그룹 12995" transform="translate(0 4591.146)">
      <g id="그룹_12357" data-name="그룹 12357" transform="translate(0 -19.843)" clip-path="url(#clip-path-2)">
        <g id="그룹_12352" data-name="그룹 12352" transform="translate(64.877 0.123)">
          <path id="패스_56112" data-name="패스 56112" d="M0,3.408C2.582-4.044,9.289-7.645,18.881-10.106c4.056-1.042,4.717-1.39,4.988-2.273.3-.98-.647-1.517-3.477-1.517A32,32,0,0,0,9.2-11.654L6.087-16.169a45.634,45.634,0,0,1,16.03-2.874c8.788,0,12.709,2.211,11.482,6.221-.887,2.9-3.044,4.672-10.41,6.631-7.7,2.051-10.045,3.285-11.208,4.61H30.416L28.891,3.408Z" transform="translate(0 19.043)" fill="#fff"/>
        </g>
        <g id="그룹_12353" data-name="그룹 12353" transform="translate(97.694 0.7)">
          <path id="패스_56113" data-name="패스 56113" d="M1.939,3.4C-7.1,3.4-12.556-.54-10.344-7.776S-.15-19.016,8.893-19.016s14.5,3.944,12.285,11.178S10.983,3.4,1.939,3.4M7.208-13.831c-3.727,0-6.43,2.018-7.644,5.993S-.1-1.783,3.624-1.783s6.43-2.017,7.647-5.993-.336-6.055-4.063-6.055" transform="translate(10.836 19.016)" fill="#fff"/>
        </g>
        <g id="그룹_12354" data-name="그룹 12354" transform="translate(136.847 7.97)">
          <path id="패스_56114" data-name="패스 56114" d="M.575,0l.29,7.05c.015.37.015.753,0,1.147s-.04.825-.073,1.291H.865q.168-.6.35-1.243a7.356,7.356,0,0,1,.447-1.2L4.8,0H8.785L9.22,7.05q.025.555.012,1.111c-.008.37-.028.813-.06,1.328H9.22q.218-.771.41-1.328a10.779,10.779,0,0,1,.459-1.111L13.252,0h3.5L10.62,13.353H6.491L6.033,6.471a7.674,7.674,0,0,1,.012-1.292q.06-.688.157-1.606H6.153q-.265.99-.483,1.642c-.145.434-.305.854-.482,1.256L2.121,13.353H-2.153L-3.215,0Z" transform="translate(3.215)" fill="#fff"/>
        </g>
        <g id="그룹_12355" data-name="그룹 12355" transform="translate(136.688 7.824)">
          <path id="패스_56115" data-name="패스 56115" d="M.6.022.453.028l.289,7.05c.008.184.012.37.012.559s0,.381-.012.577Q.719,8.8.67,9.5L.66,9.658H1l.029-.107q.168-.6.35-1.243a7.284,7.284,0,0,1,.437-1.172v0L4.92.168h3.75L9.1,7.082l.146-.009L9.1,7.08q.016.368.015.738c0,.121,0,.242,0,.363q-.012.55-.06,1.322l-.009.156h.316l.029-.107q.216-.769.408-1.319a10.34,10.34,0,0,1,.453-1.1v0L13.371.168h3.177l-6,13.059h-3.9L6.2,6.481h0c-.014-.173-.021-.354-.021-.54q0-.35.033-.726.06-.686.157-1.6l.017-.162H6.064l-.028.108q-.265.987-.481,1.633T5.077,6.435l0-.007-3.031,6.8H-1.993L-3.033.168H.6V.022L.453.028.6.022V-.124H-3.35l1.086,13.645h4.5l3.1-6.962,0-.007q.267-.61.487-1.269c.147-.439.308-.988.486-1.651L6.177,3.6v.147h.048V3.6L6.079,3.58q-.1.92-.157,1.608c-.022.259-.034.509-.034.752,0,.193.007.382.022.565l.146-.012L5.911,6.5l.467,7.018h4.361L17.006-.124H13.182l-3.2,7.136.133.06L9.981,7.01a10.975,10.975,0,0,0-.466,1.126Q9.32,8.7,9.1,9.472l.141.039V9.364H9.2v.146l.146.009c.033-.516.053-.96.061-1.333,0-.123,0-.245,0-.369,0-.25,0-.5-.015-.751h0L8.947-.124H4.729L1.552,7.013l.134.059L1.553,7.01A7.633,7.633,0,0,0,1.1,8.228c-.12.427-.238.842-.35,1.244l.141.039V9.364H.816v.146l.146.011c.033-.468.057-.9.073-1.3.008-.2.012-.395.012-.588s0-.383-.012-.571L.74-.124H.6Z" transform="translate(3.35 0.124)" fill="#fff"/>
        </g>
        <g id="그룹_12356" data-name="그룹 12356" transform="translate(0 0.001)">
          <path id="패스_56116" data-name="패스 56116" d="M1.767,3.405H-9.873l6.858-22.431H9.548c11.28,0,17.646,2.66,15.068,11.087S14.483,3.405,1.767,3.405m6.1-17.112H5.409L1.8-1.914H3.956c6.2,0,9.065-1.474,10.428-5.928,1.264-4.135-.31-5.864-6.514-5.864" transform="translate(9.873 19.026)" fill="#fff"/>
        </g>
      </g>
      <g id="그룹_12358" data-name="그룹 12358" transform="translate(34.454 -19.842)">
        <path id="패스_56118" data-name="패스 56118" d="M1.041,0-5.817,22.431H20.129l1.655-5.416H5.889L11.092,0Z" transform="translate(5.817)" fill="#fff"/>
      </g>
      <g id="그룹_12359" data-name="그룹 12359" transform="translate(189.189 -5.365)">
        <path id="패스_56119" data-name="패스 56119" d="M0,.326.657-1.821H6.415L5.758.326Z" transform="translate(0 1.821)" fill="#fff"/>
      </g>
      <g id="그룹_12367" data-name="그룹 12367" transform="translate(0 -19.843)" clip-path="url(#clip-path-2)">
        <g id="그룹_12360" data-name="그룹 12360" transform="translate(238.228 7.108)">
          <path id="패스_56120" data-name="패스 56120" d="M1.871,1.071a12,12,0,0,0-3.481.856l-1.8,5.824h2.173C.1,7.751,2.4,6,3.046,3.881c.681-2.27.182-2.809-1.175-2.809M.265,9.811c-1.869,0-10.718-.041-10.718-.041l4.12-13.478a1.4,1.4,0,0,1,1.085-.915C-4.351-4.824.8-5.985.8-5.985L-.79-.776A11.386,11.386,0,0,1,3.961-1.814c3.551,0,5.753,1.665,4.457,5.88C7.175,8.127,4.391,9.811.265,9.811" transform="translate(10.453 5.985)" fill="#fff"/>
        </g>
        <g id="그룹_12361" data-name="그룹 12361" transform="translate(197.831 10.196)">
          <path id="패스_56121" data-name="패스 56121" d="M2.76,1.613l-7.652-.006c-1.833,0-2.534-.228-2.129-1.524l1.45-4.665c.406-1.3.758-1.642,2.845-1.79L5.4-6.924,6.043-9v-.007h-13.4c-3.519,0-5.534,1.524-6.193,3.641L-15.235.061c-.661,2.119.406,3.644,3.925,3.644H2.115Z" transform="translate(15.42 9.012)" fill="#fff"/>
        </g>
        <g id="그룹_12362" data-name="그룹 12362" transform="translate(164.389 9.262)">
          <path id="패스_56122" data-name="패스 56122" d="M2.716,2.079l.776-2.54H-7.266a.9.9,0,0,1-.877-1.265l.186-.611h9.7A4.951,4.951,0,0,0,6.152-5.711l.773-2.53a2.41,2.41,0,0,0-2.343-3.374H-8.49A4.953,4.953,0,0,0-12.9-8.241l-2.127,6.955a2.406,2.406,0,0,0,2.346,3.365Zm-9-9.9A1.856,1.856,0,0,1-4.629-9.085H1.7A.9.9,0,0,1,2.576-7.82L2.06-6.133A1.855,1.855,0,0,1,.408-4.867H-5.919A.9.9,0,0,1-6.8-6.133Z" transform="translate(15.177 11.615)" fill="#fff"/>
        </g>
        <g id="그룹_12363" data-name="그룹 12363" transform="translate(258.029 11.041)">
          <path id="패스_56123" data-name="패스 56123" d="M2.363,1.808,3.038-.4h-9.36a.786.786,0,0,1-.763-1.1l.162-.531H1.519A4.31,4.31,0,0,0,5.353-4.968l.672-2.2A2.1,2.1,0,0,0,3.986-10.1H-7.386a4.308,4.308,0,0,0-3.832,2.936l-1.85,6.05a2.092,2.092,0,0,0,2.038,2.927ZM-5.464-6.8A1.616,1.616,0,0,1-4.027-7.9h5.5a.786.786,0,0,1,.764,1.1L1.792-5.335a1.617,1.617,0,0,1-1.437,1.1h-5.5a.787.787,0,0,1-.764-1.1Z" transform="translate(13.202 10.105)" fill="#fff"/>
        </g>
        <g id="그룹_12364" data-name="그룹 12364" transform="translate(218.482 9.171)">
          <path id="패스_56124" data-name="패스 56124" d="M.029,1.44,1.808-4.38A3.173,3.173,0,0,1,3.947-6.405l6.572-1.639L7.239,2.686A.753.753,0,0,0,7.971,3.74H13.1A1.548,1.548,0,0,0,14.48,2.686h-.029L17.107-6h3.8L18.627,1.44A6.191,6.191,0,0,1,13.12,5.657H2.957C.628,5.657-.683,3.769.029,1.44" transform="translate(0.164 8.044)" fill="#fff"/>
        </g>
        <g id="그룹_12365" data-name="그룹 12365" transform="translate(288.385 9.073)">
          <path id="패스_56125" data-name="패스 56125" d="M2.72,2.1,3.777-1.2c.436-1.364.878-2.61,1.312-3.68C4.039-3.851,2.272-2.25,1.143-1.26L-3.265,2.576-5.206-1.26C-5.7-2.25-6.444-3.851-6.839-4.881c-.235,1.069-.6,2.315-1.033,3.68L-8.929,2.1H-15.2l4.426-13.847h6.151l1.776,3.7A21.655,21.655,0,0,1-1.163-3.872,53.543,53.543,0,0,1,3.226-8.045l4.138-3.7h6.072L8.99,2.1Z" transform="translate(15.199 11.745)" fill="#fff"/>
        </g>
        <g id="그룹_12366" data-name="그룹 12366" transform="translate(312.868 9.073)">
          <path id="패스_56126" data-name="패스 56126" d="M2.585,2.1,2.05-.331H-5.189L-7.284,2.1h-7.161L-1.257-11.745H5.489L9.824,2.1ZM1.249-4.287A19.7,19.7,0,0,1,.813-7.748c-.62.93-1.247,1.7-2.669,3.461l-.739.91h4Z" transform="translate(14.445 11.745)" fill="#fff"/>
        </g>
      </g>
      <g id="그룹_12368" data-name="그룹 12368" transform="translate(335.967 -12.663)">
        <path id="패스_56128" data-name="패스 56128" d="M.04,0,9.894,8.737l-10.12,7H7.35l5.3-4.155,4.814,4.155h7.754L17.367,8.658l9.8-6.765h-7.6L14.649,5.77,7.792,0Z" transform="translate(0.226)" fill="#fff"/>
      </g>
    </g>
  </g>
</svg>
