<svg xmlns="http://www.w3.org/2000/svg" xmlns:xlink="http://www.w3.org/1999/xlink" width="372" height="28" viewBox="0 0 372 28">
  <defs>
    <clipPath id="clip-path">
      <rect id="사각형_12435" data-name="사각형 12435" width="372" height="28" transform="translate(0 4569)" fill="#fff" opacity="0"/>
    </clipPath>
    <clipPath id="clip-path-2">
      <rect id="사각형_13601" data-name="사각형 13601" width="324.887" height="20.832" fill="#fff"/>
    </clipPath>
  </defs>
  <g id="logo_ventus_prime4" transform="translate(0 -4569)" clip-path="url(#clip-path)">
    <g id="그룹_12915" data-name="그룹 12915" transform="translate(0 4573.168)">
      <g id="그룹_12915-2" data-name="그룹 12915" clip-path="url(#clip-path-2)">
        <path id="패스_56251" data-name="패스 56251" d="M21.092,8.309l-8.524,11.31-4.3-11.31H0l4.492,11.8h0a6.713,6.713,0,0,0,6.727,4.46H17.1L29.353,8.309Z" transform="translate(0 -3.737)" fill="#fff" fill-rule="evenodd"/>
        <path id="패스_56252" data-name="패스 56252" d="M68.555,5.292H60.307C51.435,5.292,50.25,10.7,50.25,10.7L49.2,14.9c-1.522,6.137,6.891,6.578,6.891,6.578l1.995-.011H73.73l.879-3.484H59.97c-3.484,0-3.013-2.558-3.013-2.558l.187-.74h18.3l.682-2.741c1.715-6.906-7.574-6.65-7.574-6.65m-.929,6.014H58.007c.673-2.691,3.671-2.717,3.671-2.717h3.467c3.682,0,2.48,2.717,2.48,2.717M164.317,8.54h12.172l.821-3.248H162.683c-7.727,0-8.759,4.707-8.759,4.707l-.226.9h.007c-.22,2.306,1.515,3.555,4.039,3.555h9.6c1.025,0,1.513.615,1.114,1.388-.542,1.043-2.253,1.393-3.478,1.393H152.523l-1.068,4.224h15.854c7.721,0,8.755-4.707,8.755-4.707l.221-.894a3.854,3.854,0,0,0-3.841-4.681h-9.793c-.789,0-1.593-.421-1-1.382a3.716,3.716,0,0,1,2.668-1.26m-20.14-3.248-2.6,10.393h0L141,17.98h-4.883c-2.115,0-3.51-1.137-3.106-2.521l2.575-10.167H118.141l.944-3.691h-8.759l-3.7,14.67c-.83,2.852,2.2,5.193,6.732,5.193h5.356l.879-3.484h-.97c-2.113,0-3.51-1.135-3.106-2.519L117.3,8.6h8.761l-1.939,7.669c-.829,2.852,2.2,5.193,6.734,5.193h17.526l4.08-16.172ZM95.49,15.549,89.033,5.292h-8.26l-4.105,16.26h8.26L87.518,11.3l6.457,10.257h8.26l4.1-16.26H98.078Z" transform="translate(-22.047 -0.72)" fill="#fff" fill-rule="evenodd"/>
        <path id="패스_56253" data-name="패스 56253" d="M511.766,8.616h-8.159c-8.774,0-10.032,5.348-10.032,5.348l-1.111,4.157c-1.576,6.072,6.737,6.506,6.737,6.506l1.958-.008h15.485l.922-3.446H503.079c-3.443,0-2.944-2.534-2.944-2.534l.2-.731H518.45l.709-2.712c1.8-6.833-7.393-6.58-7.393-6.58m-1.015,5.95h-9.518c.688-2.661,3.673-2.689,3.673-2.689h3.448c3.637,0,2.4,2.689,2.4,2.689" transform="translate(-221.398 -3.875)" fill="#fff" fill-rule="evenodd"/>
        <path id="패스_56254" data-name="패스 56254" d="M401.958,8.621l-4.161,16h8.159l4.165-16Z" transform="translate(-178.911 -3.878)" fill="#fff" fill-rule="evenodd"/>
        <path id="패스_56255" data-name="패스 56255" d="M406.271,2.816,407,0h8.159l-.727,2.816Z" transform="translate(-182.722)" fill="#fff" fill-rule="evenodd"/>
        <path id="패스_56256" data-name="패스 56256" d="M446.591,24.577l2.326-8.927c.53-2.035-.284-2.577-1.918-2.577a2.927,2.927,0,0,0-3.281,2.517l-2.337,8.987h-8.163l2.326-8.927c.53-2.035-.331-2.577-1.964-2.577a2.934,2.934,0,0,0-3.286,2.517l-2.337,8.987H419.8l4.072-15.725h8.159L431.772,9.9a13.575,13.575,0,0,1,6.033-1.378c3.267,0,4.877.688,6.1,1.767a16.1,16.1,0,0,1,7.407-1.767c5.352,0,7.056,2.307,5.982,6.44l-2.5,9.614Z" transform="translate(-188.805 -3.833)" fill="#fff"/>
        <path id="패스_56257" data-name="패스 56257" d="M313.355,18.5h-5.923l-1.19,4.576H298.25L302.927,5.2h14.465c6.861,0,9.478,2.685,8.463,6.551-1.063,4.071-5.468,6.758-12.5,6.758m2.255-9.694h-5.64l-1.585,6.08H313.9a3.782,3.782,0,0,0,3.864-3.075c.274-1.051.437-3-2.155-3" transform="translate(-134.139 -2.337)" fill="#fff"/>
        <path id="패스_56258" data-name="패스 56258" d="M363.639,24.612l-3.35-5.4h-3.267l-1.417,5.4h-7.987L351.808,8.6H364.9c6.861,0,11.052,1.419,10.053,5.215-.63,2.4-3.067,3.89-6.5,4.689l4.262,6.107Zm.1-12.4h-4.9l-.923,3.5h4.772c2.635,0,3.859-.64,4.153-1.785.271-1.006-.551-1.714-3.105-1.714" transform="translate(-156.342 -3.868)" fill="#fff"/>
        <path id="패스_56259" data-name="패스 56259" d="M568.811,11.661,568.229,14h-5.59l.607-2.436h-12.69l.689-2.766L565.462.36h6.168l-2.022,8.107H572.5l-.8,3.194ZM561.956,6.3l-.38.233c-1.407.878-2.494,1.5-3.451,1.987,1.135-.038,2.681-.057,4.223-.057h1.671l.336-1.345c.2-.8.606-2.3.83-2.942-.752.564-1.482,1.052-3.228,2.125" transform="translate(-247.614 -0.162)" fill="#fff"/>
      </g>
    </g>
  </g>
</svg>
