<svg xmlns="http://www.w3.org/2000/svg" xmlns:xlink="http://www.w3.org/1999/xlink" width="372" height="28" viewBox="0 0 372 28">
  <defs>
    <clipPath id="clip-path">
      <rect id="사각형_12435" data-name="사각형 12435" width="372" height="28" transform="translate(0 4569)" fill="#fff" opacity="0"/>
    </clipPath>
    <clipPath id="clip-path-2">
      <rect id="사각형_13460" data-name="사각형 13460" width="363.358" height="22.846" fill="#fff"/>
    </clipPath>
  </defs>
  <g id="logo_ventus_s1_evo3" transform="translate(0 -4569)" clip-path="url(#clip-path)">
    <g id="그룹_12996" data-name="그룹 12996" transform="translate(0 4571.852)">
      <g id="그룹_12287" data-name="그룹 12287" transform="translate(0 0)" clip-path="url(#clip-path-2)">
        <path id="패스_56024" data-name="패스 56024" d="M24.788,23.141l-.728-3.859H13.523l-3.086,3.859H0L19.46,1.18h9.835l6.032,21.961ZM22.969,13.008a39.719,39.719,0,0,1-.58-5.49c-.9,1.474-1.828,2.7-3.937,5.49l-1.094,1.443H23.18Z" transform="translate(0 -0.836)" fill="#fff"/>
        <path id="패스_56025" data-name="패스 56025" d="M129.793,23.14,136.507,1.18h9.836L141.25,17.839H156.8l-1.621,5.3Z" transform="translate(-91.956 -0.836)" fill="#fff"/>
        <path id="패스_56026" data-name="패스 56026" d="M230.1,22.3c2.565-7.4,9.229-10.98,18.758-13.427,4.029-1.035,4.687-1.38,4.956-2.258.3-.973-.643-1.507-3.454-1.507a31.778,31.778,0,0,0-11.119,2.228l-3.094-4.486A45.337,45.337,0,0,1,252.074,0c8.731,0,12.627,2.2,11.408,6.181-.882,2.887-3.024,4.642-10.343,6.588-7.648,2.038-9.979,3.262-11.135,4.579h18.316L258.8,22.3Z" transform="translate(-163.022 0)" fill="#fff"/>
        <path id="패스_56027" data-name="패스 56027" d="M354.631,24.239c-8.983,0-14.4-3.917-12.2-11.106S352.556,1.965,361.54,1.965s14.4,3.918,12.2,11.106-10.128,11.168-19.113,11.168m5.235-17.121c-3.7,0-6.389,2-7.6,5.954s.332,6.016,4.034,6.016,6.389-2,7.6-5.954-.333-6.016-4.035-6.016" transform="translate(-242.257 -1.392)" fill="#fff"/>
        <path id="패스_56028" data-name="패스 56028" d="M479.137,30.179l.288,7q.023.552,0,1.139t-.072,1.283h.072q.167-.6.348-1.235a7.4,7.4,0,0,1,.443-1.187l3.118-7h3.958l.432,7q.024.552.012,1.1t-.06,1.319h.048q.216-.767.407-1.319a10.711,10.711,0,0,1,.456-1.1l3.142-7h3.478l-6.093,13.266h-4.1l-.455-6.837a7.6,7.6,0,0,1,.012-1.284q.059-.683.156-1.595h-.048q-.265.983-.48,1.631t-.479,1.248l-3.047,6.837h-4.246l-1.056-13.266Z" transform="translate(-336.791 -21.381)" fill="#fff"/>
        <path id="패스_56029" data-name="패스 56029" d="M478.754,29.825l-.146.006.288,7c.008.182.011.367.012.555s0,.379-.012.573q-.024.586-.072,1.279l-.011.156h.339l.03-.106q.167-.6.348-1.235a7.243,7.243,0,0,1,.435-1.164v0l3.081-6.92h3.726l.424,6.868.146-.009-.146.006q.016.367.016.734,0,.18,0,.36-.012.547-.06,1.313l-.01.155h.314l.03-.106q.215-.764.4-1.311a10.524,10.524,0,0,1,.45-1.088v0l3.1-6.919H494.6L488.64,42.945h-3.873l-.447-6.7h0q-.021-.26-.021-.537,0-.347.033-.722.06-.681.155-1.593l.017-.161h-.322l-.029.108q-.264.981-.477,1.623T483.2,36.2l0-.007-3.011,6.757h-4.017l-1.033-12.974h3.608v-.146l-.146.006.146-.006v-.146H474.83l1.079,13.557h4.475l3.082-6.916,0-.008q.266-.606.484-1.26t.482-1.639l-.141-.038v.146h.048v-.146l-.145-.015q-.1.913-.156,1.6-.035.386-.034.747,0,.289.022.561l.145-.012-.146.01.464,6.973h4.332l6.227-13.557h-3.8l-3.181,7.091.133.06-.131-.063a10.8,10.8,0,0,0-.462,1.119q-.194.558-.41,1.327l.14.04v-.146h-.048v.146l.145.009q.048-.77.06-1.325,0-.183,0-.366,0-.373-.016-.746v0l-.441-7.143h-4.19L479.7,36.77l.133.059-.132-.063a7.563,7.563,0,0,0-.452,1.211q-.18.636-.348,1.235l.14.039v-.146h-.072v.146l.145.01c.032-.465.056-.893.072-1.287.008-.2.012-.393.012-.584s0-.381-.012-.567l-.294-7.145h-.14Z" transform="translate(-336.408 -21.027)" fill="#fff"/>
        <path id="패스_56030" data-name="패스 56030" d="M652.869,49.572l.652-2.133h5.721l-.652,2.133Z" transform="translate(-462.545 -33.61)" fill="#fff"/>
        <path id="패스_56031" data-name="패스 56031" d="M832.237,29.333a11.92,11.92,0,0,0-3.459.85l-1.789,5.786h2.159c1.328,0,3.613-1.741,4.256-3.845.677-2.254.18-2.791-1.168-2.791m-1.6,8.683c-1.856,0-10.648-.042-10.648-.042l4.093-13.39a1.391,1.391,0,0,1,1.078-.91c.892-.2,6.014-1.352,6.014-1.352L829.593,27.5a11.3,11.3,0,0,1,4.72-1.031c3.528,0,5.715,1.654,4.427,5.84-1.234,4.036-4,5.709-8.1,5.709" transform="translate(-580.949 -15.815)" fill="#fff"/>
        <path id="패스_56032" data-name="패스 56032" d="M700.382,43.4l-7.6-.006c-1.822,0-2.517-.227-2.115-1.514l1.44-4.635c.4-1.289.753-1.632,2.827-1.778l8.075-.548.638-2.067v-.008H690.333c-3.5,0-5.5,1.515-6.152,3.617l-1.676,5.4c-.658,2.1.4,3.62,3.9,3.62h13.337Z" transform="translate(-483.411 -23.27)" fill="#fff"/>
        <path id="패스_56033" data-name="패스 56033" d="M586.132,43.265l.771-2.523H576.215a.9.9,0,0,1-.872-1.257l.185-.606h9.641a4.919,4.919,0,0,0,4.376-3.352l.769-2.514a2.4,2.4,0,0,0-2.327-3.352H575a4.922,4.922,0,0,0-4.377,3.352l-2.113,6.909a2.389,2.389,0,0,0,2.33,3.343Zm-8.939-9.834a1.845,1.845,0,0,1,1.642-1.257h6.285a.9.9,0,0,1,.872,1.257l-.512,1.676a1.846,1.846,0,0,1-1.642,1.258h-6.285a.9.9,0,0,1-.872-1.258Z" transform="translate(-402.668 -21.014)" fill="#fff"/>
        <path id="패스_56034" data-name="패스 56034" d="M902.937,47.56l.671-2.2h-9.3a.781.781,0,0,1-.759-1.093l.161-.527H902.1a4.28,4.28,0,0,0,3.808-2.916l.669-2.187a2.084,2.084,0,0,0-2.025-2.917h-11.3a4.281,4.281,0,0,0-3.807,2.917l-1.838,6.011a2.078,2.078,0,0,0,2.025,2.908ZM895.161,39a1.605,1.605,0,0,1,1.428-1.093h5.468A.781.781,0,0,1,902.816,39l-.446,1.458a1.606,1.606,0,0,1-1.428,1.095h-5.468a.782.782,0,0,1-.759-1.095Z" transform="translate(-628.757 -25.31)" fill="#fff"/>
        <path id="패스_56035" data-name="패스 56035" d="M752.892,38.772l1.767-5.781a3.152,3.152,0,0,1,2.125-2.013l6.529-1.628-3.259,10.66a.748.748,0,0,0,.728,1.047h5.1a1.536,1.536,0,0,0,1.367-1.047h-.029l2.639-8.634h3.771l-2.261,7.4a6.151,6.151,0,0,1-5.471,4.19H755.8c-2.314,0-3.616-1.876-2.909-4.19" transform="translate(-533.273 -20.794)" fill="#fff"/>
        <path id="패스_56036" data-name="패스 56036" d="M1008.727,42.774l1.05-3.282c.433-1.356.873-2.594,1.3-3.655-1.042,1.023-2.8,2.613-3.92,3.6l-4.379,3.812-1.928-3.812c-.489-.983-1.229-2.574-1.622-3.6-.234,1.062-.595,2.3-1.027,3.655l-1.05,3.282h-6.229l4.4-13.757h6.111l1.764,3.675a21.561,21.561,0,0,1,1.672,4.147,53.031,53.031,0,0,1,4.361-4.147l4.112-3.675h6.033l-4.417,13.757Z" transform="translate(-702.05 -20.558)" fill="#fff"/>
        <path id="패스_56037" data-name="패스 56037" d="M1091.284,42.775l-.531-2.418h-7.193l-2.082,2.418h-7.113l13.1-13.757h6.7l4.308,13.757Zm-1.327-6.347a19.739,19.739,0,0,1-.433-3.439c-.615.924-1.239,1.69-2.652,3.439l-.734.9h3.969Z" transform="translate(-761.167 -20.559)" fill="#fff"/>
        <path id="패스_56038" data-name="패스 56038" d="M1170.66,38.205l-4.783-4.127-5.265,4.127h-7.526l10.054-6.957-9.79-8.68h7.7l6.812,5.732,4.888-3.852h7.546l-9.733,6.722,7.8,7.035Z" transform="translate(-816.938 -15.989)" fill="#fff"/>
      </g>
    </g>
  </g>
</svg>
