<svg xmlns="http://www.w3.org/2000/svg" xmlns:xlink="http://www.w3.org/1999/xlink" width="560" height="28" viewBox="0 0 560 28">
  <defs>
    <clipPath id="clip-path">
      <rect id="사각형_12435" data-name="사각형 12435" width="560" height="28" transform="translate(0 4569)" fill="#fff" opacity="0"/>
    </clipPath>
    <clipPath id="clip-path-2">
      <rect id="사각형_13591" data-name="사각형 13591" width="330.751" height="22" fill="#fff"/>
    </clipPath>
  </defs>
  <g id="logo_ventus_s1_evo_z" transform="translate(0 -4569)" clip-path="url(#clip-path)">
    <g id="그룹_12900" data-name="그룹 12900" transform="translate(0.625 4572)">
      <g id="그룹_12900-2" data-name="그룹 12900" clip-path="url(#clip-path-2)">
        <path id="패스_56177" data-name="패스 56177" d="M21.085,7.874,12.562,19.181,8.259,7.874H0l4.489,11.8h0a6.711,6.711,0,0,0,6.725,4.458h5.874L29.345,7.874Z" transform="translate(0 -2.219)" fill="#fff" fill-rule="evenodd"/>
        <path id="패스_56178" data-name="패스 56178" d="M57.077,6.426H48.832c-8.87,0-10.054,5.4-10.054,5.4l-1.046,4.2c-1.521,6.136,6.889,6.574,6.889,6.574l1.994-.009H62.252l.878-3.484H48.494c-3.481,0-3.011-2.556-3.011-2.556l.186-.741h18.3l.682-2.738c1.714-6.9-7.573-6.648-7.573-6.648m-.929,6.012H46.533C47.2,9.746,50.2,9.721,50.2,9.721h3.467c3.681,0,2.479,2.717,2.479,2.717M152.81,9.671h12.17l.821-3.245H151.179c-7.726,0-8.757,4.7-8.757,4.7l-.226.9h.007c-.22,2.307,1.515,3.555,4.037,3.555h9.594c1.025,0,1.515.615,1.114,1.387-.542,1.042-2.251,1.394-3.477,1.394h-12.45l-1.069,4.222H155.8c7.719,0,8.753-4.707,8.753-4.707l.223-.894a3.856,3.856,0,0,0-3.842-4.681h-9.789c-.79,0-1.594-.419-1-1.38a3.712,3.712,0,0,1,2.665-1.26M132.677,6.426l-2.6,10.388h0l-.57,2.29H124.62c-2.115,0-3.51-1.138-3.105-2.521L124.09,6.421H106.648l.946-3.69H98.837L95.134,17.4c-.83,2.85,2.2,5.191,6.73,5.191h5.354l.88-3.484h-.969c-2.113,0-3.509-1.135-3.1-2.518L105.8,9.733h8.758L112.622,17.4c-.828,2.85,2.2,5.191,6.732,5.191h17.523l4.078-16.167ZM84,16.679,77.551,6.426H69.293l-4.1,16.253h8.258L76.04,12.426l6.454,10.253h8.258l4.1-16.253H86.593Z" transform="translate(-10.584 -0.771)" fill="#fff" fill-rule="evenodd"/>
        <path id="패스_56179" data-name="패스 56179" d="M284.568.254c-1.523,2.011-3.351,2.063-8.029,2.215L275.716,6h6.057l-3.96,15.894h9.8l5.3-21.639Z" transform="translate(-77.716 -0.071)" fill="#fff"/>
        <path id="패스_56180" data-name="패스 56180" d="M258.716,5.927l.911-3.912C257.838.674,254.24,0,248.8,0c-9.326,0-14.653,1.741-16.016,5.28a2.452,2.452,0,0,0-.136,1.145A2.759,2.759,0,0,0,233.9,8.4a20.386,20.386,0,0,0,5.734,2.631q3.5,1.117,6.964,2.247c1.769.615,1.908,1.328,2.024,2.138a1.719,1.719,0,0,1-.088.718c-.529,1.689-1.966,2.545-5.913,2.545-3.048,0-4.653-.687-4.817-2.048a3.424,3.424,0,0,1,.2-1.447h-6.9l-1.664,4.337c1.811,1.642,5.8,2.48,11.995,2.48,4.8,0,9.137-.235,12.324-1.345,3.162-1.1,4.709-2.993,5.315-5.01A3.368,3.368,0,0,0,259.226,14q-.294-1.551-2.975-2.876a78.987,78.987,0,0,0-9.892-3.369,24.621,24.621,0,0,1-2.874-1.019c-.872-.358-1.334-.783-1.408-1.276a.915.915,0,0,1,.115-.6q.69-1.923,5.614-1.92,4.087,0,4.386,1.74a5.625,5.625,0,0,1,.088,1.249Z" transform="translate(-64.67)" fill="#fff"/>
        <path id="패스_56181" data-name="패스 56181" d="M354.45,12.278l-6.818,9.046-3.443-9.046h-6.607l3.591,9.437h0a5.364,5.364,0,0,0,5.38,3.567h4.7l9.8-13Z" transform="translate(-95.154 -3.461)" fill="#fff" fill-rule="evenodd"/>
        <path id="패스_56182" data-name="패스 56182" d="M322.073,12.278h-6.6c-7.094,0-8.042,4.323-8.042,4.323l-.837,3.359c-1.218,4.908,5.509,5.26,5.509,5.26l1.6-.009h12.508l.707-2.786H315.21c-2.787,0-2.411-2.046-2.411-2.046l.152-.592h14.64l.544-2.194c1.372-5.52-6.061-5.316-6.061-5.316m-.742,4.809h-7.694a3.1,3.1,0,0,1,2.935-2.173h2.776c2.946,0,1.983,2.173,1.983,2.173" transform="translate(-86.379 -3.46)" fill="#fff" fill-rule="evenodd"/>
        <path id="패스_56183" data-name="패스 56183" d="M383.441,12.278h-7.015c-7.1,0-8.078,4.323-8.078,4.323l-1.107,4.3s-1.241,4.32,5.851,4.32h7.014c7.1,0,8.078-4.325,8.078-4.325l1.107-4.294s1.245-4.323-5.851-4.323m-.6,4.809-.857,3.324a3.127,3.127,0,0,1-2.95,2.172h-3.508s-2.383-.023-1.835-2.172l.858-3.324a3.126,3.126,0,0,1,2.952-2.173h3.507s2.383.022,1.833,2.173" transform="translate(-103.49 -3.461)" fill="#fff" fill-rule="evenodd"/>
        <path id="패스_56184" data-name="패스 56184" d="M440.08,17.332h-4.918c-2.686,0-6.269.03-8.48.085,1.517-1.017,4.457-2.993,6.573-4.537l9.874-7.27,3.62-2.962H423.324c-5.369,0-5.063,3.513-5.063,3.513h3.451c2.685,0,9.8-.027,12.006-.087-1.516,1.018-4.455,3-6.572,4.536l-9.875,7.273-5.738,4.039h33.2c-.954-4.424-4.65-4.592-4.65-4.592" transform="translate(-115.999 -0.746)" fill="#fff"/>
      </g>
    </g>
  </g>
</svg>
