<svg xmlns="http://www.w3.org/2000/svg" xmlns:xlink="http://www.w3.org/1999/xlink" width="192" height="20" viewBox="0 0 192 20">
  <defs>
    <clipPath id="clip-path">
      <rect id="Rectangle_13329" data-name="Rectangle 13329" width="192" height="20" transform="translate(321.53 856.268)" fill="none" stroke="#707070" stroke-width="1"/>
    </clipPath>
    <clipPath id="clip-path-2">
      <path id="Path_55539" data-name="Path 55539" d="M0-8.275H179.6V-19.843H0Z" transform="translate(0 19.843)"/>
    </clipPath>
  </defs>
  <g id="navigation_logo_K125" data-name="navigation logo_K125" transform="translate(-321.53 -856.268)" clip-path="url(#clip-path)">
    <g id="Group_11415" data-name="Group 11415" transform="translate(321.531 880.328)">
      <g id="Group_11407" data-name="Group 11407" transform="translate(0 -19.843)" clip-path="url(#clip-path-2)">
        <g id="Group_11404" data-name="Group 11404" transform="translate(0 2.54)">
          <path id="Path_55536" data-name="Path 55536" d="M-8.377,0-13.11,6.28-15.5,0h-4.588l2.494,6.552h0a3.728,3.728,0,0,0,3.736,2.477h3.263L-3.79,0Z" transform="translate(20.088)"/>
        </g>
        <g id="Group_11405" data-name="Group 11405" transform="translate(14.976 0.491)">
          <path id="Path_55537" data-name="Path 55537" d="M-7.759-1.466h-4.579c-4.926,0-5.584,3-5.584,3L-18.5,3.867c-.845,3.408,3.826,3.652,3.826,3.652l1.108-.006h8.684L-4.4,5.579h-8.129c-1.934,0-1.673-1.42-1.673-1.42l.1-.41H-3.932l.378-1.522C-2.6-1.608-7.759-1.466-7.759-1.466m-.515,3.339h-5.341A2.15,2.15,0,0,1-11.577.365h1.925c2.045,0,1.378,1.509,1.378,1.509M45.412.337H52.17l.456-1.8H44.505c-4.291,0-4.863,2.614-4.863,2.614l-.125.5h0c-.122,1.28.841,1.974,2.242,1.974h5.329c.569,0,.84.341.618.771-.3.579-1.251.774-1.931.774H38.863l-.593,2.345h8.8c4.287,0,4.861-2.614,4.861-2.614l.122-.5a2.14,2.14,0,0,0-2.133-2.6H44.487c-.438,0-.884-.234-.556-.767a2.062,2.062,0,0,1,1.481-.7m-11.182-1.8L32.784,4.3s0,0,0,0l-.317,1.272H29.754c-1.175,0-1.949-.631-1.724-1.4l1.429-5.645H19.774L20.3-3.515H15.434L13.378,4.63c-.461,1.584,1.221,2.883,3.738,2.883H20.09l.489-1.934H20.04c-1.174,0-1.949-.63-1.724-1.4L19.3.372h4.864L23.091,4.63c-.461,1.584,1.222,2.883,3.739,2.883h9.731l2.265-8.979ZM7.2,4.229l-3.585-5.7H-.974L-3.254,7.562H1.332l1.438-5.7,3.585,5.7h4.586l2.277-9.028H8.634Z" transform="translate(18.605 3.515)"/>
        </g>
        <g id="Group_11406" data-name="Group 11406" transform="translate(150.395 2.634)">
          <path id="Path_55538" data-name="Path 55538" d="M-7.745,0h-4.53c-4.871,0-5.569,2.969-5.569,2.969l-.617,2.308c-.874,3.371,3.741,3.613,3.741,3.613l1.087-.005h8.6l.512-1.913h-8.043c-1.912,0-1.635-1.407-1.635-1.407l.111-.406H-4.034l.394-1.506C-2.639-.142-7.745,0-7.745,0m-.563,3.3h-5.285a2.16,2.16,0,0,1,2.04-1.493h1.914C-7.619,1.81-8.308,3.3-8.308,3.3" transform="translate(18.572 0.001)"/>
        </g>
      </g>
      <g id="Group_11408" data-name="Group 11408" transform="translate(121.533 -17.208)">
        <path id="Path_55540" data-name="Path 55540" d="M-1.653,0l-2.31,8.884H.567L2.88,0Z" transform="translate(3.963)"/>
      </g>
      <g id="Group_11409" data-name="Group 11409" transform="translate(124.122 -19.842)">
        <path id="Path_55541" data-name="Path 55541" d="M-.289,0l-.4,1.564h4.53L4.241,0Z" transform="translate(0.693)"/>
      </g>
      <g id="Group_11414" data-name="Group 11414" transform="translate(0 -19.843)" clip-path="url(#clip-path-2)">
        <g id="Group_11410" data-name="Group 11410" transform="translate(128.254 2.605)">
          <path id="Path_55542" data-name="Path 55542" d="M-10.642-6.376l1.291-4.956c.294-1.13-.157-1.431-1.065-1.431a1.625,1.625,0,0,0-1.822,1.4l-1.3,4.99h-4.533l1.291-4.956c.294-1.13-.184-1.431-1.091-1.431a1.629,1.629,0,0,0-1.824,1.4l-1.3,4.99h-4.53l2.261-8.731h4.53l-.142.582a7.533,7.533,0,0,1,3.35-.765,4.66,4.66,0,0,1,3.389.981,8.94,8.94,0,0,1,4.112-.981c2.972,0,3.918,1.281,3.322,3.575L-6.085-6.376Z" transform="translate(25.519 15.29)"/>
        </g>
        <g id="Group_11411" data-name="Group 11411" transform="translate(91.12 1.589)">
          <path id="Path_55543" data-name="Path 55543" d="M-6-5.286H-9.288l-.661,2.541h-4.437l2.6-9.93h8.031c3.81,0,5.263,1.49,4.7,3.637C.351-6.777-2.094-5.286-6-5.286m1.252-5.382H-7.879l-.88,3.375H-5.7A2.1,2.1,0,0,0-3.551-9c.152-.584.243-1.669-1.2-1.669" transform="translate(14.386 12.675)"/>
        </g>
        <g id="Group_11412" data-name="Group 11412" transform="translate(106.202 2.629)">
          <path id="Path_55544" data-name="Path 55544" d="M-6.363-6.359l-1.86-3h-1.814l-.787,3h-4.435l2.327-8.891h7.27c3.809,0,6.137.788,5.582,2.9-.35,1.333-1.7,2.159-3.608,2.6l2.366,3.391Zm.057-6.883H-9.025L-9.537-11.3h2.649c1.463,0,2.143-.356,2.306-.991.15-.559-.306-.952-1.724-.952" transform="translate(15.259 15.25)"/>
        </g>
        <g id="Group_11413" data-name="Group 11413" transform="translate(168.256 0)">
          <path id="Path_55545" data-name="Path 55545" d="M-3.392-5.575A8.645,8.645,0,0,1-8.134-6.73l2.143-1.36a6.308,6.308,0,0,0,3.2.788c1.4,0,2.062-.248,2.221-.766s-.262-.723-1.489-.723H-3.808l.5-1.63h1.555c1.053,0,1.441-.14,1.593-.637.122-.4-.3-.616-1.487-.616a8.262,8.262,0,0,0-3.2.648l-1.173-1.36a12.476,12.476,0,0,1,4.98-.983c2.9,0,4.661.572,4.172,2.17A2.664,2.664,0,0,1,1.07-9.719c1.073.162,1.9.669,1.609,1.629C2.145-6.341-.11-5.575-3.392-5.575" transform="translate(8.134 13.368)"/>
        </g>
      </g>
    </g>
  </g>
</svg>
