<svg xmlns="http://www.w3.org/2000/svg" xmlns:xlink="http://www.w3.org/1999/xlink" width="193" height="20" viewBox="0 0 193 20">
  <defs>
    <clipPath id="clip-path">
      <rect id="사각형_12583" data-name="사각형 12583" width="193" height="20" transform="translate(321.53 856.268)" fill="none" stroke="#707070" stroke-width="1"/>
    </clipPath>
    <clipPath id="clip-path-2">
      <rect id="사각형_14031" data-name="사각형 14031" width="193.458" height="12.405"/>
    </clipPath>
  </defs>
  <g id="마스크_그룹_100" data-name="마스크 그룹 100" transform="translate(-321.53 -856.268)" clip-path="url(#clip-path)">
    <g id="그룹_12946" data-name="그룹 12946" transform="translate(321.53 860.066)">
      <g id="그룹_12944" data-name="그룹 12944" transform="translate(0 0)" clip-path="url(#clip-path-2)">
        <path id="패스_55944" data-name="패스 55944" d="M12.559,5.6,7.483,12.334,4.92,5.6H0l2.675,7.027h0a4,4,0,0,0,4.006,2.656h3.5l7.3-9.682Z" transform="translate(0 -2.876)"/>
        <path id="패스_55945" data-name="패스 55945" d="M60.7,9.384,56.858,3.277H51.939l-2.445,9.682h4.919l1.542-6.108L59.8,12.959h4.919l2.443-9.682H62.244ZM89.694,3.277l-1.55,6.188v0L87.8,10.832H84.895c-1.259,0-2.09-.677-1.85-1.5l1.534-6.054H74.191l.562-2.2H69.537L67.332,9.815c-.494,1.7,1.309,3.092,4.008,3.092h3.19l.523-2.075h-.577c-1.258,0-2.09-.676-1.849-1.5l1.06-4.084H78.9L77.749,9.815c-.494,1.7,1.31,3.092,4.01,3.092H92.195l2.429-9.63Zm11.992,1.934h7.248l.489-1.934h-8.709c-4.6,0-5.216,2.8-5.216,2.8l-.134.539h0c-.131,1.373.9,2.117,2.4,2.117h5.715c.61,0,.9.366.663.827-.322.621-1.341.83-2.071.83H94.664l-.636,2.515h9.44c4.6,0,5.213-2.8,5.213-2.8l.132-.532a2.3,2.3,0,0,0-2.287-2.788h-5.831c-.47,0-.948-.251-.6-.823a2.215,2.215,0,0,1,1.589-.75M44.111,6.858H38.384A2.3,2.3,0,0,1,40.569,5.24h2.065c2.192,0,1.477,1.618,1.477,1.618m.553-3.581H39.753c-5.283,0-5.988,3.219-5.988,3.219L33.141,9c-.906,3.654,4.1,3.916,4.1,3.916l1.188-.006h9.314l.523-2.075H39.552c-2.075,0-1.795-1.523-1.795-1.523l.111-.441h10.9l.406-1.632c1.021-4.112-4.51-3.96-4.51-3.96" transform="translate(-16.971 -0.554)"/>
        <path id="패스_55946" data-name="패스 55946" d="M342.725,9.349h-5.668a2.316,2.316,0,0,1,2.187-1.6H341.3c2.165,0,1.427,1.6,1.427,1.6m.6-3.543H338.47c-5.225,0-5.973,3.184-5.973,3.184l-.662,2.475c-.938,3.616,4.012,3.874,4.012,3.874l1.166-.005h9.22l.549-2.051h-8.626c-2.05,0-1.753-1.509-1.753-1.509l.118-.435h10.787l.423-1.615c1.074-4.069-4.4-3.918-4.4-3.918" transform="translate(-170.426 -2.982)"/>
        <path id="패스_55947" data-name="패스 55947" d="M270.536,5.809l-2.478,9.528h4.858l2.48-9.528Z" transform="translate(-137.72 -2.984)"/>
        <path id="패스_55948" data-name="패스 55948" d="M273.769,1.677,274.2,0h4.858l-.433,1.677Z" transform="translate(-140.654 0)"/>
        <path id="패스_55949" data-name="패스 55949" d="M298.838,15.3l1.385-5.315c.316-1.212-.169-1.535-1.142-1.535a1.743,1.743,0,0,0-1.954,1.5L295.736,15.3h-4.861l1.385-5.315c.316-1.212-.2-1.535-1.17-1.535a1.747,1.747,0,0,0-1.956,1.5L287.741,15.3h-4.858l2.425-9.364h4.858l-.152.625a8.079,8.079,0,0,1,3.593-.82A5,5,0,0,1,297.241,6.8a9.588,9.588,0,0,1,4.411-1.052c3.187,0,4.2,1.373,3.562,3.834L303.725,15.3Z" transform="translate(-145.336 -2.951)"/>
        <path id="패스_55950" data-name="패스 55950" d="M211.315,5.654h-3.358l-.944,3.62H210.3a2.252,2.252,0,0,0,2.3-1.831c.163-.626.261-1.789-1.283-1.789m-1.342,5.772h-3.528l-.708,2.725h-4.759L203.763,3.5h8.614c4.085,0,5.644,1.6,5.039,3.9-.633,2.424-3.256,4.024-7.444,4.024" transform="translate(-103.256 -1.798)"/>
        <path id="패스_55951" data-name="패스 55951" d="M243.846,7.948H240.93l-.549,2.084h2.841c1.569,0,2.3-.382,2.473-1.063.161-.6-.329-1.021-1.849-1.021m-.061,7.382-1.995-3.214h-1.945L239,15.33h-4.756l2.5-9.535h7.8c4.086,0,6.581.845,5.986,3.106-.375,1.43-1.826,2.316-3.869,2.792l2.538,3.637Z" transform="translate(-120.347 -2.977)"/>
        <path id="패스_55952" data-name="패스 55952" d="M377.785,3.781l-.226.139c-.838.523-1.485.894-2.055,1.183.675-.022,1.6-.034,2.514-.034h.995l.2-.8c.118-.476.36-1.37.494-1.752-.448.336-.883.627-1.923,1.265m4.082,3.19-.347,1.392h-3.328l.361-1.45H371l.41-1.647L379.873.242h3.672l-1.2,4.827h1.722l-.475,1.9Z" transform="translate(-190.606 -0.124)"/>
      </g>
    </g>
  </g>
</svg>
