<svg xmlns="http://www.w3.org/2000/svg" xmlns:xlink="http://www.w3.org/1999/xlink" width="496" height="52" viewBox="0 0 496 52">
  <defs>
    <clipPath id="clip-path">
      <rect id="사각형_12017" data-name="사각형 12017" width="496" height="52" transform="translate(320.442 855.18)" fill="none" stroke="#707070" stroke-width="1"/>
    </clipPath>
    <clipPath id="clip-path-2">
      <rect id="사각형_13316" data-name="사각형 13316" width="272.417" height="43.472" fill="none"/>
    </clipPath>
  </defs>
  <g id="bi_Kinergy_EX" data-name="bi_Kinergy EX" transform="translate(-320.442 -855.18)" clip-path="url(#clip-path)">
    <g id="그룹_11345" data-name="그룹 11345" transform="translate(320.441 860.681)">
      <path id="패스_55435" data-name="패스 55435" d="M153.394,11.367l-1.01,3.769h44.168l1.011-3.769Z" transform="translate(-58.1 -4.334)" fill="#c5ce00"/>
      <g id="그룹_11344" data-name="그룹 11344" transform="translate(0 0)">
        <g id="그룹_11343" data-name="그룹 11343" clip-path="url(#clip-path-2)">
          <path id="패스_55436" data-name="패스 55436" d="M347.238,2.9,345.066,0a39.181,39.181,0,0,1-21.654,7.013l-23.148.009-1.015,3.78,23.61,0a43.508,43.508,0,0,0,24.378-7.9" transform="translate(-114.097 0)" fill="#399d26"/>
          <path id="패스_55437" data-name="패스 55437" d="M226.9,11.367l-1.011,3.769h44.168l1.01-3.769Z" transform="translate(-86.127 -4.334)" fill="#6da725"/>
          <path id="패스_55438" data-name="패스 55438" d="M64.548,53.093c.041-.158,7.368-27.5,7.44-27.768H63.063c-.041.158-7.37,27.5-7.441,27.768Z" transform="translate(-21.207 -9.656)" fill="#1a1311"/>
          <path id="패스_55439" data-name="패스 55439" d="M114.792,27.869c-1.295-1.688-3.739-2.543-7.264-2.543H86.962c-.043.158-7.371,27.5-7.441,27.767h8.928l5.87-21.915h7.613c1.92,0,3.192.442,3.889,1.352a3.449,3.449,0,0,1,.618,2.146A11.082,11.082,0,0,1,106,37.433s-4.129,15.394-4.2,15.66h8.926l4.6-17.157a16.192,16.192,0,0,0,.628-4.132,6.263,6.263,0,0,0-1.159-3.934" transform="translate(-30.319 -9.656)" fill="#1a1311"/>
          <path id="패스_55440" data-name="패스 55440" d="M151.594,36.633l.572-2.14c.8-2.975,2.808-4.483,5.981-4.483h15.52c.04-.149,1.189-4.434,1.255-4.686H155.228c-6.056,0-10.339,3.019-11.751,8.284l-5.22,19.484h29.226c.041-.15,1.189-4.436,1.255-4.688h-20.3l1.77-6.622h17.714c.041-.15,1.312-4.9,1.379-5.15Z" transform="translate(-52.714 -9.656)" fill="#1a1311"/>
          <path id="패스_55441" data-name="패스 55441" d="M253.652,39.214a12.14,12.14,0,0,0-.428,3.146,9.7,9.7,0,0,0,1.983,5.994c2.346,3.056,6.442,4.739,11.532,4.739h14.919c.042-.158,4.344-16.216,4.41-16.46H271.829c-.04.148-1.315,4.9-1.383,5.15h5.319l-1.775,6.623h-3.482c-3.559,0-5.877-.767-7.087-2.344a5.351,5.351,0,0,1-.992-3.361,13.784,13.784,0,0,1,.529-3.5c1.708-6.358,5.538-9.193,12.42-9.193h11.172c.041-.15,1.192-4.434,1.259-4.686h-13.57c-9.614,0-18.464,5.971-20.586,13.889" transform="translate(-96.548 -9.656)" fill="#1a1311"/>
          <path id="패스_55442" data-name="패스 55442" d="M321.182,25.325h-8.517l7.115,18.186-8.907,9.582,8.836.034,25.812-27.8h-8.834c-.064.067-10.893,11.716-10.893,11.716l-4.612-11.716" transform="translate(-118.528 -9.656)" fill="#1a1311"/>
          <path id="패스_55443" data-name="패스 55443" d="M216.474,25.325H199.757c-.041.158-7.368,27.5-7.44,27.768h8.926L207.55,29.55h4.016l1.13,0c3.25-.02,6.054-.037,7.18,1.422a3.425,3.425,0,0,1,.283,3.089c-1.169,4.353-5.62,4.318-9.928,4.283l-1.175-.007h-2.921l8.176,14.76h9.868c-.181-.312-6.541-11.31-6.541-11.31h.186c5.786,0,9.869-2.853,11.2-7.829a9.774,9.774,0,0,0,.371-2.516,4.836,4.836,0,0,0-.95-3.041c-1.63-2.125-5.322-3.071-11.972-3.071" transform="translate(-73.326 -9.656)" fill="#1a1311"/>
          <path id="패스_55444" data-name="패스 55444" d="M37.459,25.311c-.639,0-10.461-.018-10.461-.018l-13.14,9.378,2.508-9.358H7.437C7.395,25.471.071,52.813,0,53.08H8.924c.042-.156,2.631-9.821,2.631-9.821l.132.147s8.661,9.622,8.661,9.674H31.963L18.812,38.5s18.1-12.814,18.648-13.192" transform="translate(0 -9.644)" fill="#1a1311"/>
          <path id="패스_55445" data-name="패스 55445" d="M369.184,50.39h12.663l.811-3.034H370l.541-2a3.771,3.771,0,0,1,4.011-3h11.219l.813-3.034H373.037c-4.211,0-7.137,2.122-8.1,5.713l-3.589,13.4H381.46l.811-3.032H367.845Z" transform="translate(-137.773 -14.99)" fill="#006abc"/>
          <path id="패스_55446" data-name="패스 55446" d="M415.037,58.353l-4.668-6.622-7.055,6.622H397.45l10.593-9.824-6.39-8.969h6.688l3.767,5.554,6.018-5.554h5.828l-9.49,8.8,7.224,10Z" transform="translate(-151.538 -15.084)" fill="#006abc"/>
          <path id="패스_55447" data-name="패스 55447" d="M419.868,40.978h3.22L414.7,48.772l6.69,9.245h-4.5l-4.979-7.063-7.539,7.063h-3.256l9.491-8.821-5.854-8.217h4.532l4.081,6Z" transform="translate(-152.936 -15.624)" fill="#006abc"/>
        </g>
      </g>
    </g>
  </g>
</svg>
