<svg xmlns="http://www.w3.org/2000/svg" xmlns:xlink="http://www.w3.org/1999/xlink" width="496" height="52" viewBox="0 0 496 52">
  <defs>
    <clipPath id="clip-path">
      <rect id="Rectangle_12017" data-name="Rectangle 12017" width="496" height="52" transform="translate(320.442 855.18)" fill="none" stroke="#707070" stroke-width="1"/>
    </clipPath>
    <clipPath id="clip-path-2">
      <path id="Path_55557" data-name="Path 55557" d="M0,19.126H317.923v-43.22H0Z" transform="translate(0 24.094)" fill="none"/>
    </clipPath>
  </defs>
  <g id="bi_Kinergy_Eco2" data-name="bi_Kinergy Eco2" transform="translate(-320.442 -855.18)" clip-path="url(#clip-path)">
    <g id="Group_11434" data-name="Group 11434" transform="translate(320.441 886.148)">
      <g id="Group_11427" data-name="Group 11427" transform="translate(0 -24.094)" clip-path="url(#clip-path-2)">
        <g id="Group_11417" data-name="Group 11417" transform="translate(222.284 24.219)">
          <path id="Path_55547" data-name="Path 55547" d="M3.448,4.872H16.038l.807-3.017H4.257L4.795-.134A3.749,3.749,0,0,1,8.782-3.121H19.936l.809-3.017H7.277C3.091-6.138.183-4.028-.775-.457L-4.343,12.864h20l.807-3.015H2.117Z" transform="translate(4.343 6.138)" fill="#6cbb4e"/>
        </g>
        <g id="Group_11418" data-name="Group 11418" transform="translate(246.552 24.218)">
          <path id="Path_55548" data-name="Path 55548" d="M4.094,8.409c-6.675,0-10.363-4.275-8.955-9.514s7.369-9.487,14.046-9.487h8.492L16.87-7.576H9.225C4.247-7.576,1.832-5,.783-1.075S.774,5.393,5.752,5.393h7.642l-.809,3.015Z" transform="translate(5.158 10.593)" fill="#6cbb4e"/>
        </g>
        <g id="Group_11419" data-name="Group 11419" transform="translate(268.142 24.218)">
          <path id="Path_55549" data-name="Path 55549" d="M4.1,8.409c-6.673,0-10.368-4.246-8.96-9.484,1.408-5.268,7.376-9.518,14.022-9.518,6.673,0,10.365,4.25,8.964,9.487C16.709,4.163,10.743,8.409,4.1,8.409M8.353-7.576c-4.275,0-6.521,2.576-7.57,6.5s-.2,6.529,4.077,6.529c4.154,0,6.492-2.61,7.545-6.529s.422-6.5-4.052-6.5" transform="translate(5.161 10.593)" fill="#6cbb4e"/>
        </g>
        <g id="Group_11420" data-name="Group 11420" transform="translate(34.217 15.579)">
          <path id="Path_55550" data-name="Path 55550" d="M3.927,12.217c.041-.156,7.326-27.341,7.4-27.607H2.451c-.041.156-7.328,27.341-7.4,27.607Z" transform="translate(4.947 15.39)" fill="#595b60"/>
        </g>
        <g id="Group_11421" data-name="Group 11421" transform="translate(48.919 15.579)">
          <path id="Path_55551" data-name="Path 55551" d="M15.518,1.118C14.23-.561,11.8-1.409,8.3-1.409H-12.151c-.041.156-7.328,27.341-7.4,27.607h8.876C-10.63,26.042-4.838,4.41-4.838,4.41h7.57c1.909,0,3.175.439,3.867,1.342a3.44,3.44,0,0,1,.613,2.135,11.046,11.046,0,0,1-.439,2.741S2.667,25.934,2.6,26.2h8.874c.043-.156,4.576-17.059,4.576-17.059a16.164,16.164,0,0,0,.622-4.108,6.219,6.219,0,0,0-1.152-3.912" transform="translate(19.549 1.409)" fill="#595b60"/>
        </g>
        <g id="Group_11422" data-name="Group 11422" transform="translate(85.05 15.578)">
          <path id="Path_55552" data-name="Path 55552" d="M5.868,4.975l.569-2.127c.791-2.958,2.793-4.456,5.946-4.456h15.43c.041-.147,1.182-4.407,1.248-4.659H9.481c-6.02,0-10.279,3-11.683,8.235,0,0-5.118,19.106-5.189,19.371H21.666c.041-.147,1.182-4.411,1.248-4.66H2.736L4.494,10.1H22.107c.039-.151,1.3-4.872,1.37-5.121Z" transform="translate(7.392 6.267)" fill="#595b60"/>
        </g>
        <g id="Group_11423" data-name="Group 11423" transform="translate(155.771 15.579)">
          <path id="Path_55553" data-name="Path 55553" d="M.188,6.11A12.068,12.068,0,0,0-.237,9.237,9.645,9.645,0,0,0,1.734,15.2c2.332,3.039,6.4,4.712,11.466,4.712H28.032c.043-.158,4.319-16.123,4.386-16.367H18.261c-.039.149-1.308,4.868-1.376,5.121h5.288L20.41,15.248H16.948c-3.539,0-5.844-.761-7.048-2.33a5.329,5.329,0,0,1-.987-3.342A13.687,13.687,0,0,1,9.441,6.1C11.138-.22,14.946-3.04,21.789-3.04H32.895c.041-.147,1.186-4.407,1.252-4.657H20.656C11.1-7.7,2.3-1.763.188,6.11" transform="translate(0.237 7.697)" fill="#595b60"/>
        </g>
        <g id="Group_11424" data-name="Group 11424" transform="translate(191.234 15.579)">
          <path id="Path_55554" data-name="Path 55554" d="M4.536,0H-3.933c.113.285,7.075,18.08,7.075,18.08l-8.856,9.529,8.786.032L28.734,0H19.952C19.887.066,9.121,11.647,9.121,11.647L4.536,0" transform="translate(5.714)" fill="#595b60"/>
        </g>
        <g id="Group_11425" data-name="Group 11425" transform="translate(118.306 15.579)">
          <path id="Path_55555" data-name="Path 55555" d="M10.628,0H-5.992c-.041.156-7.324,27.341-7.4,27.607h8.874C-4.473,27.451,1.757,4.2,1.757,4.2H5.748L6.871,4.2c3.231-.02,6.018-.038,7.138,1.414a3.4,3.4,0,0,1,.283,3.071c-1.162,4.327-5.588,4.293-9.87,4.257l-1.17-.005H.351c.17.307,8.067,14.568,8.126,14.675h9.812c-.181-.31-6.5-11.245-6.5-11.245h.185c5.753,0,9.812-2.836,11.134-7.783a9.722,9.722,0,0,0,.37-2.5,4.8,4.8,0,0,0-.945-3.024C20.91.94,17.24,0,10.628,0" transform="translate(13.388)" fill="#595b60"/>
        </g>
        <g id="Group_11426" data-name="Group 11426" transform="translate(0.001 15.558)">
          <path id="Path_55556" data-name="Path 55556" d="M16.481.008c-.635,0-10.4-.018-10.4-.018L-6.986,9.314l2.5-9.3h-8.878c-.041.156-7.324,27.341-7.394,27.607h8.872c.043-.154,2.617-9.764,2.617-9.764l.131.145s8.61,9.566,8.61,9.618H11.017C10.7,27.27-2.06,13.122-2.06,13.122S15.939.385,16.481.008" transform="translate(20.762 0.01)" fill="#595b60"/>
        </g>
      </g>
      <g id="Group_11428" data-name="Group 11428" transform="translate(93.741 -17.102)">
        <path id="Path_55558" data-name="Path 55558" d="M.445,0l-1,3.747H43.353l1-3.747Z" transform="translate(0.56)" fill="#bcd64b"/>
      </g>
      <g id="Group_11430" data-name="Group 11430" transform="translate(0 -24.094)" clip-path="url(#clip-path-2)">
        <g id="Group_11429" data-name="Group 11429" transform="translate(184.084 -0.001)">
          <path id="Path_55559" data-name="Path 55559" d="M21.114,1.274,18.954-1.6A38.959,38.959,0,0,1-2.575,5.369l-23.015.007L-26.6,9.135l23.474,0A43.242,43.242,0,0,0,21.114,1.274" transform="translate(26.598 1.605)" fill="#43b94a"/>
        </g>
      </g>
      <g id="Group_11431" data-name="Group 11431" transform="translate(138.956 -17.102)">
        <path id="Path_55561" data-name="Path 55561" d="M.445,0-.561,3.747H43.353l1-3.747Z" transform="translate(0.561)" fill="#6cbb4e"/>
      </g>
      <g id="Group_11433" data-name="Group 11433" transform="translate(0 -24.094)" clip-path="url(#clip-path-2)">
        <g id="Group_11432" data-name="Group 11432" transform="translate(296.486 16.108)">
          <path id="Path_55562" data-name="Path 55562" d="M0,5.918C1.378,2.233,4.98-.077,11.848-1.731c2.8-.673,3.537-.942,3.742-1.857a1.015,1.015,0,0,0-.178-.9c-.387-.5-1.234-.71-2.834-.71A23.325,23.325,0,0,0,5.03-3.846L3.324-5.876A31.97,31.97,0,0,1,13.473-7.455c5.134,0,6.974.974,7.615,1.79a1.716,1.716,0,0,1,.278,1.555c-.382,1.553-1.536,2.632-6.529,3.878C9.355,1.139,7.808,1.952,6.992,2.893l-.752.866H19.615l-.531,2.158Z" transform="translate(0 7.455)" fill="#6cbb4e"/>
        </g>
      </g>
    </g>
  </g>
</svg>
