<svg xmlns="http://www.w3.org/2000/svg" xmlns:xlink="http://www.w3.org/1999/xlink" width="496" height="52" viewBox="0 0 496 52">
  <defs>
    <clipPath id="clip-path">
      <rect id="Rectangle_12017" data-name="Rectangle 12017" width="496" height="52" transform="translate(320.442 855.18)" fill="none" stroke="#707070" stroke-width="1"/>
    </clipPath>
    <clipPath id="clip-path-2">
      <path id="Path_55539" data-name="Path 55539" d="M0,8.512H440.22V-19.843H0Z" transform="translate(0 19.843)" fill="none"/>
    </clipPath>
  </defs>
  <g id="bi_Ventus_Prime_3" data-name="bi_Ventus Prime 3" transform="translate(-320.442 -855.18)" clip-path="url(#clip-path)">
    <g id="Group_11415" data-name="Group 11415" transform="translate(320.441 896.668)">
      <g id="Group_11407" data-name="Group 11407" transform="translate(0 -19.843)" clip-path="url(#clip-path-2)">
        <g id="Group_11404" data-name="Group 11404" transform="translate(0 6.226)">
          <path id="Path_55536" data-name="Path 55536" d="M8.617,0l-11.6,15.393L-8.843,0H-20.088l6.113,16.059h0c1,2.829,3.74,6.07,9.157,6.07h8L19.86,0Z" transform="translate(20.088)" fill="#ff6920"/>
        </g>
        <g id="Group_11405" data-name="Group 11405" transform="translate(36.708 1.203)">
          <path id="Path_55537" data-name="Path 55537" d="M7.981,1.508H-3.243c-12.075,0-13.687,7.356-13.687,7.356l-1.425,5.716c-2.071,8.352,9.378,8.951,9.378,8.951l2.715-.014H15.024l1.2-4.741H-3.7c-4.741,0-4.1-3.481-4.1-3.481l.254-1.006h24.91l.927-3.73c2.334-9.4-10.307-9.051-10.307-9.051M6.718,9.693H-6.373c.916-3.662,5-3.7,5-3.7H3.341c5.011,0,3.377,3.7,3.377,3.7m131.59-3.765h16.566l1.117-4.42H136.085c-10.517,0-11.92,6.406-11.92,6.406l-.307,1.232h.009c-.3,3.138,2.062,4.838,5.5,4.838h13.062c1.395,0,2.059.836,1.515,1.889-.737,1.419-3.065,1.9-4.733,1.9H122.257L120.8,23.517H142.38c10.507,0,11.915-6.406,11.915-6.406l.3-1.216c.507-3.472-1.685-6.372-5.227-6.372H136.041c-1.073,0-2.168-.573-1.363-1.881a5.054,5.054,0,0,1,3.63-1.715M110.9,1.508l-3.542,14.144s0,0,0,.006l-.777,3.118H99.93c-2.879,0-4.777-1.548-4.227-3.431l3.5-13.837H75.466L76.75-3.515H64.83L59.79,16.449c-1.13,3.883,2.992,7.068,9.161,7.068H76.24l1.2-4.741H76.119c-2.877,0-4.777-1.545-4.227-3.428l2.421-9.335H86.236L83.6,16.449c-1.129,3.883,3,7.068,9.164,7.068h23.852l5.553-22.009Zm-66.26,13.96L35.85,1.508H24.61L19.023,23.637H30.264l3.524-13.96,8.788,13.96H53.818L59.4,1.508H48.161Z" transform="translate(18.605 3.515)" fill="#ff6920"/>
        </g>
        <g id="Group_11406" data-name="Group 11406" transform="translate(368.635 6.455)">
          <path id="Path_55538" data-name="Path 55538" d="M7.967,0h-11.1c-11.94,0-13.651,7.278-13.651,7.278L-18.3,12.936c-2.143,8.264,9.17,8.855,9.17,8.855l2.665-.013H14.606L15.86,17.09H-3.855c-4.687,0-4.007-3.45-4.007-3.45l.272-.995H17.062l.966-3.691C20.482-.345,7.967,0,7.967,0M6.586,8.1H-6.367c.936-3.621,5-3.66,5-3.66H3.324c4.95,0,3.262,3.66,3.262,3.66" transform="translate(18.572 0.001)" fill="#85868a"/>
        </g>
      </g>
      <g id="Group_11408" data-name="Group 11408" transform="translate(297.891 -13.383)">
        <path id="Path_55540" data-name="Path 55540" d="M1.7,0-3.963,21.776h11.1L12.81,0Z" transform="translate(3.963)" fill="#85868a"/>
      </g>
      <g id="Group_11409" data-name="Group 11409" transform="translate(304.237 -19.839)">
        <path id="Path_55541" data-name="Path 55541" d="M.3,0l-.99,3.832h11.1L11.4,0Z" transform="translate(0.693)" fill="#85868a"/>
      </g>
      <g id="Group_11414" data-name="Group 11414" transform="translate(0 -19.843)" clip-path="url(#clip-path-2)">
        <g id="Group_11410" data-name="Group 11410" transform="translate(314.366 6.386)">
          <path id="Path_55542" data-name="Path 55542" d="M10.947,6.559,14.112-5.589C14.834-8.359,13.726-9.1,11.5-9.1c-2.282,0-3.767.737-4.466,3.425L3.856,6.559H-7.254L-4.089-5.589C-3.367-8.359-4.539-9.1-6.762-9.1c-2.282,0-3.767.737-4.471,3.425L-14.414,6.559h-11.1l5.542-21.4h11.1l-.349,1.428A18.465,18.465,0,0,1-1.009-15.29c4.446,0,6.636.936,8.307,2.4a21.913,21.913,0,0,1,10.08-2.4c7.285,0,9.6,3.139,8.142,8.764l-3.4,13.085Z" transform="translate(25.519 15.29)" fill="#85868a"/>
        </g>
        <g id="Group_11411" data-name="Group 11411" transform="translate(223.345 3.895)">
          <path id="Path_55543" data-name="Path 55543" d="M6.171,5.437H-1.891L-3.51,11.665H-14.386l6.366-24.34H11.666c9.338,0,12.9,3.652,11.519,8.915-1.448,5.54-7.442,9.2-17.013,9.2M9.239-7.755H1.564L-.594.519H6.913a5.148,5.148,0,0,0,5.26-4.184c.373-1.432.594-4.09-2.934-4.09" transform="translate(14.386 12.675)" fill="#85868a"/>
        </g>
        <g id="Group_11412" data-name="Group 11412" transform="translate(260.314 6.443)">
          <path id="Path_55544" data-name="Path 55544" d="M6.546,6.542,1.987-.8H-2.46L-4.389,6.542h-10.87l5.7-21.792H8.265c9.337,0,15.041,1.931,13.681,7.1-.857,3.268-4.174,5.293-8.844,6.38l5.8,8.312Zm.14-16.872H.022L-1.234-5.567H5.26c3.587,0,5.253-.872,5.652-2.429.369-1.369-.75-2.334-4.225-2.334" transform="translate(15.259 15.25)" fill="#85868a"/>
        </g>
        <g id="Group_11413" data-name="Group 11413" transform="translate(412.415 0.001)">
          <path id="Path_55545" data-name="Path 55545" d="M3.489,5.734c-5.039,0-8.983-1.083-11.623-2.831L-2.881-.43A15.463,15.463,0,0,0,4.953,1.5c3.43,0,5.054-.607,5.443-1.878.4-1.3-.643-1.773-3.65-1.773H2.47l1.222-4H7.5c2.582,0,3.532-.343,3.905-1.56.3-.979-.724-1.509-3.645-1.509A20.251,20.251,0,0,0-.087-7.626l-2.875-3.332A30.581,30.581,0,0,1,9.245-13.368c7.112,0,11.425,1.4,10.227,5.319-.623,2.036-2.827,3.017-5.046,3.625,2.631.4,4.664,1.639,3.944,3.994C17.06,3.857,11.533,5.734,3.489,5.734" transform="translate(8.134 13.368)" fill="#85868a"/>
        </g>
      </g>
    </g>
  </g>
</svg>
