<svg xmlns="http://www.w3.org/2000/svg" xmlns:xlink="http://www.w3.org/1999/xlink" width="496" height="52" viewBox="0 0 496 52">
  <defs>
    <clipPath id="clip-path">
      <rect id="사각형_12017" data-name="사각형 12017" width="496" height="52" transform="translate(320.442 855.18)" fill="none" stroke="#707070" stroke-width="1"/>
    </clipPath>
    <clipPath id="clip-path-2">
      <rect id="사각형_14031" data-name="사각형 14031" width="425.127" height="27.26" fill="none"/>
    </clipPath>
  </defs>
  <g id="bi_Kinergy_EX" data-name="bi_Kinergy EX" transform="translate(-320.442 -855.18)" clip-path="url(#clip-path)">
    <g id="그룹_12945" data-name="그룹 12945" transform="translate(320.441 876.894)">
      <g id="그룹_12944" data-name="그룹 12944" transform="translate(0 0)" clip-path="url(#clip-path-2)">
        <path id="패스_55944" data-name="패스 55944" d="M27.6,5.6,16.444,20.4,10.811,5.6H0L5.878,21.04h0c.956,2.719,3.594,5.836,8.8,5.836h7.689L38.41,5.6Z" transform="translate(0 0.384)" fill="#fe5a17"/>
        <path id="패스_55945" data-name="패스 55945" d="M93.84,19.33,85.391,5.909H74.582L69.209,27.186H80.018l3.389-13.421,8.449,13.421h10.809l5.368-21.277H97.226Zm63.71-13.421-3.406,13.6,0,.005-.749,3H147c-2.767,0-4.594-1.487-4.065-3.3l3.37-13.3H123.48l1.235-4.83H113.253l-4.846,19.2c-1.087,3.732,2.877,6.795,8.809,6.795h7.009l1.15-4.559h-1.268c-2.764,0-4.592-1.485-4.064-3.3l2.328-8.974h11.464L131.3,20.276c-1.086,3.732,2.88,6.795,8.812,6.795h22.933l5.338-21.162ZM183.9,10.158h15.928L200.9,5.909H181.766c-10.111,0-11.462,6.16-11.462,6.16l-.295,1.184h.009C169.73,16.27,172,17.9,175.3,17.9H187.86c1.341,0,1.98.8,1.456,1.816-.708,1.364-2.947,1.823-4.551,1.823h-16.3l-1.4,5.526h20.745c10.1,0,11.455-6.16,11.455-6.16l.29-1.17c.487-3.338-1.62-6.126-5.025-6.126H181.723c-1.032,0-2.084-.551-1.311-1.808a4.867,4.867,0,0,1,3.491-1.649M57.379,13.778H44.793c.879-3.522,4.8-3.555,4.8-3.555h4.537c4.818,0,3.246,3.555,3.246,3.555m1.215-7.87H47.8c-11.61,0-13.16,7.073-13.16,7.073l-1.37,5.5c-1.992,8.03,9.017,8.606,9.017,8.606l2.61-.014H65.367l1.15-4.559H47.361c-4.559,0-3.944-3.347-3.944-3.347l.245-.968H67.612l.892-3.586c2.244-9.036-9.91-8.7-9.91-8.7" transform="translate(2.263 0.074)" fill="#fe5a17"/>
        <path id="패스_55946" data-name="패스 55946" d="M355.907,13.592H343.452c.9-3.482,4.806-3.519,4.806-3.519h4.512c4.758,0,3.136,3.519,3.136,3.519m1.327-7.785H346.557c-11.481,0-13.127,7-13.127,7l-1.454,5.44c-2.061,7.945,8.816,8.514,8.816,8.514l2.562-.012h20.262l1.206-4.508H345.867c-4.506,0-3.852-3.317-3.852-3.317l.26-.956h23.7l.929-3.55c2.359-8.941-9.674-8.609-9.674-8.609" transform="translate(22.724 0.398)" fill="#898989"/>
        <path id="패스_55947" data-name="패스 55947" d="M273.5,5.809l-5.445,20.937h10.676l5.45-20.937Z" transform="translate(18.363 0.398)" fill="#898989"/>
        <path id="패스_55948" data-name="패스 55948" d="M273.769,3.684,274.721,0H285.4l-.952,3.684Z" transform="translate(18.754 0.001)" fill="#898989"/>
        <path id="패스_55949" data-name="패스 55949" d="M317.945,26.751l3.043-11.681c.693-2.664-.371-3.372-2.509-3.372-2.194,0-3.621.708-4.293,3.294l-3.059,11.759H300.445l3.043-11.681c.693-2.664-.433-3.372-2.571-3.372-2.194,0-3.621.708-4.3,3.294L293.56,26.751H282.883l5.329-20.577h10.676l-.334,1.373a17.753,17.753,0,0,1,7.9-1.8c4.275,0,6.381.9,7.987,2.311a21.069,21.069,0,0,1,9.692-2.311c7,0,9.234,3.017,7.828,8.426l-3.273,12.581Z" transform="translate(19.379 0.394)" fill="#898989"/>
        <path id="패스_55950" data-name="패스 55950" d="M223.693,8.232h-7.38l-2.074,7.955h7.217a4.95,4.95,0,0,0,5.057-4.024c.359-1.375.573-3.931-2.82-3.931m-2.95,12.684h-7.752L211.435,26.9H200.978L207.1,3.5h18.929c8.978,0,12.4,3.513,11.074,8.573-1.39,5.328-7.155,8.843-16.358,8.843" transform="translate(13.768 0.24)" fill="#898989"/>
        <path id="패스_55951" data-name="패스 55951" d="M255.344,10.525h-6.407L247.73,15.1h6.243c3.448,0,5.05-.839,5.434-2.336.354-1.316-.722-2.244-4.064-2.244m-.135,16.222-4.383-7.064h-4.275L244.7,26.747H234.244L239.728,5.8h17.133c8.979,0,14.462,1.856,13.154,6.825-.824,3.144-4.013,5.089-8.5,6.135l5.578,7.992Z" transform="translate(16.047 0.398)" fill="#898989"/>
        <path id="패스_55952" data-name="패스 55952" d="M385.913,8.02l-.5.3c-1.841,1.15-3.264,1.965-4.516,2.6,1.484-.049,3.509-.075,5.525-.075h2.186l.44-1.76c.26-1.045.792-3.01,1.086-3.851-.984.738-1.94,1.377-4.225,2.78m8.971,7.01-.762,3.059h-7.314L387.6,14.9H371l.9-3.619L390.5.242h8.07L395.927,10.85h3.785l-1.043,4.18Z" transform="translate(25.415 0.017)" fill="#898989"/>
      </g>
    </g>
  </g>
</svg>
