<svg xmlns="http://www.w3.org/2000/svg" width="32" height="32" viewBox="0 0 32 32">
  <g id="Performance_M_S" data-name="Performance_M+S" transform="translate(-4 -4)">
    <rect id="사각형_12508" data-name="사각형 12508" width="32" height="32" transform="translate(4 4)" fill="none"/>
    <g id="Performance_M_S-2" data-name="Performance_M+S" transform="translate(4.791 4.791)">
      <path id="패스_55102" data-name="패스 55102" d="M16.74,25.363H15.5V20.989q0-.257.022-.541c.015-.189.032-.378.049-.568q-.035.177-.066.359c-.021.121-.041.238-.063.35s-.041.215-.062.306-.04.167-.058.226l-1.162,4.241h-1.5l-1.207-4.294q-.053-.151-.124-.439t-.133-.6q.035.258.048.47t.014.452v4.409H10.042V18.709h1.8L13.2,23.34q.062.2.116.417t.1.444q.044-.222.093-.435t.111-.417l1.278-4.64H16.74Z" transform="translate(-3.678 -6.853)"/>
      <path id="패스_55103" data-name="패스 55103" d="M24.944,20.739V22.5H26.63v1.047H24.944v1.863H23.809V23.551H22.123V22.5h1.686V20.739Z" transform="translate(-8.104 -7.596)"/>
      <path id="패스_55104" data-name="패스 55104" d="M35.2,23.4a2.485,2.485,0,0,1-.129.821,1.5,1.5,0,0,1-.421.63,1.986,1.986,0,0,1-.772.4,4.208,4.208,0,0,1-1.18.142q-.24,0-.524-.018t-.581-.053q-.3-.035-.594-.1a5.053,5.053,0,0,1-.564-.151V23.956a6.653,6.653,0,0,0,1.184.266,7.884,7.884,0,0,0,.9.062,1.859,1.859,0,0,0,1-.2.685.685,0,0,0,.293-.608,1.042,1.042,0,0,0-.04-.306.474.474,0,0,0-.16-.226,1.252,1.252,0,0,0-.342-.182q-.222-.084-.577-.182l-.71-.186a2.263,2.263,0,0,1-1.136-.639,1.833,1.833,0,0,1-.4-1.269,1.8,1.8,0,0,1,.559-1.442,2.828,2.828,0,0,1,1.855-.484q.275,0,.55.013c.183.009.36.024.528.045s.324.044.466.071a2.838,2.838,0,0,1,.373.093v1.038a4.577,4.577,0,0,0-.8-.138q-.448-.04-.821-.04a3.774,3.774,0,0,0-.67.049,1.1,1.1,0,0,0-.408.146.52.52,0,0,0-.2.244.957.957,0,0,0-.058.35.8.8,0,0,0,.058.324.5.5,0,0,0,.182.213,1.372,1.372,0,0,0,.311.151,4.138,4.138,0,0,0,.452.129l.718.186a3.74,3.74,0,0,1,.8.293,1.663,1.663,0,0,1,.511.4,1.381,1.381,0,0,1,.27.541A2.945,2.945,0,0,1,35.2,23.4Z" transform="translate(-11.15 -6.795)"/>
      <path id="패스_55105" data-name="패스 55105" d="M16.366,29.475a13.178,13.178,0,1,1,11.36-6.547.476.476,0,1,1-.822-.479,12.223,12.223,0,1,0-4.439,4.43.476.476,0,0,1,.477.823,13.144,13.144,0,0,1-6.575,1.773Z" transform="translate(-1.157 -1.143)" fill="#040000"/>
      <rect id="사각형_13285" data-name="사각형 13285" width="30" height="30" transform="translate(0.209 0.209)" fill="none"/>
    </g>
  </g>
</svg>
