<svg xmlns="http://www.w3.org/2000/svg" width="32" height="32" viewBox="0 0 32 32">
  <g id="Performance_sealant" transform="translate(-4 -4)">
    <rect id="사각형_12508" data-name="사각형 12508" width="32" height="32" transform="translate(4 4)" fill="none"/>
    <g id="sealant" transform="translate(-0.563 -1.096)">
      <path id="패스_56433" data-name="패스 56433" d="M18.726,28.948H13.441c-1.962,0-4.708-2.584-5.174-5.791a14.322,14.322,0,0,1,1.34-8.187A12.307,12.307,0,0,1,12,11.413a.617.617,0,1,1,.838.907A11.409,11.409,0,0,0,10.721,15.5a13.089,13.089,0,0,0-1.233,7.476c.4,2.782,2.806,4.735,3.953,4.735h5.285a.617.617,0,0,1,0,1.235Z" transform="translate(-0.633 -1.061)" fill="#040000"/>
      <path id="패스_56434" data-name="패스 56434" d="M32.153,28.948H26.867a.617.617,0,1,1,0-1.235h5.285c1.146,0,3.547-1.953,3.953-4.735A13.1,13.1,0,0,0,34.872,15.5a11.4,11.4,0,0,0-2.118-3.182.618.618,0,1,1,.839-.906,12.33,12.33,0,0,1,2.393,3.557,14.325,14.325,0,0,1,1.341,8.187C36.859,26.364,34.114,28.948,32.153,28.948Z" transform="translate(-3.835 -1.061)" fill="#040000"/>
      <path id="패스_56435" data-name="패스 56435" d="M18.093,32.826H15.687a.618.618,0,0,1-.617-.617V31.65a.866.866,0,1,0-1.733,0v.559a.618.618,0,0,1-.617.617H9.2a.619.619,0,0,1-.456-.2,16.761,16.761,0,0,1-3.354-6.114l-.057-.2a15.757,15.757,0,0,1-.319-8.592A34.189,34.189,0,0,1,9.338,8.969v-3.1a.617.617,0,1,1,1.235,0V9.16a.616.616,0,0,1-.11.351c-.033.047-3.26,4.736-4.258,8.522a14.609,14.609,0,0,0,.312,7.937l.058.2a15.8,15.8,0,0,0,2.906,5.416H12.1a2.1,2.1,0,0,1,4.2,0h1.79a.617.617,0,0,1,0,1.235Z" fill="#040000"/>
      <path id="패스_56436" data-name="패스 56436" d="M37.355,32.826H35.867a.617.617,0,1,1,0-1.235h1.2a15.789,15.789,0,0,0,2.905-5.416l.058-.2a14.587,14.587,0,0,0,.312-7.939c-1-3.786-4.224-8.475-4.256-8.522a.616.616,0,0,1-.11-.351V5.867a.617.617,0,0,1,1.235,0v3.1a34.189,34.189,0,0,1,4.326,8.749,15.746,15.746,0,0,1-.32,8.6l-.056.2a16.744,16.744,0,0,1-3.354,6.114A.617.617,0,0,1,37.355,32.826Z" transform="translate(-5.427)" fill="#040000"/>
      <path id="패스_56437" data-name="패스 56437" d="M23.867,39.363a.618.618,0,0,1-.617-.617V28.867a.617.617,0,0,1,1.235,0v9.878A.618.618,0,0,1,23.867,39.363Z" transform="translate(-3.305 -4.067)" fill="#040000"/>
      <path id="패스_56438" data-name="패스 56438" d="M25.483,41.485H21.367a.617.617,0,1,1,0-1.235h4.116a.617.617,0,1,1,0,1.235Z" transform="translate(-2.863 -6.19)" fill="#040000"/>
      <path id="패스_56439" data-name="패스 56439" d="M30.33,28.954H24.568a.618.618,0,0,1-.617-.617,1.852,1.852,0,1,0-3.7,0,.618.618,0,0,1-.617.617H13.867a.617.617,0,0,1,0-1.235h5.207a3.087,3.087,0,0,1,6.05,0H30.33a.617.617,0,1,1,0,1.235Z" transform="translate(-1.536 -3.537)" fill="#040000"/>
      <path id="패스_56440" data-name="패스 56440" d="M29.855,42.247a.617.617,0,0,1-.069-1.231l2.468-.282-2.232-1.067a.617.617,0,0,1-.322-.744l.625-1.964-1.636.692a.615.615,0,0,1-.8-.315l-.547-1.215a.617.617,0,0,1,1.125-.506l.3.665,2.316-.98a.617.617,0,0,1,.829.756l-.868,2.73,3.685,1.761a.617.617,0,0,1-.2,1.17l-4.6.527a.7.7,0,0,1-.071,0Z" transform="translate(-4.018 -5.305)"/>
      <path id="패스_56441" data-name="패스 56441" d="M24.741,37.4" transform="translate(-3.568 -5.686)" fill="none" stroke="#000" stroke-linecap="round" stroke-linejoin="round" stroke-width="1.5"/>
    </g>
  </g>
</svg>
