<svg xmlns="http://www.w3.org/2000/svg" width="32" height="32" viewBox="0 0 32 32">
  <g id="Performance_3PMS" transform="translate(-4 -4)">
    <rect id="사각형_12508" data-name="사각형 12508" width="32" height="32" transform="translate(4 4)" fill="none"/>
    <g id="Performance_3PMS-2" data-name="Performance_3PMS" transform="translate(4.016 4)">
      <path id="선_210" data-name="선 210" d="M3.769,2.624A.536.536,0,0,1,3.5,2.552L-.481.255a.539.539,0,0,1-.2-.736.539.539,0,0,1,.736-.2l3.981,2.3a.539.539,0,0,1-.27,1.005Z" transform="translate(10.727 16.832)" fill="#040000"/>
      <path id="선_211" data-name="선 211" d="M.475,2.887a.539.539,0,0,1-.52-.4L-.732-.072a.539.539,0,0,1,.381-.66.539.539,0,0,1,.66.381L1,2.208a.539.539,0,0,1-.521.678Z" transform="translate(12.07 15.444)" fill="#040000"/>
      <path id="선_212" data-name="선 212" d="M-.212,1.014a.539.539,0,0,1-.52-.4.539.539,0,0,1,.381-.66L2.208-.732a.539.539,0,0,1,.66.381.539.539,0,0,1-.381.66L-.072,1A.539.539,0,0,1-.212,1.014Z" transform="translate(10.197 18.003)" fill="#040000"/>
      <path id="선_213" data-name="선 213" d="M-.211,2.624a.538.538,0,0,1-.467-.27.539.539,0,0,1,.2-.736L3.5-.678a.539.539,0,0,1,.736.2.539.539,0,0,1-.2.736L.058,2.552A.536.536,0,0,1-.211,2.624Z" transform="translate(18.456 16.832)" fill="#040000"/>
      <path id="선_214" data-name="선 214" d="M-.211,2.887a.539.539,0,0,1-.14-.019.539.539,0,0,1-.381-.66L-.045-.351a.539.539,0,0,1,.66-.381A.539.539,0,0,1,1-.072L.309,2.487A.539.539,0,0,1-.211,2.887Z" transform="translate(20.407 15.444)" fill="#040000"/>
      <path id="선_215" data-name="선 215" d="M2.348,1.014A.539.539,0,0,1,2.208,1L-.351.309a.539.539,0,0,1-.381-.66.539.539,0,0,1,.66-.381l2.559.687a.539.539,0,0,1-.139,1.059Z" transform="translate(20.407 18.003)" fill="#040000"/>
      <path id="패스_55102" data-name="패스 55102" fill="#040000"/>
      <path id="선_216" data-name="선 216" d="M3.769,2.624A.536.536,0,0,1,3.5,2.552L-.481.255a.539.539,0,0,1-.2-.736.539.539,0,0,1,.736-.2l3.981,2.3a.539.539,0,0,1-.27,1.005Z" transform="translate(18.456 21.471)" fill="#040000"/>
      <path id="선_217" data-name="선 217" d="M.475,2.887a.539.539,0,0,1-.52-.4L-.732-.072a.539.539,0,0,1,.381-.66.539.539,0,0,1,.66.381L1,2.208a.539.539,0,0,1-.521.678Z" transform="translate(20.407 22.597)" fill="#040000"/>
      <path id="선_218" data-name="선 218" d="M-.212,1.014a.539.539,0,0,1-.52-.4.539.539,0,0,1,.381-.66L2.208-.732a.539.539,0,0,1,.66.381.539.539,0,0,1-.381.66L-.072,1A.539.539,0,0,1-.212,1.014Z" transform="translate(20.407 21.911)" fill="#040000"/>
      <path id="패스_55103" data-name="패스 55103" d="M25.789,32.786a.539.539,0,0,1-.241-1.02l1.577-.788V29.3l-1.576-.788a.539.539,0,1,1,.481-.964l1.874.936a.539.539,0,0,1,.3.482V31.31a.539.539,0,0,1-.3.482l-1.874.937A.537.537,0,0,1,25.789,32.786Z" transform="translate(-9.418 -10.05)" fill="#040000"/>
      <path id="선_219" data-name="선 219" d="M-.211,2.624a.538.538,0,0,1-.467-.27.539.539,0,0,1,.2-.736L3.5-.678a.539.539,0,0,1,.736.2.539.539,0,0,1-.2.736L.058,2.552A.536.536,0,0,1-.211,2.624Z" transform="translate(10.727 21.471)" fill="#040000"/>
      <path id="선_220" data-name="선 220" d="M-.211,2.887a.539.539,0,0,1-.14-.019.539.539,0,0,1-.381-.66L-.045-.351a.539.539,0,0,1,.66-.381A.539.539,0,0,1,1-.072L.309,2.487A.539.539,0,0,1-.211,2.887Z" transform="translate(12.07 22.597)" fill="#040000"/>
      <path id="선_221" data-name="선 221" d="M2.348,1.014A.539.539,0,0,1,2.208,1L-.351.309a.539.539,0,0,1-.381-.66.539.539,0,0,1,.66-.381l2.559.687a.539.539,0,0,1-.139,1.059Z" transform="translate(10.197 21.911)" fill="#040000"/>
      <path id="패스_55104" data-name="패스 55104" d="M25.052,33.154a.536.536,0,0,1-.24-.057l-1.874-.937a.539.539,0,0,1-.3-.482V29.336a.539.539,0,0,1,1.077,0v2.01l1.577.788a.539.539,0,0,1-.241,1.02Z" transform="translate(-8.683 -10.418)" fill="#040000"/>
      <rect id="사각형_13285" data-name="사각형 13285" width="31.935" height="31.935" transform="translate(0.033 0.033)" fill="none"/>
      <path id="선_222" data-name="선 222" d="M1.663,2.2a.537.537,0,0,1-.381-.158L-.592.169a.539.539,0,0,1,0-.762.539.539,0,0,1,.762,0L2.044,1.282a.539.539,0,0,1-.381.919Z" transform="translate(14.708 13.576)" fill="#040000"/>
      <path id="선_223" data-name="선 223" d="M-.211,2.2a.537.537,0,0,1-.381-.158.539.539,0,0,1,0-.762L1.282-.592a.539.539,0,0,1,.762,0,.539.539,0,0,1,0,.762L.169,2.044A.537.537,0,0,1-.211,2.2Z" transform="translate(16.582 13.576)" fill="#040000"/>
      <path id="선_224" data-name="선 224" d="M-.211,5.411A.539.539,0,0,1-.75,4.873V-.211A.539.539,0,0,1-.211-.75a.539.539,0,0,1,.539.539V4.873A.539.539,0,0,1-.211,5.411Z" transform="translate(16.582 13.108)" fill="#040000"/>
      <path id="선_225" data-name="선 225" d="M1.663,2.2a.537.537,0,0,1-.381-.158L-.592.169a.539.539,0,0,1,0-.762.539.539,0,0,1,.762,0L2.044,1.282a.539.539,0,0,1-.381.919Z" transform="translate(16.582 25.128)" fill="#040000"/>
      <path id="선_226" data-name="선 226" d="M-.211,2.2a.537.537,0,0,1-.381-.158.539.539,0,0,1,0-.762L1.282-.592a.539.539,0,0,1,.762,0,.539.539,0,0,1,0,.762L.169,2.044A.537.537,0,0,1-.211,2.2Z" transform="translate(14.708 25.128)" fill="#040000"/>
      <path id="선_227" data-name="선 227" d="M-.211,5.389A.539.539,0,0,1-.75,4.851V-.211A.539.539,0,0,1-.211-.75a.539.539,0,0,1,.539.539V4.851A.539.539,0,0,1-.211,5.389Z" transform="translate(16.582 22.409)" fill="#040000"/>
      <path id="패스_55105" data-name="패스 55105" d="M32.513,33.052A.539.539,0,0,1,32,32.674l-6.845-21.9-2.247,3.37a.539.539,0,0,1-.943-.087l-3.8-8.877-6.029,14.6a.539.539,0,0,1-.931.114L9.7,17.857,4.558,31.975H26.768a.539.539,0,1,1,0,1.077H3.789a.539.539,0,0,1-.506-.723L9.027,16.546a.539.539,0,0,1,.939-.136L11.5,18.485l6.154-14.9a.539.539,0,0,1,.993-.007l3.917,9.14,2.321-3.481a.539.539,0,0,1,.962.138l7.181,22.98a.539.539,0,0,1-.514.7Z" transform="translate(-3.217 -3.217)" fill="#040000"/>
    </g>
  </g>
</svg>
