<svg xmlns="http://www.w3.org/2000/svg" width="32" height="32" viewBox="0 0 32 32">
  <g id="Performance_Tech_Runflat" transform="translate(-4 -4)">
    <rect id="사각형_12508" data-name="사각형 12508" width="32" height="32" transform="translate(4 4)" fill="none"/>
    <g id="Tech_Runflat" transform="translate(-0.407 -0.942)">
      <path id="패스_56442" data-name="패스 56442" d="M8.266,23.041c.462,3.176,3.181,5.735,5.124,5.735h5.234a.611.611,0,0,0,0-1.223H13.39c-1.135,0-3.513-1.934-3.914-4.689a12.962,12.962,0,0,1,1.221-7.4,11.3,11.3,0,0,1,2.1-3.151.611.611,0,1,0-.83-.9,12.187,12.187,0,0,0-2.371,3.522A14.182,14.182,0,0,0,8.266,23.041Z" transform="translate(-0.662 -1.109)"/>
      <path id="패스_56443" data-name="패스 56443" d="M26.861,28.776H32.1c1.942,0,4.661-2.559,5.124-5.735a14.186,14.186,0,0,0-1.328-8.107,12.21,12.21,0,0,0-2.37-3.522.612.612,0,1,0-.831.9,11.292,11.292,0,0,1,2.1,3.152,12.972,12.972,0,0,1,1.221,7.4c-.4,2.755-2.779,4.689-3.914,4.689H26.861a.611.611,0,0,0,0,1.223Z" transform="translate(-4.009 -1.109)"/>
      <path id="패스_56444" data-name="패스 56444" d="M18.573,31.946a.612.612,0,0,0-.611-.611H16.189a2.081,2.081,0,0,0-4.16,0h-2.6a15.642,15.642,0,0,1-2.878-5.363l-.058-.2a14.467,14.467,0,0,1-.309-7.86c.988-3.749,4.184-8.393,4.216-8.439a.61.61,0,0,0,.109-.348V5.861a.611.611,0,0,0-1.223,0V8.933A33.857,33.857,0,0,0,5.008,17.6a15.6,15.6,0,0,0,.316,8.508l.057.2A16.6,16.6,0,0,0,8.7,32.359a.613.613,0,0,0,.452.2H12.64a.612.612,0,0,0,.611-.611v-.553a.858.858,0,1,1,1.716,0v.553a.612.612,0,0,0,.611.611h2.383a.612.612,0,0,0,.611-.611Z"/>
      <path id="패스_56445" data-name="패스 56445" d="M41.479,17.6a33.857,33.857,0,0,0-4.284-8.664V5.861a.611.611,0,1,0-1.223,0V9.122a.61.61,0,0,0,.109.348c.032.047,3.227,4.69,4.215,8.439a14.445,14.445,0,0,1-.309,7.862l-.057.2a15.636,15.636,0,0,1-2.877,5.364H35.861a.611.611,0,1,0,0,1.223h1.473a.611.611,0,0,0,.451-.2A16.581,16.581,0,0,0,41.107,26.3l.056-.194A15.593,15.593,0,0,0,41.479,17.6Z" transform="translate(-5.672)"/>
      <path id="패스_56446" data-name="패스 56446" d="M25.437,38.032H24.011V28.861a.611.611,0,1,0-1.223,0v9.171H21.361a.611.611,0,1,0,0,1.223h4.076a.611.611,0,1,0,0-1.223Z" transform="translate(-2.992 -4.251)"/>
      <path id="패스_56447" data-name="패스 56447" d="M34.652,40.494,31,38.75l.86-2.7a.611.611,0,0,0-.821-.748l-2.293.97-.3-.658a.611.611,0,0,0-1.114.5l.542,1.2a.609.609,0,0,0,.8.312l1.62-.685-.619,1.945a.611.611,0,0,0,.319.737l2.21,1.056-2.444.279a.611.611,0,0,0,.068,1.219.689.689,0,0,0,.07,0l4.558-.521a.611.611,0,0,0,.194-1.159Z" transform="translate(-4.2 -5.545)"/>
      <path id="패스_56448" data-name="패스 56448" d="M11.976,18.031a.614.614,0,0,0,.132.666l1.63,1.63a.611.611,0,1,0,.865-.865l-.587-.587h3.415a.611.611,0,0,0,0-1.223H14.016l.587-.587a.611.611,0,1,0-.865-.865l-1.63,1.63A.612.612,0,0,0,11.976,18.031Z" transform="translate(-1.362 -1.991)"/>
      <path id="패스_56449" data-name="패스 56449" d="M28.54,18.877h3.415l-.587.587a.611.611,0,1,0,.865.865l1.63-1.63a.614.614,0,0,0,0-.865l-1.63-1.63a.611.611,0,0,0-.865.865l.587.587H28.54a.611.611,0,1,0,0,1.223Z" transform="translate(-4.319 -1.991)"/>
      <path id="패스_56450" data-name="패스 56450" d="M18.042,25.265a.612.612,0,0,0-.611-.611H14.016l.586-.586a.611.611,0,1,0-.865-.865l-1.63,1.63a.612.612,0,0,0,0,.865l1.63,1.63a.611.611,0,0,0,.865-.865l-.587-.587h3.415a.612.612,0,0,0,.611-.611Z" transform="translate(-1.362 -3.285)"/>
      <path id="패스_56451" data-name="패스 56451" d="M28.54,25.877h3.415l-.587.587a.611.611,0,1,0,.865.865l1.63-1.63a.612.612,0,0,0,0-.865l-1.63-1.63a.611.611,0,1,0-.865.865l.586.586H28.54a.611.611,0,1,0,0,1.223Z" transform="translate(-4.319 -3.285)"/>
    </g>
  </g>
</svg>
