<svg xmlns="http://www.w3.org/2000/svg" xmlns:xlink="http://www.w3.org/1999/xlink" width="192" height="20" viewBox="0 0 192 20">
  <defs>
    <clipPath id="clip-path">
      <rect id="사각형_13459" data-name="사각형 13459" width="192" height="20" transform="translate(321.53 856.268)" fill="none" stroke="#707070" stroke-width="1"/>
    </clipPath>
    <clipPath id="clip-path-2">
      <rect id="사각형_13457" data-name="사각형 13457" width="192" height="12.98"/>
    </clipPath>
  </defs>
  <g id="navigation_logo_AL10_Max_" data-name="navigation logo_AL10+(Max)" transform="translate(-321.53 -856.268)" clip-path="url(#clip-path)">
    <g id="그룹_12286" data-name="그룹 12286" transform="translate(321.531 859.779)">
      <g id="그룹_12285" data-name="그룹 12285" transform="translate(0 0)" clip-path="url(#clip-path-2)">
        <path id="패스_56010" data-name="패스 56010" d="M512.134,18.916l.542-1.7c.224-.7.451-1.34.673-1.888-.537.527-1.444,1.35-2.024,1.858l-2.262,1.969-1-1.969c-.253-.508-.636-1.33-.838-1.858-.121.548-.307,1.187-.531,1.888l-.543,1.7h-3.218l2.272-7.106h3.157l.912,1.9a11.146,11.146,0,0,1,.864,2.143,27.145,27.145,0,0,1,2.252-2.143l2.124-1.9h3.117l-2.282,7.106Z" transform="translate(-349.416 -8.205)"/>
        <path id="패스_56011" data-name="패스 56011" d="M552.845,18.916l-.275-1.248h-3.715l-1.076,1.248H544.1l6.769-7.106h3.462l2.226,7.106Zm-.686-3.278a10.224,10.224,0,0,1-.224-1.777c-.318.477-.64.873-1.37,1.777l-.379.467h2.051Z" transform="translate(-378.017 -8.205)"/>
        <path id="패스_56012" data-name="패스 56012" d="M592.022,16.706l-2.471-2.131-2.72,2.131h-3.888l5.193-3.593-5.057-4.484h3.979l3.519,2.961L593.1,9.6H597l-5.027,3.472L596,16.706Z" transform="translate(-405 -5.995)"/>
        <path id="패스_56013" data-name="패스 56013" d="M335.545,21.081l.794-2.217H340.6l-.8,2.217Z" transform="translate(-233.12 -13.106)"/>
        <path id="패스_56014" data-name="패스 56014" d="M400.237,17.554l1.726-4.391h-1.948l-1.72,4.419c-.193.489-.34.719-1.213.719h-2.011c-.873,0-.794-.23-.6-.719l2.1-5.495s-3.362.816-3.923.958a1.592,1.592,0,0,0-.79.908l-1.415,3.606c-.4,1.022.057,1.759,1.758,1.759h4.913a4.309,4.309,0,0,0,2.057-.5,2.2,2.2,0,0,0,1.07-1.265" transform="translate(-271.164 -8.397)"/>
        <path id="패스_56015" data-name="패스 56015" d="M430.534,12.244a6.705,6.705,0,0,0-1.874.452l-1.2,3.072h1.147a3.408,3.408,0,0,0,2.426-2.041c.456-1.2.216-1.483-.5-1.483m-1.225,4.611c-.986,0-5.651-.021-5.651-.021l2.754-7.109a.83.83,0,0,1,.612-.483l3.251-.718-1.065,2.747a6.333,6.333,0,0,1,2.55-.547c1.873,0,2.962.878,2.1,3.1a4.411,4.411,0,0,1-4.548,3.031" transform="translate(-294.337 -5.922)"/>
        <path id="패스_56016" data-name="패스 56016" d="M300.464,15.942c-.864,0-.873-.208-.686-.711l.272-.783c.186-.5.349-.711,1.213-.711h2.216c.865,0,.874.208.686.711l-.272.783c-.185.5-.348.711-1.213.711Zm3.374,3.357.469-1.2h-4.671c-.712,0-.843-.284-.69-.7l.122-.269,3.743-.007c1.781,0,2.578-.546,2.984-1.65l.578-1.636c.509-1.376-.494-1.825-2.53-1.825h-4.156c-2.272,0-3.067.415-3.654,2l-1.262,3.41c-.607,1.639.661,1.837,2.763,1.88Z" transform="translate(-204.687 -8.344)"/>
        <path id="패스_56017" data-name="패스 56017" d="M461.876,18.639c-.748,0-.755-.18-.593-.614l.235-.677c.161-.434.3-.615,1.049-.615h1.916c.748,0,.754.181.594.615l-.235.677c-.162.433-.3.614-1.05.614Zm2.919,2.9.4-1.038H461.16c-.617,0-.73-.246-.6-.606l.1-.233,3.238-.006c1.539,0,2.229-.472,2.58-1.427l.5-1.415c.441-1.19-.426-1.578-2.186-1.578H461.2c-1.964,0-2.652.359-3.16,1.729l-1.091,2.949c-.525,1.417.569,1.587,2.388,1.625Z" transform="translate(-317.377 -10.588)"/>
        <path id="패스_56018" data-name="패스 56018" d="M365.585,19.46l-4.036,0c-.967,0-1.325-.12-1.058-.8l.967-2.46c.268-.684.469-.867,1.576-.944l4.311-.29.429-1.1v0h-7.066c-1.857,0-2.986.8-3.424,1.921l-1.125,2.865c-.439,1.117.057,1.922,1.914,1.922h7.08Z" transform="translate(-247.339 -9.626)"/>
        <path id="패스_56019" data-name="패스 56019" d="M255.417,4.465l-.708,2.314h-2.845l.708-2.314h-2.766l.658-2.151h2.766L253.938,0h2.845l-.708,2.313h2.767l-.658,2.152Z" transform="translate(-173.553 0)"/>
        <path id="패스_56020" data-name="패스 56020" d="M14.21,13.232l-.417-2.211H7.752L5.983,13.232H0L11.154.648h5.638L20.25,13.232ZM13.166,7.425a22.869,22.869,0,0,1-.333-3.146c-.517.845-1.048,1.546-2.256,3.146l-.627.827h3.337Z" transform="translate(0 -0.45)"/>
        <path id="패스_56021" data-name="패스 56021" d="M72.439,13.232,76.287.649h5.638l-2.918,9.545h8.917l-.929,3.038Z" transform="translate(-50.327 -0.451)"/>
        <path id="패스_56022" data-name="패스 56022" d="M134.6,13.233l2.649-8.665h-3.394l.676-2.211c2.616-.09,3.789-.54,4.722-1.708h4.66l-3.847,12.584Z" transform="translate(-92.998 -0.451)"/>
        <path id="패스_56023" data-name="패스 56023" d="M177.4,12.98c-5.235,0-8.391-2.283-7.111-6.472S176.192,0,181.427,0s8.392,2.284,7.111,6.472-5.9,6.508-11.137,6.508M180.451,3a4.4,4.4,0,0,0-4.426,3.469c-.7,2.3.194,3.505,2.351,3.505A4.4,4.4,0,0,0,182.8,6.508c.7-2.3-.194-3.505-2.351-3.505" transform="translate(-118.112 0)"/>
      </g>
    </g>
  </g>
</svg>
