<svg xmlns="http://www.w3.org/2000/svg" xmlns:xlink="http://www.w3.org/1999/xlink" width="192" height="20" viewBox="0 0 192 20">
  <defs>
    <clipPath id="clip-path">
      <rect id="사각형_14037" data-name="사각형 14037" width="192" height="20" transform="translate(321.53 856.268)" fill="none" stroke="#707070" stroke-width="1"/>
    </clipPath>
    <clipPath id="clip-path-2">
      <rect id="사각형_14050" data-name="사각형 14050" width="143.855" height="12.496"/>
    </clipPath>
  </defs>
  <g id="navigation_logo_DW06" data-name="navigation logo_DW06" transform="translate(-321.53 -856.268)" clip-path="url(#clip-path)">
    <g id="그룹_12977" data-name="그룹 12977" transform="translate(321.531 860.02)">
      <g id="그룹_12977-2" data-name="그룹 12977" transform="translate(0 0)" clip-path="url(#clip-path-2)">
        <path id="패스_56478" data-name="패스 56478" d="M56.084,12.141c1.4-4.03,5.024-5.977,10.211-7.309,2.193-.563,2.551-.751,2.7-1.229.162-.529-.35-.82-1.88-.82A17.294,17.294,0,0,0,61.06,4L59.376,1.554A24.684,24.684,0,0,1,68.045,0c4.753,0,6.874,1.2,6.21,3.365-.48,1.571-1.647,2.527-5.63,3.586-4.163,1.11-5.432,1.777-6.061,2.493h9.97l-.825,2.7Z" transform="translate(-19.641 0)"/>
        <path id="패스_56479" data-name="패스 56479" d="M12.5,6.727a21.682,21.682,0,0,1-.316-2.989c-.491.8-1,1.469-2.143,2.989l-.6.785h3.169Zm.99,5.515-.4-2.1H7.361l-1.68,2.1H0L10.592.288h5.354l3.283,11.954Z" transform="translate(0 -0.101)"/>
        <path id="패스_56480" data-name="패스 56480" d="M31.7,12.242,35.351.288h5.354L37.933,9.356H46.4l-.882,2.886Z" transform="translate(-11.1 -0.101)"/>
        <path id="패스_56481" data-name="패스 56481" d="M93.1,6.945c-2.337,0-3.622.561-3.908,1.495-.26.849.591,1.444,2.9,1.444,1.984,0,3.471-.509,3.762-1.461.281-.917-.743-1.478-2.754-1.478m-2.073,5.536c-4.783,0-7.594-1.647-6.592-4.925C85.393,4.414,89.99.22,100.86.22l-.825,2.7c-4.973,0-7.862.917-9.724,2.293a16.035,16.035,0,0,1,5.1-.7c3.94,0,6.354,1.172,5.585,3.685-.82,2.684-4.6,4.28-9.976,4.28" transform="translate(-29.498 -0.077)"/>
        <path id="패스_56482" data-name="패스 56482" d="M139.03,12.69l.9-2.509h4.825l-.9,2.509Z" transform="translate(-48.689 -3.565)"/>
        <path id="패스_56483" data-name="패스 56483" d="M179.374,12.765,181.327,7.8h-2.2l-1.946,5c-.218.554-.385.815-1.373.815H173.53c-.99,0-.9-.261-.682-.815l2.373-6.217s-3.805.923-4.437,1.083a1.794,1.794,0,0,0-.894,1.028c-.138.354-1.6,4.079-1.6,4.079-.452,1.157.064,1.989,1.988,1.989h5.561a4.9,4.9,0,0,0,2.327-.563,2.5,2.5,0,0,0,1.21-1.431" transform="translate(-58.882 -2.304)"/>
        <path id="패스_56484" data-name="패스 56484" d="M192.257,14.112c-1.114,0-6.393-.024-6.393-.024l3.115-8.044a.938.938,0,0,1,.693-.546l3.678-.812-1.2,3.107a7.164,7.164,0,0,1,2.884-.619c2.12,0,3.352.993,2.375,3.508a4.993,4.993,0,0,1-5.146,3.43m1.387-5.217a7.58,7.58,0,0,0-2.122.512l-1.358,3.476h1.3a3.858,3.858,0,0,0,2.746-2.311c.516-1.354.244-1.677-.563-1.677" transform="translate(-65.091 -1.641)"/>
        <path id="패스_56485" data-name="패스 56485" d="M127.709,14.784l.529-1.359h-5.284c-.806,0-.955-.323-.78-.793l.136-.3,4.238-.007c2.013,0,2.916-.618,3.375-1.866l.654-1.853c.577-1.558-.558-2.065-2.861-2.065h-4.7c-2.571,0-3.47.472-4.135,2.263l-1.428,3.857c-.686,1.856.747,2.079,3.126,2.128Zm-3.819-3.8c-.978,0-.986-.237-.777-.806l.309-.885c.21-.569.4-.805,1.372-.805H127.3c.979,0,.988.236.778.805l-.307.885c-.211.569-.4.806-1.374.806Z" transform="translate(-41.071 -2.289)"/>
        <path id="패스_56486" data-name="패스 56486" d="M212.511,15.387l.459-1.176H208.4c-.7,0-.826-.279-.674-.686l.116-.262,3.664-.006c1.742,0,2.522-.535,2.921-1.615l.563-1.6c.5-1.347-.482-1.784-2.473-1.784h-4.068c-2.223,0-3,.405-3.574,1.955l-1.235,3.336c-.595,1.6.645,1.8,2.7,1.839Zm-3.3-3.285c-.845,0-.853-.2-.67-.7l.266-.765c.181-.492.34-.7,1.187-.7h2.168c.846,0,.854.2.671.7l-.265.765c-.184.491-.342.7-1.187.7Z" transform="translate(-71.264 -2.892)"/>
        <path id="패스_56487" data-name="패스 56487" d="M160.741,13.861l-4.566,0c-1.094,0-1.5-.135-1.2-.909l1.095-2.785c.3-.775.53-.979,1.783-1.068l4.879-.328.485-1.242v0h-8c-2.1,0-3.376.91-3.871,2.172l-1.274,3.244c-.5,1.263.064,2.174,2.166,2.174h8.01Z" transform="translate(-52.499 -2.634)"/>
      </g>
    </g>
  </g>
</svg>
