<svg xmlns="http://www.w3.org/2000/svg" xmlns:xlink="http://www.w3.org/1999/xlink" width="372" height="28" viewBox="0 0 372 28">
  <defs>
    <clipPath id="clip-path">
      <rect id="사각형_12435" data-name="사각형 12435" width="372" height="28" transform="translate(0 4569)" fill="#fff" opacity="0"/>
    </clipPath>
    <clipPath id="clip-path-2">
      <rect id="사각형_13587" data-name="사각형 13587" width="205.961" height="28" fill="#fff"/>
    </clipPath>
  </defs>
  <g id="logo_ventus_s1_evo3" transform="translate(0 -4569)" clip-path="url(#clip-path)">
    <g id="그룹_12896" data-name="그룹 12896" transform="translate(0 4569)">
      <g id="그룹_12896-2" data-name="그룹 12896" transform="translate(0 0)" clip-path="url(#clip-path-2)">
        <path id="패스_56139" data-name="패스 56139" d="M366.391,46.5h8.157l.522-1.954h-8.155l.348-1.289a2.429,2.429,0,0,1,2.584-1.935h7.226l.524-1.954h-8.724c-2.712,0-4.6,1.367-5.217,3.68l-2.312,8.63H374.3l.522-1.953h-9.292Z" transform="translate(-217.341 -23.681)" fill="#fff"/>
        <path id="패스_56140" data-name="패스 56140" d="M406.788,51.681c-4.325,0-6.714-2.769-5.8-6.164s4.773-6.146,9.1-6.146h5.5l-.522,1.955h-4.953a5.113,5.113,0,0,0-5.469,4.211c-.682,2.54-.006,4.192,3.219,4.192h4.95l-.523,1.953Z" transform="translate(-241.07 -23.681)" fill="#fff"/>
        <path id="패스_56141" data-name="패스 56141" d="M441.887,51.68c-4.323,0-6.716-2.751-5.8-6.144.912-3.413,4.779-6.165,9.084-6.165,4.323,0,6.715,2.752,5.807,6.146-.915,3.413-4.781,6.164-9.086,6.164m2.757-10.355c-2.769,0-4.224,1.669-4.9,4.211s-.128,4.231,2.641,4.231c2.691,0,4.206-1.691,4.887-4.231s.274-4.211-2.625-4.211" transform="translate(-262.179 -23.681)" fill="#fff"/>
        <path id="패스_56142" data-name="패스 56142" d="M61.372,43.21l4.792-17.884H60.416c-.027.1-4.747,17.712-4.793,17.884Z" transform="translate(-33.456 -15.233)" fill="#fff"/>
        <path id="패스_56143" data-name="패스 56143" d="M102.239,26.965c-.835-1.088-2.408-1.638-4.679-1.638H84.314c-.028.1-4.748,17.712-4.793,17.884h5.751L89.052,29.1h4.9a2.979,2.979,0,0,1,2.505.87,2.224,2.224,0,0,1,.4,1.382,7.138,7.138,0,0,1-.286,1.775s-2.659,9.916-2.7,10.087h5.749l2.964-11.051a10.425,10.425,0,0,0,.4-2.661,4.034,4.034,0,0,0-.746-2.534" transform="translate(-47.83 -15.234)" fill="#fff"/>
        <path id="패스_56144" data-name="패스 56144" d="M146.848,32.609l.368-1.378a3.611,3.611,0,0,1,3.853-2.887h10c.026-.1.766-2.856.808-3.018H149.188c-3.9,0-6.66,1.944-7.569,5.335l-3.362,12.55h18.825c.026-.1.766-2.857.809-3.02H144.818l1.14-4.265h11.41c.026-.1.846-3.155.888-3.317Z" transform="translate(-83.159 -15.234)" fill="#fff"/>
        <path id="패스_56145" data-name="패스 56145" d="M253.5,34.272a7.819,7.819,0,0,0-.276,2.026,6.245,6.245,0,0,0,1.277,3.86c1.511,1.969,4.149,3.053,7.428,3.053h9.609c.027-.1,2.8-10.445,2.841-10.6H265.2l-.891,3.317h3.426L266.6,40.192h-2.243c-2.292,0-3.785-.493-4.565-1.51a3.447,3.447,0,0,1-.639-2.164,8.881,8.881,0,0,1,.341-2.252c1.1-4.095,3.567-5.921,8-5.921h7.2c.026-.1.768-2.856.811-3.018h-8.74c-6.193,0-11.893,3.845-13.259,8.945" transform="translate(-152.307 -15.234)" fill="#fff"/>
        <path id="패스_56146" data-name="패스 56146" d="M317.509,25.326h-5.486l4.583,11.713-5.737,6.172,5.691.022,16.625-17.907H327.5c-.041.043-7.016,7.546-7.016,7.546l-2.971-7.546" transform="translate(-186.981 -15.233)" fill="#fff"/>
        <path id="패스_56147" data-name="패스 56147" d="M207.876,25.326H197.109c-.027.1-4.746,17.712-4.791,17.884h5.749c.026-.1,4.062-15.163,4.062-15.163h2.586l.728,0c2.092-.013,3.9-.024,4.624.915a2.205,2.205,0,0,1,.183,1.989c-.753,2.8-3.62,2.781-6.393,2.759l-.757,0h-1.881l5.264,9.507h6.356c-.117-.2-4.213-7.285-4.213-7.285h.12c3.727,0,6.356-1.838,7.214-5.043a6.287,6.287,0,0,0,.239-1.62,3.116,3.116,0,0,0-.612-1.959c-1.05-1.369-3.428-1.978-7.711-1.978" transform="translate(-115.675 -15.233)" fill="#fff"/>
        <path id="패스_56148" data-name="패스 56148" d="M24.128,25.3l-6.738-.012-8.464,6.04,1.616-6.027H4.79C4.764,25.407.046,43.018,0,43.191H5.748l1.695-6.326.085.094s5.578,6.2,5.578,6.232h7.481L12.117,33.8s11.66-8.252,12.011-8.5" transform="translate(0 -15.213)" fill="#fff"/>
        <path id="패스_56149" data-name="패스 56149" d="M153.035,11.367l-.651,2.428h28.448l.652-2.428Z" transform="translate(-91.656 -6.837)" fill="#fff"/>
        <path id="패스_56150" data-name="패스 56150" d="M330.155,1.865,328.756,0a25.237,25.237,0,0,1-13.947,4.518l-14.91.006-.653,2.435,15.207,0a28.021,28.021,0,0,0,15.7-5.091" transform="translate(-179.99 0)" fill="#fff"/>
        <path id="패스_56151" data-name="패스 56151" d="M226.538,11.367l-.652,2.428h28.449l.65-2.428Z" transform="translate(-135.866 -6.837)" fill="#fff"/>
        <path id="패스_56152" data-name="패스 56152" d="M481.966,34.851c.893-2.387,3.226-3.883,7.675-4.955,1.816-.435,2.292-.61,2.424-1.2a.657.657,0,0,0-.115-.583c-.25-.322-.8-.459-1.836-.459a15.094,15.094,0,0,0-4.89.876l-1.105-1.316a20.716,20.716,0,0,1,6.576-1.023c3.325,0,4.518.63,4.932,1.159a1.109,1.109,0,0,1,.18,1.008c-.247,1.006-.995,1.7-4.23,2.512-3.551.888-4.553,1.415-5.082,2.025l-.486.561h8.665l-.345,1.4Z" transform="translate(-289.893 -15.751)" fill="#fff"/>
      </g>
    </g>
  </g>
</svg>
