<svg xmlns="http://www.w3.org/2000/svg" width="880" height="280" viewBox="0 0 880 280">
  <g id="logo_dynapro_color" transform="translate(-31 9)">
    <rect id="사각형_13172" data-name="사각형 13172" width="880" height="280" transform="translate(31 -9)" fill="#fff" opacity="0"/>
    <path id="패스_45444" data-name="패스 45444" d="M447.326,285.855l-38.423-.019c-11.989,0-29.527,7.033-32.106,17.216l-8.549,34.51c-1.788,8.786,6.879,22.018,23.088,22.018h43.842c14.1,0,30.165-9.668,33.026-20.969l8.213-33.183C478.237,295.872,464.441,285.855,447.326,285.855Zm-10.535,26.378-5.286,22.337c-.971,3.94-5.97,7.833-12.642,7.833h-1.971c-6.521,0-9.853-3.952-9.176-7.077l6.222-26.257c2.989-5.3,6.585-5.3,12.192-5.3h2.562C435.971,303.774,437.908,307.706,436.791,312.234Z" transform="translate(418.719 -186.656)" fill="#a68900"/>
    <path id="패스_45445" data-name="패스 45445" d="M224.42,285.9H188.23l-18.446,73.735h38.2l13.983-56.049c1.025-4.012,2.89-6.017,8.05-6.017h6.948c6.808,0,7.052,2.624,5.782,7.667l-13.684,54.4h38.469l13.168-53.28c3.214-12.674-2.7-20.455-18.464-20.455Z" transform="translate(127.301 -186.564)" fill="#a68900"/>
    <path id="패스_45446" data-name="패스 45446" d="M287.446,313.114H245.981c-10.764,0-20.1,4.508-22.552,14.186l-3.236,15.329c-3.337,13.175,4.019,17.078,18.723,17.078h74.851L327.83,303.54c2.675-10.545-4.318-17.567-17.016-17.7l-65.961.129-2.969,11.669h41.488c3.942,0,7.973.247,6.948,4.268l-2.873,11.2m0,0M278.6,348.026H264.137c-6.81,0-7.961-2.631-6.64-7.922l2.443-7.539c1.361-5.392,5.716-7.9,12.686-7.9h11.928Z" transform="translate(200.238 -186.639)" fill="#a68900"/>
    <path id="패스_45447" data-name="패스 45447" d="M362.881,286.037H286.818l-21.757,84.9h40.058l6.341-24.409h36.11c15.149,0,27.549-2.888,31.2-17.31l6.516-25.738C389.042,288.668,377.6,286.037,362.881,286.037Zm-16.369,21.339-3.937,15.562c-1.783,7.022-2.631,9.786-12.338,9.786h-15.27l8.325-32.887h17.253C347.364,299.837,347.831,302.229,346.512,307.376Z" transform="translate(267.365 -186.354)" fill="#a68900"/>
    <path id="패스_45448" data-name="패스 45448" d="M184.672,347.782l-.79,3.144c-1.393,5.508-2.747,8.4-10.312,8.4H122.223l-3.09,12.165h64.249c19.662-.383,33.647-.479,38.575-19.954l.805-3.751L238.436,285.9h-38.1l-10.382,41.035c-1.237,4.284-2.186,9.172-8.994,9.172h-5.288c-8.779,0-9.085-2.984-7.41-9.66l10.28-40.547H140.309l-9.364,37.039c-4.231,16.695-.1,24.847,21.144,24.847Z" transform="translate(52.84 -186.564)" fill="#a68900"/>
    <path id="패스_45449" data-name="패스 45449" d="M169.534,281.308H89.9L68.347,366.375h79.648c19.252,0,28.915-10.214,32.511-24.362l9.2-36.357C193.323,291.376,188.321,281.308,169.534,281.308Zm-20.559,23.987-9.411,37.085c-1.707,6.768-3.132,9.947-12.531,9.947H112.579l14.435-57h14.467C150.867,295.33,150.69,298.522,148.975,305.295Z" transform="translate(-21.82 -193.314)" fill="#a68900"/>
    <path id="패스_45450" data-name="패스 45450" d="M412.775,285.836H334.6l-19.153,73.745h40.057l6.341-24.41h15.028l9.078,24.41h40.057L416.24,333.3c7.341-2.186,12.8-6.674,15.028-15.443l3.915-14.586C438.935,288.467,427.492,285.836,412.775,285.836Zm-41.7,13.8h17.251c6.822,0,7.289,2.391,5.97,7.538l-1.336,4.406c-1.784,7.022-2.631,9.789-12.338,9.789h-15.27Z" transform="translate(341.441 -186.656)" fill="#a68900"/>
  </g>
</svg>
