<svg xmlns="http://www.w3.org/2000/svg" width="880" height="280" viewBox="0 0 880 280">
  <g id="logo_wintericept-ipike_white" transform="translate(-31 9)">
    <rect id="사각형_13172" data-name="사각형 13172" width="880" height="280" transform="translate(31 -9)" fill="#fff" opacity="0"/>
    <g id="winter_ipike" data-name="winter ipike" transform="translate(36.969 168.24)">
      <path id="Path_45715" data-name="Path 45715" d="M715.014,468.294H676.851l19.541-63.786,7.843-24.807h35.294l-43.093,24.807h38.017l-19.406,63.786Z" transform="translate(-308.548 -379.7)" fill="#fff"/>
      <path id="Path_45716" data-name="Path 45716" d="M734.61,468.294H696.447l19.529-63.786L723.82,379.7h35.293l-43.1,24.807h38.029l-19.407,63.786Z" transform="translate(-108.581 -379.7)" fill="#fff"/>
      <path id="Path_45717" data-name="Path 45717" d="M807.456,468.294H766.438l-8.605-26.611L745.6,448.966,739.6,468.294H701.586l19.542-63.742L766.841,379.7,758.9,405.717c-1.311,4.247-4.695,14.084-6.253,18.1,3.777-3.048,15.228-10.331,20.964-13.849l9.12-5.456h43.5L791.58,423.689l15.889,44.6Z" transform="translate(-56.141 -379.7)" fill="#fff"/>
      <path id="Path_45718" data-name="Path 45718" d="M726.6,407.2H713.577l2.991,11.261-10.554,5.176-2.992-11.2-10.083,11.2-7.295-5.176,9.894-11.261H682.518l3.127-10.353h13.019l-2.99-11.2,10.543-5.188,2.992,11.2,10.027-11.2,7.294,5.188-9.9,11.2h13.087L726.586,407.2Z" transform="translate(-250.719 -372.036)" fill="#fff"/>
      <path id="패스_45774" data-name="패스 45774" d="M767.786,384.416H733.411l8.2-4.717H706.32l-7.845,24.807,8.964-5.177-20.975,68.964h34.129l7.674-23.686h25.916c24.347,0,41.67-9,48.705-31.855h.068C810.251,389.067,788.761,384.416,767.786,384.416ZM768,413.482a24.367,24.367,0,0,1-24.358,15.249c-5.871,0-11.2-.325-11.2-.325l9.108-29.356h12.65C762.262,399.05,771.9,400.73,768,413.482Z" transform="translate(-210.453 -379.7)" fill="#fff"/>
      <path id="Path_45720" data-name="Path 45720" d="M793.814,381.932H759.684c-35.854,0-41.67,21.288-41.67,21.288L712.8,419.77c-7.417,24.191,26.443,25.9,26.443,25.9h69.535l4.168-13.748H758.518c-13.938,0-9.512-10.084-9.512-10.084l.919-2.913h67.227l3.26-10.8c8.459-27.228-26.566-26.208-26.566-26.208Zm-10.084,23.7H754.038a14.737,14.737,0,0,1,13.444-10.7h8.851c14.846,0,7.429,10.7,7.429,10.7Z" transform="translate(47.498 -357.081)" fill="#fff"/>
      <path id="Path_45721" data-name="Path 45721" d="M673.571,419.46l11.585-37.681H663.531L652.069,419.46Z" transform="translate(-561.436 -358.485)" fill="#fff"/>
      <path id="Path_45722" data-name="Path 45722" d="M726.769,383.306a24.139,24.139,0,0,0-9.636-1.58,31.992,31.992,0,0,0-14.565,3.518l.784-2.734H681.839L670.377,420.2h21.49l6.251-20.527c1.423-4.616,5.211-6.118,10.409-6.118a12.979,12.979,0,0,1,8.963,3.16l9.245-13.445Z" transform="translate(-374.612 -359.228)" fill="#fff"/>
      <path id="Path_45723" data-name="Path 45723" d="M698.363,422.555h-8.594c-3.653,0-5.076-.84-4.3-3.72l4.167-13.636h13.681l3.126-10.084H692.761l4.56-14.645-20.448,5.11-2.857,9.536H664.5l-3.25,10.084h9.635l-4.952,16.358c-2.611,8.549,1.557,11.988,12.9,11.988h13.445l6.118-10.991Z" transform="translate(-467.718 -371.832)" fill="#fff"/>
      <path id="Path_45724" data-name="Path 45724" d="M745.694,380.658H722.165L705.5,410.91l.134-30.252H684.406L666.041,410.91l1.949-30.252H643.98l4.694,50.241h21.1l19.272-31.731L688.91,430.9H710.4Z" transform="translate(-643.98 -369.924)" fill="#fff"/>
      <path id="Path_45725" data-name="Path 45725" d="M708.9,381.8H692.622c-20.582,0-23.966,12.538-23.966,12.538l-2.992,9.726c-4.3,14.23,15.239,15.249,15.239,15.249h36.459l2.477-8.078H690.279c-8.077,0-6.644-5.927-6.644-5.927l.516-1.715h38.027l1.961-6.364c4.818-16-15.238-15.406-15.238-15.406Zm-3,13.939H686.493a9.624,9.624,0,0,1,8.863-6.3h5.221c8.46,0,5.334,6.3,5.334,6.3Z" transform="translate(-429.024 -358.311)" fill="#fff"/>
      <path id="Path_45726" data-name="Path 45726" d="M706.294,381.778,699,405.542l-13.668-23.763H666.182l-11.462,37.68h19.16l7.293-23.776,13.681,23.776H714l11.462-37.68Z" transform="translate(-534.383 -358.495)" fill="#fff"/>
      <path id="Path_45727" data-name="Path 45727" d="M676.945,386.338c-1.042,3.249-7.159,5.882-13.669,5.882s-10.948-2.633-9.905-5.882,7.171-5.883,13.68-5.883,10.937,2.634,9.894,5.883Z" transform="translate(-549.706 -371.996)" fill="#fff"/>
    </g>
    <g id="winter_icept" data-name="winter icept" transform="translate(36.971 20.219)">
      <path id="빼기_1" data-name="빼기 1" d="M0,85.3v-.008L26.035,0H89.382c12.452,0,20.907,2.9,25.126,8.626,3.792,5.153,4.188,12.682,1.181,22.383-3.328,10.91-9.192,19.223-17.443,24.713-7.942,5.283-18.1,7.961-30.2,7.961H43.7L39.637,76.748,0,85.3ZM58.219,16.248,49.058,46.055H62.667c9.829,0,13.349-5.267,16.114-14.365,1.973-6.722,2.1-10.732.4-13C77.914,17,75.613,16.248,71.71,16.248Z" transform="translate(667.103 25.991)" fill="#fff" stroke="rgba(0,0,0,0)" stroke-miterlimit="10" stroke-width="1"/>
      <path id="패스_45367" data-name="패스 45367" d="M945.583,176.328a8.145,8.145,0,0,1-7.33,5.562H928.57l2.219,8.456c.787,2.657-1.172,6.058-4.312,7.589s-6.148.619-6.936-2.038l-2.23-8.467L909.72,195.9c-2.354,2.657-6.013,3.569-8.107,2.038-2.23-1.531-2.094-4.932.259-7.589l7.454-8.456h-9.807c-3.018,0-4.717-2.488-3.8-5.562a8.114,8.114,0,0,1,7.2-5.551h9.807l-2.353-8.456c-.654-2.669,1.317-6.058,4.447-7.589s6.16-.631,6.948,2.027l2.219,8.468,7.466-8.468c2.353-2.657,6.011-3.558,8.241-2.027s2.094,4.92-.259,7.589l-7.465,8.456h9.683c3.142,0,4.844,2.489,3.93,5.551Z" transform="translate(-462.771 -144.834)" fill="#fff"/>
      <path id="패스_45368" data-name="패스 45368" d="M983.366,155.37H955.229c-35.593,0-41.482,21.71-41.482,21.71l-5.113,16.856c-7.453,24.649,26.18,26.416,26.18,26.416l7.984-.034h55.366l4.313-14h-51.3c-14.006,0-11.518-10.27-11.518-10.27l.912-2.973h65.973l3.267-11c8.375-27.745-26.441-26.709-26.441-26.709Zm-5.1,24.142h-33.5c3.265-10.8,15.3-10.9,15.3-10.9h8.906c14.785,0,9.291,10.9,9.291,10.9Z" transform="translate(-338.793 -130.688)" fill="#fff"/>
      <path id="패스_45369" data-name="패스 45369" d="M996.123,155.365H947.311c-35.728,0-41.616,21.709-41.616,21.709l-5.114,16.856c-7.318,24.648,26.316,26.416,26.316,26.416l7.983-.034h41.357l4.19-14h-37.17c-14.008,0-11.654-10.269-11.654-10.269l.912-2.972,4.188-13.569c3.276-10.8,15.314-10.9,15.314-10.9H992.07l4.053-13.242Z" transform="translate(-421.047 -130.683)" fill="#fff"/>
      <path id="패스_45370" data-name="패스 45370" d="M997.385,223.068h-14.4c-5.888,0-8.377-1.408-6.936-6.159l6.936-22.576h22.52l5.1-16.755H988.1l7.454-24.254-38.736,8.445-4.84,15.809H927.1l6.937,16.755H946.86l-8.243,27.08c-4.313,14.154,2.625,19.829,21.338,19.829h27.216l10.214-18.174Z" transform="translate(-138.295 -151.634)" fill="#fff"/>
      <path id="패스_45372" data-name="패스 45372" d="M927.721,241.5H889.636l19.634-63.6,7.719-24.727H952.2L909.27,177.9h37.823l-19.372,63.6Z" transform="translate(-522.651 -153.173)" fill="#fff"/>
      <path id="패스_45373" data-name="패스 45373" d="M886.531,192.81l11.385-37.575H876.452L865.065,192.81Z" transform="translate(-774.758 -132.019)" fill="#fff"/>
      <path id="패스_45374" data-name="패스 45374" d="M939.375,156.741a24.038,24.038,0,0,0-9.56-1.576,32.025,32.025,0,0,0-14.526,3.5l.79-2.714H894.616l-11.4,37.575h21.473l6.147-20.471c1.567-4.594,5.238-6.092,10.474-6.092a13.694,13.694,0,0,1,9.03,3.142l9.031-13.366Z" transform="translate(-588.486 -132.735)" fill="#fff"/>
      <path id="패스_45375" data-name="패스 45375" d="M911.088,195.949s-5.755-.011-8.637-.011c-3.536,0-4.978-.844-4.188-3.7l4.188-13.6H915.93l3.277-10.089H905.592l4.448-14.6-20.278,5.09-3.018,9.515h-9.424l-3.142,10.089h9.56l-4.977,16.316c-2.613,8.524,1.577,11.947,12.826,11.947H904.94l6.148-10.945Z" transform="translate(-681.269 -145.324)" fill="#fff"/>
      <path id="패스_45376" data-name="패스 45376" d="M958.346,154.124H934.786L918.3,184.232l.133-30.108h-21.2L878.9,184.232l1.963-30.108h-23.82l4.579,50.087H882.7l19.241-31.641-.265,31.641H923.14l35.205-50.087Z" transform="translate(-857.045 -143.42)" fill="#fff"/>
      <path id="패스_45377" data-name="패스 45377" d="M921.622,155.254H905.4c-20.55,0-23.95,12.5-23.95,12.5l-2.882,9.706c-4.324,14.188,15.054,15.19,15.054,15.19l4.707-.011h31.8l2.488-8.062H903.031c-7.983,0-6.666-5.9-6.666-5.9l.517-1.712h38.094l1.825-6.339c4.841-15.956-15.179-15.37-15.179-15.37Zm-2.884,13.906H899.371c1.835-6.216,8.772-6.272,8.772-6.272h5.1c8.511,0,5.494,6.272,5.494,6.272Z" transform="translate(-642.717 -131.845)" fill="#fff"/>
      <path id="패스_45378" data-name="패스 45378" d="M919.126,155.235l-7.2,23.7-13.741-23.7h-19.11L867.692,192.81h18.975L894,169.11l13.612,23.7h19.108l11.517-37.575Z" transform="translate(-747.808 -132.019)" fill="#fff"/>
      <path id="패스_45412" data-name="패스 45412" d="M889.785,159.788c-1.048,3.243-7.072,5.867-13.615,5.867-6.406,0-10.854-2.624-9.818-5.867s7.207-5.866,13.613-5.866c6.554,0,10.866,2.635,9.82,5.866Z" transform="translate(-763.095 -145.489)" fill="#fff"/>
    </g>
  </g>
</svg>
