<svg id="logo_ion_white" xmlns="http://www.w3.org/2000/svg" width="880" height="280" viewBox="0 0 880 280">
  <rect id="사각형_13489" data-name="사각형 13489" width="880" height="280" transform="translate(0 0)" fill="#fff" opacity="0"/>
  <path id="패스_46713" data-name="패스 46713" d="M256.391,0c-8.43-.04-12.312,2.709-14.325,10.14l-2.549,9.983c-2.013,7.434.377,10.213,8.807,10.25,8.114.04,12.049-2.806,14.032-10.14l2.552-9.983c1.983-7.337-.4-10.213-8.517-10.25" transform="translate(81.52 72)" fill="#fff"/>
  <path id="패스_46714" data-name="패스 46714" d="M258.241,10.561c-8.43-.04-12.312,2.709-14.325,10.14L227.4,86.642c-2.009,7.434.376,10.213,8.807,10.25,8.114.04,12.049-2.806,14.035-10.14l16.514-65.941c1.982-7.337-.4-10.213-8.517-10.25" transform="translate(53.27 96.633)" fill="#fff"/>
  <path id="패스_46715" data-name="패스 46715" d="M314.08,9.062c-22.126,0-37.59,4.029-48.67,12.679-11.852,9.25-16.354,22.392-18.95,32.809-5.895,23.625-4.529,45.488,44.931,45.488s61.729-21.862,67.62-45.488c2.6-10.416,4.652-23.559-2.586-32.809C349.658,13.091,336.2,9.062,314.08,9.062m-4.345,17.417c31.409,0,31.042,10.553,26.711,27.93-4.378,17.551-9.3,28.21-40.713,28.21-31.276,0-30.876-10.66-26.5-28.21,4.335-17.377,9.223-27.93,40.5-27.93" transform="translate(93.627 93.133)" fill="#fff"/>
  <path id="패스_46716" data-name="패스 46716" d="M359.827,91.2c3.2,4.918,5.222,9.1,13.7,9.1h8.81c8.647,0,13.852-4.105,15.912-12.549l17.081-70.033c.956-3.922.29-8.594-8.314-8.594s-11.553,4.672-12.509,8.594L378.627,82.8,339.2,18.22c-3.445-5.768-5.245-9.1-13.842-9.1h-8.38c-8.744,0-14,4.105-16.055,12.549L283.273,91.491c-1.389,5.7,1.456,8.594,8.46,8.594,8.487,0,11.409-4.675,12.366-8.594L320.538,26.63l.076.007Z" transform="translate(184.338 93.281)" fill="#fff"/>
</svg>
