<svg xmlns="http://www.w3.org/2000/svg" width="880" height="280" viewBox="0 0 880 280">
  <g id="logo_kinergy_white" transform="translate(-31 9)">
    <rect id="사각형_13172" data-name="사각형 13172" width="880" height="280" transform="translate(31 -9)" fill="#fff" opacity="0"/>
    <path id="패스_45331" data-name="패스 45331" d="M708.912,154.945c-1.946,0-31.674-.068-31.674-.068l-39.775,31.548s7.381-30.6,7.6-31.479H618.033c-.126.526-22.29,92.527-22.507,93.419h27.016c.115-.526,7.952-33.046,7.952-33.046l.413.492s26.215,32.383,26.215,32.554h35.153c-.963-1.178-39.811-49.044-39.811-49.044s54.8-43.1,56.448-44.375Z" transform="translate(-474.76 -66.854)" fill="#fff"/>
    <path id="패스_45332" data-name="패스 45332" d="M631.645,248.3c.136-.526,22.3-92.526,22.518-93.419H627.148c-.114.526-22.3,92.526-22.52,93.419Z" transform="translate(-379.699 -66.791)" fill="#fff"/>
    <path id="패스_45333" data-name="패스 45333" d="M715.3,163.442c-3.925-5.687-11.328-8.559-21.992-8.559H631.071c-.136.526-22.324,92.526-22.531,93.419h27.028c.127-.526,17.759-73.726,17.759-73.726h23.034c5.814,0,9.669,1.487,11.787,4.543a12.6,12.6,0,0,1,1.864,7.22,41.03,41.03,0,0,1-1.338,9.28s-12.5,51.79-12.7,52.683h27.006c.125-.526,13.926-57.729,13.926-57.729a59.887,59.887,0,0,0,1.9-13.892c0-5.469-1.168-9.852-3.5-13.239Z" transform="translate(-338.848 -66.791)" fill="#fff"/>
    <path id="패스_45334" data-name="패스 45334" d="M658.523,192.919l1.727-7.186c2.4-10.013,8.5-15.082,18.114-15.082h46.973c.126-.5,3.593-14.921,3.8-15.768H669.52c-18.32,0-31.3,10.161-35.563,27.863,0,0-15.586,64.663-15.8,65.556h88.464c.127-.5,3.6-14.921,3.8-15.768H648.979l5.367-22.279h53.609c.126-.515,3.982-16.489,4.177-17.336Z" transform="translate(-238.459 -66.791)" fill="#fff"/>
    <path id="패스_45335" data-name="패스 45335" d="M638.262,201.6a45.1,45.1,0,0,0-1.293,10.585,35.2,35.2,0,0,0,6,20.174c7.106,10.276,19.5,15.94,34.912,15.94H723.03c.138-.526,13.159-54.559,13.354-55.383H693.279c-.114.5-3.969,16.478-4.187,17.336H705.2l-5.378,22.279H689.3c-10.78,0-17.8-2.575-21.456-7.884-2.014-2.906-3.01-6.648-3.01-11.317a51.63,51.63,0,0,1,1.591-11.752c5.183-21.4,16.775-30.93,37.6-30.93h33.814c.138-.5,3.6-14.921,3.822-15.768H700.568c-29.1,0-55.887,20.094-62.305,46.721Z" transform="translate(-41.971 -66.791)" fill="#fff"/>
    <path id="패스_45336" data-name="패스 45336" d="M677.61,154.883H651.818c.343.973,21.547,61.185,21.547,61.185s-25.987,31.079-26.959,32.234c1.4.011,26.741.115,26.741.115s77.125-92.332,78.132-93.533H724.536c-.193.229-32.977,39.42-32.977,39.42s-13.789-38.963-13.949-39.42Z" transform="translate(56.57 -66.791)" fill="#fff"/>
    <path id="패스_45337" data-name="패스 45337" d="M700.11,154.883H649.522c-.127.526-22.315,92.526-22.521,93.419h27.028c.115-.526,19.087-79.207,19.087-79.207h12.152l3.422-.012c9.828-.068,18.308-.126,21.729,4.783,1.671,2.415,1.956,5.8.847,10.39-3.535,14.647-17,14.532-30.038,14.407l-3.559-.023h-8.845c.527,1.042,24.567,49.3,24.74,49.662h29.877c-.55-1.041-19.808-38.047-19.808-38.047h.572c17.519,0,29.879-9.6,33.906-26.341a36.587,36.587,0,0,0,1.122-8.467,17.5,17.5,0,0,0-2.884-10.23c-4.931-7.152-16.1-10.333-36.239-10.333Z" transform="translate(-146.063 -66.791)" fill="#fff"/>
    <path id="패스_45338" data-name="패스 45338" d="M623.525,152.344l-3.06,12.682H754.16l3.059-12.682Z" transform="translate(-214.314 -93.307)" fill="#fff"/>
    <path id="패스_45339" data-name="패스 45339" d="M789.756,160.014l-6.567-9.738c-19.705,14.761-42.625,23.595-65.545,23.595l-70.064.023L644.5,186.618l71.461-.011c26.055,0,51.8-9.852,73.793-26.593Z" transform="translate(36.693 -114.9)" fill="#fff"/>
    <path id="패스_45340" data-name="패스 45340" d="M635.554,152.344,632.5,165.026H766.19l3.059-12.682Z" transform="translate(-88.689 -93.307)" fill="#fff"/>
  </g>
</svg>
