<svg xmlns="http://www.w3.org/2000/svg" width="880" height="280" viewBox="0 0 880 280">
  <g id="logo_smart_color" transform="translate(-31 9)">
    <rect id="사각형_13172" data-name="사각형 13172" width="880" height="280" transform="translate(31 -9)" fill="#fff" opacity="0"/>
    <path id="패스_46059" data-name="패스 46059" d="M81.575,41.074c-21.33-3.7-25.886-5.682-24.394-10.572,1.112-3.624,7.254-7.5,21.19-7.5,12.057,0,21.163,3.217,28.644,10.119l.766.706L136.4,17.646l-1.426-1.352C123.281,5.176,107.853,0,86.437,0c-31.3,0-57.1,12.9-62.75,31.375C16.82,53.823,37.144,59.286,60.432,63.3c26.312,4.43,28.49,7.241,26.978,12.164-1.332,4.376-5.536,9.392-26.3,9.392-14.642,0-25.52-3.77-32.334-11.218l-.719-.786L0,87.63l.946,1.432C8.753,100.919,27.984,108,52.391,108c50.733,0,64.815-21.29,68.692-33.986,6.988-22.842-15.687-28.8-39.508-32.94" transform="translate(173.001 71)" fill="#727171" stroke="rgba(0,0,0,0)" stroke-miterlimit="10" stroke-width="1"/>
    <path id="패스_46060" data-name="패스 46060" d="M104.325,82.732l13.549-42.073L76.381,84.25,61.359,40.659,49.182,82.732H18.214L42.288,3.988H71.4L87.232,48.759,130.6,3.988h28.77L135.293,82.732Z" transform="translate(276.115 93.58)" fill="#727171" stroke="rgba(0,0,0,0)" stroke-miterlimit="10" stroke-width="1"/>
    <path id="패스_46061" data-name="패스 46061" d="M113.526,52.319c-4.743-2.245-9.466-3.89-20.583-3.89-11.8,0-19.071,3.018-21,9.313-1.685,5.556,1.739,9.912,15.128,9.912,10.212,0,19.431-3.451,23.981-7.2Zm-9.712,31.828,1.605-5.249c-6.868,3.9-17.766,6.894-28.883,6.894-22.235,0-42.906-8.993-37.07-28.051,5.316-17.406,30.482-26.1,57.481-26.1,10.891,0,17.459,1.5,21.949,3.151l1.2-3.9c1.692-5.556-5.143-9.466-16.487-9.466a146.625,146.625,0,0,0-42.326,6.435L59.523,11.692c15.448-5.256,30.2-7.954,49.487-7.954,28.81,0,49.567,7.534,44.158,25.246L136.3,84.147Z" transform="translate(390.769 92.162)" fill="#727171" stroke="rgba(0,0,0,0)" stroke-miterlimit="10" stroke-width="1"/>
    <path id="패스_46062" data-name="패스 46062" d="M126.253,21.76H106.343L101.08,38.98h19.4c10.711,0,15.934-3.157,17.652-8.78,1.505-4.949-1.5-8.44-11.884-8.44m2.984,60.971L109.094,56.186H95.811L87.7,82.731H55.2L79.284,3.988h53.251c27.9,0,44.3,6.974,38.6,25.639-3.6,11.817-14.182,19.131-28.477,23.062l23.494,30.043Z" transform="translate(485.488 93.58)" fill="#727171" stroke="rgba(0,0,0,0)" stroke-miterlimit="10" stroke-width="1"/>
    <path id="패스_46063" data-name="패스 46063" d="M142.558,22.993,124.286,82.732H91.279l18.265-59.739H80.628l-7.487-19H181.714l-5.809,19Z" transform="translate(587.073 93.58)" fill="#727171" stroke="rgba(0,0,0,0)" stroke-miterlimit="10" stroke-width="1"/>
  </g>
</svg>
