<svg xmlns="http://www.w3.org/2000/svg" width="880" height="280" viewBox="0 0 880 280">
  <g id="logo_ventus_white" transform="translate(-31 9)">
    <rect id="사각형_13172" data-name="사각형 13172" width="880" height="280" transform="translate(31 -9)" fill="#fff" opacity="0"/>
    <path id="패스_1" data-name="패스 1" d="M172.264,156.614l-41,54.4-20.737-54.4H70.776L92.4,213.386h.012c3.509,10,13.21,21.454,32.368,21.454h28.289l58.97-78.225Z" transform="translate(26.225 -57.84)" fill="#fff"/>
    <path id="패스_2" data-name="패스 2" d="M175.462,172.925H135.785c-42.7,0-48.394,26.006-48.394,26.006l-5.039,20.2c-7.321,29.527,33.169,31.652,33.169,31.652l9.591-.061h75.263L204.6,233.97H134.158c-16.767,0-14.509-12.3-14.509-12.3l.911-3.569h88.084l3.278-13.185c8.256-33.242-36.46-31.992-36.46-31.992m-4.456,28.92H124.725c3.23-12.93,17.665-13.064,17.665-13.064h16.682c17.7,0,11.935,13.064,11.935,13.064M636.3,188.55h58.581l3.958-15.638H649.207v.012H628.446c-37.188,0-42.154,22.643-42.154,22.643l-1.08,4.358h.024c-1.044,11.1,7.3,17.107,19.45,17.107h46.173c4.929,0,7.272,2.962,5.354,6.678-2.61,5.014-10.83,6.69-16.73,6.69H579.542l-5.136,20.324H650.7c37.152,0,42.117-22.643,42.117-22.643l1.081-4.31c1.785-12.262-5.961-22.522-18.491-22.522h-47.12c-3.8,0-7.661-2.015-4.82-6.641,4.638-5.985,12.833-6.058,12.833-6.058m-96.922-15.626-12.517,50.009h-.012l-2.744,11.036H500.588c-10.174,0-16.876-5.476-14.946-12.129l12.4-48.916H414.1l4.553-17.775H376.494l-17.823,70.6c-3.994,13.72,10.575,24.974,32.392,24.974h25.775l4.225-16.755H416.4c-10.162,0-16.9-5.463-14.946-12.117l8.56-33.012h42.166l-9.336,36.909c-3.982,13.72,10.6,24.974,32.417,24.974h84.332l19.632-77.8ZM305.093,222.266l-31.069-49.341h-39.75L214.508,251.15H254.27l12.457-49.342,31.081,49.342h39.75L357.3,172.925h-39.75l-12.457,49.341Z" transform="translate(145.334 -74.15)" fill="#fff"/>
  </g>
</svg>
