<svg xmlns="http://www.w3.org/2000/svg" xmlns:xlink="http://www.w3.org/1999/xlink" width="192" height="20" viewBox="0 0 192 20">
  <defs>
    <clipPath id="clip-path">
      <rect id="사각형_13295" data-name="사각형 13295" width="192" height="20" transform="translate(321.53 856.268)" fill="none" stroke="#707070" stroke-width="1"/>
    </clipPath>
    <clipPath id="clip-path-2">
      <path id="패스_55314" data-name="패스 55314" d="M0-10.117H157.744V-21.26H0Z" transform="translate(0 21.26)" fill="none"/>
    </clipPath>
    <clipPath id="clip-path-4">
      <path id="패스_55321" data-name="패스 55321" d="M0-10.117H157.744V-21.26H0Z" transform="translate(0 21.26)"/>
    </clipPath>
  </defs>
  <g id="navigation_logo_DM09_Smart_" data-name="navigation logo_DM09(Smart)" transform="translate(-321.53 -856.268)" clip-path="url(#clip-path)">
    <g id="그룹_11409" data-name="그룹 11409" transform="translate(321.531 881.957)">
      <g id="그룹_11270" data-name="그룹 11270" transform="translate(0 -21.26)" clip-path="url(#clip-path-2)">
        <g id="그룹_11264" data-name="그룹 11264" transform="translate(89.705 0.166)">
          <path id="패스_55308" data-name="패스 55308" d="M-5-9.636h-5.506l3.244-10.613h5.944c5.337,0,8.349,1.258,7.13,5.246S1.016-9.636-5-9.636m2.887-8.1H-3.276l-1.706,5.579h1.018c2.936,0,4.289-.7,4.934-2.8.6-1.957-.146-2.775-3.081-2.775" transform="translate(10.506 20.249)"/>
        </g>
        <g id="그룹_11265" data-name="그룹 11265" transform="translate(106.005 0.166)">
          <path id="패스_55309" data-name="패스 55309" d="M-11.453-9.636l.774-2.532c.321-1.046.636-2,.96-2.82-.75.788-2,2.016-2.812,2.775l-3.132,2.941L-17-12.213c-.351-.758-.848-1.986-1.117-2.775-.178.819-.446,1.774-.765,2.82l-.774,2.532h-4.416l3.245-10.613H-16.5l1.22,2.835a16.627,16.627,0,0,1,1.156,3.2,40.17,40.17,0,0,1,3.114-3.2l2.952-2.835h4.269L-7.037-9.636Z" transform="translate(24.067 20.249)"/>
        </g>
        <g id="그룹_11266" data-name="그룹 11266" transform="translate(125.915 0)">
          <path id="패스_55310" data-name="패스 55310" d="M-5.663-9.938c-4.415,0-7.077-1.925-6-5.457s4.977-5.488,9.392-5.488,7.077,1.925,6,5.458S-1.249-9.938-5.663-9.938m2.572-8.414a3.709,3.709,0,0,0-3.733,2.926c-.592,1.94.164,2.956,1.984,2.956a3.707,3.707,0,0,0,3.732-2.926c.594-1.941-.163-2.957-1.983-2.957" transform="translate(11.901 20.883)"/>
        </g>
        <g id="그룹_11267" data-name="그룹 11267" transform="translate(142.645 0)">
          <path id="패스_55311" data-name="패스 55311" d="M-.229-9.938l.737-2.409c4.44,0,7.019-.819,8.681-2.048a14.311,14.311,0,0,1-4.557.622c-3.517,0-5.672-1.046-4.986-3.289.732-2.4,4.1-3.82,8.907-3.82,4.269,0,6.78,1.47,5.885,4.4-.857,2.8-4.962,6.549-14.666,6.549M7.6-18.564c-1.771,0-3.1.455-3.357,1.3-.251.819.664,1.319,2.459,1.319,2.087,0,3.234-.5,3.49-1.335.231-.757-.528-1.289-2.591-1.289" transform="translate(0.482 20.883)"/>
        </g>
        <g id="그룹_11268" data-name="그룹 11268" transform="translate(63.05 0.419)">
          <path id="패스_55312" data-name="패스 55312" d="M-21.788-5.058A2.727,2.727,0,0,1-24.214-3.2h-20.2A1.327,1.327,0,0,1-45.7-5.058l1.135-3.714a2.728,2.728,0,0,1,2.426-1.857h20.2a1.327,1.327,0,0,1,1.29,1.857Z" transform="translate(45.786 10.629)"/>
        </g>
        <g id="그룹_11269" data-name="그룹 11269" transform="translate(63.05 0.419)">
          <path id="패스_55313" data-name="패스 55313" d="M-22.82-5.058A1.327,1.327,0,0,1-24.11-3.2h-20.2a2.726,2.726,0,0,1-2.425-1.857l-1.136-3.714a1.327,1.327,0,0,1,1.29-1.857h20.2a2.727,2.727,0,0,1,2.425,1.857Z" transform="translate(47.953 10.629)"/>
        </g>
      </g>
      <g id="그룹_11271" data-name="그룹 11271" transform="translate(65.606 -19.664)">
        <path id="패스_55315" data-name="패스 55315" d="M0-4.072.028-8.557H1.191L1.1-5.476,3.068-8.557H4.419l.028,3.133L6.27-8.557H7.413L4.676-4.072H3.47l-.1-3.353L1.232-4.072Z" transform="translate(0 8.557)" fill="#fff"/>
      </g>
      <g id="그룹_11274" data-name="그룹 11274" transform="translate(0 -21.26)" clip-path="url(#clip-path-2)">
        <g id="그룹_11272" data-name="그룹 11272" transform="translate(72.061 2.09)">
          <path id="패스_55316" data-name="패스 55316" d="M-.1-1.864A2.776,2.776,0,0,1,.435-2.871a3,3,0,0,1,.621-.538A2.878,2.878,0,0,1,1.8-3.762a3.748,3.748,0,0,1,1.106-.155,2.027,2.027,0,0,1,1.573.538,1.465,1.465,0,0,1,.2,1.5A2.655,2.655,0,0,1,3.574-.4,3.349,3.349,0,0,1,1.682.141,2.04,2.04,0,0,1,.1-.393,1.44,1.44,0,0,1-.1-1.864m1.03-.027A1.059,1.059,0,0,0,1.011-.88a1.061,1.061,0,0,0,.873.344A1.828,1.828,0,0,0,2.962-.878,1.867,1.867,0,0,0,3.654-1.9a1.067,1.067,0,0,0-.063-1.007,1.072,1.072,0,0,0-.882-.332A1.846,1.846,0,0,0,1.618-2.9,1.845,1.845,0,0,0,.934-1.891" transform="translate(0.202 3.917)" fill="#fff"/>
        </g>
        <g id="그룹_11273" data-name="그룹 11273" transform="translate(76.774 2.157)">
          <path id="패스_55317" data-name="패스 55317" d="M0-3.563,1.2-7.487H3.293a4.06,4.06,0,0,1,1.114.106A.732.732,0,0,1,4.865-7a.818.818,0,0,1,.026.618,1.359,1.359,0,0,1-.549.73,2.327,2.327,0,0,1-1.085.363,1.522,1.522,0,0,1,.432.329,3.016,3.016,0,0,1,.371.637l.367.765H3.238L2.78-4.417a3.735,3.735,0,0,0-.347-.577.533.533,0,0,0-.249-.164A1.859,1.859,0,0,0,1.7-5.2h-.2l-.5,1.638ZM1.686-5.827h.736a5.032,5.032,0,0,0,.908-.048.8.8,0,0,0,.33-.166.62.62,0,0,0,.191-.295.335.335,0,0,0-.035-.32.483.483,0,0,0-.328-.154c-.078-.008-.319-.014-.721-.014H1.991Z" transform="translate(0 7.487)" fill="#fff"/>
        </g>
      </g>
      <g id="그룹_11275" data-name="그룹 11275" transform="translate(81.408 -19.103)">
        <path id="패스_55319" data-name="패스 55319" d="M0-3.563,1.2-7.487h.994L1.661-5.744,4.2-7.487H5.539L3.219-5.959l1.222,2.4H3.154L2.364-5.4l-1.007.656L.994-3.563Z" transform="translate(0 7.487)" fill="#fff"/>
      </g>
      <g id="그룹_11277" data-name="그룹 11277" transform="translate(0 -21.26)" clip-path="url(#clip-path-4)">
        <g id="그룹_11276" data-name="그룹 11276" transform="translate(0)">
          <path id="패스_55320" data-name="패스 55320" d="M-7.642-3.848c-2.2-.382-2.671-.586-2.517-1.091.114-.374.748-.774,2.187-.774A4.1,4.1,0,0,1-5.016-4.669l.078.073,2.954-1.67L-2.132-6.4A6.838,6.838,0,0,0-7.14-8.086c-3.23,0-5.892,1.331-6.474,3.237-.708,2.317,1.388,2.88,3.791,3.295C-7.108-1.1-6.884-.808-7.039-.3c-.138.451-.571.97-2.713.97A4.339,4.339,0,0,1-13.09-.488l-.073-.081L-16.058.956l.1.148c.806,1.224,2.79,1.953,5.308,1.953,5.235,0,6.688-2.2,7.088-3.506.721-2.357-1.618-2.972-4.077-3.4" transform="translate(16.058 8.086)"/>
        </g>
      </g>
      <g id="그룹_11278" data-name="그룹 11278" transform="translate(12.518 -18.519)">
        <path id="패스_55322" data-name="패스 55322" d="M-10.529,0-15,4.62-16.639,0h-3l-2.484,8.125h3.195l1.257-4.341,1.549,4.5,4.282-4.5-1.4,4.341h3.2L-7.561,0Z" transform="translate(22.126)"/>
      </g>
      <g id="그룹_11281" data-name="그룹 11281" transform="translate(0 -21.26)" clip-path="url(#clip-path-4)">
        <g id="그룹_11279" data-name="그룹 11279" transform="translate(26.437 2.569)">
          <path id="패스_55323" data-name="패스 55323" d="M-6.122-7.533l.166-.541a6.4,6.4,0,0,1-2.98.711c-2.295,0-4.427-.928-3.826-2.894.549-1.8,3.145-2.693,5.931-2.693a6.423,6.423,0,0,1,2.265.325l.123-.4c.176-.573-.53-.976-1.7-.976a15.114,15.114,0,0,0-4.367.664l-.182-1.668a14.985,14.985,0,0,1,5.107-.821c2.972,0,5.114.777,4.556,2.6L-2.77-7.533Zm1-3.284a4.332,4.332,0,0,0-2.124-.4c-1.218,0-1.968.311-2.166.961-.174.573.179,1.023,1.56,1.023a4.165,4.165,0,0,0,2.475-.744Z" transform="translate(12.865 15.829)"/>
        </g>
        <g id="그룹_11280" data-name="그룹 11280" transform="translate(37.938 2.741)">
          <path id="패스_55324" data-name="패스 55324" d="M-6.936-7.377l-2.079-2.739h-1.37l-.836,2.739h-3.354l2.484-8.124H-6.6c2.878,0,4.571.72,3.982,2.646a3.826,3.826,0,0,1-2.938,2.379l2.425,3.1Zm-.308-6.29H-9.3l-.543,1.776h2c1.105,0,1.644-.325,1.821-.906.155-.51-.155-.87-1.226-.87" transform="translate(14.575 15.501)"/>
        </g>
      </g>
      <g id="그룹_11282" data-name="그룹 11282" transform="translate(50.27 -18.519)">
        <path id="패스_55326" data-name="패스 55326" d="M0,0,.773,1.961H3.756L1.872,8.125H5.277L7.163,1.961H10.6L11.2,0Z"/>
      </g>
    </g>
  </g>
</svg>
