<svg xmlns="http://www.w3.org/2000/svg" xmlns:xlink="http://www.w3.org/1999/xlink" width="192" height="20" viewBox="0 0 192 20">
  <defs>
    <clipPath id="clip-path">
      <rect id="사각형_13302" data-name="사각형 13302" width="192" height="20" transform="translate(321.53 856.268)" fill="none" stroke="#707070" stroke-width="1"/>
    </clipPath>
    <clipPath id="clip-path-2">
      <rect id="사각형_13286" data-name="사각형 13286" width="114.425" height="18.228" transform="translate(0 0)"/>
    </clipPath>
  </defs>
  <g id="navigation_logo_H436" data-name="navigation logo_H436" transform="translate(-321.53 -856.268)" clip-path="url(#clip-path)">
    <g id="그룹_11147" data-name="그룹 11147" transform="translate(321.53 857.154)">
      <g id="그룹_10896" data-name="그룹 10896" transform="translate(0 0)" clip-path="url(#clip-path-2)">
        <path id="패스_54933" data-name="패스 54933" d="M59.365,36.968c.017-.066,3.09-11.531,3.119-11.643H58.742c-.017.066-3.09,11.531-3.12,11.643Z" transform="translate(-41.192 -18.755)"/>
        <path id="패스_54934" data-name="패스 54934" d="M94.31,26.392a3.663,3.663,0,0,0-3.046-1.066H82.641c-.018.066-3.091,11.531-3.12,11.642h3.744l2.461-9.188h3.192a1.938,1.938,0,0,1,1.631.567,1.446,1.446,0,0,1,.259.9,4.643,4.643,0,0,1-.186,1.156l-1.761,6.566H92.6l1.929-7.194a6.791,6.791,0,0,0,.263-1.733,2.626,2.626,0,0,0-.486-1.65" transform="translate(-58.891 -18.756)"/>
        <path id="패스_54935" data-name="패스 54935" d="M143.849,30.066l.24-.9A2.35,2.35,0,0,1,146.6,27.29H153.1l.526-1.965h-8.258a4.684,4.684,0,0,0-4.928,3.473l-2.189,8.17h12.255c.017-.063.5-1.86.526-1.966h-8.51l.742-2.777H150.7c.017-.063.551-2.054.578-2.16Z" transform="translate(-102.388 -18.755)"/>
        <path id="패스_54936" data-name="패스 54936" d="M253.4,31.148a5.09,5.09,0,0,0-.18,1.319,4.067,4.067,0,0,0,.831,2.513,5.883,5.883,0,0,0,4.835,1.988h6.255c.018-.066,1.822-6.8,1.849-6.9h-5.97c-.017.062-.552,2.053-.58,2.16h2.23L261.927,35h-1.46c-1.492,0-2.464-.321-2.972-.983a2.243,2.243,0,0,1-.416-1.409,5.781,5.781,0,0,1,.222-1.466c.716-2.666,2.322-3.854,5.208-3.854h4.684c.017-.063.5-1.859.528-1.965h-5.69c-4.031,0-7.742,2.5-8.632,5.823" transform="translate(-187.526 -18.755)"/>
        <path id="패스_54937" data-name="패스 54937" d="M315.192,25.325H311.62L314.6,32.95l-3.735,4.018,3.7.014L325.4,25.325h-3.7c-.027.028-4.568,4.912-4.568,4.912l-1.934-4.912" transform="translate(-230.219 -18.755)"/>
        <path id="패스_54938" data-name="패스 54938" d="M202.445,25.325h-7.009c-.017.066-3.089,11.531-3.119,11.643h3.743L198.7,27.1h1.683l.474,0c1.362-.009,2.538-.015,3.01.6a1.437,1.437,0,0,1,.119,1.3c-.49,1.825-2.356,1.81-4.162,1.8l-.493,0h-1.225l3.427,6.189h4.138l-2.742-4.742h.078c2.426,0,4.138-1.2,4.7-3.283a4.105,4.105,0,0,0,.156-1.055,2.028,2.028,0,0,0-.4-1.275c-.683-.891-2.232-1.288-5.02-1.288" transform="translate(-142.423 -18.755)"/>
        <path id="패스_54939" data-name="패스 54939" d="M15.707,25.3l-4.387-.008-5.51,3.932L6.862,25.3H3.119L0,36.944H3.742l1.1-4.118.056.061s3.632,4.035,3.632,4.057H13.4L7.888,30.832s7.591-5.372,7.819-5.531" transform="translate(0 -18.731)"/>
        <path id="패스_54940" data-name="패스 54940" d="M152.808,11.367l-.424,1.58H170.9l.424-1.58Z" transform="translate(-112.85 -8.418)"/>
        <path id="패스_54941" data-name="패스 54941" d="M319.367,1.214,318.456,0a16.429,16.429,0,0,1-9.079,2.941l-9.706,0-.426,1.585,9.9,0a18.243,18.243,0,0,0,10.222-3.314" transform="translate(-221.611 0)"/>
        <path id="패스_54942" data-name="패스 54942" d="M226.311,11.367l-.424,1.58h18.52l.423-1.58Z" transform="translate(-167.284 -8.418)"/>
        <path id="패스_54943" data-name="패스 54943" d="M364.581,43.379a3.5,3.5,0,0,0-.124.908,2.8,2.8,0,0,0,.572,1.73,4.051,4.051,0,0,0,3.329,1.367h4.305c.012-.045,1.254-4.68,1.273-4.75h-4.109l-.4,1.486h1.535l-.512,1.912h-1.005a2.453,2.453,0,0,1-2.045-.677,1.546,1.546,0,0,1-.286-.97,3.969,3.969,0,0,1,.153-1.009,3.247,3.247,0,0,1,3.584-2.653h3.224c.012-.043.344-1.28.363-1.352h-3.916c-2.775,0-5.329,1.723-5.941,4.008" transform="translate(-269.904 -29.157)"/>
        <path id="패스_54944" data-name="패스 54944" d="M415.871,39.371h-8.459c-.02.072-.352,1.309-.364,1.352h2.943l-1.785,6.661h2.576l1.784-6.661h2.941c.012-.043.344-1.28.363-1.352" transform="translate(-301.446 -29.157)"/>
      </g>
    </g>
  </g>
</svg>
