<svg xmlns="http://www.w3.org/2000/svg" xmlns:xlink="http://www.w3.org/1999/xlink" width="192" height="20" viewBox="0 0 192 20">
  <defs>
    <clipPath id="clip-path">
      <rect id="사각형_13317" data-name="사각형 13317" width="192" height="20" transform="translate(321.53 856.268)" fill="none" stroke="#707070" stroke-width="1"/>
    </clipPath>
  </defs>
  <g id="navigation_logo_AH35" data-name="navigation logo_AH35" transform="translate(-321.53 -856.268)" clip-path="url(#clip-path)">
    <g id="그룹_10865" data-name="그룹 10865" transform="translate(207.062 651.234)">
      <g id="그룹_10863" data-name="그룹 10863" transform="translate(114.469 210.27)">
        <path id="패스_54883" data-name="패스 54883" d="M384.886,219.5a2.514,2.514,0,0,1-2.235,1.712H362.432a1.223,1.223,0,0,1-1.189-1.712l1.046-3.424a2.513,2.513,0,0,1,2.235-1.712h20.219a1.223,1.223,0,0,1,1.189,1.712Z" transform="translate(-303.585 -213.976)"/>
        <g id="그룹_10860" data-name="그룹 10860" transform="translate(59.172 0.327)">
          <path id="패스_54884" data-name="패스 54884" d="M435.424,220.419l2.751-2.068h-1.306l-1.918,1.46-1.112-1.46h-1.514l1.666,2.2-3,2.313h1.339l2.151-1.684,1.263,1.684h1.548Z" transform="translate(-416.285 -217.36)" fill="#fff"/>
          <path id="패스_54885" data-name="패스 54885" d="M369.456,214.812l-1.465,4.793h1.317l.7-2.286h2.7l.306-1h-2.7l.383-1.253h3.549l.294-.96H370.38A1.039,1.039,0,0,0,369.456,214.812Z" transform="translate(-367.991 -214.105)" fill="#fff"/>
          <path id="패스_54886" data-name="패스 54886" d="M394.965,217.409l-1.315.566-1.056,3.456a.505.505,0,0,0,.491.707h2.357l.727-.778h-2.412Z" transform="translate(-386.826 -216.638)" fill="#fff"/>
          <path id="패스_54887" data-name="패스 54887" d="M411.932,219.387a.347.347,0,0,1,.308-.236h2.15a.224.224,0,0,1,.218.315l-.18.588a.461.461,0,0,1-.411.314h-1.5l-.727.778h2.663a1.039,1.039,0,0,0,.923-.707l.422-1.38a.505.505,0,0,0-.491-.707h-3.489a1.037,1.037,0,0,0-.924.707l-.946,3.095a.505.505,0,0,0,.492.707h3.937l.257-.842h-3.267a.168.168,0,0,1-.164-.236l.195-.637Z" transform="translate(-400.128 -217.361)" fill="#fff"/>
        </g>
        <g id="그룹_10862" data-name="그룹 10862" transform="translate(0 0)">
          <path id="패스_54888" data-name="패스 54888" d="M122.227,216.612c-2.028-.352-2.462-.54-2.32-1.006.105-.344.69-.713,2.015-.713a3.777,3.777,0,0,1,2.724.962l.072.067,2.723-1.539-.136-.129a6.3,6.3,0,0,0-4.616-1.549c-2.977,0-5.431,1.227-5.968,2.984-.653,2.135,1.28,2.655,3.494,3.036,2.5.422,2.709.689,2.566,1.157-.127.416-.526.893-2.5.893a4,4,0,0,1-3.075-1.067l-.068-.074-2.668,1.4.089.136c.743,1.128,2.572,1.8,4.893,1.8,4.825,0,6.164-2.025,6.533-3.232C126.648,217.572,124.492,217.006,122.227,216.612Z" transform="translate(-114.469 -212.706)"/>
          <g id="그룹_10861" data-name="그룹 10861" transform="translate(11.538 2.368)">
            <path id="패스_54889" data-name="패스 54889" d="M172.094,231.018l1.288-4-3.946,4.145-1.428-4.145-1.158,4H163.9l2.289-7.488h2.768l1.506,4.258,4.125-4.258h2.736l-2.29,7.488Z" transform="translate(-163.905 -223.372)"/>
            <path id="패스_54890" data-name="패스 54890" d="M225.086,230.5l.153-.5a5.9,5.9,0,0,1-2.747.655c-2.115,0-4.081-.855-3.526-2.668.506-1.655,2.9-2.482,5.467-2.482a5.915,5.915,0,0,1,2.088.3l.113-.371c.162-.528-.489-.9-1.568-.9a13.935,13.935,0,0,0-4.025.612l-.168-1.538a13.816,13.816,0,0,1,4.706-.756c2.74,0,4.714.717,4.2,2.4l-1.6,5.246Zm.924-3.027a3.987,3.987,0,0,0-1.958-.37c-1.122,0-1.814.287-2,.886-.16.529.165.943,1.438.943a3.84,3.84,0,0,0,2.281-.685Z" transform="translate(-206.042 -222.851)"/>
            <path id="패스_54891" data-name="패스 54891" d="M271.326,231.018l-1.916-2.524h-1.263l-.771,2.524h-3.091l2.29-7.488h5.064c2.653,0,4.214.664,3.671,2.438a3.525,3.525,0,0,1-2.708,2.193l2.235,2.857Zm-.284-5.8h-1.893l-.5,1.637h1.845c1.019,0,1.515-.3,1.679-.835C272.316,225.552,272.03,225.221,271.042,225.221Z" transform="translate(-240.856 -223.372)"/>
            <path id="패스_54892" data-name="패스 54892" d="M319.588,225.337l-1.737,5.681h-3.139l1.737-5.681H313.7l-.712-1.807h10.325l-.552,1.807Z" transform="translate(-278.19 -223.372)"/>
          </g>
        </g>
      </g>
      <g id="그룹_10864" data-name="그룹 10864" transform="translate(196.609 209.528)">
        <path id="패스_54893" data-name="패스 54893" d="M629.943,220.233a11.875,11.875,0,0,1-6.512-1.587l2.943-1.868a8.66,8.66,0,0,0,4.388,1.083c1.921,0,2.832-.341,3.049-1.053.222-.727-.36-.993-2.044-.993h-2.4l.684-2.239h2.134c1.447,0,1.98-.193,2.189-.875.168-.548-.405-.845-2.042-.845a11.356,11.356,0,0,0-4.4.889l-1.61-1.868a17.135,17.135,0,0,1,6.839-1.349c3.984,0,6.4.786,5.729,2.981-.349,1.141-1.584,1.69-2.827,2.031,1.474.223,2.613.92,2.209,2.239C637.545,219.181,634.449,220.233,629.943,220.233Z" transform="translate(-586.779 -209.528)"/>
        <path id="패스_54894" data-name="패스 54894" d="M478.113,221.345l-.344-1.824h-4.98l-1.459,1.824H466.4l9.2-10.379h4.648l2.85,10.379Zm-.86-4.789a18.762,18.762,0,0,1-.274-2.594c-.426.7-.865,1.275-1.861,2.594l-.517.683h2.752Z" transform="translate(-466.397 -210.63)"/>
        <path id="패스_54895" data-name="패스 54895" d="M552.882,221.345l1.251-4.092h-5.17l-1.251,4.092h-4.7l3.174-10.379h4.7l-1.156,3.781h5.17l1.156-3.781h4.7l-3.173,10.379Z" transform="translate(-525.133 -210.63)"/>
        <path id="패스_54896" data-name="패스 54896" d="M694.644,220.42a16.275,16.275,0,0,1-6.706-1.261l2.531-2.15a13.468,13.468,0,0,0,5.023,1.023c2.134,0,3.067-.489,3.32-1.319.245-.8-.435-1.216-1.857-1.216a8.128,8.128,0,0,0-3.241.593l-3.683-.83,2.215-5.382h12.1l-.717,2.342h-8.371l-.582,1.438a12.913,12.913,0,0,1,3.721-.46c3.581,0,5.585,1.127,4.877,3.44C702.531,219.056,699.364,220.42,694.644,220.42Z" transform="translate(-636.23 -209.796)"/>
      </g>
    </g>
  </g>
</svg>
