<svg xmlns="http://www.w3.org/2000/svg" xmlns:xlink="http://www.w3.org/1999/xlink" width="192" height="20" viewBox="0 0 192 20">
  <defs>
    <clipPath id="clip-path">
      <rect id="사각형_13311" data-name="사각형 13311" width="192" height="20" transform="translate(321.53 856.268)" fill="none" stroke="#707070" stroke-width="1"/>
    </clipPath>
  </defs>
  <g id="navigation_logo_AM15" data-name="navigation logo_AM15" transform="translate(-321.53 -856.268)" clip-path="url(#clip-path)">
    <g id="그룹_11242" data-name="그룹 11242" transform="translate(233.22 647.131)">
      <g id="그룹_11236" data-name="그룹 11236" transform="translate(88.311 212.511)">
        <g id="그룹_11232" data-name="그룹 11232" transform="translate(62.94 0.419)">
          <g id="그룹_11230" data-name="그룹 11230" transform="translate(0)">
            <path id="패스_55301" data-name="패스 55301" d="M381.891,219.865a2.722,2.722,0,0,1-2.421,1.854H359.308a1.324,1.324,0,0,1-1.287-1.854l1.133-3.707a2.722,2.722,0,0,1,2.421-1.854h20.162a1.324,1.324,0,0,1,1.288,1.854Z" transform="translate(-357.936 -214.304)"/>
          </g>
          <path id="패스_55302" data-name="패스 55302" d="M383.024,219.865a1.325,1.325,0,0,1-1.288,1.854H361.575a2.722,2.722,0,0,1-2.421-1.854l-1.134-3.707a1.324,1.324,0,0,1,1.287-1.854h20.162a2.722,2.722,0,0,1,2.421,1.854Z" transform="translate(-357.935 -214.304)"/>
          <g id="그룹_11231" data-name="그룹 11231" transform="translate(2.552 1.174)">
            <path id="패스_55303" data-name="패스 55303" d="M368.868,223.812l.027-4.477h1.161l-.093,3.076,1.967-3.076h1.349l.029,3.127,1.818-3.127h1.142l-2.733,4.477h-1.2l-.1-3.347-2.139,3.347Z" transform="translate(-368.868 -219.335)" fill="#fff"/>
            <path id="패스_55304" data-name="패스 55304" d="M396.522,223.5a2.768,2.768,0,0,1,.532-1,2.991,2.991,0,0,1,.622-.537,2.876,2.876,0,0,1,.744-.352,3.765,3.765,0,0,1,1.107-.155,2.032,2.032,0,0,1,1.574.537,1.46,1.46,0,0,1,.2,1.494,2.654,2.654,0,0,1-1.1,1.484,3.356,3.356,0,0,1-1.894.536,2.046,2.046,0,0,1-1.581-.533A1.434,1.434,0,0,1,396.522,223.5Zm1.031-.027a.918.918,0,0,0,.952,1.352,1.833,1.833,0,0,0,1.078-.341,1.865,1.865,0,0,0,.693-1.022.9.9,0,0,0-.947-1.336,1.778,1.778,0,0,0-1.776,1.347Z" transform="translate(-389.985 -220.953)" fill="#fff"/>
            <path id="패스_55305" data-name="패스 55305" d="M416.625,225.65l1.2-3.917h2.089a4.051,4.051,0,0,1,1.113.105.733.733,0,0,1,.457.376.818.818,0,0,1,.025.617,1.356,1.356,0,0,1-.548.729,2.326,2.326,0,0,1-1.083.362,1.518,1.518,0,0,1,.431.329,3,3,0,0,1,.37.636l.367.764h-1.187l-.457-.852a3.757,3.757,0,0,0-.347-.576.535.535,0,0,0-.249-.163,1.843,1.843,0,0,0-.486-.044h-.2l-.5,1.635Zm1.683-2.261h.734a5.025,5.025,0,0,0,.907-.048.791.791,0,0,0,.329-.166.623.623,0,0,0,.19-.294.334.334,0,0,0-.035-.319.48.48,0,0,0-.327-.154q-.117-.013-.72-.014h-.775Z" transform="translate(-405.477 -221.173)" fill="#fff"/>
            <path id="패스_55306" data-name="패스 55306" d="M436.441,225.65l1.2-3.917h.993l-.532,1.74,2.537-1.74h1.335l-2.317,1.526,1.22,2.392H439.59l-.789-1.839-1,.655-.362,1.184Z" transform="translate(-420.667 -221.173)" fill="#fff"/>
          </g>
        </g>
        <g id="그룹_11234" data-name="그룹 11234">
          <path id="패스_55307" data-name="패스 55307" d="M96.713,216.742c-2.2-.382-2.667-.585-2.512-1.089.114-.374.747-.773,2.183-.773a4.089,4.089,0,0,1,2.95,1.043l.078.073,2.949-1.667-.147-.139a6.828,6.828,0,0,0-5-1.678c-3.224,0-5.882,1.329-6.463,3.231-.707,2.313,1.386,2.875,3.784,3.289,2.71.456,2.934.746,2.779,1.253-.137.45-.57.968-2.709.968a4.331,4.331,0,0,1-3.331-1.156l-.074-.081-2.89,1.522.1.148c.8,1.221,2.785,1.95,5.3,1.95,5.225,0,6.676-2.193,7.076-3.5C101.5,217.781,99.167,217.168,96.713,216.742Z" transform="translate(-88.311 -212.511)"/>
          <g id="그룹_11233" data-name="그룹 11233" transform="translate(12.497 2.565)">
            <path id="패스_55308" data-name="패스 55308" d="M150.714,232.342l1.4-4.333-4.274,4.49-1.547-4.49-1.255,4.333h-3.189l2.479-8.111h3l1.631,4.612,4.468-4.612h2.963l-2.481,8.111Z" transform="translate(-141.845 -224.06)"/>
            <path id="패스_55309" data-name="패스 55309" d="M208.1,231.779l.166-.54a6.387,6.387,0,0,1-2.975.71c-2.29,0-4.419-.926-3.819-2.889.548-1.792,3.14-2.688,5.921-2.688a6.409,6.409,0,0,1,2.261.324l.123-.4c.175-.573-.529-.975-1.7-.975a15.09,15.09,0,0,0-4.359.663l-.181-1.666a14.967,14.967,0,0,1,5.1-.819c2.967,0,5.105.776,4.548,2.6l-1.737,5.682Zm1-3.278a4.322,4.322,0,0,0-2.121-.4c-1.215,0-1.964.31-2.162.959-.174.572.179,1.021,1.557,1.021a4.157,4.157,0,0,0,2.47-.742Z" transform="translate(-187.473 -223.497)"/>
            <path id="패스_55310" data-name="패스 55310" d="M258.172,232.342l-2.075-2.734h-1.368l-.835,2.734h-3.348l2.48-8.111h5.485c2.874,0,4.564.719,3.976,2.641a3.819,3.819,0,0,1-2.933,2.375l2.42,3.094Zm-.308-6.28h-2.05l-.542,1.773h2c1.1,0,1.641-.325,1.818-.9C259.244,226.421,258.934,226.062,257.864,226.062Z" transform="translate(-225.171 -224.06)"/>
            <path id="패스_55311" data-name="패스 55311" d="M310.434,226.189l-1.882,6.153h-3.4l1.882-6.153h-2.979l-.771-1.958h11.183l-.6,1.958Z" transform="translate(-265.598 -224.06)"/>
          </g>
        </g>
        <g id="그룹_11235" data-name="그룹 11235" transform="translate(89.549 1.336)">
          <path id="패스_55312" data-name="패스 55312" d="M484.067,228.99l-.356-1.89h-5.163l-1.512,1.89h-5.115l9.533-10.755h4.819l2.956,10.755Zm-.892-4.963a19.466,19.466,0,0,1-.284-2.689c-.442.722-.9,1.321-1.929,2.689l-.536.707h2.853Z" transform="translate(-471.922 -218.235)"/>
          <path id="패스_55313" data-name="패스 55313" d="M564.11,228.99l.785-2.566c.324-1.06.644-2.028.972-2.857-.761.8-2.026,2.043-2.851,2.812l-3.173,2.981-1.35-2.981c-.355-.768-.859-2.012-1.131-2.812-.181.829-.452,1.8-.776,2.857l-.785,2.566h-4.475l3.288-10.755h4.377l1.236,2.873a17.018,17.018,0,0,1,1.172,3.242,40.528,40.528,0,0,1,3.154-3.242l2.993-2.873h4.327l-3.289,10.755Z" transform="translate(-532.79 -218.235)"/>
          <path id="패스_55314" data-name="패스 55314" d="M647,228.99l2.265-7.406h-2.9l.578-1.89c2.235-.077,3.238-.461,4.035-1.459h3.982l-3.288,10.755Z" transform="translate(-605.644 -218.235)"/>
          <path id="패스_55315" data-name="패스 55315" d="M687.692,229.159a16.88,16.88,0,0,1-6.952-1.306l2.624-2.228a13.974,13.974,0,0,0,5.207,1.06c2.214,0,3.179-.507,3.442-1.367.254-.829-.45-1.26-1.925-1.26a8.419,8.419,0,0,0-3.359.614l-3.819-.86,2.3-5.577h12.538L697,220.662h-8.678l-.6,1.491a13.415,13.415,0,0,1,3.859-.476c3.712,0,5.789,1.168,5.056,3.565C695.868,227.745,692.584,229.159,687.692,229.159Z" transform="translate(-631.994 -218.235)"/>
        </g>
      </g>
    </g>
  </g>
</svg>
