<svg xmlns="http://www.w3.org/2000/svg" xmlns:xlink="http://www.w3.org/1999/xlink" width="192" height="20" viewBox="0 0 192 20">
  <defs>
    <clipPath id="clip-path">
      <rect id="사각형_13316" data-name="사각형 13316" width="192" height="20" transform="translate(321.53 856.268)" fill="none" stroke="#707070" stroke-width="1"/>
    </clipPath>
  </defs>
  <g id="navigation_logo_AH32" data-name="navigation logo_AH32" transform="translate(-321.53 -856.268)" clip-path="url(#clip-path)">
    <g id="그룹_11314" data-name="그룹 11314" transform="translate(37.758 510.408)">
      <g id="그룹_11213" data-name="그룹 11213" transform="translate(283.773 350.307)">
        <path id="패스_55263" data-name="패스 55263" d="M51.287,448.513c1.006-1.348,1.449-1.94,1.88-2.652a19.491,19.491,0,0,0,.259,2.652l.1.7H50.765Zm-3.825,4.894,1.473-1.863h4.99l.333,1.863h4.99L56.456,442.8H51.8l-9.279,10.607Z" transform="translate(-42.519 -442.467)"/>
        <path id="패스_55264" data-name="패스 55264" d="M80.517,449.225H85.7l-1.278,4.181h4.7L92.366,442.8h-4.7l-1.182,3.864H81.3l1.181-3.864H77.775l-3.243,10.607h4.706Z" transform="translate(-56.613 -442.467)"/>
        <path id="패스_55265" data-name="패스 55265" d="M114.761,444.883c1.64,0,2.213.3,2.042.863-.214.7-.749.895-2.2.895h-2.138l-.7,2.288h2.4c1.688,0,2.27.273,2.042,1.015s-1.137,1.076-3.061,1.076a8.518,8.518,0,0,1-4.391-1.105l-2.96,1.909a11.668,11.668,0,0,0,6.514,1.622c4.516,0,7.624-1.076,8.375-3.53.413-1.349-.724-2.061-2.2-2.288,1.247-.348,2.488-.909,2.844-2.076.687-2.242-1.729-3.045-5.721-3.045a16.941,16.941,0,0,0-6.862,1.379l1.6,1.909a11.211,11.211,0,0,1,4.412-.909" transform="translate(-70.376 -442.337)"/>
        <path id="패스_55266" data-name="패스 55266" d="M132.8,453.145c1.258-3.631,4.527-5.386,9.2-6.586,1.976-.507,2.3-.676,2.43-1.108.146-.477-.315-.738-1.694-.738a15.583,15.583,0,0,0-5.454,1.093l-1.518-2.2a22.241,22.241,0,0,1,7.811-1.4c4.282,0,6.193,1.076,5.6,3.031-.432,1.416-1.483,2.277-5.073,3.231-3.751,1-4.9,1.6-5.462,2.246h8.983l-.743,2.431Z" transform="translate(-82.264 -442.205)"/>
      </g>
    </g>
  </g>
</svg>
