<svg id="Logo" xmlns="http://www.w3.org/2000/svg" width="560" height="28">
    <defs>
        <style>
            .cls-2{fill:#fff}
        </style>
    </defs>
    <g id="Ventus_S1_evo_Z" data-name="Ventus S1 evo Z" transform="translate(0 2)">
        <path id="Path_45615" data-name="Path 45615" class="cls-2" d="m79.695 445.927-9.3 12.335-4.7-12.335h-9.002l4.9 12.868a7.321 7.321 0 0 0 7.337 4.863h6.408l13.368-17.731z" transform="translate(-56.693 -439.759)"/>
        <path id="Path_45616" data-name="Path 45616" class="cls-2" d="m138.642 456.859-7.042-11.186h-9.008l-4.477 17.727h9.008l2.824-11.184 7.04 11.184H146l4.475-17.731h-9.007zm53.1-11.185-2.842 11.333-.622 2.5h-5.328c-2.307 0-3.829-1.241-3.389-2.75l2.809-11.087h-19.026l1.031-4.025h-9.552l-4.04 16c-.906 3.109 2.4 5.663 7.342 5.663h5.841l.96-3.8h-1.057c-2.3 0-3.828-1.239-3.387-2.747l1.94-7.481h9.555l-2.116 8.365c-.9 3.109 2.4 5.663 7.344 5.663h19.116l4.45-17.637zm21.962 3.541h13.277l.9-3.541h-15.957c-8.428 0-9.553 5.134-9.553 5.134l-.246.985h.008c-.239 2.516 1.653 3.878 4.4 3.878H217c1.119 0 1.652.672 1.214 1.514-.592 1.137-2.456 1.521-3.793 1.521h-13.578l-1.166 4.606h17.29c8.421 0 9.548-5.135 9.548-5.135l.243-.975a4.205 4.205 0 0 0-4.191-5.106h-10.679c-.861 0-1.738-.457-1.092-1.505a4.046 4.046 0 0 1 2.907-1.374m-105.45 3.018h-10.49c.733-2.936 4-2.964 4-2.964h3.783c4.016 0 2.7 2.964 2.7 2.964m1.013-6.559h-8.994c-9.676 0-10.967 5.9-10.967 5.9l-1.142 4.579c-1.659 6.693 7.516 7.172 7.516 7.172l2.175-.01h17.058l.959-3.8H99.9c-3.8 0-3.284-2.788-3.284-2.788l.2-.808h19.961l.744-2.988c1.869-7.531-8.262-7.252-8.262-7.252" transform="translate(-58.546 -439.505)"/>
        <path id="Path_45617" data-name="Path 45617" class="cls-2" d="M295.96 439.582c-1.661 2.194-3.656 2.251-8.758 2.417l-.9 3.85h6.609l-4.32 17.34h10.69l5.782-23.606z" transform="translate(-70.301 -439.383)"/>
        <path id="Path_45618" data-name="Path 45618" class="cls-2" d="m279.7 445.836.993-4.268c-1.951-1.463-5.876-2.2-11.812-2.2-10.174 0-15.986 1.9-17.473 5.761a2.674 2.674 0 0 0-.15 1.249 3.012 3.012 0 0 0 1.363 2.152 22.24 22.24 0 0 0 6.256 2.87q3.813 1.219 7.6 2.452c1.93.671 2.082 1.449 2.208 2.333a1.877 1.877 0 0 1-.1.783c-.578 1.843-2.145 2.776-6.451 2.776q-4.988 0-5.255-2.234a3.709 3.709 0 0 1 .214-1.578h-7.525l-1.816 4.731c1.977 1.791 6.332 2.7 13.086 2.7 5.238 0 9.969-.256 13.445-1.468 3.449-1.2 5.137-3.265 5.8-5.466a3.678 3.678 0 0 0 .172-1.791q-.322-1.692-3.246-3.137a86.134 86.134 0 0 0-10.792-3.675 26.942 26.942 0 0 1-3.135-1.112c-.952-.39-1.457-.854-1.535-1.392a1 1 0 0 1 .124-.659q.754-2.1 6.124-2.095 4.459 0 4.786 1.9a6.1 6.1 0 0 1 .1 1.362z" transform="translate(-68.016 -439.37)"/>
        <path id="Path_45619" data-name="Path 45619" class="cls-2" d="m356.225 449.595-7.438 9.869-3.755-9.869h-7.207l3.917 10.3a5.854 5.854 0 0 0 5.87 3.891h5.125l10.694-14.186z" transform="translate(-73.354 -439.976)"/>
        <path id="Path_45620" data-name="Path 45620" class="cls-2" d="M328.131 454.84h-8.394a3.38 3.38 0 0 1 3.2-2.371h3.028c3.214 0 2.164 2.371 2.164 2.371m.809-5.245h-7.2c-7.74 0-8.773 4.716-8.773 4.716l-.912 3.664c-1.328 5.354 6.01 5.739 6.01 5.739l1.741-.009h13.645l.771-3.039h-12.768c-3.04 0-2.629-2.232-2.629-2.232l.165-.645h15.971l.594-2.393c1.5-6.023-6.611-5.8-6.611-5.8" transform="translate(-71.818 -439.976)"/>
        <path id="Path_45621" data-name="Path 45621" class="cls-2" d="m379.563 454.841-.935 3.626a3.41 3.41 0 0 1-3.218 2.37h-3.827s-2.6-.024-2-2.37l.936-3.626a3.411 3.411 0 0 1 3.22-2.371h3.826s2.6.023 2 2.371m.654-5.246h-7.652c-7.742 0-8.812 4.716-8.812 4.716l-1.21 4.689s-1.358 4.718 6.382 4.718h7.652c7.742 0 8.812-4.718 8.812-4.718l1.208-4.685s1.358-4.716-6.382-4.716" transform="translate(-74.814 -439.976)"/>
        <path id="Path_45622" data-name="Path 45622" class="cls-2" d="M430.549 457.594h-5.365c-2.93 0-6.839.033-9.25.093 1.655-1.11 4.863-3.265 7.17-4.95l10.771-7.93 3.949-3.231h-25.555c-5.857 0-5.523 3.832-5.523 3.832h3.765c2.929 0 10.689-.03 13.1-.095-1.653 1.111-4.86 3.268-7.168 4.949l-10.775 7.938-6.261 4.407h36.215c-1.041-4.827-5.072-5.01-5.072-5.01" transform="translate(-77.004 -439.501)"/>
    </g>
</svg>
