<svg xmlns="http://www.w3.org/2000/svg" width="24" height="24" viewBox="0 0 24 24">
  <g id="icon_special-trailer" transform="translate(0)">
    <rect id="사각형_13288" data-name="사각형 13288" width="24" height="24" transform="translate(0)" fill="none"/>
    <g id="Cartype_Special-Trailer" transform="translate(0 4.623)">
      <path id="패스_55807" data-name="패스 55807" d="M29.181,24.118h1.735a.434.434,0,1,0,0-.868H29.181a.434.434,0,0,0,0,.868Z" transform="translate(-14.001 -16.307)" fill="#040000"/>
      <path id="패스_55808" data-name="패스 55808" d="M17.231,24.118h1.735a.434.434,0,1,0,0-.868H17.231a.434.434,0,1,0,0,.868Z" transform="translate(-8.962 -16.307)" fill="#040000"/>
      <path id="패스_55809" data-name="패스 55809" d="M26.816,23.683a.433.433,0,0,0,.433-.433V19.86a.434.434,0,0,0-.022-.134l-.9-2.753a1.587,1.587,0,0,0-1.513-1.1H17.99V12.117h3.428a.721.721,0,0,1,.566.273L23.537,14.3a.434.434,0,1,0,.675-.545l-1.545-1.907a1.582,1.582,0,0,0-1.242-.6H4.84a1.592,1.592,0,0,0-1.59,1.593v3.472h0v5.241a2.175,2.175,0,0,0,2.169,2.169h.193A2.746,2.746,0,0,0,8.312,26h18.5a.434.434,0,0,0,0-.868H24.182a2.73,2.73,0,0,0,.71-1.446ZM4.84,12.117H17.129v3.759H11.054V14a.434.434,0,1,0-.868,0v1.879H4.112V12.839a.724.724,0,0,1,.723-.723Zm-.722,9.434V16.743h20.7a.722.722,0,0,1,.688.5l.685,2.1H25.081a.434.434,0,1,0,0,.868h1.3v2.6h-1.49a2.735,2.735,0,0,0-5.41.036H11.017a2.734,2.734,0,0,0-5.413,0H5.419a1.3,1.3,0,0,1-1.3-1.3ZM11.01,23.72h8.477a2.731,2.731,0,0,0,.706,1.41H10.3a2.731,2.731,0,0,0,.706-1.41Zm-4.579-.47a1.879,1.879,0,1,1,1.881,1.879,1.879,1.879,0,0,1-1.881-1.879Zm13.879,0a1.879,1.879,0,1,1,1.876,1.879,1.879,1.879,0,0,1-1.876-1.879Z" transform="translate(-3.25 -11.246)" fill="#040000"/>
      <path id="패스_55810" data-name="패스 55810" d="M4.841,35.25H3.683a.434.434,0,1,0,0,.868H4.841a.434.434,0,1,0,0-.868Z" transform="translate(-3.249 -21.368)" fill="#040000"/>
    </g>
  </g>
</svg>
