<svg id="Logo" xmlns="http://www.w3.org/2000/svg" width="560" height="28">
    <defs>
        <style>
            .cls-2{fill:#fff}
        </style>
    </defs>
    <g id="Ventus_S1_evo3_SUV" data-name="Ventus S1 evo3 SUV" transform="translate(0 2)">
        <path id="Path_45759" data-name="Path 45759" class="cls-2" d="m65.808 21.977-9.3 12.336-4.7-12.336H42.8l4.9 12.872a7.321 7.321 0 0 0 7.337 4.864h6.409l13.373-17.736z" transform="translate(-42.803 -15.811)"/>
        <path id="Path_45760" data-name="Path 45760" class="cls-2" d="M88.431 21.977h-8.993c-9.678 0-10.971 5.9-10.971 5.9l-1.141 4.582c-1.661 6.691 7.515 7.173 7.515 7.173l2.176-.012h17.06l.959-3.8H79.069c-3.8 0-3.286-2.79-3.286-2.79l.2-.807H95.95l.743-2.989c1.871-7.534-8.262-7.257-8.262-7.257zm-1.012 6.561H76.928c.733-2.936 4-2.963 4-2.963h3.781c4.02-.001 2.71 2.963 2.71 2.963z" transform="translate(-37.706 -15.811)"/>
        <path id="Path_45761" data-name="Path 45761" class="cls-2" d="M173.522 25.52H186.8l.9-3.543h-15.959c-8.427 0-9.553 5.135-9.553 5.135l-.246.987h.006c-.238 2.515 1.653 3.878 4.405 3.878h10.467c1.119 0 1.652.67 1.214 1.513-.591 1.137-2.457 1.519-3.793 1.519H160.66l-1.166 4.607h17.292c8.422 0 9.549-5.135 9.549-5.135l.241-.975a4.2 4.2 0 0 0-4.189-5.106h-10.681c-.86 0-1.737-.46-1.092-1.507a4.049 4.049 0 0 1 2.909-1.374" transform="translate(-18.35 -15.811)"/>
        <path id="Path_45762" data-name="Path 45762" class="cls-2" d="m160.054 22.674-2.839 11.336-.624 2.5h-5.327c-2.307 0-3.828-1.241-3.388-2.749l2.809-11.09h-19.029l1.029-4.024h-9.553l-4.039 16c-.906 3.111 2.4 5.663 7.342 5.663h5.842l.959-3.8h-1.056c-2.305 0-3.828-1.237-3.388-2.747l1.941-7.481h9.554l-2.114 8.364c-.9 3.111 2.4 5.663 7.344 5.663h19.117l4.45-17.639z" transform="translate(-26.847 -16.508)"/>
        <path id="Path_45763" data-name="Path 45763" class="cls-2" d="m112.586 33.165-7.042-11.187h-9.009l-4.478 17.734h9.009l2.826-11.187 7.042 11.187h9.009l4.474-17.734h-9.008z" transform="translate(-32.482 -15.811)"/>
        <path id="Path_45764" data-name="Path 45764" class="cls-2" d="M231.06 17.043c-1.664 2.192-3.656 2.251-8.761 2.417l-.9 3.85h6.611l-4.322 17.34h10.69l5.783-23.607z" transform="translate(-5.377 -16.845)"/>
        <path id="Path_45765" data-name="Path 45765" class="cls-2" d="m223.367 23.344.994-4.27c-1.951-1.462-5.877-2.2-11.815-2.2-10.174 0-15.987 1.9-17.473 5.76a2.657 2.657 0 0 0-.15 1.249 3.017 3.017 0 0 0 1.364 2.154 22.2 22.2 0 0 0 6.255 2.869q3.816 1.219 7.6 2.452c1.929.671 2.082 1.449 2.209 2.333a1.888 1.888 0 0 1-.1.783c-.577 1.846-2.146 2.778-6.452 2.778-3.326 0-5.077-.75-5.256-2.236a3.735 3.735 0 0 1 .214-1.577h-7.526l-1.814 4.731c1.976 1.793 6.332 2.7 13.086 2.7 5.239 0 9.969-.255 13.445-1.465 3.451-1.2 5.139-3.268 5.8-5.47a3.674 3.674 0 0 0 .171-1.788q-.319-1.695-3.244-3.14a86.229 86.229 0 0 0-10.8-3.676 26.979 26.979 0 0 1-3.134-1.11c-.952-.392-1.458-.856-1.535-1.393a.987.987 0 0 1 .125-.658q.755-2.1 6.124-2.1 4.46 0 4.787 1.9a6.276 6.276 0 0 1 .1 1.362z" transform="translate(-11.659 -16.879)"/>
        <path id="Path_45766" data-name="Path 45766" class="cls-2" d="m279.875 24.83-7.436 9.87-3.758-9.87h-7.209l3.92 10.3a5.853 5.853 0 0 0 5.87 3.891h5.127l10.697-14.191z" transform="translate(3.02 -15.213)"/>
        <path id="Path_45767" data-name="Path 45767" class="cls-2" d="M257.542 30.077h-8.392c.585-2.347 3.2-2.371 3.2-2.371h3.026c3.214 0 2.164 2.371 2.164 2.371m.812-5.247h-7.2c-7.741 0-8.775 4.716-8.775 4.716l-.911 3.665c-1.331 5.355 6.01 5.739 6.01 5.739l1.742-.01h13.646l.77-3.038h-12.771c-3.04 0-2.63-2.232-2.63-2.232l.163-.645h15.975l.594-2.393c1.5-6.026-6.611-5.8-6.611-5.8" transform="translate(-1.205 -15.213)"/>
        <path id="Path_45768" data-name="Path 45768" class="cls-2" d="m297.741 30.077-.933 3.627a3.412 3.412 0 0 1-3.221 2.368h-3.826s-2.6-.023-2-2.368l.935-3.627a3.412 3.412 0 0 1 3.221-2.371h3.826s2.6.024 2 2.371m.654-5.247h-7.652c-7.744 0-8.814 4.716-8.814 4.716l-1.208 4.687s-1.356 4.717 6.384 4.717h7.652c7.744 0 8.815-4.717 8.815-4.717l1.207-4.687s1.357-4.716-6.384-4.716" transform="translate(7.035 -15.213)"/>
        <path id="Path_45769" data-name="Path 45769" class="cls-2" d="M340.7 40.018c-5.928 0-9.448-1.692-11.358-3.112l-.958-.714 4.709-2.552.872.631a11.4 11.4 0 0 0 7.111 2.112c2.267 0 4.916-.6 4.916-2.287 0-.952-.792-1.623-5.285-2.873-5.323-1.45-8.023-2.734-8.023-5.722 0-3.236 4.716-5.768 10.736-5.768 4.4 0 7.586.75 10.347 2.435l1.112.683-4.589 2.713-.913-.584c-1.56-1-3.182-1.615-6.457-1.615-2.914 0-4.243 1-4.243 1.932 0 .726.254 1.24 5.235 2.614 5.237 1.441 8.071 2.819 8.071 5.981 0 3.551-4.744 6.126-11.283 6.126" transform="translate(17.042 -16.281)"/>
        <path id="Path_45770" data-name="Path 45770" class="cls-2" d="M377.046 39.838 372.007 20.6h5.707l3.377 13.94 11.382-13.94h6.044l-16.188 19.238z" transform="translate(26.183 -16.1)"/>
        <path id="Path_45771" data-name="Path 45771" class="cls-2" d="m369.748 20.559-3.54 12.66-.191.683-.819 2.944.317-1.142c-.169 1.142-1.552 1.142-1.552 1.142h-4.671a4.222 4.222 0 0 1-3.494-1.523 2.985 2.985 0 0 1-.42-2.717l3.4-12.05h-5.716l-1 3.675-2.777 9.87a3.658 3.658 0 0 0 .495 3.382c1.039 1.415 3.14 2.261 5.622 2.261l14.676.018 5.392-19.191z" transform="translate(21.379 -16.108)"/>
        <path id="Path_45772" data-name="Path 45772" class="cls-2" d="M322.894 26.937a3.612 3.612 0 0 1-1.23 1.892 8.013 8.013 0 0 1-2.459 1.351 17.382 17.382 0 0 1-3.49.818 31.747 31.747 0 0 1-4.322.275 20.5 20.5 0 0 1-5.172-.608 11.72 11.72 0 0 1-4.121-1.939l4.218-1.635a9.132 9.132 0 0 0 2.81 1.226 14.523 14.523 0 0 0 3.392.351 12.22 12.22 0 0 0 3.773-.446q1.3-.446 1.5-1.245a.923.923 0 0 0-.659-1.15 7.067 7.067 0 0 0-2.651-.371H311.5l.659-2.605h2.69a6.066 6.066 0 0 0 2.347-.342 1.508 1.508 0 0 0 .936-1.008.621.621 0 0 0-.09-.495 1.273 1.273 0 0 0-.589-.438 4.985 4.985 0 0 0-1.214-.3 13.921 13.921 0 0 0-1.963-.114 11.968 11.968 0 0 0-5.2 1.121l-3.208-1.775a19.381 19.381 0 0 1 4.194-1.473 22.634 22.634 0 0 1 4.947-.485 24.511 24.511 0 0 1 3.545.237 11.848 11.848 0 0 1 2.746.7 3.875 3.875 0 0 1 1.675 1.179 1.844 1.844 0 0 1 .3 1.645 2.859 2.859 0 0 1-1.339 1.749 7.973 7.973 0 0 1-2.253.97 7.95 7.95 0 0 1 1.2.342 4.879 4.879 0 0 1 1.127.579 2.5 2.5 0 0 1 .773.847 1.531 1.531 0 0 1 .106 1.141" transform="translate(11.534 -16.74)"/>
    </g>
</svg>
