<svg xmlns="http://www.w3.org/2000/svg" width="32" height="32" viewBox="0 0 32 32">
  <g id="icon_special-trailer" transform="translate(0)">
    <rect id="사각형_13288" data-name="사각형 13288" width="32" height="32" transform="translate(0)" fill="none"/>
    <g id="Cartype_Special-Trailer" transform="translate(0 6)">
      <path id="패스_55807" data-name="패스 55807" d="M29.326,24.407h2.313a.578.578,0,1,0,0-1.157H29.326a.578.578,0,0,0,0,1.157Z" transform="translate(-9.086 -13.993)" fill="#fff"/>
      <path id="패스_55808" data-name="패스 55808" d="M17.376,24.407H19.69a.578.578,0,1,0,0-1.157H17.376a.578.578,0,0,0,0,1.157Z" transform="translate(-6.351 -13.993)" fill="#fff"/>
      <path id="패스_55809" data-name="패스 55809" d="M34.671,27.828a.578.578,0,0,0,.578-.578V22.732a.579.579,0,0,0-.029-.179l-1.2-3.671A2.116,2.116,0,0,0,32,17.418H22.9V12.407h4.571a.961.961,0,0,1,.755.364l2.07,2.545a.578.578,0,0,0,.9-.727l-2.06-2.543a2.109,2.109,0,0,0-1.656-.8H5.37A2.123,2.123,0,0,0,3.25,13.37V18h0v6.988a2.9,2.9,0,0,0,2.892,2.892H6.4A3.662,3.662,0,0,0,10,30.912H34.671a.578.578,0,1,0,0-1.157H31.159a3.64,3.64,0,0,0,.947-1.928ZM5.37,12.407H21.755v5.012h-8.1V14.913a.578.578,0,0,0-1.157,0v2.506H4.4V13.37a.965.965,0,0,1,.964-.964ZM4.407,24.986v-6.41h27.6a.963.963,0,0,1,.917.666l.913,2.8H32.358a.578.578,0,1,0,0,1.157h1.735v3.47H32.106a3.647,3.647,0,0,0-7.213.048H13.606a3.645,3.645,0,0,0-7.218,0H6.142a1.737,1.737,0,0,1-1.735-1.735Zm9.19,2.892H24.9a3.642,3.642,0,0,0,.942,1.88H12.654a3.642,3.642,0,0,0,.942-1.88Zm-6.1-.627A2.506,2.506,0,1,1,10,29.756,2.506,2.506,0,0,1,7.492,27.25ZM26,27.25a2.506,2.506,0,1,1,2.5,2.506A2.506,2.506,0,0,1,26,27.25Z" transform="translate(-3.249 -11.246)" fill="#fff"/>
      <path id="패스_55810" data-name="패스 55810" d="M5.371,35.25H3.828a.578.578,0,1,0,0,1.157H5.371a.578.578,0,0,0,0-1.157Z" transform="translate(-3.249 -16.741)" fill="#fff"/>
    </g>
  </g>
</svg>
