<svg xmlns="http://www.w3.org/2000/svg" width="371" height="28">
    <defs>
        <style>
            .cls-2{fill:#fff}
        </style>
    </defs>
    <g id="Logo" transform="translate(-428 -4569)">
        <g id="Ventus_S1_evo3" data-name="Ventus S1 evo3" transform="translate(385.197 4555.121)">
            <path id="Path_45759" data-name="Path 45759" class="cls-2" d="m61.973 21.977-7.748 10.28-3.913-10.28H42.8L46.885 32.7A6.1 6.1 0 0 0 53 36.757h5.341l11.139-14.78z" transform="translate(0 .041)"/>
            <path id="Path_45760" data-name="Path 45760" class="cls-2" d="M84.88 21.977h-7.494c-8.065 0-9.142 4.914-9.142 4.914l-.951 3.818c-1.384 5.576 6.262 5.977 6.262 5.977l1.813-.01h14.217l.8-3.166H77.079c-3.166 0-2.739-2.325-2.739-2.325l.169-.672h16.637l.619-2.491c1.559-6.277-6.885-6.045-6.885-6.045zm-.844 5.467h-8.741c.611-2.446 3.336-2.47 3.336-2.47h3.151c3.346.001 2.255 2.47 2.255 2.47z" transform="translate(.194 .041)"/>
            <path id="Path_45761" data-name="Path 45761" class="cls-2" d="M171.184 24.929h11.064l.746-2.952H169.7c-7.022 0-7.961 4.279-7.961 4.279l-.2.822h.005c-.2 2.1 1.378 3.232 3.671 3.232h8.723c.932 0 1.377.558 1.012 1.261-.493.947-2.047 1.266-3.161 1.266h-11.323l-.972 3.839H173.9c7.018 0 7.958-4.279 7.958-4.279l.2-.812a3.5 3.5 0 0 0-3.491-4.255h-8.9c-.717 0-1.447-.383-.91-1.256a3.374 3.374 0 0 1 2.424-1.145" transform="translate(.929 .041)"/>
            <path id="Path_45762" data-name="Path 45762" class="cls-2" d="m153.2 22-2.366 9.447-.52 2.084h-4.439c-1.922 0-3.19-1.034-2.823-2.291l2.341-9.24h-15.855l.858-3.353h-7.961l-3.366 13.333c-.755 2.592 2 4.719 6.118 4.719h4.868l.8-3.166h-.881c-1.921 0-3.19-1.031-2.823-2.289l1.618-6.234h7.962l-1.762 6.97c-.754 2.592 2 4.719 6.12 4.719h15.931L160.728 22z" transform="translate(.606 .014)"/>
            <path id="Path_45763" data-name="Path 45763" class="cls-2" d="m109.164 31.3-5.864-9.323h-7.511l-3.732 14.779h7.507l2.355-9.323 5.868 9.323h7.507l3.728-14.779h-7.506z" transform="translate(.392 .041)"/>
            <path id="Path_45764" data-name="Path 45764" class="cls-2" d="M229.45 17.043c-1.387 1.826-3.047 1.876-7.3 2.014l-.75 3.208h5.51l-3.6 14.45h8.908l4.819-19.672z" transform="translate(1.422 .001)"/>
            <path id="Path_45765" data-name="Path 45765" class="cls-2" d="m218.042 22.267.829-3.558c-1.626-1.219-4.9-1.829-9.846-1.829-8.478 0-13.322 1.581-14.561 4.8a2.214 2.214 0 0 0-.125 1.041 2.514 2.514 0 0 0 1.137 1.8 18.5 18.5 0 0 0 5.212 2.391q3.18 1.016 6.332 2.043c1.608.559 1.735 1.208 1.841 1.944a1.573 1.573 0 0 1-.08.652c-.481 1.538-1.788 2.315-5.376 2.315-2.772 0-4.23-.625-4.38-1.864a3.112 3.112 0 0 1 .178-1.314h-6.272l-1.512 3.942c1.647 1.494 5.277 2.254 10.905 2.254 4.365 0 8.308-.213 11.2-1.221 2.876-1 4.283-2.724 4.833-4.558a3.061 3.061 0 0 0 .142-1.49q-.266-1.412-2.7-2.617a71.856 71.856 0 0 0-9-3.063 22.482 22.482 0 0 1-2.612-.925c-.793-.327-1.215-.714-1.279-1.161a.823.823 0 0 1 .1-.548q.629-1.749 5.1-1.747 3.716 0 3.99 1.583a5.231 5.231 0 0 1 .081 1.135z" transform="translate(1.183)"/>
            <path id="Path_45766" data-name="Path 45766" class="cls-2" d="m276.808 24.83-6.2 8.225-3.132-8.225h-6.007l3.267 8.58a4.877 4.877 0 0 0 4.892 3.243h4.273l8.911-11.822z" transform="translate(1.741 .063)"/>
            <path id="Path_45767" data-name="Path 45767" class="cls-2" d="M254.837 29.2h-6.993a2.815 2.815 0 0 1 2.668-1.976h2.522c2.678 0 1.8 1.976 1.8 1.976m.676-4.373h-6c-6.451 0-7.313 3.93-7.313 3.93l-.759 3.054c-1.109 4.462 5.009 4.783 5.009 4.783l1.451-.008h11.372l.642-2.532h-10.641c-2.533 0-2.191-1.86-2.191-1.86l.136-.537h13.312l.495-1.994c1.248-5.022-5.51-4.836-5.51-4.836" transform="translate(1.581 .063)"/>
            <path id="Path_45768" data-name="Path 45768" class="cls-2" d="m294.89 29.2-.777 3.023a2.844 2.844 0 0 1-2.684 1.974h-3.189s-2.168-.019-1.668-1.974l.779-3.023a2.844 2.844 0 0 1 2.684-1.976h3.188s2.166.02 1.666 1.976m.545-4.373h-6.376c-6.453 0-7.345 3.93-7.345 3.93l-1.007 3.906s-1.13 3.931 5.32 3.931h6.374c6.453 0 7.346-3.931 7.346-3.931l1.006-3.906s1.131-3.93-5.32-3.93" transform="translate(1.894 .063)"/>
            <path id="Path_45772" data-name="Path 45772" class="cls-2" d="M319.429 25.372a3.01 3.01 0 0 1-1.025 1.576 6.677 6.677 0 0 1-2.049 1.126 14.485 14.485 0 0 1-2.908.681 26.456 26.456 0 0 1-3.6.229 17.083 17.083 0 0 1-4.31-.507 9.767 9.767 0 0 1-3.434-1.616l3.515-1.363a7.61 7.61 0 0 0 2.341 1.022 12.1 12.1 0 0 0 2.826.292 10.184 10.184 0 0 0 3.144-.372q1.08-.372 1.248-1.037a.769.769 0 0 0-.549-.959 5.889 5.889 0 0 0-2.209-.309h-2.482l.549-2.171h2.242a5.055 5.055 0 0 0 1.955-.285 1.257 1.257 0 0 0 .78-.84.517.517 0 0 0-.075-.412 1.061 1.061 0 0 0-.491-.365 4.153 4.153 0 0 0-1.012-.253 11.6 11.6 0 0 0-1.636-.095 9.973 9.973 0 0 0-4.331.934l-2.677-1.474a16.151 16.151 0 0 1 3.495-1.228 18.862 18.862 0 0 1 4.123-.4 20.426 20.426 0 0 1 2.954.2 9.873 9.873 0 0 1 2.288.587 3.229 3.229 0 0 1 1.4.983 1.537 1.537 0 0 1 .252 1.371 2.383 2.383 0 0 1-1.116 1.458 6.644 6.644 0 0 1-1.878.808 6.625 6.625 0 0 1 1 .285 4.066 4.066 0 0 1 .939.483 2.079 2.079 0 0 1 .644.706 1.276 1.276 0 0 1 .089.951" transform="translate(2.065 .005)"/>
        </g>
    </g>
</svg>
