<svg xmlns="http://www.w3.org/2000/svg" width="14" height="14" viewBox="0 0 14 14">
    <defs>
        <clipPath id="clip-path">
            <rect id="사각형_12265" data-name="사각형 12265" width="14" height="14" rx="7" style="fill:#fff"/>
        </clipPath>
        <style>
            .cls-3{fill:#f5f5f5}.cls-5{fill:#fe4b55}
        </style>
    </defs>
    <g id="Icon_-_Flag" data-name="Icon - Flag" style="clip-path:url(#clip-path)">
        <g id="svgexport-29" transform="translate(-2.883)">
            <path id="사각형_12264" data-name="사각형 12264" class="cls-3" d="M0 0h21.577v14.136H0z"/>
            <path id="패스_45551" data-name="패스 45551" d="M0 54.059h21.577v1.087H0zm0-2.175h21.577v1.087H0zm21.577 5.437H.372A.372.372 0 0 1 0 56.949v-.715h21.577zM0 60.583h21.577v1.087H0zm0-2.175h21.577V59.5H0z" transform="translate(0 -49.709)" style="fill:#ff4b55"/>
            <path id="사각형_12262" data-name="사각형 12262" class="cls-5" d="M0 0h21.577v1.087H0z"/>
            <path id="사각형_12261" data-name="사각형 12261" style="fill:#41479b" d="M0 0h10.03v7.628H0z"/>
            <path id="패스_45553" data-name="패스 45553" class="cls-3" d="m14.7 19.992.082.247h.26a.035.035 0 0 1 .021.063l-.209.155.079.248a.035.035 0 0 1-.054.039l-.212-.151-.212.151a.035.035 0 0 1-.054-.039l.079-.248-.209-.155a.035.035 0 0 1 .021-.063h.26l.082-.247a.035.035 0 0 1 .066 0zm0 1.292.082.247h.26a.035.035 0 0 1 .021.063l-.209.155.079.248a.035.035 0 0 1-.054.039l-.212-.151-.212.151A.035.035 0 0 1 14.4 22l.079-.248-.209-.155a.035.035 0 0 1 .021-.063h.26l.082-.247a.035.035 0 0 1 .067-.003zm0 1.292.082.247h.26a.035.035 0 0 1 .021.063l-.209.155.079.248a.035.035 0 0 1-.054.039l-.212-.151-.212.151a.035.035 0 0 1-.054-.039l.079-.248-.209-.155a.035.035 0 0 1 .021-.063h.26l.082-.247a.035.035 0 0 1 .066 0zm0 1.292.082.247h.26a.035.035 0 0 1 .021.063l-.209.155.079.248a.035.035 0 0 1-.054.039l-.212-.151-.212.151a.035.035 0 0 1-.054-.039l.079-.248-.209-.155a.035.035 0 0 1 .021-.063h.26l.082-.247a.035.035 0 0 1 .066 0zm0 1.292.082.247h.26a.035.035 0 0 1 .021.063l-.209.155.079.248a.035.035 0 0 1-.054.039l-.212-.151-.212.151a.035.035 0 0 1-.054-.039l.079-.248-.209-.155a.035.035 0 0 1 .021-.063h.26l.082-.247a.035.035 0 0 1 .066-.001zm1-4.534.082.247h.26a.035.035 0 0 1 .021.063l-.209.155.079.248a.035.035 0 0 1-.054.039l-.212-.151-.212.151a.035.035 0 0 1-.054-.039l.079-.248-.209-.155a.035.035 0 0 1 .021-.063h.26l.082-.247a.035.035 0 0 1 .066-.001zm0 1.292.082.247h.26a.035.035 0 0 1 .021.063l-.209.155.079.248a.035.035 0 0 1-.054.039l-.212-.151-.212.151a.035.035 0 0 1-.054-.039l.079-.248-.209-.155a.035.035 0 0 1 .021-.063h.26l.082-.247a.035.035 0 0 1 .066-.001zm0 1.292.082.247h.26a.035.035 0 0 1 .021.063l-.209.155.079.248a.035.035 0 0 1-.054.039l-.212-.151-.212.151a.035.035 0 0 1-.054-.039l.079-.248-.209-.155a.035.035 0 0 1 .021-.063h.26l.082-.247a.035.035 0 0 1 .066-.001zm0 1.292.082.247h.26a.035.035 0 0 1 .021.063l-.209.155.079.248a.035.035 0 0 1-.054.039l-.212-.151-.212.151a.035.035 0 0 1-.054-.039l.079-.248-.209-.155a.035.035 0 0 1 .021-.063h.26l.082-.247a.035.035 0 0 1 .066 0zm1-4.509.082.247h.26a.035.035 0 0 1 .021.063l-.209.155.079.248a.035.035 0 0 1-.054.039l-.212-.151-.212.151a.035.035 0 0 1-.054-.039l.079-.248-.209-.155a.035.035 0 0 1 .021-.063h.26l.082-.247a.035.035 0 0 1 .066-.001zm0 1.292.082.247h.26a.035.035 0 0 1 .021.063l-.209.155.079.248a.035.035 0 0 1-.054.039l-.212-.151-.212.151A.035.035 0 0 1 16.4 22l.079-.248-.209-.155a.035.035 0 0 1 .021-.063h.26l.082-.247a.035.035 0 0 1 .067-.003zm0 1.292.082.247h.26a.035.035 0 0 1 .021.063l-.209.155.079.248a.035.035 0 0 1-.054.039l-.212-.151-.212.151a.035.035 0 0 1-.054-.039l.079-.248-.209-.155a.035.035 0 0 1 .021-.063h.26l.082-.247a.035.035 0 0 1 .066-.002zm0 1.292.082.247h.26a.035.035 0 0 1 .021.063l-.209.155.079.248a.035.035 0 0 1-.054.039l-.212-.151-.212.151a.035.035 0 0 1-.054-.039l.079-.248-.209-.155a.035.035 0 0 1 .021-.063h.26l.082-.247a.035.035 0 0 1 .066-.002zm0 1.292.082.247h.26a.035.035 0 0 1 .021.063l-.209.155.079.248a.035.035 0 0 1-.054.039l-.212-.151-.212.151a.035.035 0 0 1-.054-.039l.079-.248-.209-.155a.035.035 0 0 1 .021-.063h.26l.082-.247a.035.035 0 0 1 .066-.002zm1-4.534.082.247h.26a.035.035 0 0 1 .021.063l-.209.155.079.248a.035.035 0 0 1-.054.039l-.212-.151-.212.151a.035.035 0 0 1-.054-.039l.079-.248-.209-.155a.035.035 0 0 1 .021-.063h.26l.082-.247a.035.035 0 0 1 .066-.002zm0 1.292.082.247h.26a.035.035 0 0 1 .021.063l-.209.155.079.248a.035.035 0 0 1-.054.039l-.212-.151-.212.151a.035.035 0 0 1-.054-.039l.079-.248-.209-.155a.035.035 0 0 1 .021-.063h.26l.082-.247a.035.035 0 0 1 .066-.002zm0 1.292.082.247h.26a.035.035 0 0 1 .021.063l-.209.155.079.248a.035.035 0 0 1-.054.039l-.212-.151-.212.151a.035.035 0 0 1-.054-.039l.079-.248-.209-.155a.035.035 0 0 1 .021-.063h.26l.082-.247a.035.035 0 0 1 .066-.002zm0 1.292.082.247h.26a.035.035 0 0 1 .021.063l-.209.155.079.248a.035.035 0 0 1-.054.039l-.212-.151-.212.151a.035.035 0 0 1-.054-.039l.079-.248-.209-.155a.035.035 0 0 1 .021-.063h.26l.082-.247a.035.035 0 0 1 .066 0zm1-4.509.082.247h.26a.035.035 0 0 1 .021.063l-.209.155.079.248a.035.035 0 0 1-.054.039l-.212-.151-.212.151a.035.035 0 0 1-.054-.039l.079-.248-.209-.155a.035.035 0 0 1 .021-.063h.26l.082-.247a.035.035 0 0 1 .073-.002zm0 1.292.082.247h.26a.035.035 0 0 1 .021.063l-.209.155.086.249a.035.035 0 0 1-.054.039l-.212-.151-.212.151a.035.035 0 0 1-.053-.039l.079-.248-.209-.155a.035.035 0 0 1 .021-.063h.26l.082-.247a.035.035 0 0 1 .065-.003zm0 1.292.082.247h.26a.035.035 0 0 1 .021.063l-.209.155.079.248a.035.035 0 0 1-.054.039l-.212-.151-.212.151a.035.035 0 0 1-.054-.039l.079-.248-.209-.155a.035.035 0 0 1 .021-.063h.26l.082-.247a.035.035 0 0 1 .073-.003zm0 1.292.082.247h.26a.035.035 0 0 1 .021.063l-.209.155.079.248a.035.035 0 0 1-.054.039l-.212-.151-.212.151a.035.035 0 0 1-.054-.039l.079-.248-.209-.155a.035.035 0 0 1 .021-.063h.26l.082-.247a.035.035 0 0 1 .073-.003zm0 1.292.082.247h.26a.035.035 0 0 1 .021.063l-.209.155.079.248a.035.035 0 0 1-.054.039l-.212-.151-.212.151a.035.035 0 0 1-.054-.039l.079-.248-.209-.155a.035.035 0 0 1 .021-.063h.26l.082-.247a.035.035 0 0 1 .073-.003zm1-4.534.082.247h.26a.035.035 0 0 1 .021.063l-.209.155.079.248a.035.035 0 0 1-.054.039l-.212-.151-.212.151a.035.035 0 0 1-.054-.039l.079-.248-.209-.155a.035.035 0 0 1 .021-.063h.26l.082-.247a.035.035 0 0 1 .066 0zm0 1.292.082.247h.26a.035.035 0 0 1 .021.063l-.209.155.079.248a.035.035 0 0 1-.054.039l-.212-.151-.212.151a.035.035 0 0 1-.054-.039l.079-.248-.209-.155a.035.035 0 0 1 .021-.063h.26l.082-.247a.035.035 0 0 1 .066 0zm0 1.292.082.247h.26a.035.035 0 0 1 .021.063l-.209.155.079.248a.035.035 0 0 1-.054.039l-.212-.151-.212.151a.035.035 0 0 1-.054-.039l.079-.248-.209-.155a.035.035 0 0 1 .021-.063h.26l.082-.247a.035.035 0 0 1 .066 0zm0 1.292.082.247h.26a.035.035 0 0 1 .021.063l-.209.155.079.248a.035.035 0 0 1-.054.039l-.212-.151-.212.151a.035.035 0 0 1-.054-.039l.079-.248-.209-.155a.035.035 0 0 1 .021-.063h.26l.082-.247a.035.035 0 0 1 .066 0zm1-4.509.082.247h.26a.035.035 0 0 1 .021.063l-.209.155.079.248a.035.035 0 0 1-.054.039l-.212-.151-.212.151a.035.035 0 0 1-.054-.039l.079-.248-.209-.155a.035.035 0 0 1 .021-.063h.26l.082-.247a.035.035 0 0 1 .067 0zm0 1.292.082.247h.26a.035.035 0 0 1 .021.063l-.209.155.079.248a.035.035 0 0 1-.054.039l-.212-.151-.212.151a.035.035 0 0 1-.041-.039l.079-.248-.209-.155a.035.035 0 0 1 .021-.063h.26l.082-.247a.035.035 0 0 1 .067 0zm0 1.292.082.247h.26a.035.035 0 0 1 .021.063l-.209.155.079.248a.035.035 0 0 1-.054.039l-.212-.151-.212.151a.035.035 0 0 1-.054-.039l.079-.248-.209-.155a.035.035 0 0 1 .021-.063h.26l.082-.247a.035.035 0 0 1 .067 0zm0 1.292.082.247h.26a.035.035 0 0 1 .021.063l-.209.155.079.248a.035.035 0 0 1-.054.039l-.212-.151-.212.151a.035.035 0 0 1-.054-.039l.079-.248-.209-.155a.035.035 0 0 1 .021-.063h.26l.082-.247a.035.035 0 0 1 .067 0zm0 1.292.082.247h.26a.035.035 0 0 1 .021.063l-.209.155.079.248a.035.035 0 0 1-.054.039l-.212-.151-.212.151a.035.035 0 0 1-.054-.039l.079-.248-.209-.155a.035.035 0 0 1 .021-.063h.26l.082-.247a.035.035 0 0 1 .067 0zm1-4.534.082.247h.26a.035.035 0 0 1 .021.063l-.209.155.079.248a.035.035 0 0 1-.054.039l-.212-.151-.212.151a.035.035 0 0 1-.054-.039l.079-.248-.209-.155a.035.035 0 0 1 .021-.063h.26l.082-.247a.035.035 0 0 1 .066 0zm0 1.292.082.247h.26a.035.035 0 0 1 .021.063l-.209.155.079.248a.035.035 0 0 1-.054.039l-.212-.151-.212.151a.035.035 0 0 1-.054-.039l.079-.248-.209-.155a.035.035 0 0 1 .021-.063h.26l.082-.247a.035.035 0 0 1 .066 0zm0 1.292.082.247h.26a.035.035 0 0 1 .021.063l-.209.155.079.248a.035.035 0 0 1-.054.039l-.212-.151-.212.151a.035.035 0 0 1-.054-.039l.079-.248-.209-.155a.035.035 0 0 1 .021-.063h.26l.082-.247a.035.035 0 0 1 .066 0zm0 1.292.082.247h.26a.035.035 0 0 1 .021.063l-.209.155.079.248a.035.035 0 0 1-.054.039l-.212-.151-.212.151a.035.035 0 0 1-.054-.039l.079-.248-.209-.155a.035.035 0 0 1 .021-.063h.26l.082-.247a.035.035 0 0 1 .066 0zm1-4.509.082.247h.26a.035.035 0 0 1 .021.063l-.209.155.079.248a.035.035 0 0 1-.054.039l-.212-.151-.212.151a.035.035 0 0 1-.054-.039l.079-.248-.209-.155a.035.035 0 0 1 .021-.063h.26l.082-.247a.035.035 0 0 1 .084-.004zm0 1.292.082.247h.26a.035.035 0 0 1 .021.063l-.209.155.079.248a.035.035 0 0 1-.054.039l-.212-.151-.212.151a.035.035 0 0 1-.036-.04l.079-.248-.209-.155a.035.035 0 0 1 .021-.063h.26l.082-.247a.035.035 0 0 1 .066-.003zm0 1.292.082.247h.26a.035.035 0 0 1 .021.063l-.209.155.079.248a.035.035 0 0 1-.054.039l-.212-.151-.212.151a.035.035 0 0 1-.054-.039l.079-.248-.209-.155a.035.035 0 0 1 .021-.063h.26l.082-.247a.035.035 0 0 1 .084-.005zm0 1.292.082.247h.26a.035.035 0 0 1 .021.063l-.209.155.079.248a.035.035 0 0 1-.054.039l-.212-.151-.212.151a.035.035 0 0 1-.054-.039l.079-.248-.209-.155a.035.035 0 0 1 .021-.063h.26l.082-.247a.035.035 0 0 1 .084-.005zm0 1.292.082.247h.26a.035.035 0 0 1 .021.063l-.209.155.079.248a.035.035 0 0 1-.054.039l-.212-.151-.212.151a.035.035 0 0 1-.054-.039l.079-.248-.209-.155a.035.035 0 0 1 .021-.063h.26l.082-.247a.035.035 0 0 1 .084-.005z" transform="translate(-13.652 -19.138)"/>
            <path id="사각형_12263" data-name="사각형 12263" class="cls-5" transform="translate(0 13.049)" d="M0 0h21.577v1.087H0z"/>
        </g>
    </g>
</svg>
