<svg xmlns="http://www.w3.org/2000/svg" xmlns:xlink="http://www.w3.org/1999/xlink" width="496" height="52" viewBox="0 0 496 52">
  <defs>
    <clipPath id="clip-path">
      <rect id="사각형_12017" data-name="사각형 12017" width="496" height="52" transform="translate(320.442 855.18)" fill="none" stroke="#707070" stroke-width="1"/>
    </clipPath>
    <clipPath id="clip-path-2">
      <rect id="사각형_13281" data-name="사각형 13281" width="371.709" height="34.159" fill="none"/>
    </clipPath>
  </defs>
  <g id="bi_Dynapro_HT" data-name="bi_Dynapro HT" transform="translate(-320.442 -855.18)" clip-path="url(#clip-path)">
    <g id="그룹_10858" data-name="그룹 10858" transform="translate(171.072 955.827)">
      <path id="패스_54899" data-name="패스 54899" d="M349.446-55.967l3.486-11.4h9.074l-3.526,11.4h14.943l8.158-26.678H366.638L363.366-71.8h-9.077L357.6-82.645H342.687L334.53-55.967Z" transform="translate(99.961 0)" fill="#767676"/>
      <g id="그룹_10857" data-name="그룹 10857" transform="translate(149.37 -82.646)">
        <g id="그룹_10856" data-name="그룹 10856" clip-path="url(#clip-path-2)">
          <path id="패스_54900" data-name="패스 54900" d="M332.751-77.916l-21.292-.006c-3.76,0-7.4,2.205-8.372,5.4L300.57-64.3c-1.517,4.954,2.133,5.782,7.216,5.782H328.8c4.423,0,7.334-2.008,8.417-5.551l2.359-7.71c1.5-4.92-1.454-6.136-6.822-6.136m-7.8,6.1-2.213,7.244c-.494,1.611-1.35,2.4-3.443,2.4h-1.937c-2.047,0-2.581-.594-2.059-2.284l2.333-7.636c.457-1.494,1.661-2.165,3.418-2.165h1.464c2.282,0,3,.591,2.436,2.442" transform="translate(-67.93 85.196)" fill="#997820"/>
          <path id="패스_54901" data-name="패스 54901" d="M236.993-77.892H226.053a8.145,8.145,0,0,0-3.877.852l.313-.852H208.5l-5.93,19.4h14.623l4.239-13.856a2.321,2.321,0,0,1,2.624-1.885h2.179c2.136,0,2.17.822,1.688,2.4L223.8-58.491h14.707l3.936-12.987c1.216-3.974-.511-6.414-5.454-6.414" transform="translate(-120.649 85.212)" fill="#997820"/>
          <path id="패스_54902" data-name="패스 54902" d="M262.836-77.918l-25.968.04-1.124,3.659H251.4c1.237,0,2.5.077,2.11,1.338-.374,1.066-1.25,1.3-2.4,1.3H237.582c-3.375,0-6.377,1.414-7.307,4.449L229.27-63.83c-1.263,4.13.979,5.354,5.591,5.354h11.681a5.558,5.558,0,0,0,3.28-.907l-.328.907h14.124l4.265-13.894c1.012-3.306-1.066-5.508-5.048-5.548m-11.811,13.3c-.519,1.694-1.277,2.484-3.463,2.484h-1.517c-2.136,0-2.453-.825-1.953-2.484l.268-.862c.514-1.691,1.277-2.476,3.463-2.476h4.224Z" transform="translate(-106.422 85.198)" fill="#997820"/>
          <path id="패스_54903" data-name="패스 54903" d="M290.682-77.841h-29.8L252.666-51.22h15.2l2.39-7.655h14.626c4.752,0,8.689-.905,10.072-5.426l2.467-8.072c1.421-4.643-2.127-5.468-6.742-5.468M281.9-71.15l-1.491,4.88c-.674,2.2-.986,3.069-4.031,3.069h-4.789l3.152-10.311h5.411c2.139,0,2.245.748,1.748,2.362" transform="translate(-93.604 85.239)" fill="#997820"/>
          <path id="패스_54904" data-name="패스 54904" d="M312.738-77.892H306.6c-3.281,0-5.208.739-6.163,1.671l.628-1.671H287.093l-5.936,19.4h14.619l3.429-11.215c.588-1.933,2.1-2.749,4.792-2.915l2.062,0a35.66,35.66,0,0,1,4.693.383Z" transform="translate(-78.223 85.212)" fill="#997820"/>
          <path id="패스_54905" data-name="패스 54905" d="M203.4-77.892l-3.931,12.867c-.457,1.344-.835,2.875-2.97,2.875H194.84c-2.753,0-2.8-.936-2.165-3.027l3.89-12.715H181.933l-3.546,11.615c-1.6,5.232-.439,7.79,6.223,7.79h9.777a10.154,10.154,0,0,0,3.2-.362L197.17-57.5c-.528,1.728-1,2.635-3.372,2.635H179.378l-1.169,3.813h21.107c6.172-.12,10.56-.149,12.425-6.256l.316-1.176,5.932-19.405Z" transform="translate(-134.05 85.212)" fill="#997820"/>
          <path id="패스_54906" data-name="패스 54906" d="M187.784-82.616H157.527l-8.158,26.677H179.63c6.038,0,9.236-3.2,10.6-7.639l3.483-11.4c1.37-4.479-.034-7.638-5.925-7.638M178.3-75.092,174.74-63.463c-.647,2.123-1.146,3.118-4.094,3.118h-4.533l5.465-17.873h4.536c2.946,0,2.836,1,2.188,3.126" transform="translate(-149.37 82.661)" fill="#997820"/>
          <path id="패스_54907" data-name="패스 54907" d="M392.4-78.245h9.6l1.35-4.4H368.914l-1.489,4.426,10.12-.022-6.817,22.276H385.6Z" transform="translate(-31.65 82.645)" fill="#767676"/>
        </g>
      </g>
    </g>
  </g>
</svg>
