<svg xmlns="http://www.w3.org/2000/svg" xmlns:xlink="http://www.w3.org/1999/xlink" width="14" height="14" viewBox="0 0 14 14">
  <defs>
    <clipPath id="clip-path">
      <rect id="사각형_14067" data-name="사각형 14067" width="14" height="14" transform="translate(-7154.563 9698.438)" fill="#fff"/>
    </clipPath>
  </defs>
  <g id="icon_flag_middle_east_africa" transform="translate(7154.563 -9698.438)" clip-path="url(#clip-path)">
    <path id="패스_62373" data-name="패스 62373" d="M185,369.581a7.1,7.1,0,0,1-3.747,5.513.054.054,0,0,1-.062-.089,7.488,7.488,0,0,0,2.721-5.424H181.9a5.585,5.585,0,0,1-3.035,4.23.054.054,0,0,1-.06-.089,5.98,5.98,0,0,0,2.027-4.142h-2.014a4.311,4.311,0,0,1-1.126,2.172,5.883,5.883,0,0,1-4.623,1.57s-.05-.008-.066.032.031.07.031.07a51.561,51.561,0,0,1,5.752,3.826,2.152,2.152,0,0,0,1.853.451c4-.939,6.335-5.08,6.36-8.122Z" transform="translate(-7327.562 9331.856)" fill="#999"/>
  </g>
</svg>
