<svg id="logo" xmlns="http://www.w3.org/2000/svg" width="1920" height="90" viewBox="0 0 1920 90">
    <defs>
        <style>
            .cls-2{fill:#fe5a17}.cls-2,.cls-4{fill-rule:evenodd}.cls-3,.cls-4{fill:#fff}
        </style>
    </defs>
    <path id="사각형_12546" data-name="사각형 12546" style="fill:none" d="M0 0h1920v90H0z"/>
    <g id="Layer_1" data-name="Layer 1">
        <g id="그룹_7936" data-name="그룹 7936">
            <g id="그룹_7934" data-name="그룹 7934">
                <g id="그룹_7932" data-name="그룹 7932">
                    <path id="패스_45713" data-name="패스 45713" class="cls-2" d="m397.411 24.157-33.229 44.085L347.4 24.157h-32.2l17.5 45.991h.01c2.852 8.1 10.711 17.382 26.223 17.382h22.9l47.777-63.373z"/>
                    <path id="패스_45714" data-name="패스 45714" class="cls-2" d="M496.476 24.157h-32.145c-34.586 0-39.2 21.07-39.2 21.07l-4.08 16.373c-5.931 23.923 26.86 25.635 26.86 25.635l7.775-.039h60.968l3.424-13.581h-57.065c-13.575 0-11.739-9.967-11.739-9.967l.726-2.893h71.345L526 50.078c6.683-26.92-29.526-25.921-29.526-25.921M492.856 47.6h-37.488c2.618-10.494 14.3-10.595 14.3-10.595h13.519c14.353 0 9.665 10.595 9.665 10.595M869.74 36.812h47.452l3.2-12.655h-57.01c-30.124 0-34.143 18.348-34.143 18.348l-.882 3.519h.028c-.855 9 5.9 13.862 15.74 13.862h37.409c4 0 5.906 2.4 4.342 5.41-2.114 4.062-8.78 5.436-13.557 5.436h-48.541l-4.167 16.459h61.8c30.1 0 34.127-18.351 34.127-18.351l.867-3.484c1.444-9.944-4.829-18.251-14.979-18.251h-38.17c-3.079 0-6.211-1.635-3.906-5.381 3.753-4.854 10.39-4.912 10.39-4.912m-78.495-12.655L781.1 64.664c0 .008-.009.008-.009.015l-2.223 8.931h-19.04c-8.245 0-13.683-4.435-12.109-9.827l10.039-39.626h-68l3.685-14.385H659.3l-14.437 57.181c-3.238 11.111 8.573 20.238 26.239 20.238h20.876l3.43-13.581h-3.781c-8.236 0-13.68-4.427-12.1-9.818l6.933-26.737h34.15l-7.561 29.9c-3.228 11.111 8.58 20.238 26.249 20.238h68.321l15.9-63.034zM601.471 64.134 576.3 24.157h-32.2l-16 63.373h32.2l10.1-39.975 25.159 39.975h32.2l15.995-63.373h-32.196z"/>
                </g>
                <g id="그룹_7962" data-name="그룹 7962">
                    <path id="패스_45715" data-name="패스 45715" class="cls-3" d="M1121.721 2.822c-5.939 7.84-13.065 8.045-31.3 8.638l-3.221 13.76h23.619l-15.44 61.971h38.2l20.667-84.369z"/>
                    <g id="그룹_7933" data-name="그룹 7933">
                        <path id="패스_45716" data-name="패스 45716" class="cls-3" d="m1071.786 25.22 3.552-15.255c-6.975-5.227-21-7.854-42.219-7.854-36.361 0-57.135 6.788-62.45 20.589a9.555 9.555 0 0 0-.534 4.465c.315 3 1.934 5.575 4.873 7.695q6.666 5.1 22.357 10.259 13.629 4.354 27.155 8.761c6.9 2.4 7.44 5.176 7.891 8.337a6.713 6.713 0 0 1-.342 2.8c-2.064 6.587-7.667 9.923-23.056 9.923-11.886 0-18.145-2.679-18.783-7.986a13.287 13.287 0 0 1 .77-5.642h-26.9l-6.488 16.909c7.063 6.4 22.63 9.668 46.769 9.668 18.719 0 35.629-.915 48.051-5.245 12.329-4.282 18.361-11.67 20.724-19.535a13.154 13.154 0 0 0 .615-6.4q-1.149-6.048-11.6-11.214c-6.349-3.057-19.242-7.45-38.574-13.139a96.487 96.487 0 0 1-11.2-3.971c-3.4-1.4-5.206-3.055-5.488-4.977a3.577 3.577 0 0 1 .446-2.356q2.694-7.5 21.889-7.486 15.935 0 17.1 6.785a21.9 21.9 0 0 1 .344 4.869z"/>
                    </g>
                    <path id="패스_45717" data-name="패스 45717" class="cls-4" d="m1326.2 36.489-26.584 35.272-13.423-35.272h-25.763l14 36.795h.014c2.272 6.484 8.559 13.907 20.978 13.907h18.317l38.224-50.7z"/>
                    <path id="패스_45718" data-name="패스 45718" class="cls-4" d="M1234.175 36.489h-25.717c-27.661 0-31.358 16.856-31.358 16.856l-3.259 13.094c-4.75 19.136 21.479 20.51 21.479 20.51l6.226-.032h48.767l2.759-10.861h-45.661c-10.866 0-9.4-7.978-9.4-7.978l.59-2.306h57.081l2.122-8.555c5.353-21.525-23.629-20.728-23.629-20.728zm-2.893 18.748h-30c2.1-8.389 11.444-8.472 11.444-8.472h10.822c11.488 0 7.734 8.472 7.734 8.472z"/>
                    <path id="패스_45719" data-name="패스 45719" class="cls-4" d="M1406.73 36.489h-27.349c-27.672 0-31.494 16.856-31.494 16.856l-4.318 16.744s-4.851 16.86 22.81 16.86h27.349c27.672 0 31.495-16.86 31.495-16.86l4.318-16.744s4.853-16.856-22.811-16.856zm-2.338 18.748-3.341 12.963c-2.171 8.379-11.5 8.47-11.5 8.47h-13.68s-9.291-.091-7.153-8.47l3.347-12.963c2.171-8.389 11.506-8.472 11.506-8.472h13.675s9.29.083 7.146 8.472z"/>
                    <path id="패스_45720" data-name="패스 45720" class="cls-3" d="M1578.8 66.777h-19.173c-10.473 0-24.445.117-33.064.333 5.914-3.966 17.38-11.671 25.629-17.691l38.5-28.343L1604.8 9.528h-91.339c-20.934 0-19.739 13.7-19.739 13.7h13.456c10.47 0 38.2-.108 46.812-.339-5.909 3.969-17.369 11.68-25.621 17.686l-38.5 28.36-22.372 15.751h129.431c-3.728-17.255-18.128-17.909-18.128-17.909z"/>
                </g>
            </g>
        </g>
    </g>
</svg>
