<svg xmlns="http://www.w3.org/2000/svg" xmlns:xlink="http://www.w3.org/1999/xlink" width="192" height="20" viewBox="0 0 192 20">
  <defs>
    <clipPath id="clip-path">
      <rect id="사각형_13329" data-name="사각형 13329" width="192" height="20" transform="translate(321.53 856.268)" fill="none" stroke="#707070" stroke-width="1"/>
    </clipPath>
    <clipPath id="clip-path-2">
      <path id="패스_55532" data-name="패스 55532" d="M0-5.891H77.094V-17.3H0Z" transform="translate(0 17.303)"/>
    </clipPath>
  </defs>
  <g id="navigation_logo_AH33" data-name="navigation logo_AH33" transform="translate(-321.53 -856.268)" clip-path="url(#clip-path)">
    <g id="그룹_11542" data-name="그룹 11542" transform="translate(321.531 878.346)">
      <g id="그룹_11537" data-name="그룹 11537" transform="translate(0 -17.303)" clip-path="url(#clip-path-2)">
        <g id="그룹_11536" data-name="그룹 11536" transform="translate(0 0.174)">
          <path id="패스_55531" data-name="패스 55531" d="M-7.025-5.711l-.316-1.944h-5.786l-1.785,1.944h-5.722L-9.459-16.776h5.391L-1.24-5.711ZM-7.8-10.817a15.608,15.608,0,0,1-.19-2.766c-.538.743-1.074,1.359-2.292,2.766l-.632.727H-7.72Z" transform="translate(20.634 16.776)"/>
        </g>
      </g>
      <g id="그룹_11538" data-name="그룹 11538" transform="translate(21.197 -17.129)">
        <path id="패스_55533" data-name="패스 55533" d="M-8.069,0-9.586,4.031h-6.007L-14.075,0h-5.453L-23.7,11.065h5.453L-16.6,6.7H-10.6l-1.644,4.362h5.453L-2.616,0Z" transform="translate(23.701)"/>
      </g>
      <g id="그룹_11541" data-name="그룹 11541" transform="translate(0 -17.303)" clip-path="url(#clip-path-2)">
        <g id="그룹_11539" data-name="그룹 11539" transform="translate(40.749 0)">
          <path id="패스_55534" data-name="패스 55534" d="M-3.859-5.891a14.283,14.283,0,0,1-7.477-1.691l3.494-1.992A10.49,10.49,0,0,0-2.784-8.419c2.229,0,3.3-.364,3.588-1.123C1.088-10.316.425-10.6-1.52-10.6H-4.3l.9-2.386H-.919c1.675,0,2.307-.206,2.576-.933.221-.585-.427-.9-2.324-.9a14.462,14.462,0,0,0-5.153.948l-1.786-1.992A21.971,21.971,0,0,1,.409-17.3c4.615,0,7.4.838,6.512,3.177-.458,1.218-1.929,1.8-3.382,2.165,1.691.237,2.987.98,2.45,2.387C5.024-7.013,1.373-5.891-3.859-5.891" transform="translate(11.336 17.303)"/>
        </g>
        <g id="그룹_11540" data-name="그룹 11540" transform="translate(58.674 0)">
          <path id="패스_55535" data-name="패스 55535" d="M-3.859-5.891a14.283,14.283,0,0,1-7.477-1.691l3.494-1.992A10.49,10.49,0,0,0-2.784-8.419c2.229,0,3.3-.364,3.588-1.123C1.088-10.316.425-10.6-1.52-10.6H-4.3l.9-2.386H-.92c1.676,0,2.308-.206,2.577-.933.221-.585-.427-.9-2.324-.9a14.462,14.462,0,0,0-5.153.948l-1.786-1.992A21.971,21.971,0,0,1,.409-17.3c4.615,0,7.4.838,6.512,3.177-.458,1.218-1.929,1.8-3.382,2.165,1.691.237,2.987.98,2.45,2.387C5.024-7.013,1.373-5.891-3.859-5.891" transform="translate(11.336 17.303)"/>
        </g>
      </g>
    </g>
  </g>
</svg>
