<svg xmlns="http://www.w3.org/2000/svg" xmlns:xlink="http://www.w3.org/1999/xlink" width="24" height="24" viewBox="0 0 24 24">
  <defs>
    <clipPath id="clip-path">
      <rect id="사각형_13594" data-name="사각형 13594" width="20.005" height="17.53"/>
    </clipPath>
  </defs>
  <g id="ico_wechat" transform="translate(-8 -8)">
    <g id="그룹_12904" data-name="그룹 12904" transform="translate(10 11)">
      <g id="그룹_12903" data-name="그룹 12903" clip-path="url(#clip-path)">
        <path id="패스_56204" data-name="패스 56204" d="M165.806,133.447c-.061.265-.1.535-.185.793a4.916,4.916,0,0,1-1.8,2.445c-.124.095-.255.18-.382.271a.279.279,0,0,0-.036.046l1.144,2.3c-.1-.037-.159-.055-.215-.079-.956-.41-1.914-.816-2.866-1.235a.93.93,0,0,0-.58-.066,7.058,7.058,0,0,1-5.242-.967,4.8,4.8,0,0,1-2.158-2.73,3.977,3.977,0,0,1,.37-3.208,5.663,5.663,0,0,1,3.365-2.6,7.426,7.426,0,0,1,5.2.192,5.567,5.567,0,0,1,2.831,2.384,4.178,4.178,0,0,1,.528,1.583c.007.057.022.113.033.17Zm-7.19-1.652a.936.936,0,1,0-.924.946.945.945,0,0,0,.924-.946m2.807.946a.938.938,0,1,0-.929-.941.945.945,0,0,0,.929.941" transform="translate(-145.801 -121.771)"/>
        <path id="패스_56205" data-name="패스 56205" d="M6.391,12.5c-.556-.145-1.067-.265-1.568-.416a.666.666,0,0,0-.5.024c-.732.322-1.468.634-2.2.949-.059.025-.118.048-.236.1L2.857,11.2c-.267-.212-.541-.409-.793-.632a5.77,5.77,0,0,1-2-3.487A5.154,5.154,0,0,1,.645,3.751,6.877,6.877,0,0,1,4.724.465a8.566,8.566,0,0,1,5.852.1,6.75,6.75,0,0,1,3.886,3.4c.17.348.281.724.434,1.128-.213-.017-.371-.032-.529-.041a8.246,8.246,0,0,0-5.885,1.79A5.882,5.882,0,0,0,6.423,9.97a4.973,4.973,0,0,0-.077,2.248c.014.069.022.139.045.284M5.939,3.775A.936.936,0,1,0,5,4.707a.945.945,0,0,0,.937-.932m5,0A.936.936,0,1,0,10,4.707a.945.945,0,0,0,.935-.934" transform="translate(0 0)"/>
      </g>
    </g>
    <rect id="사각형_13595" data-name="사각형 13595" width="24" height="24" transform="translate(8 8)" fill="none"/>
  </g>
</svg>
