<svg xmlns="http://www.w3.org/2000/svg" xmlns:xlink="http://www.w3.org/1999/xlink" width="24" height="24" viewBox="0 0 24 24">
  <defs>
    <clipPath id="clip-path">
      <rect id="사각형_13596" data-name="사각형 13596" width="22.06" height="18.008"/>
    </clipPath>
  </defs>
  <g id="ico_weibo" transform="translate(-8 -8)">
    <rect id="사각형_13595" data-name="사각형 13595" width="24" height="24" transform="translate(8 8)" fill="none"/>
    <g id="그룹_12910" data-name="그룹 12910" transform="translate(-14.181 103.946)">
      <g id="그룹_12909" data-name="그룹 12909" transform="translate(23.182 -93.446)" clip-path="url(#clip-path)">
        <path id="패스_56206" data-name="패스 56206" d="M273.019,6.5a4.291,4.291,0,0,1-.279,1.264.821.821,0,0,1-1.022.492.842.842,0,0,1-.571-1.007,4.746,4.746,0,0,0,.152-2.035,4.073,4.073,0,0,0-1.512-2.589,4.033,4.033,0,0,0-3.335-.835.863.863,0,0,1-1.121-.686.813.813,0,0,1,.643-.953,5.479,5.479,0,0,1,3.438.3,5.757,5.757,0,0,1,3.605,4.87c0,.034-.005.074.038.091V5.97c-.047.1-.011.209-.022.313a.644.644,0,0,1-.015.214" transform="translate(-250.998 0)"/>
        <path id="패스_56207" data-name="패스 56207" d="M407.8,110.228c.01-.1-.04-.214.041-.307v.3c-.012.019-.026.02-.041,0" transform="translate(-385.777 -103.952)"/>
        <path id="패스_56208" data-name="패스 56208" d="M407.9,115.505a.1.1,0,0,1,.041,0v.217l-.038.006q0-.11,0-.22" transform="translate(-385.886 -109.229)"/>
        <path id="패스_56209" data-name="패스 56209" d="M95.82,178.851a3.951,3.951,0,0,0-5.274,1.431,2.691,2.691,0,0,0,.367,3.278,3.326,3.326,0,0,0,2.267.956,4.054,4.054,0,0,0,3.525-1.822,2.712,2.712,0,0,0-.884-3.843m-2.241,3.667a1.5,1.5,0,0,1-1.257.64.988.988,0,0,1-.807-1.53,1.414,1.414,0,0,1,1.4-.682.991.991,0,0,1,.659,1.571m.709-1.266a.351.351,0,0,1-.385-.344.514.514,0,0,1,.521-.493.369.369,0,0,1,.387.373.509.509,0,0,1-.523.464" transform="translate(-85.29 -168.676)"/>
        <path id="패스_56210" data-name="패스 56210" d="M17.679,53.307a7.117,7.117,0,0,0-1.259-.546c-.266-.1-.3-.161-.228-.436.079-.307.2-.6.254-.916a1.613,1.613,0,0,0-.969-1.929,2.644,2.644,0,0,0-.921-.193,7.36,7.36,0,0,0-3.008.625,2.789,2.789,0,0,1-.467.154c-.3.059-.373-.027-.309-.319.019-.091.049-.181.072-.272a3.822,3.822,0,0,0,.142-1.2,1.667,1.667,0,0,0-.35-.981A1.806,1.806,0,0,0,8.863,46.7,7.625,7.625,0,0,0,5.8,47.943a15.254,15.254,0,0,0-3.719,3.422,9.829,9.829,0,0,0-1.84,3.326,4.42,4.42,0,0,0,.522,3.954A6.3,6.3,0,0,0,3.022,60.64a13.178,13.178,0,0,0,6.225,1.51,14.323,14.323,0,0,0,2.017-.137,11.441,11.441,0,0,0,5.651-2.291,6.475,6.475,0,0,0,2.024-2.488,3,3,0,0,0-1.26-3.927M14.822,58.02a6.639,6.639,0,0,1-3.2,2.287,9.532,9.532,0,0,1-4.918.443,6.234,6.234,0,0,1-3.553-1.694,3.172,3.172,0,0,1-.277-4.191,6.678,6.678,0,0,1,2.99-2.186,9.553,9.553,0,0,1,3.358-.643,8.59,8.59,0,0,1,3.883.812,4.476,4.476,0,0,1,1.865,1.592,3.163,3.163,0,0,1-.151,3.58" transform="translate(0 -44.142)"/>
        <path id="패스_56211" data-name="패스 56211" d="M282.751,58.529a2.418,2.418,0,0,1-.129.875.734.734,0,0,1-.864.5.714.714,0,0,1-.52-.868,1.429,1.429,0,0,0-.477-1.613,1.316,1.316,0,0,0-1.134-.26.731.731,0,0,1-.789-.355.758.758,0,0,1,.1-.85.691.691,0,0,1,.365-.214,2.828,2.828,0,0,1,3.408,2.332,2.393,2.393,0,0,1,.037.452" transform="translate(-263.705 -52.647)"/>
        <path id="패스_56212" data-name="패스 56212" d="M95.82,178.851a3.951,3.951,0,0,0-5.274,1.431,2.691,2.691,0,0,0,.367,3.278,3.326,3.326,0,0,0,2.267.956,4.054,4.054,0,0,0,3.525-1.822,2.712,2.712,0,0,0-.884-3.843m-2.241,3.667a1.5,1.5,0,0,1-1.257.64.988.988,0,0,1-.807-1.53,1.414,1.414,0,0,1,1.4-.682.991.991,0,0,1,.659,1.571m.709-1.266a.351.351,0,0,1-.385-.344.514.514,0,0,1,.521-.493.369.369,0,0,1,.387.373.509.509,0,0,1-.523.464" transform="translate(-85.29 -168.676)"/>
        <path id="패스_56213" data-name="패스 56213" d="M95.82,178.851a3.951,3.951,0,0,0-5.274,1.431,2.691,2.691,0,0,0,.367,3.278,3.326,3.326,0,0,0,2.267.956,4.054,4.054,0,0,0,3.525-1.822,2.712,2.712,0,0,0-.884-3.843m-2.241,3.667a1.5,1.5,0,0,1-1.257.64.988.988,0,0,1-.807-1.53,1.414,1.414,0,0,1,1.4-.682.991.991,0,0,1,.659,1.571m.709-1.266a.351.351,0,0,1-.385-.344.514.514,0,0,1,.521-.493.369.369,0,0,1,.387.373.509.509,0,0,1-.523.464" transform="translate(-85.29 -168.676)"/>
      </g>
    </g>
  </g>
</svg>
