<svg xmlns="http://www.w3.org/2000/svg" width="24" height="24">
    <path data-name="패스 45443" d="M21.457 6.996a7.573 7.573 0 0 1-2.175.6 3.8 3.8 0 0 0 1.665-2.1 7.582 7.582 0 0 1-2.4.919 3.79 3.79 0 0 0-6.453 3.454 10.75 10.75 0 0 1-7.805-3.957 3.791 3.791 0 0 0 1.168 5.057 3.771 3.771 0 0 1-1.715-.474v.048a3.789 3.789 0 0 0 3.038 3.713 3.8 3.8 0 0 1-1.71.065 3.791 3.791 0 0 0 3.537 2.63 7.6 7.6 0 0 1-4.7 1.621 7.716 7.716 0 0 1-.9-.053 10.769 10.769 0 0 0 16.579-9.073q0-.246-.011-.49a7.7 7.7 0 0 0 1.882-1.96z" style="fill:#000"/>
</svg>
