<svg xmlns="http://www.w3.org/2000/svg" xmlns:xlink="http://www.w3.org/1999/xlink" width="40" height="40" viewBox="0 0 40 40">
  <defs>
    <clipPath id="clip-path">
      <rect id="사각형_13594" data-name="사각형 13594" width="22.829" height="20.004" fill="#fff"/>
    </clipPath>
  </defs>
  <g id="icon_-_wechat" data-name="icon - wechat" transform="translate(-1632)">
    <g id="그룹_12904" data-name="그룹 12904" transform="translate(1640.584 9.998)">
      <g id="그룹_12903" data-name="그룹 12903" clip-path="url(#clip-path)">
        <path id="패스_56204" data-name="패스 56204" d="M167.571,134.211c-.069.3-.118.611-.211.905a5.61,5.61,0,0,1-2.056,2.79c-.142.108-.291.206-.436.309a.318.318,0,0,0-.041.052l1.306,2.624c-.115-.042-.182-.063-.245-.091-1.091-.468-2.184-.932-3.271-1.409a1.061,1.061,0,0,0-.662-.076,8.055,8.055,0,0,1-5.982-1.1,5.48,5.48,0,0,1-2.462-3.115,4.538,4.538,0,0,1,.422-3.661,6.463,6.463,0,0,1,3.84-2.968,8.475,8.475,0,0,1,5.93.219,6.353,6.353,0,0,1,3.23,2.72,4.768,4.768,0,0,1,.6,1.806c.008.065.025.129.037.194Zm-8.205-1.885a1.068,1.068,0,1,0-1.054,1.079,1.078,1.078,0,0,0,1.054-1.079m3.2,1.079a1.07,1.07,0,1,0-1.06-1.074,1.078,1.078,0,0,0,1.06,1.074" transform="translate(-144.742 -120.886)" fill="#fff"/>
        <path id="패스_56205" data-name="패스 56205" d="M7.293,14.266c-.634-.165-1.217-.3-1.789-.474a.761.761,0,0,0-.572.027c-.835.368-1.675.723-2.514,1.082-.067.029-.135.055-.269.11L3.26,12.778c-.305-.242-.617-.467-.9-.721A6.585,6.585,0,0,1,.077,8.078a5.882,5.882,0,0,1,.659-3.8A7.848,7.848,0,0,1,5.391.53a9.776,9.776,0,0,1,6.679.119A7.7,7.7,0,0,1,16.5,4.524c.193.4.32.826.5,1.288-.243-.019-.423-.036-.6-.047A9.41,9.41,0,0,0,9.68,7.807a6.712,6.712,0,0,0-2.35,3.571,5.675,5.675,0,0,0-.088,2.565c.016.079.026.159.051.324M6.777,4.308a1.068,1.068,0,1,0-1.07,1.064,1.078,1.078,0,0,0,1.07-1.064m5.707,0a1.068,1.068,0,1,0-1.067,1.066,1.078,1.078,0,0,0,1.067-1.066" transform="translate(0 0)" fill="#fff"/>
      </g>
    </g>
    <rect id="사각형_13595" data-name="사각형 13595" width="40" height="40" transform="translate(1632)" fill="none"/>
  </g>
</svg>
