<svg xmlns="http://www.w3.org/2000/svg" xmlns:xlink="http://www.w3.org/1999/xlink" width="40" height="40" viewBox="0 0 40 40">
  <defs>
    <clipPath id="clip-path">
      <rect id="사각형_13596" data-name="사각형 13596" width="24.5" height="20" fill="none"/>
    </clipPath>
  </defs>
  <g id="icon_-_weibo" data-name="icon - weibo" transform="translate(-1632)">
    <rect id="사각형_13595" data-name="사각형 13595" width="40" height="40" transform="translate(1632)" fill="none"/>
    <g id="그룹_12910" data-name="그룹 12910" transform="translate(1616.818 103.446)">
      <g id="그룹_12909" data-name="그룹 12909" transform="translate(23.182 -93.446)" clip-path="url(#clip-path)">
        <path id="패스_56206" data-name="패스 56206" d="M273.871,7.216a4.766,4.766,0,0,1-.309,1.4.911.911,0,0,1-1.135.547.935.935,0,0,1-.634-1.119,5.271,5.271,0,0,0,.169-2.26,4.524,4.524,0,0,0-1.68-2.875,4.479,4.479,0,0,0-3.7-.928.958.958,0,0,1-1.245-.762.9.9,0,0,1,.714-1.059,6.085,6.085,0,0,1,3.819.328,6.394,6.394,0,0,1,4,5.409c0,.038-.006.082.042.1V6.63c-.052.113-.012.232-.025.348a.717.717,0,0,1-.017.238" transform="translate(-249.413 0)" fill="#fff"/>
        <path id="패스_56207" data-name="패스 56207" d="M407.8,110.262c.012-.114-.045-.238.046-.341v.338c-.014.022-.029.022-.046,0" transform="translate(-383.342 -103.291)" fill="#fff"/>
        <path id="패스_56208" data-name="패스 56208" d="M407.9,115.506a.107.107,0,0,1,.046,0v.241l-.042.007q0-.122,0-.245" transform="translate(-383.45 -108.535)" fill="#fff"/>
        <path id="패스_56209" data-name="패스 56209" d="M96.447,178.9a4.388,4.388,0,0,0-5.857,1.59,2.988,2.988,0,0,0,.407,3.64,3.694,3.694,0,0,0,2.517,1.061,4.5,4.5,0,0,0,3.915-2.023,3.012,3.012,0,0,0-.982-4.268m-2.489,4.072a1.671,1.671,0,0,1-1.4.711,1.1,1.1,0,0,1-.9-1.7,1.571,1.571,0,0,1,1.56-.757,1.1,1.1,0,0,1,.732,1.745m.787-1.406a.39.39,0,0,1-.427-.382.571.571,0,0,1,.579-.547.41.41,0,0,1,.43.414.565.565,0,0,1-.581.515" transform="translate(-84.752 -167.604)" fill="#fff"/>
        <path id="패스_56210" data-name="패스 56210" d="M19.635,54.04a7.9,7.9,0,0,0-1.4-.607c-.3-.106-.331-.179-.253-.484.088-.341.218-.668.282-1.017a1.791,1.791,0,0,0-1.076-2.142,2.936,2.936,0,0,0-1.023-.215,8.174,8.174,0,0,0-3.34.694,3.1,3.1,0,0,1-.519.171c-.33.065-.414-.03-.344-.354.022-.1.055-.2.08-.3a4.245,4.245,0,0,0,.158-1.333,1.851,1.851,0,0,0-.389-1.089,2.006,2.006,0,0,0-1.968-.654,8.469,8.469,0,0,0-3.4,1.376,16.941,16.941,0,0,0-4.13,3.8A10.916,10.916,0,0,0,.265,55.579a4.909,4.909,0,0,0,.58,4.392,7,7,0,0,0,2.512,2.214,14.635,14.635,0,0,0,6.914,1.677,15.907,15.907,0,0,0,2.24-.153,12.707,12.707,0,0,0,6.276-2.545A7.191,7.191,0,0,0,21.035,58.4a3.331,3.331,0,0,0-1.4-4.361m-3.174,5.235a7.374,7.374,0,0,1-3.55,2.54,10.587,10.587,0,0,1-5.462.492A6.924,6.924,0,0,1,3.5,60.425,3.523,3.523,0,0,1,3.2,55.771a7.417,7.417,0,0,1,3.321-2.428,10.61,10.61,0,0,1,3.73-.714,9.54,9.54,0,0,1,4.312.9A4.971,4.971,0,0,1,16.629,55.3a3.513,3.513,0,0,1-.168,3.976" transform="translate(0 -43.861)" fill="#fff"/>
        <path id="패스_56211" data-name="패스 56211" d="M283.193,58.845a2.686,2.686,0,0,1-.144.972.815.815,0,0,1-.96.557.793.793,0,0,1-.577-.964,1.587,1.587,0,0,0-.53-1.791,1.462,1.462,0,0,0-1.259-.289.812.812,0,0,1-.876-.394.842.842,0,0,1,.114-.944.768.768,0,0,1,.405-.238,3.141,3.141,0,0,1,3.785,2.59,2.659,2.659,0,0,1,.041.5" transform="translate(-262.041 -52.312)" fill="#fff"/>
        <path id="패스_56212" data-name="패스 56212" d="M96.447,178.9a4.388,4.388,0,0,0-5.857,1.59,2.988,2.988,0,0,0,.407,3.64,3.694,3.694,0,0,0,2.517,1.061,4.5,4.5,0,0,0,3.915-2.023,3.012,3.012,0,0,0-.982-4.268m-2.489,4.072a1.671,1.671,0,0,1-1.4.711,1.1,1.1,0,0,1-.9-1.7,1.571,1.571,0,0,1,1.56-.757,1.1,1.1,0,0,1,.732,1.745m.787-1.406a.39.39,0,0,1-.427-.382.571.571,0,0,1,.579-.547.41.41,0,0,1,.43.414.565.565,0,0,1-.581.515" transform="translate(-84.752 -167.604)" fill="#fff"/>
        <path id="패스_56213" data-name="패스 56213" d="M96.447,178.9a4.388,4.388,0,0,0-5.857,1.59,2.988,2.988,0,0,0,.407,3.64,3.694,3.694,0,0,0,2.517,1.061,4.5,4.5,0,0,0,3.915-2.023,3.012,3.012,0,0,0-.982-4.268m-2.489,4.072a1.671,1.671,0,0,1-1.4.711,1.1,1.1,0,0,1-.9-1.7,1.571,1.571,0,0,1,1.56-.757,1.1,1.1,0,0,1,.732,1.745m.787-1.406a.39.39,0,0,1-.427-.382.571.571,0,0,1,.579-.547.41.41,0,0,1,.43.414.565.565,0,0,1-.581.515" transform="translate(-84.752 -167.604)" fill="#fff"/>
      </g>
    </g>
  </g>
</svg>
