<svg xmlns="http://www.w3.org/2000/svg" width="20" height="20" viewBox="0 0 20 20">
    <g data-name="ico_back to search">
        <path data-name="사각형 11990" style="fill:none" d="M0 0h20v20H0z"/>
        <path data-name="패스 45171" d="M3.974 10.035A6.316 6.316 0 0 1 6.06 5.359l1.9 1.893V2.48H3.181l1.752 1.75a7.931 7.931 0 0 0 4.615 13.718v-1.606a6.369 6.369 0 0 1-5.574-6.307zm14.333 0a7.956 7.956 0 0 0-7.167-7.913v1.607a6.331 6.331 0 0 1 3.488 10.983l-1.9-1.893v4.772h4.783l-1.752-1.75a7.9 7.9 0 0 0 2.548-5.806z"/>
    </g>
</svg>
