<svg xmlns="http://www.w3.org/2000/svg" xmlns:xlink="http://www.w3.org/1999/xlink" width="64" height="64" viewBox="0 0 64 64">
  <path d="M61.9,14H17.156a2.906,2.906,0,0,0-2.906,2.906V61.655Z" transform="translate(-6.022 -5.878)" fill="#fff"/>
  <g class="__txt">
      <path d="M33.261,51.386l-1.855,1.855-5.838-1.657a6.21,6.21,0,0,1-.824-.271q-.369-.152-.734-.34L28.842,55.8l-1.657,1.657-7.4-7.4,1.844-1.845L27.9,50.025a4.464,4.464,0,0,1,.532.187c.172.072.377.164.621.276l-4.843-4.843,1.658-1.657Z" transform="translate(-8.341 -18.438)" fill="#040000"/>
      <path d="M44.412,41.078,40.97,44.521l.108.108a1.1,1.1,0,0,0,1.11.41A3.14,3.14,0,0,0,43.4,44.2a8.654,8.654,0,0,0,.725-.843,5.626,5.626,0,0,0,.636-1.03l1.163,1.163a2.49,2.49,0,0,1-.246.513c-.111.184-.238.373-.379.567s-.291.383-.448.567-.313.352-.464.5a4.619,4.619,0,0,1-2.722,1.539A3.3,3.3,0,0,1,39.056,46l-.69-.69a4.113,4.113,0,0,1-.952-1.366,2.961,2.961,0,0,1,.148-2.6,4.937,4.937,0,0,1,.853-1.129,5.668,5.668,0,0,1,1.174-.917,2.686,2.686,0,0,1,1.249-.37,2.924,2.924,0,0,1,1.346.3,5.288,5.288,0,0,1,1.46,1.085Zm-2.663.612-.207-.207a1.535,1.535,0,0,0-.923-.5,1.192,1.192,0,0,0-.942.429,1.227,1.227,0,0,0-.419.932,1.488,1.488,0,0,0,.5.961l.187.188Z" transform="translate(-15.626 -16.316)" fill="#040000"/>
      <path d="M46.216,28.638l3.59,2.17a5.091,5.091,0,0,1,.557.38q.271.212.6.459l.03-.03c-.152-.178-.3-.364-.459-.557a4.8,4.8,0,0,1-.4-.577L48,26.853l1.677-1.677L53.317,27.3q.286.168.553.355c.177.125.385.28.621.464l.02-.02c-.19-.23-.349-.434-.473-.612s-.244-.361-.355-.552l-2.121-3.64,1.449-1.449L56.966,28.8,55.2,30.562l-3.58-2.041a4.079,4.079,0,0,1-.637-.449l-.7-.587-.02.02q.317.375.577.705a4.971,4.971,0,0,1,.439.646l2.072,3.551-1.766,1.765L44.6,30.256Z" transform="translate(-18.733 -9.163)" fill="#040000"/>
  </g>
</svg>