<svg xmlns="http://www.w3.org/2000/svg" width="304" height="96.727" viewBox="0 0 304 96.727">
    <g data-name="winter ipike">
        <path data-name="Path 45715" d="M690.034 410.3h-13.183l6.75-22.035 2.709-8.57h12.19l-14.887 8.57h13.137l-6.7 22.035z" transform="translate(-547.557 -318.472)" style="fill:#fff"/>
        <path data-name="Path 45716" d="M709.63 410.3h-13.183l6.746-22.035 2.71-8.57H718.1l-14.89 8.57h13.137l-6.7 22.035z" transform="translate(-491.304 -318.472)" style="fill:#fff"/>
        <path data-name="Path 45717" d="M738.159 410.3H723.99l-2.973-9.193-4.227 2.516-2.07 6.677h-13.134l6.751-22.02 15.792-8.585-2.744 8.988c-.453 1.467-1.622 4.865-2.16 6.251 1.3-1.053 5.26-3.569 7.242-4.784l3.151-1.885h15.026l-11.969 6.635 5.489 15.409z" transform="translate(-476.552 -318.472)" style="fill:#fff"/>
        <path data-name="Path 45718" d="M697.745 389.69h-4.5l1.033 3.89-3.646 1.788-1.032-3.868-3.483 3.87-2.52-1.788 3.418-3.89h-4.5l1.08-3.576h4.5l-1.033-3.871 3.642-1.792 1.034 3.871 3.464-3.871 2.52 1.792-3.422 3.871h4.521l-1.08 3.576z" transform="translate(-531.289 -316.316)" style="fill:#fff"/>
        <path data-name="패스 45774" d="M714.557 381.329h-11.875l2.834-1.629h-12.193l-2.71 8.57 3.1-1.789-7.249 23.819h11.79l2.651-8.182h8.953c8.411 0 14.4-3.108 16.825-11h.024c2.52-8.182-4.907-9.789-12.15-9.789zm.074 10.041a8.418 8.418 0 0 1-8.415 5.268c-2.028 0-3.87-.112-3.87-.112l3.146-10.141h4.37c2.787-.001 6.116.58 4.769 4.985z" transform="translate(-519.962 -318.472)" style="fill:#fff"/>
        <path data-name="Path 45720" d="M740.094 381.922H728.3c-12.386 0-14.395 7.354-14.395 7.354l-1.8 5.717c-2.562 8.357 9.135 8.949 9.135 8.949h24.021l1.44-4.749H727.9c-4.815 0-3.286-3.484-3.286-3.484l.318-1.006h23.224l1.126-3.731c2.922-9.406-9.177-9.053-9.177-9.053zm-3.484 8.186h-10.256a5.091 5.091 0 0 1 4.644-3.7h3.058c5.129 0 2.566 3.7 2.566 3.7z" transform="translate(-447.397 -312.109)" style="fill:#fff"/>
        <path data-name="Path 45721" d="m659.5 394.8 4-13.017h-7.47l-3.961 13.017z" transform="translate(-618.698 -312.504)" style="fill:#fff"/>
        <path data-name="Path 45722" d="M689.858 382.259a8.339 8.339 0 0 0-3.329-.546 11.052 11.052 0 0 0-5.032 1.215l.271-.944h-7.432l-3.96 13.021h7.424l2.16-7.091c.492-1.595 1.8-2.113 3.6-2.113a4.484 4.484 0 0 1 3.1 1.092l3.194-4.645z" transform="translate(-566.142 -312.713)" style="fill:#fff"/>
        <path data-name="Path 45723" d="M674.073 395.009H671.1c-1.262 0-1.754-.29-1.486-1.285l1.44-4.711h4.726l1.08-3.483h-4.726l1.575-5.059-7.064 1.765-.987 3.294h-3.286l-1.123 3.483h3.329l-1.711 5.651c-.9 2.953.538 4.141 4.455 4.141h4.645l2.114-3.8z" transform="translate(-592.333 -316.259)" style="fill:#fff"/>
        <path data-name="Path 45724" d="M679.118 380.658h-8.128l-5.756 10.451.046-10.451h-7.335l-6.345 10.451.673-10.451h-8.293l1.622 17.356h7.289l6.657-10.962-.046 10.962h7.424z" transform="translate(-641.918 -315.722)" style="fill:#fff"/>
        <path data-name="Path 45725" d="M680.2 381.8h-5.624c-7.11 0-8.279 4.331-8.279 4.331l-1.034 3.36c-1.486 4.916 5.264 5.268 5.264 5.268h12.595l.855-2.791h-10.215c-2.79 0-2.3-2.047-2.3-2.047l.178-.592h13.137l.677-2.2c1.664-5.527-5.264-5.322-5.264-5.322zm-1.038 4.815h-6.7a3.325 3.325 0 0 1 3.062-2.175h1.8c2.922 0 1.843 2.175 1.843 2.175z" transform="translate(-581.448 -312.455)" style="fill:#fff"/>
        <path data-name="Path 45726" d="m672.537 381.778-2.52 8.209-4.722-8.209h-6.615l-3.96 13.017h6.619l2.519-8.214 4.726 8.214h6.616l3.96-13.017z" transform="translate(-611.087 -312.507)" style="fill:#fff"/>
        <path data-name="Path 45727" d="M661.415 382.487c-.36 1.122-2.473 2.032-4.722 2.032s-3.782-.91-3.422-2.032 2.477-2.032 4.726-2.032 3.778.91 3.418 2.032z" transform="translate(-615.398 -316.305)" style="fill:#fff"/>
    </g>
    <g data-name="winter icept">
        <path data-name="빼기 1" d="M0 29.466 8.994 0h21.883c4.3 0 7.223 1 8.68 2.98 1.31 1.78 1.447 4.381.408 7.732a15.182 15.182 0 0 1-6.026 8.537A18.537 18.537 0 0 1 23.507 22H15.1l-1.4 4.514L0 29.466zM20.112 5.613l-3.165 10.3h4.7c3.4 0 4.611-1.82 5.566-4.962.682-2.322.724-3.707.137-4.492-.436-.582-1.231-.842-2.579-.842z" transform="translate(232.517 19.073)" style="stroke:transparent;stroke-miterlimit:10;fill:#fff"/>
        <path data-name="패스 45367" d="M912.784 161.7a2.814 2.814 0 0 1-2.532 1.922h-3.345l.767 2.921a2.454 2.454 0 0 1-1.49 2.622c-1.085.529-2.124.214-2.4-.7l-.77-2.925-2.622 2.925a2.251 2.251 0 0 1-2.8.7c-.77-.529-.724-1.7.089-2.622l2.575-2.921h-3.388a1.369 1.369 0 0 1-1.311-1.922 2.8 2.8 0 0 1 2.486-1.918h3.388l-.813-2.921a2.558 2.558 0 0 1 1.536-2.622c1.085-.529 2.128-.218 2.4.7l.767 2.925 2.579-2.925a2.3 2.3 0 0 1 2.847-.7c.766.529.724 1.7-.089 2.622l-2.579 2.921h3.345a1.378 1.378 0 0 1 1.358 1.918z" transform="translate(-743.931 -140.73)" style="fill:#fff"/>
        <path data-name="패스 45368" d="M933.745 155.366h-9.72c-12.3 0-14.33 7.5-14.33 7.5l-1.766 5.823c-2.575 8.515 9.044 9.126 9.044 9.126l2.758-.012h19.127l1.49-4.835h-17.724c-4.839 0-3.979-3.548-3.979-3.548l.315-1.027h22.791l1.128-3.8c2.893-9.585-9.134-9.227-9.134-9.227zm-1.762 8.34h-11.572c1.128-3.73 5.286-3.765 5.286-3.765h3.076c5.108 0 3.21 3.765 3.21 3.765z" transform="translate(-709.011 -136.746)" style="fill:#fff"/>
        <path data-name="패스 45369" d="M932.9 155.365h-16.858c-12.342 0-14.377 7.5-14.377 7.5l-1.767 5.823c-2.528 8.515 9.091 9.126 9.091 9.126l2.758-.012h14.287l1.447-4.835h-12.839c-4.839 0-4.026-3.548-4.026-3.548l.315-1.027 1.447-4.687c1.132-3.73 5.29-3.765 5.29-3.765H931.5l1.4-4.574z" transform="translate(-732.179 -136.745)" style="fill:#fff"/>
        <path data-name="패스 45370" d="M951.379 177.417H946.4c-2.034 0-2.894-.486-2.4-2.128l2.4-7.8h7.78l1.762-5.788h-7.772l2.575-8.379-13.382 2.917-1.672 5.461H927.1l2.4 5.788h4.43l-2.848 9.355c-1.49 4.89.907 6.85 7.372 6.85h9.4l3.528-6.278z" transform="translate(-652.539 -142.646)" style="fill:#fff"/>
        <path data-name="패스 45372" d="M902.793 183.685h-13.157l6.782-21.97 2.667-8.542h12.162l-14.829 8.542h13.066l-6.692 21.97z" transform="translate(-760.797 -143.079)" style="fill:#fff"/>
        <path data-name="패스 45373" d="m872.48 168.215 3.933-12.98H869l-3.934 12.98z" transform="translate(-831.805 -137.121)" style="fill:#fff"/>
        <path data-name="패스 45374" d="M902.619 155.71a8.3 8.3 0 0 0-3.3-.545 11.063 11.063 0 0 0-5.018 1.21l.273-.937h-7.414l-3.937 12.98h7.418l2.124-7.072c.541-1.587 1.81-2.1 3.618-2.1a4.73 4.73 0 0 1 3.119 1.085l3.12-4.617z" transform="translate(-779.34 -137.322)" style="fill:#fff"/>
        <path data-name="패스 45375" d="M886.928 168.451h-2.984c-1.221 0-1.72-.292-1.447-1.28l1.447-4.7h4.656l1.132-3.485h-4.7l1.537-5.045-7.005 1.758-1.043 3.287h-3.256l-1.086 3.485h3.3l-1.719 5.629c-.9 2.945.545 4.127 4.431 4.127h4.609l2.124-3.781z" transform="translate(-805.473 -140.868)" style="fill:#fff"/>
        <path data-name="패스 45376" d="M892.04 154.124h-8.14l-5.7 10.4.046-10.4h-7.324l-6.33 10.4.678-10.4h-8.229l1.582 17.3h7.28l6.647-10.931-.091 10.931h7.416l12.162-17.3z" transform="translate(-854.982 -140.332)" style="fill:#fff"/>
        <path data-name="패스 45377" d="M893.027 155.253h-5.606c-7.1 0-8.274 4.318-8.274 4.318l-1 3.353c-1.494 4.9 5.2 5.247 5.2 5.247H895.958l.859-2.785H886.6c-2.758 0-2.3-2.038-2.3-2.038l.179-.591h13.16l.63-2.19c1.672-5.512-5.244-5.31-5.244-5.31zm-1 4.8h-6.687a3.26 3.26 0 0 1 3.03-2.167h1.763c2.94 0 1.9 2.167 1.9 2.167z" transform="translate(-794.614 -137.072)" style="fill:#fff"/>
        <path data-name="패스 45378" d="m885.46 155.235-2.486 8.187-4.747-8.187h-6.6l-3.933 12.98h6.555l2.533-8.187 4.7 8.187h6.6l3.978-12.98z" transform="translate(-824.214 -137.121)" style="fill:#fff"/>
        <path data-name="패스 45412" d="M874.349 155.949c-.362 1.12-2.443 2.027-4.7 2.027-2.213 0-3.75-.906-3.392-2.027s2.49-2.027 4.7-2.027c2.264 0 3.754.91 3.392 2.027z" transform="translate(-828.52 -140.915)" style="fill:#fff"/>
    </g>
</svg>
