<svg xmlns="http://www.w3.org/2000/svg" width="360" height="64" viewBox="0 0 360 64">
  <g id="Desc" transform="translate(0.001 -1852)">
    <g id="Logo" transform="translate(0 -11102)">
      <rect id="Rectangle_13162" data-name="Rectangle 13162" width="360" height="64" transform="translate(-0.001 12954)" fill="#fff" opacity="0"/>
      <g id="kinergy" transform="translate(-0.001 12954)">
        <g id="kinergy-2" data-name="kinergy" transform="translate(61.911 3.409)">
          <path id="Path_45331" data-name="Path 45331" d="M633.362,154.9c-.649,0-10.57-.023-10.57-.023L609.52,165.4s2.463-10.211,2.535-10.5h-9.019c-.042.176-7.438,30.876-7.511,31.174h9.015c.038-.176,2.654-11.028,2.654-11.028l.138.164s8.748,10.806,8.748,10.863h11.73c-.321-.393-13.284-16.366-13.284-16.366s18.286-14.384,18.836-14.808Z" transform="translate(-595.525 -137.309)" fill="#fff"/>
          <path id="Path_45332" data-name="Path 45332" d="M613.643,186.057c.046-.176,7.442-30.876,7.514-31.174h-9.015c-.038.176-7.442,30.876-7.515,31.174Z" transform="translate(-569.869 -137.292)" fill="#fff"/>
          <path id="Path_45333" data-name="Path 45333" d="M644.166,157.739c-1.31-1.9-3.78-2.856-7.339-2.856H616.058c-.046.176-7.45,30.876-7.518,31.174h9.019l5.926-24.6h7.687c1.94,0,3.227.5,3.933,1.516a4.2,4.2,0,0,1,.622,2.409,13.7,13.7,0,0,1-.446,3.1s-4.17,17.282-4.239,17.58h9.012c.042-.176,4.647-19.264,4.647-19.264a19.981,19.981,0,0,0,.634-4.636,7.611,7.611,0,0,0-1.169-4.418Z" transform="translate(-558.844 -137.292)" fill="#fff"/>
          <path id="Path_45334" data-name="Path 45334" d="M631.625,167.575l.576-2.4c.8-3.341,2.837-5.033,6.045-5.033H653.92c.042-.168,1.2-4.979,1.268-5.262H635.294c-6.113,0-10.444,3.391-11.868,9.3,0,0-5.2,21.578-5.273,21.876h29.52c.042-.168,1.2-4.979,1.268-5.262h-20.5l1.791-7.434H648.12c.042-.172,1.329-5.5,1.394-5.785Z" transform="translate(-531.749 -137.292)" fill="#fff"/>
          <path id="Path_45335" data-name="Path 45335" d="M637.4,170.474a15.053,15.053,0,0,0-.432,3.532,11.747,11.747,0,0,0,2,6.732c2.371,3.429,6.507,5.319,11.65,5.319h15.068c.046-.176,4.391-18.206,4.456-18.481H655.76c-.038.168-1.325,5.5-1.4,5.785h5.377l-1.795,7.434h-3.513c-3.6,0-5.941-.859-7.16-2.631a6.474,6.474,0,0,1-1-3.776,17.246,17.246,0,0,1,.531-3.922c1.73-7.14,5.6-10.321,12.547-10.321h11.284c.046-.168,1.2-4.979,1.275-5.262H658.192c-9.71,0-18.649,6.705-20.791,15.591Z" transform="translate(-478.719 -137.292)" fill="#fff"/>
          <path id="Path_45336" data-name="Path 45336" d="M656.818,154.883h-8.607L655.4,175.3s-8.671,10.371-9,10.757c.466,0,8.924.038,8.924.038s25.736-30.811,26.073-31.212h-8.924l-11,13.155s-4.6-13-4.655-13.155Z" transform="translate(-452.123 -137.292)" fill="#fff"/>
          <path id="Path_45337" data-name="Path 45337" d="M651.4,154.883H634.516c-.042.176-7.446,30.876-7.515,31.174h9.019c.038-.176,6.369-26.431,6.369-26.431h4.055l1.142,0c3.279-.023,6.109-.042,7.251,1.6a4.212,4.212,0,0,1,.283,3.467c-1.18,4.888-5.674,4.849-10.024,4.807l-1.187-.008h-2.952c.176.348,8.2,16.45,8.256,16.572h9.97c-.184-.347-6.61-12.7-6.61-12.7h.191c5.846,0,9.97-3.2,11.314-8.79a12.21,12.21,0,0,0,.374-2.826,5.841,5.841,0,0,0-.962-3.414c-1.646-2.387-5.372-3.448-12.093-3.448Z" transform="translate(-506.812 -137.292)" fill="#fff"/>
          <path id="Path_45338" data-name="Path 45338" d="M621.486,152.344l-1.021,4.232h44.614l1.021-4.232Z" transform="translate(-525.233 -144.448)" fill="#fff"/>
          <path id="Path_45339" data-name="Path 45339" d="M692.973,153.525l-2.192-3.249c-6.575,4.926-14.224,7.874-21.872,7.874l-23.38.008L644.5,162.4l23.846,0c8.695,0,17.286-3.288,24.625-8.874Z" transform="translate(-457.488 -150.276)" fill="#fff"/>
          <path id="Path_45340" data-name="Path 45340" d="M633.516,152.344l-1.021,4.232h44.614l1.021-4.232Z" transform="translate(-491.328 -144.448)" fill="#fff"/>
        </g>
      </g>
    </g>
  </g>
</svg>
