<svg id="logo_ion_white" xmlns="http://www.w3.org/2000/svg" width="304" height="97" viewBox="0 0 304 97">
  <rect id="사각형_13489" data-name="사각형 13489" width="304" height="97" transform="translate(0 0)" fill="#fff" opacity="0"/>
  <g id="그룹_12557" data-name="그룹 12557" transform="translate(-105.206 -233.386)">
    <path id="패스_55965" data-name="패스 55965" d="M283.172,263.967H280.78c-2.288,0-3.723.942-4.264,2.8l-5.637,19.563a.814.814,0,0,1-.653.576.733.733,0,0,1-.758-.358l-11.113-19.636c-1.085-1.961-1.631-2.946-4.44-2.946h-5.4a5.228,5.228,0,0,0-5.592,4.224l-7.429,25.02a2.088,2.088,0,0,0,.109,1.85,2.964,2.964,0,0,0,2.453.777h2.4c2.25,0,3.665-.944,4.205-2.8l5.819-19.548a.794.794,0,0,1,.771-.578.728.728,0,0,1,.638.368l11.226,19.912c.94,1.582,1.619,2.727,4.243,2.727h5.556c2.948,0,4.71-1.342,5.543-4.226l7.232-25.1a2.1,2.1,0,0,0-.131-1.854A2.889,2.889,0,0,0,283.172,263.967Z" transform="translate(30.798 4.976)" fill="#fff"/>
    <path id="패스_55966" data-name="패스 55966" d="M206.932,295.917H202.8a2.6,2.6,0,0,1-2.5-3.312l7.7-26.758a2.6,2.6,0,0,1,2.5-1.88h4.128a2.6,2.6,0,0,1,2.5,3.31l-7.7,26.76A2.6,2.6,0,0,1,206.932,295.917Z" transform="translate(0 4.976)" fill="#fff"/>
    <path id="패스_55967" data-name="패스 55967" d="M215.5,268.939h-3.6a2.992,2.992,0,0,1-2.877-3.815l1.421-4.954a2.6,2.6,0,0,1,2.494-1.88h4.125a2.6,2.6,0,0,1,2.494,3.308l-1.565,5.463A2.593,2.593,0,0,1,215.5,268.939Z" transform="translate(7.627 0)" fill="#fff"/>
    <path id="패스_55968" data-name="패스 55968" d="M252.85,282.757c-2.638,9.2-11.5,13.973-24.675,13.973s-19.3-4.772-16.662-13.973l1.466-5.114c2.625-9.158,11.865-13.973,24.675-13.973s19.289,4.815,16.662,13.973Zm-8.236-4.729c1.8-6.262-1.184-8.82-8.548-8.82s-11.809,2.558-13.605,8.82l-1.246,4.344c-1.809,6.305,1.184,8.82,8.548,8.82s11.8-2.515,13.605-8.82Z" transform="translate(9.384 4.717)" fill="#fff"/>
  </g>
</svg>
