<svg xmlns="http://www.w3.org/2000/svg" width="360" height="64" viewBox="0 0 360 64">
  <g id="Logo" transform="translate(0.001 -12954)">
    <rect id="사각형_13162" data-name="사각형 13162" width="360" height="64" transform="translate(-0.001 12954)" fill="#fff" opacity="0"/>
    <g id="ventus" transform="translate(0 12954)">
      <g id="ventus-2" data-name="ventus" transform="translate(62.386 22.021)">
        <path id="패스_45364" data-name="패스 45364" d="M102.694,156.614,89.8,173.724l-6.522-17.11h-12.5l6.8,17.855h0c1.1,3.146,4.154,6.747,10.18,6.747h8.9l18.546-24.6Z" transform="translate(-70.776 -151.024)" fill="#fff"/>
        <path id="패스_45365" data-name="패스 45365" d="M111.029,160.74H98.55c-13.429,0-15.22,8.179-15.22,8.179l-1.585,6.354c-2.3,9.287,10.432,9.955,10.432,9.955l3.017-.019h23.67l1.329-5.269H98.039c-5.273,0-4.563-3.868-4.563-3.868l.286-1.123h27.7L122.5,170.8c2.6-10.455-11.467-10.061-11.467-10.061m-1.4,9.1H95.072c1.016-4.067,5.556-4.109,5.556-4.109h5.247c5.567,0,3.754,4.109,3.754,4.109m146.338-4.181h18.424l1.245-4.918h-15.61v0h-6.53c-11.7,0-13.258,7.121-13.258,7.121l-.34,1.371h.008c-.328,3.49,2.295,5.38,6.117,5.38h14.521c1.55,0,2.287.932,1.684,2.1-.821,1.577-3.406,2.1-5.262,2.1H238.114l-1.615,6.392h24c11.684,0,13.246-7.121,13.246-7.121l.34-1.356c.561-3.857-1.875-7.083-5.815-7.083H253.445c-1.2,0-2.409-.634-1.516-2.089a5.627,5.627,0,0,1,4.036-1.905m-30.483-4.914-3.937,15.728h0l-.863,3.471h-7.4c-3.2,0-5.308-1.722-4.7-3.815l3.9-15.384h-26.4l1.432-5.59H174.255l-5.605,22.2c-1.256,4.315,3.326,7.855,10.188,7.855h8.106l1.329-5.269h-1.466c-3.2,0-5.315-1.718-4.7-3.811l2.692-10.382h13.261l-2.936,11.608c-1.252,4.315,3.334,7.855,10.2,7.855H231.84l6.174-24.469ZM151.8,176.258l-9.771-15.518h-12.5l-6.216,24.6h12.505l3.918-15.518,9.775,15.518h12.5l6.209-24.6h-12.5L151.8,176.258Z" transform="translate(-40.644 -155.15)" fill="#fff"/>
      </g>
    </g>
  </g>
</svg>
