<svg xmlns="http://www.w3.org/2000/svg" width="360" height="64" viewBox="0 0 360 64">
  <g id="Desc" transform="translate(0.001 -1852)">
    <g id="Logo" transform="translate(0 -11102)">
      <rect id="Rectangle_13162" data-name="Rectangle 13162" width="360" height="64" transform="translate(-0.001 12954)" fill="#fff" opacity="0"/>
      <g id="dynapro" transform="translate(0 12954)">
        <path id="Union_6" data-name="Union 6" d="M39.824,30.769l.981-3.861h16.3c2.4,0,2.832-.917,3.274-2.663l.25-1H50.286c-6.743,0-8.055-2.59-6.712-7.89L46.547,3.6H58.685L55.422,16.472c-.532,2.12-.434,3.068,2.352,3.068h1.679c2.161,0,2.462-1.554,2.855-2.913L65.6,3.6H77.7L72.723,23.247l-.256,1.188c-1.565,6.184-6,6.213-12.246,6.334Zm114.429-.108L161.161,3.71h24.147c4.672,0,8.305.834,7.114,5.535l-2.068,8.172c-1.16,4.577-5.1,5.5-9.906,5.5H168.984l-2.013,7.748ZM170.1,18.531h4.847c3.083,0,3.351-.878,3.917-3.106l1.25-4.94c.419-1.633.27-2.4-1.895-2.4H172.74ZM98.362,27.008l4.345-17.272c.4-1.6.325-2.432-1.836-2.432H98.664a2.212,2.212,0,0,0-2.556,1.911L91.67,27.008H79.542L85.4,3.6h23.494c5,0,6.882,2.469,5.862,6.494l-4.18,16.915Zm38.421,0H124.644c-4.668,0-7-1.238-5.944-5.421l1.028-4.865c.779-3.076,3.742-4.505,7.159-4.505H140.05l.912-3.557c.326-1.277-.954-1.356-2.206-1.356h-13.17l.942-3.7,20.94-.04c4.032.04,6.251,2.268,5.4,5.615l-4.464,17.832Zm-5.465-8.617-.775,2.4c-.42,1.679-.054,2.513,2.108,2.513h4.592l1.891-7.415h-3.787C133.133,15.883,131.75,16.678,131.318,18.389ZM0,27.006,6.843,0h25.28c5.964,0,7.552,3.2,6.4,7.731l-2.92,11.542c-1.142,4.492-4.21,7.734-10.322,7.734Zm14.042-4.459h4.589c2.983,0,3.436-1.009,3.978-3.16L25.6,7.617c.545-2.151.6-3.165-2.379-3.165H18.625ZM242.39,26.962c-5.146,0-7.9-4.2-7.33-6.989l2.714-10.956c.818-3.233,6.386-5.466,10.192-5.466l12.2.008c5.434,0,9.813,3.177,9.235,6.211l-2.608,10.536c-.908,3.588-6.009,6.656-10.484,6.656Zm7.175-16.033-1.975,8.335c-.215.992.843,2.245,2.913,2.245h.626c2.118,0,3.705-1.234,4.013-2.486l1.678-7.091c.354-1.436-.261-2.684-2.571-2.684h-.813C251.656,9.247,250.514,9.247,249.565,10.929ZM216.15,26.962l-2.882-7.748H208.5l-2.013,7.748H193.767l6.08-23.41h24.816c4.672,0,8.305.835,7.114,5.537l-1.242,4.63a6.43,6.43,0,0,1-4.771,4.9l3.1,8.341ZM209.61,14.833h4.848c3.081,0,3.35-.879,3.917-3.107l.424-1.4c.418-1.635.27-2.394-1.9-2.394h-5.477Z" transform="translate(45.384 23.846)" fill="#fff"/>
      </g>
    </g>
  </g>
</svg>
