<svg xmlns="http://www.w3.org/2000/svg" width="360" height="64" viewBox="0 0 360 64">
  <g id="Desc" transform="translate(0.001 -1852)">
    <g id="Logo" transform="translate(0 -11102)">
      <rect id="Rectangle_13162" data-name="Rectangle 13162" width="360" height="64" transform="translate(-0.001 12954)" fill="#fff" opacity="0"/>
      <path id="smart" d="M-1555.667-4183.315l-.333-.5,9.873-5.2.253.276c2.4,2.621,6.225,3.948,11.377,3.948,7.3,0,8.785-1.766,9.253-3.306.532-1.731-.235-2.721-9.492-4.28-8.194-1.413-15.346-3.335-12.929-11.233,1.987-6.5,11.065-11.04,22.078-11.04,7.535,0,12.964,1.821,17.079,5.733l.5.476-10.071,5.692-.27-.249c-2.632-2.427-5.836-3.559-10.078-3.559-4.9,0-7.065,1.363-7.456,2.639-.525,1.72,1.079,2.416,8.584,3.719,8.381,1.458,16.36,3.553,13.9,11.591-1.365,4.467-6.319,11.958-24.169,11.958C-1546.154-4176.651-1552.92-4179.143-1555.667-4183.315Zm90.175-3.574c1.87-6.124,10.725-9.182,20.225-9.182a21.9,21.9,0,0,1,7.723,1.107l.422-1.373c.6-1.955-1.81-3.33-5.8-3.33a51.587,51.587,0,0,0-14.892,2.264l-.619-5.688a51.1,51.1,0,0,1,17.411-2.8c10.137,0,17.441,2.65,15.537,8.884l-5.934,19.409h-11.431l.565-1.847a21.8,21.8,0,0,1-10.163,2.425C-1460.272-4177.02-1467.545-4180.183-1465.492-4186.889Zm11.429,0c-.593,1.955.611,3.487,5.323,3.487a14.2,14.2,0,0,0,8.438-2.533l.869-2.861c-1.669-.79-3.331-1.37-7.242-1.37C-1450.829-4190.166-1453.386-4189.1-1454.063-4186.889Zm-44.066-5.512-4.284,14.8h-10.9l8.47-27.706h10.242l5.572,15.752,15.26-15.752h10.123l-8.473,27.706h-10.9l4.767-14.8-14.6,15.337Zm119.938,14.8,6.427-21.02h-10.174l-2.634-6.687h38.2l-2.043,6.687h-11.734l-6.429,21.02Zm-22.387,0-7.087-9.34h-4.674l-2.852,9.34h-11.438l8.476-27.707h18.736c9.816,0,15.589,2.454,13.58,9.021-1.266,4.158-4.99,6.731-10.02,8.114l8.266,10.571Zm-9.907-15.395h6.828c3.769,0,5.606-1.111,6.211-3.088.53-1.742-.528-2.97-4.181-2.97h-7.005Z" transform="translate(1631 17182.652)" fill="#fff" stroke="rgba(0,0,0,0)" stroke-miterlimit="10" stroke-width="1"/>
    </g>
  </g>
</svg>
