<svg xmlns="http://www.w3.org/2000/svg" width="960" height="90" viewBox="0 0 960 90">
    <g data-name="A type_logo_127A">
        <path data-name="사각형 12553" style="fill:none" d="M0 0h960v90H0z"/>
        <g data-name="그룹 7976">
            <path data-name="패스 45813" d="m588.523 741.422-19.255 25.546-9.724-25.546h-18.661l10.146 26.653h.005c1.649 4.693 6.2 10.074 15.2 10.074H579.5l27.683-36.727z" transform="translate(-500.638 -708.502)" style="fill-rule:evenodd;fill:#fe5a17"/>
            <path data-name="패스 45814" d="M643.071 741.422h-18.627c-20.041 0-22.715 12.21-22.715 12.21l-2.365 9.486c-3.437 13.861 15.564 14.856 15.564 14.856l4.5-.026h35.329l1.985-7.869h-33.061c-7.869 0-6.806-5.777-6.806-5.777l.422-1.669h41.343l1.54-6.19c3.873-15.599-17.109-15.021-17.109-15.021zm-2.1 13.585h-21.722c1.519-6.079 8.291-6.138 8.291-6.138h7.832c8.315 0 5.602 6.138 5.602 6.138z" transform="translate(-497.779 -708.502)" style="fill-rule:evenodd;fill:#fe5a17"/>
            <path data-name="패스 45815" d="M848.511 748.757h27.5l1.855-7.335h-33.045c-17.452 0-19.782 10.632-19.782 10.632l-.51 2.044h.015c-.5 5.208 3.423 8.03 9.122 8.03h21.676c2.316 0 3.421 1.388 2.515 3.136-1.223 2.353-5.088 3.145-7.855 3.145h-28.128l-2.413 9.54h35.809c17.441 0 19.776-10.631 19.776-10.631l.5-2.02c.839-5.762-2.8-10.574-8.675-10.574h-22.122c-1.782 0-3.6-.951-2.261-3.12 2.174-2.812 6.024-2.846 6.024-2.846" transform="translate(-486.92 -708.502)" style="fill-rule:evenodd;fill:#fe5a17"/>
            <path data-name="패스 45816" d="m807.789 741.813-5.879 23.473h-.005l-1.292 5.18h-11.031c-4.777 0-7.928-2.568-7.015-5.694l5.816-22.963h-39.4l2.131-8.336h-19.785l-8.365 33.135c-1.876 6.441 4.966 11.727 15.2 11.727h12.1l1.986-7.869h-2.19c-4.773 0-7.928-2.562-7.015-5.689l4.02-15.491h19.788l-4.378 17.322c-1.875 6.441 4.97 11.727 15.21 11.727h39.588l9.215-36.526z" transform="translate(-491.687 -708.893)" style="fill-rule:evenodd;fill:#fe5a17"/>
            <path data-name="패스 45817" d="m700.98 764.589-14.58-23.167h-18.66l-9.273 36.727h18.657l5.85-23.167 14.583 23.167h18.657l9.266-36.727h-18.654z" transform="translate(-494.848 -708.502)" style="fill-rule:evenodd;fill:#fe5a17"/>
            <path data-name="패스 45818" d="M987.251 729.642c-3.447 4.539-7.573 4.66-18.142 5l-1.864 7.972h13.692l-8.949 35.909h22.138l11.975-48.886z" transform="translate(-479.643 -709.082)" style="fill:#888"/>
            <g data-name="그룹 7974">
                <path data-name="패스 45819" d="m961.836 742.638 2.059-8.842c-4.04-3.028-12.17-4.547-24.468-4.547-21.067 0-33.107 3.931-36.184 11.928a5.509 5.509 0 0 0-.311 2.587 6.242 6.242 0 0 0 2.825 4.461q3.861 2.957 12.953 5.943 7.9 2.524 15.737 5.077c4 1.389 4.311 3 4.574 4.831a3.886 3.886 0 0 1-.2 1.621c-1.194 3.821-4.443 5.753-13.36 5.753-6.887 0-10.513-1.553-10.883-4.63a7.731 7.731 0 0 1 .442-3.267h-15.585l-3.757 9.8c4.092 3.714 13.112 5.6 27.1 5.6 10.848 0 20.645-.529 27.845-3.033 7.146-2.487 10.641-6.769 12.012-11.327a7.631 7.631 0 0 0 .353-3.7q-.661-3.508-6.718-6.5c-3.68-1.772-11.151-4.317-22.356-7.612a55.815 55.815 0 0 1-6.491-2.3c-1.972-.811-3.018-1.772-3.177-2.884a2.035 2.035 0 0 1 .257-1.364q1.561-4.347 12.682-4.34 9.234 0 9.913 3.933a12.92 12.92 0 0 1 .2 2.82z" transform="translate(-483.167 -709.101)" style="fill:#888"/>
            </g>
            <path data-name="패스 45820" d="m1101.024 748.233-15.4 20.438-7.784-20.438h-14.927l8.116 21.321h.005c1.322 3.759 4.961 8.059 12.155 8.059h10.619l22.146-29.38z" transform="translate(-474.932 -708.166)" style="fill:#888;fill-rule:evenodd"/>
            <path data-name="패스 45821" d="M1050.075 748.233h-14.906c-16.03 0-18.169 9.767-18.169 9.767l-1.889 7.588c-2.753 11.088 12.448 11.885 12.448 11.885l3.606-.019h28.26l1.6-6.292h-26.458c-6.3 0-5.447-4.622-5.447-4.622l.339-1.336h33.082l1.229-4.957c3.096-12.476-13.695-12.014-13.695-12.014zm-1.681 10.865h-17.38c1.214-4.86 6.632-4.908 6.632-4.908h6.267c6.656 0 4.481 4.91 4.481 4.91z" transform="translate(-477.303 -708.166)" style="fill:#888;fill-rule:evenodd"/>
            <path data-name="패스 45822" d="M1145.44 748.233h-15.847c-16.034 0-18.253 9.767-18.253 9.767l-2.5 9.7s-2.811 9.768 13.219 9.768h15.847c16.034 0 18.254-9.768 18.254-9.768l2.5-9.7s2.81-9.767-13.22-9.767zm-1.355 10.865-1.932 7.51c-1.262 4.859-6.669 4.908-6.669 4.908h-7.924s-5.389-.049-4.147-4.908l1.937-7.51c1.258-4.86 6.67-4.908 6.67-4.908h7.923s5.384.048 4.142 4.91z" transform="translate(-472.68 -708.166)" style="fill:#888;fill-rule:evenodd"/>
            <path data-name="패스 45823" d="M1248.15 778.073c-12.277 0-19.566-3.5-23.52-6.445l-1.984-1.479 9.753-5.284 1.8 1.308c4.181 3.025 8.722 4.372 14.727 4.372 4.693 0 10.178-1.241 10.178-4.736 0-1.971-1.639-3.362-10.943-5.949-11.024-3-16.616-5.661-16.616-11.851 0-6.7 9.768-11.945 22.234-11.945 9.1 0 15.71 1.554 21.428 5.042l2.3 1.415-9.5 5.619-1.891-1.211c-3.232-2.063-6.59-3.342-13.373-3.342-6.034 0-8.785 2.075-8.785 4 0 1.5.526 2.567 10.841 5.413 10.845 2.981 16.715 5.838 16.715 12.386.003 7.353-9.822 12.687-23.364 12.687z" transform="translate(-467.067 -708.765)" style="fill:#888"/>
            <path data-name="패스 45824" d="m1337.227 777.971-10.435-39.846h11.818l6.993 28.867 23.573-28.867h12.518l-33.527 39.846z" transform="translate(-461.939 -708.664)" style="fill:#888"/>
            <path data-name="패스 45825" d="m1314.86 738.034-7.332 26.22-.394 1.414-1.7 6.1.657-2.365c-.351 2.365-3.215 2.365-3.215 2.365h-9.673c-3.127 0-5.769-1.151-7.237-3.156a6.172 6.172 0 0 1-.869-5.624l7.034-24.954H1280.3l-2.067 7.61-5.751 20.439a7.577 7.577 0 0 0 1.024 7c2.152 2.93 6.5 4.681 11.642 4.681l30.392.037 11.166-39.741z" transform="translate(-464.634 -708.669)" style="fill:#888"/>
            <g data-name="그룹 7975">
                <path data-name="패스 45826" d="M1202.968 750.291a7.486 7.486 0 0 1-2.549 3.918 16.549 16.549 0 0 1-5.092 2.8 35.894 35.894 0 0 1-7.226 1.693 65.48 65.48 0 0 1-8.949.571 42.516 42.516 0 0 1-10.713-1.26 24.283 24.283 0 0 1-8.531-4.016l8.732-3.386a18.915 18.915 0 0 0 5.82 2.539 30.077 30.077 0 0 0 7.024.728 25.262 25.262 0 0 0 7.812-.925q2.685-.924 3.1-2.578a1.915 1.915 0 0 0-1.365-2.383 14.648 14.648 0 0 0-5.491-.768h-6.166l1.363-5.4h5.572a12.572 12.572 0 0 0 4.86-.709 3.129 3.129 0 0 0 1.939-2.086 1.285 1.285 0 0 0-.187-1.024 2.607 2.607 0 0 0-1.219-.907 10.229 10.229 0 0 0-2.516-.63 28.851 28.851 0 0 0-4.064-.236 24.79 24.79 0 0 0-10.765 2.323l-6.651-3.662a40.186 40.186 0 0 1 8.684-3.052 46.894 46.894 0 0 1 10.245-1 50.485 50.485 0 0 1 7.342.492 24.619 24.619 0 0 1 5.688 1.457 8.032 8.032 0 0 1 3.469 2.442 3.83 3.83 0 0 1 .625 3.406 5.92 5.92 0 0 1-2.772 3.623 16.439 16.439 0 0 1-4.667 2.008 16.478 16.478 0 0 1 2.493.709 10.113 10.113 0 0 1 2.333 1.2 5.162 5.162 0 0 1 1.6 1.752 3.173 3.173 0 0 1 .222 2.361z" transform="translate(-470.156 -709.023)" style="fill:#888"/>
            </g>
        </g>
    </g>
</svg>
