<svg xmlns="http://www.w3.org/2000/svg" xmlns:xlink="http://www.w3.org/1999/xlink" width="204" height="52" viewBox="0 0 204 52">
  <defs>
    <clipPath id="clip-path">
      <rect id="사각형_13291" data-name="사각형 13291" width="204" height="52" transform="translate(320.442 855.18)" fill="none" stroke="#707070" stroke-width="1"/>
    </clipPath>
  </defs>
  <g id="BI_title" data-name="BI title" transform="translate(-320.442 -855.18)" clip-path="url(#clip-path)">
    <g id="그룹_11213" data-name="그룹 11213" transform="translate(277.923 431.354)">
      <path id="패스_55263" data-name="패스 55263" d="M69.059,460.092c3.046-4.082,4.385-5.871,5.691-8.026a59,59,0,0,0,.783,8.026l.291,2.109H67.48ZM57.481,474.905l4.458-5.64h15.1l1.008,5.64h15.1L84.7,442.8h-14.1L42.519,474.905Z" transform="translate(0 0.413)" fill="#767676"/>
      <path id="패스_55264" data-name="패스 55264" d="M92.646,462.249h15.681l-3.87,12.656H118.7l9.815-32.105H114.273l-3.578,11.7H95.017l3.575-11.7H84.348l-9.815,32.105H88.777Z" transform="translate(22.227 0.413)" fill="#767676"/>
      <path id="패스_55265" data-name="패스 55265" d="M132.932,449.7c4.964,0,6.7.917,6.181,2.613-.647,2.111-2.269,2.708-6.655,2.708h-6.472l-2.118,6.925h7.263c5.108,0,6.87.825,6.181,3.072-.674,2.2-3.441,3.256-9.266,3.256a25.781,25.781,0,0,1-13.29-3.346l-8.96,5.778c4.47,3.028,11.16,4.908,19.718,4.908,13.668,0,23.078-3.256,25.35-10.686,1.249-4.083-2.192-6.238-6.659-6.926,3.775-1.054,7.531-2.752,8.607-6.284,2.079-6.786-5.232-9.217-17.318-9.217a51.28,51.28,0,0,0-20.771,4.173l4.852,5.779a33.934,33.934,0,0,1,13.355-2.752" transform="translate(43.934 0.208)" fill="#767676"/>
      <path id="패스_55266" data-name="패스 55266" d="M132.8,475.319c3.809-10.991,13.7-16.3,27.849-19.935,5.981-1.535,6.959-2.047,7.357-3.353.44-1.444-.954-2.235-5.127-2.235a47.168,47.168,0,0,0-16.508,3.307l-4.593-6.66a67.321,67.321,0,0,1,23.644-4.237c12.961,0,18.746,3.258,16.936,9.175-1.308,4.285-4.49,6.892-15.355,9.781-11.354,3.026-14.817,4.842-16.531,6.8h27.19l-2.25,7.358Z" transform="translate(62.681)" fill="#767676"/>
    </g>
  </g>
</svg>
