<svg xmlns="http://www.w3.org/2000/svg" width="72" height="72" viewBox="0 0 72 72">
  <g id="ico2" transform="translate(0 -1656)">
    <rect id="사각형_12335" data-name="사각형 12335" width="72" height="72" transform="translate(0 1656)" fill="none" opacity="0.3"/>
    <g id="그룹_11090" data-name="그룹 11090" transform="translate(7 1663)">
      <line id="선_179" data-name="선 179" x2="1.082" y2="1.077" transform="translate(3.479 28.742)" fill="none" stroke="#040000" stroke-linecap="round" stroke-linejoin="round" stroke-width="2"/>
      <g id="그룹_11089" data-name="그룹 11089">
        <rect id="사각형_13261" data-name="사각형 13261" width="62.491" height="62.491" transform="translate(-2.245 -2.245)" fill="none"/>
        <path id="패스_62952" data-name="패스 62952" d="M31.6,20.119l-3.914,0h0a6.516,6.516,0,0,0,0,13.03h0L38.1,33.14" fill="none" stroke="#060001" stroke-linecap="round" stroke-linejoin="round" stroke-width="2"/>
        <path id="패스_62953" data-name="패스 62953" d="M38.1,33.14c.086-.014-.087,0,0,0h0a6.567,6.567,0,0,1,6.522,6.5,6.49,6.49,0,0,1-6.464,6.51H20.536" fill="none" stroke="#060001" stroke-linecap="round" stroke-linejoin="round" stroke-width="2"/>
        <line id="선_180" data-name="선 180" transform="translate(38.101 33.14)" fill="none"/>
        <g id="그룹_11088" data-name="그룹 11088">
          <path id="패스_62954" data-name="패스 62954" d="M55.055,13.742v-2.8c-1.433-.51-2.338-.653-2.794-1.753h0c-.458-1.1.087-1.852.735-3.217L51.013,3.983c-1.355.644-2.112,1.193-3.218.735h0c-1.1-.456-1.245-1.368-1.752-2.794H43.237c-.505,1.419-.65,2.337-1.752,2.794h0c-1.1.458-1.851-.085-3.217-.735L36.283,5.966c.647,1.361,1.193,2.113.736,3.218h0c-.457,1.1-1.374,1.248-2.793,1.753v2.8c1.416.5,2.336.65,2.793,1.753h0c.46,1.113-.1,1.88-.736,3.217L38.267,20.7c1.356-.645,2.112-1.194,3.217-.735h0c1.1.457,1.246,1.37,1.752,2.793h2.805c.506-1.419.651-2.335,1.76-2.8h0c1.095-.455,1.84.088,3.21.739L53,18.712C52.351,17.355,51.8,16.6,52.26,15.5S53.638,14.246,55.055,13.742Z" fill="none" stroke="#040000" stroke-linecap="round" stroke-linejoin="round" stroke-width="2"/>
          <path id="패스_62955" data-name="패스 62955" d="M48.111,12.339A3.472,3.472,0,1,1,44.64,8.867" fill="none" stroke="#040000" stroke-linecap="round" stroke-linejoin="round" stroke-width="2"/>
        </g>
        <line id="선_181" data-name="선 181" y2="1.527" transform="translate(10.099 26.582)" fill="none" stroke="#040000" stroke-linecap="round" stroke-linejoin="round" stroke-width="2"/>
        <line id="선_182" data-name="선 182" x1="1.082" y2="1.077" transform="translate(15.598 28.742)" fill="none" stroke="#040000" stroke-linecap="round" stroke-linejoin="round" stroke-width="2"/>
        <path id="패스_62956" data-name="패스 62956" d="M4.349,43.455s2.812,3.1,3.254,5.424h5.082c.442-2.321,3.25-5.421,3.25-5.421h0a7.181,7.181,0,1,0-11.586,0Z" fill="none" stroke="#040000" stroke-linecap="round" stroke-linejoin="round" stroke-width="2"/>
        <path id="패스_62957" data-name="패스 62957" d="M7.862,52.311a2.383,2.383,0,0,0,4.56,0" fill="none" stroke="#040000" stroke-linecap="round" stroke-linejoin="round" stroke-width="2"/>
      </g>
    </g>
  </g>
</svg>
