<svg xmlns="http://www.w3.org/2000/svg" xmlns:xlink="http://www.w3.org/1999/xlink" width="192" height="20" viewBox="0 0 192 20">
  <defs>
    <clipPath id="clip-path">
      <rect id="사각형_14037" data-name="사각형 14037" width="192" height="20" transform="translate(321.53 856.268)" fill="none" stroke="#707070" stroke-width="1"/>
    </clipPath>
    <clipPath id="clip-path-2">
      <rect id="사각형_14046" data-name="사각형 14046" width="77.758" height="12.496"/>
    </clipPath>
  </defs>
  <g id="navigation_logo_DW06" data-name="navigation logo_DW06" transform="translate(-321.53 -856.268)" clip-path="url(#clip-path)">
    <g id="그룹_12973" data-name="그룹 12973" transform="translate(321.531 860.019)">
      <g id="그룹_12972" data-name="그룹 12972" transform="translate(0 0.001)" clip-path="url(#clip-path-2)">
        <path id="패스_56443" data-name="패스 56443" d="M13.2,6.8a18.88,18.88,0,0,1-.115-3.029A25.137,25.137,0,0,1,10.677,6.8l-.689.8h3.277Zm-7.373,5.59H0L11.555.279h5.6l2.419,12.115H13.694l-.2-2.128H7.672Z" transform="translate(0 -0.089)"/>
        <path id="패스_56444" data-name="패스 56444" d="M42.52,12.395,44.3,7.618H38.309l-1.782,4.777H30.983L35.537.279h5.545L39.417,4.693H45.41L47.075.279H52.62L48.065,12.395Z" transform="translate(-9.866 -0.089)"/>
        <path id="패스_56445" data-name="패스 56445" d="M67.994,12.5a14.39,14.39,0,0,1-8.413-2.319L63.1,8.118a10.967,10.967,0,0,0,5.705,1.61c1.512,0,2.916-.346,3.009-1.367.059-.641-.494-1.022-2.706-1.022H66.7l1-2.613h2.687c1.54,0,2.328-.346,2.387-.986.057-.623-.746-1.022-2.959-1.022a13.477,13.477,0,0,0-4.553.8L63.528,1.333A19.429,19.429,0,0,1,71.015,0c5.041,0,7.4,1.176,7.209,3.236C78.092,4.674,76.308,5.5,74.6,5.851c1.75.468,2.63,1.246,2.518,2.475-.243,2.648-3.854,4.171-9.119,4.171" transform="translate(-18.973 -0.001)"/>
        <path id="패스_56446" data-name="패스 56446" d="M92.794,7.373c-.131,1.436.8,2.233,2.568,2.233A4.753,4.753,0,0,0,99.89,5.123c.132-1.437-.8-2.233-2.568-2.233a4.753,4.753,0,0,0-4.528,4.483m12.7-2.319C105.136,9,100.755,12.5,94.622,12.5c-4.621,0-7.728-1.852-7.435-5.053C87.549,3.5,91.929,0,98.062,0c4.621,0,7.729,1.852,7.435,5.054" transform="translate(-27.758 0)"/>
      </g>
    </g>
  </g>
</svg>
