<svg xmlns="http://www.w3.org/2000/svg" xmlns:xlink="http://www.w3.org/1999/xlink" width="192" height="20" viewBox="0 0 192 20">
  <defs>
    <clipPath id="clip-path">
      <rect id="사각형_13476" data-name="사각형 13476" width="192" height="20" transform="translate(321.53 856.268)" fill="none" stroke="#707070" stroke-width="1"/>
    </clipPath>
    <clipPath id="clip-path-2">
      <path id="패스_56117" data-name="패스 56117" d="M0-7.481H192V-19.843H0Z" transform="translate(0 19.843)"/>
    </clipPath>
  </defs>
  <g id="navigation_logo_DL20w_Max_" data-name="navigation logo_DL20w(Max)" transform="translate(-321.53 -856.268)" clip-path="url(#clip-path)">
    <g id="그룹_12369" data-name="그룹 12369" transform="translate(321.531 879.931)">
      <g id="그룹_12357" data-name="그룹 12357" transform="translate(0 -19.843)" clip-path="url(#clip-path-2)">
        <g id="그룹_12352" data-name="그룹 12352" transform="translate(34.281 0.065)">
          <path id="패스_56112" data-name="패스 56112" d="M0-7.18c1.364-3.938,4.908-5.84,9.977-7.141,2.143-.551,2.493-.734,2.636-1.2.158-.518-.342-.8-1.837-.8a16.908,16.908,0,0,0-5.914,1.185L3.216-17.524a24.113,24.113,0,0,1,8.471-1.519c4.644,0,6.716,1.168,6.067,3.287-.468,1.535-1.609,2.469-5.5,3.5-4.068,1.084-5.308,1.736-5.923,2.436h9.741L15.266-7.18Z" transform="translate(0 19.043)"/>
        </g>
        <g id="그룹_12353" data-name="그룹 12353" transform="translate(51.622 0.37)">
          <path id="패스_56113" data-name="패스 56113" d="M-4.085-7.17c-4.778,0-7.659-2.084-6.491-5.907s5.387-5.939,10.165-5.939,7.66,2.084,6.491,5.906S.693-7.17-4.085-7.17M-1.3-16.276A4.012,4.012,0,0,0-5.341-13.11c-.642,2.1.176,3.2,2.146,3.2A4.014,4.014,0,0,0,.845-13.077c.642-2.1-.178-3.2-2.147-3.2" transform="translate(10.836 19.016)"/>
        </g>
        <g id="그룹_12354" data-name="그룹 12354" transform="translate(72.311 4.211)">
          <path id="패스_56114" data-name="패스 56114" d="M-1.212,0l.153,3.725c.008.2.008.4,0,.606s-.021.436-.039.682h.039q.089-.319.185-.657a3.887,3.887,0,0,1,.236-.632L1.021,0H3.126l.23,3.725q.013.293.006.587c0,.2-.015.43-.032.7h.026q.115-.407.217-.7a5.7,5.7,0,0,1,.242-.587L5.486,0h1.85L4.1,7.056H1.914L1.672,3.419a4.055,4.055,0,0,1,.006-.683q.032-.364.083-.848H1.735q-.14.523-.255.868c-.077.229-.161.451-.255.663L-.4,7.056H-2.654L-3.215,0Z" transform="translate(3.215)"/>
        </g>
        <g id="그룹_12355" data-name="그룹 12355" transform="translate(72.227 4.134)">
          <path id="패스_56115" data-name="패스 56115" d="M-1.263-.047l-.077,0,.153,3.725c0,.1.006.2.006.3s0,.2-.006.3q-.012.311-.038.68l-.006.083h.181l.016-.057q.089-.319.185-.657a3.849,3.849,0,0,1,.231-.619h0L1.02.03H3l.226,3.653.077,0-.077,0q.008.194.008.39c0,.064,0,.128,0,.192q-.007.291-.032.7l0,.082h.167l.016-.057q.114-.406.216-.7a5.463,5.463,0,0,1,.239-.579h0L5.486.03H7.165l-3.17,6.9H1.935L1.7,3.366h0c-.007-.092-.011-.187-.011-.285q0-.185.017-.384.032-.363.083-.847L1.8,1.764H1.624l-.015.057q-.14.521-.254.863T1.1,3.342l0,0L-.5,6.931H-2.633L-3.182.03h1.919V-.047l-.077,0,.077,0V-.124H-3.35l.574,7.21H-.4l1.64-3.679,0,0q.141-.322.257-.67c.078-.232.163-.522.257-.872l-.075-.02v.078H1.71V1.841l-.077-.008q-.05.486-.083.85c-.012.137-.018.269-.018.4,0,.1,0,.2.012.3l.077-.006-.077,0L1.79,7.086h2.3L7.406-.124H5.385L3.693,3.647l.07.032-.07-.033a5.8,5.8,0,0,0-.246.595q-.1.3-.218.706l.075.021V4.89H3.279v.077l.077,0c.017-.273.028-.507.032-.7,0-.065,0-.13,0-.195,0-.132,0-.265-.008-.4h0l-.234-3.8H.919L-.76,3.647l.071.031-.07-.033A4.033,4.033,0,0,0-1,4.289c-.064.226-.126.445-.185.657l.075.021V4.89h-.039v.077l.077.006c.017-.247.03-.475.039-.685,0-.105.006-.209.006-.311s0-.2-.006-.3l-.156-3.8h-.074Z" transform="translate(3.35 0.124)"/>
        </g>
        <g id="그룹_12356" data-name="그룹 12356" transform="translate(0 0)">
          <path id="패스_56116" data-name="패스 56116" d="M-3.722-7.173H-9.873l3.624-11.853H.389c5.961,0,9.324,1.405,7.962,5.858S3-7.173-3.722-7.173M-.5-16.215H-1.8L-3.7-9.984h1.138c3.279,0,4.79-.779,5.51-3.132.668-2.185-.164-3.1-3.442-3.1" transform="translate(9.873 19.026)"/>
        </g>
      </g>
      <g id="그룹_12358" data-name="그룹 12358" transform="translate(18.205 -19.843)">
        <path id="패스_56118" data-name="패스 56118" d="M-2.193,0-5.817,11.853H7.893l.875-2.862H.368L3.118,0Z" transform="translate(5.817)"/>
      </g>
      <g id="그룹_12359" data-name="그룹 12359" transform="translate(99.968 -12.193)">
        <path id="패스_56119" data-name="패스 56119" d="M0-.687.347-1.821H3.39L3.043-.687Z" transform="translate(0 1.821)"/>
      </g>
      <g id="그룹_12367" data-name="그룹 12367" transform="translate(0 -19.843)" clip-path="url(#clip-path-2)">
        <g id="그룹_12360" data-name="그룹 12360" transform="translate(125.881 3.756)">
          <path id="패스_56120" data-name="패스 56120" d="M-3.941-2.257a6.343,6.343,0,0,0-1.84.452l-.951,3.077h1.148A3.053,3.053,0,0,0-3.32-.772c.36-1.2.1-1.485-.621-1.485M-4.79,2.362c-.987,0-5.663-.022-5.663-.022l2.177-7.122A.74.74,0,0,1-7.7-5.265l3.2-.72-.843,2.752a6.017,6.017,0,0,1,2.511-.548C-.96-3.781.2-2.9-.482-.674A4.011,4.011,0,0,1-4.79,2.362" transform="translate(10.453 5.985)"/>
        </g>
        <g id="그룹_12361" data-name="그룹 12361" transform="translate(104.534 5.388)">
          <path id="패스_56121" data-name="패스 56121" d="M-5.814-3.4l-4.043,0c-.969,0-1.339-.12-1.125-.806l.766-2.465c.214-.686.4-.868,1.5-.946l4.295-.292.339-1.1v0h-7.079c-1.86,0-2.924.806-3.272,1.924l-.891,2.871c-.349,1.119.214,1.926,2.074,1.926h7.094Z" transform="translate(15.42 9.012)"/>
        </g>
        <g id="그룹_12362" data-name="그룹 12362" transform="translate(86.864 4.894)">
          <path id="패스_56122" data-name="패스 56122" d="M-5.722-4.379l.41-1.342H-11a.477.477,0,0,1-.463-.668l.1-.323h5.127A2.616,2.616,0,0,0-3.907-8.5L-3.5-9.832a1.274,1.274,0,0,0-1.238-1.783h-6.908a2.617,2.617,0,0,0-2.328,1.783L-15.1-6.157a1.271,1.271,0,0,0,1.24,1.778Zm-4.754-5.23a.981.981,0,0,1,.873-.668H-6.26A.477.477,0,0,1-5.8-9.61l-.273.891a.98.98,0,0,1-.873.669h-3.343a.478.478,0,0,1-.464-.669Z" transform="translate(15.177 11.615)"/>
        </g>
        <g id="그룹_12363" data-name="그룹 12363" transform="translate(136.343 5.834)">
          <path id="패스_56123" data-name="패스 56123" d="M-4.978-3.81l.357-1.167H-9.566a.415.415,0,0,1-.4-.582l.085-.28h4.46A2.277,2.277,0,0,0-3.4-7.391l.355-1.163A1.108,1.108,0,0,0-4.12-10.1h-6.009a2.276,2.276,0,0,0-2.025,1.551l-.977,3.2A1.105,1.105,0,0,0-12.054-3.81ZM-9.114-8.361a.854.854,0,0,1,.759-.581h2.909a.416.416,0,0,1,.4.581l-.237.776A.854.854,0,0,1-6.039-7H-8.947a.416.416,0,0,1-.4-.582Z" transform="translate(13.202 10.105)"/>
        </g>
        <g id="그룹_12364" data-name="그룹 12364" transform="translate(115.447 4.846)">
          <path id="패스_56124" data-name="패스 56124" d="M-.062-3.033l.94-3.075a1.677,1.677,0,0,1,1.13-1.07l3.472-.866L3.747-2.374a.4.4,0,0,0,.387.557H6.846a.818.818,0,0,0,.728-.557H7.558l1.4-4.592h2.005l-1.2,3.933A3.271,3.271,0,0,1,6.855-.8H1.485A1.592,1.592,0,0,1-.062-3.033" transform="translate(0.164 8.044)"/>
        </g>
        <g id="그룹_12365" data-name="그룹 12365" transform="translate(152.384 4.794)">
          <path id="패스_56125" data-name="패스 56125" d="M-5.73-4.428l.558-1.746c.23-.721.464-1.379.693-1.944-.554.544-1.488,1.39-2.085,1.913L-8.893-4.178-9.919-6.2c-.26-.523-.654-1.369-.863-1.913-.124.565-.316,1.224-.546,1.944l-.559,1.746H-15.2l2.339-7.317h3.25l.938,1.955a11.443,11.443,0,0,1,.89,2.205A28.293,28.293,0,0,1-5.463-9.79l2.187-1.955H-.068L-2.417-4.428Z" transform="translate(15.199 11.745)"/>
        </g>
        <g id="그룹_12366" data-name="그룹 12366" transform="translate(165.321 4.794)">
          <path id="패스_56126" data-name="패스 56126" d="M-5.446-4.428l-.283-1.286H-9.554l-1.107,1.286h-3.784l6.969-7.317h3.565l2.291,7.317ZM-6.152-7.8a10.407,10.407,0,0,1-.23-1.829c-.328.492-.659.9-1.41,1.829l-.391.481h2.111Z" transform="translate(14.445 11.745)"/>
        </g>
      </g>
      <g id="그룹_12368" data-name="그룹 12368" transform="translate(177.526 -16.049)">
        <path id="패스_56128" data-name="패스 56128" d="M-.085,0,5.122,4.617l-5.348,3.7h4l2.8-2.2,2.544,2.2h4.1L9.07,4.575,14.248,1H10.234l-2.6,2.048L4.011,0Z" transform="translate(0.226)"/>
      </g>
    </g>
  </g>
</svg>
