<svg xmlns="http://www.w3.org/2000/svg" xmlns:xlink="http://www.w3.org/1999/xlink" width="192" height="20" viewBox="0 0 192 20">
  <defs>
    <clipPath id="clip-path">
      <rect id="사각형_13317" data-name="사각형 13317" width="192" height="20" transform="translate(321.53 856.268)" fill="none" stroke="#707070" stroke-width="1"/>
    </clipPath>
    <clipPath id="clip-path-2">
      <rect id="사각형_13316" data-name="사각형 13316" width="114.313" height="18.242"/>
    </clipPath>
  </defs>
  <g id="navigation_logo_H308" data-name="navigation logo_H308" transform="translate(-321.53 -856.268)" clip-path="url(#clip-path)">
    <g id="그룹_11345" data-name="그룹 11345" transform="translate(321.531 857.146)">
      <path id="패스_55435" data-name="패스 55435" d="M152.808,11.367l-.424,1.582h18.534l.424-1.582Z" transform="translate(-112.82 -8.416)"/>
      <g id="그룹_11344" data-name="그룹 11344" transform="translate(0 0)">
        <g id="그룹_11343" data-name="그룹 11343" clip-path="url(#clip-path-2)">
          <path id="패스_55436" data-name="패스 55436" d="M319.386,1.215,318.475,0a16.441,16.441,0,0,1-9.086,2.943l-9.714,0-.426,1.586,9.908,0a18.257,18.257,0,0,0,10.23-3.316" transform="translate(-221.555 0)"/>
          <path id="패스_55437" data-name="패스 55437" d="M226.315,11.367l-.424,1.582h18.534l.424-1.582Z" transform="translate(-167.242 -8.416)"/>
          <path id="패스_55438" data-name="패스 55438" d="M59.368,36.977c.017-.066,3.092-11.54,3.122-11.652H58.745c-.017.066-3.092,11.54-3.123,11.652Z" transform="translate(-41.181 -18.75)"/>
          <path id="패스_55439" data-name="패스 55439" d="M94.322,26.393a3.666,3.666,0,0,0-3.048-1.067h-8.63c-.018.066-3.093,11.54-3.123,11.652h3.746l2.463-9.2h3.194a1.939,1.939,0,0,1,1.632.567,1.447,1.447,0,0,1,.259.9,4.651,4.651,0,0,1-.186,1.157s-1.733,6.46-1.762,6.571h3.745l1.931-7.2a6.8,6.8,0,0,0,.264-1.734,2.628,2.628,0,0,0-.487-1.651" transform="translate(-58.875 -18.751)"/>
          <path id="패스_55440" data-name="패스 55440" d="M143.853,30.07l.24-.9a2.352,2.352,0,0,1,2.51-1.881h6.513l.527-1.966h-8.264a4.688,4.688,0,0,0-4.931,3.476l-2.19,8.176h12.264c.017-.063.5-1.862.527-1.967h-8.516l.743-2.779h7.433l.579-2.161Z" transform="translate(-102.361 -18.75)"/>
          <path id="패스_55441" data-name="패스 55441" d="M253.4,31.153a5.094,5.094,0,0,0-.18,1.32,4.071,4.071,0,0,0,.832,2.515,5.888,5.888,0,0,0,4.839,1.989h6.26c.018-.066,1.823-6.8,1.851-6.907h-5.975l-.58,2.161h2.232l-.745,2.779h-1.461c-1.493,0-2.466-.322-2.974-.984a2.245,2.245,0,0,1-.416-1.41,5.785,5.785,0,0,1,.222-1.467c.717-2.668,2.324-3.858,5.212-3.858h4.688c.017-.063.5-1.861.528-1.966h-5.694c-4.034,0-7.748,2.505-8.638,5.828" transform="translate(-187.479 -18.75)"/>
          <path id="패스_55442" data-name="패스 55442" d="M315.2,25.325h-3.574l2.986,7.631-3.738,4.021,3.708.014,10.831-11.667h-3.707c-.027.028-4.571,4.916-4.571,4.916L315.2,25.325" transform="translate(-230.161 -18.75)"/>
          <path id="패스_55443" data-name="패스 55443" d="M202.454,25.325h-7.015c-.017.066-3.092,11.54-3.122,11.652h3.745l2.647-9.879h1.685l.474,0c1.364-.009,2.54-.015,3.013.6a1.437,1.437,0,0,1,.119,1.3c-.49,1.827-2.358,1.812-4.166,1.8l-.493,0h-1.226l3.431,6.194h4.141l-2.745-4.746h.078c2.428,0,4.141-1.2,4.7-3.285a4.1,4.1,0,0,0,.156-1.056,2.029,2.029,0,0,0-.4-1.276c-.684-.892-2.233-1.289-5.024-1.289" transform="translate(-142.386 -18.75)"/>
          <path id="패스_55444" data-name="패스 55444" d="M15.719,25.3l-4.39-.008L5.815,29.228,6.867,25.3H3.121L0,36.953H3.745l1.1-4.121.056.062s3.634,4.038,3.634,4.06h4.874L7.894,30.836s7.6-5.377,7.825-5.536" transform="translate(0 -18.726)"/>
          <path id="패스_55445" data-name="패스 55445" d="M364.636,43.963h5.314l.34-1.273h-5.313l.227-.84a1.582,1.582,0,0,1,1.683-1.261H371.6l.341-1.273h-5.684a3.233,3.233,0,0,0-3.4,2.4l-1.506,5.622h8.44l.34-1.272h-6.054Z" transform="translate(-267.531 -29.108)"/>
          <path id="패스_55446" data-name="패스 55446" d="M404.83,47.446l-1.959-2.779-2.96,2.779H397.45l4.445-4.122-2.681-3.764h2.807l1.581,2.331,2.525-2.331h2.446l-3.982,3.691,3.031,4.195Z" transform="translate(-294.26 -29.289)"/>
          <path id="패스_55447" data-name="패스 55447" d="M408.985,40.978h1.351l-3.52,3.27,2.807,3.879h-1.888l-2.089-2.964-3.164,2.964h-1.366l3.982-3.7-2.457-3.448h1.9l1.713,2.517Z" transform="translate(-296.975 -30.339)"/>
        </g>
      </g>
    </g>
  </g>
</svg>
