<svg xmlns="http://www.w3.org/2000/svg" xmlns:xlink="http://www.w3.org/1999/xlink" width="192" height="20" viewBox="0 0 192 20">
  <defs>
    <clipPath id="clip-path">
      <rect id="사각형_13462" data-name="사각형 13462" width="192" height="20" transform="translate(321.53 856.268)" fill="none" stroke="#707070" stroke-width="1"/>
    </clipPath>
    <clipPath id="clip-path-2">
      <rect id="사각형_13460" data-name="사각형 13460" width="192" height="12.072"/>
    </clipPath>
  </defs>
  <g id="navigation_logo_AL20w_Max_" data-name="navigation logo_AL20w(Max)" transform="translate(-321.53 -856.268)" clip-path="url(#clip-path)">
    <g id="그룹_12288" data-name="그룹 12288" transform="translate(321.531 860.232)">
      <g id="그룹_12287" data-name="그룹 12287" transform="translate(0 0)" clip-path="url(#clip-path-2)">
        <path id="패스_56024" data-name="패스 56024" d="M13.1,12.784l-.385-2.039H7.146L5.515,12.784H0L10.282,1.18h5.2l3.187,11.6ZM12.137,7.43a20.988,20.988,0,0,1-.306-2.9c-.477.779-.966,1.426-2.08,2.9l-.578.762h3.076Z" transform="translate(0 -0.998)"/>
        <path id="패스_56025" data-name="패스 56025" d="M129.793,12.784l3.548-11.6h5.2l-2.691,8.8h8.219l-.856,2.8Z" transform="translate(-109.8 -0.998)"/>
        <path id="패스_56026" data-name="패스 56026" d="M230.1,11.786c1.356-3.912,4.877-5.8,9.912-7.095,2.129-.547,2.477-.729,2.619-1.193.157-.514-.34-.8-1.825-.8a16.792,16.792,0,0,0-5.875,1.177L233.3,1.509A23.956,23.956,0,0,1,241.712,0c4.613,0,6.672,1.16,6.028,3.266-.466,1.525-1.6,2.453-5.465,3.481-4.041,1.077-5.273,1.724-5.884,2.42h9.678l-.8,2.619Z" transform="translate(-194.656 0)"/>
        <path id="패스_56027" data-name="패스 56027" d="M348.646,13.734c-4.747,0-7.609-2.07-6.448-5.868s5.352-5.9,10.1-5.9,7.61,2.07,6.449,5.868-5.352,5.9-10.1,5.9m2.766-9.047A3.987,3.987,0,0,0,347.4,7.833c-.638,2.087.176,3.179,2.132,3.179a3.988,3.988,0,0,0,4.014-3.146c.638-2.086-.176-3.179-2.132-3.179" transform="translate(-289.267 -1.662)"/>
        <path id="패스_56028" data-name="패스 56028" d="M477.361,30.179l.152,3.7q.012.292,0,.6t-.038.678h.038q.088-.317.184-.653a3.911,3.911,0,0,1,.234-.627l1.648-3.7h2.091l.228,3.7q.012.292.006.583t-.032.7h.025q.114-.406.215-.7a5.665,5.665,0,0,1,.241-.583l1.66-3.7h1.838l-3.22,7.01h-2.168l-.241-3.613a4.013,4.013,0,0,1,.006-.678q.031-.361.082-.843h-.025q-.14.52-.254.862t-.253.659l-1.61,3.613h-2.244l-.558-7.01Z" transform="translate(-402.145 -25.53)"/>
        <path id="패스_56029" data-name="패스 56029" d="M476.9,29.756l-.077,0,.152,3.7c0,.1.006.194.006.293s0,.2-.006.3q-.012.309-.038.676l-.006.082h.179l.016-.056q.088-.316.184-.653a3.828,3.828,0,0,1,.23-.615h0l1.628-3.656h1.969l.224,3.629.077,0-.077,0q.008.194.008.388,0,.1,0,.19-.006.289-.032.694l-.005.082h.166l.016-.056q.114-.4.214-.693a5.565,5.565,0,0,1,.238-.575h0l1.64-3.656h1.668l-3.149,6.856h-2.046l-.236-3.542h0q-.011-.137-.011-.284,0-.183.018-.381.031-.36.082-.842l.009-.085h-.17l-.015.057q-.139.518-.252.857t-.251.653l0,0-1.591,3.57h-2.122L475,29.833H476.9v-.077l-.077,0,.077,0v-.077H474.83l.57,7.164h2.365l1.629-3.655,0,0q.14-.32.256-.666t.255-.866l-.074-.02v.077h.025v-.077l-.077-.008q-.051.482-.082.844-.018.2-.018.395,0,.153.012.3l.077-.006-.077.005.245,3.684h2.289l3.29-7.164h-2.008l-1.681,3.747.07.032-.069-.033a5.71,5.71,0,0,0-.244.591q-.1.295-.217.7l.074.021V34.66h-.025v.077l.077,0q.025-.407.032-.7,0-.1,0-.194,0-.2-.008-.394h0l-.233-3.774h-2.214L477.4,33.426l.07.031-.069-.033a3.994,3.994,0,0,0-.239.64q-.1.336-.184.653l.074.021V34.66h-.038v.077l.077.005c.017-.246.03-.472.038-.68,0-.1.006-.208.006-.309s0-.2-.006-.3l-.155-3.775H476.9Z" transform="translate(-401.687 -25.107)"/>
        <path id="패스_56030" data-name="패스 56030" d="M652.869,48.566l.345-1.127h3.023l-.344,1.127Z" transform="translate(-552.301 -40.132)"/>
        <path id="패스_56031" data-name="패스 56031" d="M826.463,26.027a6.3,6.3,0,0,0-1.828.449l-.945,3.058h1.141a3.033,3.033,0,0,0,2.249-2.032c.358-1.191.1-1.475-.617-1.475m-.843,4.588c-.981,0-5.627-.022-5.627-.022l2.163-7.075a.735.735,0,0,1,.569-.481c.471-.1,3.178-.714,3.178-.714l-.837,2.735a5.972,5.972,0,0,1,2.494-.545c1.864,0,3.02.874,2.339,3.086a3.984,3.984,0,0,1-4.28,3.017" transform="translate(-693.681 -18.884)"/>
        <path id="패스_56032" data-name="패스 56032" d="M691.864,38.423l-4.017,0c-.963,0-1.33-.12-1.118-.8l.761-2.449c.213-.681.4-.862,1.494-.939l4.267-.29.337-1.092v0h-7.034c-1.847,0-2.905.8-3.251,1.911l-.886,2.852c-.348,1.112.213,1.913,2.06,1.913h7.047Z" transform="translate(-577.216 -27.786)"/>
        <path id="패스_56033" data-name="패스 56033" d="M577.748,36.849l.408-1.333h-5.648a.475.475,0,0,1-.461-.664l.1-.32h5.094a2.6,2.6,0,0,0,2.313-1.771l.406-1.328a1.265,1.265,0,0,0-1.23-1.771h-6.863a2.6,2.6,0,0,0-2.313,1.771l-1.116,3.651a1.263,1.263,0,0,0,1.231,1.766Zm-4.723-5.2a.975.975,0,0,1,.867-.664h3.321a.474.474,0,0,1,.461.664l-.271.886a.975.975,0,0,1-.867.665h-3.321a.475.475,0,0,1-.461-.665Z" transform="translate(-480.806 -25.091)"/>
        <path id="패스_56034" data-name="패스 56034" d="M895.644,41.978l.354-1.16h-4.913a.413.413,0,0,1-.4-.578l.085-.279H895.2a2.262,2.262,0,0,0,2.012-1.541l.353-1.156a1.1,1.1,0,0,0-1.07-1.541h-5.97a2.262,2.262,0,0,0-2.011,1.541l-.971,3.176a1.1,1.1,0,0,0,1.07,1.537Zm-4.109-4.521a.848.848,0,0,1,.754-.578h2.889a.413.413,0,0,1,.4.578l-.236.771a.849.849,0,0,1-.755.578H891.7a.413.413,0,0,1-.4-.578Z" transform="translate(-750.766 -30.221)"/>
        <path id="패스_56035" data-name="패스 56035" d="M752.8,34.329l.934-3.055a1.666,1.666,0,0,1,1.123-1.064l3.45-.86-1.722,5.633a.4.4,0,0,0,.385.553h2.694a.812.812,0,0,0,.723-.553h-.016l1.395-4.562h1.992l-1.195,3.908a3.25,3.25,0,0,1-2.891,2.214h-5.335a1.582,1.582,0,0,1-1.537-2.214" transform="translate(-636.754 -24.829)"/>
        <path id="패스_56036" data-name="패스 56036" d="M1000.331,36.286l.555-1.734c.229-.717.461-1.37.688-1.932-.551.54-1.478,1.381-2.071,1.9l-2.314,2.014-1.019-2.014c-.258-.519-.65-1.36-.857-1.9-.124.561-.314,1.215-.543,1.932l-.555,1.734h-3.292l2.324-7.269h3.229l.932,1.942a11.392,11.392,0,0,1,.884,2.191,28.019,28.019,0,0,1,2.3-2.191l2.173-1.942h3.188l-2.334,7.269Z" transform="translate(-838.282 -24.547)"/>
        <path id="패스_56037" data-name="패스 56037" d="M1083.3,36.287l-.281-1.277h-3.8l-1.1,1.277h-3.759l6.923-7.269h3.541l2.276,7.269Zm-.7-3.354a10.42,10.42,0,0,1-.229-1.817c-.325.488-.655.893-1.4,1.817l-.388.478h2.1Z" transform="translate(-908.87 -24.548)"/>
        <path id="패스_56038" data-name="패스 56038" d="M1162.372,30.831l-2.527-2.181-2.782,2.181h-3.977l5.313-3.676-5.173-4.587h4.07l3.6,3.029,2.583-2.035h3.987l-5.143,3.552,4.121,3.717Z" transform="translate(-975.464 -19.092)"/>
      </g>
    </g>
  </g>
</svg>
