<svg xmlns="http://www.w3.org/2000/svg" xmlns:xlink="http://www.w3.org/1999/xlink" width="384" height="63" viewBox="0 0 384 63">
  <defs>
    <clipPath id="clip-path">
      <rect id="사각형_12183" data-name="사각형 12183" width="384" height="63" transform="translate(0 -30.66)" fill="#fff" opacity="0"/>
    </clipPath>
  </defs>
  <g id="logo-winter" transform="translate(-0.336 -22.573)">
    <g id="ventus" transform="translate(0.336 53.233)">
      <g id="마스크_그룹_72" data-name="마스크 그룹 72" clip-path="url(#clip-path)">
        <g id="winter" transform="translate(0 -50.457)">
          <g id="winter_ipike" data-name="winter ipike" transform="translate(0 59.284)">
            <path id="Path_45715" data-name="Path 45715" d="M686.979,403.212H676.851l5.186-16.929,2.082-6.584h9.367l-11.437,6.584h10.089l-5.15,16.929Z" transform="translate(-579.104 -379.7)" fill="#fff"/>
            <path id="Path_45716" data-name="Path 45716" d="M706.575,403.212H696.447l5.183-16.929,2.082-6.584h9.367l-11.44,6.584h10.093l-5.151,16.929Z" transform="translate(-540.429 -379.7)" fill="#fff"/>
            <path id="Path_45717" data-name="Path 45717" d="M729.684,403.212H718.8l-2.284-7.062-3.247,1.933-1.59,5.13h-10.09l5.186-16.917,12.132-6.6-2.108,6.9c-.348,1.127-1.246,3.738-1.659,4.8,1-.809,4.041-2.742,5.564-3.675l2.421-1.448h11.544l-9.195,5.091,4.217,11.838Z" transform="translate(-530.286 -379.7)" fill="#fff"/>
            <path id="Path_45718" data-name="Path 45718" d="M694.217,387.549h-3.456l.794,2.989-2.8,1.374-.794-2.974-2.676,2.974-1.936-1.374,2.626-2.989h-3.456l.83-2.748H686.8l-.794-2.974,2.8-1.377.794,2.974,2.661-2.974,1.936,1.377L691.57,384.8h3.473l-.83,2.748Z" transform="translate(-567.919 -378.218)" fill="#fff"/>
            <path id="패스_45774" data-name="패스 45774" d="M708.047,380.952h-9.123L701.1,379.7h-9.367l-2.082,6.584,2.379-1.374-5.567,18.3h9.058l2.037-6.286h6.878c6.462,0,11.059-2.388,12.926-8.454h.018C719.317,382.186,713.613,380.952,708.047,380.952Zm.057,7.714a6.467,6.467,0,0,1-6.465,4.047c-1.558,0-2.974-.086-2.974-.086l2.417-7.791h3.357C706.581,384.835,709.138,385.281,708.1,388.665Z" transform="translate(-560.132 -379.7)" fill="#fff"/>
            <path id="Path_45720" data-name="Path 45720" d="M733.524,381.921h-9.058c-9.516,0-11.059,5.65-11.059,5.65l-1.383,4.392c-1.969,6.42,7.018,6.875,7.018,6.875H737.5l1.106-3.649H724.157c-3.7,0-2.524-2.676-2.524-2.676l.244-.773h17.842l.865-2.867c2.245-7.226-7.05-6.955-7.05-6.955Zm-2.676,6.289h-7.88a3.911,3.911,0,0,1,3.568-2.84h2.349c3.94,0,1.972,2.84,1.972,2.84Z" transform="translate(-510.242 -375.325)" fill="#fff"/>
            <path id="Path_45721" data-name="Path 45721" d="M657.776,391.779l3.075-10h-5.739l-3.042,10Z" transform="translate(-628.015 -375.597)" fill="#fff"/>
            <path id="Path_45722" data-name="Path 45722" d="M685.343,382.131a6.407,6.407,0,0,0-2.557-.419,8.49,8.49,0,0,0-3.866.934l.208-.725h-5.709l-3.042,10h5.7l1.659-5.448c.378-1.225,1.383-1.624,2.763-1.624a3.445,3.445,0,0,1,2.379.839l2.453-3.568Z" transform="translate(-591.882 -375.74)" fill="#fff"/>
            <path id="Path_45723" data-name="Path 45723" d="M671.1,391.64h-2.281c-.969,0-1.347-.223-1.142-.987l1.106-3.619h3.631l.83-2.676h-3.631l1.21-3.887-5.427,1.356-.758,2.531h-2.524l-.863,2.676h2.557l-1.314,4.341c-.693,2.269.413,3.182,3.423,3.182h3.568l1.624-2.917Z" transform="translate(-609.889 -378.178)" fill="#fff"/>
            <path id="Path_45724" data-name="Path 45724" d="M670.975,380.658H664.73l-4.422,8.029.036-8.029h-5.635l-4.874,8.029.517-8.029H643.98l1.246,13.334h5.6l5.115-8.421-.036,8.421h5.7Z" transform="translate(-643.98 -377.809)" fill="#fff"/>
            <path id="Path_45725" data-name="Path 45725" d="M676.684,381.8h-4.321c-5.462,0-6.361,3.328-6.361,3.328l-.794,2.581c-1.142,3.777,4.044,4.047,4.044,4.047h9.676l.657-2.144h-7.845c-2.144,0-1.763-1.573-1.763-1.573l.137-.455h10.092l.521-1.689c1.279-4.246-4.044-4.089-4.044-4.089Zm-.8,3.7h-5.15a2.554,2.554,0,0,1,2.352-1.671h1.386c2.245,0,1.416,1.671,1.416,1.671Z" transform="translate(-602.405 -375.563)" fill="#fff"/>
            <path id="Path_45726" data-name="Path 45726" d="M668.408,381.778l-1.936,6.307-3.628-6.307h-5.082l-3.042,10h5.085l1.936-6.31,3.631,6.31h5.082l3.042-10Z" transform="translate(-622.783 -375.599)" fill="#fff"/>
            <path id="Path_45727" data-name="Path 45727" d="M659.515,382.016c-.277.862-1.9,1.561-3.628,1.561s-2.905-.7-2.629-1.561,1.9-1.561,3.631-1.561,2.9.7,2.626,1.561Z" transform="translate(-625.747 -378.21)" fill="#fff"/>
          </g>
          <g id="winter_icept" data-name="winter icept" transform="translate(0.001 20)">
            <path id="빼기_1" data-name="빼기 1" d="M0,22.637v0L6.91,0H23.722c3.3,0,5.549.77,6.668,2.289C31.4,3.657,31.5,5.655,30.7,8.23a11.663,11.663,0,0,1-4.629,6.559A14.241,14.241,0,0,1,18.06,16.9H11.6L10.52,20.369,0,22.637ZM15.451,4.312,13.02,12.223h3.612c2.609,0,3.543-1.4,4.276-3.812.524-1.784.557-2.848.105-3.451-.335-.447-.946-.647-1.981-.647Z" transform="translate(177.047 6.898)" fill="#fff" stroke="rgba(0,0,0,0)" stroke-miterlimit="10" stroke-width="1"/>
            <path id="패스_45367" data-name="패스 45367" d="M908.772,159.915a2.162,2.162,0,0,1-1.945,1.476h-2.57l.589,2.244a1.886,1.886,0,0,1-1.145,2.014c-.834.406-1.632.164-1.841-.541l-.592-2.247-2.014,2.247a1.729,1.729,0,0,1-2.152.541c-.592-.406-.556-1.309.069-2.014l1.978-2.244h-2.6a1.052,1.052,0,0,1-1.007-1.476,2.154,2.154,0,0,1,1.91-1.473h2.6l-.624-2.244a1.965,1.965,0,0,1,1.18-2.014c.834-.406,1.635-.167,1.844.538l.589,2.247,1.981-2.247a1.767,1.767,0,0,1,2.187-.538c.589.406.556,1.306-.069,2.014l-1.981,2.244h2.57a1.058,1.058,0,0,1,1.043,1.473Z" transform="translate(-780.635 -151.557)" fill="#fff"/>
            <path id="패스_45368" data-name="패스 45368" d="M927.676,155.366h-7.468c-9.446,0-11.009,5.762-11.009,5.762l-1.357,4.474c-1.978,6.542,6.948,7.011,6.948,7.011l2.119-.009H931.6l1.145-3.715H919.132c-3.717,0-3.057-2.726-3.057-2.726l.242-.789h17.509l.867-2.92c2.223-7.363-7.017-7.089-7.017-7.089Zm-1.353,6.407h-8.89c.866-2.866,4.061-2.893,4.061-2.893h2.364c3.924,0,2.466,2.893,2.466,2.893Z" transform="translate(-756.608 -148.815)" fill="#fff"/>
            <path id="패스_45369" data-name="패스 45369" d="M925.172,155.365H912.218c-9.482,0-11.045,5.762-11.045,5.762l-1.357,4.474c-1.942,6.542,6.984,7.011,6.984,7.011l2.119-.009h10.976l1.112-3.715h-9.865c-3.718,0-3.093-2.725-3.093-2.725l.242-.789,1.112-3.6c.869-2.866,4.064-2.893,4.064-2.893H924.1l1.076-3.514Z" transform="translate(-772.549 -148.815)" fill="#fff"/>
            <path id="패스_45370" data-name="패스 45370" d="M945.752,171.833H941.93c-1.563,0-2.223-.374-1.841-1.635l1.841-5.992h5.977l1.354-4.447h-5.973l1.978-6.437-10.28,2.241-1.285,4.2h-6.6l1.841,4.447h3.4l-2.188,7.187c-1.145,3.756.7,5.263,5.663,5.263h7.223l2.711-4.823Z" transform="translate(-717.752 -152.875)" fill="#fff"/>
            <path id="패스_45372" data-name="패스 45372" d="M899.744,176.614H889.636l5.211-16.878,2.049-6.562h9.344l-11.392,6.562h10.038l-5.141,16.878Z" transform="translate(-792.24 -153.173)" fill="#fff"/>
            <path id="패스_45373" data-name="패스 45373" d="M870.762,165.207l3.022-9.972h-5.7l-3.022,9.972Z" transform="translate(-841.098 -149.073)" fill="#fff"/>
            <path id="패스_45374" data-name="패스 45374" d="M898.123,155.583a6.379,6.379,0,0,0-2.537-.418,8.5,8.5,0,0,0-3.855.929l.21-.72h-5.7l-3.025,9.972h5.7l1.632-5.433c.416-1.219,1.39-1.617,2.78-1.617a3.634,3.634,0,0,1,2.4.834l2.4-3.547Z" transform="translate(-804.998 -149.212)" fill="#fff"/>
            <path id="패스_45375" data-name="패스 45375" d="M883.973,165.088l-2.292,0c-.938,0-1.321-.224-1.112-.983l1.112-3.61h3.577l.87-2.678h-3.613l1.181-3.876-5.382,1.351-.8,2.525h-2.5l-.834,2.678h2.537l-1.321,4.33c-.693,2.262.418,3.171,3.4,3.171h3.544l1.632-2.9Z" transform="translate(-822.98 -151.652)" fill="#fff"/>
            <path id="패스_45376" data-name="패스 45376" d="M883.93,154.124h-6.253l-4.377,7.991.035-7.991h-5.627l-4.863,7.991.521-7.991h-6.322l1.215,13.293h5.593l5.106-8.4-.07,8.4h5.7l9.343-13.293Z" transform="translate(-857.045 -151.283)" fill="#fff"/>
            <path id="패스_45377" data-name="패스 45377" d="M889.529,155.252h-4.306c-5.454,0-6.356,3.317-6.356,3.317l-.765,2.576c-1.148,3.765,4,4.031,4,4.031l1.249,0h8.439l.66-2.14h-7.85c-2.119,0-1.769-1.566-1.769-1.566l.137-.454h10.11l.484-1.682c1.285-4.235-4.028-4.079-4.028-4.079Zm-.765,3.691h-5.14a2.5,2.5,0,0,1,2.328-1.665h1.354c2.259,0,1.458,1.665,1.458,1.665Z" transform="translate(-815.508 -149.04)" fill="#fff"/>
            <path id="패스_45378" data-name="패스 45378" d="M881.342,155.235l-1.91,6.29-3.647-6.29h-5.072l-3.022,9.972h5.036l1.946-6.29,3.613,6.29h5.071l3.056-9.972Z" transform="translate(-835.875 -149.073)" fill="#fff"/>
            <path id="패스_45412" data-name="패스 45412" d="M872.461,155.479c-.278.861-1.877,1.557-3.613,1.557-1.7,0-2.881-.7-2.606-1.557s1.913-1.557,3.613-1.557c1.739,0,2.884.7,2.606,1.557Z" transform="translate(-838.838 -151.684)" fill="#fff"/>
          </g>
        </g>
      </g>
    </g>
  </g>
</svg>
