<svg xmlns="http://www.w3.org/2000/svg" xmlns:xlink="http://www.w3.org/1999/xlink" width="384" height="40" viewBox="0 0 384 40">
  <defs>
    <clipPath id="clip-path">
      <rect id="사각형_12183" data-name="사각형 12183" width="384" height="40" transform="translate(0 0)" fill="#fff" opacity="0"/>
    </clipPath>
  </defs>
  <g id="logo-kinergy" transform="translate(0 0)">
    <g id="ventus">
      <g id="마스크_그룹_72" data-name="마스크 그룹 72" clip-path="url(#clip-path)">
        <g id="kinergy" transform="translate(0 0.209)">
          <path id="패스_45331" data-name="패스 45331" d="M626.375,154.9c-.529,0-8.618-.019-8.618-.019l-10.822,8.583s2.008-8.325,2.067-8.565h-7.354c-.034.143-6.065,25.174-6.124,25.417h7.35c.031-.143,2.164-8.991,2.164-8.991l.112.134s7.133,8.811,7.133,8.857h9.564c-.262-.321-10.832-13.344-10.832-13.344s14.91-11.728,15.358-12.073Z" transform="translate(-595.525 -140.553)" fill="#fff"/>
          <path id="패스_45332" data-name="패스 45332" d="M611.979,180.3c.037-.143,6.068-25.174,6.127-25.417h-7.35c-.031.143-6.068,25.174-6.127,25.417Z" transform="translate(-576.288 -140.54)" fill="#fff"/>
          <path id="패스_45333" data-name="패스 45333" d="M637.587,157.212c-1.068-1.547-3.082-2.329-5.983-2.329H614.67c-.037.143-6.074,25.174-6.13,25.417h7.354l4.832-20.059h6.267c1.582,0,2.631.4,3.207,1.236a3.427,3.427,0,0,1,.507,1.964,11.164,11.164,0,0,1-.364,2.525s-3.4,14.091-3.456,14.334h7.348c.034-.143,3.789-15.707,3.789-15.707a16.294,16.294,0,0,0,.517-3.78,6.205,6.205,0,0,0-.953-3.6Z" transform="translate(-568.021 -140.54)" fill="#fff"/>
          <path id="패스_45334" data-name="패스 45334" d="M629.137,165.232l.47-1.955c.654-2.724,2.313-4.1,4.928-4.1h12.78c.034-.137.978-4.06,1.033-4.29h-16.22a9.343,9.343,0,0,0-9.676,7.581s-4.241,17.593-4.3,17.836h24.069c.035-.137.981-4.06,1.034-4.29H626.54l1.46-6.062h14.586c.034-.14,1.083-4.486,1.136-4.717Z" transform="translate(-547.705 -140.54)" fill="#fff"/>
          <path id="패스_45335" data-name="패스 45335" d="M637.321,167.595a12.269,12.269,0,0,0-.352,2.88,9.578,9.578,0,0,0,1.631,5.489c1.933,2.8,5.305,4.337,9.5,4.337h12.285c.038-.143,3.58-14.844,3.633-15.068H652.29c-.031.137-1.08,4.483-1.139,4.717h4.384l-1.463,6.062h-2.864c-2.933,0-4.844-.7-5.838-2.145a5.278,5.278,0,0,1-.819-3.079,14.044,14.044,0,0,1,.433-3.2c1.41-5.822,4.564-8.415,10.23-8.415h9.2c.038-.137.981-4.06,1.04-4.29h-11.18c-7.917,0-15.206,5.467-16.952,12.712Z" transform="translate(-507.942 -140.54)" fill="#fff"/>
          <path id="패스_45336" data-name="패스 45336" d="M654.9,154.883h-7.017l5.862,16.647s-7.07,8.456-7.335,8.77c.38,0,7.276.031,7.276.031s20.984-25.121,21.258-25.448h-7.276l-8.972,10.725s-3.752-10.6-3.8-10.725Z" transform="translate(-487.999 -140.54)" fill="#fff"/>
          <path id="패스_45337" data-name="패스 45337" d="M646.892,154.883H633.128c-.035.143-6.071,25.174-6.127,25.417h7.354c.031-.143,5.193-21.55,5.193-21.55h3.306l.931,0c2.674-.019,4.981-.034,5.912,1.3a3.435,3.435,0,0,1,.23,2.827c-.962,3.985-4.627,3.954-8.173,3.92l-.968-.006H638.38c.143.283,6.684,13.412,6.731,13.512h8.129c-.15-.283-5.389-10.352-5.389-10.352h.156c4.767,0,8.129-2.612,9.225-7.167a9.954,9.954,0,0,0,.305-2.3,4.762,4.762,0,0,0-.785-2.783c-1.342-1.946-4.38-2.811-9.86-2.811Z" transform="translate(-529.006 -140.54)" fill="#fff"/>
          <path id="패스_45338" data-name="패스 45338" d="M621.3,152.344l-.832,3.451h36.375l.832-3.451Z" transform="translate(-542.819 -145.906)" fill="#fff"/>
          <path id="패스_45339" data-name="패스 45339" d="M684.022,152.925l-1.787-2.649A30.137,30.137,0,0,1,664.4,156.7l-19.063.006-.837,3.462,19.443,0a33.445,33.445,0,0,0,20.078-7.235Z" transform="translate(-492.022 -150.276)" fill="#fff"/>
          <path id="패스_45340" data-name="패스 45340" d="M633.328,152.344l-.832,3.451h36.375l.832-3.451Z" transform="translate(-517.396 -145.906)" fill="#fff"/>
        </g>
      </g>
    </g>
  </g>
</svg>
