<svg xmlns="http://www.w3.org/2000/svg" xmlns:xlink="http://www.w3.org/1999/xlink" width="384" height="40" viewBox="0 0 384 40">
  <defs>
    <clipPath id="clip-path">
      <rect id="사각형_12183" data-name="사각형 12183" width="384" height="40" transform="translate(0 0)" fill="#fff" opacity="0"/>
    </clipPath>
  </defs>
  <g id="logo-dynapro" transform="translate(0 0)">
    <g id="ventus">
      <g id="마스크_그룹_72" data-name="마스크 그룹 72" clip-path="url(#clip-path)">
        <path id="dynapro" d="M41.417,32l1.02-4.016H59.389c2.5,0,2.945-.954,3.4-2.769l.26-1.038H52.3c-7.013,0-8.378-2.694-6.981-8.205L48.409,3.743H61.033L57.638,17.13c-.553,2.2-.452,3.191,2.446,3.191h1.746c2.247,0,2.56-1.616,2.969-3.029L68.228,3.743H80.805L75.632,24.177l-.266,1.236C73.738,31.843,69.121,31.874,62.63,32Zm119.006-.112,7.183-28.029H192.72c4.859,0,8.637.867,7.4,5.757l-2.151,8.5c-1.207,4.76-5.3,5.716-10.3,5.716H175.743l-2.093,8.058ZM176.9,19.272h5.041c3.206,0,3.485-.913,4.074-3.23l1.3-5.138c.436-1.7.281-2.491-1.971-2.491h-5.7Zm-74.6,8.816,4.518-17.963c.419-1.663.338-2.529-1.909-2.529h-2.295a2.3,2.3,0,0,0-2.658,1.988l-4.616,18.5H82.724L88.814,3.743h24.434c5.2,0,7.157,2.568,6.1,6.753L115,28.088Zm39.958,0H129.63c-4.855,0-7.284-1.288-6.182-5.638l1.069-5.059c.81-3.2,3.891-4.686,7.446-4.686h13.689L146.6,9c.339-1.328-.992-1.41-2.295-1.41h-13.7l.98-3.851L153.367,3.7c4.193.041,6.5,2.359,5.618,5.839l-4.643,18.545Zm-5.683-8.961-.806,2.491c-.437,1.746-.056,2.613,2.192,2.613h4.775l1.966-7.712h-3.939C138.458,16.518,137.02,17.345,136.571,19.125ZM0,28.086,7.117,0H33.408c6.2,0,7.854,3.326,6.66,8.04l-3.037,12c-1.188,4.672-4.378,8.043-10.734,8.043Zm14.6-4.637h4.773c3.1,0,3.573-1.05,4.137-3.286L26.62,7.921c.566-2.237.625-3.291-2.474-3.291H19.37Zm237.482,4.591c-5.352,0-8.213-4.367-7.623-7.268l2.823-11.394c.851-3.363,6.642-5.684,10.6-5.684l12.685.008c5.651,0,10.205,3.3,9.6,6.46l-2.712,10.957c-.945,3.731-6.249,6.922-10.9,6.922Zm7.462-16.675-2.054,8.668c-.223,1.032.877,2.335,3.03,2.335h.651c2.2,0,3.853-1.283,4.173-2.585l1.745-7.375c.368-1.493-.271-2.791-2.674-2.791h-.846C261.722,9.617,260.535,9.617,259.548,11.366ZM224.8,28.041l-3-8.058h-4.962l-2.093,8.058H201.518l6.324-24.347H233.65c4.859,0,8.637.868,7.4,5.758l-1.292,4.815a6.688,6.688,0,0,1-4.962,5.1l3.226,8.675Zm-6.8-12.614h5.042c3.2,0,3.484-.914,4.074-3.231l.441-1.455c.435-1.7.281-2.49-1.971-2.49h-5.7Z" transform="translate(0 8)" fill="#fff"/>
      </g>
    </g>
  </g>
</svg>
