<svg xmlns="http://www.w3.org/2000/svg" xmlns:xlink="http://www.w3.org/1999/xlink" width="384" height="40" viewBox="0 0 384 40">
  <defs>
    <clipPath id="clip-path">
      <rect id="사각형_12183" data-name="사각형 12183" width="384" height="40" transform="translate(0 -7.66)" fill="#fff" opacity="0"/>
    </clipPath>
  </defs>
  <g id="logo-smart" transform="translate(-0.336 -45.573)">
    <g id="ventus" transform="translate(0.336 53.233)">
      <g id="마스크_그룹_72" data-name="마스크 그룹 72" clip-path="url(#clip-path)">
        <path id="smart" d="M-1555.719-4188.262l-.281-.424,8.314-4.378.213.232c2.019,2.208,5.242,3.325,9.581,3.325,6.151,0,7.4-1.487,7.792-2.784.448-1.458-.2-2.291-7.994-3.6-6.9-1.191-12.923-2.809-10.887-9.459,1.673-5.475,9.318-9.3,18.592-9.3,6.345,0,10.917,1.533,14.382,4.828l.422.4-8.48,4.793-.227-.209a11.77,11.77,0,0,0-8.487-3c-4.129,0-5.949,1.148-6.279,2.223-.442,1.447.909,2.034,7.228,3.131,7.058,1.227,13.777,2.993,11.706,9.76-1.149,3.762-5.322,10.07-20.353,10.07C-1547.708-4182.65-1553.406-4184.749-1555.719-4188.262Zm75.937-3.011c1.575-5.156,9.032-7.731,17.032-7.731a18.435,18.435,0,0,1,6.5.932l.355-1.156c.5-1.646-1.524-2.8-4.886-2.8a43.419,43.419,0,0,0-12.541,1.906l-.521-4.791a43.059,43.059,0,0,1,14.662-2.356c8.537,0,14.687,2.231,13.084,7.481l-5,16.344h-9.626l.476-1.555a18.357,18.357,0,0,1-8.558,2.042C-1475.387-4182.96-1481.511-4185.625-1479.782-4191.272Zm9.624,0c-.5,1.646.515,2.938,4.482,2.938a11.948,11.948,0,0,0,7.105-2.134l.732-2.409a12.425,12.425,0,0,0-6.1-1.154C-1467.435-4194.031-1469.588-4193.137-1470.158-4191.272Zm-37.108-4.641-3.608,12.466h-9.176l7.133-23.33h8.625l4.692,13.264,12.851-13.264h8.524l-7.135,23.33h-9.176l4.015-12.466L-1502.816-4183Zm101,12.467,5.412-17.7h-8.568l-2.218-5.63h32.169l-1.721,5.63h-9.881l-5.414,17.7Zm-18.852,0-5.968-7.865h-3.936l-2.4,7.865h-9.632l7.138-23.332h15.778c8.266,0,13.127,2.066,11.436,7.6-1.066,3.5-4.2,5.668-8.438,6.833l6.961,8.9Zm-8.343-12.964h5.75c3.174,0,4.721-.935,5.231-2.6.446-1.467-.445-2.5-3.521-2.5h-5.9Z" transform="translate(1556 4214.991)" fill="#fff" stroke="rgba(0,0,0,0)" stroke-miterlimit="10" stroke-width="1"/>
      </g>
    </g>
  </g>
</svg>
