<svg xmlns="http://www.w3.org/2000/svg" xmlns:xlink="http://www.w3.org/1999/xlink" width="384" height="40" viewBox="0 0 384 40">
  <defs>
    <clipPath id="clip-path">
      <rect id="사각형_12183" data-name="사각형 12183" width="384" height="40" transform="translate(0 -7.66)" fill="#fff" opacity="0"/>
    </clipPath>
  </defs>
  <g id="logo-ventus" transform="translate(-0.336 -45.573)">
    <g id="ventus" transform="translate(0.336 53.233)">
      <g id="마스크_그룹_72" data-name="마스크 그룹 72" clip-path="url(#clip-path)">
        <g id="ventus-2" data-name="ventus" transform="translate(1.027 5.668)">
          <path id="패스_45364" data-name="패스 45364" d="M99.541,156.614,87.92,172.034l-5.878-15.42H70.776L76.9,172.705h0c.995,2.836,3.744,6.081,9.174,6.081H94.1l16.714-22.172Z" transform="translate(-70.776 -151.576)" fill="#fff"/>
          <path id="패스_45365" data-name="패스 45365" d="M108.109,160.188H96.863c-12.1,0-13.717,7.371-13.717,7.371l-1.428,5.726c-2.075,8.369,9.4,8.971,9.4,8.971l2.719-.017H115.17l1.2-4.749H96.4c-4.752,0-4.112-3.486-4.112-3.486l.258-1.012h24.966l.929-3.737c2.34-9.422-10.334-9.067-10.334-9.067m-1.263,8.2H93.728c.915-3.665,5.007-3.7,5.007-3.7h4.728c5.017,0,3.383,3.7,3.383,3.7m131.88-3.768h16.6l1.122-4.432H242.384v0H236.5c-10.54,0-11.948,6.418-11.948,6.418l-.306,1.235h.007c-.3,3.145,2.068,4.849,5.513,4.849h13.087c1.4,0,2.061.84,1.518,1.893-.74,1.421-3.07,1.9-4.742,1.9H222.638l-1.456,5.761h21.625c10.53,0,11.937-6.418,11.937-6.418l.306-1.222c.506-3.476-1.69-6.383-5.241-6.383H236.455c-1.077,0-2.171-.571-1.366-1.882a5.071,5.071,0,0,1,3.637-1.717m-27.471-4.429-3.548,14.174h0l-.778,3.128H200.26c-2.884,0-4.783-1.552-4.236-3.438l3.513-13.865H175.745l1.29-5.038H165.088l-5.052,20.01c-1.132,3.889,3,7.079,9.181,7.079h7.306l1.2-4.749H176.4c-2.88,0-4.79-1.549-4.236-3.434l2.426-9.357H186.54l-2.646,10.461c-1.129,3.889,3,7.079,9.188,7.079h23.9l5.564-22.051Zm-66.4,13.985-8.806-13.985H124.778l-5.6,22.172h11.27l3.531-13.985,8.809,13.985h11.266l5.6-22.172H148.381l-3.531,13.985Z" transform="translate(-44.677 -155.15)" fill="#fff"/>
        </g>
      </g>
    </g>
  </g>
</svg>
