<svg xmlns="http://www.w3.org/2000/svg" xmlns:xlink="http://www.w3.org/1999/xlink" width="384" height="40" viewBox="0 0 384 40">
  <defs>
    <clipPath id="clip-path">
      <rect id="사각형_12183" data-name="사각형 12183" width="384" height="40" transform="translate(0 -8)" fill="#fff" opacity="0"/>
    </clipPath>
  </defs>
  <g id="logo-ion" transform="translate(0 8)">
    <g id="ventus">
      <g id="마스크_그룹_72" data-name="마스크 그룹 72" clip-path="url(#clip-path)">
        <g id="ventus_ion" data-name="ventus ion" transform="translate(-214.071 -7.999)">
          <path id="패스_46713" data-name="패스 46713" d="M244.618,0c-2.774-.013-4.051.891-4.713,3.336l-.839,3.285c-.662,2.446.124,3.36,2.9,3.372,2.67.013,3.964-.923,4.617-3.336l.84-3.285c.652-2.414-.133-3.36-2.8-3.372" transform="translate(-11.492 -0.001)" fill="#fff"/>
          <path id="패스_46714" data-name="패스 46714" d="M237.1,10.561c-2.774-.013-4.051.891-4.713,3.336l-5.433,21.7c-.661,2.446.124,3.36,2.9,3.372,2.67.013,3.964-.923,4.618-3.336l5.433-21.7c.652-2.414-.133-3.36-2.8-3.372" transform="translate(-12.659 1.017)" fill="#fff"/>
          <path id="패스_46715" data-name="패스 46715" d="M267.081,9.062c-7.28,0-12.368,1.325-16.013,4.172-3.9,3.043-5.381,7.367-6.235,10.795-1.939,7.773-1.49,14.966,14.783,14.966s20.31-7.193,22.248-14.966c.855-3.427,1.531-7.751-.851-10.795-2.227-2.846-6.654-4.172-13.932-4.172m-1.43,5.731c10.334,0,10.214,3.472,8.788,9.19-1.441,5.774-3.061,9.282-13.4,9.282-10.29,0-10.159-3.507-8.718-9.282,1.426-5.717,3.035-9.19,13.325-9.19" transform="translate(-10.992 0.872)" fill="#fff"/>
          <path id="패스_46716" data-name="패스 46716" d="M308.231,36.128c1.051,1.618,1.718,2.993,4.507,2.993h2.9a4.866,4.866,0,0,0,5.235-4.129l5.62-23.042c.315-1.29.1-2.827-2.735-2.827s-3.8,1.537-4.116,2.827l-5.224,21.414L301.444,12.116c-1.134-1.9-1.726-2.993-4.554-2.993h-2.757a4.893,4.893,0,0,0-5.282,4.129l-5.806,22.972c-.457,1.876.479,2.827,2.784,2.827,2.792,0,3.754-1.538,4.068-2.827l5.408-21.34.025,0Z" transform="translate(-7.245 0.878)" fill="#fff"/>
        </g>
      </g>
    </g>
  </g>
</svg>
