<svg xmlns="http://www.w3.org/2000/svg" width="72" height="72" viewBox="0 0 72 72">
    <defs>
        <clipPath id="clip-path">
            <path id="사각형_13188" data-name="사각형 13188" style="fill:none" d="M0 0h50.041v50.041H0z"/>
        </clipPath>
        <style>
            .cls-4{fill:#1a1311}
        </style>
    </defs>
    <g id="ico" transform="translate(0 -1656)">
        <path id="사각형_12335" data-name="사각형 12335" transform="translate(0 1656)" style="opacity:.3;fill:none" d="M0 0h72v72H0z"/>
        <g id="그룹_10665" data-name="그룹 10665" transform="translate(13.98 1666.979)">
            <g id="그룹_10664" data-name="그룹 10664" style="clip-path:url(#clip-path)">
                <path id="패스_59075" data-name="패스 59075" class="cls-4" d="M12.187 50.041A12.2 12.2 0 0 1 0 37.854V1.922A1.924 1.924 0 0 1 1.927 0h35.922a1.924 1.924 0 0 1 1.927 1.922v12.836a1.925 1.925 0 1 1-3.849 0V3.854H3.849v34a8.349 8.349 0 0 0 8.338 8.338 1.925 1.925 0 1 1 0 3.849"/>
                <path id="패스_59076" data-name="패스 59076" class="cls-4" d="M19.524 6.6H4.122a1.925 1.925 0 0 1 0-3.849h15.4a1.925 1.925 0 0 1 0 3.849" transform="translate(8.065 10.085)"/>
                <path id="패스_59077" data-name="패스 59077" class="cls-4" d="M19.524 8.8H4.122a1.922 1.922 0 0 1 0-3.845h15.4a1.922 1.922 0 0 1 0 3.845" transform="translate(8.065 18.15)"/>
                <path id="패스_59078" data-name="패스 59078" class="cls-4" d="M11.825 11h-7.7a1.925 1.925 0 1 1 0-3.849h7.7a1.925 1.925 0 0 1 0 3.849" transform="translate(8.061 26.211)"/>
                <path id="패스_59079" data-name="패스 59079" class="cls-4" d="M6.324 29.834a1.933 1.933 0 0 1-1.362-.565 1.908 1.908 0 0 1-.523-1.74l1.423-7.059a1.935 1.935 0 0 1 .532-.975l9.024-9.024a1.923 1.923 0 1 1 2.72 2.72L9.525 21.8l-.742 3.649 3.649-.742 11.646-11.642L19.813 8.8a1.923 1.923 0 1 1 2.72-2.72l5.627 5.62a1.923 1.923 0 0 1 0 2.72L14.746 27.842a1.969 1.969 0 0 1-.98.532L6.707 29.8a2.126 2.126 0 0 1-.383.037" transform="translate(16.128 20.207)"/>
                <path id="패스_59080" data-name="패스 59080" class="cls-4" d="M16.708 14.363a1.922 1.922 0 0 1-1.362-.565L9.131 7.584a1.925 1.925 0 1 1 2.725-2.72l6.215 6.215a1.925 1.925 0 0 1-1.362 3.285" transform="translate(31.406 15.764)"/>
            </g>
        </g>
    </g>
</svg>
