<svg xmlns="http://www.w3.org/2000/svg" width="72" height="72" viewBox="0 0 72 72">
    <defs>
        <clipPath id="clip-path">
            <path id="사각형_13191" data-name="사각형 13191" style="fill:none" d="M0 0h56.089v58.96H0z"/>
        </clipPath>
        <style>
            .cls-4{fill:#070303}
        </style>
    </defs>
    <g id="ico" transform="translate(0 -1656)">
        <path id="사각형_12335" data-name="사각형 12335" transform="translate(0 1656)" style="opacity:.3;fill:none" d="M0 0h72v72H0z"/>
        <g id="그룹_10671" data-name="그룹 10671" transform="translate(7.956 1663)">
            <g id="그룹_10670" data-name="그룹 10670" style="clip-path:url(#clip-path)">
                <path id="패스_59092" data-name="패스 59092" class="cls-4" d="M9.967 32.923a2.154 2.154 0 0 1-1.778-.931C-.46 19.469 1.778 2.573 1.872 1.862A2.158 2.158 0 0 1 4.011 0h21.2a2.157 2.157 0 0 1 0 4.314H5.982c-.292 4.523-.36 16.362 5.758 25.231a2.149 2.149 0 0 1-.554 3 2.11 2.11 0 0 1-1.218.382" transform="translate(6.531 .001)"/>
                <path id="패스_59093" data-name="패스 59093" class="cls-4" d="M28.057 58.959H4.892a2.156 2.156 0 0 1-1.616-3.587c.058-.063 5.93-6.777 5.93-13.141a8.616 8.616 0 0 0-2.573-6.092A29.545 29.545 0 0 1 3.161 32a2.158 2.158 0 0 1 3.551-2.453 24.341 24.341 0 0 0 2.949 3.519 12.95 12.95 0 0 1 3.859 9.167c0 4.743-2.358 9.366-4.34 12.419h14.845c-2-3.284-4.56-8.278-4.56-12.419a12.95 12.95 0 0 1 3.859-9.167C34.421 22.13 31.89 2.651 31.864 2.452a2.156 2.156 0 1 1 4.272-.591c.126.884 2.871 21.8-9.784 34.278a8.611 8.611 0 0 0-2.568 6.092c0 4.257 4.335 11.034 6 13.288a2.157 2.157 0 0 1-1.731 3.441" transform="translate(11.56 .001)"/>
                <path id="패스_59094" data-name="패스 59094" class="cls-4" d="M9.316 24.055A2.155 2.155 0 0 1 8.84 19.8a19.45 19.45 0 0 0 8.142-3.938c3.31-2.808 4.492-5.705 4.5-7.331A1.824 1.824 0 0 0 20.914 7c-.884-.769-2.808-.8-5.031-.078a2.158 2.158 0 1 1-1.333-4.1c3.77-1.224 7.117-.879 9.2.931a6.1 6.1 0 0 1 2.045 4.811c-.021 3.451-2.269 7.41-6.019 10.594A23.7 23.7 0 0 1 9.8 24a1.932 1.932 0 0 1-.486.058" transform="translate(30.296 8.848)"/>
                <path id="패스_59095" data-name="패스 59095" class="cls-4" d="M16.451 24.027a1.892 1.892 0 0 1-.481-.058 23.633 23.633 0 0 1-9.93-4.811C2.29 16 .031 12.047 0 8.591a6.154 6.154 0 0 1 2.055-4.832c2.086-1.82 5.433-2.16 9.188-.946a2.16 2.16 0 0 1-1.328 4.11c-2.222-.716-4.142-.685-5.025.084a1.849 1.849 0 0 0-.57 1.548c.016 1.637 1.2 4.523 4.5 7.305a19.441 19.441 0 0 0 8.116 3.911 2.155 2.155 0 0 1-.481 4.257" transform="translate(0 8.87)"/>
            </g>
        </g>
    </g>
</svg>
