<svg xmlns="http://www.w3.org/2000/svg" width="72" height="72" viewBox="0 0 72 72">
    <defs>
        <clipPath id="clip-path">
            <path id="사각형_13189" data-name="사각형 13189" style="fill:none" d="M0 0h50.241v50.241H0z"/>
        </clipPath>
        <style>
            .cls-4{fill:#070303}
        </style>
    </defs>
    <g id="ico" transform="translate(0 -1656)">
        <path id="사각형_12335" data-name="사각형 12335" transform="translate(0 1656)" style="opacity:.3;fill:none" d="M0 0h72v72H0z"/>
        <g id="그룹_10667" data-name="그룹 10667" transform="translate(10.939 1667.183)">
            <g id="그룹_10666" data-name="그룹 10666" style="clip-path:url(#clip-path)">
                <path id="패스_59081" data-name="패스 59081" class="cls-4" d="M1.93 50.241A1.929 1.929 0 0 1 0 48.311V1.93A1.93 1.93 0 0 1 1.93 0h46.376a1.935 1.935 0 1 1 0 3.869H3.865v39.776l9.584-9.584a1.933 1.933 0 0 1 1.363-.567h23.137a8.216 8.216 0 0 0 8.427-8.371V9.664a1.932 1.932 0 1 1 3.865 0v15.459a12.134 12.134 0 0 1-12.292 12.235H15.613L3.3 49.674a1.937 1.937 0 0 1-1.368.567"/>
                <path id="패스_59082" data-name="패스 59082" class="cls-4" d="M5.419 9.741a3.221 3.221 0 1 1 3.218-3.218 3.218 3.218 0 0 1-3.218 3.218m0-3.865a.648.648 0 0 0-.646.646c0 .707 1.293.707 1.293 0a.651.651 0 0 0-.646-.646" transform="translate(8.109 12.159)"/>
                <path id="패스_59083" data-name="패스 59083" class="cls-4" d="M7.893 9.741a3.221 3.221 0 1 1 3.218-3.218 3.221 3.221 0 0 1-3.218 3.218m0-3.865a.651.651 0 0 0-.646.646c0 .707 1.293.707 1.293 0a.648.648 0 0 0-.646-.646" transform="translate(17.225 12.159)"/>
                <path id="패스_59084" data-name="패스 59084" class="cls-4" d="M10.369 9.741a3.221 3.221 0 1 1 3.218-3.218 3.218 3.218 0 0 1-3.218 3.218m0-3.865a.648.648 0 0 0-.646.646c0 .707 1.288.707 1.288 0a.647.647 0 0 0-.642-.646" transform="translate(26.347 12.159)"/>
            </g>
        </g>
    </g>
</svg>
