<svg xmlns="http://www.w3.org/2000/svg" width="72" height="72" viewBox="0 0 72 72">
    <defs>
        <clipPath id="clip-path">
            <path id="사각형_13190" data-name="사각형 13190" style="fill:none" d="M0 0h52.951v52.764H0z"/>
        </clipPath>
        <style>
            .cls-4{fill:#090406}
        </style>
    </defs>
    <g id="ico" transform="translate(0 -1656)">
        <path id="사각형_12335" data-name="사각형 12335" transform="translate(0 1656)" style="opacity:.3;fill:none" d="M0 0h72v72H0z"/>
        <g id="그룹_10669" data-name="그룹 10669" transform="translate(9.042 1665.137)">
            <g id="그룹_10668" data-name="그룹 10668" style="clip-path:url(#clip-path)">
                <path id="패스_59085" data-name="패스 59085" class="cls-4" d="M25.632 14.131H9.2a1.841 1.841 0 0 1 0-3.681h16.432a1.841 1.841 0 0 1 0 3.681" transform="translate(25.481 36.179)"/>
                <path id="패스_59086" data-name="패스 59086" class="cls-4" d="M25.632 12.756H9.2a1.841 1.841 0 0 1 0-3.681h16.432a1.841 1.841 0 0 1 0 3.681" transform="translate(25.481 31.418)"/>
                <path id="패스_59087" data-name="패스 59087" class="cls-4" d="M25.632 11.381H9.2a1.841 1.841 0 0 1 0-3.681h16.432a1.841 1.841 0 0 1 0 3.681" transform="translate(25.481 26.658)"/>
                <path id="패스_59088" data-name="패스 59088" class="cls-4" d="M14.862 18.277a9.138 9.138 0 1 1 9.143-9.134 9.146 9.146 0 0 1-9.143 9.134m0-14.6a5.457 5.457 0 1 0 5.462 5.462 5.466 5.466 0 0 0-5.462-5.462" transform="translate(19.817)"/>
                <path id="패스_59089" data-name="패스 59089" class="cls-4" d="M11.253 20.856a9.115 9.115 0 0 1-9.228-8.978A9.112 9.112 0 0 1 11.253 2.9a9.115 9.115 0 0 1 9.228 8.978 9.118 9.118 0 0 1-9.228 8.978m0-14.274a5.429 5.429 0 0 0-5.546 5.3 5.429 5.429 0 0 0 5.546 5.3 5.429 5.429 0 0 0 5.546-5.3 5.429 5.429 0 0 0-5.546-5.3" transform="translate(7.011 10.043)"/>
                <path id="패스_59090" data-name="패스 59090" class="cls-4" d="M1.838 27.145A1.839 1.839 0 0 1 0 25.306 18.107 18.107 0 0 1 18.263 7.4a18.525 18.525 0 0 1 9.223 2.472 1.841 1.841 0 0 1-1.838 3.19 14.806 14.806 0 0 0-7.385-1.981A14.423 14.423 0 0 0 3.681 25.306a1.842 1.842 0 0 1-1.843 1.838" transform="translate(0 25.619)"/>
                <path id="패스_59091" data-name="패스 59091" class="cls-4" d="M22.112 14.685a1.84 1.84 0 0 1-1.464-.723A14.292 14.292 0 0 0 9.2 8.273a1.843 1.843 0 0 1 0-3.686 17.95 17.95 0 0 1 14.377 7.144 1.838 1.838 0 0 1-1.464 2.954" transform="translate(25.481 15.881)"/>
            </g>
        </g>
    </g>
</svg>
