<svg xmlns="http://www.w3.org/2000/svg" width="80" height="80">
    <defs>
        <style>
            .cls-2{fill:none;stroke:#000;stroke-linecap:round;stroke-linejoin:round;stroke-width:3px}
        </style>
    </defs>
    <g id="Icon" transform="translate(-164 -35.002)">
        <g id="Icon_-_Warranty" data-name="Icon - Warranty" transform="translate(-3.5 -8.5)">
            <g id="Group_7710" data-name="Group 7710" transform="translate(167.501 43.503)">
                <path id="패스_45464" data-name="패스 45464" class="cls-2" d="M59 53.316A3.4 3.4 0 0 0 60.787 52c.98-1.695-.741-4.558-.225-6.493C61.062 43.64 64 42.027 64 40s-2.939-3.641-3.439-5.511c-.516-1.935 1.2-4.8.225-6.491a2.457 2.457 0 0 0-.786-.806c-1.4-.941-3.82-1.112-4.951-2.242-1.393-1.394-1.328-4.744-3.046-5.738-1.694-.981-4.558.741-6.491.224C43.641 18.936 42.026 16 40 16s-3.642 2.937-5.511 3.437c-1.935.517-4.8-1.2-6.493-.224-1.718.994-1.651 4.344-3.046 5.738S20.206 26.278 19.211 28c-.979 1.694.742 4.557.225 6.491C18.936 36.36 16 37.973 16 40s2.937 3.641 3.437 5.511c.517 1.935-1.2 4.8-.225 6.491.994 1.718 4.344 1.653 5.739 3.047s1.328 4.745 3.049 5.739c1.694.981 4.558-.741 6.493-.224C36.358 61.064 37.972 64 40 64s3.641-2.937 5.511-3.437c1.934-.517 4.8 1.2 6.491.224A4.732 4.732 0 0 0 53.67 58"/>
                <path id="패스_45465" data-name="패스 45465" class="cls-2" d="m30.858 39.911 5.8 5.8 11.43-11.426"/>
            </g>
        </g>
    </g>
</svg>
