<svg xmlns="http://www.w3.org/2000/svg" width="80" height="80">
    <defs>
        <style>
            .cls-1{fill:#fff;opacity:0}.cls-2{fill:none;stroke:#000;stroke-linecap:round;stroke-linejoin:round;stroke-width:2.5px}
        </style>
    </defs>
    <g id="Icon" transform="translate(-164 -35.002)">
        <g id="Icon_-_Care_Guide" data-name="Icon - Care Guide" transform="translate(176 45.002)">
            <g id="Group_7707" data-name="Group 7707" transform="translate(-12.001 -10)">
                <path id="패스_45471" data-name="패스 45471" class="cls-2" d="M60.171 22.722c-.1-.1-.192-.191-.291-.283A12.754 12.754 0 0 0 51.07 19a14.041 14.041 0 0 0-9.9 4.115l-1.152 1.16-1.16-1.168A14.061 14.061 0 0 0 28.956 19a12.753 12.753 0 0 0-8.81 3.439 13.158 13.158 0 0 0-.573 18.6c.093.1.187.2.283.292l20.132 20.133 20.134-20.133A13.156 13.156 0 0 0 63.379 28"/>
                <g id="Group_7708" data-name="Group 7708" transform="translate(1 1)">
                    <path id="패스_45514" data-name="패스 45514" class="cls-2" d="M33 39h12" transform="translate(0 -1)"/>
                    <path id="패스_45515" data-name="패스 45515" class="cls-2" d="M40 44V32" transform="translate(-1)"/>
                </g>
            </g>
        </g>
    </g>
</svg>
