<svg xmlns="http://www.w3.org/2000/svg" width="80" height="80">
    <defs>
        <style>
            .cls-1{fill:#fff;opacity:0}.cls-2{fill:none;stroke:#000;stroke-linecap:round;stroke-linejoin:round;stroke-width:2.5px}
        </style>
    </defs>
    <g id="Icon" transform="translate(-164 -35.002)">
        <g id="Icon_-_Driving_Tips" data-name="Icon - Driving Tips" transform="translate(270.207 46.703)">
            <g id="Group_7709" data-name="Group 7709" transform="translate(-107.207 -11.7)">
                <path id="패스_45473" data-name="패스 45473" class="cls-2" d="M25 50.3h31.14" transform="translate(.76 .999)"/>
                <path id="패스_45473-2" data-name="패스 45473" class="cls-2" d="M58.986 26.076A32.061 32.061 0 0 0 47.618 24 33.112 33.112 0 0 0 33.8 27.08l-4 1.914a65.5 65.5 0 0 1-10.821 4.079l-7.572 2.163A8.916 8.916 0 0 0 5 43.726v3.5a4.314 4.314 0 0 0 1.165 2.914 4.159 4.159 0 0 0 2.916 1.16H13.3"/>
                <path id="패스_45473-4" data-name="패스 45473" class="cls-2" d="M67.152 51.11h4.4a3.251 3.251 0 0 0 3.248-3.246V37.545a3.517 3.517 0 0 0-1.665-2.83L63 28.975" transform="translate(2.203 .189)"/>
                <g id="타원_69" data-name="타원 69" transform="translate(56.899 43.722)">
                    <circle id="Ellipse_79" data-name="Ellipse 79" class="cls-2" cx="6.228" cy="6.228" r="6.228"/>
                </g>
                <circle id="Ellipse_80" data-name="Ellipse 80" class="cls-2" cx="6.228" cy="6.228" r="6.228" transform="translate(13.304 43.722)"/>
            </g>
        </g>
    </g>
</svg>
