<svg xmlns="http://www.w3.org/2000/svg" xmlns:xlink="http://www.w3.org/1999/xlink" width="192" height="20" viewBox="0 0 192 20">
  <defs>
    <clipPath id="clip-path">
      <rect id="사각형_13331" data-name="사각형 13331" width="192" height="20" transform="translate(321.53 856.268)" fill="none" stroke="#707070" stroke-width="1"/>
    </clipPath>
  </defs>
  <g id="navigation_logo_K127" data-name="navigation logo_K127" transform="translate(-321.53 -856.268)" clip-path="url(#clip-path)">
    <g id="그룹_11446" data-name="그룹 11446" transform="translate(321.531 859.949)">
      <path id="패스_45813" data-name="패스 45813" d="M553,741.422l-4.9,6.5-2.473-6.5h-4.745l2.58,6.777h0a3.856,3.856,0,0,0,3.864,2.562H550.7l7.039-9.339Z" transform="translate(-540.883 -738.174)" fill-rule="evenodd"/>
      <path id="패스_45814" data-name="패스 45814" d="M610.167,741.42h-4.736c-5.1,0-5.776,3.1-5.776,3.1l-.6,2.412c-.874,3.524,3.958,3.778,3.958,3.778l1.145-.007h8.983l.5-2h-8.408c-2,0-1.731-1.469-1.731-1.469l.107-.424h10.513l.392-1.574C615.5,741.273,610.167,741.42,610.167,741.42Zm-.533,3.454H604.11a2.223,2.223,0,0,1,2.108-1.561h1.991C610.324,743.314,609.634,744.874,609.634,744.874Z" transform="translate(-583.456 -738.172)" fill-rule="evenodd"/>
      <path id="패스_45815" data-name="패스 45815" d="M826.848,743.287h6.991l.472-1.865h-8.4c-4.438,0-5.03,2.7-5.03,2.7l-.13.52h0c-.126,1.324.87,2.042,2.319,2.042h5.512c.589,0,.87.353.64.8-.311.6-1.294.8-2,.8h-7.152l-.614,2.426h9.105c4.435,0,5.029-2.7,5.029-2.7l.127-.514a2.214,2.214,0,0,0-2.206-2.689h-5.625c-.453,0-.915-.242-.575-.793a2.133,2.133,0,0,1,1.532-.724" transform="translate(-745.137 -738.174)" fill-rule="evenodd"/>
      <path id="패스_45816" data-name="패스 45816" d="M744.3,735.6l-1.495,5.969h0l-.328,1.317h-2.805c-1.215,0-2.016-.653-1.784-1.448l1.479-5.839H729.349l.542-2.12H724.86l-2.127,8.425c-.477,1.638,1.263,2.982,3.866,2.982h3.076l.505-2h-.557c-1.214,0-2.016-.652-1.784-1.447l1.022-3.939h5.032l-1.113,4.4c-.477,1.638,1.264,2.982,3.867,2.982h10.066l2.343-9.288Z" transform="translate(-674.158 -732.349)" fill-rule="evenodd"/>
      <path id="패스_45817" data-name="패스 45817" d="M669.277,747.313l-3.708-5.891h-4.744l-2.358,9.339h4.744l1.488-5.891,3.708,5.891h4.744l2.356-9.339h-4.743Z" transform="translate(-627.096 -738.174)" fill-rule="evenodd"/>
      <path id="패스_45818" data-name="패스 45818" d="M972.331,729.642c-.876,1.154-1.926,1.185-4.613,1.273l-.474,2.027h3.481l-2.275,9.131h5.629l3.045-12.431Z" transform="translate(-853.492 -729.537)"/>
      <g id="그룹_7974" data-name="그룹 7974" transform="translate(94.659)">
        <path id="패스_45819" data-name="패스 45819" d="M912.5,732.654l.523-2.248c-1.027-.77-3.095-1.156-6.222-1.156-5.357,0-8.418,1-9.2,3.033a1.4,1.4,0,0,0-.079.658,1.587,1.587,0,0,0,.718,1.134,11.688,11.688,0,0,0,3.294,1.511q2.009.642,4,1.291c1.016.353,1.1.763,1.163,1.228a.989.989,0,0,1-.051.412c-.3.972-1.13,1.463-3.4,1.463-1.751,0-2.673-.395-2.767-1.177a1.968,1.968,0,0,1,.112-.831h-3.962l-.955,2.491c1.041.945,3.334,1.425,6.891,1.425a23,23,0,0,0,7.08-.771,4.425,4.425,0,0,0,3.054-2.88,1.94,1.94,0,0,0,.09-.942q-.168-.892-1.708-1.653a45.321,45.321,0,0,0-5.685-1.936,14.2,14.2,0,0,1-1.651-.585c-.5-.206-.767-.451-.808-.733a.518.518,0,0,1,.065-.347q.4-1.105,3.225-1.1,2.348,0,2.521,1a3.3,3.3,0,0,1,.051.717Z" transform="translate(-895.678 -729.249)"/>
      </g>
      <path id="패스_45820" data-name="패스 45820" d="M1072.6,748.233l-3.916,5.2-1.979-5.2h-3.8l2.064,5.421h0a3.083,3.083,0,0,0,3.091,2.049h2.7l5.631-7.471Z" transform="translate(-923.637 -743.168)" fill-rule="evenodd"/>
      <path id="패스_45821" data-name="패스 45821" d="M1023.752,748.232h-3.79c-4.076,0-4.62,2.484-4.62,2.484l-.48,1.93c-.7,2.82,3.165,3.022,3.165,3.022l.917,0h7.186l.406-1.6h-6.727c-1.6,0-1.385-1.175-1.385-1.175l.086-.34h8.412l.313-1.26C1028.021,748.114,1023.752,748.232,1023.752,748.232Zm-.427,2.763h-4.419a1.779,1.779,0,0,1,1.686-1.248h1.594C1023.877,749.746,1023.324,750.994,1023.324,750.994Z" transform="translate(-888.342 -743.167)" fill-rule="evenodd"/>
      <path id="패스_45822" data-name="패스 45822" d="M1118.005,748.233h-4.03c-4.077,0-4.641,2.484-4.641,2.484l-.636,2.468s-.715,2.484,3.361,2.484h4.029c4.077,0,4.641-2.484,4.641-2.484l.635-2.468S1122.081,748.233,1118.005,748.233Zm-.344,2.763-.491,1.91a1.8,1.8,0,0,1-1.7,1.248h-2.015s-1.37-.013-1.054-1.248l.493-1.91a1.8,1.8,0,0,1,1.7-1.248h2.015S1117.977,749.76,1117.661,751Z" transform="translate(-957.171 -743.168)" fill-rule="evenodd"/>
      <g id="그룹_7975" data-name="그룹 7975" transform="translate(165.155 0.424)">
        <path id="패스_45826" data-name="패스 45826" d="M1170.857,735.784a1.9,1.9,0,0,1-.648,1,4.206,4.206,0,0,1-1.295.711,9.136,9.136,0,0,1-1.838.431,16.652,16.652,0,0,1-2.276.145,10.814,10.814,0,0,1-2.724-.32,6.178,6.178,0,0,1-2.169-1.021l2.22-.861a4.812,4.812,0,0,0,1.48.646,7.654,7.654,0,0,0,1.786.185,6.42,6.42,0,0,0,1.986-.235q.683-.235.789-.656a.487.487,0,0,0-.347-.606,3.724,3.724,0,0,0-1.4-.2h-1.568l.347-1.372h1.417a3.2,3.2,0,0,0,1.236-.18.8.8,0,0,0,.493-.53.327.327,0,0,0-.047-.26.662.662,0,0,0-.31-.23,2.6,2.6,0,0,0-.64-.16,7.356,7.356,0,0,0-1.033-.06,6.3,6.3,0,0,0-2.737.591l-1.691-.931a10.217,10.217,0,0,1,2.208-.776,11.924,11.924,0,0,1,2.6-.255,12.84,12.84,0,0,1,1.867.125,6.264,6.264,0,0,1,1.446.371,2.043,2.043,0,0,1,.882.621.973.973,0,0,1,.159.866,1.505,1.505,0,0,1-.7.921,4.183,4.183,0,0,1-1.187.511,4.183,4.183,0,0,1,.634.18,2.574,2.574,0,0,1,.594.305,1.313,1.313,0,0,1,.407.446A.806.806,0,0,1,1170.857,735.784Z" transform="translate(-1159.908 -730.838)"/>
      </g>
    </g>
  </g>
</svg>
