<svg xmlns="http://www.w3.org/2000/svg" xmlns:xlink="http://www.w3.org/1999/xlink" width="192" height="20" viewBox="0 0 192 20">
  <defs>
    <clipPath id="clip-path">
      <rect id="사각형_13332" data-name="사각형 13332" width="192" height="20" transform="translate(321.53 856.268)" fill="none" stroke="#707070" stroke-width="1"/>
    </clipPath>
  </defs>
  <g id="navigation_logo_K127" data-name="navigation logo_K127" transform="translate(-321.53 -856.268)" clip-path="url(#clip-path)">
    <g id="Layer_1" data-name="Layer 1" transform="translate(269.128 856.596)">
      <g id="그룹_7936" data-name="그룹 7936" transform="translate(52.364 3.483)">
        <g id="그룹_7934" data-name="그룹 7934">
          <g id="그룹_7932" data-name="그룹 7932" transform="translate(0 1.105)">
            <path id="패스_45713" data-name="패스 45713" d="M327.062,24.157l-4.795,6.361-2.421-6.361H315.2l2.526,6.636h0a3.776,3.776,0,0,0,3.784,2.508h3.3l6.894-9.144Z" transform="translate(-315.2 -22.081)" fill-rule="evenodd"/>
            <path id="패스_45714" data-name="패스 45714" d="M431.32,11.848h-4.638c-4.99,0-5.656,3.04-5.656,3.04l-.589,2.362c-.856,3.452,3.876,3.7,3.876,3.7l1.122-.006h8.8l.494-1.96h-8.234c-1.959,0-1.694-1.438-1.694-1.438l.1-.417H435.2l.383-1.541c.964-3.884-4.26-3.74-4.26-3.74M430.8,15.23h-5.409a2.176,2.176,0,0,1,2.064-1.529H429.4c2.071,0,1.395,1.529,1.395,1.529m54.381-1.557h6.847l.462-1.826h-8.226c-4.347,0-4.927,2.647-4.927,2.647l-.127.508h0c-.123,1.3.852,2,2.271,2h5.4c.577,0,.852.346.626.781-.3.586-1.267.784-1.956.784h-7l-.6,2.375h8.917c4.343,0,4.924-2.648,4.924-2.648l.125-.5a2.169,2.169,0,0,0-2.161-2.633h-5.507c-.444,0-.9-.236-.564-.776a2.088,2.088,0,0,1,1.5-.709m-11.326-1.826-1.464,5.845s0,0,0,0l-.321,1.289h-2.747c-1.19,0-1.974-.64-1.747-1.418l1.449-5.718h-9.812l.532-2.076h-4.926l-2.083,8.251c-.467,1.6,1.237,2.92,3.786,2.92h3.012l.495-1.96h-.546c-1.188,0-1.974-.639-1.746-1.417l1-3.858h4.927l-1.091,4.314c-.466,1.6,1.238,2.92,3.787,2.92h9.858l2.295-9.1ZM446.47,17.616l-3.632-5.768h-4.646l-2.309,9.144h4.646l1.456-5.768,3.631,5.768h4.646l2.308-9.144h-4.645Z" transform="translate(-405.164 -9.772)" fill-rule="evenodd"/>
          </g>
          <g id="그룹_7962" data-name="그룹 7962" transform="translate(92.694)">
            <path id="패스_45715" data-name="패스 45715" d="M1092.185,2.822c-.857,1.131-1.885,1.161-4.517,1.246l-.464,1.985h3.408L1088.385,15h5.512l2.982-12.174Z" transform="translate(-1068.506 -2.719)"/>
            <g id="그룹_7933" data-name="그룹 7933">
              <path id="패스_45716" data-name="패스 45716" d="M974.089,5.445l.513-2.2c-1.007-.754-3.031-1.133-6.092-1.133-5.247,0-8.244.979-9.011,2.971a1.378,1.378,0,0,0-.077.644,1.553,1.553,0,0,0,.7,1.11,11.467,11.467,0,0,0,3.226,1.48q1.967.628,3.918,1.264c1,.346,1.073.747,1.139,1.2a.968.968,0,0,1-.049.4c-.3.95-1.106,1.432-3.327,1.432-1.715,0-2.618-.387-2.71-1.152a1.916,1.916,0,0,1,.111-.814h-3.881l-.936,2.44c1.019.924,3.265,1.395,6.748,1.395a22.486,22.486,0,0,0,6.933-.757,4.329,4.329,0,0,0,2.99-2.819,1.9,1.9,0,0,0,.089-.923q-.166-.873-1.674-1.618a44.427,44.427,0,0,0-5.566-1.9A13.92,13.92,0,0,1,965.52,5.9c-.491-.2-.751-.441-.792-.718a.516.516,0,0,1,.064-.34q.389-1.082,3.158-1.08,2.3,0,2.468.979a3.162,3.162,0,0,1,.05.7Z" transform="translate(-957.615 -2.111)"/>
            </g>
            <path id="패스_45717" data-name="패스 45717" d="M1269.92,36.489l-3.836,5.089-1.937-5.089h-3.717l2.021,5.309h0a3.018,3.018,0,0,0,3.027,2.007h2.643l5.515-7.316Z" transform="translate(-1216.737 -31.529)" fill-rule="evenodd"/>
            <path id="패스_45718" data-name="패스 45718" d="M1182.054,36.486h-3.711c-3.991,0-4.525,2.432-4.525,2.432l-.47,1.889c-.686,2.761,3.1,2.959,3.1,2.959l.9,0h7.037l.4-1.567h-6.588c-1.568,0-1.356-1.151-1.356-1.151l.085-.333h8.236l.306-1.234C1186.236,36.371,1182.054,36.486,1182.054,36.486Zm-.417,2.705h-4.329a1.742,1.742,0,0,1,1.651-1.222h1.562C1182.179,37.968,1181.637,39.191,1181.637,39.191Z" transform="translate(-1142.15 -31.525)" fill-rule="evenodd"/>
            <path id="패스_45719" data-name="패스 45719" d="M1352.4,36.489h-3.946c-3.993,0-4.544,2.432-4.544,2.432l-.623,2.416s-.7,2.433,3.291,2.433h3.946c3.993,0,4.544-2.433,4.544-2.433l.623-2.416S1356.395,36.489,1352.4,36.489Zm-.337,2.705-.482,1.87a1.759,1.759,0,0,1-1.66,1.222h-1.974s-1.341-.013-1.032-1.222l.483-1.87a1.758,1.758,0,0,1,1.66-1.222h1.973S1352.375,37.984,1352.065,39.194Z" transform="translate(-1287.6 -31.529)" fill-rule="evenodd"/>
            <path id="패스_45720" data-name="패스 45720" d="M1483.554,17.788h-2.766c-1.511,0-3.527.017-4.771.048.853-.572,2.508-1.684,3.7-2.553l5.555-4.09,2.037-1.666h-13.179c-3.021,0-2.848,1.976-2.848,1.976h1.942c1.511,0,5.512-.016,6.755-.049-.853.573-2.506,1.685-3.7,2.552l-5.556,4.092-3.228,2.273h18.676A2.992,2.992,0,0,0,1483.554,17.788Z" transform="translate(-1393.924 -8.458)"/>
          </g>
        </g>
      </g>
    </g>
  </g>
</svg>
