<svg xmlns="http://www.w3.org/2000/svg" xmlns:xlink="http://www.w3.org/1999/xlink" width="32" height="32" viewBox="0 0 32 32">
  <defs>
    <clipPath id="clip-path">
      <rect id="사각형_13272" data-name="사각형 13272" width="29.59" height="29.59" fill="none"/>
    </clipPath>
  </defs>
  <g id="Long_Haul" data-name="Long Haul" transform="translate(-4 -4)">
    <rect id="사각형_12508" data-name="사각형 12508" width="32" height="32" transform="translate(4 4)" fill="none"/>
    <g id="그룹_10825" data-name="그룹 10825" transform="translate(5.205 5.205)">
      <g id="그룹_10824" data-name="그룹 10824" clip-path="url(#clip-path)">
        <path id="패스_54974" data-name="패스 54974" d="M22.092,25.33a.532.532,0,0,1-.459-.261l-8.556-14.26a.534.534,0,1,1,.917-.549L22.55,24.52a.536.536,0,0,1-.458.81" transform="translate(5.538 4.26)" fill="#080404"/>
        <path id="패스_54975" data-name="패스 54975" d="M1.535,25.33a.536.536,0,0,1-.458-.81L9.633,10.26a.534.534,0,1,1,.917.549L1.994,25.069a.534.534,0,0,1-.459.261" transform="translate(0.426 4.26)" fill="#080404"/>
        <path id="패스_54976" data-name="패스 54976" d="M25.351,9.626a.535.535,0,0,1-.535-.535V1.07H3.07V8.556H22.5a.535.535,0,1,1,0,1.07H2.535A.535.535,0,0,1,2,9.091V.535A.535.535,0,0,1,2.535,0H25.351a.535.535,0,0,1,.535.535V9.091a.535.535,0,0,1-.535.535" transform="translate(0.852)" fill="#080404"/>
        <path id="패스_54977" data-name="패스 54977" d="M10.535,12.5A.535.535,0,0,1,10,11.961V10.535a.535.535,0,0,1,1.07,0v1.426a.535.535,0,0,1-.535.535" transform="translate(4.26 4.26)" fill="#080404"/>
        <path id="패스_54978" data-name="패스 54978" d="M10.535,16.922A.535.535,0,0,1,10,16.387V13.535a.535.535,0,0,1,1.07,0v2.852a.535.535,0,0,1-.535.535" transform="translate(4.26 5.538)" fill="#080404"/>
        <path id="패스_54979" data-name="패스 54979" d="M10.535,22.348A.535.535,0,0,1,10,21.813V17.535a.535.535,0,1,1,1.07,0v4.278a.535.535,0,0,1-.535.535" transform="translate(4.26 7.242)" fill="#080404"/>
        <path id="패스_54980" data-name="패스 54980" d="M9.387,4a.536.536,0,0,1-.378-.157L7.961,2.791,6.914,3.839a.535.535,0,0,1-.757-.757L7.583,1.656a.537.537,0,0,1,.757,0L9.766,3.082A.535.535,0,0,1,9.387,4" transform="translate(2.556 0.639)" fill="#080404"/>
        <path id="패스_54981" data-name="패스 54981" d="M7.535,6.848A.535.535,0,0,1,7,6.313V2.035a.535.535,0,1,1,1.07,0V6.313a.535.535,0,0,1-.535.535" transform="translate(2.982 0.639)" fill="#080404"/>
        <path id="패스_54982" data-name="패스 54982" d="M.535,19.756A.535.535,0,0,1,0,19.221V3.535A.535.535,0,0,1,.535,3H3.387a.535.535,0,0,1,0,1.07H1.07V19.221a.535.535,0,0,1-.535.535" transform="translate(0 1.278)" fill="#080404"/>
        <path id="패스_54983" data-name="패스 54983" d="M21.387,19.756a.535.535,0,0,1-.535-.535V4.07H18.535a.535.535,0,0,1,0-1.07h2.852a.535.535,0,0,1,.535.535V19.221a.535.535,0,0,1-.535.535" transform="translate(7.668 1.278)" fill="#080404"/>
        <path id="패스_54984" data-name="패스 54984" d="M16.239,3.07h-5.7a.535.535,0,0,1,0-1.07h5.7a.535.535,0,0,1,0,1.07" transform="translate(4.26 0.852)" fill="#080404"/>
        <path id="패스_54985" data-name="패스 54985" d="M14.1,5.07H10.535a.535.535,0,0,1,0-1.07H14.1a.535.535,0,1,1,0,1.07" transform="translate(4.26 1.704)" fill="#080404"/>
      </g>
    </g>
  </g>
</svg>
