<svg xmlns="http://www.w3.org/2000/svg" xmlns:xlink="http://www.w3.org/1999/xlink" width="32" height="32" viewBox="0 0 32 32">
  <defs>
    <clipPath id="clip-path">
      <rect id="사각형_12846" data-name="사각형 12846" width="32" height="28.914" fill="none"/>
    </clipPath>
  </defs>
  <g id="On_Off_Road" data-name="On &amp; Off Road" transform="translate(-4 -4)">
    <rect id="사각형_12508" data-name="사각형 12508" width="32" height="32" transform="translate(4 4)" fill="none"/>
    <g id="그룹_10725" data-name="그룹 10725" transform="translate(4 5.543)">
      <g id="그룹_8870" data-name="그룹 8870" clip-path="url(#clip-path)">
        <path id="패스_46300" data-name="패스 46300" d="M12.162,7.325a3.662,3.662,0,1,1,3.662-3.662,3.666,3.666,0,0,1-3.662,3.662m0-6.168a2.506,2.506,0,1,0,2.506,2.506,2.509,2.509,0,0,0-2.506-2.506" transform="translate(4.608)" fill="#0a0507"/>
        <path id="패스_46301" data-name="패스 46301" d="M12.12,19.157H10.578a.578.578,0,0,1,0-1.157H12.12a.578.578,0,0,1,0,1.157" transform="translate(5.421 9.758)" fill="#0a0507"/>
        <path id="패스_46302" data-name="패스 46302" d="M13.017,22.68H9.162a.578.578,0,0,1-.578-.578V17.63L5.577,12.365a.579.579,0,1,1,1-.575l3.084,5.4a.592.592,0,0,1,.076.288v4.048h2.7V17.475a.578.578,0,1,1,1.157,0V22.1a.578.578,0,0,1-.578.578" transform="translate(2.982 6.234)" fill="#0a0507"/>
        <path id="패스_46303" data-name="패스 46303" d="M3.72,7.47a.579.579,0,0,1-.5-.867L4.54,4.29a.582.582,0,0,1,.5-.29H8.9a.578.578,0,0,1,0,1.157H5.378L4.223,7.178a.577.577,0,0,1-.5.291" transform="translate(1.704 2.168)" fill="#0a0507"/>
        <path id="패스_46304" data-name="패스 46304" d="M4.433,26.746H.578a.581.581,0,0,1-.524-.822L10.078,4.335a.579.579,0,0,1,1.05.486L1.485,25.589h2.58L8.535,15.9a.578.578,0,1,1,1.05.484L4.959,26.41a.581.581,0,0,1-.526.336" transform="translate(0 2.168)" fill="#0a0507"/>
        <path id="패스_46305" data-name="패스 46305" d="M2.54,11.638A2.183,2.183,0,0,1,.7,8.282L4.525,2.268A.578.578,0,0,1,5.014,2h5.4a.578.578,0,1,1,0,1.157H5.332L1.674,8.9a1.027,1.027,0,0,0,.867,1.578,1.029,1.029,0,0,0,.891-.518.578.578,0,1,1,1,.574,2.184,2.184,0,0,1-1.9,1.1" transform="translate(0.191 1.084)" fill="#0a0507"/>
        <path id="패스_46306" data-name="패스 46306" d="M12.194,18.723a2.105,2.105,0,0,1-2.085-1.841l-.6-4.834a.578.578,0,0,1,1.147-.143l.606,4.834a.944.944,0,0,0,.936.828A.944.944,0,0,0,13.13,16.5L11.819,6.654A.578.578,0,0,1,12.965,6.5l1.312,9.842a2.1,2.1,0,0,1-2.083,2.379" transform="translate(5.15 3.252)" fill="#0a0507"/>
        <path id="패스_46307" data-name="패스 46307" d="M4.62,19.157H3.078a.578.578,0,1,1,0-1.157H4.62a.578.578,0,1,1,0,1.157" transform="translate(1.355 9.758)" fill="#0a0507"/>
        <path id="패스_46308" data-name="패스 46308" d="M14.586,16.867a.576.576,0,0,1-.345-.114L2.533,8.019a.579.579,0,1,1,.691-.928l11.709,8.734a.579.579,0,0,1-.347,1.042" transform="translate(1.247 3.782)" fill="#0a0507"/>
        <path id="패스_46309" data-name="패스 46309" d="M15.2,17.325a.58.58,0,0,1-.345-.114l-2.372-1.77a.578.578,0,1,1,.692-.927l2.372,1.769a.578.578,0,0,1-.347,1.042" transform="translate(6.642 7.806)" fill="#0a0507"/>
        <path id="패스_46310" data-name="패스 46310" d="M19.933,17.187a.578.578,0,0,1-.481-.258,1.736,1.736,0,0,0-2.888,0,.578.578,0,1,1-.962-.642,2.892,2.892,0,0,1,4.813,0,.579.579,0,0,1-.481.9" transform="translate(8.405 8.131)" fill="#080404"/>
        <path id="패스_46311" data-name="패스 46311" d="M21.694,22.57H12.83a.579.579,0,0,1-.524-.82,5.918,5.918,0,0,1,2.259-2.592v-.25a4.894,4.894,0,0,1,2.182-4.079,5.7,5.7,0,0,1,3.078-.9l.623-.936a2.892,2.892,0,0,1,4.813,0,.579.579,0,0,1-.964.642,1.735,1.735,0,0,0-2.887,0l-.8,1.206a.589.589,0,0,1-.524.256,4.274,4.274,0,0,0-2.694.7,3.743,3.743,0,0,0-1.667,3.117v.584a.575.575,0,0,1-.305.51,4.578,4.578,0,0,0-1.588,1.411h7.866a.578.578,0,0,1,0,1.157" transform="translate(6.642 6.345)" fill="#080404"/>
      </g>
    </g>
  </g>
</svg>
