<svg xmlns="http://www.w3.org/2000/svg" xmlns:xlink="http://www.w3.org/1999/xlink" width="32" height="32" viewBox="0 0 32 32">
  <defs>
    <clipPath id="clip-path">
      <rect id="사각형_13273" data-name="사각형 13273" width="26.609" height="32" fill="none"/>
    </clipPath>
  </defs>
  <g id="Regional_Haul" data-name="Regional Haul" transform="translate(-4 -4)">
    <rect id="사각형_12508" data-name="사각형 12508" width="32" height="32" transform="translate(4 4)" fill="none"/>
    <g id="그룹_10827" data-name="그룹 10827" transform="translate(6.696 4)">
      <g id="그룹_10826" data-name="그룹 10826" transform="translate(0 0)" clip-path="url(#clip-path)">
        <path id="패스_54986" data-name="패스 54986" d="M.578,29.29A.579.579,0,0,1,0,28.712V14.193A5.074,5.074,0,0,1,2.129,10.1a5.517,5.517,0,0,1,4.652-.83l6.508,1.779V5.573a.578.578,0,0,1,1.157,0v6.235a.579.579,0,0,1-.227.46.571.571,0,0,1-.5.1L6.476,10.389A4.361,4.361,0,0,0,2.8,11.04a3.913,3.913,0,0,0-1.647,3.153V28.712a.579.579,0,0,1-.578.578" transform="translate(0 2.71)" fill="#090406"/>
        <path id="패스_54987" data-name="패스 54987" d="M6.731,32a.579.579,0,0,1-.578-.578v-8.5a.579.579,0,0,1,.731-.558l7.239,1.978a4.362,4.362,0,0,0,3.671-.651,3.915,3.915,0,0,0,1.647-3.153V8.284a.579.579,0,0,1,.578-.578h1.313l-6.058-6.3-6.058,6.3h1.311a.578.578,0,1,1,0,1.157H7.859a.579.579,0,0,1-.416-.98L14.859.17a.6.6,0,0,1,.833,0l7.415,7.713a.579.579,0,0,1-.415.98H20.6V20.533a5.075,5.075,0,0,1-2.127,4.092,5.548,5.548,0,0,1-4.652.828L7.31,23.677v7.745A.579.579,0,0,1,6.731,32" transform="translate(3.338 0)" fill="#090406"/>
        <path id="패스_54988" data-name="패스 54988" d="M12.27,10.78a.579.579,0,0,1-.578-.578V5.573a.578.578,0,1,1,1.157,0V10.2a.579.579,0,0,1-.578.578" transform="translate(6.343 2.71)" fill="#090406"/>
        <path id="패스_54989" data-name="패스 54989" d="M13.024,15.1a2.6,2.6,0,0,1-.682-.094l-5.1-1.459a.578.578,0,1,1,.318-1.112l5.1,1.459a1.372,1.372,0,0,0,1.2-.233,1.2,1.2,0,0,0,.487-.956V10.573a.578.578,0,1,1,1.157,0v2.132a2.349,2.349,0,0,1-.942,1.877,2.5,2.5,0,0,1-1.527.518" transform="translate(3.701 5.422)" fill="#090406"/>
        <path id="패스_54990" data-name="패스 54990" d="M3.578,18.339A.579.579,0,0,1,3,17.76v-4.4a2.35,2.35,0,0,1,.939-1.876,2.522,2.522,0,0,1,2.21-.427.579.579,0,1,1-.3,1.117,1.374,1.374,0,0,0-1.2.23,1.2,1.2,0,0,0-.484.956v4.4a.579.579,0,0,1-.578.578" transform="translate(1.628 5.948)" fill="#090406"/>
        <path id="패스_54991" data-name="패스 54991" d="M3.578,22.78A.579.579,0,0,1,3,22.2V17.573a.578.578,0,0,1,1.157,0V22.2a.579.579,0,0,1-.578.578" transform="translate(1.628 9.22)" fill="#090406"/>
      </g>
    </g>
  </g>
</svg>
