<svg xmlns="http://www.w3.org/2000/svg" xmlns:xlink="http://www.w3.org/1999/xlink" width="32" height="32" viewBox="0 0 32 32">
  <defs>
    <clipPath id="clip-path">
      <rect id="사각형_13274" data-name="사각형 13274" width="28.886" height="32" fill="none"/>
    </clipPath>
  </defs>
  <g id="Urban" transform="translate(-4 -4)">
    <rect id="사각형_12508" data-name="사각형 12508" width="32" height="32" transform="translate(4 4)" fill="none"/>
    <g id="그룹_10829" data-name="그룹 10829" transform="translate(5.557 4)">
      <g id="그룹_10828" data-name="그룹 10828" transform="translate(0 0)" clip-path="url(#clip-path)">
        <path id="패스_54992" data-name="패스 54992" d="M15.362,28.474a.578.578,0,0,1-.578-.578V10.516L9.97,7.766l-4.814,2.75v14.3a.578.578,0,0,1-1.155,0V10.18a.574.574,0,0,1,.291-.5L9.683,6.6a.579.579,0,0,1,.575,0L15.65,9.679a.575.575,0,0,1,.29.5V27.9a.578.578,0,0,1-.578.578" transform="translate(2.162 3.526)" fill="#070303"/>
        <path id="패스_54993" data-name="패스 54993" d="M17.524,29.843H2.761A2.764,2.764,0,0,1,0,27.084V7.682a.581.581,0,0,1,.317-.516L6.48,4.054a.568.568,0,0,1,.562.022.578.578,0,0,1,.276.493v4.67a.578.578,0,1,1-1.155,0V5.506L1.155,8.038V27.084a1.607,1.607,0,0,0,1.605,1.6H17.524a.578.578,0,0,1,0,1.155" transform="translate(0 2.157)" fill="#070303"/>
        <path id="패스_54994" data-name="패스 54994" d="M14.676,12.707H13.135a.385.385,0,0,1-.385-.385V10.781a.385.385,0,0,1,.385-.385h1.541a.384.384,0,0,1,.385.385v1.541a.384.384,0,0,1-.385.385" transform="translate(6.893 5.62)" fill="#090406"/>
        <path id="패스_54995" data-name="패스 54995" d="M17.426,12.707H15.885a.385.385,0,0,1-.385-.385V10.781a.385.385,0,0,1,.385-.385h1.541a.384.384,0,0,1,.385.385v1.541a.384.384,0,0,1-.385.385" transform="translate(8.379 5.62)" fill="#090406"/>
        <path id="패스_54996" data-name="패스 54996" d="M14.676,15.207H13.135a.385.385,0,0,1-.385-.385V13.281a.385.385,0,0,1,.385-.385h1.541a.384.384,0,0,1,.385.385v1.541a.384.384,0,0,1-.385.385" transform="translate(6.893 6.972)" fill="#090406"/>
        <path id="패스_54997" data-name="패스 54997" d="M17.426,15.207H15.885a.385.385,0,0,1-.385-.385V13.281a.385.385,0,0,1,.385-.385h1.541a.384.384,0,0,1,.385.385v1.541a.384.384,0,0,1-.385.385" transform="translate(8.379 6.972)" fill="#090406"/>
        <path id="패스_54998" data-name="패스 54998" d="M2.01,10.207H3.551a.384.384,0,0,0,.385-.385V8.281A.384.384,0,0,0,3.551,7.9H2.01a.385.385,0,0,0-.385.385V9.822a.385.385,0,0,0,.385.385" transform="translate(0.878 4.269)" fill="#080404"/>
        <path id="패스_54999" data-name="패스 54999" d="M2.01,12.707H3.551a.384.384,0,0,0,.385-.385V10.781a.384.384,0,0,0-.385-.385H2.01a.385.385,0,0,0-.385.385v1.541a.385.385,0,0,0,.385.385" transform="translate(0.878 5.62)" fill="#080404"/>
        <path id="패스_55000" data-name="패스 55000" d="M8.76,17.707H10.3a.384.384,0,0,0,.385-.385V15.781A.384.384,0,0,0,10.3,15.4H8.76a.385.385,0,0,0-.385.385v1.541a.385.385,0,0,0,.385.385" transform="translate(4.528 8.323)" fill="#080404"/>
        <path id="패스_55001" data-name="패스 55001" d="M24.524,32a.578.578,0,0,1-.578-.578V13.513H18.362a.578.578,0,0,1-.578-.578V2.7h-2.5a.576.576,0,0,1-.516-.32l-.61-1.22h-6V8.281A.578.578,0,0,1,7,8.281V.578A.578.578,0,0,1,7.578,0H14.51a.579.579,0,0,1,.518.32l.61,1.22h2.724a.578.578,0,0,1,.578.578V12.357h5.585a.578.578,0,0,1,.578.578V31.422a.578.578,0,0,1-.578.578" transform="translate(3.784 0)" fill="#070303"/>
        <path id="패스_55002" data-name="패스 55002" d="M10.3,12.707H8.76a.385.385,0,0,1-.385-.385V10.781A.385.385,0,0,1,8.76,10.4H10.3a.384.384,0,0,1,.385.385v1.541a.384.384,0,0,1-.385.385" transform="translate(4.528 5.62)" fill="#090406"/>
        <path id="패스_55003" data-name="패스 55003" d="M10.3,15.207H8.76a.385.385,0,0,1-.385-.385V13.281A.385.385,0,0,1,8.76,12.9H10.3a.384.384,0,0,1,.385.385v1.541a.384.384,0,0,1-.385.385" transform="translate(4.528 6.972)" fill="#090406"/>
        <path id="패스_55004" data-name="패스 55004" d="M10.8,4.186H9.26A.385.385,0,0,1,8.875,3.8V2.26a.384.384,0,0,1,.385-.385H10.8a.383.383,0,0,1,.385.385V3.8a.384.384,0,0,1-.385.385" transform="translate(4.798 1.014)" fill="#090406"/>
        <path id="패스_55005" data-name="패스 55005" d="M10.8,6.7H9.26a.384.384,0,0,1-.385-.385V4.77a.385.385,0,0,1,.385-.385H10.8a.384.384,0,0,1,.385.385V6.311A.383.383,0,0,1,10.8,6.7" transform="translate(4.798 2.371)" fill="#090406"/>
      </g>
    </g>
  </g>
</svg>
