<svg id="Road_Summer" xmlns="http://www.w3.org/2000/svg" width="32" height="32" viewBox="0 0 32 32">
  <rect id="사각형_13295" data-name="사각형 13295" width="32" height="32" fill="none"/>
  <path id="패스_55138" data-name="패스 55138" d="M20.69,14.921h9.726a.5.5,0,0,0,0-1H27.864A5.974,5.974,0,0,1,25.2,11.033a9.552,9.552,0,0,1-.156-4,.5.5,0,0,0-.134-.429.494.494,0,0,0-.424-.148,7.555,7.555,0,0,1-4.08-.313,8.528,8.528,0,0,1-2.9-2.665l0,0a.507.507,0,0,0-.083-.083.514.514,0,0,0-.058-.057l0,0a.475.475,0,0,0-.083-.033.507.507,0,0,0-.093-.037q-.1,0-.192,0a.5.5,0,0,0-.136.054l-.044.017,0,0a.508.508,0,0,0-.076.075.509.509,0,0,0-.064.065l0,0a8.485,8.485,0,0,1-2.9,2.665,7.563,7.563,0,0,1-4.08.313.5.5,0,0,0-.558.578,9.556,9.556,0,0,1-.157,4A5.971,5.971,0,0,1,6.3,13.921H3.75a.5.5,0,0,0,0,1h9.732L3.334,30.144a.5.5,0,1,0,.832.555L14.684,14.921h1.9v1a.5.5,0,1,0,1,0v-1h1.9L30,30.519a.5.5,0,1,0,.829-.559Zm-6.274-1h-2.14a4.794,4.794,0,0,1,.32-1.3.5.5,0,1,0-.928-.373,5.782,5.782,0,0,0-.4,1.675h-3.2a7.2,7.2,0,0,0,1.82-2.511,9.042,9.042,0,0,0,.3-3.882,7.588,7.588,0,0,0,3.992-.478,8.732,8.732,0,0,0,2.9-2.452,8.732,8.732,0,0,0,2.9,2.452,7.59,7.59,0,0,0,3.992.478,9.032,9.032,0,0,0,.3,3.882,7.2,7.2,0,0,0,1.82,2.511h-3.2a5.831,5.831,0,0,0-9.2-4.243.5.5,0,1,0,.583.813,4.834,4.834,0,0,1,7.621,3.43Z" transform="translate(-1.083 -1.088)" fill="#040000"/>
  <path id="패스_55139" data-name="패스 55139" d="M23.75,25.25a.5.5,0,0,0-.5.5v3.943a.5.5,0,1,0,1,0V25.75A.5.5,0,0,0,23.75,25.25Z" transform="translate(-7.75 -8.417)" fill="#040000"/>
  <path id="패스_55140" data-name="패스 55140" d="M23.75,36a.5.5,0,0,0-.5.5v4.835a.5.5,0,0,0,1,0V36.5a.5.5,0,0,0-.5-.5Z" transform="translate(-7.75 -11.999)" fill="#040000"/>
  <path id="패스_55141" data-name="패스 55141" d="M6.546,9.422A.5.5,0,1,0,7.109,8.6L5.263,7.337a.5.5,0,1,0-.563.826Z" transform="translate(-1.494 -2.417)" fill="#040000"/>
  <path id="패스_55142" data-name="패스 55142" d="M39.751,13.583a.5.5,0,0,0,.223-.053L42.64,12.2a.5.5,0,0,0-.447-.895l-2.667,1.333a.5.5,0,0,0,.224.947Z" transform="translate(-13.083 -3.75)" fill="#040000"/>
  <path id="패스_55143" data-name="패스 55143" d="M33.749,5.224A.5.5,0,0,0,34.165,5l.658-.975a.5.5,0,1,0-.829-.559l-.658.975a.5.5,0,0,0,.414.78Z" transform="translate(-11.083 -1.083)" fill="#040000"/>
</svg>
