<svg xmlns="http://www.w3.org/2000/svg" xmlns:xlink="http://www.w3.org/1999/xlink" width="32" height="32" viewBox="0 0 32 32">
  <defs>
    <clipPath id="clip-path">
      <rect id="사각형_13228" data-name="사각형 13228" width="29.869" height="26.269" fill="none"/>
    </clipPath>
  </defs>
  <g id="Road_All_season" transform="translate(-4 -4)">
    <rect id="사각형_12508" data-name="사각형 12508" width="32" height="32" transform="translate(4 4)" fill="none"/>
    <g id="그룹_10733" data-name="그룹 10733" transform="translate(5.065 6.865)">
      <g id="그룹_10732" data-name="그룹 10732" clip-path="url(#clip-path)">
        <path id="패스_54825" data-name="패스 54825" d="M10.418,4.458a.539.539,0,0,1-.381-.157L7.158,1.422A.54.54,0,0,1,7.922.658L10.8,3.537a.539.539,0,0,1-.383.921" transform="translate(3.076 0.22)" fill="#090406"/>
        <path id="패스_54826" data-name="패스 54826" d="M10.418,7.458a.539.539,0,0,1-.381-.157L7.158,4.422a.54.54,0,0,1,.764-.764L10.8,6.537a.539.539,0,0,1-.383.921" transform="translate(3.076 1.538)" fill="#090406"/>
        <path id="패스_54827" data-name="패스 54827" d="M10.2,10.617a.54.54,0,0,1-.269-.072L1.208,5.508a.539.539,0,1,1,.54-.934l8.726,5.037a.539.539,0,0,1-.269,1.006" transform="translate(0.412 1.978)" fill="#090406"/>
        <path id="패스_54828" data-name="패스 54828" d="M3.964,8.031a.539.539,0,0,1-.521-.4L2.388,3.7a.54.54,0,0,1,1.044-.279L4.485,7.351a.538.538,0,0,1-.38.661.544.544,0,0,1-.141.019" transform="translate(1.041 1.327)" fill="#090406"/>
        <path id="패스_54829" data-name="패스 54829" d="M6.563,9.531a.539.539,0,0,1-.521-.4L4.985,5.2a.54.54,0,1,1,1.044-.279L7.084,8.85a.539.539,0,0,1-.381.662.525.525,0,0,1-.14.019" transform="translate(2.183 1.985)" fill="#090406"/>
        <path id="패스_54830" data-name="패스 54830" d="M.909,7.886A.54.54,0,0,1,.77,6.825L4.7,5.768a.54.54,0,0,1,.279,1.044L1.05,7.867a.536.536,0,0,1-.141.019" transform="translate(0.163 2.527)" fill="#090406"/>
        <path id="패스_54831" data-name="패스 54831" d="M3.509,9.385a.54.54,0,0,1-.14-1.061L7.3,7.269a.54.54,0,1,1,.279,1.044L3.65,9.366a.536.536,0,0,1-.141.019" transform="translate(1.305 3.186)" fill="#090406"/>
        <path id="패스_54832" data-name="패스 54832" d="M7.54,15.474a.54.54,0,0,1-.54-.54V12.055a.541.541,0,0,1,.3-.482l2.579-1.29V.54a.54.54,0,1,1,1.08,0V10.616a.54.54,0,0,1-.3.484L8.08,12.389v2.545a.54.54,0,0,1-.54.54" transform="translate(3.076)" fill="#090406"/>
        <path id="패스_54833" data-name="패스 54833" d="M24.494,14.976a.564.564,0,0,1-.2-.039,9.042,9.042,0,0,1-4.241-4.615,12.349,12.349,0,0,1-.38-5.339,10.325,10.325,0,0,1-5.481-.615,10.211,10.211,0,0,1-3.043-2.328.54.54,0,1,1,.787-.738,9.175,9.175,0,0,0,2.715,2.089,10.33,10.33,0,0,0,5.581.435.521.521,0,0,1,.458.158.542.542,0,0,1,.144.465c-.006.035-.57,3.521.22,5.464A7.97,7.97,0,0,0,24.7,13.935a.54.54,0,0,1-.2,1.041" transform="translate(4.834 0.498)" fill="#090406"/>
        <path id="패스_54834" data-name="패스 54834" d="M17.3,13.232a.54.54,0,0,1-.54-.54A6.673,6.673,0,0,0,11.433,6.17a.54.54,0,0,1,.214-1.059,7.758,7.758,0,0,1,6.189,7.581.54.54,0,0,1-.54.54" transform="translate(4.834 2.241)" fill="#090406"/>
        <path id="패스_54835" data-name="패스 54835" d="M29.328,11.08H.54A.54.54,0,1,1,.54,10H29.328a.54.54,0,1,1,0,1.08" transform="translate(0 4.394)" fill="#070303"/>
        <path id="패스_54836" data-name="패스 54836" d="M3.794,17.8A2.291,2.291,0,0,1,1.5,15.58a2.706,2.706,0,0,1,.528-1.54A10.3,10.3,0,0,0,3.3,11.855a.54.54,0,0,1,1,.417,11.506,11.506,0,0,1-1.389,2.4,1.63,1.63,0,0,0-.324.908,1.213,1.213,0,0,0,1.215,1.144.54.54,0,1,1,0,1.08" transform="translate(0.659 5.064)" fill="#090406"/>
        <path id="패스_54837" data-name="패스 54837" d="M3.259,17.8a.54.54,0,1,1,0-1.08A1.212,1.212,0,0,0,4.472,15.58a1.63,1.63,0,0,0-.324-.908,11.445,11.445,0,0,1-1.388-2.4.54.54,0,1,1,1-.417A10.182,10.182,0,0,0,5.025,14.04a2.715,2.715,0,0,1,.527,1.54A2.29,2.29,0,0,1,3.259,17.8" transform="translate(1.194 5.064)" fill="#090406"/>
        <path id="패스_54838" data-name="패스 54838" d="M13.5,17.8a2.291,2.291,0,0,1-2.294-2.224,2.706,2.706,0,0,1,.528-1.54,10.3,10.3,0,0,0,1.268-2.185.54.54,0,0,1,1,.417,11.506,11.506,0,0,1-1.389,2.4,1.63,1.63,0,0,0-.324.908A1.213,1.213,0,0,0,13.5,16.725a.54.54,0,1,1,0,1.08" transform="translate(4.925 5.064)" fill="#090406"/>
        <path id="패스_54839" data-name="패스 54839" d="M12.968,17.8a.54.54,0,1,1,0-1.08,1.212,1.212,0,0,0,1.213-1.144,1.63,1.63,0,0,0-.324-.908,11.483,11.483,0,0,1-1.388-2.4.54.54,0,1,1,1-.417,10.217,10.217,0,0,0,1.268,2.185,2.715,2.715,0,0,1,.527,1.54A2.29,2.29,0,0,1,12.968,17.8" transform="translate(5.461 5.064)" fill="#090406"/>
        <path id="패스_54840" data-name="패스 54840" d="M18.357,20.167a2.289,2.289,0,0,1-2.293-2.224,2.7,2.7,0,0,1,.527-1.539,10.263,10.263,0,0,0,1.268-2.186.54.54,0,0,1,1,.417,11.47,11.47,0,0,1-1.389,2.4,1.638,1.638,0,0,0-.322.907,1.211,1.211,0,0,0,1.213,1.144.54.54,0,0,1,0,1.08" transform="translate(7.059 6.102)" fill="#090406"/>
        <path id="패스_54841" data-name="패스 54841" d="M17.822,20.167a.54.54,0,0,1,0-1.08,1.211,1.211,0,0,0,1.213-1.144,1.63,1.63,0,0,0-.324-.907,11.537,11.537,0,0,1-1.388-2.4.54.54,0,0,1,1-.417A10.263,10.263,0,0,0,19.588,16.4a2.7,2.7,0,0,1,.527,1.539,2.289,2.289,0,0,1-2.293,2.224" transform="translate(7.594 6.102)" fill="#090406"/>
        <path id="패스_54842" data-name="패스 54842" d="M8.648,20.167a2.29,2.29,0,0,1-2.294-2.224A2.705,2.705,0,0,1,6.882,16.4a10.233,10.233,0,0,0,1.267-2.186.541.541,0,0,1,1,.417,11.508,11.508,0,0,1-1.389,2.4,1.63,1.63,0,0,0-.324.907,1.212,1.212,0,0,0,1.215,1.144.54.54,0,0,1,0,1.08" transform="translate(2.792 6.102)" fill="#090406"/>
        <path id="패스_54843" data-name="패스 54843" d="M8.113,20.167a.54.54,0,1,1,0-1.08,1.211,1.211,0,0,0,1.213-1.144A1.63,1.63,0,0,0,9,17.036a11.522,11.522,0,0,1-1.389-2.4.541.541,0,0,1,1-.417A10.228,10.228,0,0,0,9.879,16.4a2.714,2.714,0,0,1,.527,1.539,2.289,2.289,0,0,1-2.293,2.224" transform="translate(3.327 6.102)" fill="#090406"/>
      </g>
    </g>
  </g>
</svg>
