<svg data-name="A type_logo_RT05" xmlns="http://www.w3.org/2000/svg" width="1920" height="90" viewBox="0 0 1920 90">
    <path data-name="사각형 12549" style="fill:none" d="M0 0h1920v90H0z"/>
    <g data-name="Layer 1">
        <g data-name="그룹 7951">
            <g data-name="그룹 7948">
                <g data-name="그룹 7947">
                    <path data-name="패스 45756" d="m1099.486 20.265-54.747-.017c-9.668 0-19.018 5.672-21.527 13.879l-6.471 21.149c-3.9 12.736 5.483 14.867 18.554 14.867h54.024c11.37 0 18.855-5.165 21.639-14.274l6.067-19.826c3.859-12.65-3.738-15.778-17.539-15.778m-20.058 15.684-5.689 18.622c-1.272 4.142-3.472 6.171-8.852 6.171h-4.987c-5.26 0-6.635-1.53-5.294-5.87l6-19.637c1.178-3.841 4.271-5.568 8.792-5.568h3.764c5.87 0 7.727 1.521 6.266 6.282z" style="fill:#8d7632"/>
                    <path data-name="패스 45757" d="M717.716 20.368h-28.128c-3.085 0-7.468.593-9.969 2.192l.808-2.192h-35.973l-15.245 49.887h37.6l10.9-35.63c1-3.231 2.587-4.847 6.746-4.847h5.6c5.492 0 5.578 2.114 4.34 6.179L683.8 70.255h37.812l10.129-33.395c3.128-10.218-1.315-16.492-14.025-16.492z" style="fill:#8d7632"/>
                    <path data-name="패스 45758" d="m820.746 20.265-66.773.1-2.888 9.41h40.245c3.179 0 6.419.2 5.422 3.438-.962 2.741-3.214 3.334-6.161 3.334h-34.779c-8.68 0-16.4 3.635-18.786 11.438l-2.587 8.5c-3.248 10.622 2.518 13.767 14.378 13.767h30.035c2.75 0 6.2-.576 8.43-2.329l-.842 2.329h36.317l10.966-35.724c2.6-8.5-2.742-14.163-12.977-14.266m-30.37 34.186c-1.332 4.357-3.283 6.385-8.9 6.385h-3.9c-5.491 0-6.308-2.123-5.019-6.385l.688-2.217c1.323-4.349 3.283-6.368 8.9-6.368h10.863z" style="fill:#8d7632"/>
                    <path data-name="패스 45759" d="M925.3 20.566h-76.62l-21.128 68.449h39.089l6.145-19.68h37.606c12.22 0 22.344-2.329 25.9-13.956l6.343-20.754c3.652-11.937-5.466-14.059-17.334-14.059m-22.593 17.2-3.833 12.546c-1.736 5.664-2.535 7.889-10.364 7.889H876.2l8.1-26.511h13.914c5.501.005 5.776 1.93 4.495 6.081z" style="fill:#8d7632"/>
                    <path data-name="패스 45760" d="M1021.562 20.368h-15.778c-8.439 0-13.389 1.9-15.847 4.3l1.615-4.3h-35.93l-15.264 49.887h37.591l8.817-28.841c1.512-4.967 5.405-7.064 12.323-7.493l5.3-.009a91.447 91.447 0 0 1 12.066.988z" style="fill:#8d7632"/>
                    <path data-name="패스 45761" d="m596.888 20.368-10.107 33.086c-1.177 3.455-2.148 7.391-7.639 7.391h-4.263c-7.082 0-7.2-2.407-5.57-7.786l10-32.691h-37.62l-9.118 29.863c-4.117 13.458-1.126 20.032 16 20.032h25.139a26.166 26.166 0 0 0 8.216-.928l-1.057 3.465c-1.358 4.443-2.57 6.772-8.672 6.772h-37.074l-3.008 9.805h54.271c15.873-.309 27.156-.387 31.952-16.088l.807-3.025 15.254-49.9z" style="fill:#8d7632"/>
                    <path data-name="패스 45762" d="M517.343 1.664h-77.8l-20.972 68.591h77.807c15.525 0 23.749-8.237 27.247-19.641l8.954-29.314c3.524-11.516-.085-19.637-15.236-19.637m-24.381 19.345-9.156 29.9c-1.663 5.457-2.948 8.018-10.528 8.018h-11.657l14.051-45.955h11.666c7.571.002 7.291 2.576 5.624 8.037z" style="fill:#8d7632"/>
                </g>
            </g>
            <g data-name="그룹 7963">
                <path data-name="패스 45754" d="M1371.77 12.866h24.7l3.472-11.318h-88.559l-3.833 11.378 26.022-.051-17.523 57.269h38.242z" style="fill:#898989"/>
                <path data-name="패스 45755" d="m1218.573 70.143 34.065-44.61-13.715 44.61h38.405L1298.3 1.556h-46.729l-27.045 35.406-5.113-35.406h-46.767l-20.964 68.587h18.58l13.625-44.507 6.42 44.507z" style="fill:#898989"/>
                <g data-name="그룹 7950">
                    <g data-name="그룹 7949">
                        <path data-name="패스 45763" d="M1399.94 70.534c7.924-23.211 25.648-34.416 50.514-42.083 10.515-3.245 12.259-4.323 13.11-7.079.937-3.049-1.379-4.716-8.577-4.716-9.006 0-18.472 2.354-28.9 6.982l-7.116-14.066c13.17-5.6 25.906-8.948 41.336-8.948 27.3 0 44.434 6.89 40.584 19.373-2.78 9.042-8.594 14.551-27.7 20.648-19.972 6.39-26.168 10.227-29.365 14.352h46.935l-4.783 15.537z" style="fill:#898989"/>
                    </g>
                </g>
            </g>
        </g>
    </g>
</svg>
