<svg xmlns="http://www.w3.org/2000/svg" xmlns:xlink="http://www.w3.org/1999/xlink" width="496" height="52" viewBox="0 0 496 52">
  <defs>
    <clipPath id="clip-path">
      <rect id="사각형_12017" data-name="사각형 12017" width="496" height="52" transform="translate(320.442 855.18)" fill="none" stroke="#707070" stroke-width="1"/>
    </clipPath>
    <clipPath id="clip-path-2">
      <rect id="사각형_13285" data-name="사각형 13285" width="275.601" height="43.902" fill="none"/>
    </clipPath>
  </defs>
  <g id="bi_Kinergy_GT" data-name="bi_Kinergy GT" transform="translate(-320.442 -855.18)" clip-path="url(#clip-path)">
    <g id="그룹_10895" data-name="그룹 10895" transform="translate(321.531 861.882)">
      <g id="그룹_10894" data-name="그룹 10894" transform="translate(0 0)" clip-path="url(#clip-path-2)">
        <path id="패스_54921" data-name="패스 54921" d="M64.637,53.368c.042-.159,7.442-27.773,7.513-28.043H63.137c-.042.159-7.443,27.773-7.515,28.043Z" transform="translate(-20.866 -9.5)" fill="#474645"/>
        <path id="패스_54922" data-name="패스 54922" d="M115.142,27.894c-1.308-1.705-3.776-2.568-7.336-2.568H87.036c-.043.159-7.444,27.772-7.515,28.041h9.017l5.928-22.131h7.688c1.939,0,3.224.447,3.928,1.365a3.482,3.482,0,0,1,.624,2.167,11.182,11.182,0,0,1-.447,2.784s-4.17,15.549-4.242,15.815h9.014l4.647-17.327a16.357,16.357,0,0,0,.634-4.173,6.325,6.325,0,0,0-1.171-3.974" transform="translate(-29.831 -9.501)" fill="#474645"/>
        <path id="패스_54923" data-name="패스 54923" d="M151.726,36.744l.578-2.16c.8-3,2.836-4.527,6.041-4.527h15.674c.04-.151,1.2-4.478,1.268-4.732H155.4c-6.116,0-10.442,3.049-11.869,8.365l-5.271,19.678h29.517c.041-.151,1.2-4.48,1.268-4.735h-20.5l1.787-6.688h17.89c.041-.152,1.326-4.948,1.393-5.2Z" transform="translate(-51.865 -9.5)" fill="#474645"/>
        <path id="패스_54924" data-name="패스 54924" d="M253.652,39.351a12.262,12.262,0,0,0-.432,3.177,9.8,9.8,0,0,0,2,6.053c2.369,3.087,6.505,4.787,11.646,4.787h15.067c.042-.159,4.387-16.377,4.454-16.624H272.01c-.041.15-1.328,4.945-1.4,5.2h5.371l-1.792,6.688h-3.517c-3.594,0-5.935-.774-7.158-2.368a5.4,5.4,0,0,1-1-3.394,13.922,13.922,0,0,1,.534-3.531c1.725-6.42,5.593-9.284,12.543-9.284h11.283c.041-.151,1.2-4.478,1.271-4.732h-13.7c-9.71,0-18.647,6.03-20.79,14.026" transform="translate(-94.992 -9.5)" fill="#474645"/>
        <path id="패스_54925" data-name="패스 54925" d="M321.281,25.325h-8.6l7.186,18.365s-8.671,9.33-9,9.678l8.924.034,26.068-28.078H336.94c-.065.067-11,11.831-11,11.831l-4.658-11.831" transform="translate(-116.618 -9.5)" fill="#474645"/>
        <path id="패스_54926" data-name="패스 54926" d="M216.712,25.325H199.83c-.042.159-7.441,27.773-7.513,28.043h9.014l6.37-23.776h4.054l1.142-.005c3.281-.021,6.113-.037,7.25,1.436a3.46,3.46,0,0,1,.286,3.119c-1.18,4.4-5.676,4.36-10.025,4.325l-1.187-.006h-2.949c.174.312,8.194,14.8,8.254,14.907h9.967c-.183-.315-6.605-11.423-6.605-11.423h.188c5.843,0,9.967-2.881,11.311-7.907a9.885,9.885,0,0,0,.375-2.54,4.884,4.884,0,0,0-.96-3.071c-1.646-2.146-5.375-3.1-12.09-3.1" transform="translate(-72.145 -9.5)" fill="#474645"/>
        <path id="패스_54927" data-name="패스 54927" d="M37.831,25.311c-.645,0-10.565-.018-10.565-.018L14,34.763s2.462-9.186,2.533-9.45H7.511C7.468,25.472.072,53.086,0,53.355H9.013c.042-.157,2.657-9.918,2.657-9.918l.134.148s8.747,9.718,8.747,9.77h11.73L19,38.633s18.282-12.94,18.833-13.322" transform="translate(0 -9.488)" fill="#474645"/>
        <path id="패스_54928" data-name="패스 54928" d="M153.4,11.367l-1.02,3.807h44.605l1.021-3.807Z" transform="translate(-57.165 -4.264)" fill="#c5ce00"/>
        <path id="패스_54929" data-name="패스 54929" d="M347.71,2.924,345.516,0a39.57,39.57,0,0,1-21.868,7.083l-23.378.009-1.025,3.818,23.845,0a43.94,43.94,0,0,0,24.62-7.981" transform="translate(-112.257 0)" fill="#399d26"/>
        <path id="패스_54930" data-name="패스 54930" d="M226.908,11.367l-1.022,3.807h44.607l1.02-3.807Z" transform="translate(-84.738 -4.264)" fill="#6da725"/>
        <path id="패스_54931" data-name="패스 54931" d="M364.756,49.025a8.423,8.423,0,0,0-.3,2.187,6.748,6.748,0,0,0,1.378,4.167c1.631,2.124,4.478,3.294,8.017,3.294h10.369c.03-.109,3.021-11.272,3.067-11.441h-9.9c-.028.1-.914,3.4-.961,3.579h3.7l-1.233,4.6h-2.421c-2.474,0-4.085-.533-4.926-1.63a3.723,3.723,0,0,1-.69-2.336,9.558,9.558,0,0,1,.369-2.43c1.186-4.419,3.849-6.39,8.633-6.39h7.765c.029-.1.828-3.083.875-3.257h-9.433c-6.683,0-12.835,4.15-14.309,9.654" transform="translate(-136.721 -14.77)" fill="#6da725"/>
        <path id="패스_54932" data-name="패스 54932" d="M428.3,39.371H407.924c-.048.174-.847,3.154-.876,3.257h7.089c-1.465,5.465-4.263,15.907-4.3,16.044h6.2c.021-.081,2.829-10.564,4.3-16.044h7.083c.029-.1.828-3.083.875-3.257" transform="translate(-152.698 -14.77)" fill="#6da725"/>
      </g>
    </g>
  </g>
</svg>
