<svg xmlns="http://www.w3.org/2000/svg" xmlns:xlink="http://www.w3.org/1999/xlink" width="496" height="52" viewBox="0 0 496 52">
  <defs>
    <clipPath id="clip-path">
      <rect id="사각형_12017" data-name="사각형 12017" width="496" height="52" transform="translate(320.442 855.18)" fill="none" stroke="#707070" stroke-width="1"/>
    </clipPath>
    <clipPath id="clip-path-2">
      <path id="패스_54900" data-name="패스 54900" d="M0,6.156H380.955v-26H0Z" transform="translate(0 19.843)" fill="none"/>
    </clipPath>
  </defs>
  <g id="bi_OPTIMO_H426" data-name="bi_OPTIMO H426" transform="translate(-320.442 -855.18)" clip-path="url(#clip-path)">
    <g id="그룹_10876" data-name="그룹 10876" transform="translate(321.531 897.023)">
      <g id="그룹_10864" data-name="그룹 10864" transform="translate(209.064 -19.447)">
        <path id="패스_54895" data-name="패스 54895" d="M8.433,0,4.976,9.182H-8.707L-5.252,0H-17.673L-27.18,25.207h12.423l3.746-9.938H2.673l-3.746,9.938H11.351L20.857,0Z" transform="translate(27.18)" fill="#85868a"/>
      </g>
      <g id="그룹_10869" data-name="그룹 10869" transform="translate(0 -19.843)" clip-path="url(#clip-path-2)">
        <g id="그룹_10865" data-name="그룹 10865" transform="translate(254.178 0.396)">
          <path id="패스_54896" data-name="패스 54896" d="M8.442,4.946,6.785,9.267H-4.125l1.692-4.5H-27.208L-25.3-.348,4.264-15.94H16.327L10.674-.959h5.617l-2.233,5.9Zm-12.278-9.9-.793.432C-7.583-2.9-9.816-1.751-11.8-.851c2.233-.072,5.257-.107,8.282-.107h3.24L.664-3.444C1.24-4.921,2.355-7.693,2.932-8.882,1.348-7.837-.2-6.937-3.837-4.957" transform="translate(27.208 15.94)" fill="#85868a"/>
        </g>
        <g id="그룹_10866" data-name="그룹 10866" transform="translate(297.563 0)">
          <path id="패스_54897" data-name="패스 54897" d="M0,6.062c3.6-8.5,12.136-12.6,24.162-15.411,5.113-1.19,5.942-1.585,6.3-2.593.432-1.116-.721-1.73-4.214-1.73a44.025,44.025,0,0,0-14.043,2.558L8.57-16.263A62.6,62.6,0,0,1,28.628-19.54c10.947,0,15.7,2.521,13.973,7.094-1.262,3.312-4.033,5.329-13.289,7.562C19.662-2.543,16.673-1.139,15.16.373h22.9L35.9,6.062Z" transform="translate(0 19.54)" fill="#85868a"/>
        </g>
        <g id="그룹_10867" data-name="그룹 10867" transform="translate(341.725)">
          <path id="패스_54898" data-name="패스 54898" d="M3.636,6.156c-11.055,0-17.392-3.493-14.764-10.443,2.521-6.663,13.54-15.557,38.638-15.557l-2.159,5.726c-11.488,0-18.257,1.944-22.687,4.861a40.965,40.965,0,0,1,11.884-1.475c9.074,0,14.548,2.484,12.53,7.813C24.954,2.771,16.06,6.156,3.636,6.156M8.965-5.583C3.564-5.583.539-4.4-.217-2.415-.9-.614,1.008.647,6.338.647c4.573,0,8.065-1.081,8.821-3.1.756-1.944-1.547-3.133-6.194-3.133" transform="translate(11.72 19.843)" fill="#85868a"/>
        </g>
        <g id="그룹_10868" data-name="그룹 10868" transform="translate(254.084 0.001)">
          <path id="패스_54899" data-name="패스 54899" d="M8.491,4.974,6.823,9.319H-4.151l1.7-4.526H-27.367l1.92-5.145L4.289-16.032H16.422L10.737-.967h5.65L14.141,4.974ZM-3.861-4.987l-.8.435C-7.625-2.923-9.874-1.765-11.864-.857c2.243-.075,5.287-.11,8.331-.11h3.26l.939-2.5c.579-1.483,1.7-4.273,2.284-5.469C1.356-7.886-.2-6.977-3.861-4.987" transform="translate(27.367 16.032)" fill="#85868a"/>
        </g>
      </g>
      <path id="패스_54901" data-name="패스 54901" d="M80.549,3.7h10.24V-15.34H80.549Z" transform="translate(24.991 1.397)" fill="#85868a"/>
      <g id="그룹_10870" data-name="그룹 10870" transform="translate(120.728 -13.942)">
        <path id="패스_54902" data-name="패스 54902" d="M5.9,0-.716,11.575-7.331,0H-19.022V19.037h8.793V6.221L-3.22,19.037H1.791L8.8,6.229V19.037h8.794V0Z" transform="translate(19.022)" fill="#85868a"/>
      </g>
      <g id="그룹_10871" data-name="그룹 10871" transform="translate(73.107 -13.942)">
        <path id="패스_54903" data-name="패스 54903" d="M0,0V3.809H9.163V19.037H19.4V3.809h9.159V0Z" fill="#85868a"/>
      </g>
      <g id="그룹_10875" data-name="그룹 10875" transform="translate(0 -19.843)" clip-path="url(#clip-path-2)">
        <g id="그룹_10872" data-name="그룹 10872" transform="translate(41.755 5.901)">
          <path id="패스_54904" data-name="패스 54904" d="M4.59,0,4.568.012C4.524.008,4.518,0,4.59,0H-14.794V19.035h10.24l.218-5.519,7.265.076c9.039-.166,11.885-3.08,11.885-6.79S11.968.176,4.59,0M.075,10.693H-4.554V2.9H.075c4.41,0,5.776,1.642,5.776,3.9s-1.365,3.89-5.776,3.89" transform="translate(14.794)" fill="#85868a"/>
        </g>
        <g id="그룹_10873" data-name="그룹 10873" transform="translate(0 5.524)">
          <path id="패스_54905" data-name="패스 54905" d="M4.493,0C-9.529,0-14.483,4.435-14.483,9.9s4.954,9.9,18.976,9.9,18.971-4.435,18.971-9.9S18.511,0,4.493,0m0,16.684c-5.535,0-8.249-2.884-8.249-6.781S-1.041,3.12,4.493,3.12,12.731,6,12.731,9.9s-2.711,6.781-8.238,6.781" transform="translate(14.483)" fill="#85868a"/>
        </g>
        <g id="그룹_10874" data-name="그룹 10874" transform="translate(161.283 5.524)">
          <path id="패스_54906" data-name="패스 54906" d="M4.493,0C-9.526,0-14.483,4.435-14.483,9.9s4.957,9.9,18.976,9.9,18.975-4.435,18.975-9.9S18.513,0,4.493,0m0,16.684c-5.532,0-8.245-2.884-8.245-6.781S-1.038,3.12,4.493,3.12,12.734,6,12.734,9.9s-2.711,6.781-8.24,6.781" transform="translate(14.483)" fill="#85868a"/>
        </g>
      </g>
    </g>
  </g>
</svg>
