<svg xmlns="http://www.w3.org/2000/svg" xmlns:xlink="http://www.w3.org/1999/xlink" width="496" height="52" viewBox="0 0 496 52">
  <defs>
    <clipPath id="clip-path">
      <rect id="사각형_12017" data-name="사각형 12017" width="496" height="52" transform="translate(320.442 855.18)" fill="none" stroke="#707070" stroke-width="1"/>
    </clipPath>
    <clipPath id="clip-path-2">
      <path id="패스_54955" data-name="패스 54955" d="M0,13.225H447.659V-15.547H0Z" transform="translate(0 15.547)" fill="none"/>
    </clipPath>
  </defs>
  <g id="bi_Ventus_S1_Noble2" data-name="bi_Ventus S1 Noble2" transform="translate(-320.442 -855.18)" clip-path="url(#clip-path)">
    <g id="그룹_10916" data-name="그룹 10916" transform="translate(321.531 892.56)">
      <g id="그룹_10915" data-name="그룹 10915" transform="translate(0 -15.547)" clip-path="url(#clip-path-2)">
        <g id="그룹_10905" data-name="그룹 10905" transform="translate(-0.001 7.385)">
          <path id="패스_54945" data-name="패스 54945" d="M12.661,0,1.526,14.77-4.1,0H-14.884l5.867,15.411c.955,2.715,3.59,5.824,8.787,5.824H7.443L23.449,0Z" transform="translate(14.884)" fill="#ff6920" fill-rule="evenodd"/>
        </g>
        <g id="그룹_10906" data-name="그룹 10906" transform="translate(35.226 2.566)">
          <path id="패스_54946" data-name="패스 54946" d="M27.9,8.372l-8.432-13.4H8.677L3.312,16.212H14.1L17.483,2.818l8.432,13.393H36.706L42.063-5.023H31.274Zm63.587-13.4L88.084,8.55s0,0,0,.006l-.746,2.991H80.954c-2.761,0-4.582-1.484-4.055-3.292L80.261-5.023H57.48l1.233-4.819H47.273L42.434,9.316C41.351,13.04,45.308,16.1,51.228,16.1h7l1.147-4.551H58.105c-2.759,0-4.584-1.482-4.055-3.289L56.373-.7H67.816L65.282,9.316C64.2,13.04,68.156,16.1,74.078,16.1H96.967L102.3-5.023Zm26.3,4.242h15.9l1.072-4.242h-19.1c-10.09,0-11.437,6.148-11.437,6.148l-.294,1.181h.007c-.285,3.013,1.978,4.643,5.274,4.643h12.533c1.34,0,1.98.8,1.455,1.814-.707,1.362-2.943,1.819-4.542,1.819H102.383l-1.4,5.515h20.7c10.086,0,11.435-6.148,11.435-6.148l.291-1.168C133.9,5.45,131.8,2.669,128.4,2.669h-12.79c-1.031,0-2.08-.55-1.308-1.8a4.854,4.854,0,0,1,3.483-1.645M-8.493,2.831H-21.058c.879-3.514,4.8-3.548,4.8-3.548h4.527c4.812,0,3.242,3.548,3.242,3.548m1.212-7.854H-18.05c-11.587,0-13.138,7.06-13.138,7.06l-1.364,5.484c-1.989,8.015,9,8.591,9,8.591l2.608-.015H-.524L.627,11.546H-18.493c-4.553,0-3.935-3.339-3.935-3.339l.244-.966h23.9l.892-3.579C4.852-5.356-7.281-5.023-7.281-5.023" transform="translate(32.793 9.842)" fill="#ff6920" fill-rule="evenodd"/>
        </g>
        <g id="그룹_10907" data-name="그룹 10907" transform="translate(258.664 0.239)">
          <path id="패스_54947" data-name="패스 54947" d="M5.318,0C3.324,2.624.939,2.695-5.172,2.894L-6.251,7.5H1.666L-3.508,28.267h12.8L16.216,0Z" transform="translate(6.251)" fill="#85868a"/>
        </g>
        <g id="그룹_10908" data-name="그룹 10908" transform="translate(215.247 0)">
          <path id="패스_54948" data-name="패스 54948" d="M17.584,3.558l1.19-5.112C16.438-3.3,11.737-4.183,4.627-4.183c-12.183,0-19.143,2.274-20.924,6.9a3.179,3.179,0,0,0-.18,1.5,3.613,3.613,0,0,0,1.634,2.58,26.548,26.548,0,0,0,7.488,3.435q4.569,1.463,9.1,2.937c2.31.8,2.493,1.734,2.643,2.793a2.231,2.231,0,0,1-.115.938c-.69,2.208-2.569,3.326-7.725,3.326q-5.974,0-6.292-2.678a4.443,4.443,0,0,1,.255-1.89H-18.5l-2.173,5.665C-18.3,23.462-13.09,24.554-5,24.554c6.274,0,11.939-.305,16.1-1.754,4.131-1.436,6.152-3.912,6.944-6.548a4.426,4.426,0,0,0,.205-2.141c-.257-1.355-1.553-2.6-3.886-3.761a103.354,103.354,0,0,0-12.925-4.4A32.333,32.333,0,0,1-2.315,4.621c-1.14-.47-1.747-1.025-1.84-1.669A1.186,1.186,0,0,1-4,2.163Q-3.1-.349,3.33-.347q5.338,0,5.732,2.274a7.316,7.316,0,0,1,.115,1.63Z" transform="translate(20.67 4.183)" fill="#85868a"/>
        </g>
        <g id="그룹_10909" data-name="그룹 10909" transform="translate(382.836 11.517)">
          <path id="패스_54949" data-name="패스 54949" d="M8.935,2.888H-1.114C-.413.078,2.72.051,2.72.051H6.344c3.848,0,2.591,2.837,2.591,2.837m.972-6.281H1.288c-9.268,0-10.506,5.646-10.506,5.646L-10.31,6.641c-1.592,6.411,7.2,6.872,7.2,6.872l2.086-.011h16.34l.923-3.638H.938c-3.64,0-3.15-2.672-3.15-2.672l.2-.772H17.111l.711-2.865C19.615-3.66,9.906-3.393,9.906-3.393" transform="translate(10.503 3.395)" fill="#85868a" fill-rule="evenodd"/>
        </g>
        <g id="그룹_10910" data-name="그룹 10910" transform="translate(314.915 11.518)">
          <path id="패스_54950" data-name="패스 54950" d="M9.417,2.887,8.3,7.229c-.729,2.811-3.857,2.839-3.857,2.839H-.138s-3.117-.028-2.4-2.839l1.12-4.342C-.687.078,2.442.05,2.442.05h4.58s3.113.028,2.395,2.837M10.2-3.394H1.039c-9.272,0-10.556,5.646-10.556,5.646l-1.444,5.611s-1.627,5.648,7.641,5.648H5.844c9.272,0,10.554-5.648,10.554-5.648l1.445-5.611S19.468-3.394,10.2-3.394" transform="translate(11.07 3.394)" fill="#85868a" fill-rule="evenodd"/>
        </g>
        <g id="그룹_10911" data-name="그룹 10911" transform="translate(286.019 11.072)">
          <path id="패스_54951" data-name="패스 54951" d="M8.023,7.971,10.3-1.214c.731-3.046-.805-3.951-3.933-3.951-3.163,0-5.2.9-5.915,3.851L-1.841,7.971h-7.59L-5.274-9.015H2.347l-.3,1.131A16.166,16.166,0,0,1,9.191-9.37c7.4,0,9.983,2.978,8.806,7.764L15.642,7.971Z" transform="translate(9.431 9.37)" fill="#85868a"/>
        </g>
        <g id="그룹_10912" data-name="그룹 10912" transform="translate(343.818 4.825)">
          <path id="패스_54952" data-name="패스 54952" d="M7.129,4.8A8.432,8.432,0,0,0,2.089,6.229L.513,12.636c.938.936,2.58,1.456,4.767,1.456a5.281,5.281,0,0,0,5.593-4.34C11.737,6.264,10.1,4.8,7.129,4.8M5.261,18.3A11.4,11.4,0,0,1-.531,16.972l-.261.968H-8.38L-3.15-3.415,5.012-5.647,3.118,2.022A15.048,15.048,0,0,1,9.583.6c6.2,0,10.577,2.717,9.024,9.057C17.372,14.74,12.407,18.3,5.261,18.3" transform="translate(8.38 5.647)" fill="#85868a"/>
        </g>
        <g id="그룹_10913" data-name="그룹 10913" transform="translate(371.164 4.826)">
          <path id="패스_54953" data-name="패스 54953" d="M0,10.842,5.26-10.513,13.4-12.745,7.621,10.842Z" transform="translate(0 12.745)" fill="#85868a"/>
        </g>
        <g id="그룹_10914" data-name="그룹 10914" transform="translate(418.825 1.32)">
          <path id="패스_54954" data-name="패스 54954" d="M0,8.425C1.767,2.34,7.482-.6,15.823-2.609c3.551-.853,4.1-1.138,4.264-1.858.2-.8-.677-1.238-3.179-1.238A29.352,29.352,0,0,0,7.1-3.873L4-7.559A42.017,42.017,0,0,1,18.048-9.9c7.836,0,11.482,1.8,10.678,5.076C28.143-2.459,26.35-1.013,19.939.587c-6.686,1.673-8.693,2.682-9.629,3.764H26.7l-1,4.073Z" transform="translate(0 9.904)" fill="#85868a"/>
        </g>
      </g>
    </g>
  </g>
</svg>
