<svg xmlns="http://www.w3.org/2000/svg" xmlns:xlink="http://www.w3.org/1999/xlink" width="496" height="52" viewBox="0 0 496 52">
  <defs>
    <clipPath id="clip-path">
      <rect id="사각형_12017" data-name="사각형 12017" width="496" height="52" transform="translate(320.442 855.18)" fill="none" stroke="#707070" stroke-width="1"/>
    </clipPath>
    <clipPath id="clip-path-2">
      <rect id="사각형_13283" data-name="사각형 13283" width="440.441" height="26.782" fill="none"/>
    </clipPath>
  </defs>
  <g id="bi_Ventus_V12_evo2" data-name="bi_Ventus  V12 evo2" transform="translate(-320.442 -855.18)" clip-path="url(#clip-path)">
    <g id="그룹_10858" data-name="그룹 10858" transform="translate(320.441 880.399)">
      <g id="그룹_10857" data-name="그룹 10857" transform="translate(0 0)" clip-path="url(#clip-path-2)">
        <path id="패스_54877" data-name="패스 54877" d="M435.665,16.233c1.568-5.39,6.627-7.994,14.016-9.771,3.142-.759,3.632-1.009,3.774-1.646.182-.709-.6-1.1-2.818-1.1a26.013,26.013,0,0,0-8.684,1.625l-2.74-3.265A37.237,37.237,0,0,1,451.646,0c6.942,0,10.171,1.6,9.459,4.5-.519,2.1-2.106,3.382-7.781,4.8-5.921,1.482-7.7,2.377-8.526,3.331h14.516l-.889,3.61Z" transform="translate(-20.76 0)" fill="#767676"/>
        <path id="패스_54878" data-name="패스 54878" d="M259.519.513,245.892,18.588,239.014.513H227.69l7.174,18.856h0c1.167,3.32,4.392,7.125,10.749,7.125h5.646L270.846.513Z" transform="translate(-10.85 -0.025)" fill="#767676" fill-rule="evenodd"/>
        <path id="패스_54879" data-name="패스 54879" d="M273.546,26.82,278.012,8.9h-7.23l1.138-4.572c5.564-.188,8-1.116,9.83-3.529h9.929L285.192,26.82Z" transform="translate(-12.903 -0.038)" fill="#767676"/>
        <path id="패스_54880" data-name="패스 54880" d="M290.8,26.8c2.555-8.775,10.418-13.01,21.866-15.909,4.846-1.225,5.617-1.635,5.879-2.676.29-1.152-.9-1.789-4.335-1.789A38.331,38.331,0,0,0,300.8,9.072l-4.129-5.318A54.986,54.986,0,0,1,315.9.372c10.668,0,15.6,2.6,14.421,7.321-.854,3.421-3.335,5.5-12.124,7.807-9.184,2.416-11.937,3.864-13.243,5.426h22.374L325.867,26.8Z" transform="translate(-13.857 -0.018)" fill="#767676"/>
        <path id="패스_54881" data-name="패스 54881" d="M27.586,5.59,16.438,20.377,10.806,5.59H0L5.876,21.019h0c.957,2.718,3.592,5.834,8.8,5.834h7.685L38.395,5.59Z" transform="translate(0 -0.266)" fill="#fe5a17" fill-rule="evenodd"/>
        <path id="패스_54882" data-name="패스 54882" d="M62.595,5.348H51.808c-11.6,0-13.154,7.065-13.154,7.065l-1.369,5.494c-1.99,8.026,9.012,8.6,9.012,8.6l2.61-.014H69.364l1.15-4.556H51.369c-4.558,0-3.944-3.346-3.944-3.346l.245-.968H71.611l.891-3.583c2.243-9.034-9.908-8.694-9.908-8.694m-1.213,7.86H48.8c.88-3.518,4.8-3.552,4.8-3.552h4.534c4.815,0,3.245,3.552,3.245,3.552M187.849,9.592h15.92l1.072-4.249H191.354v.006h-5.644c-10.106,0-11.455,6.152-11.455,6.152l-.294,1.183h.009c-.288,3.016,1.981,4.648,5.281,4.648H191.8c1.341,0,1.981.807,1.456,1.819-.709,1.362-2.946,1.819-4.55,1.819H172.424l-1.4,5.525h20.735c10.1,0,11.45-6.155,11.45-6.155l.29-1.171c.486-3.334-1.618-6.119-5.024-6.119h-12.81c-1.031,0-2.083-.555-1.309-1.809a4.858,4.858,0,0,1,3.488-1.649M161.507,5.348l-3.4,13.588,0,0-.749,3h-6.389c-2.765,0-4.589-1.488-4.062-3.3l3.368-13.292H127.453L128.687.516H117.23L112.387,19.7c-1.089,3.73,2.876,6.791,8.805,6.791H128.2l1.149-4.556H128.08c-2.764,0-4.591-1.485-4.063-3.3l2.328-8.97H137.8L135.268,19.7c-1.086,3.73,2.879,6.791,8.806,6.791H167l5.336-21.146ZM97.827,18.76,89.382,5.348h-10.8L73.209,26.611h10.8L87.4,13.194l8.445,13.418h10.8l5.366-21.263h-10.8Z" transform="translate(-1.765 -0.025)" fill="#fe5a17" fill-rule="evenodd"/>
        <path id="패스_54883" data-name="패스 54883" d="M393.046,9.932l-8.917,11.833-4.5-11.833h-8.647l4.7,12.343h0a7.02,7.02,0,0,0,7.04,4.667h6.145L401.694,9.932Z" transform="translate(-17.677 -0.473)" fill="#767676" fill-rule="evenodd"/>
        <path id="패스_54884" data-name="패스 54884" d="M360.706,9.931h-8.631c-9.281,0-10.522,5.656-10.522,5.656l-1.093,4.394c-1.593,6.42,7.207,6.881,7.207,6.881l2.09-.011H366.12l.925-3.641H351.724c-3.646,0-3.154-2.676-3.154-2.676l.2-.778h19.155l.713-2.868c1.8-7.221-7.929-6.956-7.929-6.956m-.97,6.289H349.671c.7-2.812,3.839-2.843,3.839-2.843h3.63c3.852,0,2.6,2.843,2.6,2.843" transform="translate(-16.214 -0.473)" fill="#767676" fill-rule="evenodd"/>
        <path id="패스_54885" data-name="패스 54885" d="M421.461,9.931h-9.175c-9.285,0-10.572,5.656-10.572,5.656l-1.448,5.619s-1.629,5.656,7.656,5.656H417.1c9.285,0,10.569-5.656,10.569-5.656l1.449-5.619s1.628-5.656-7.655-5.656m-.786,6.289-1.117,4.349c-.731,2.815-3.863,2.841-3.863,2.841h-4.588s-3.121-.026-2.4-2.841l1.121-4.349c.73-2.812,3.862-2.843,3.862-2.843h4.59s3.116.03,2.4,2.843" transform="translate(-19.068 -0.473)" fill="#767676" fill-rule="evenodd"/>
      </g>
    </g>
  </g>
</svg>
