<svg xmlns="http://www.w3.org/2000/svg" xmlns:xlink="http://www.w3.org/1999/xlink" width="496" height="52" viewBox="0 0 496 52">
  <defs>
    <clipPath id="clip-path">
      <rect id="사각형_12017" data-name="사각형 12017" width="496" height="52" transform="translate(320.442 855.18)" fill="none" stroke="#707070" stroke-width="1"/>
    </clipPath>
    <clipPath id="clip-path-2">
      <rect id="사각형_13281" data-name="사각형 13281" width="406.694" height="29.154" fill="none"/>
    </clipPath>
  </defs>
  <g id="bi_Ventus_S1_evo_2" data-name="bi_Ventus S1 evo 2" transform="translate(-320.442 -855.18)" clip-path="url(#clip-path)">
    <g id="그룹_10851" data-name="그룹 10851" transform="translate(320.441 878.025)">
      <g id="그룹_10850" data-name="그룹 10850" transform="translate(0 0)" clip-path="url(#clip-path-2)">
        <path id="패스_54861" data-name="패스 54861" d="M27.944,10.277,16.65,25.262l-5.7-14.985H0L5.952,25.91h0c.968,2.754,3.639,5.909,8.913,5.909h7.785L38.891,10.277Z" transform="translate(0 -2.785)" fill="#fe5a17" fill-rule="evenodd"/>
        <path id="패스_54862" data-name="패스 54862" d="M74.9,8.459H63.977c-11.755,0-13.325,7.162-13.325,7.162l-1.387,5.564c-2.016,8.131,9.129,8.714,9.129,8.714l2.643-.015H81.76l1.165-4.616h-19.4c-4.616,0-3.992-3.388-3.992-3.388l.248-.98h24.25l.9-3.631C87.211,8.121,74.9,8.459,74.9,8.459m-1.231,7.968H60.929c.892-3.566,4.864-3.6,4.864-3.6h4.593c4.878,0,3.286,3.6,3.286,3.6m128.106-3.665h16.128l1.088-4.3h-19.38c-10.237,0-11.6,6.237-11.6,6.237l-.3,1.2h.009c-.291,3.055,2.008,4.71,5.351,4.71h12.715c1.358,0,2.006.814,1.475,1.839-.717,1.381-2.984,1.845-4.607,1.845h-16.5l-1.415,5.6h21c10.231,0,11.6-6.237,11.6-6.237l.294-1.185c.493-3.38-1.64-6.2-5.089-6.2H199.571c-1.045,0-2.11-.558-1.327-1.831a4.923,4.923,0,0,1,3.534-1.669M175.1,8.459l-3.448,13.769,0,.006-.757,3.036h-6.471c-2.8,0-4.65-1.506-4.115-3.34l3.412-13.47H140.6l1.25-4.889h-11.6L125.34,23.005c-1.1,3.779,2.914,6.88,8.919,6.88h7.1l1.165-4.616h-1.285c-2.8,0-4.65-1.5-4.114-3.337l2.358-9.087h11.607l-2.569,10.16c-1.1,3.779,2.916,6.88,8.922,6.88H180.66l5.4-21.426ZM110.59,22.049,102.036,8.459H91.092L85.653,30H96.6l3.431-13.589L108.582,30h10.944l5.435-21.543H114.018Z" transform="translate(-13.285 -0.968)" fill="#fe5a17" fill-rule="evenodd"/>
        <path id="패스_54863" data-name="패스 54863" d="M371.689.332c-2.021,2.662-4.443,2.734-10.642,2.936l-1.094,4.676h8.031l-5.248,21.064H375.72L382.745.332Z" transform="translate(-97.547 -0.09)" fill="#898989"/>
        <path id="패스_54864" data-name="패스 54864" d="M338.341,7.855l1.207-5.185C337.179.892,332.409,0,325.2,0c-12.357,0-19.42,2.307-21.226,7a3.235,3.235,0,0,0-.182,1.518,3.666,3.666,0,0,0,1.658,2.617,26.952,26.952,0,0,0,7.6,3.485q4.634,1.483,9.231,2.979c2.344.814,2.529,1.76,2.683,2.834a2.281,2.281,0,0,1-.117.951c-.7,2.241-2.605,3.375-7.837,3.375-4.039,0-6.167-.911-6.382-2.717a4.53,4.53,0,0,1,.259-1.917h-9.141l-2.2,5.747c2.4,2.178,7.691,3.286,15.9,3.286,6.363,0,12.11-.311,16.333-1.78,4.192-1.458,6.242-3.969,7.045-6.643a4.475,4.475,0,0,0,.208-2.172q-.389-2.059-3.941-3.813a104.567,104.567,0,0,0-13.114-4.465,32.612,32.612,0,0,1-3.807-1.349c-1.156-.476-1.77-1.04-1.864-1.692a1.2,1.2,0,0,1,.151-.8q.916-2.55,7.439-2.546,5.416,0,5.815,2.307a7.6,7.6,0,0,1,.117,1.655Z" transform="translate(-81.174 0)" fill="#898989"/>
        <path id="패스_54865" data-name="패스 54865" d="M463.076,16.027l-9.033,11.988-4.564-11.988h-8.757l4.761,12.507h0a7.112,7.112,0,0,0,7.13,4.728h6.228l12.992-17.234Z" transform="translate(-119.435 -4.343)" fill="#898989" fill-rule="evenodd"/>
        <path id="패스_54866" data-name="패스 54866" d="M420.787,16.028h-8.743c-9.4,0-10.659,5.729-10.659,5.729l-1.107,4.451c-1.615,6.5,7.3,6.971,7.3,6.971l2.116-.011h16.576l.937-3.691h-15.52c-3.693,0-3.2-2.711-3.2-2.711l.2-.783h19.4l.72-2.907c1.82-7.318-8.03-7.048-8.03-7.048M419.8,22.4H409.607c.711-2.85,3.89-2.879,3.89-2.879h3.676c3.9,0,2.628,2.879,2.628,2.879" transform="translate(-108.422 -4.343)" fill="#898989" fill-rule="evenodd"/>
        <path id="패스_54867" data-name="패스 54867" d="M500.915,16.028H491.62c-9.406,0-10.708,5.729-10.708,5.729l-1.466,5.693s-1.649,5.729,7.754,5.729H496.5c9.406,0,10.708-5.729,10.708-5.729l1.467-5.693s1.648-5.729-7.754-5.729M500.12,22.4l-1.134,4.405c-.74,2.85-3.913,2.879-3.913,2.879h-4.647s-3.161-.028-2.432-2.879l1.137-4.405c.737-2.85,3.913-2.879,3.913-2.879h4.647s3.158.028,2.429,2.879" transform="translate(-129.899 -4.344)" fill="#898989" fill-rule="evenodd"/>
        <path id="패스_54868" data-name="패스 54868" d="M522.4,17.83c1.586-5.456,6.711-8.093,14.2-9.9,3.184-.763,3.679-1.02,3.825-1.666.182-.718-.609-1.111-2.853-1.111a26.369,26.369,0,0,0-8.8,1.643l-2.776-3.306a37.68,37.68,0,0,1,12.6-2.1c7.032,0,10.3,1.618,9.58,4.553-.524,2.127-2.132,3.423-7.883,4.858-6,1.5-7.8,2.4-8.636,3.375h14.7l-.9,3.654Z" transform="translate(-141.569 -0.377)" fill="#898989"/>
      </g>
    </g>
  </g>
</svg>
